<svg width="24" height="24" viewBox="0 0 24 24" fill="none" xmlns="http://www.w3.org/2000/svg">
<path fill-rule="evenodd" clip-rule="evenodd" d="M13 1C13 0.447715 12.5523 0 12 0C11.4477 0 11 0.447715 11 1C11 1.55228 11.4477 2 12 2C12.5523 2 13 1.55228 13 1ZM16 12C16 14.2091 14.2091 16 12 16C9.79086 16 8 14.2091 8 12C8 9.79086 9.79086 8 12 8C14.2091 8 16 9.79086 16 12ZM12 22C12.5523 22 13 22.4477 13 23C13 23.5523 12.5523 24 12 24C11.4477 24 11 23.5523 11 23C11 22.4477 11.4477 22 12 22ZM23 13C23.5523 13 24 12.5523 24 12C24 11.4477 23.5523 11 23 11C22.4477 11 22 11.4477 22 12C22 12.5523 22.4477 13 23 13ZM2 12C2 12.5523 1.55228 13 1 13C0.447715 13 0 12.5523 0 12C0 11.4477 0.447715 11 1 11C1.55228 11 2 11.4477 2 12ZM19.0702 20.4853C19.4608 20.8759 20.0939 20.8759 20.4845 20.4853C20.875 20.0948 20.875 19.4616 20.4845 19.0711C20.0939 18.6806 19.4608 18.6806 19.0702 19.0711C18.6797 19.4616 18.6797 20.0948 19.0702 20.4853ZM4.92976 4.92894C4.53924 5.31946 3.90607 5.31946 3.51555 4.92894C3.12503 4.53841 3.12503 3.90525 3.51555 3.51472C3.90607 3.1242 4.53924 3.1242 4.92976 3.51472C5.32029 3.90525 5.32029 4.53841 4.92976 4.92894ZM20.4846 4.92976C20.8751 4.53924 20.8751 3.90607 20.4846 3.51555C20.0941 3.12503 19.4609 3.12503 19.0704 3.51555C18.6799 3.90607 18.6799 4.53924 19.0704 4.92976C19.4609 5.32029 20.0941 5.32029 20.4846 4.92976ZM4.92991 19.0702C5.32044 19.4608 5.32044 20.0939 4.92991 20.4845C4.53939 20.875 3.90622 20.875 3.5157 20.4845C3.12518 20.0939 3.12518 19.4608 3.5157 19.0702C3.90622 18.6797 4.53939 18.6797 4.92991 19.0702Z" fill="currentColor"/>
</svg>
