<svg width="222" height="44" viewBox="0 0 222 44" fill="none" xmlns="http://www.w3.org/2000/svg">
<g clip-path="url(#clip0_3095_95234)">
<path fill-rule="evenodd" clip-rule="evenodd" d="M39.5435 0H13.1812L0 21.9996L13.1812 43.9991H39.5435L52.725 21.9996L39.5435 0ZM32.7653 11.313H19.9595L13.5566 21.9996L19.9595 32.6862H32.7653L39.1682 21.9996L32.7653 11.313Z" fill="#7C7C7C"/>
<path d="M22.5196 15.5815H30.1612L33.982 21.9585L30.1612 28.3355H22.5196L18.6987 21.9585L22.5196 15.5815Z" fill="#8C8C8C"/>
<path d="M30.167 28.3394L26.3954 21.9624L22.5254 28.3394H30.167Z" fill="#CBCBCB"/>
<path d="M30.167 15.5815H22.5254L26.3954 21.9585L30.167 15.5815Z" fill="#383838"/>
<path d="M30.1612 15.5815L26.3895 21.9585H34.0018L30.1612 15.5815ZM26.3895 21.9585L22.5196 15.5815L18.6987 21.9585H26.3895Z" fill="#676767"/>
<path d="M39.5408 43.9995L52.7224 22H39.1656L32.7627 32.6867L39.5408 43.9995Z" fill="#979797"/>
<path d="M39.5409 44.0013L46.3192 32.6885H32.7627L39.5409 44.0013Z" fill="#919191"/>
<path d="M46.3468 11.3169H32.7627L39.1656 22.0034L46.3468 11.3169Z" fill="#4F4F4F"/>
<path d="M46.3457 11.3276L39.1646 21.9986H52.7213L46.3457 11.3276Z" fill="#2D2D2D"/>
<path d="M26.3623 44.0013L32.7652 32.6885L39.5434 44.0013H26.3623Z" fill="#919191"/>
<path d="M0 22H13.5566L6.40291 32.6867H19.9595L26.5579 43.9995H13.1812L6.40291 32.6867L0 22Z" fill="#CBCBCB"/>
<path fill-rule="evenodd" clip-rule="evenodd" d="M13.5566 22.0034L6.42802 11.3169L0 22.0034H13.5566L19.9595 32.6901H6.42802L13.5566 22.0034Z" fill="#B0B0B0"/>
<path d="M32.7619 11.313L26.5544 0L19.9561 11.313H32.7619Z" fill="#B0B0B0"/>
<path d="M39.5409 0L32.7627 11.313H46.3468L39.5409 0Z" fill="#646464"/>
<path d="M141.981 23.1602H143.358L144.047 24.3017L143.358 25.4432H141.981L141.293 24.3017L141.981 23.1602Z" fill="white"/>
<path d="M72.1499 29.1986V15.2234H74.0006V29.1986H72.1499ZM91.0008 18.1562C90.658 17.7888 90.1301 17.4542 89.4171 17.1524C88.7046 16.8506 87.9093 16.6997 87.032 16.6997C85.9078 16.6997 85.0787 16.903 84.5439 17.3098C84.0094 17.7166 83.742 18.2743 83.742 18.9829C83.742 19.4816 83.879 19.8753 84.1533 20.1639C84.4276 20.4526 84.8455 20.6888 85.4076 20.8725C85.9832 21.0562 86.71 21.2465 87.5872 21.4434C88.6015 21.6533 89.4791 21.9092 90.2193 22.211C90.9596 22.5128 91.5283 22.9196 91.9257 23.4314C92.3235 23.93 92.5221 24.5993 92.5221 25.4391C92.5221 26.3314 92.2889 27.0663 91.823 27.6436C91.357 28.221 90.7195 28.6475 89.9108 28.923C89.1159 29.1986 88.2179 29.3364 87.2171 29.3364C84.9417 29.3364 82.9606 28.6803 81.2746 27.368L82.1588 25.8721C82.4604 26.1608 82.8648 26.4495 83.3719 26.7382C83.8928 27.0269 84.4823 27.2696 85.1402 27.4665C85.812 27.6502 86.518 27.742 87.2583 27.742C88.3002 27.742 89.1089 27.5649 89.6845 27.2106C90.2601 26.8432 90.5483 26.3117 90.5483 25.6162C90.5483 25.0913 90.3836 24.6714 90.0547 24.3565C89.7395 24.0416 89.2663 23.7791 88.6361 23.5692C88.0055 23.3592 87.2375 23.1493 86.3329 22.9393C85.346 22.7031 84.5165 22.4472 83.8448 22.1717C83.1733 21.8829 82.6659 21.509 82.3234 21.0497C81.9945 20.5904 81.8298 19.9933 81.8298 19.2585C81.8298 18.3662 82.056 17.6116 82.5085 16.9949C82.9606 16.3782 83.5843 15.9123 84.3796 15.5974C85.1745 15.2825 86.0725 15.125 87.0732 15.125C88.0466 15.125 88.9308 15.2693 89.7257 15.558C90.5345 15.8467 91.2474 16.2338 91.8642 16.7193L91.0008 18.1562ZM105.813 29.297C104.785 29.297 103.853 29.1002 103.017 28.7065C102.18 28.3129 101.454 27.7814 100.837 27.1122C100.234 26.4298 99.7677 25.6687 99.4387 24.8289C99.1098 23.976 98.9455 23.1033 98.9455 22.211C98.9455 21.2793 99.1167 20.3936 99.4595 19.5538C99.8158 18.7008 100.303 17.9463 100.919 17.2902C101.55 16.6209 102.283 16.096 103.119 15.7155C103.955 15.3218 104.867 15.125 105.854 15.125C106.883 15.125 107.814 15.3284 108.651 15.7352C109.487 16.142 110.206 16.6865 110.81 17.3689C111.413 18.0512 111.879 18.8123 112.208 19.6522C112.537 20.492 112.702 21.3515 112.702 22.2307C112.702 23.1624 112.53 24.0547 112.188 24.9076C111.845 25.7475 111.358 26.502 110.727 27.1712C110.111 27.8273 109.384 28.3457 108.548 28.7262C107.712 29.1068 106.8 29.297 105.813 29.297ZM100.817 22.211C100.817 22.9196 100.933 23.6085 101.166 24.2778C101.413 24.9339 101.755 25.5178 102.194 26.0296C102.633 26.5413 103.16 26.9481 103.778 27.25C104.394 27.5518 105.08 27.7027 105.834 27.7027C106.615 27.7027 107.314 27.5452 107.931 27.2303C108.548 26.9153 109.069 26.4954 109.494 25.9705C109.933 25.4456 110.261 24.8552 110.481 24.199C110.714 23.5429 110.831 22.8802 110.831 22.211C110.831 21.5024 110.707 20.82 110.46 20.1639C110.227 19.5078 109.884 18.9239 109.432 18.4121C108.993 17.8872 108.466 17.4804 107.849 17.1917C107.245 16.8899 106.574 16.739 105.834 16.739C105.052 16.739 104.353 16.8965 103.736 17.2114C103.119 17.5132 102.592 17.9266 102.153 18.4515C101.728 18.9764 101.399 19.5669 101.166 20.223C100.933 20.866 100.817 21.5286 100.817 22.211ZM120.056 15.2234L124.889 26.9744L129.7 15.2234H131.654L125.732 29.1986H124.046L118.103 15.2234H120.056ZM141.813 15.2234H143.376L149.339 29.1986H147.235L145.637 25.1045L142.594 17.2705L137.803 29.1986H135.829L141.813 15.2234ZM156.222 29.1986V15.2234H158.073V27.6239H166.215V29.1986H156.222ZM183.076 27.6239V29.1986H173.165V15.2234H182.891V16.7981H175.016V21.3253H181.863V22.8015H175.016V27.6239H183.076ZM192.401 18.4909V29.1986H190.55V15.2234H192.113L201.037 26.1477V15.2431H202.887V29.1986H201.201L192.401 18.4909ZM221.836 16.7981H216.798V29.1986H214.948V16.7981H209.91V15.2234H221.836V16.7981Z" fill="white"/>
</g>
<defs>
<clipPath id="clip0_3095_95234">
<rect width="222" height="44" fill="white"/>
</clipPath>
</defs>
</svg>
