<svg width="80" height="62" viewBox="0 0 80 62" fill="none" xmlns="http://www.w3.org/2000/svg">
<rect width="80" height="62" rx="10" fill="black"/>
<mask id="mask0_654_93306" style="mask-type:alpha" maskUnits="userSpaceOnUse" x="0" y="0" width="80" height="62">
<rect width="80" height="62" rx="10" fill="black"/>
</mask>
<g mask="url(#mask0_654_93306)">
<rect x="7" width="1" height="62" fill="#4D4D4D"/>
<rect x="20" width="1" height="62" fill="#4D4D4D"/>
<rect x="33" width="1" height="62" fill="#4D4D4D"/>
<rect x="46" width="1" height="62" fill="#4D4D4D"/>
<rect x="59" width="1" height="62" fill="#4D4D4D"/>
<rect x="72" width="1" height="62" fill="#4D4D4D"/>
<circle cx="8.5" cy="8.5" r="2.5" fill="white"/>
<circle cx="16.5" cy="8.5" r="2.5" fill="white"/>
<circle cx="24.5" cy="8.5" r="2.5" fill="white"/>
<rect x="46" y="15" width="14" height="14" fill="#2B4BEE"/>
<rect x="46" y="35" width="27" height="3" rx="1.5" fill="white"/>
<rect x="46" y="42" width="14" height="3" rx="1.5" fill="white"/>
<rect x="46" y="49" width="20" height="3" rx="1.5" fill="white"/>
<circle cx="14" cy="29" r="7" fill="#EE2B6C"/>
<rect x="7" y="42" width="27" height="3" rx="1.5" fill="white"/>
<rect x="7" y="49" width="20" height="3" rx="1.5" fill="white"/>
</g>
</svg>
