<svg width="80" height="62" viewBox="0 0 80 62" fill="none" xmlns="http://www.w3.org/2000/svg">
<rect width="80" height="62" rx="10" fill="black"/>
<line x1="26.5" y1="47" x2="26.5" y2="62" stroke="#4D4D4D"/>
<line x1="32.5" y1="47" x2="32.5" y2="62" stroke="#4D4D4D"/>
<line x1="20.5" y1="47" x2="20.5" y2="62" stroke="#4D4D4D"/>
<line x1="41.5" y1="2.18557e-08" x2="41.5" y2="15" stroke="#4D4D4D"/>
<line x1="35.5" y1="2.18557e-08" x2="35.5" y2="15" stroke="#4D4D4D"/>
<line x1="29.5" y1="2.18557e-08" x2="29.5" y2="15" stroke="#4D4D4D"/>
<line x1="80" y1="25.5" x2="71" y2="25.5" stroke="#4D4D4D"/>
<line x1="80" y1="20.5" x2="71" y2="20.5" stroke="#4D4D4D"/>
<line x1="9" y1="41.5" x2="-4.37114e-08" y2="41.5" stroke="#4D4D4D"/>
<line x1="9" y1="36.5" x2="-4.37114e-08" y2="36.5" stroke="#4D4D4D"/>
<path fill-rule="evenodd" clip-rule="evenodd" d="M59 15C59 15.2761 59.2239 15.5 59.5 15.5H63C67.1421 15.5 70.5 18.8579 70.5 23C70.5 27.1421 67.1421 30.5 63 30.5H38.5C38.2239 30.5 38 30.7239 38 31C38 31.2761 38.2239 31.5 38.5 31.5H63C67.6944 31.5 71.5 27.6944 71.5 23C71.5 18.3056 67.6944 14.5 63 14.5H59.5C59.2239 14.5 59 14.7239 59 15ZM17 30.5H25.5C25.7761 30.5 26 30.7239 26 31C26 31.2761 25.7761 31.5 25.5 31.5H17C12.8579 31.5 9.5 34.8579 9.5 39C9.5 43.1421 12.8579 46.5 17 46.5H37.5C37.7761 46.5 38 46.7239 38 47C38 47.2761 37.7761 47.5 37.5 47.5H17C12.3056 47.5 8.5 43.6944 8.5 39C8.5 34.3056 12.3056 30.5 17 30.5ZM49 47C49 47.2761 49.2239 47.5 49.5 47.5H55.5C55.7761 47.5 56 47.2761 56 47C56 46.7239 55.7761 46.5 55.5 46.5H49.5C49.2239 46.5 49 46.7239 49 47ZM47 15C47 14.7239 46.7761 14.5 46.5 14.5H24.5C24.2239 14.5 24 14.7239 24 15C24 15.2761 24.2239 15.5 24.5 15.5H46.5C46.7761 15.5 47 15.2761 47 15Z" fill="white"/>
<rect x="28" y="35" width="8" height="8" transform="rotate(-90 28 35)" fill="white"/>
<rect x="49" y="11" width="8" height="8" rx="4" fill="white"/>
<path d="M47.1859 46.4912C47.5619 46.7262 47.5619 47.2738 47.1859 47.5088L40.918 51.4263C40.5184 51.676 40 51.3887 40 50.9175L40 43.0825C40 42.6113 40.5184 42.324 40.918 42.5737L47.1859 46.4912Z" fill="white"/>
<rect x="8" y="8" width="14" height="14" fill="#2B4BEE"/>
<circle cx="65" cy="47" r="7" fill="#EE2B6C"/>
</svg>
