<svg width="620" height="502" viewBox="0 0 620 502" fill="none" xmlns="http://www.w3.org/2000/svg">
<rect width="620" height="502" rx="20.9459" fill="#121212"/>
<mask id="mask0_1071_91930" style="mask-type:alpha" maskUnits="userSpaceOnUse" x="0" y="0" width="620" height="502">
<rect width="620" height="502" rx="20.9459" fill="#121212"/>
</mask>
<g mask="url(#mask0_1071_91930)">
<rect x="239.832" y="117.134" width="136.149" height="6.275" rx="3.1375" fill="#666666"/>
<rect x="239.832" y="156.875" width="43.9865" height="6.275" rx="3.1375" fill="#D9D9A6"/>
<rect x="290.102" y="156.875" width="43.9865" height="6.275" rx="3.1375" fill="#666666"/>
<rect x="340.371" y="156.875" width="211.554" height="6.275" rx="3.1375" fill="#666666"/>
<rect x="239.828" y="196.618" width="33.5135" height="6.275" rx="3.1375" fill="#666666"/>
<rect x="319.422" y="196.618" width="54.4595" height="6.275" rx="3.1375" fill="#D9D9A6"/>
<rect x="380.164" y="196.618" width="96.3513" height="6.275" rx="3.1375" fill="#C7826B"/>
<rect x="279.625" y="196.618" width="33.5135" height="6.275" rx="3.1375" fill="#9BDEFF"/>
<rect x="239.828" y="215.443" width="33.5135" height="6.275" rx="3.1375" fill="#666666"/>
<rect x="319.422" y="215.443" width="43.9865" height="6.275" rx="3.1375" fill="#D9D9A6"/>
<rect x="369.691" y="215.443" width="201.081" height="6.275" rx="3.1375" fill="#C7826B"/>
<rect x="279.625" y="215.443" width="33.5135" height="6.275" rx="3.1375" fill="#9BDEFF"/>
<rect x="239.828" y="234.268" width="33.5135" height="6.275" rx="3.1375" fill="#666666"/>
<rect x="319.422" y="234.268" width="54.4595" height="6.275" rx="3.1375" fill="#D9D9A6"/>
<rect x="380.164" y="234.268" width="106.824" height="6.275" rx="3.1375" fill="#C7826B"/>
<rect x="279.625" y="234.268" width="33.5135" height="6.275" rx="3.1375" fill="#9BDEFF"/>
<rect x="239.828" y="274.01" width="58.6486" height="6.275" rx="3.1375" fill="#666666"/>
<rect x="304.762" y="274.01" width="43.9865" height="6.275" rx="3.1375" fill="#D9D9A6"/>
<rect x="355.031" y="274.01" width="180.135" height="6.275" rx="3.1375" fill="#666666"/>
<rect x="239.828" y="292.835" width="58.6486" height="6.275" rx="3.1375" fill="#666666"/>
<rect x="304.762" y="292.835" width="33.5135" height="6.275" rx="3.1375" fill="#D9D9A6"/>
<rect x="344.559" y="292.835" width="127.77" height="6.275" rx="3.1375" fill="#666666"/>
<rect x="239.828" y="311.659" width="58.6486" height="6.275" rx="3.1375" fill="#666666"/>
<rect x="304.762" y="311.659" width="43.9865" height="6.275" rx="3.1375" fill="#D9D9A6"/>
<rect x="355.031" y="311.659" width="138.243" height="6.275" rx="3.1375" fill="#666666"/>
<rect x="239.828" y="330.484" width="58.6486" height="6.275" rx="3.1375" fill="#666666"/>
<rect x="304.762" y="330.484" width="33.5135" height="6.275" rx="3.1375" fill="#D9D9A6"/>
<rect x="344.559" y="330.484" width="211.554" height="6.275" rx="3.1375" fill="#666666"/>
<rect x="205.273" y="416.242" width="48.1757" height="6.275" rx="3.1375" fill="#404040"/>
<rect x="261.828" y="416.242" width="48.1757" height="6.275" rx="3.1375" fill="white"/>
<rect x="318.383" y="416.242" width="251.351" height="6.275" rx="3.1375" fill="#999999"/>
<rect x="205.273" y="435.068" width="48.1757" height="6.275" rx="3.1375" fill="#404040"/>
<rect x="261.828" y="435.068" width="37.7027" height="6.275" rx="3.1375" fill="white"/>
<rect x="307.91" y="435.068" width="178.041" height="6.275" rx="3.1375" fill="#999999"/>
<rect x="494.328" y="435.068" width="20.9459" height="6.275" rx="3.1375" fill="#9BDEFF"/>
<rect x="205.273" y="453.892" width="48.1757" height="6.275" rx="3.1375" fill="#404040"/>
<rect x="261.828" y="453.892" width="48.1757" height="6.275" rx="3.1375" fill="white"/>
<rect x="441.961" y="453.892" width="20.9459" height="6.275" rx="3.1375" fill="#9BDEFF"/>
<rect x="318.383" y="453.892" width="115.203" height="6.275" rx="3.1375" fill="#999999"/>
<path d="M279.002 389.591H281.932C284.351 389.591 285.752 388.095 285.752 385.518V385.507C285.752 382.959 284.34 381.474 281.932 381.474H279.002V389.591ZM280.262 388.505V382.559H281.792C283.474 382.559 284.469 383.656 284.469 385.524V385.535C284.469 387.419 283.491 388.505 281.792 388.505H280.262ZM287.462 389.591H292.615V388.505H288.722V385.979H292.406V384.933H288.722V382.559H292.615V381.474H287.462V389.591ZM294.437 389.591H297.773C299.505 389.591 300.546 388.725 300.546 387.301V387.29C300.546 386.233 299.815 385.456 298.718 385.338V385.243C299.517 385.108 300.141 384.348 300.141 383.504V383.493C300.141 382.25 299.224 381.474 297.7 381.474H294.437V389.591ZM297.407 382.503C298.341 382.503 298.887 382.948 298.887 383.713V383.724C298.887 384.511 298.307 384.928 297.193 384.928H295.697V382.503H297.407ZM297.447 385.889C298.633 385.889 299.258 386.339 299.258 387.211V387.223C299.258 388.095 298.656 388.561 297.52 388.561H295.697V385.889H297.447ZM305.446 389.788C307.487 389.788 308.731 388.578 308.731 386.795V381.474H307.471V386.699C307.471 387.875 306.739 388.674 305.446 388.674C304.152 388.674 303.415 387.875 303.415 386.699V381.474H302.155V386.795C302.155 388.578 303.409 389.788 305.446 389.788ZM314.181 389.788C316.308 389.788 317.686 388.455 317.686 386.396V385.389H314.356V386.407H316.443V386.587C316.431 387.836 315.526 388.674 314.198 388.674C312.674 388.674 311.718 387.47 311.718 385.529V385.518C311.718 383.606 312.668 382.391 314.17 382.391C315.284 382.391 316.06 382.931 316.353 383.893L316.37 383.949H317.63L317.618 383.893C317.326 382.323 316.015 381.277 314.17 381.277C311.898 381.277 310.429 382.948 310.429 385.524V385.535C310.429 388.145 311.881 389.788 314.181 389.788ZM325.904 389.788C327.715 389.788 329.037 388.753 329.274 387.194V387.161H328.025L328.014 387.183C327.783 388.1 326.979 388.674 325.904 388.674C324.442 388.674 323.53 387.464 323.53 385.541V385.529C323.53 383.6 324.442 382.391 325.899 382.391C326.967 382.391 327.783 383.038 328.019 384.033V384.05H329.268L329.274 384.022C329.06 382.407 327.687 381.277 325.899 381.277C323.643 381.277 322.242 382.908 322.242 385.529V385.541C322.242 388.156 323.648 389.788 325.904 389.788ZM334.392 389.788C336.738 389.788 338.178 388.134 338.178 385.535V385.524C338.178 382.919 336.727 381.277 334.392 381.277C332.064 381.277 330.601 382.914 330.601 385.524V385.535C330.601 388.14 332.03 389.788 334.392 389.788ZM334.392 388.674C332.829 388.674 331.889 387.436 331.889 385.535V385.524C331.889 383.606 332.857 382.391 334.392 382.391C335.928 382.391 336.89 383.606 336.89 385.524V385.535C336.89 387.436 335.934 388.674 334.392 388.674ZM339.888 389.591H341.114V383.696H341.204L345.373 389.591H346.509V381.474H345.283V387.38H345.198L341.024 381.474H339.888V389.591ZM351.296 389.788C353.186 389.788 354.395 388.82 354.395 387.268V387.262C354.395 386.058 353.698 385.372 351.993 385.006L351.11 384.809C350.058 384.584 349.631 384.191 349.631 383.589V383.583C349.631 382.818 350.334 382.374 351.285 382.374C352.269 382.368 352.905 382.852 353.012 383.516L353.023 383.589H354.244L354.238 383.51C354.148 382.25 353.023 381.277 351.302 381.277C349.58 381.277 348.365 382.244 348.36 383.645V383.651C348.36 384.849 349.068 385.614 350.717 385.963L351.605 386.154C352.68 386.384 353.119 386.789 353.119 387.414V387.419C353.119 388.173 352.382 388.691 351.347 388.691C350.261 388.691 349.479 388.218 349.412 387.481L349.406 387.419H348.168L348.174 387.493C348.287 388.86 349.462 389.788 351.296 389.788ZM359.514 389.788C361.86 389.788 363.3 388.134 363.3 385.535V385.524C363.3 382.919 361.849 381.277 359.514 381.277C357.185 381.277 355.723 382.914 355.723 385.524V385.535C355.723 388.14 357.152 389.788 359.514 389.788ZM359.514 388.674C357.951 388.674 357.011 387.436 357.011 385.535V385.524C357.011 383.606 357.979 382.391 359.514 382.391C361.05 382.391 362.012 383.606 362.012 385.524V385.535C362.012 387.436 361.056 388.674 359.514 388.674ZM365.01 389.591H370.073V388.505H366.27V381.474H365.01V389.591ZM371.67 389.591H376.823V388.505H372.93V385.979H376.615V384.933H372.93V382.559H376.823V381.474H371.67V389.591Z" fill="#A0A0A0"/>
<path d="M208.74 389.591H210V382.559H212.548V381.474H206.186V382.559H208.74V389.591ZM214.095 389.591H219.247V388.505H215.355V385.979H219.039V384.933H215.355V382.559H219.247V381.474H214.095V389.591ZM221.07 389.591H222.33V386.469H224.107L225.761 389.591H227.218L225.396 386.272C226.386 385.94 226.971 385.051 226.971 383.96V383.949C226.971 382.441 225.936 381.474 224.271 381.474H221.07V389.591ZM222.33 385.445V382.531H224.107C225.081 382.531 225.677 383.083 225.677 383.983V383.994C225.677 384.916 225.114 385.445 224.147 385.445H222.33ZM228.765 389.591H229.913V383.634H230.003L232.382 389.591H233.316L235.701 383.634H235.785V389.591H236.933V381.474H235.481L232.894 387.948H232.804L230.216 381.474H228.765V389.591ZM238.969 389.591H240.229V381.474H238.969V389.591ZM242.265 389.591H243.492V383.696H243.582L247.75 389.591H248.886V381.474H247.66V387.38H247.575L243.402 381.474H242.265V389.591ZM250.304 389.591H251.626L252.362 387.397H255.468L256.199 389.591H257.526L254.596 381.474H253.234L250.304 389.591ZM253.864 382.897H253.96L255.13 386.384H252.7L253.864 382.897ZM258.938 389.591H264.001V388.505H260.198V381.474H258.938V389.591Z" fill="white"/>
<rect x="205.273" y="396.37" width="59.6959" height="1.04583" fill="#E7E7E7"/>
<path d="M414.665 378.563L413.651 379.523V391.523L414.665 392.537H426.665L427.625 391.523V379.523L426.665 378.563H414.665ZM414.665 391.523V379.523H426.665V391.523H414.665ZM418.398 388.857L419.091 389.603L422.611 386.083V385.497L419.091 381.977L418.398 382.67L421.491 385.817L418.398 388.857Z" fill="#999999"/>
<path d="M433.816 389.55H438.665V388.588H435.329V388.493L438.631 384.279V383.441H433.838V384.403H437.191V384.499L433.816 388.757V389.55ZM442.501 389.668C443.952 389.668 445.032 388.898 445.032 387.767V387.756C445.032 386.872 444.47 386.372 443.294 386.096L442.327 385.877C441.64 385.714 441.359 385.477 441.359 385.095V385.084C441.359 384.594 441.843 384.262 442.512 384.262C443.198 384.262 443.632 384.583 443.75 385.011V385.022H444.914V385.016C444.807 384.021 443.913 383.323 442.518 383.323C441.134 383.323 440.144 384.088 440.144 385.151V385.157C440.144 386.051 440.678 386.574 441.832 386.839L442.805 387.064C443.513 387.227 443.8 387.486 443.8 387.868V387.879C443.8 388.38 443.277 388.723 442.523 388.723C441.798 388.723 441.353 388.414 441.202 387.953L441.196 387.947H439.975V387.953C440.093 388.976 441.027 389.668 442.501 389.668ZM446.545 389.55H447.766V385.967C447.766 384.982 448.323 384.369 449.217 384.369C450.112 384.369 450.534 384.87 450.534 385.882V389.55H451.749V385.596C451.749 384.139 450.995 383.323 449.628 383.323C448.739 383.323 448.154 383.717 447.856 384.369H447.766V381.045H446.545V389.55Z" fill="#999999"/>
<path d="M476.934 384.537V385.55H470.907V391.523H469.894V385.55H463.92V384.537H469.894V378.563H470.907V384.537H476.934Z" fill="#999999"/>
<path d="M489.096 387.11L492.336 383.83L492.816 384.31L489.296 387.79H488.856L485.336 384.31L485.816 383.83L489.096 387.11Z" fill="#999999"/>
<path d="M519.876 378.563H508.836L507.876 379.523V390.563L508.836 391.523H519.876L520.836 390.563V379.523L519.876 378.563ZM513.849 390.563H508.836V379.523H513.849V390.563ZM519.876 390.563H514.862V379.523H519.876V390.563Z" fill="#999999"/>
<path d="M543.102 380.537H546.089V381.55H545.076V390.563L544.062 391.523H537.076L536.062 390.563V381.55H535.102V380.537H538.089V379.523C538.089 379.275 538.178 379.061 538.356 378.883C538.569 378.67 538.818 378.563 539.102 378.563H542.089C542.373 378.563 542.604 378.67 542.782 378.883C542.996 379.061 543.102 379.275 543.102 379.523V380.537ZM542.089 379.523H539.102V380.537H542.089V379.523ZM537.076 390.563H544.062V381.55H537.076V390.563ZM539.102 382.563H538.089V389.55H539.102V382.563ZM540.062 382.563H541.076V389.55H540.062V382.563ZM542.089 382.563H543.102V389.55H542.089V382.563Z" fill="#999999"/>
<path d="M568.306 383.47L563.986 387.843L563.346 387.203L568.039 382.563H568.626L573.319 387.203L572.679 387.843L568.306 383.47Z" fill="#999999"/>
<path d="M595.536 386.243L599.163 389.923L599.91 389.177L596.23 385.55L599.91 381.923L599.163 381.177L595.536 384.857L591.91 381.177L591.163 381.923L594.843 385.55L591.163 389.177L591.91 389.923L595.536 386.243Z" fill="#999999"/>
<rect x="192.703" y="366.041" width="427.297" height="1.04583" fill="#262626"/>
<path d="M215.063 50.6134H216.99V43.6914L214.683 44.8021V43.6116L216.978 42.5193H218.218V50.6134H220.12V51.6504H215.063V50.6134ZM215.695 69.6072H219.905V70.6504H214.339V69.6072C215.104 68.8013 215.773 68.0895 216.346 67.4717C216.919 66.854 217.313 66.4183 217.53 66.1646C217.939 65.6655 218.216 65.2626 218.359 64.9557C218.502 64.6448 218.573 64.3278 218.573 64.0046C218.573 63.4932 218.422 63.0923 218.119 62.8018C217.821 62.5114 217.41 62.3661 216.886 62.3661C216.514 62.3661 216.123 62.4336 215.714 62.5686C215.305 62.7036 214.871 62.9082 214.413 63.1823V61.9304C214.834 61.73 215.247 61.5786 215.653 61.4763C216.062 61.3741 216.465 61.3229 216.861 61.3229C217.757 61.3229 218.477 61.5623 219.021 62.0409C219.57 62.5155 219.844 63.1393 219.844 63.9125C219.844 64.3053 219.752 64.698 219.568 65.0907C219.388 65.4835 219.093 65.9171 218.684 66.3917C218.455 66.6576 218.121 67.0258 217.684 67.4963C217.25 67.9667 216.587 68.6704 215.695 69.6072ZM218.168 84.7474C218.77 84.9069 219.23 85.1912 219.549 85.6003C219.868 86.0053 220.028 86.5126 220.028 87.1222C220.028 87.9649 219.744 88.6277 219.175 89.1104C218.61 89.5891 217.827 89.8284 216.825 89.8284C216.403 89.8284 215.974 89.7895 215.536 89.7118C215.098 89.6341 214.669 89.5216 214.247 89.3743V88.1408C214.665 88.3577 215.076 88.5193 215.481 88.6256C215.886 88.732 216.289 88.7852 216.69 88.7852C217.369 88.7852 217.89 88.6318 218.254 88.3249C218.618 88.0181 218.801 87.5763 218.801 86.9994C218.801 86.4676 218.618 86.0462 218.254 85.7353C217.89 85.4203 217.397 85.2628 216.775 85.2628H215.83V84.2442H216.775C217.344 84.2442 217.788 84.1194 218.107 83.8698C218.426 83.6203 218.586 83.2725 218.586 82.8266C218.586 82.3562 218.436 81.9962 218.138 81.7466C217.843 81.493 217.422 81.3661 216.874 81.3661C216.51 81.3661 216.133 81.407 215.745 81.4889C215.356 81.5707 214.949 81.6934 214.523 81.8571V80.7157C215.018 80.5848 215.458 80.4866 215.843 80.4211C216.231 80.3557 216.575 80.3229 216.874 80.3229C217.766 80.3229 218.477 80.5479 219.009 80.9979C219.545 81.4439 219.813 82.0371 219.813 82.7775C219.813 83.2807 219.672 83.7001 219.39 84.0355C219.111 84.371 218.704 84.6083 218.168 84.7474ZM217.917 100.618L215.027 105.459H217.917V100.618ZM217.714 99.4886H219.15V105.459H220.371V106.466H219.15V108.65H217.917V106.466H214.032V105.294L217.714 99.4886ZM214.677 118.489H219.316V119.532H215.806V121.784C215.982 121.718 216.158 121.671 216.334 121.643C216.514 121.61 216.694 121.594 216.874 121.594C217.823 121.594 218.576 121.874 219.132 122.434C219.688 122.995 219.966 123.754 219.966 124.711C219.966 125.677 219.674 126.437 219.089 126.994C218.508 127.55 217.712 127.828 216.702 127.828C216.215 127.828 215.769 127.796 215.364 127.73C214.963 127.665 214.603 127.567 214.284 127.436V126.178C214.66 126.382 215.039 126.536 215.419 126.638C215.8 126.736 216.188 126.785 216.585 126.785C217.268 126.785 217.794 126.605 218.162 126.245C218.535 125.885 218.721 125.374 218.721 124.711C218.721 124.056 218.528 123.547 218.144 123.183C217.763 122.819 217.232 122.637 216.548 122.637C216.217 122.637 215.894 122.676 215.579 122.753C215.264 122.827 214.963 122.94 214.677 123.091V118.489ZM219.488 137.691V138.833C219.23 138.681 218.956 138.567 218.666 138.489C218.375 138.407 218.072 138.366 217.757 138.366C216.972 138.366 216.377 138.663 215.972 139.256C215.567 139.845 215.364 140.714 215.364 141.864C215.56 141.455 215.833 141.142 216.18 140.925C216.528 140.704 216.927 140.594 217.377 140.594C218.261 140.594 218.944 140.866 219.426 141.41C219.913 141.95 220.157 142.717 220.157 143.711C220.157 144.701 219.907 145.468 219.408 146.012C218.909 146.556 218.207 146.828 217.303 146.828C216.24 146.828 215.46 146.448 214.965 145.687C214.47 144.922 214.223 143.719 214.223 142.079C214.223 140.532 214.519 139.354 215.112 138.544C215.71 137.73 216.573 137.323 217.702 137.323C218.005 137.323 218.308 137.356 218.61 137.421C218.913 137.482 219.206 137.572 219.488 137.691ZM217.279 141.563C216.751 141.563 216.336 141.753 216.033 142.134C215.73 142.514 215.579 143.04 215.579 143.711C215.579 144.382 215.73 144.908 216.033 145.288C216.336 145.669 216.751 145.859 217.279 145.859C217.827 145.859 218.24 145.679 218.518 145.319C218.796 144.955 218.936 144.419 218.936 143.711C218.936 142.999 218.796 142.463 218.518 142.103C218.24 141.743 217.827 141.563 217.279 141.563ZM214.26 156.489H220.028V157.016L216.751 165.65H215.456L218.647 157.532H214.26V156.489ZM217.187 180.3C216.634 180.3 216.207 180.455 215.904 180.766C215.605 181.073 215.456 181.509 215.456 182.073C215.456 182.638 215.608 183.077 215.91 183.392C216.217 183.703 216.643 183.859 217.187 183.859C217.743 183.859 218.171 183.705 218.469 183.399C218.772 183.088 218.923 182.646 218.923 182.073C218.923 181.513 218.77 181.077 218.463 180.766C218.16 180.455 217.735 180.3 217.187 180.3ZM216.107 179.784C215.579 179.649 215.166 179.398 214.867 179.029C214.572 178.661 214.425 178.217 214.425 177.698C214.425 176.97 214.673 176.393 215.168 175.967C215.663 175.538 216.336 175.323 217.187 175.323C218.042 175.323 218.717 175.538 219.212 175.967C219.707 176.393 219.954 176.97 219.954 177.698C219.954 178.217 219.805 178.661 219.506 179.029C219.212 179.398 218.801 179.649 218.273 179.784C218.886 179.919 219.355 180.191 219.678 180.6C220.005 181.009 220.169 181.539 220.169 182.19C220.169 183.016 219.905 183.662 219.377 184.129C218.85 184.595 218.119 184.828 217.187 184.828C216.254 184.828 215.524 184.597 214.996 184.135C214.472 183.669 214.21 183.024 214.21 182.202C214.21 181.547 214.372 181.016 214.695 180.606C215.022 180.193 215.493 179.919 216.107 179.784ZM215.659 177.814C215.659 178.305 215.79 178.68 216.051 178.937C216.313 179.195 216.692 179.324 217.187 179.324C217.686 179.324 218.066 179.195 218.328 178.937C218.59 178.68 218.721 178.305 218.721 177.814C218.721 177.315 218.59 176.935 218.328 176.673C218.07 176.411 217.69 176.28 217.187 176.28C216.692 176.28 216.313 176.413 216.051 176.679C215.79 176.941 215.659 177.319 215.659 177.814ZM217.064 199.588C217.592 199.588 218.005 199.398 218.303 199.017C218.606 198.637 218.758 198.111 218.758 197.44C218.758 196.769 218.606 196.244 218.303 195.863C218.005 195.483 217.592 195.292 217.064 195.292C216.516 195.292 216.103 195.475 215.824 195.839C215.546 196.199 215.407 196.733 215.407 197.44C215.407 198.152 215.544 198.688 215.818 199.048C216.096 199.408 216.512 199.588 217.064 199.588ZM214.855 203.46V202.319C215.112 202.47 215.387 202.587 215.677 202.669C215.968 202.746 216.27 202.785 216.585 202.785C217.371 202.785 217.964 202.491 218.365 201.902C218.77 201.308 218.972 200.437 218.972 199.287C218.78 199.696 218.51 200.011 218.162 200.232C217.815 200.449 217.416 200.558 216.966 200.558C216.082 200.558 215.397 200.286 214.91 199.741C214.427 199.197 214.186 198.426 214.186 197.428C214.186 196.442 214.433 195.679 214.928 195.139C215.427 194.595 216.131 194.323 217.039 194.323C218.103 194.323 218.882 194.705 219.377 195.47C219.872 196.235 220.12 197.438 220.12 199.079C220.12 200.621 219.821 201.799 219.224 202.613C218.631 203.423 217.768 203.828 216.634 203.828C216.336 203.828 216.035 203.796 215.732 203.73C215.43 203.669 215.137 203.579 214.855 203.46ZM207.491 221.613H209.418V214.691L207.11 215.802V214.612L209.406 213.519H210.645V221.613H212.547V222.65H207.491V221.613ZM217.187 213.354C218.164 213.354 218.903 213.752 219.402 214.55C219.905 215.348 220.157 216.528 220.157 218.091C220.157 219.654 219.905 220.834 219.402 221.632C218.903 222.43 218.164 222.828 217.187 222.828C216.209 222.828 215.47 222.43 214.971 221.632C214.472 220.834 214.223 219.654 214.223 218.091C214.223 216.528 214.472 215.348 214.971 214.55C215.47 213.752 216.209 213.354 217.187 213.354ZM217.187 221.847C217.768 221.847 218.199 221.538 218.481 220.92C218.768 220.302 218.911 219.359 218.911 218.091C218.911 217.416 218.87 216.806 218.788 216.262L215.867 220.834C216.174 221.509 216.614 221.847 217.187 221.847ZM217.187 214.335C216.61 214.335 216.178 214.644 215.892 215.262C215.61 215.88 215.468 216.823 215.468 218.091C215.468 218.668 215.507 219.208 215.585 219.711L218.445 215.152C218.134 214.608 217.714 214.335 217.187 214.335ZM207.491 240.613H209.418V233.691L207.11 234.802V233.612L209.406 232.519H210.645V240.613H212.547V241.65H207.491V240.613ZM215.063 240.613H216.99V233.691L214.683 234.802V233.612L216.978 232.519H218.218V240.613H220.12V241.65H215.063V240.613ZM207.491 259.613H209.418V252.691L207.11 253.802V252.612L209.406 251.519H210.645V259.613H212.547V260.65H207.491V259.613ZM215.695 259.607H219.905V260.65H214.339V259.607C215.104 258.801 215.773 258.089 216.346 257.472C216.919 256.854 217.313 256.418 217.53 256.165C217.939 255.666 218.216 255.263 218.359 254.956C218.502 254.645 218.573 254.328 218.573 254.005C218.573 253.493 218.422 253.092 218.119 252.802C217.821 252.511 217.41 252.366 216.886 252.366C216.514 252.366 216.123 252.434 215.714 252.569C215.305 252.704 214.871 252.908 214.413 253.182V251.93C214.834 251.73 215.247 251.579 215.653 251.476C216.062 251.374 216.465 251.323 216.861 251.323C217.757 251.323 218.477 251.562 219.021 252.041C219.57 252.515 219.844 253.139 219.844 253.913C219.844 254.305 219.752 254.698 219.568 255.091C219.388 255.483 219.093 255.917 218.684 256.392C218.455 256.658 218.121 257.026 217.684 257.496C217.25 257.967 216.587 258.67 215.695 259.607ZM207.491 278.613H209.418V271.691L207.11 272.802V271.612L209.406 270.519H210.645V278.613H212.547V279.65H207.491V278.613ZM218.168 274.747C218.77 274.907 219.23 275.191 219.549 275.6C219.868 276.005 220.028 276.513 220.028 277.122C220.028 277.965 219.744 278.628 219.175 279.11C218.61 279.589 217.827 279.828 216.825 279.828C216.403 279.828 215.974 279.79 215.536 279.712C215.098 279.634 214.669 279.522 214.247 279.374V278.141C214.665 278.358 215.076 278.519 215.481 278.626C215.886 278.732 216.289 278.785 216.69 278.785C217.369 278.785 217.89 278.632 218.254 278.325C218.618 278.018 218.801 277.576 218.801 276.999C218.801 276.468 218.618 276.046 218.254 275.735C217.89 275.42 217.397 275.263 216.775 275.263H215.83V274.244H216.775C217.344 274.244 217.788 274.119 218.107 273.87C218.426 273.62 218.586 273.273 218.586 272.827C218.586 272.356 218.436 271.996 218.138 271.747C217.843 271.493 217.422 271.366 216.874 271.366C216.51 271.366 216.133 271.407 215.745 271.489C215.356 271.571 214.949 271.693 214.523 271.857V270.716C215.018 270.585 215.458 270.487 215.843 270.421C216.231 270.356 216.575 270.323 216.874 270.323C217.766 270.323 218.477 270.548 219.009 270.998C219.545 271.444 219.813 272.037 219.813 272.778C219.813 273.281 219.672 273.7 219.39 274.036C219.111 274.371 218.704 274.608 218.168 274.747ZM207.491 297.613H209.418V290.691L207.11 291.802V290.612L209.406 289.519H210.645V297.613H212.547V298.65H207.491V297.613ZM217.917 290.618L215.027 295.459H217.917V290.618ZM217.714 289.489H219.15V295.459H220.371V296.466H219.15V298.65H217.917V296.466H214.032V295.294L217.714 289.489ZM207.491 316.613H209.418V309.691L207.11 310.802V309.612L209.406 308.519H210.645V316.613H212.547V317.65H207.491V316.613ZM214.677 308.489H219.316V309.532H215.806V311.784C215.982 311.718 216.158 311.671 216.334 311.643C216.514 311.61 216.694 311.594 216.874 311.594C217.823 311.594 218.576 311.874 219.132 312.434C219.688 312.995 219.966 313.754 219.966 314.711C219.966 315.677 219.674 316.437 219.089 316.994C218.508 317.55 217.712 317.828 216.702 317.828C216.215 317.828 215.769 317.796 215.364 317.73C214.963 317.665 214.603 317.567 214.284 317.436V316.178C214.66 316.382 215.039 316.536 215.419 316.638C215.8 316.736 216.188 316.785 216.585 316.785C217.268 316.785 217.794 316.605 218.162 316.245C218.535 315.885 218.721 315.374 218.721 314.711C218.721 314.056 218.528 313.547 218.144 313.183C217.763 312.819 217.232 312.637 216.548 312.637C216.217 312.637 215.894 312.676 215.579 312.753C215.264 312.827 214.963 312.94 214.677 313.091V308.489ZM207.491 335.613H209.418V328.691L207.11 329.802V328.612L209.406 327.519H210.645V335.613H212.547V336.65H207.491V335.613ZM219.488 327.691V328.833C219.23 328.681 218.956 328.567 218.666 328.489C218.375 328.407 218.072 328.366 217.757 328.366C216.972 328.366 216.377 328.663 215.972 329.256C215.567 329.845 215.364 330.714 215.364 331.864C215.56 331.455 215.833 331.142 216.18 330.925C216.528 330.704 216.927 330.594 217.377 330.594C218.261 330.594 218.944 330.866 219.426 331.41C219.913 331.95 220.157 332.717 220.157 333.711C220.157 334.701 219.907 335.468 219.408 336.012C218.909 336.556 218.207 336.828 217.303 336.828C216.24 336.828 215.46 336.448 214.965 335.687C214.47 334.922 214.223 333.719 214.223 332.079C214.223 330.532 214.519 329.354 215.112 328.544C215.71 327.73 216.573 327.323 217.702 327.323C218.005 327.323 218.308 327.356 218.61 327.421C218.913 327.482 219.206 327.572 219.488 327.691ZM217.279 331.563C216.751 331.563 216.336 331.753 216.033 332.134C215.73 332.514 215.579 333.04 215.579 333.711C215.579 334.382 215.73 334.908 216.033 335.288C216.336 335.669 216.751 335.859 217.279 335.859C217.827 335.859 218.24 335.679 218.518 335.319C218.796 334.955 218.936 334.419 218.936 333.711C218.936 332.999 218.796 332.463 218.518 332.103C218.24 331.743 217.827 331.563 217.279 331.563ZM207.491 354.613H209.418V347.691L207.11 348.802V347.612L209.406 346.519H210.645V354.613H212.547V355.65H207.491V354.613ZM214.26 346.489H220.028V347.016L216.751 355.65H215.456L218.647 347.532H214.26V346.489Z" fill="#666666"/>
<path d="M241.1 42.4876H242.266L237.443 52.8154H236.27L241.1 42.4876ZM250.452 46.3045L247.727 47.7773L250.452 49.2562L250.022 50.0049L247.457 48.4646V51.3242H246.58V48.4646L244.015 50.0049L243.585 49.2562L246.316 47.7773L243.585 46.3045L244.015 45.5498L246.58 47.09V44.2304H247.457V47.09L250.022 45.5498L250.452 46.3045ZM258.988 47.2066H265.493V48.2437H258.988V47.2066ZM266.56 47.2066H273.065V48.2437H266.56V47.2066ZM274.133 47.2066H280.637V48.2437H274.133V47.2066ZM281.705 47.2066H288.21V48.2437H281.705V47.2066ZM289.278 47.2066H295.782V48.2437H289.278V47.2066ZM296.85 47.2066H303.355V48.2437H296.85V47.2066ZM304.423 47.2066H310.927V48.2437H304.423V47.2066ZM311.995 47.2066H318.5V48.2437H311.995V47.2066ZM319.567 47.2066H326.072V48.2437H319.567V47.2066ZM327.14 47.2066H333.645V48.2437H327.14V47.2066ZM334.712 47.2066H341.217V48.2437H334.712V47.2066ZM342.285 47.2066H348.789V48.2437H342.285V47.2066ZM349.857 47.2066H356.362V48.2437H349.857V47.2066ZM357.43 47.2066H363.934V48.2437H357.43V47.2066ZM365.002 47.2066H371.507V48.2437H365.002V47.2066ZM372.575 47.2066H379.079V48.2437H372.575V47.2066ZM380.147 47.2066H386.652V48.2437H380.147V47.2066ZM387.719 47.2066H394.224V48.2437H387.719V47.2066ZM395.292 47.2066H401.797V48.2437H395.292V47.2066ZM402.864 47.2066H409.369V48.2437H402.864V47.2066ZM410.437 47.2066H416.942V48.2437H410.437V47.2066ZM418.009 47.2066H424.514V48.2437H418.009V47.2066ZM425.582 47.2066H432.086V48.2437H425.582V47.2066ZM433.154 47.2066H439.659V48.2437H433.154V47.2066ZM440.727 47.2066H447.231V48.2437H440.727V47.2066ZM448.299 47.2066H454.804V48.2437H448.299V47.2066ZM455.872 47.2066H462.376V48.2437H455.872V47.2066ZM463.444 47.2066H469.949V48.2437H463.444V47.2066ZM471.016 47.2066H477.521V48.2437H471.016V47.2066ZM478.589 47.2066H485.094V48.2437H478.589V47.2066ZM486.161 47.2066H492.666V48.2437H486.161V47.2066ZM493.734 47.2066H500.238V48.2437H493.734V47.2066ZM501.306 47.2066H507.811V48.2437H501.306V47.2066ZM508.879 47.2066H515.383V48.2437H508.879V47.2066ZM516.451 47.2066H522.956V48.2437H516.451V47.2066ZM524.024 47.2066H530.528V48.2437H524.024V47.2066ZM531.596 47.2066H538.101V48.2437H531.596V47.2066ZM539.168 47.2066H545.673V48.2437H539.168V47.2066ZM546.741 47.2066H553.246V48.2437H546.741V47.2066ZM554.313 47.2066H560.818V48.2437H554.313V47.2066ZM561.886 47.2066H568.391V48.2437H561.886V47.2066ZM569.458 47.2066H575.963V48.2437H569.458V47.2066ZM577.031 47.2066H583.535V48.2437H577.031V47.2066ZM584.603 47.2066H591.108V48.2437H584.603V47.2066ZM592.176 47.2066H598.68V48.2437H592.176V47.2066ZM250.452 65.3045L247.727 66.7773L250.452 68.2562L250.022 69.0049L247.457 67.4646V70.3242H246.58V67.4646L244.015 69.0049L243.585 68.2562L246.316 66.7773L243.585 65.3045L244.015 64.5498L246.58 66.09V63.2304H247.457V66.09L250.022 64.5498L250.452 65.3045ZM241.1 80.4876H242.266L237.443 90.8154H236.27L241.1 80.4876ZM250.452 84.3045L247.727 85.7773L250.452 87.2562L250.022 88.0049L247.457 86.4646V89.3242H246.58V86.4646L244.015 88.0049L243.585 87.2562L246.316 85.7773L243.585 84.3045L244.015 83.5498L246.58 85.09V82.2304H247.457V85.09L250.022 83.5498L250.452 84.3045ZM258.988 85.2066H265.493V86.2437H258.988V85.2066ZM266.56 85.2066H273.065V86.2437H266.56V85.2066ZM274.133 85.2066H280.637V86.2437H274.133V85.2066ZM281.705 85.2066H288.21V86.2437H281.705V85.2066ZM289.278 85.2066H295.782V86.2437H289.278V85.2066ZM296.85 85.2066H303.355V86.2437H296.85V85.2066ZM304.423 85.2066H310.927V86.2437H304.423V85.2066ZM311.995 85.2066H318.5V86.2437H311.995V85.2066ZM319.567 85.2066H326.072V86.2437H319.567V85.2066ZM327.14 85.2066H333.645V86.2437H327.14V85.2066ZM334.712 85.2066H341.217V86.2437H334.712V85.2066ZM342.285 85.2066H348.789V86.2437H342.285V85.2066ZM349.857 85.2066H356.362V86.2437H349.857V85.2066ZM357.43 85.2066H363.934V86.2437H357.43V85.2066ZM365.002 85.2066H371.507V86.2437H365.002V85.2066ZM372.575 85.2066H379.079V86.2437H372.575V85.2066ZM380.147 85.2066H386.652V86.2437H380.147V85.2066ZM387.719 85.2066H394.224V86.2437H387.719V85.2066ZM395.292 85.2066H401.797V86.2437H395.292V85.2066ZM402.864 85.2066H409.369V86.2437H402.864V85.2066ZM410.437 85.2066H416.942V86.2437H410.437V85.2066ZM418.009 85.2066H424.514V86.2437H418.009V85.2066ZM425.582 85.2066H432.086V86.2437H425.582V85.2066ZM433.154 85.2066H439.659V86.2437H433.154V85.2066ZM440.727 85.2066H447.231V86.2437H440.727V85.2066ZM448.299 85.2066H454.804V86.2437H448.299V85.2066ZM455.872 85.2066H462.376V86.2437H455.872V85.2066ZM463.444 85.2066H469.949V86.2437H463.444V85.2066ZM471.016 85.2066H477.521V86.2437H471.016V85.2066ZM478.589 85.2066H485.094V86.2437H478.589V85.2066ZM486.161 85.2066H492.666V86.2437H486.161V85.2066ZM493.734 85.2066H500.238V86.2437H493.734V85.2066ZM501.306 85.2066H507.811V86.2437H501.306V85.2066ZM508.879 85.2066H515.383V86.2437H508.879V85.2066ZM516.451 85.2066H522.956V86.2437H516.451V85.2066ZM524.024 85.2066H530.528V86.2437H524.024V85.2066ZM531.596 85.2066H538.101V86.2437H531.596V85.2066ZM539.168 85.2066H545.673V86.2437H539.168V85.2066ZM546.741 85.2066H553.246V86.2437H546.741V85.2066ZM554.313 85.2066H560.818V86.2437H554.313V85.2066ZM561.886 85.2066H568.391V86.2437H561.886V85.2066ZM569.458 85.2066H575.963V86.2437H569.458V85.2066ZM577.031 85.2066H583.535V86.2437H577.031V85.2066ZM584.603 85.2066H591.108V86.2437H584.603V85.2066ZM592.176 85.2066H598.68V86.2437H592.176V85.2066Z" fill="#404040"/>
<rect x="257.637" y="62.7491" width="134.054" height="6.275" rx="3.1375" fill="#404040"/>
<rect x="402.164" y="62.7492" width="62.8378" height="6.275" rx="3.1375" fill="#404040"/>
<rect x="475.473" y="62.7492" width="104.73" height="6.275" rx="3.1375" fill="#404040"/>
<rect width="50.2703" height="478.992" fill="#262626"/>
<path d="M36 391.968C36 389.808 35.456 387.792 34.368 385.92C33.296 384.112 31.856 382.68 30.048 381.624C28.192 380.536 26.176 379.992 24 379.992C21.824 379.992 19.808 380.536 17.952 381.624C16.144 382.68 14.704 384.112 13.632 385.92C12.544 387.792 12 389.808 12 391.968C12 393.76 12.384 395.464 13.152 397.08C13.888 398.648 14.92 399.992 16.248 401.112L16.272 401.136C16.288 401.152 16.296 401.16 16.296 401.16C16.584 401.384 16.808 401.552 16.968 401.664C17.016 401.696 17.096 401.752 17.208 401.832L17.304 401.928C18.296 402.6 19.36 403.112 20.496 403.464C21.648 403.816 22.824 403.992 24.024 403.992C25.224 403.992 26.392 403.816 27.528 403.464C28.68 403.112 29.752 402.6 30.744 401.928L31.776 401.16C31.792 401.16 31.8 401.152 31.8 401.136C33.096 400 34.112 398.648 34.848 397.08C35.616 395.464 36 393.76 36 391.968ZM24 402.48C22.896 402.48 21.824 402.312 20.784 401.976C19.792 401.64 18.856 401.168 17.976 400.56C17.992 400.432 18.032 400.248 18.096 400.008V399.984C18.24 399.472 18.448 398.984 18.72 398.52C18.992 398.04 19.312 397.624 19.68 397.272C20.048 396.92 20.448 396.608 20.88 396.336C21.328 396.064 21.816 395.856 22.344 395.712C22.888 395.568 23.44 395.496 24 395.496C24.816 395.496 25.6 395.648 26.352 395.952C27.12 396.256 27.8 396.688 28.392 397.248C28.936 397.808 29.368 398.456 29.688 399.192C29.848 399.624 29.968 400.08 30.048 400.56C29.168 401.184 28.208 401.664 27.168 402C26.144 402.32 25.088 402.48 24 402.48ZM20.328 391.392C20.12 390.896 20.016 390.376 20.016 389.832C20.016 389.288 20.12 388.776 20.328 388.296C20.552 387.816 20.84 387.4 21.192 387.048C21.544 386.696 21.968 386.408 22.464 386.184C22.928 385.976 23.44 385.872 24 385.872C24.56 385.872 25.08 385.984 25.56 386.208C26.04 386.416 26.456 386.696 26.808 387.048C27.16 387.4 27.44 387.816 27.648 388.296C27.872 388.776 27.984 389.296 27.984 389.856C27.984 390.416 27.88 390.928 27.672 391.392C27.464 391.856 27.176 392.272 26.808 392.64C26.44 393.008 26.008 393.296 25.512 393.504C25.032 393.712 24.52 393.816 23.976 393.816C23.448 393.816 22.936 393.712 22.44 393.504C21.96 393.296 21.536 393.016 21.168 392.664C20.8 392.296 20.52 391.872 20.328 391.392ZM31.464 399.336C31.464 399.32 31.464 399.304 31.464 399.288L31.44 399.216C31.2 398.464 30.856 397.76 30.408 397.104C29.96 396.448 29.416 395.88 28.776 395.4C28.296 395.048 27.776 394.744 27.216 394.488C27.472 394.328 27.704 394.136 27.912 393.912C28.264 393.56 28.576 393.168 28.848 392.736C29.392 391.856 29.656 390.896 29.64 389.856C29.64 389.088 29.496 388.36 29.208 387.672C28.92 386.968 28.512 386.36 27.984 385.848C27.456 385.336 26.848 384.936 26.16 384.648C25.472 384.344 24.744 384.192 23.976 384.192C23.208 384.192 22.472 384.344 21.768 384.648C21.08 384.936 20.48 385.344 19.968 385.872C19.456 386.384 19.056 386.992 18.768 387.696C18.48 388.384 18.336 389.112 18.336 389.88C18.336 390.408 18.408 390.904 18.552 391.368C18.696 391.896 18.896 392.36 19.152 392.76C19.344 393.128 19.656 393.52 20.088 393.936C20.296 394.16 20.536 394.352 20.808 394.512C20.248 394.768 19.728 395.08 19.248 395.448C18.624 395.928 18.08 396.496 17.616 397.152C17.168 397.792 16.824 398.488 16.584 399.24C16.568 399.272 16.56 399.312 16.56 399.36C15.584 398.384 14.832 397.272 14.304 396.024C13.76 394.744 13.488 393.4 13.488 391.992C13.488 390.088 13.968 388.32 14.928 386.688C15.856 385.104 17.112 383.848 18.696 382.92C20.328 381.96 22.096 381.48 24 381.48C25.904 381.48 27.672 381.96 29.304 382.92C30.888 383.848 32.144 385.104 33.072 386.688C34.032 388.32 34.512 390.08 34.512 391.968C34.512 393.36 34.248 394.696 33.72 395.976C33.192 397.24 32.44 398.36 31.464 399.336Z" fill="#666666"/>
<path d="M31.848 439.022L36 439.838V444.686L31.848 445.502L34.2 449.03L30.768 452.462L27.24 450.11L26.424 454.262H21.576L20.76 450.11L17.232 452.462L13.8 449.03L16.152 445.502L12 444.686V439.838L16.152 439.022L13.8 435.494L17.232 432.062L20.76 434.414L21.576 430.262H26.424L27.24 434.414L30.768 432.062L34.2 435.494L31.848 439.022ZM30.288 444.086L34.272 443.27V441.278L30.288 440.462L29.736 439.166L32.04 435.734L30.6 434.294L27.168 436.598L25.872 436.046L25.056 432.062H23.064L22.248 436.046L20.952 436.598L17.52 434.294L16.08 435.734L18.384 439.166L17.832 440.462L13.848 441.278V443.27L17.832 444.086L18.384 445.382L16.08 448.814L17.52 450.254L20.952 447.95L22.248 448.502L23.064 452.486H25.056L25.872 448.502L27.168 447.95L30.6 450.254L32.04 448.814L29.736 445.382L30.288 444.086ZM22.104 439.406C22.68 439.022 23.312 438.83 24 438.83C24.624 438.83 25.192 438.99 25.704 439.31C26.232 439.614 26.648 440.03 26.952 440.558C27.272 441.07 27.432 441.638 27.432 442.262C27.432 443.078 27.168 443.806 26.64 444.446C26.128 445.07 25.472 445.462 24.672 445.622C23.872 445.782 23.112 445.67 22.392 445.286C21.672 444.902 21.152 444.334 20.832 443.582C20.512 442.814 20.472 442.046 20.712 441.278C20.952 440.494 21.416 439.87 22.104 439.406ZM23.04 443.678C23.328 443.87 23.648 443.966 24 443.966C24.48 443.966 24.88 443.806 25.2 443.486C25.536 443.15 25.704 442.742 25.704 442.262C25.704 441.862 25.576 441.502 25.32 441.182C25.064 440.862 24.736 440.662 24.336 440.582C23.936 440.502 23.552 440.558 23.184 440.75C22.832 440.942 22.576 441.23 22.416 441.614C22.256 441.982 22.232 442.366 22.344 442.766C22.472 443.15 22.704 443.454 23.04 443.678Z" fill="#666666"/>
<path d="M32.3716 20H23.3316L21.8916 21.52V26H17.3316L15.8916 27.52V42.56L17.3316 44H29.4116L30.8516 42.56V38H35.5716L36.8516 36.56V24.48L32.3716 20ZM32.3716 22.08L34.7716 24.48H32.3716V22.08ZM29.3316 42.48H17.3316V27.52H21.8916V36.56L23.3316 38H29.3316V42.48ZM35.3316 36.48H23.3316V21.52H30.8516V26H35.3316V36.48Z" fill="white"/>
<path d="M29.3611 70.2002C27.7451 70.2002 26.2491 70.6402 24.8731 71.5202C23.5131 72.4002 22.4971 73.5842 21.8251 75.0722C21.1691 76.5442 20.9611 78.0882 21.2011 79.7042C21.4571 81.3042 22.1211 82.7122 23.1931 83.9282L15.1291 93.0722L16.2331 94.0802L24.2971 84.9602C25.2251 85.6962 26.2571 86.2002 27.3931 86.4722C28.5451 86.7442 29.6971 86.7762 30.8491 86.5682C32.0171 86.3602 33.0891 85.9202 34.0651 85.2482C35.0411 84.5762 35.8331 83.7362 36.4411 82.7282C37.0491 81.7202 37.4251 80.6322 37.5691 79.4642C37.7131 78.2962 37.6091 77.1442 37.2571 76.0082C36.9051 74.8722 36.3371 73.8642 35.5531 72.9842C34.7691 72.1042 33.8411 71.4242 32.7691 70.9442C31.6971 70.4482 30.5611 70.2002 29.3611 70.2002ZM29.3611 85.2002C28.1451 85.2002 27.0091 84.8962 25.9531 84.2882C24.9451 83.6802 24.1451 82.8722 23.5531 81.8642C22.9291 80.8082 22.6171 79.6722 22.6171 78.4562C22.6171 77.2242 22.9291 76.0882 23.5531 75.0482C24.1451 74.0242 24.9451 73.2162 25.9531 72.6242C27.0091 72.0002 28.1451 71.6882 29.3611 71.6882C30.5931 71.6882 31.7291 72.0002 32.7691 72.6242C33.7931 73.2162 34.6011 74.0242 35.1931 75.0482C35.8171 76.0882 36.1291 77.2242 36.1291 78.4562C36.1291 79.6722 35.8171 80.8082 35.1931 81.8642C34.6011 82.8722 33.7931 83.6802 32.7691 84.2882C31.7291 84.8962 30.5931 85.2002 29.3611 85.2002Z" fill="#666666"/>
<path d="M35 128.632C35.016 127.912 34.832 127.256 34.448 126.664C34.08 126.056 33.584 125.592 32.96 125.272C32.336 124.952 31.664 124.824 30.944 124.888C30.24 124.936 29.6 125.176 29.024 125.608C28.464 126.024 28.056 126.56 27.8 127.216C27.544 127.872 27.472 128.552 27.584 129.256C27.712 129.944 28.008 130.552 28.472 131.08C28.952 131.608 29.528 131.976 30.2 132.184C29.944 132.696 29.576 133.104 29.096 133.408C28.616 133.696 28.096 133.848 27.536 133.864H24.536C23.992 133.864 23.456 133.968 22.928 134.176C22.416 134.368 21.96 134.648 21.56 135.016V127.792C22.168 127.664 22.712 127.408 23.192 127.024C23.672 126.624 24.032 126.136 24.272 125.56C24.512 124.984 24.6 124.384 24.536 123.76C24.472 123.136 24.264 122.568 23.912 122.056C23.56 121.544 23.112 121.144 22.568 120.856C22.024 120.552 21.432 120.4 20.792 120.4C20.168 120.4 19.584 120.552 19.04 120.856C18.496 121.144 18.048 121.544 17.696 122.056C17.36 122.568 17.16 123.136 17.096 123.76C17.032 124.384 17.12 124.984 17.36 125.56C17.6 126.136 17.952 126.624 18.416 127.024C18.896 127.408 19.44 127.664 20.048 127.792V136.912C19.44 137.04 18.896 137.296 18.416 137.68C17.936 138.064 17.568 138.536 17.312 139.096C17.056 139.656 16.952 140.248 17 140.872C17.048 141.496 17.232 142.072 17.552 142.6C17.872 143.128 18.296 143.552 18.824 143.872C19.352 144.192 19.928 144.368 20.552 144.4C21.192 144.432 21.792 144.32 22.352 144.064C22.912 143.808 23.376 143.44 23.744 142.96C24.128 142.464 24.376 141.912 24.488 141.304C24.6 140.68 24.56 140.072 24.368 139.48C24.176 138.888 23.864 138.376 23.432 137.944C23 137.512 22.48 137.2 21.872 137.008C22.128 136.512 22.496 136.112 22.976 135.808C23.456 135.504 23.976 135.352 24.536 135.352H27.536C28.496 135.352 29.36 135.072 30.128 134.512C30.912 133.952 31.456 133.216 31.76 132.304C32.368 132.224 32.92 132.016 33.416 131.68C33.912 131.328 34.296 130.888 34.568 130.36C34.856 129.816 35 129.24 35 128.632ZM18.56 124.144C18.56 123.744 18.656 123.368 18.848 123.016C19.056 122.664 19.336 122.392 19.688 122.2C20.04 121.992 20.416 121.888 20.816 121.888C21.216 121.888 21.584 121.992 21.92 122.2C22.272 122.392 22.544 122.664 22.736 123.016C22.944 123.368 23.048 123.744 23.048 124.144C23.048 124.752 22.824 125.28 22.376 125.728C21.944 126.16 21.416 126.376 20.792 126.376C20.184 126.376 19.656 126.16 19.208 125.728C18.776 125.28 18.56 124.752 18.56 124.144ZM23.048 140.584C23.048 141.192 22.824 141.72 22.376 142.168C21.944 142.6 21.416 142.816 20.792 142.816C20.184 142.816 19.656 142.6 19.208 142.168C18.776 141.72 18.56 141.192 18.56 140.584C18.56 139.96 18.776 139.432 19.208 139C19.656 138.552 20.184 138.328 20.792 138.328C21.416 138.328 21.944 138.552 22.376 139C22.824 139.432 23.048 139.96 23.048 140.584ZM31.28 130.864C30.656 130.864 30.12 130.648 29.672 130.216C29.24 129.768 29.024 129.24 29.024 128.632C29.024 128.008 29.24 127.48 29.672 127.048C30.12 126.6 30.648 126.376 31.256 126.376C31.88 126.376 32.408 126.6 32.84 127.048C33.288 127.48 33.512 128.008 33.512 128.632C33.512 129.24 33.288 129.768 32.84 130.216C32.408 130.648 31.888 130.864 31.28 130.864Z" fill="#666666"/>
<path d="M25.2682 184.088L23.9482 185.408C23.7402 184.592 23.3002 183.92 22.6282 183.392C21.9562 182.864 21.1882 182.6 20.3242 182.6C19.4602 182.6 18.6922 182.864 18.0202 183.392C17.3482 183.92 16.9082 184.6 16.7002 185.432L15.3802 184.088L14.3242 185.168L16.0522 186.872L15.8362 187.088V188.6H14.3242V190.088H15.8362V190.184C15.9002 190.68 16.0362 191.152 16.2442 191.6L14.3242 193.544L15.3802 194.6L17.0362 192.944C17.4362 193.456 17.9242 193.856 18.5002 194.144C19.0762 194.432 19.6842 194.576 20.3242 194.576C20.9642 194.576 21.5722 194.432 22.1482 194.144C22.7242 193.856 23.2122 193.456 23.6122 192.944L25.2682 194.6L26.3242 193.544L24.4042 191.6C24.6122 191.136 24.7562 190.656 24.8362 190.16V190.04H26.3242V188.6H24.8362V187.088L24.5962 186.872L26.3242 185.168L25.2682 184.088ZM20.3242 184.088C20.9482 184.088 21.4762 184.312 21.9082 184.76C22.3562 185.192 22.5802 185.72 22.5802 186.344H18.0682C18.0682 185.72 18.2842 185.192 18.7162 184.76C19.1642 184.312 19.7002 184.088 20.3242 184.088ZM23.3242 190.088C23.2442 190.888 22.9242 191.576 22.3642 192.152C21.8042 192.712 21.1242 193.032 20.3242 193.112C19.5242 193.032 18.8442 192.712 18.2842 192.152C17.7242 191.576 17.4042 190.888 17.3242 190.088V187.856H23.3242V190.088ZM38.0842 180.2V181.448L27.8362 187.976V186.2L36.3322 180.824L23.3242 172.592V182.048C22.8602 181.728 22.3562 181.488 21.8122 181.328V171.224L22.9642 170.6L38.0842 180.2Z" fill="#666666"/>
<path d="M27.9573 222.288L29.4453 220.8H36.9573L38.4453 222.288V229.8L36.9573 231.288H29.4453L27.9573 229.8V222.288ZM29.4453 222.288V229.8H36.9573V222.288H29.4453ZM14.4453 235.8V226.8L15.9573 225.288H23.4453L24.9573 226.8V234.288H32.4453L33.9573 235.8V243.288L32.4453 244.8H15.9573L14.4453 243.288V235.8ZM23.4453 234.288V226.8H15.9573V234.288H23.4453ZM23.4453 235.8H15.9573V243.288H23.4453V235.8ZM24.9573 243.288H32.4453V235.8H24.9573V243.288Z" fill="#666666"/>
<rect y="478.991" width="620" height="23.0083" fill="#2B4BEE"/>
<path d="M376.702 493.732H372.553V486.141H371.179V494.996H376.702V493.732ZM378.291 494.996H379.61V491.087C379.61 490.044 380.23 489.393 381.206 489.393C382.181 489.393 382.648 489.927 382.648 491.001V494.996H383.967V490.67C383.967 489.08 383.145 488.184 381.654 488.184C380.647 488.184 379.985 488.632 379.659 489.375H379.561V488.313H378.291V494.996ZM391.386 494.996H392.761V486.141H391.392L389.061 487.785V489.191L391.282 487.62H391.386V494.996ZM395.712 494.996H397.155L401.008 487.387V486.141H394.976V487.362H399.615V487.454L395.712 494.996ZM401.978 497.309L402.997 493.67H401.616L401.045 497.309H401.978ZM412.318 495.211C414.294 495.211 415.748 494.045 415.994 492.296H414.625C414.38 493.296 413.49 493.928 412.318 493.928C410.722 493.928 409.728 492.633 409.728 490.571C409.728 488.503 410.722 487.209 412.312 487.209C413.478 487.209 414.367 487.908 414.625 488.994H415.994C415.773 487.19 414.263 485.926 412.312 485.926C409.851 485.926 408.323 487.7 408.323 490.571C408.323 493.437 409.857 495.211 412.318 495.211ZM420.473 495.125C422.425 495.125 423.621 493.818 423.621 491.651C423.621 489.498 422.419 488.184 420.473 488.184C418.522 488.184 417.319 489.498 417.319 491.651C417.319 493.818 418.516 495.125 420.473 495.125ZM420.473 493.953C419.326 493.953 418.681 493.112 418.681 491.651C418.681 490.203 419.326 489.356 420.473 489.356C421.615 489.356 422.265 490.203 422.265 491.651C422.265 493.106 421.615 493.953 420.473 493.953ZM425.272 494.996H426.591V485.705H425.272V494.996ZM433.967 491.013H435.072C436.226 491.013 436.938 491.584 436.938 492.504C436.938 493.394 436.177 493.996 435.09 493.996C434.017 493.996 433.274 493.449 433.194 492.603H431.875C431.949 494.18 433.237 495.211 435.109 495.211C436.956 495.211 438.349 494.106 438.349 492.596C438.349 491.381 437.588 490.596 436.41 490.418V490.314C437.336 490.062 438.005 489.356 438.011 488.282C438.018 487.018 436.981 485.926 435.152 485.926C433.286 485.926 432.133 487 432.041 488.528H433.342C433.421 487.62 434.066 487.11 435.072 487.11C436.066 487.11 436.655 487.712 436.655 488.473C436.655 489.301 435.993 489.884 435.035 489.884H433.967V491.013Z" fill="white"/>
<path d="M457.518 492.615C457.616 494.198 458.936 495.211 460.899 495.211C462.998 495.211 464.311 494.149 464.311 492.455C464.311 491.124 463.563 490.387 461.746 489.964L460.771 489.725C459.617 489.455 459.151 489.092 459.151 488.46C459.151 487.663 459.875 487.141 460.961 487.141C461.992 487.141 462.704 487.65 462.832 488.467H464.17C464.09 486.975 462.777 485.926 460.979 485.926C459.046 485.926 457.758 486.975 457.758 488.552C457.758 489.853 458.488 490.627 460.089 491.001L461.231 491.277C462.403 491.553 462.918 491.958 462.918 492.633C462.918 493.419 462.108 493.989 461.004 493.989C459.819 493.989 458.997 493.456 458.881 492.615H457.518ZM469.435 488.203C468.527 488.203 467.742 488.657 467.337 489.418H467.238V488.313H465.968V497.217H467.288V493.983H467.392C467.742 494.689 468.496 495.106 469.448 495.106C471.135 495.106 472.209 493.775 472.209 491.651C472.209 489.528 471.135 488.203 469.435 488.203ZM469.061 493.922C467.956 493.922 467.263 493.051 467.263 491.658C467.263 490.258 467.956 489.387 469.067 489.387C470.184 489.387 470.853 490.24 470.853 491.651C470.853 493.069 470.184 493.922 469.061 493.922ZM475.983 493.996C475.265 493.996 474.743 493.646 474.743 493.044C474.743 492.455 475.161 492.142 476.081 492.081L477.713 491.977V492.535C477.713 493.364 476.977 493.996 475.983 493.996ZM475.645 495.106C476.523 495.106 477.253 494.726 477.652 494.057H477.756V494.996H479.027V490.43C479.027 489.019 478.082 488.184 476.406 488.184C474.891 488.184 473.811 488.921 473.676 490.068H474.952C475.099 489.596 475.609 489.326 476.345 489.326C477.247 489.326 477.713 489.725 477.713 490.43V491.007L475.903 491.111C474.314 491.21 473.418 491.903 473.418 493.106C473.418 494.327 474.357 495.106 475.645 495.106ZM486.562 490.498C486.39 489.16 485.378 488.184 483.703 488.184C481.757 488.184 480.573 489.491 480.573 491.633C480.573 493.811 481.764 495.125 483.709 495.125C485.36 495.125 486.39 494.192 486.562 492.848H485.28C485.108 493.566 484.537 493.946 483.703 493.946C482.604 493.946 481.923 493.081 481.923 491.633C481.923 490.209 482.598 489.363 483.703 489.363C484.586 489.363 485.126 489.847 485.28 490.498H486.562ZM490.815 489.307C491.791 489.307 492.429 489.988 492.459 491.038H489.084C489.158 489.995 489.839 489.307 490.815 489.307ZM492.453 493.192C492.208 493.713 491.662 494.002 490.864 494.002C489.809 494.002 489.127 493.259 489.084 492.087V492.013H493.803V491.553C493.803 489.455 492.68 488.184 490.821 488.184C488.937 488.184 487.741 489.54 487.741 491.676C487.741 493.811 488.913 495.125 490.827 495.125C492.355 495.125 493.435 494.382 493.724 493.192H492.453ZM495.233 490.203C495.233 491.197 495.822 491.768 497.093 492.069L498.258 492.339C498.927 492.498 499.24 492.756 499.24 493.155C499.24 493.689 498.657 494.057 497.835 494.057C497.037 494.057 496.546 493.738 496.381 493.222H495.061C495.178 494.407 496.215 495.125 497.804 495.125C499.4 495.125 500.572 494.284 500.572 493.026C500.572 492.044 499.977 491.498 498.706 491.203L497.596 490.946C496.872 490.78 496.534 490.528 496.534 490.13C496.534 489.608 497.093 489.258 497.829 489.258C498.578 489.258 499.056 489.571 499.179 490.062H500.443C500.314 488.884 499.332 488.184 497.829 488.184C496.319 488.184 495.233 489.019 495.233 490.203ZM503.186 495.1C503.708 495.1 504.088 494.701 504.088 494.186C504.088 493.67 503.708 493.271 503.186 493.271C502.671 493.271 502.284 493.67 502.284 494.186C502.284 494.701 502.671 495.1 503.186 495.1ZM503.186 490.541C503.708 490.541 504.088 490.142 504.088 489.626C504.088 489.105 503.708 488.712 503.186 488.712C502.671 488.712 502.284 489.105 502.284 489.626C502.284 490.142 502.671 490.541 503.186 490.541ZM509.488 488.73H510.789C510.789 487.767 511.446 487.117 512.446 487.117C513.428 487.117 514.011 487.755 514.011 488.595C514.011 489.295 513.716 489.725 512.593 490.878L509.562 494.002V494.996H515.527V493.762H511.44V493.658L513.391 491.737C514.944 490.203 515.392 489.479 515.392 488.454C515.392 486.988 514.195 485.926 512.532 485.926C510.746 485.926 509.488 487.08 509.488 488.73Z" fill="white"/>
<path d="M536.055 486.141H534.68V491.946C534.68 493.867 536.048 495.211 538.264 495.211C540.491 495.211 541.854 493.867 541.854 491.946V486.141H540.479V491.823C540.479 493.063 539.675 493.922 538.264 493.922C536.858 493.922 536.055 493.063 536.055 491.823V486.141ZM547.689 494.996V487.393H550.469V486.141H543.529V487.393H546.315V494.996H547.689ZM553.531 494.996V491.326H557.336V490.111H553.531V487.393H557.686V486.141H552.157V494.996H553.531ZM563.368 492.075V490.78H559.343V492.075H563.368ZM568.486 495.211C570.456 495.211 571.818 494.155 571.818 492.621C571.818 491.48 571.069 490.584 569.934 490.369V490.265C570.867 490.025 571.456 489.27 571.456 488.313C571.456 486.914 570.223 485.926 568.486 485.926C566.749 485.926 565.516 486.914 565.516 488.313C565.516 489.264 566.117 490.031 567.038 490.265V490.369C565.903 490.602 565.16 491.498 565.16 492.627C565.16 494.155 566.516 495.211 568.486 495.211ZM568.486 494.069C567.351 494.069 566.565 493.431 566.565 492.511C566.565 491.584 567.351 490.946 568.486 490.946C569.621 490.946 570.407 491.584 570.407 492.511C570.407 493.431 569.621 494.069 568.486 494.069ZM568.486 489.823C567.523 489.823 566.872 489.264 566.872 488.448C566.872 487.62 567.516 487.055 568.486 487.055C569.456 487.055 570.106 487.62 570.106 488.448C570.106 489.264 569.449 489.823 568.486 489.823Z" fill="white"/>
<path d="M596.972 493.732H592.824V486.141H591.449V494.996H596.972V493.732ZM600.089 494.996V491.326H603.894V490.111H600.089V487.393H604.244V486.141H598.715V494.996H600.089Z" fill="white"/>
<path d="M26.9352 488.302C26.9352 487.898 26.8263 487.525 26.6085 487.182C26.3907 486.809 26.0952 486.529 25.7218 486.342C25.3485 486.156 24.9596 486.078 24.5552 486.109C24.1507 486.14 23.7774 486.28 23.4352 486.529C23.093 486.778 22.8441 487.105 22.6885 487.509C22.5641 487.882 22.533 488.271 22.5952 488.676C22.6574 489.08 22.8285 489.438 23.1085 489.749C23.3885 490.029 23.7307 490.231 24.1352 490.356C23.9796 490.667 23.7618 490.916 23.4818 491.102C23.2018 491.258 22.8907 491.336 22.5485 491.336H20.8218C20.1374 491.336 19.5463 491.569 19.0485 492.036V487.789C19.6085 487.696 20.0441 487.431 20.3552 486.996C20.6974 486.529 20.8374 486.016 20.7752 485.456C20.7441 484.896 20.5107 484.429 20.0752 484.056C19.6707 483.682 19.1885 483.496 18.6285 483.496C18.0685 483.496 17.5707 483.682 17.1352 484.056C16.7307 484.429 16.4974 484.896 16.4352 485.456C16.4041 486.016 16.5441 486.529 16.8552 486.996C17.1974 487.431 17.6485 487.696 18.2085 487.789V493.109C17.6485 493.234 17.1974 493.514 16.8552 493.949C16.513 494.385 16.3574 494.882 16.3885 495.442C16.4507 496.002 16.6685 496.485 17.0418 496.889C17.4463 497.262 17.9285 497.465 18.4885 497.496C19.0485 497.527 19.5463 497.371 19.9818 497.029C20.4174 496.687 20.6818 496.236 20.7752 495.676C20.8685 495.116 20.7752 494.602 20.4952 494.136C20.2152 493.669 19.7952 493.358 19.2352 493.202C19.3907 492.891 19.6085 492.658 19.8885 492.502C20.1685 492.316 20.4796 492.222 20.8218 492.222H22.5485C23.1085 492.222 23.6063 492.067 24.0418 491.756C24.5085 491.414 24.8352 490.978 25.0218 490.449C25.5507 490.387 26.0018 490.154 26.3752 489.749C26.7485 489.314 26.9352 488.831 26.9352 488.302ZM17.3218 485.689C17.3218 485.316 17.4463 485.005 17.6952 484.756C17.9441 484.507 18.2552 484.382 18.6285 484.382C19.0018 484.382 19.313 484.507 19.5618 484.756C19.8107 485.005 19.9352 485.316 19.9352 485.689C19.9352 486.031 19.8107 486.342 19.5618 486.622C19.313 486.871 19.0018 486.996 18.6285 486.996C18.2552 486.996 17.9441 486.871 17.6952 486.622C17.4463 486.342 17.3218 486.031 17.3218 485.689ZM19.9352 495.256C19.9352 495.629 19.8107 495.94 19.5618 496.189C19.313 496.438 19.0018 496.562 18.6285 496.562C18.2552 496.562 17.9441 496.438 17.6952 496.189C17.4463 495.94 17.3218 495.645 17.3218 495.302C17.3218 494.929 17.4463 494.618 17.6952 494.369C17.9441 494.089 18.2552 493.949 18.6285 493.949C19.0018 493.949 19.313 494.089 19.5618 494.369C19.8107 494.618 19.9352 494.914 19.9352 495.256ZM24.7418 489.609C24.3685 489.609 24.0574 489.485 23.8085 489.236C23.5596 488.956 23.4352 488.645 23.4352 488.302C23.4352 487.929 23.5596 487.618 23.8085 487.369C24.0574 487.12 24.353 486.996 24.6952 486.996C25.0685 486.996 25.3796 487.12 25.6285 487.369C25.9085 487.618 26.0485 487.929 26.0485 488.302C26.0485 488.645 25.9085 488.956 25.6285 489.236C25.3796 489.485 25.0841 489.609 24.7418 489.609Z" fill="white"/>
<path d="M33.8083 494.996H35.1277V490.909C35.1277 490.05 35.7352 489.393 36.5391 489.393C37.3246 489.393 37.8277 489.853 37.8277 490.608V494.996H39.1225V490.792C39.1225 490.007 39.681 489.393 40.5339 489.393C41.3992 489.393 41.8287 489.835 41.8287 490.737V494.996H43.1481V490.393C43.1481 489 42.3626 488.184 41.0126 488.184C40.086 488.184 39.3189 488.657 38.9814 489.387H38.8771C38.5825 488.657 37.9505 488.184 37.0361 488.184C36.1463 488.184 35.4713 488.632 35.1768 489.387H35.0786V488.313H33.8083V494.996ZM47.1859 493.996C46.4679 493.996 45.9463 493.646 45.9463 493.044C45.9463 492.455 46.3636 492.142 47.2841 492.081L48.9164 491.977V492.535C48.9164 493.364 48.18 493.996 47.1859 493.996ZM46.8484 495.106C47.7259 495.106 48.4562 494.726 48.855 494.057H48.9594V494.996H50.2296V490.43C50.2296 489.019 49.2846 488.184 47.6093 488.184C46.0936 488.184 45.0136 488.921 44.8786 490.068H46.155C46.3023 489.596 46.8116 489.326 47.548 489.326C48.45 489.326 48.9164 489.725 48.9164 490.43V491.007L47.1061 491.111C45.5168 491.21 44.6209 491.903 44.6209 493.106C44.6209 494.327 45.5597 495.106 46.8484 495.106ZM52.1319 494.996H53.4452V488.313H52.1319V494.996ZM52.7886 487.153C53.2488 487.153 53.6231 486.767 53.6231 486.294C53.6231 485.816 53.2488 485.429 52.7886 485.429C52.3283 485.429 51.954 485.816 51.954 486.294C51.954 486.767 52.3283 487.153 52.7886 487.153ZM55.3843 494.996H56.7036V491.087C56.7036 490.044 57.3234 489.393 58.2991 489.393C59.2748 489.393 59.7412 489.927 59.7412 491.001V494.996H61.0606V490.67C61.0606 489.08 60.2383 488.184 58.7471 488.184C57.7407 488.184 57.078 488.632 56.7527 489.375H56.6546V488.313H55.3843V494.996Z" fill="white"/>
<path d="M81.3811 490.729L80.3078 491.802L79.6078 491.149L81.4278 489.329H82.0811L83.9478 491.196L83.2478 491.849L82.2211 490.822C82.3145 491.787 82.6722 492.642 83.2945 493.389C83.9478 494.105 84.7411 494.571 85.6745 494.789C86.6389 494.976 87.5567 494.867 88.4278 494.462C89.33 494.058 90.0145 493.42 90.4811 492.549L91.1811 493.062C90.59 494.089 89.75 494.836 88.6611 495.302C87.6033 495.769 86.4989 495.878 85.3478 495.629C84.2278 495.349 83.2945 494.758 82.5478 493.856C81.8011 492.954 81.4122 491.911 81.3811 490.729ZM90.9945 490.309L89.9211 489.236L89.2211 489.889L91.0411 491.756H91.7411L93.5611 489.936L92.9078 489.282L91.8345 490.309C91.8033 489.158 91.43 488.131 90.7145 487.229C89.9989 486.327 89.0811 485.736 87.9611 485.456C86.8411 485.145 85.7367 485.207 84.6478 485.642C83.59 486.047 82.75 486.747 82.1278 487.742L82.8278 488.256C83.3256 487.416 84.0256 486.809 84.9278 486.436C85.83 486.062 86.7478 486 87.6811 486.249C88.6145 486.498 89.3767 486.996 89.9678 487.742C90.59 488.489 90.9322 489.345 90.9945 490.309Z" fill="white"/>
<path d="M101.884 495.211C103.946 495.211 105.149 493.511 105.149 490.571C105.149 487.638 103.927 485.926 101.884 485.926C99.8282 485.926 98.607 487.632 98.607 490.559C98.607 493.505 99.8159 495.211 101.884 495.211ZM101.884 494.008C100.681 494.008 99.9939 492.811 99.9939 490.559C99.9939 488.332 100.693 487.129 101.884 487.129C103.074 487.129 103.762 488.325 103.762 490.559C103.762 492.817 103.087 494.008 101.884 494.008ZM115.274 491.455L114.458 490.59L112.058 492.965V486.141H110.905V492.965L108.505 490.59L107.689 491.455L111.481 495.297L115.274 491.455ZM123.521 494.996H124.896V486.141H123.527L121.195 487.785V489.191L123.417 487.62H123.521V494.996ZM135.831 489.682L132.039 485.84L128.246 489.682L129.062 490.547L131.462 488.172V494.996H132.616V488.172L135.015 490.547L135.831 489.682Z" fill="white"/>
<path d="M162.067 484.382C162.752 484.414 163.405 484.585 164.027 484.896C164.68 485.207 165.256 485.611 165.754 486.109C166.936 487.385 167.527 488.878 167.527 490.589C167.527 491.927 167.06 493.202 166.127 494.416C165.66 494.976 165.132 495.442 164.54 495.816C163.949 496.158 163.312 496.391 162.627 496.516C161.134 496.796 159.78 496.594 158.567 495.909C157.945 495.567 157.4 495.131 156.934 494.602C156.467 494.074 156.109 493.482 155.86 492.829C155.612 492.176 155.456 491.491 155.394 490.776C155.363 490.06 155.456 489.376 155.674 488.722C156.14 487.291 156.965 486.187 158.147 485.409C158.707 485.036 159.314 484.756 159.967 484.569C160.652 484.382 161.352 484.32 162.067 484.382ZM162.534 495.676C163.716 495.396 164.696 494.774 165.474 493.809C166.252 492.751 166.609 491.647 166.547 490.496C166.547 489.78 166.407 489.096 166.127 488.442C165.878 487.789 165.52 487.214 165.054 486.716C164.152 485.814 163.109 485.316 161.927 485.222C161.336 485.191 160.745 485.254 160.154 485.409C159.563 485.534 159.034 485.767 158.567 486.109C157.572 486.856 156.887 487.836 156.514 489.049C156.172 490.262 156.249 491.429 156.747 492.549C157.276 493.669 158.069 494.525 159.127 495.116C159.625 495.427 160.169 495.629 160.76 495.722C161.352 495.816 161.943 495.8 162.534 495.676ZM161.46 490.076L163.56 487.882L164.167 488.489L162.067 490.682L164.167 492.876L163.56 493.482L161.46 491.289L159.36 493.482L158.754 492.876L160.854 490.682L158.754 488.489L159.36 487.882L161.46 490.076Z" fill="white"/>
<path d="M176.83 495.211C178.892 495.211 180.094 493.511 180.094 490.571C180.094 487.638 178.873 485.926 176.83 485.926C174.774 485.926 173.553 487.632 173.553 490.559C173.553 493.505 174.762 495.211 176.83 495.211ZM176.83 494.008C175.627 494.008 174.94 492.811 174.94 490.559C174.94 488.332 175.639 487.129 176.83 487.129C178.02 487.129 178.708 488.325 178.708 490.559C178.708 492.817 178.033 494.008 176.83 494.008Z" fill="white"/>
<path d="M192.559 484.382H193.305L199.045 495.116L198.672 495.722H187.192L186.819 495.116L192.559 484.382ZM192.932 485.502L187.939 494.882H197.925L192.932 485.502ZM193.492 493.996V493.109H192.372V493.996H193.492ZM192.372 492.222V488.722H193.492V492.222H192.372Z" fill="white"/>
<path d="M208.208 495.211C210.27 495.211 211.473 493.511 211.473 490.571C211.473 487.638 210.252 485.926 208.208 485.926C206.153 485.926 204.931 487.632 204.931 490.559C204.931 493.505 206.14 495.211 208.208 495.211ZM208.208 494.008C207.006 494.008 206.318 492.811 206.318 490.559C206.318 488.332 207.018 487.129 208.208 487.129C209.399 487.129 210.086 488.325 210.086 490.559C210.086 492.817 209.411 494.008 208.208 494.008Z" fill="white"/>
<rect x="192.703" width="427.297" height="25.1" fill="#191919"/>
<rect x="192.703" width="123.581" height="25.1" fill="#121212"/>
<path d="M299.527 8.36622L303.717 12.5496M307.906 16.7329L303.717 12.5496M303.717 12.5496L307.906 8.36622M303.717 12.5496L299.527 16.7329" stroke="#666666" stroke-width="1.0473"/>
<rect x="222.027" y="10.459" width="69.1216" height="4.18333" rx="2.09167" fill="white"/>
<path d="M205.925 8.51275H208.011V14.2864C208.011 15.5317 207.717 16.4374 207.128 17.0034C206.588 17.5209 205.778 17.7797 204.698 17.7797C204.452 17.7797 204.182 17.7635 203.888 17.7312C203.593 17.6827 203.356 17.618 203.176 17.5371L203.397 15.8875C203.708 16.033 204.068 16.1058 204.477 16.1058C204.935 16.1058 205.279 15.9845 205.508 15.7419C205.786 15.4508 205.925 14.9656 205.925 14.2864V8.51275ZM209.852 15.4993C210.147 15.6611 210.49 15.7985 210.883 15.9118C211.325 16.0411 211.742 16.1058 212.135 16.1058C212.626 16.1058 212.994 16.025 213.24 15.8632C213.485 15.6853 213.608 15.4427 213.608 15.1355C213.608 14.8282 213.493 14.5856 213.264 14.4077C213.035 14.2136 212.634 14.0195 212.061 13.8255C210.376 13.2433 209.533 12.3376 209.533 11.1085C209.533 10.2998 209.844 9.64484 210.466 9.14348C211.104 8.62596 211.971 8.3672 213.068 8.3672C213.935 8.3672 214.729 8.52084 215.449 8.82812L214.982 10.502L214.835 10.4292C214.541 10.316 214.303 10.2351 214.123 10.1866C213.78 10.0896 213.428 10.0411 213.068 10.0411C212.626 10.0411 212.282 10.13 212.037 10.3079C211.808 10.4696 211.693 10.688 211.693 10.9629C211.693 11.2378 211.824 11.4643 212.086 11.6422C212.282 11.7877 212.708 11.9899 213.362 12.2486C214.181 12.5559 214.778 12.9279 215.154 13.3646C215.547 13.8012 215.743 14.3349 215.743 14.9656C215.743 15.7743 215.432 16.4293 214.811 16.9306C214.14 17.4967 213.199 17.7797 211.988 17.7797C211.513 17.7797 211.014 17.715 210.49 17.5856C210.081 17.5048 209.713 17.3916 209.386 17.246L209.852 15.4993Z" fill="#CBCB41"/>
<rect x="50.2695" width="142.432" height="478.992" fill="#1A1A1A"/>
</g>
<rect x="87.9766" y="58.5675" width="56.5541" height="8.36667" rx="4.18333" fill="#333333"/>
<path d="M69.125 57.003L75.4088 62.7631L69.125 68.5232" stroke="#666666" stroke-width="1.46622"/>
<rect x="87.9766" y="87.8498" width="56.5541" height="8.36667" rx="4.18333" fill="#333333"/>
<path d="M69.125 86.2842L75.4088 92.0444L69.125 97.8045" stroke="#666666" stroke-width="1.46622"/>
<rect x="87.9766" y="117.133" width="56.5541" height="8.36667" rx="4.18333" fill="#333333"/>
<path d="M69.125 115.567L75.4088 121.328L69.125 127.088" stroke="#666666" stroke-width="1.46622"/>
<rect x="87.9766" y="146.416" width="56.5541" height="8.36667" rx="4.18333" fill="#666666"/>
<path d="M78.0273 147.469L72.2672 153.753L66.5071 147.469" stroke="#999999" stroke-width="1.46622"/>
<rect x="65.9805" y="171.517" width="1.0473" height="251" fill="#333333"/>
<rect x="102.637" y="263.55" width="35.6081" height="8.36667" rx="4.18333" fill="#333333"/>
<path d="M81.9833 261.652H84.5913V269.35C84.5913 271.011 84.2231 272.218 83.4868 272.973C82.8117 273.663 81.7992 274.008 80.4492 274.008C80.1424 274.008 79.8049 273.986 79.4367 273.943C79.0685 273.879 78.7719 273.792 78.5469 273.685L78.823 271.485C79.2117 271.679 79.6617 271.776 80.173 271.776C80.7458 271.776 81.1753 271.614 81.4617 271.291C81.8095 270.903 81.9833 270.256 81.9833 269.35V261.652ZM86.8925 270.968C87.2607 271.183 87.6903 271.366 88.1812 271.517C88.7335 271.69 89.2551 271.776 89.746 271.776C90.3597 271.776 90.8199 271.668 91.1267 271.453C91.4335 271.216 91.587 270.892 91.587 270.482C91.587 270.073 91.4438 269.749 91.1574 269.512C90.871 269.253 90.3699 268.994 89.654 268.736C87.5471 267.959 86.4937 266.752 86.4937 265.113C86.4937 264.035 86.8823 263.162 87.6596 262.493C88.4573 261.803 89.5415 261.458 90.9119 261.458C91.9961 261.458 92.9881 261.663 93.8881 262.073L93.3052 264.304L93.1211 264.207C92.7529 264.056 92.4563 263.949 92.2313 263.884C91.8017 263.755 91.3619 263.69 90.9119 263.69C90.3597 263.69 89.9301 263.808 89.6233 264.046C89.3369 264.261 89.1937 264.552 89.1937 264.919C89.1937 265.286 89.3574 265.587 89.6846 265.825C89.9301 266.019 90.4619 266.288 91.2801 266.633C92.3029 267.043 93.0495 267.539 93.52 268.121C94.0109 268.703 94.2563 269.415 94.2563 270.256C94.2563 271.334 93.8677 272.207 93.0904 272.876C92.2517 273.631 91.0756 274.008 89.5619 274.008C88.9687 274.008 88.3448 273.922 87.6903 273.749C87.1789 273.641 86.7187 273.49 86.3096 273.296L86.8925 270.968Z" fill="#CBCB41"/>
<rect x="102.637" y="292.834" width="56.5541" height="8.36667" rx="4.18333" fill="#333333"/>
<path d="M81.9833 290.936H84.5913V298.634C84.5913 300.295 84.2231 301.502 83.4868 302.257C82.8117 302.947 81.7992 303.292 80.4492 303.292C80.1424 303.292 79.8049 303.271 79.4367 303.227C79.0685 303.163 78.7719 303.077 78.5469 302.969L78.823 300.769C79.2117 300.963 79.6617 301.06 80.173 301.06C80.7458 301.06 81.1753 300.899 81.4617 300.575C81.8095 300.187 81.9833 299.54 81.9833 298.634V290.936ZM86.8925 300.252C87.2607 300.467 87.6903 300.651 88.1812 300.802C88.7335 300.974 89.2551 301.06 89.746 301.06C90.3597 301.06 90.8199 300.953 91.1267 300.737C91.4335 300.5 91.587 300.176 91.587 299.767C91.587 299.357 91.4438 299.033 91.1574 298.796C90.871 298.537 90.3699 298.279 89.654 298.02C87.5471 297.244 86.4937 296.036 86.4937 294.397C86.4937 293.319 86.8823 292.446 87.6596 291.777C88.4573 291.087 89.5415 290.742 90.9119 290.742C91.9961 290.742 92.9881 290.947 93.8881 291.357L93.3052 293.589L93.1211 293.492C92.7529 293.341 92.4563 293.233 92.2313 293.168C91.8017 293.039 91.3619 292.974 90.9119 292.974C90.3597 292.974 89.9301 293.093 89.6233 293.33C89.3369 293.545 89.1937 293.837 89.1937 294.203C89.1937 294.57 89.3574 294.872 89.6846 295.109C89.9301 295.303 90.4619 295.572 91.2801 295.917C92.3029 296.327 93.0495 296.823 93.52 297.405C94.0109 297.988 94.2563 298.699 94.2563 299.54C94.2563 300.618 93.8677 301.492 93.0904 302.16C92.2517 302.915 91.0756 303.292 89.5619 303.292C88.9687 303.292 88.3448 303.206 87.6903 303.033C87.1789 302.926 86.7187 302.775 86.3096 302.581L86.8925 300.252Z" fill="#CBCB41"/>
<rect x="102.637" y="322.117" width="35.6081" height="8.36667" rx="4.18333" fill="#333333"/>
<path d="M81.9833 320.219H84.5913V327.918C84.5913 329.578 84.2231 330.786 83.4868 331.54C82.8117 332.23 81.7992 332.575 80.4492 332.575C80.1424 332.575 79.8049 332.554 79.4367 332.511C79.0685 332.446 78.7719 332.36 78.5469 332.252L78.823 330.052C79.2117 330.247 79.6617 330.344 80.173 330.344C80.7458 330.344 81.1753 330.182 81.4617 329.858C81.8095 329.47 81.9833 328.823 81.9833 327.918V320.219ZM86.8925 329.535C87.2607 329.751 87.6903 329.934 88.1812 330.085C88.7335 330.257 89.2551 330.344 89.746 330.344C90.3597 330.344 90.8199 330.236 91.1267 330.02C91.4335 329.783 91.587 329.459 91.587 329.05C91.587 328.64 91.4438 328.317 91.1574 328.079C90.871 327.821 90.3699 327.562 89.654 327.303C87.5471 326.527 86.4937 325.319 86.4937 323.68C86.4937 322.602 86.8823 321.729 87.6596 321.06C88.4573 320.37 89.5415 320.025 90.9119 320.025C91.9961 320.025 92.9881 320.23 93.8881 320.64L93.3052 322.872L93.1211 322.775C92.7529 322.624 92.4563 322.516 92.2313 322.451C91.8017 322.322 91.3619 322.257 90.9119 322.257C90.3597 322.257 89.9301 322.376 89.6233 322.613C89.3369 322.829 89.1937 323.12 89.1937 323.486C89.1937 323.853 89.3574 324.155 89.6846 324.392C89.9301 324.586 90.4619 324.856 91.2801 325.201C92.3029 325.61 93.0495 326.106 93.52 326.689C94.0109 327.271 94.2563 327.982 94.2563 328.823C94.2563 329.902 93.8677 330.775 93.0904 331.443C92.2517 332.198 91.0756 332.575 89.5619 332.575C88.9687 332.575 88.3448 332.489 87.6903 332.317C87.1789 332.209 86.7187 332.058 86.3096 331.864L86.8925 329.535Z" fill="#CBCB41"/>
<rect x="102.637" y="351.399" width="46.0811" height="8.36667" rx="4.18333" fill="#333333"/>
<path d="M81.9833 349.501H84.5913V357.199C84.5913 358.859 84.2231 360.067 83.4868 360.822C82.8117 361.512 81.7992 361.857 80.4492 361.857C80.1424 361.857 79.8049 361.835 79.4367 361.792C79.0685 361.727 78.7719 361.641 78.5469 361.533L78.823 359.334C79.2117 359.528 79.6617 359.625 80.173 359.625C80.7458 359.625 81.1753 359.463 81.4617 359.14C81.8095 358.751 81.9833 358.105 81.9833 357.199V349.501ZM86.8925 358.816C87.2607 359.032 87.6903 359.215 88.1812 359.366C88.7335 359.539 89.2551 359.625 89.746 359.625C90.3597 359.625 90.8199 359.517 91.1267 359.301C91.4335 359.064 91.587 358.741 91.587 358.331C91.587 357.921 91.4438 357.598 91.1574 357.361C90.871 357.102 90.3699 356.843 89.654 356.584C87.5471 355.808 86.4937 354.6 86.4937 352.962C86.4937 351.883 86.8823 351.01 87.6596 350.342C88.4573 349.652 89.5415 349.307 90.9119 349.307C91.9961 349.307 92.9881 349.511 93.8881 349.921L93.3052 352.153L93.1211 352.056C92.7529 351.905 92.4563 351.797 92.2313 351.733C91.8017 351.603 91.3619 351.538 90.9119 351.538C90.3597 351.538 89.9301 351.657 89.6233 351.894C89.3369 352.11 89.1937 352.401 89.1937 352.768C89.1937 353.134 89.3574 353.436 89.6846 353.673C89.9301 353.867 90.4619 354.137 91.2801 354.482C92.3029 354.892 93.0495 355.388 93.52 355.97C94.0109 356.552 94.2563 357.264 94.2563 358.105C94.2563 359.183 93.8677 360.056 93.0904 360.725C92.2517 361.479 91.0756 361.857 89.5619 361.857C88.9687 361.857 88.3448 361.77 87.6903 361.598C87.1789 361.49 86.7187 361.339 86.3096 361.145L86.8925 358.816Z" fill="#CBCB41"/>
<rect x="102.637" y="175.7" width="56.5541" height="8.36667" rx="4.18333" fill="#333333"/>
<g clip-path="url(#clip0_1071_91930)">
<path d="M92.1925 183.038C92.1925 183.099 92.1925 183.179 92.1925 183.279C92.307 184.5 92.3643 185.421 92.3643 186.041C92.3643 186.642 92.2212 187.142 91.9349 187.542C91.6487 187.943 91.2862 188.163 90.8473 188.203C90.4085 188.303 89.9314 188.243 89.4162 188.023C89.0346 187.823 88.5003 187.482 87.8134 187.002C87.3746 186.702 87.0406 186.481 86.8117 186.341C86.2201 186.842 85.7431 187.212 85.3806 187.452C85.0753 187.673 84.7795 187.833 84.4933 187.933C83.959 188.173 83.4629 188.253 83.005 188.173C82.547 188.073 82.1749 187.833 81.8887 187.452C81.6216 187.072 81.4785 186.572 81.4594 185.951C81.4594 185.33 81.5166 184.33 81.6311 182.948C80.9061 182.708 80.3622 182.458 79.9997 182.198C79.5227 181.957 79.0456 181.587 78.5686 181.087C78.187 180.666 78.0057 180.216 78.0248 179.736C78.0439 179.235 78.2633 178.775 78.6831 178.354C78.9884 177.974 79.3986 177.654 79.9138 177.393C80.2191 177.213 80.6962 177.003 81.3449 176.763C81.3831 176.763 81.4403 176.753 81.5166 176.733C81.6121 176.693 81.6788 176.673 81.717 176.673L81.4594 174.601C81.4403 174.161 81.4976 173.57 81.6311 172.829C81.7647 172.309 82.0318 171.939 82.4325 171.718C82.8523 171.498 83.3294 171.458 83.8636 171.598C84.3407 171.718 84.8177 171.939 85.2947 172.259C85.6382 172.479 86.0293 172.789 86.4682 173.19C86.5445 173.23 86.6304 173.32 86.7258 173.46L86.8117 173.58C87.7657 172.819 88.5099 172.279 89.0442 171.959C89.6547 171.538 90.2558 171.418 90.8473 171.598C91.2862 171.698 91.6296 171.949 91.8777 172.349C92.1448 172.729 92.307 173.23 92.3643 173.85V175.352C92.3643 175.552 92.3166 175.852 92.2212 176.252C92.1639 176.513 92.1162 176.713 92.078 176.853C92.6123 177.033 93.118 177.253 93.595 177.514C94.0911 177.754 94.4441 177.954 94.654 178.114C95.0165 178.374 95.3028 178.675 95.5127 179.015C95.7225 179.335 95.8275 179.675 95.8275 180.036C95.8275 180.396 95.7225 180.746 95.5127 181.087C95.3028 181.407 95.0165 181.697 94.654 181.957C94.425 182.118 94.072 182.328 93.595 182.588C93.2515 182.648 92.7745 182.798 92.1639 183.038H92.1925ZM86.9834 182.948C87.0788 182.948 87.2314 182.938 87.4413 182.918C87.7276 182.878 87.9374 182.858 88.071 182.858C88.3191 182.858 88.529 182.728 88.7007 182.468C89.2922 181.467 89.7024 180.686 89.9314 180.126C89.9887 180.046 90.0173 179.946 90.0173 179.826C90.0173 179.706 89.9887 179.625 89.9314 179.585C89.6452 179.005 89.1968 178.224 88.5862 177.243C88.5099 177.043 88.3668 176.943 88.1569 176.943C87.1456 176.943 86.3728 176.913 85.8385 176.853C85.3615 176.853 84.999 177.073 84.7509 177.514C84.5219 177.894 84.3407 178.204 84.2071 178.444L83.8064 179.225C83.6347 179.485 83.5297 179.675 83.4915 179.796C83.4725 179.896 83.4725 180.006 83.4915 180.126C83.5297 180.226 83.6347 180.416 83.8064 180.696L84.2071 181.447L84.5505 182.048C84.7414 182.368 84.8749 182.568 84.9512 182.648C85.0657 182.788 85.1993 182.868 85.352 182.888C85.4664 182.908 85.705 182.918 86.0675 182.918L86.9834 182.948ZM81.8029 182.198C82.1654 181.197 82.4325 180.476 82.6043 180.036V179.675L81.8029 177.514C80.7343 177.854 79.9043 178.254 79.3128 178.715C78.893 179.055 78.6831 179.425 78.6831 179.826C78.6831 180.206 78.893 180.556 79.3128 180.877C79.6181 181.217 80.0092 181.497 80.4863 181.717C80.7725 181.857 81.2113 182.018 81.8029 182.198ZM91.9063 177.423C91.6773 177.984 91.3816 178.765 91.019 179.766L90.9904 179.856C90.9713 179.916 90.9809 179.946 91.019 179.946C91.3816 180.947 91.6773 181.757 91.9063 182.378C92.1353 182.258 92.4883 182.068 92.9653 181.807C93.595 181.507 94.0434 181.267 94.3105 181.087C94.8067 180.746 95.0547 180.366 95.0547 179.946C95.0547 179.525 94.8162 179.155 94.3392 178.835C94.0148 178.534 93.4901 178.204 92.765 177.844C92.3643 177.664 92.078 177.524 91.9063 177.423ZM82.3467 176.463C83.3007 176.363 84.0449 176.242 84.5792 176.102C84.6173 176.102 84.6555 176.082 84.6937 176.042L84.7509 176.012C85.0944 175.512 85.5714 174.881 86.182 174.121C85.705 173.7 85.3424 173.39 85.0944 173.19C84.6746 172.849 84.2643 172.599 83.8636 172.439C83.3675 172.259 82.9668 172.269 82.6615 172.469C82.3562 172.649 82.1559 173.02 82.0605 173.58C82.0223 173.96 82.0318 174.401 82.0891 174.901C82.1272 175.202 82.2036 175.672 82.3181 176.313L82.3467 176.463ZM91.2766 176.463C91.2766 176.443 91.2862 176.393 91.3053 176.313C91.3434 176.212 91.3625 176.142 91.3625 176.102C91.4961 175.482 91.5629 175.001 91.5629 174.661C91.601 174.101 91.5342 173.61 91.3625 173.19C91.2862 172.869 91.1431 172.639 90.9332 172.499C90.7233 172.359 90.4848 172.309 90.2176 172.349C89.7406 172.429 89.2731 172.629 88.8152 172.95C88.529 173.13 88.1378 173.46 87.6417 173.94L87.4413 174.121C87.7466 174.561 88.195 175.161 88.7866 175.922L89.0442 176.192L91.2766 176.493V176.463ZM82.3467 183.219C82.3276 183.339 82.299 183.509 82.2608 183.729C82.1463 184.29 82.0795 184.7 82.0605 184.96C82.0223 185.421 82.0605 185.851 82.1749 186.251C82.2513 186.712 82.4325 187.032 82.7188 187.212C83.0241 187.392 83.4057 187.412 83.8636 187.272C84.2452 187.152 84.6364 186.952 85.0371 186.672C85.2661 186.492 85.6 186.201 86.0389 185.801L86.2678 185.591C85.9244 185.09 85.4474 184.46 84.8368 183.699C84.7223 183.579 84.6364 183.519 84.5792 183.519C83.8922 183.519 83.1481 183.419 82.3467 183.219ZM87.3555 185.591C87.6035 185.931 87.9661 186.281 88.4431 186.642C88.882 186.982 89.2922 187.222 89.6738 187.362C90.6279 187.663 91.1908 187.322 91.3625 186.341C91.4388 185.901 91.4579 185.421 91.4198 184.9C91.4007 184.58 91.3339 184.099 91.2194 183.459L91.1908 183.339L90.6183 183.399C89.8169 183.459 89.235 183.559 88.8724 183.699C88.7007 183.799 88.5385 183.939 88.3859 184.119C88.2904 184.24 88.1664 184.42 88.0138 184.66C87.8802 184.86 87.7753 185.02 87.6989 185.14C87.6417 185.24 87.5272 185.391 87.3555 185.591ZM87.8993 176.012C87.7657 175.852 87.5749 175.632 87.3268 175.352C87.0979 175.071 86.9261 174.851 86.8117 174.691L86.6686 174.901C86.306 175.382 86.0007 175.752 85.7527 176.012H87.8993ZM87.8993 183.699H85.8385C85.953 183.859 86.1247 184.079 86.3537 184.36C86.6018 184.64 86.783 184.86 86.8975 185.02C87.0311 184.8 87.2505 184.5 87.5558 184.119L87.8993 183.699ZM84.2071 182.768C84.1308 182.628 84.0163 182.418 83.8636 182.138C83.5392 181.577 83.3007 181.127 83.1481 180.786L82.6043 182.378C82.9286 182.518 83.4629 182.648 84.2071 182.768ZM90.4752 180.786L89.4162 182.768L91.019 182.468C90.9427 182.068 90.7615 181.507 90.4752 180.786ZM83.1481 178.925L84.2071 176.943L82.6043 177.213L82.7188 177.604C82.8523 178.184 82.9954 178.625 83.1481 178.925ZM89.4162 176.943C89.5307 177.203 89.7024 177.524 89.9314 177.904C90.1795 178.264 90.3607 178.575 90.4752 178.835C90.7233 178.074 90.9046 177.544 91.019 177.243C90.5611 177.223 90.0268 177.123 89.4162 176.943Z" fill="#519ABA"/>
</g>
<rect x="102.637" y="204.983" width="35.6081" height="8.36667" rx="4.18333" fill="#333333"/>
<g clip-path="url(#clip1_1071_91930)">
<path d="M92.1925 212.322C92.1925 212.382 92.1925 212.462 92.1925 212.562C92.307 213.783 92.3643 214.704 92.3643 215.324C92.3643 215.925 92.2212 216.425 91.9349 216.826C91.6487 217.226 91.2862 217.446 90.8473 217.486C90.4085 217.586 89.9314 217.526 89.4162 217.306C89.0346 217.106 88.5003 216.766 87.8134 216.285C87.3746 215.985 87.0406 215.765 86.8117 215.625C86.2201 216.125 85.7431 216.495 85.3806 216.736C85.0753 216.956 84.7795 217.116 84.4933 217.216C83.959 217.456 83.4629 217.536 83.005 217.456C82.547 217.356 82.1749 217.116 81.8887 216.736C81.6216 216.355 81.4785 215.855 81.4594 215.234C81.4594 214.614 81.5166 213.613 81.6311 212.232C80.9061 211.991 80.3622 211.741 79.9997 211.481C79.5227 211.241 79.0456 210.87 78.5686 210.37C78.187 209.95 78.0057 209.499 78.0248 209.019C78.0439 208.518 78.2633 208.058 78.6831 207.638C78.9884 207.257 79.3986 206.937 79.9138 206.677C80.2191 206.497 80.6962 206.286 81.3449 206.046C81.3831 206.046 81.4403 206.036 81.5166 206.016C81.6121 205.976 81.6788 205.956 81.717 205.956L81.4594 203.884C81.4403 203.444 81.4976 202.853 81.6311 202.113C81.7647 201.592 82.0318 201.222 82.4325 201.002C82.8523 200.782 83.3294 200.741 83.8636 200.882C84.3407 201.002 84.8177 201.222 85.2947 201.542C85.6382 201.762 86.0293 202.073 86.4682 202.473C86.5445 202.513 86.6304 202.603 86.7258 202.743L86.8117 202.863C87.7657 202.103 88.5099 201.562 89.0442 201.242C89.6547 200.822 90.2558 200.701 90.8473 200.882C91.2862 200.982 91.6296 201.232 91.8777 201.632C92.1448 202.013 92.307 202.513 92.3643 203.134V204.635C92.3643 204.835 92.3166 205.135 92.2212 205.536C92.1639 205.796 92.1162 205.996 92.078 206.136C92.6123 206.316 93.118 206.537 93.595 206.797C94.0911 207.037 94.4441 207.237 94.654 207.397C95.0165 207.658 95.3028 207.958 95.5127 208.298C95.7225 208.618 95.8275 208.959 95.8275 209.319C95.8275 209.679 95.7225 210.03 95.5127 210.37C95.3028 210.69 95.0165 210.981 94.654 211.241C94.425 211.401 94.072 211.611 93.595 211.871C93.2515 211.931 92.7745 212.081 92.1639 212.322H92.1925ZM86.9834 212.232C87.0788 212.232 87.2314 212.222 87.4413 212.202C87.7276 212.162 87.9374 212.142 88.071 212.142C88.3191 212.142 88.529 212.011 88.7007 211.751C89.2922 210.75 89.7024 209.97 89.9314 209.409C89.9887 209.329 90.0173 209.229 90.0173 209.109C90.0173 208.989 89.9887 208.909 89.9314 208.869C89.6452 208.288 89.1968 207.507 88.5862 206.527C88.5099 206.326 88.3668 206.226 88.1569 206.226C87.1456 206.226 86.3728 206.196 85.8385 206.136C85.3615 206.136 84.999 206.356 84.7509 206.797C84.5219 207.177 84.3407 207.487 84.2071 207.728L83.8064 208.508C83.6347 208.769 83.5297 208.959 83.4915 209.079C83.4725 209.179 83.4725 209.289 83.4915 209.409C83.5297 209.509 83.6347 209.699 83.8064 209.98L84.2071 210.73L84.5505 211.331C84.7414 211.651 84.8749 211.851 84.9512 211.931C85.0657 212.071 85.1993 212.152 85.352 212.172C85.4664 212.192 85.705 212.202 86.0675 212.202L86.9834 212.232ZM81.8029 211.481C82.1654 210.48 82.4325 209.759 82.6043 209.319V208.959L81.8029 206.797C80.7343 207.137 79.9043 207.537 79.3128 207.998C78.893 208.338 78.6831 208.709 78.6831 209.109C78.6831 209.489 78.893 209.84 79.3128 210.16C79.6181 210.5 80.0092 210.78 80.4863 211.001C80.7725 211.141 81.2113 211.301 81.8029 211.481ZM91.9063 206.707C91.6773 207.267 91.3816 208.048 91.019 209.049L90.9904 209.139C90.9713 209.199 90.9809 209.229 91.019 209.229C91.3816 210.23 91.6773 211.041 91.9063 211.661C92.1353 211.541 92.4883 211.351 92.9653 211.091C93.595 210.79 94.0434 210.55 94.3105 210.37C94.8067 210.03 95.0547 209.649 95.0547 209.229C95.0547 208.809 94.8162 208.438 94.3392 208.118C94.0148 207.818 93.4901 207.487 92.765 207.127C92.3643 206.947 92.078 206.807 91.9063 206.707ZM82.3467 205.746C83.3007 205.646 84.0449 205.526 84.5792 205.386C84.6173 205.386 84.6555 205.366 84.6937 205.326L84.7509 205.295C85.0944 204.795 85.5714 204.164 86.182 203.404C85.705 202.983 85.3424 202.673 85.0944 202.473C84.6746 202.133 84.2643 201.882 83.8636 201.722C83.3675 201.542 82.9668 201.552 82.6615 201.752C82.3562 201.933 82.1559 202.303 82.0605 202.863C82.0223 203.244 82.0318 203.684 82.0891 204.185C82.1272 204.485 82.2036 204.955 82.3181 205.596L82.3467 205.746ZM91.2766 205.746C91.2766 205.726 91.2862 205.676 91.3053 205.596C91.3434 205.496 91.3625 205.426 91.3625 205.386C91.4961 204.765 91.5629 204.285 91.5629 203.944C91.601 203.384 91.5342 202.893 91.3625 202.473C91.2862 202.153 91.1431 201.923 90.9332 201.782C90.7233 201.642 90.4848 201.592 90.2176 201.632C89.7406 201.712 89.2731 201.913 88.8152 202.233C88.529 202.413 88.1378 202.743 87.6417 203.224L87.4413 203.404C87.7466 203.844 88.195 204.445 88.7866 205.205L89.0442 205.476L91.2766 205.776V205.746ZM82.3467 212.502C82.3276 212.622 82.299 212.792 82.2608 213.012C82.1463 213.573 82.0795 213.983 82.0605 214.243C82.0223 214.704 82.0605 215.134 82.1749 215.535C82.2513 215.995 82.4325 216.315 82.7188 216.495C83.0241 216.676 83.4057 216.696 83.8636 216.555C84.2452 216.435 84.6364 216.235 85.0371 215.955C85.2661 215.775 85.6 215.485 86.0389 215.084L86.2678 214.874C85.9244 214.374 85.4474 213.743 84.8368 212.982C84.7223 212.862 84.6364 212.802 84.5792 212.802C83.8922 212.802 83.1481 212.702 82.3467 212.502ZM87.3555 214.874C87.6035 215.214 87.9661 215.565 88.4431 215.925C88.882 216.265 89.2922 216.505 89.6738 216.646C90.6279 216.946 91.1908 216.605 91.3625 215.625C91.4388 215.184 91.4579 214.704 91.4198 214.183C91.4007 213.863 91.3339 213.383 91.2194 212.742L91.1908 212.622L90.6183 212.682C89.8169 212.742 89.235 212.842 88.8724 212.982C88.7007 213.082 88.5385 213.223 88.3859 213.403C88.2904 213.523 88.1664 213.703 88.0138 213.943C87.8802 214.143 87.7753 214.303 87.6989 214.424C87.6417 214.524 87.5272 214.674 87.3555 214.874ZM87.8993 205.295C87.7657 205.135 87.5749 204.915 87.3268 204.635C87.0979 204.355 86.9261 204.134 86.8117 203.974L86.6686 204.185C86.306 204.665 86.0007 205.035 85.7527 205.295H87.8993ZM87.8993 212.982H85.8385C85.953 213.142 86.1247 213.363 86.3537 213.643C86.6018 213.923 86.783 214.143 86.8975 214.303C87.0311 214.083 87.2505 213.783 87.5558 213.403L87.8993 212.982ZM84.2071 212.051C84.1308 211.911 84.0163 211.701 83.8636 211.421C83.5392 210.86 83.3007 210.41 83.1481 210.07L82.6043 211.661C82.9286 211.801 83.4629 211.931 84.2071 212.051ZM90.4752 210.07L89.4162 212.051L91.019 211.751C90.9427 211.351 90.7615 210.79 90.4752 210.07ZM83.1481 208.208L84.2071 206.226L82.6043 206.497L82.7188 206.887C82.8523 207.467 82.9954 207.908 83.1481 208.208ZM89.4162 206.226C89.5307 206.487 89.7024 206.807 89.9314 207.187C90.1795 207.547 90.3607 207.858 90.4752 208.118C90.7233 207.357 90.9046 206.827 91.019 206.527C90.5611 206.507 90.0268 206.406 89.4162 206.226Z" fill="#519ABA"/>
</g>
<rect x="102.637" y="234.267" width="46.0811" height="8.36667" rx="4.18333" fill="#333333"/>
<g clip-path="url(#clip2_1071_91930)">
<path d="M92.1925 241.605C92.1925 241.665 92.1925 241.745 92.1925 241.845C92.307 243.066 92.3643 243.987 92.3643 244.608C92.3643 245.208 92.2212 245.709 91.9349 246.109C91.6487 246.509 91.2862 246.729 90.8473 246.77C90.4085 246.87 89.9314 246.81 89.4162 246.589C89.0346 246.389 88.5003 246.049 87.8134 245.568C87.3746 245.268 87.0406 245.048 86.8117 244.908C86.2201 245.408 85.7431 245.779 85.3806 246.019C85.0753 246.239 84.7795 246.399 84.4933 246.499C83.959 246.739 83.4629 246.82 83.005 246.739C82.547 246.639 82.1749 246.399 81.8887 246.019C81.6216 245.639 81.4785 245.138 81.4594 244.518C81.4594 243.897 81.5166 242.896 81.6311 241.515C80.9061 241.275 80.3622 241.024 79.9997 240.764C79.5227 240.524 79.0456 240.154 78.5686 239.653C78.187 239.233 78.0057 238.782 78.0248 238.302C78.0439 237.802 78.2633 237.341 78.6831 236.921C78.9884 236.54 79.3986 236.22 79.9138 235.96C80.2191 235.78 80.6962 235.57 81.3449 235.329C81.3831 235.329 81.4403 235.319 81.5166 235.299C81.6121 235.259 81.6788 235.239 81.717 235.239L81.4594 233.168C81.4403 232.727 81.4976 232.137 81.6311 231.396C81.7647 230.875 82.0318 230.505 82.4325 230.285C82.8523 230.065 83.3294 230.025 83.8636 230.165C84.3407 230.285 84.8177 230.505 85.2947 230.825C85.6382 231.046 86.0293 231.356 86.4682 231.756C86.5445 231.796 86.6304 231.886 86.7258 232.026L86.8117 232.147C87.7657 231.386 88.5099 230.845 89.0442 230.525C89.6547 230.105 90.2558 229.985 90.8473 230.165C91.2862 230.265 91.6296 230.515 91.8777 230.916C92.1448 231.296 92.307 231.796 92.3643 232.417V233.918C92.3643 234.118 92.3166 234.419 92.2212 234.819C92.1639 235.079 92.1162 235.279 92.078 235.419C92.6123 235.6 93.118 235.82 93.595 236.08C94.0911 236.32 94.4441 236.52 94.654 236.681C95.0165 236.941 95.3028 237.241 95.5127 237.581C95.7225 237.902 95.8275 238.242 95.8275 238.602C95.8275 238.963 95.7225 239.313 95.5127 239.653C95.3028 239.974 95.0165 240.264 94.654 240.524C94.425 240.684 94.072 240.894 93.595 241.155C93.2515 241.215 92.7745 241.365 92.1639 241.605H92.1925ZM86.9834 241.515C87.0788 241.515 87.2314 241.505 87.4413 241.485C87.7276 241.445 87.9374 241.425 88.071 241.425C88.3191 241.425 88.529 241.295 88.7007 241.034C89.2922 240.034 89.7024 239.253 89.9314 238.692C89.9887 238.612 90.0173 238.512 90.0173 238.392C90.0173 238.272 89.9887 238.192 89.9314 238.152C89.6452 237.571 89.1968 236.791 88.5862 235.81C88.5099 235.61 88.3668 235.51 88.1569 235.51C87.1456 235.51 86.3728 235.48 85.8385 235.419C85.3615 235.419 84.999 235.64 84.7509 236.08C84.5219 236.46 84.3407 236.771 84.2071 237.011L83.8064 237.792C83.6347 238.052 83.5297 238.242 83.4915 238.362C83.4725 238.462 83.4725 238.572 83.4915 238.692C83.5297 238.792 83.6347 238.983 83.8064 239.263L84.2071 240.014L84.5505 240.614C84.7414 240.934 84.8749 241.135 84.9512 241.215C85.0657 241.355 85.1993 241.435 85.352 241.455C85.4664 241.475 85.705 241.485 86.0675 241.485L86.9834 241.515ZM81.8029 240.764C82.1654 239.763 82.4325 239.043 82.6043 238.602V238.242L81.8029 236.08C80.7343 236.42 79.9043 236.821 79.3128 237.281C78.893 237.621 78.6831 237.992 78.6831 238.392C78.6831 238.772 78.893 239.123 79.3128 239.443C79.6181 239.783 80.0092 240.064 80.4863 240.284C80.7725 240.424 81.2113 240.584 81.8029 240.764ZM91.9063 235.99C91.6773 236.55 91.3816 237.331 91.019 238.332L90.9904 238.422C90.9713 238.482 90.9809 238.512 91.019 238.512C91.3816 239.513 91.6773 240.324 91.9063 240.944C92.1353 240.824 92.4883 240.634 92.9653 240.374C93.595 240.074 94.0434 239.833 94.3105 239.653C94.8067 239.313 95.0547 238.933 95.0547 238.512C95.0547 238.092 94.8162 237.722 94.3392 237.401C94.0148 237.101 93.4901 236.771 92.765 236.41C92.3643 236.23 92.078 236.09 91.9063 235.99ZM82.3467 235.029C83.3007 234.929 84.0449 234.809 84.5792 234.669C84.6173 234.669 84.6555 234.649 84.6937 234.609L84.7509 234.579C85.0944 234.078 85.5714 233.448 86.182 232.687C85.705 232.267 85.3424 231.956 85.0944 231.756C84.6746 231.416 84.2643 231.166 83.8636 231.006C83.3675 230.825 82.9668 230.835 82.6615 231.036C82.3562 231.216 82.1559 231.586 82.0605 232.147C82.0223 232.527 82.0318 232.967 82.0891 233.468C82.1272 233.768 82.2036 234.238 82.3181 234.879L82.3467 235.029ZM91.2766 235.029C91.2766 235.009 91.2862 234.959 91.3053 234.879C91.3434 234.779 91.3625 234.709 91.3625 234.669C91.4961 234.048 91.5629 233.568 91.5629 233.228C91.601 232.667 91.5342 232.177 91.3625 231.756C91.2862 231.436 91.1431 231.206 90.9332 231.066C90.7233 230.926 90.4848 230.875 90.2176 230.916C89.7406 230.996 89.2731 231.196 88.8152 231.516C88.529 231.696 88.1378 232.026 87.6417 232.507L87.4413 232.687C87.7466 233.127 88.195 233.728 88.7866 234.489L89.0442 234.759L91.2766 235.059V235.029ZM82.3467 241.785C82.3276 241.905 82.299 242.075 82.2608 242.296C82.1463 242.856 82.0795 243.266 82.0605 243.527C82.0223 243.987 82.0605 244.417 82.1749 244.818C82.2513 245.278 82.4325 245.598 82.7188 245.779C83.0241 245.959 83.4057 245.979 83.8636 245.839C84.2452 245.719 84.6364 245.518 85.0371 245.238C85.2661 245.058 85.6 244.768 86.0389 244.367L86.2678 244.157C85.9244 243.657 85.4474 243.026 84.8368 242.266C84.7223 242.145 84.6364 242.085 84.5792 242.085C83.8922 242.085 83.1481 241.985 82.3467 241.785ZM87.3555 244.157C87.6035 244.498 87.9661 244.848 88.4431 245.208C88.882 245.548 89.2922 245.789 89.6738 245.929C90.6279 246.229 91.1908 245.889 91.3625 244.908C91.4388 244.467 91.4579 243.987 91.4198 243.467C91.4007 243.146 91.3339 242.666 91.2194 242.025L91.1908 241.905L90.6183 241.965C89.8169 242.025 89.235 242.125 88.8724 242.266C88.7007 242.366 88.5385 242.506 88.3859 242.686C88.2904 242.806 88.1664 242.986 88.0138 243.226C87.8802 243.427 87.7753 243.587 87.6989 243.707C87.6417 243.807 87.5272 243.957 87.3555 244.157ZM87.8993 234.579C87.7657 234.419 87.5749 234.198 87.3268 233.918C87.0979 233.638 86.9261 233.418 86.8117 233.258L86.6686 233.468C86.306 233.948 86.0007 234.319 85.7527 234.579H87.8993ZM87.8993 242.266H85.8385C85.953 242.426 86.1247 242.646 86.3537 242.926C86.6018 243.206 86.783 243.427 86.8975 243.587C87.0311 243.367 87.2505 243.066 87.5558 242.686L87.8993 242.266ZM84.2071 241.335C84.1308 241.195 84.0163 240.984 83.8636 240.704C83.5392 240.144 83.3007 239.693 83.1481 239.353L82.6043 240.944C82.9286 241.084 83.4629 241.215 84.2071 241.335ZM90.4752 239.353L89.4162 241.335L91.019 241.034C90.9427 240.634 90.7615 240.074 90.4752 239.353ZM83.1481 237.491L84.2071 235.51L82.6043 235.78L82.7188 236.17C82.8523 236.751 82.9954 237.191 83.1481 237.491ZM89.4162 235.51C89.5307 235.77 89.7024 236.09 89.9314 236.47C90.1795 236.831 90.3607 237.141 90.4752 237.401C90.7233 236.641 90.9046 236.11 91.019 235.81C90.5611 235.79 90.0268 235.69 89.4162 235.51Z" fill="#519ABA"/>
</g>
<rect x="102.637" y="380.683" width="56.5541" height="8.36667" rx="4.18333" fill="#333333"/>
<g clip-path="url(#clip3_1071_91930)">
<ellipse cx="83.2599" cy="381.727" rx="5.23649" ry="5.22917" fill="#A06BC7"/>
<rect x="84.3082" y="381.726" width="12.5676" height="12.5529" fill="#A06BC7" stroke="#191919" stroke-width="2.09459"/>
</g>
<rect x="102.637" y="409.967" width="46.0811" height="8.36667" rx="4.18333" fill="#333333"/>
<g clip-path="url(#clip4_1071_91930)">
<ellipse cx="83.2599" cy="411.012" rx="5.23649" ry="5.22917" fill="#A06BC7"/>
<rect x="84.3082" y="411.011" width="12.5676" height="12.5529" fill="#A06BC7" stroke="#191919" stroke-width="2.09459"/>
</g>
<rect x="62.8359" y="29.2832" width="117.297" height="8.36667" rx="4.18333" fill="#333333"/>
<defs>
<clipPath id="clip0_1071_91930">
<rect width="18.8514" height="16.7333" fill="white" transform="translate(77.5 171.517)"/>
</clipPath>
<clipPath id="clip1_1071_91930">
<rect width="18.8514" height="16.7333" fill="white" transform="translate(77.5 200.8)"/>
</clipPath>
<clipPath id="clip2_1071_91930">
<rect width="18.8514" height="16.7333" fill="white" transform="translate(77.5 230.083)"/>
</clipPath>
<clipPath id="clip3_1071_91930">
<rect width="18.8514" height="16.7333" fill="white" transform="translate(77.5 376.499)"/>
</clipPath>
<clipPath id="clip4_1071_91930">
<rect width="18.8514" height="16.7333" fill="white" transform="translate(77.5 405.783)"/>
</clipPath>
</defs>
</svg>
