<svg width="540" height="437" viewBox="0 0 540 437" fill="none" xmlns="http://www.w3.org/2000/svg">
<rect width="540" height="437" rx="18.2338" fill="#121212"/>
<mask id="mask0_1071_91930" style="mask-type:alpha" maskUnits="userSpaceOnUse" x="0" y="0" width="540" height="437">
<rect width="540" height="437" rx="18.2338" fill="#121212"/>
</mask>
<g mask="url(#mask0_1071_91930)">
<rect x="208.886" y="101.967" width="118.581" height="5.4625" rx="2.73125" fill="#666666"/>
<rect x="208.886" y="136.562" width="38.3108" height="5.4625" rx="2.73125" fill="#D9D9A6"/>
<rect x="252.669" y="136.562" width="38.3108" height="5.4625" rx="2.73125" fill="#666666"/>
<rect x="296.452" y="136.562" width="184.257" height="5.4625" rx="2.73125" fill="#666666"/>
<rect x="208.883" y="171.16" width="29.1892" height="5.4625" rx="2.73125" fill="#666666"/>
<rect x="278.206" y="171.16" width="47.4324" height="5.4625" rx="2.73125" fill="#D9D9A6"/>
<rect x="331.111" y="171.16" width="83.9189" height="5.4625" rx="2.73125" fill="#C7826B"/>
<rect x="243.544" y="171.16" width="29.1892" height="5.4625" rx="2.73125" fill="#9BDEFF"/>
<rect x="208.883" y="187.547" width="29.1892" height="5.4625" rx="2.73125" fill="#666666"/>
<rect x="278.206" y="187.547" width="38.3108" height="5.4625" rx="2.73125" fill="#D9D9A6"/>
<rect x="321.989" y="187.547" width="175.135" height="5.4625" rx="2.73125" fill="#C7826B"/>
<rect x="243.544" y="187.547" width="29.1892" height="5.4625" rx="2.73125" fill="#9BDEFF"/>
<rect x="208.883" y="203.934" width="29.1892" height="5.4625" rx="2.73125" fill="#666666"/>
<rect x="278.206" y="203.934" width="47.4324" height="5.4625" rx="2.73125" fill="#D9D9A6"/>
<rect x="331.111" y="203.934" width="93.0405" height="5.4625" rx="2.73125" fill="#C7826B"/>
<rect x="243.544" y="203.934" width="29.1892" height="5.4625" rx="2.73125" fill="#9BDEFF"/>
<rect x="208.883" y="238.53" width="51.0811" height="5.4625" rx="2.73125" fill="#666666"/>
<rect x="265.438" y="238.53" width="38.3108" height="5.4625" rx="2.73125" fill="#D9D9A6"/>
<rect x="309.221" y="238.53" width="156.892" height="5.4625" rx="2.73125" fill="#666666"/>
<rect x="208.883" y="254.918" width="51.0811" height="5.4625" rx="2.73125" fill="#666666"/>
<rect x="265.438" y="254.918" width="29.1892" height="5.4625" rx="2.73125" fill="#D9D9A6"/>
<rect x="300.099" y="254.918" width="111.284" height="5.4625" rx="2.73125" fill="#666666"/>
<rect x="208.883" y="271.305" width="51.0811" height="5.4625" rx="2.73125" fill="#666666"/>
<rect x="265.438" y="271.305" width="38.3108" height="5.4625" rx="2.73125" fill="#D9D9A6"/>
<rect x="309.221" y="271.305" width="120.405" height="5.4625" rx="2.73125" fill="#666666"/>
<rect x="208.883" y="287.693" width="51.0811" height="5.4625" rx="2.73125" fill="#666666"/>
<rect x="265.438" y="287.693" width="29.1892" height="5.4625" rx="2.73125" fill="#D9D9A6"/>
<rect x="300.099" y="287.693" width="184.257" height="5.4625" rx="2.73125" fill="#666666"/>
<rect x="178.787" y="362.346" width="41.9595" height="5.4625" rx="2.73125" fill="#404040"/>
<rect x="228.044" y="362.346" width="41.9595" height="5.4625" rx="2.73125" fill="white"/>
<rect x="277.301" y="362.346" width="218.919" height="5.4625" rx="2.73125" fill="#999999"/>
<rect x="178.787" y="378.734" width="41.9595" height="5.4625" rx="2.73125" fill="#404040"/>
<rect x="228.044" y="378.734" width="32.8378" height="5.4625" rx="2.73125" fill="white"/>
<rect x="268.18" y="378.734" width="155.068" height="5.4625" rx="2.73125" fill="#999999"/>
<rect x="430.544" y="378.734" width="18.2432" height="5.4625" rx="2.73125" fill="#9BDEFF"/>
<rect x="178.787" y="395.121" width="41.9595" height="5.4625" rx="2.73125" fill="#404040"/>
<rect x="228.044" y="395.121" width="41.9595" height="5.4625" rx="2.73125" fill="white"/>
<rect x="384.934" y="395.121" width="18.2432" height="5.4625" rx="2.73125" fill="#9BDEFF"/>
<rect x="277.301" y="395.121" width="100.338" height="5.4625" rx="2.73125" fill="#999999"/>
<path d="M243.023 332.504V339.57H245.575C247.68 339.57 248.9 338.272 248.9 336.015C248.9 333.792 247.671 332.504 245.575 332.504H243.023ZM244.12 333.503H245.452C246.916 333.503 247.783 334.433 247.783 336.03C247.783 337.651 246.931 338.571 245.452 338.571H244.12V333.503ZM254.874 338.571H251.485V336.451H254.693V335.501H251.485V333.503H254.874V332.504H250.388V339.57H254.874V338.571ZM259.364 339.57C260.872 339.57 261.778 338.811 261.778 337.567C261.778 336.647 261.142 335.966 260.187 335.868V335.785C260.882 335.667 261.426 335.006 261.426 334.267C261.426 333.18 260.627 332.504 259.3 332.504H256.46V339.57H259.364ZM257.557 333.434H259.046C259.859 333.434 260.334 333.816 260.334 334.468C260.334 335.138 259.829 335.496 258.86 335.496H257.557V333.434ZM257.557 338.64V336.363H259.08C260.113 336.363 260.657 336.75 260.657 337.489C260.657 338.238 260.133 338.64 259.144 338.64H257.557ZM264.276 332.504H263.179V337.136C263.179 338.669 264.271 339.741 266.038 339.741C267.816 339.741 268.903 338.669 268.903 337.136V332.504H267.806V337.038C267.806 338.028 267.165 338.713 266.038 338.713C264.917 338.713 264.276 338.028 264.276 337.038V332.504ZM276.699 336.774V335.893H273.8V336.813H275.621V336.965C275.612 338.013 274.818 338.718 273.663 338.718C272.336 338.718 271.503 337.69 271.503 336.025C271.503 334.389 272.331 333.356 273.638 333.356C274.603 333.356 275.274 333.821 275.548 334.673H276.65C276.41 333.243 275.244 332.333 273.638 332.333C271.66 332.333 270.382 333.782 270.382 336.035C270.382 338.316 271.645 339.741 273.648 339.741C275.499 339.741 276.699 338.581 276.699 336.774ZM283.853 339.741C285.43 339.741 286.59 338.811 286.786 337.415H285.694C285.498 338.214 284.788 338.718 283.853 338.718C282.58 338.718 281.786 337.685 281.786 336.039C281.786 334.389 282.58 333.356 283.848 333.356C284.778 333.356 285.488 333.914 285.694 334.781H286.786C286.61 333.341 285.405 332.333 283.848 332.333C281.884 332.333 280.665 333.748 280.665 336.039C280.665 338.326 281.889 339.741 283.853 339.741ZM291.242 332.333C289.215 332.333 287.942 333.753 287.942 336.035C287.942 338.312 289.185 339.741 291.242 339.741C293.284 339.741 294.538 338.307 294.538 336.035C294.538 333.758 293.274 332.333 291.242 332.333ZM291.242 333.356C292.579 333.356 293.416 334.394 293.416 336.035C293.416 337.665 292.584 338.718 291.242 338.718C289.881 338.718 289.063 337.665 289.063 336.035C289.063 334.394 289.905 333.356 291.242 333.356ZM297.094 339.57V334.551H297.172L300.801 339.57H301.79V332.504H300.722V337.523H300.644L297.015 332.504H296.026V339.57H297.094ZM303.234 337.67C303.313 338.933 304.365 339.741 305.932 339.741C307.607 339.741 308.655 338.894 308.655 337.543C308.655 336.48 308.058 335.893 306.608 335.555L305.83 335.364C304.909 335.148 304.537 334.859 304.537 334.355C304.537 333.718 305.115 333.302 305.981 333.302C306.804 333.302 307.372 333.709 307.475 334.36H308.542C308.479 333.17 307.431 332.333 305.996 332.333C304.454 332.333 303.425 333.17 303.425 334.428C303.425 335.467 304.008 336.084 305.286 336.382L306.197 336.603C307.132 336.823 307.543 337.146 307.543 337.685C307.543 338.312 306.897 338.767 306.016 338.767C305.071 338.767 304.414 338.341 304.321 337.67H303.234ZM313.111 332.333C311.084 332.333 309.811 333.753 309.811 336.035C309.811 338.312 311.054 339.741 313.111 339.741C315.153 339.741 316.407 338.307 316.407 336.035C316.407 333.758 315.143 332.333 313.111 332.333ZM313.111 333.356C314.448 333.356 315.285 334.394 315.285 336.035C315.285 337.665 314.453 338.718 313.111 338.718C311.75 338.718 310.932 337.665 310.932 336.035C310.932 334.394 311.774 333.356 313.111 333.356ZM322.302 338.561H318.992V332.504H317.895V339.57H322.302V338.561ZM328.178 338.571H324.79V336.451H327.997V335.501H324.79V333.503H328.178V332.504H323.693V339.57H328.178V338.571Z" fill="#A0A0A0"/>
<path d="M182.895 339.57V333.503H185.113V332.504H179.575V333.503H181.798V339.57H182.895ZM190.945 338.571H187.556V336.451H190.764V335.501H187.556V333.503H190.945V332.504H186.459V339.57H190.945V338.571ZM193.628 333.469H195.176C196.023 333.469 196.542 333.934 196.542 334.703C196.542 335.491 196.052 335.942 195.205 335.942H193.628V333.469ZM193.628 336.877H195.176L196.615 339.57H197.884L196.297 336.696C197.159 336.402 197.668 335.628 197.668 334.678C197.668 333.351 196.752 332.504 195.327 332.504H192.531V339.57H193.628V336.877ZM206.38 339.57V332.504H205.097L202.844 337.91H202.761L200.513 332.504H199.23V339.57H200.249V334.468H200.317L202.389 339.404H203.221L205.292 334.468H205.361V339.57H206.38ZM209.249 339.57V332.504H208.152V339.57H209.249ZM212.089 339.57V334.551H212.168L215.796 339.57H216.785V332.504H215.718V337.523H215.639L212.011 332.504H211.022V339.57H212.089ZM223.136 339.57H224.302L221.751 332.504H220.57L218.019 339.57H219.145L219.797 337.695H222.49L223.136 339.57ZM221.104 333.787H221.187L222.211 336.774H220.076L221.104 333.787ZM229.943 338.561H226.633V332.504H225.536V339.57H229.943V338.561Z" fill="white"/>
<rect x="178.787" y="345.047" width="51.9932" height="0.910887" fill="#E7E7E7"/>
<path d="M361.42 329.677L360.406 330.637V342.637L361.42 343.651H373.42L374.38 342.637V330.637L373.42 329.677H361.42ZM361.42 342.637V330.637H373.42V342.637H361.42ZM365.153 339.971L365.846 340.717L369.366 337.197V336.611L365.846 333.091L365.153 333.784L368.246 336.931L365.153 339.971Z" fill="#999999"/>
<path d="M380.166 340.664H384.387V339.773H381.488V339.69L384.357 336.1V335.332H380.185V336.223H383.099V336.306L380.166 339.949V340.664ZM385.67 336.84C385.67 337.633 386.14 338.088 387.153 338.328L388.084 338.544C388.618 338.671 388.867 338.877 388.867 339.195C388.867 339.621 388.402 339.915 387.746 339.915C387.109 339.915 386.718 339.66 386.585 339.249H385.533C385.626 340.194 386.453 340.767 387.721 340.767C388.995 340.767 389.93 340.096 389.93 339.092C389.93 338.309 389.455 337.873 388.441 337.638L387.555 337.432C386.977 337.3 386.708 337.099 386.708 336.781C386.708 336.365 387.153 336.086 387.741 336.086C388.338 336.086 388.72 336.335 388.818 336.727H389.827C389.724 335.787 388.941 335.229 387.741 335.229C386.536 335.229 385.67 335.895 385.67 336.84ZM391.247 340.664H392.3V337.55C392.3 336.742 392.78 336.198 393.642 336.198C394.386 336.198 394.783 336.629 394.783 337.481V340.664H395.835V337.222C395.835 335.953 395.135 335.234 393.999 335.234C393.196 335.234 392.633 335.591 392.373 336.188H392.29V333.25H391.247V340.664Z" fill="#999999"/>
<path d="M417.203 335.651V336.664H411.176V342.637H410.163V336.664H404.19V335.651H410.163V329.677H411.176V335.651H417.203Z" fill="#999999"/>
<path d="M428.823 338.224L432.063 334.944L432.543 335.424L429.023 338.904H428.583L425.063 335.424L425.543 334.944L428.823 338.224Z" fill="#999999"/>
<path d="M454.603 329.677H443.563L442.603 330.637V341.677L443.563 342.637H454.603L455.563 341.677V330.637L454.603 329.677ZM448.577 341.677H443.563V330.637H448.577V341.677ZM454.603 341.677H449.59V330.637H454.603V341.677Z" fill="#999999"/>
<path d="M474.317 331.651H477.303V332.664H476.29V341.677L475.277 342.637H468.29L467.277 341.677V332.664H466.317V331.651H469.303V330.637C469.303 330.389 469.392 330.175 469.57 329.997C469.783 329.784 470.032 329.677 470.317 329.677H473.303C473.588 329.677 473.819 329.784 473.997 329.997C474.21 330.175 474.317 330.389 474.317 330.637V331.651ZM473.303 330.637H470.317V331.651H473.303V330.637ZM468.29 341.677H475.277V332.664H468.29V341.677ZM470.317 333.677H469.303V340.664H470.317V333.677ZM471.277 333.677H472.29V340.664H471.277V333.677ZM473.303 333.677H474.317V340.664H473.303V333.677Z" fill="#999999"/>
<path d="M496.007 334.584L491.687 338.957L491.047 338.317L495.74 333.677H496.327L501.02 338.317L500.38 338.957L496.007 334.584Z" fill="#999999"/>
<path d="M519.724 337.357L523.35 341.037L524.097 340.291L520.417 336.664L524.097 333.037L523.35 332.291L519.724 335.971L516.097 332.291L515.35 333.037L519.03 336.664L515.35 340.291L516.097 341.037L519.724 337.357Z" fill="#999999"/>
<rect x="167.838" y="318.645" width="372.162" height="0.910887" fill="#262626"/>
<path d="M187.316 43.8725H188.993V37.8468L186.985 38.8137V37.7774L188.983 36.8265H190.062V43.8725H191.718V44.7753H187.316V43.8725ZM187.866 59.8672H191.531V60.7753H186.686V59.8672C187.352 59.1656 187.934 58.546 188.432 58.0082C188.931 57.4704 189.275 57.0912 189.463 56.8704C189.82 56.4359 190.06 56.0851 190.185 55.818C190.309 55.5474 190.372 55.2714 190.372 54.99C190.372 54.5448 190.24 54.1958 189.976 53.943C189.716 53.6901 189.358 53.5637 188.903 53.5637C188.578 53.5637 188.238 53.6225 187.882 53.74C187.526 53.8575 187.149 54.0356 186.75 54.2742V53.1844C187.117 53.0099 187.476 52.8782 187.829 52.7891C188.185 52.7001 188.536 52.6556 188.881 52.6556C189.661 52.6556 190.288 52.8639 190.761 53.2806C191.239 53.6937 191.477 54.2368 191.477 54.9099C191.477 55.2518 191.397 55.5936 191.237 55.9355C191.08 56.2774 190.824 56.6549 190.468 57.068C190.268 57.2995 189.978 57.62 189.597 58.0296C189.219 58.4391 188.643 59.0517 187.866 59.8672ZM190.019 72.5071C190.542 72.646 190.943 72.8935 191.221 73.2496C191.499 73.6022 191.638 74.0438 191.638 74.5745C191.638 75.3081 191.39 75.885 190.895 76.3052C190.404 76.7219 189.722 76.9302 188.849 76.9302C188.482 76.9302 188.108 76.8964 187.727 76.8287C187.346 76.7611 186.972 76.6631 186.605 76.5349V75.4612C186.969 75.65 187.327 75.7906 187.679 75.8832C188.032 75.9758 188.383 76.0221 188.732 76.0221C189.323 76.0221 189.777 75.8886 190.094 75.6215C190.411 75.3544 190.569 74.9698 190.569 74.4676C190.569 74.0046 190.411 73.6378 190.094 73.3672C189.777 73.093 189.348 72.9558 188.806 72.9558H187.984V72.0691H188.806C189.301 72.0691 189.688 71.9605 189.966 71.7432C190.243 71.526 190.382 71.2233 190.382 70.8351C190.382 70.4255 190.252 70.1121 189.992 69.8949C189.736 69.6741 189.369 69.5637 188.892 69.5637C188.575 69.5637 188.247 69.5993 187.909 69.6705C187.571 69.7418 187.216 69.8486 186.846 69.9911V68.9975C187.277 68.8835 187.66 68.798 187.994 68.7411C188.333 68.6841 188.632 68.6556 188.892 68.6556C189.668 68.6556 190.288 68.8515 190.751 69.2432C191.217 69.6314 191.451 70.1478 191.451 70.7924C191.451 71.2304 191.328 71.5954 191.082 71.8875C190.84 72.1795 190.485 72.386 190.019 72.5071ZM189.8 85.7827L187.284 89.9975H189.8V85.7827ZM189.624 84.7998H190.874V89.9975H191.937V90.8736H190.874V92.7753H189.8V90.8736H186.418V89.8533L189.624 84.7998ZM186.979 100.8H191.018V101.708H187.962V103.668C188.115 103.611 188.269 103.57 188.422 103.546C188.578 103.517 188.735 103.503 188.892 103.503C189.718 103.503 190.373 103.747 190.858 104.235C191.342 104.723 191.584 105.383 191.584 106.217C191.584 107.057 191.33 107.719 190.82 108.204C190.315 108.688 189.622 108.93 188.742 108.93C188.318 108.93 187.93 108.902 187.578 108.845C187.229 108.788 186.915 108.702 186.638 108.588V107.493C186.965 107.671 187.295 107.805 187.626 107.894C187.957 107.979 188.295 108.022 188.641 108.022C189.235 108.022 189.693 107.865 190.014 107.552C190.338 107.239 190.5 106.793 190.5 106.217C190.5 105.647 190.332 105.203 189.998 104.886C189.666 104.569 189.203 104.411 188.609 104.411C188.32 104.411 188.039 104.445 187.765 104.512C187.49 104.577 187.229 104.675 186.979 104.806V100.8ZM191.167 116.976V117.97C190.943 117.838 190.705 117.738 190.452 117.671C190.199 117.599 189.935 117.564 189.661 117.564C188.977 117.564 188.459 117.822 188.107 118.338C187.754 118.851 187.578 119.608 187.578 120.609C187.749 120.252 187.985 119.98 188.288 119.791C188.591 119.599 188.938 119.503 189.33 119.503C190.099 119.503 190.694 119.74 191.114 120.213C191.538 120.683 191.75 121.351 191.75 122.217C191.75 123.078 191.533 123.746 191.098 124.22C190.664 124.693 190.053 124.93 189.266 124.93C188.34 124.93 187.661 124.599 187.23 123.937C186.8 123.271 186.584 122.224 186.584 120.796C186.584 119.449 186.842 118.424 187.359 117.719C187.879 117.01 188.63 116.656 189.613 116.656C189.877 116.656 190.14 116.684 190.404 116.741C190.667 116.794 190.922 116.873 191.167 116.976ZM189.244 120.347C188.785 120.347 188.424 120.512 188.16 120.844C187.896 121.175 187.765 121.632 187.765 122.217C187.765 122.801 187.896 123.258 188.16 123.589C188.424 123.921 188.785 124.086 189.244 124.086C189.722 124.086 190.081 123.93 190.323 123.616C190.566 123.299 190.687 122.833 190.687 122.217C190.687 121.597 190.566 121.13 190.323 120.817C190.081 120.504 189.722 120.347 189.244 120.347ZM186.616 132.8H191.638V133.259L188.785 140.775H187.658L190.436 133.708H186.616V132.8ZM189.164 152.988C188.683 152.988 188.311 153.123 188.048 153.394C187.788 153.661 187.658 154.04 187.658 154.532C187.658 155.023 187.79 155.406 188.053 155.68C188.32 155.951 188.691 156.086 189.164 156.086C189.649 156.086 190.021 155.953 190.281 155.686C190.544 155.415 190.676 155.03 190.676 154.532C190.676 154.044 190.542 153.665 190.275 153.394C190.012 153.123 189.641 152.988 189.164 152.988ZM188.224 152.539C187.765 152.422 187.405 152.203 187.145 151.882C186.889 151.562 186.76 151.175 186.76 150.723C186.76 150.089 186.976 149.587 187.407 149.216C187.838 148.843 188.424 148.656 189.164 148.656C189.909 148.656 190.496 148.843 190.927 149.216C191.358 149.587 191.573 150.089 191.573 150.723C191.573 151.175 191.443 151.562 191.184 151.882C190.927 152.203 190.569 152.422 190.11 152.539C190.644 152.657 191.052 152.894 191.333 153.25C191.618 153.606 191.76 154.067 191.76 154.633C191.76 155.353 191.531 155.915 191.071 156.321C190.612 156.727 189.976 156.93 189.164 156.93C188.352 156.93 187.717 156.729 187.257 156.327C186.801 155.921 186.573 155.36 186.573 154.644C186.573 154.074 186.714 153.611 186.995 153.255C187.28 152.895 187.69 152.657 188.224 152.539ZM187.834 150.824C187.834 151.252 187.948 151.578 188.176 151.802C188.404 152.026 188.733 152.139 189.164 152.139C189.599 152.139 189.93 152.026 190.158 151.802C190.386 151.578 190.5 151.252 190.5 150.824C190.5 150.39 190.386 150.059 190.158 149.831C189.933 149.603 189.602 149.489 189.164 149.489C188.733 149.489 188.404 149.605 188.176 149.836C187.948 150.064 187.834 150.393 187.834 150.824ZM189.057 169.239C189.517 169.239 189.877 169.073 190.136 168.742C190.4 168.411 190.532 167.953 190.532 167.369C190.532 166.785 190.4 166.328 190.136 165.996C189.877 165.665 189.517 165.5 189.057 165.5C188.58 165.5 188.221 165.658 187.978 165.975C187.736 166.288 187.615 166.753 187.615 167.369C187.615 167.989 187.734 168.455 187.973 168.769C188.215 169.082 188.577 169.239 189.057 169.239ZM187.134 172.61V171.616C187.359 171.748 187.597 171.849 187.85 171.921C188.103 171.988 188.367 172.022 188.641 172.022C189.325 172.022 189.841 171.766 190.19 171.253C190.542 170.736 190.719 169.978 190.719 168.977C190.551 169.333 190.316 169.608 190.014 169.8C189.711 169.989 189.364 170.083 188.972 170.083C188.203 170.083 187.606 169.846 187.182 169.373C186.762 168.899 186.552 168.228 186.552 167.359C186.552 166.5 186.768 165.836 187.198 165.366C187.633 164.892 188.245 164.656 189.036 164.656C189.962 164.656 190.64 164.989 191.071 165.655C191.502 166.32 191.718 167.368 191.718 168.796C191.718 170.138 191.458 171.164 190.938 171.873C190.421 172.578 189.67 172.93 188.683 172.93C188.424 172.93 188.162 172.902 187.898 172.845C187.635 172.791 187.38 172.713 187.134 172.61ZM180.724 187.873H182.401V181.847L180.393 182.814V181.777L182.391 180.827H183.47V187.873H185.126V188.775H180.724V187.873ZM189.164 180.682C190.015 180.682 190.658 181.03 191.093 181.724C191.531 182.418 191.75 183.446 191.75 184.806C191.75 186.167 191.531 187.194 191.093 187.889C190.658 188.583 190.015 188.93 189.164 188.93C188.313 188.93 187.67 188.583 187.236 187.889C186.801 187.194 186.584 186.167 186.584 184.806C186.584 183.446 186.801 182.418 187.236 181.724C187.67 181.03 188.313 180.682 189.164 180.682ZM189.164 188.076C189.67 188.076 190.046 187.807 190.291 187.269C190.541 186.731 190.665 185.91 190.665 184.806C190.665 184.219 190.63 183.688 190.559 183.214L188.016 187.194C188.283 187.782 188.666 188.076 189.164 188.076ZM189.164 181.537C188.662 181.537 188.286 181.806 188.037 182.344C187.791 182.881 187.669 183.702 187.669 184.806C187.669 185.308 187.702 185.779 187.77 186.217L190.259 182.247C189.989 181.774 189.624 181.537 189.164 181.537ZM180.724 203.873H182.401V197.847L180.393 198.814V197.777L182.391 196.827H183.47V203.873H185.126V204.775H180.724V203.873ZM187.316 203.873H188.993V197.847L186.985 198.814V197.777L188.983 196.827H190.062V203.873H191.718V204.775H187.316V203.873ZM180.724 219.873H182.401V213.847L180.393 214.814V213.777L182.391 212.827H183.47V219.873H185.126V220.775H180.724V219.873ZM187.866 219.867H191.531V220.775H186.686V219.867C187.352 219.166 187.934 218.546 188.432 218.008C188.931 217.47 189.275 217.091 189.463 216.87C189.82 216.436 190.06 216.085 190.185 215.818C190.309 215.547 190.372 215.271 190.372 214.99C190.372 214.545 190.24 214.196 189.976 213.943C189.716 213.69 189.358 213.564 188.903 213.564C188.578 213.564 188.238 213.622 187.882 213.74C187.526 213.858 187.149 214.036 186.75 214.274V213.184C187.117 213.01 187.476 212.878 187.829 212.789C188.185 212.7 188.536 212.656 188.881 212.656C189.661 212.656 190.288 212.864 190.761 213.281C191.239 213.694 191.477 214.237 191.477 214.91C191.477 215.252 191.397 215.594 191.237 215.936C191.08 216.277 190.824 216.655 190.468 217.068C190.268 217.3 189.978 217.62 189.597 218.03C189.219 218.439 188.643 219.052 187.866 219.867ZM180.724 235.873H182.401V229.847L180.393 230.814V229.777L182.391 228.827H183.47V235.873H185.126V236.775H180.724V235.873ZM190.019 232.507C190.542 232.646 190.943 232.894 191.221 233.25C191.499 233.602 191.638 234.044 191.638 234.574C191.638 235.308 191.39 235.885 190.895 236.305C190.404 236.722 189.722 236.93 188.849 236.93C188.482 236.93 188.108 236.896 187.727 236.829C187.346 236.761 186.972 236.663 186.605 236.535V235.461C186.969 235.65 187.327 235.791 187.679 235.883C188.032 235.976 188.383 236.022 188.732 236.022C189.323 236.022 189.777 235.889 190.094 235.621C190.411 235.354 190.569 234.97 190.569 234.468C190.569 234.005 190.411 233.638 190.094 233.367C189.777 233.093 189.348 232.956 188.806 232.956H187.984V232.069H188.806C189.301 232.069 189.688 231.96 189.966 231.743C190.243 231.526 190.382 231.223 190.382 230.835C190.382 230.426 190.252 230.112 189.992 229.895C189.736 229.674 189.369 229.564 188.892 229.564C188.575 229.564 188.247 229.599 187.909 229.671C187.571 229.742 187.216 229.849 186.846 229.991V228.997C187.277 228.884 187.66 228.798 187.994 228.741C188.333 228.684 188.632 228.656 188.892 228.656C189.668 228.656 190.288 228.851 190.751 229.243C191.217 229.631 191.451 230.148 191.451 230.792C191.451 231.23 191.328 231.595 191.082 231.887C190.84 232.179 190.485 232.386 190.019 232.507ZM180.724 251.873H182.401V245.847L180.393 246.814V245.777L182.391 244.827H183.47V251.873H185.126V252.775H180.724V251.873ZM189.8 245.783L187.284 249.998H189.8V245.783ZM189.624 244.8H190.874V249.998H191.937V250.874H190.874V252.775H189.8V250.874H186.418V249.853L189.624 244.8ZM180.724 267.873H182.401V261.847L180.393 262.814V261.777L182.391 260.827H183.47V267.873H185.126V268.775H180.724V267.873ZM186.979 260.8H191.018V261.708H187.962V263.668C188.115 263.611 188.269 263.57 188.422 263.546C188.578 263.517 188.735 263.503 188.892 263.503C189.718 263.503 190.373 263.747 190.858 264.235C191.342 264.723 191.584 265.383 191.584 266.217C191.584 267.057 191.33 267.719 190.82 268.204C190.315 268.688 189.622 268.93 188.742 268.93C188.318 268.93 187.93 268.902 187.578 268.845C187.229 268.788 186.915 268.702 186.638 268.588V267.493C186.965 267.671 187.295 267.805 187.626 267.894C187.957 267.979 188.295 268.022 188.641 268.022C189.235 268.022 189.693 267.865 190.014 267.552C190.338 267.239 190.5 266.793 190.5 266.217C190.5 265.647 190.332 265.203 189.998 264.886C189.666 264.569 189.203 264.411 188.609 264.411C188.32 264.411 188.039 264.445 187.765 264.512C187.49 264.577 187.229 264.675 186.979 264.806V260.8ZM180.724 283.873H182.401V277.847L180.393 278.814V277.777L182.391 276.827H183.47V283.873H185.126V284.775H180.724V283.873ZM191.167 276.976V277.97C190.943 277.838 190.705 277.738 190.452 277.671C190.199 277.599 189.935 277.564 189.661 277.564C188.977 277.564 188.459 277.822 188.107 278.338C187.754 278.851 187.578 279.608 187.578 280.609C187.749 280.252 187.985 279.98 188.288 279.791C188.591 279.599 188.938 279.503 189.33 279.503C190.099 279.503 190.694 279.74 191.114 280.213C191.538 280.683 191.75 281.351 191.75 282.217C191.75 283.078 191.533 283.746 191.098 284.22C190.664 284.693 190.053 284.93 189.266 284.93C188.34 284.93 187.661 284.599 187.23 283.937C186.8 283.271 186.584 282.224 186.584 280.796C186.584 279.449 186.842 278.424 187.359 277.719C187.879 277.01 188.63 276.656 189.613 276.656C189.877 276.656 190.14 276.684 190.404 276.741C190.667 276.794 190.922 276.873 191.167 276.976ZM189.244 280.347C188.785 280.347 188.424 280.512 188.16 280.844C187.896 281.175 187.765 281.632 187.765 282.217C187.765 282.801 187.896 283.258 188.16 283.589C188.424 283.921 188.785 284.086 189.244 284.086C189.722 284.086 190.081 283.93 190.323 283.616C190.566 283.299 190.687 282.833 190.687 282.217C190.687 281.597 190.566 281.13 190.323 280.817C190.081 280.504 189.722 280.347 189.244 280.347ZM180.724 299.873H182.401V293.847L180.393 294.814V293.777L182.391 292.827H183.47V299.873H185.126V300.775H180.724V299.873ZM186.616 292.8H191.638V293.259L188.785 300.775H187.658L190.436 293.708H186.616V292.8Z" fill="#666666"/>
<path d="M209.988 36.799H211.003L206.804 45.7895H205.784L209.988 36.799ZM218.129 40.1217L215.757 41.4038L218.129 42.6912L217.755 43.3429L215.522 42.0021V44.4914H214.758V42.0021L212.525 43.3429L212.151 42.6912L214.528 41.4038L212.151 40.1217L212.525 39.4646L214.758 40.8055V38.3161H215.522V40.8055L217.755 39.4646L218.129 40.1217ZM225.56 40.907H231.222V41.8098H225.56V40.907ZM232.151 40.907H237.814V41.8098H232.151V40.907ZM238.743 40.907H244.406V41.8098H238.743V40.907ZM245.335 40.907H250.998V41.8098H245.335V40.907ZM251.927 40.907H257.59V41.8098H251.927V40.907ZM258.519 40.907H264.182V41.8098H258.519V40.907ZM265.111 40.907H270.774V41.8098H265.111V40.907ZM271.703 40.907H277.366V41.8098H271.703V40.907ZM278.295 40.907H283.958V41.8098H278.295V40.907ZM284.887 40.907H290.55V41.8098H284.887V40.907ZM291.479 40.907H297.142V41.8098H291.479V40.907ZM298.071 40.907H303.733V41.8098H298.071V40.907ZM304.663 40.907H310.325V41.8098H304.663V40.907ZM311.255 40.907H316.917V41.8098H311.255V40.907ZM317.847 40.907H323.509V41.8098H317.847V40.907ZM324.439 40.907H330.101V41.8098H324.439V40.907ZM331.031 40.907H336.693V41.8098H331.031V40.907ZM337.623 40.907H343.285V41.8098H337.623V40.907ZM344.215 40.907H349.877V41.8098H344.215V40.907ZM350.807 40.907H356.469V41.8098H350.807V40.907ZM357.399 40.907H363.061V41.8098H357.399V40.907ZM363.991 40.907H369.653V41.8098H363.991V40.907ZM370.583 40.907H376.245V41.8098H370.583V40.907ZM377.174 40.907H382.837V41.8098H377.174V40.907ZM383.766 40.907H389.429V41.8098H383.766V40.907ZM390.358 40.907H396.021V41.8098H390.358V40.907ZM396.95 40.907H402.613V41.8098H396.95V40.907ZM403.542 40.907H409.205V41.8098H403.542V40.907ZM410.134 40.907H415.797V41.8098H410.134V40.907ZM416.726 40.907H422.389V41.8098H416.726V40.907ZM423.318 40.907H428.981V41.8098H423.318V40.907ZM429.91 40.907H435.573V41.8098H429.91V40.907ZM436.502 40.907H442.165V41.8098H436.502V40.907ZM443.094 40.907H448.756V41.8098H443.094V40.907ZM449.686 40.907H455.348V41.8098H449.686V40.907ZM456.278 40.907H461.94V41.8098H456.278V40.907ZM462.87 40.907H468.532V41.8098H462.87V40.907ZM469.462 40.907H475.124V41.8098H469.462V40.907ZM476.054 40.907H481.716V41.8098H476.054V40.907ZM482.646 40.907H488.308V41.8098H482.646V40.907ZM489.238 40.907H494.9V41.8098H489.238V40.907ZM495.83 40.907H501.492V41.8098H495.83V40.907ZM502.422 40.907H508.084V41.8098H502.422V40.907ZM509.014 40.907H514.676V41.8098H509.014V40.907ZM515.605 40.907H521.268V41.8098H515.605V40.907ZM218.129 56.1217L215.757 57.4038L218.129 58.6912L217.755 59.3429L215.522 58.0021V60.4914H214.758V58.0021L212.525 59.3429L212.151 58.6912L214.528 57.4038L212.151 56.1217L212.525 55.4646L214.758 56.8055V54.3161H215.522V56.8055L217.755 55.4646L218.129 56.1217ZM209.988 68.799H211.003L206.804 77.7895H205.784L209.988 68.799ZM218.129 72.1217L215.757 73.4038L218.129 74.6912L217.755 75.3429L215.522 74.0021V76.4914H214.758V74.0021L212.525 75.3429L212.151 74.6912L214.528 73.4038L212.151 72.1217L212.525 71.4646L214.758 72.8055V70.3161H215.522V72.8055L217.755 71.4646L218.129 72.1217ZM225.56 72.907H231.222V73.8098H225.56V72.907ZM232.151 72.907H237.814V73.8098H232.151V72.907ZM238.743 72.907H244.406V73.8098H238.743V72.907ZM245.335 72.907H250.998V73.8098H245.335V72.907ZM251.927 72.907H257.59V73.8098H251.927V72.907ZM258.519 72.907H264.182V73.8098H258.519V72.907ZM265.111 72.907H270.774V73.8098H265.111V72.907ZM271.703 72.907H277.366V73.8098H271.703V72.907ZM278.295 72.907H283.958V73.8098H278.295V72.907ZM284.887 72.907H290.55V73.8098H284.887V72.907ZM291.479 72.907H297.142V73.8098H291.479V72.907ZM298.071 72.907H303.733V73.8098H298.071V72.907ZM304.663 72.907H310.325V73.8098H304.663V72.907ZM311.255 72.907H316.917V73.8098H311.255V72.907ZM317.847 72.907H323.509V73.8098H317.847V72.907ZM324.439 72.907H330.101V73.8098H324.439V72.907ZM331.031 72.907H336.693V73.8098H331.031V72.907ZM337.623 72.907H343.285V73.8098H337.623V72.907ZM344.215 72.907H349.877V73.8098H344.215V72.907ZM350.807 72.907H356.469V73.8098H350.807V72.907ZM357.399 72.907H363.061V73.8098H357.399V72.907ZM363.991 72.907H369.653V73.8098H363.991V72.907ZM370.583 72.907H376.245V73.8098H370.583V72.907ZM377.174 72.907H382.837V73.8098H377.174V72.907ZM383.766 72.907H389.429V73.8098H383.766V72.907ZM390.358 72.907H396.021V73.8098H390.358V72.907ZM396.95 72.907H402.613V73.8098H396.95V72.907ZM403.542 72.907H409.205V73.8098H403.542V72.907ZM410.134 72.907H415.797V73.8098H410.134V72.907ZM416.726 72.907H422.389V73.8098H416.726V72.907ZM423.318 72.907H428.981V73.8098H423.318V72.907ZM429.91 72.907H435.573V73.8098H429.91V72.907ZM436.502 72.907H442.165V73.8098H436.502V72.907ZM443.094 72.907H448.756V73.8098H443.094V72.907ZM449.686 72.907H455.348V73.8098H449.686V72.907ZM456.278 72.907H461.94V73.8098H456.278V72.907ZM462.87 72.907H468.532V73.8098H462.87V72.907ZM469.462 72.907H475.124V73.8098H469.462V72.907ZM476.054 72.907H481.716V73.8098H476.054V72.907ZM482.646 72.907H488.308V73.8098H482.646V72.907ZM489.238 72.907H494.9V73.8098H489.238V72.907ZM495.83 72.907H501.492V73.8098H495.83V72.907ZM502.422 72.907H508.084V73.8098H502.422V72.907ZM509.014 72.907H514.676V73.8098H509.014V72.907ZM515.605 72.907H521.268V73.8098H515.605V72.907Z" fill="#404040"/>
<rect x="224.393" y="54.6243" width="116.757" height="5.4625" rx="2.73125" fill="#404040"/>
<rect x="350.272" y="54.6243" width="54.7297" height="5.4625" rx="2.73125" fill="#404040"/>
<rect x="414.121" y="54.6243" width="91.2162" height="5.4625" rx="2.73125" fill="#404040"/>
<rect width="43.7838" height="416.971" fill="#262626"/>
<path d="M36.0113 344.32C36.0113 342.16 35.4673 340.144 34.3793 338.272C33.3073 336.464 31.8673 335.032 30.0593 333.976C28.2033 332.888 26.1873 332.344 24.0113 332.344C21.8353 332.344 19.8193 332.888 17.9633 333.976C16.1553 335.032 14.7153 336.464 13.6433 338.272C12.5553 340.144 12.0113 342.16 12.0113 344.32C12.0113 346.112 12.3953 347.816 13.1633 349.432C13.8993 351 14.9313 352.344 16.2593 353.464L16.2833 353.488C16.2993 353.504 16.3073 353.512 16.3073 353.512C16.5953 353.736 16.8193 353.904 16.9793 354.016C17.0273 354.048 17.1073 354.104 17.2193 354.184L17.3153 354.28C18.3073 354.952 19.3713 355.464 20.5073 355.816C21.6593 356.168 22.8353 356.344 24.0353 356.344C25.2353 356.344 26.4033 356.168 27.5393 355.816C28.6913 355.464 29.7633 354.952 30.7553 354.28L31.7873 353.512C31.8033 353.512 31.8113 353.504 31.8113 353.488C33.1073 352.352 34.1233 351 34.8593 349.432C35.6273 347.816 36.0113 346.112 36.0113 344.32ZM24.0113 354.832C22.9073 354.832 21.8353 354.664 20.7953 354.328C19.8033 353.992 18.8673 353.52 17.9873 352.912C18.0033 352.784 18.0433 352.6 18.1073 352.36V352.336C18.2513 351.824 18.4593 351.336 18.7313 350.872C19.0033 350.392 19.3233 349.976 19.6913 349.624C20.0593 349.272 20.4593 348.96 20.8913 348.688C21.3393 348.416 21.8273 348.208 22.3553 348.064C22.8993 347.92 23.4513 347.848 24.0113 347.848C24.8273 347.848 25.6113 348 26.3633 348.304C27.1313 348.608 27.8113 349.04 28.4033 349.6C28.9473 350.16 29.3793 350.808 29.6993 351.544C29.8593 351.976 29.9793 352.432 30.0593 352.912C29.1793 353.536 28.2193 354.016 27.1793 354.352C26.1553 354.672 25.0993 354.832 24.0113 354.832ZM20.3393 343.744C20.1313 343.248 20.0273 342.728 20.0273 342.184C20.0273 341.64 20.1313 341.128 20.3393 340.648C20.5633 340.168 20.8513 339.752 21.2033 339.4C21.5553 339.048 21.9793 338.76 22.4753 338.536C22.9393 338.328 23.4513 338.224 24.0113 338.224C24.5713 338.224 25.0913 338.336 25.5713 338.56C26.0513 338.768 26.4673 339.048 26.8193 339.4C27.1713 339.752 27.4513 340.168 27.6593 340.648C27.8833 341.128 27.9953 341.648 27.9953 342.208C27.9953 342.768 27.8913 343.28 27.6833 343.744C27.4753 344.208 27.1873 344.624 26.8193 344.992C26.4513 345.36 26.0193 345.648 25.5233 345.856C25.0433 346.064 24.5313 346.168 23.9873 346.168C23.4593 346.168 22.9473 346.064 22.4513 345.856C21.9713 345.648 21.5473 345.368 21.1793 345.016C20.8113 344.648 20.5313 344.224 20.3393 343.744ZM31.4753 351.688C31.4753 351.672 31.4753 351.656 31.4753 351.64L31.4513 351.568C31.2113 350.816 30.8673 350.112 30.4193 349.456C29.9713 348.8 29.4273 348.232 28.7873 347.752C28.3073 347.4 27.7873 347.096 27.2273 346.84C27.4833 346.68 27.7153 346.488 27.9233 346.264C28.2753 345.912 28.5873 345.52 28.8593 345.088C29.4033 344.208 29.6673 343.248 29.6513 342.208C29.6513 341.44 29.5073 340.712 29.2193 340.024C28.9313 339.32 28.5233 338.712 27.9953 338.2C27.4673 337.688 26.8593 337.288 26.1713 337C25.4833 336.696 24.7553 336.544 23.9873 336.544C23.2193 336.544 22.4833 336.696 21.7793 337C21.0913 337.288 20.4913 337.696 19.9793 338.224C19.4673 338.736 19.0673 339.344 18.7793 340.048C18.4913 340.736 18.3473 341.464 18.3473 342.232C18.3473 342.76 18.4193 343.256 18.5633 343.72C18.7073 344.248 18.9073 344.712 19.1633 345.112C19.3553 345.48 19.6673 345.872 20.0993 346.288C20.3073 346.512 20.5473 346.704 20.8193 346.864C20.2593 347.12 19.7393 347.432 19.2593 347.8C18.6353 348.28 18.0913 348.848 17.6273 349.504C17.1793 350.144 16.8353 350.84 16.5953 351.592C16.5793 351.624 16.5713 351.664 16.5713 351.712C15.5953 350.736 14.8433 349.624 14.3153 348.376C13.7713 347.096 13.4993 345.752 13.4993 344.344C13.4993 342.44 13.9793 340.672 14.9393 339.04C15.8673 337.456 17.1233 336.2 18.7073 335.272C20.3393 334.312 22.1073 333.832 24.0113 333.832C25.9153 333.832 27.6833 334.312 29.3153 335.272C30.8993 336.2 32.1553 337.456 33.0833 339.04C34.0433 340.672 34.5233 342.432 34.5233 344.32C34.5233 345.712 34.2593 347.048 33.7313 348.328C33.2033 349.592 32.4513 350.712 31.4753 351.688Z" fill="#666666"/>
<path d="M31.8593 384.865L36.0113 385.681V390.529L31.8593 391.345L34.2113 394.873L30.7793 398.305L27.2513 395.953L26.4353 400.105H21.5873L20.7713 395.953L17.2433 398.305L13.8113 394.873L16.1633 391.345L12.0113 390.529V385.681L16.1633 384.865L13.8113 381.337L17.2433 377.905L20.7713 380.257L21.5873 376.105H26.4353L27.2513 380.257L30.7793 377.905L34.2113 381.337L31.8593 384.865ZM30.2993 389.929L34.2833 389.113V387.121L30.2993 386.305L29.7473 385.009L32.0513 381.577L30.6113 380.137L27.1793 382.441L25.8833 381.889L25.0673 377.905H23.0753L22.2593 381.889L20.9633 382.441L17.5313 380.137L16.0913 381.577L18.3953 385.009L17.8433 386.305L13.8593 387.121V389.113L17.8433 389.929L18.3953 391.225L16.0913 394.657L17.5313 396.097L20.9633 393.793L22.2593 394.345L23.0753 398.329H25.0673L25.8833 394.345L27.1793 393.793L30.6113 396.097L32.0513 394.657L29.7473 391.225L30.2993 389.929ZM22.1153 385.249C22.6913 384.865 23.3233 384.673 24.0113 384.673C24.6353 384.673 25.2033 384.833 25.7153 385.153C26.2433 385.457 26.6593 385.873 26.9633 386.401C27.2833 386.913 27.4433 387.481 27.4433 388.105C27.4433 388.921 27.1793 389.649 26.6513 390.289C26.1393 390.913 25.4833 391.305 24.6833 391.465C23.8833 391.625 23.1233 391.513 22.4033 391.129C21.6833 390.745 21.1633 390.177 20.8433 389.425C20.5233 388.657 20.4833 387.889 20.7233 387.121C20.9633 386.337 21.4273 385.713 22.1153 385.249ZM23.0513 389.521C23.3393 389.713 23.6593 389.809 24.0113 389.809C24.4913 389.809 24.8913 389.649 25.2113 389.329C25.5473 388.993 25.7153 388.585 25.7153 388.105C25.7153 387.705 25.5873 387.345 25.3313 387.025C25.0753 386.705 24.7473 386.505 24.3473 386.425C23.9473 386.345 23.5633 386.401 23.1953 386.593C22.8433 386.785 22.5873 387.073 22.4273 387.457C22.2673 387.825 22.2433 388.209 22.3553 388.609C22.4833 388.993 22.7153 389.297 23.0513 389.521Z" fill="#666666"/>
<path d="M36.2548 18.9642H27.2148L25.7748 20.4842V24.9642H21.2148L19.7748 26.4842V41.5242L21.2148 42.9642H33.2948L34.7348 41.5242V36.9642H39.4548L40.7348 35.5242V23.4442L36.2548 18.9642ZM36.2548 21.0442L38.6548 23.4442H36.2548V21.0442ZM33.2148 41.4442H21.2148V26.4842H25.7748V35.5242L27.2148 36.9642H33.2148V41.4442ZM39.2148 35.4442H27.2148V20.4842H34.7348V24.9642H39.2148V35.4442Z" fill="white"/>
<path d="M33.3386 62.6644C31.7226 62.6644 30.2266 63.1044 28.8506 63.9844C27.4906 64.8644 26.4746 66.0484 25.8026 67.5364C25.1466 69.0084 24.9386 70.5524 25.1786 72.1684C25.4346 73.7684 26.0986 75.1764 27.1706 76.3924L19.1066 85.5364L20.2106 86.5444L28.2746 77.4244C29.2026 78.1604 30.2346 78.6644 31.3706 78.9364C32.5226 79.2084 33.6746 79.2404 34.8266 79.0324C35.9946 78.8244 37.0666 78.3844 38.0426 77.7124C39.0186 77.0404 39.8106 76.2004 40.4186 75.1924C41.0266 74.1844 41.4026 73.0964 41.5466 71.9284C41.6906 70.7604 41.5866 69.6084 41.2346 68.4724C40.8826 67.3364 40.3146 66.3284 39.5306 65.4484C38.7466 64.5684 37.8186 63.8884 36.7466 63.4084C35.6746 62.9124 34.5386 62.6644 33.3386 62.6644ZM33.3386 77.6644C32.1226 77.6644 30.9866 77.3604 29.9306 76.7524C28.9226 76.1444 28.1226 75.3364 27.5306 74.3284C26.9066 73.2724 26.5946 72.1364 26.5946 70.9204C26.5946 69.6884 26.9066 68.5524 27.5306 67.5124C28.1226 66.4884 28.9226 65.6804 29.9306 65.0884C30.9866 64.4644 32.1226 64.1524 33.3386 64.1524C34.5706 64.1524 35.7066 64.4644 36.7466 65.0884C37.7706 65.6804 38.5786 66.4884 39.1706 67.5124C39.7946 68.5524 40.1066 69.6884 40.1066 70.9204C40.1066 72.1364 39.7946 73.2724 39.1706 74.3284C38.5786 75.3364 37.7706 76.1444 36.7466 76.7524C35.7066 77.3604 34.5706 77.6644 33.3386 77.6644Z" fill="#666666"/>
<path d="M38.9932 114.597C39.0092 113.877 38.8252 113.221 38.4412 112.629C38.0732 112.021 37.5772 111.557 36.9532 111.237C36.3292 110.917 35.6572 110.789 34.9372 110.853C34.2332 110.901 33.5932 111.141 33.0172 111.573C32.4572 111.989 32.0492 112.525 31.7932 113.181C31.5372 113.837 31.4652 114.517 31.5772 115.221C31.7052 115.909 32.0012 116.517 32.4652 117.045C32.9452 117.573 33.5212 117.941 34.1932 118.149C33.9372 118.661 33.5692 119.069 33.0892 119.373C32.6092 119.661 32.0892 119.813 31.5292 119.829H28.5292C27.9852 119.829 27.4492 119.933 26.9212 120.141C26.4092 120.333 25.9532 120.613 25.5532 120.981V113.757C26.1612 113.629 26.7052 113.373 27.1852 112.989C27.6652 112.589 28.0252 112.101 28.2652 111.525C28.5052 110.949 28.5932 110.349 28.5292 109.725C28.4652 109.101 28.2572 108.533 27.9052 108.021C27.5532 107.509 27.1052 107.109 26.5612 106.821C26.0172 106.517 25.4252 106.365 24.7852 106.365C24.1612 106.365 23.5772 106.517 23.0332 106.821C22.4892 107.109 22.0412 107.509 21.6892 108.021C21.3532 108.533 21.1532 109.101 21.0892 109.725C21.0252 110.349 21.1132 110.949 21.3532 111.525C21.5932 112.101 21.9452 112.589 22.4092 112.989C22.8892 113.373 23.4332 113.629 24.0412 113.757V122.877C23.4332 123.005 22.8892 123.261 22.4092 123.645C21.9292 124.029 21.5612 124.501 21.3052 125.061C21.0492 125.621 20.9452 126.213 20.9932 126.837C21.0412 127.461 21.2252 128.037 21.5452 128.565C21.8652 129.093 22.2892 129.517 22.8172 129.837C23.3452 130.157 23.9212 130.333 24.5452 130.365C25.1852 130.397 25.7852 130.285 26.3452 130.029C26.9052 129.773 27.3692 129.405 27.7372 128.925C28.1212 128.429 28.3692 127.877 28.4812 127.269C28.5932 126.645 28.5532 126.037 28.3612 125.445C28.1692 124.853 27.8572 124.341 27.4252 123.909C26.9932 123.477 26.4732 123.165 25.8652 122.973C26.1212 122.477 26.4892 122.077 26.9692 121.773C27.4492 121.469 27.9692 121.317 28.5292 121.317H31.5292C32.4892 121.317 33.3532 121.037 34.1212 120.477C34.9052 119.917 35.4492 119.181 35.7532 118.269C36.3612 118.189 36.9132 117.981 37.4092 117.645C37.9052 117.293 38.2892 116.853 38.5612 116.325C38.8492 115.781 38.9932 115.205 38.9932 114.597ZM22.5532 110.109C22.5532 109.709 22.6492 109.333 22.8412 108.981C23.0492 108.629 23.3292 108.357 23.6812 108.165C24.0332 107.957 24.4092 107.853 24.8092 107.853C25.2092 107.853 25.5772 107.957 25.9132 108.165C26.2652 108.357 26.5372 108.629 26.7292 108.981C26.9372 109.333 27.0412 109.709 27.0412 110.109C27.0412 110.717 26.8172 111.245 26.3692 111.693C25.9372 112.125 25.4092 112.341 24.7852 112.341C24.1772 112.341 23.6492 112.125 23.2012 111.693C22.7692 111.245 22.5532 110.717 22.5532 110.109ZM27.0412 126.549C27.0412 127.157 26.8172 127.685 26.3692 128.133C25.9372 128.565 25.4092 128.781 24.7852 128.781C24.1772 128.781 23.6492 128.565 23.2012 128.133C22.7692 127.685 22.5532 127.157 22.5532 126.549C22.5532 125.925 22.7692 125.397 23.2012 124.965C23.6492 124.517 24.1772 124.293 24.7852 124.293C25.4092 124.293 25.9372 124.517 26.3692 124.965C26.8172 125.397 27.0412 125.925 27.0412 126.549ZM35.2732 116.829C34.6492 116.829 34.1132 116.613 33.6652 116.181C33.2332 115.733 33.0172 115.205 33.0172 114.597C33.0172 113.973 33.2332 113.445 33.6652 113.013C34.1132 112.565 34.6412 112.341 35.2492 112.341C35.8732 112.341 36.4012 112.565 36.8332 113.013C37.2812 113.445 37.5052 113.973 37.5052 114.597C37.5052 115.205 37.2812 115.733 36.8332 116.181C36.4012 116.613 35.8812 116.829 35.2732 116.829Z" fill="#666666"/>
<path d="M29.9953 163.552L28.6753 164.872C28.4673 164.056 28.0273 163.384 27.3553 162.856C26.6833 162.328 25.9153 162.064 25.0513 162.064C24.1873 162.064 23.4193 162.328 22.7473 162.856C22.0753 163.384 21.6353 164.064 21.4273 164.896L20.1073 163.552L19.0513 164.632L20.7793 166.336L20.5633 166.552V168.064H19.0513V169.552H20.5633V169.648C20.6273 170.144 20.7633 170.616 20.9713 171.064L19.0513 173.008L20.1073 174.064L21.7633 172.408C22.1633 172.92 22.6513 173.32 23.2273 173.608C23.8033 173.896 24.4113 174.04 25.0513 174.04C25.6913 174.04 26.2993 173.896 26.8753 173.608C27.4513 173.32 27.9393 172.92 28.3393 172.408L29.9953 174.064L31.0513 173.008L29.1313 171.064C29.3393 170.6 29.4833 170.12 29.5633 169.624V169.504H31.0513V168.064H29.5633V166.552L29.3233 166.336L31.0513 164.632L29.9953 163.552ZM25.0513 163.552C25.6753 163.552 26.2033 163.776 26.6353 164.224C27.0833 164.656 27.3073 165.184 27.3073 165.808H22.7953C22.7953 165.184 23.0113 164.656 23.4433 164.224C23.8913 163.776 24.4273 163.552 25.0513 163.552ZM28.0513 169.552C27.9713 170.352 27.6513 171.04 27.0913 171.616C26.5313 172.176 25.8513 172.496 25.0513 172.576C24.2513 172.496 23.5713 172.176 23.0113 171.616C22.4513 171.04 22.1313 170.352 22.0513 169.552V167.32H28.0513V169.552ZM42.8113 159.664V160.912L32.5633 167.44V165.664L41.0593 160.288L28.0513 152.056V161.512C27.5873 161.192 27.0833 160.952 26.5393 160.792V150.688L27.6913 150.064L42.8113 159.664Z" fill="#666666"/>
<path d="M31.9985 195.252L33.4865 193.764H40.9985L42.4865 195.252V202.764L40.9985 204.252H33.4865L31.9985 202.764V195.252ZM33.4865 195.252V202.764H40.9985V195.252H33.4865ZM18.4865 208.764V199.764L19.9985 198.252H27.4865L28.9985 199.764V207.252H36.4865L37.9985 208.764V216.252L36.4865 217.764H19.9985L18.4865 216.252V208.764ZM27.4865 207.252V199.764H19.9985V207.252H27.4865ZM27.4865 208.764H19.9985V216.252H27.4865V208.764ZM28.9985 216.252H36.4865V208.764H28.9985V216.252Z" fill="#666666"/>
<rect y="416.97" width="540" height="20.0292" fill="#2B4BEE"/>
<path d="M329.245 429.385H325.634V422.777H324.438V430.485H329.245V429.385ZM330.629 430.485H331.778V427.083C331.778 426.175 332.317 425.608 333.166 425.608C334.016 425.608 334.422 426.073 334.422 427.008V430.485H335.57V426.719C335.57 425.336 334.854 424.556 333.556 424.556C332.68 424.556 332.103 424.946 331.82 425.592H331.735V424.668H330.629V430.485ZM342.029 430.485H343.225V422.777H342.034L340.004 424.209V425.432L341.938 424.064H342.029V430.485ZM345.795 430.485H347.05L350.405 423.861V422.777H345.154V423.84H349.192V423.92L345.795 430.485ZM351.249 432.499L352.136 429.332H350.934L350.437 432.499H351.249ZM360.25 430.672C361.97 430.672 363.236 429.657 363.45 428.135H362.259C362.045 429.006 361.27 429.556 360.25 429.556C358.861 429.556 357.996 428.429 357.996 426.634C357.996 424.834 358.861 423.707 360.245 423.707C361.26 423.707 362.034 424.316 362.259 425.261H363.45C363.258 423.691 361.943 422.59 360.245 422.59C358.103 422.59 356.772 424.134 356.772 426.634C356.772 429.129 358.108 430.672 360.25 430.672ZM367.35 430.598C369.048 430.598 370.09 429.46 370.09 427.574C370.09 425.699 369.043 424.556 367.35 424.556C365.651 424.556 364.604 425.699 364.604 427.574C364.604 429.46 365.645 430.598 367.35 430.598ZM367.35 429.577C366.351 429.577 365.79 428.845 365.79 427.574C365.79 426.313 366.351 425.576 367.35 425.576C368.343 425.576 368.909 426.313 368.909 427.574C368.909 428.84 368.343 429.577 367.35 429.577ZM371.527 430.485H372.675V422.398H371.527V430.485ZM379.096 427.019H380.058C381.062 427.019 381.682 427.515 381.682 428.317C381.682 429.091 381.02 429.615 380.074 429.615C379.139 429.615 378.493 429.139 378.423 428.402H377.275C377.339 429.775 378.461 430.672 380.09 430.672C381.698 430.672 382.911 429.711 382.911 428.397C382.911 427.339 382.248 426.655 381.223 426.5V426.41C382.029 426.191 382.611 425.576 382.617 424.641C382.622 423.541 381.719 422.59 380.127 422.59C378.503 422.59 377.499 423.525 377.419 424.855H378.552C378.621 424.064 379.182 423.621 380.058 423.621C380.923 423.621 381.436 424.145 381.436 424.807C381.436 425.528 380.859 426.036 380.026 426.036H379.096V427.019Z" fill="white"/>
<path d="M399.662 428.413C399.747 429.791 400.896 430.672 402.605 430.672C404.432 430.672 405.575 429.748 405.575 428.274C405.575 427.115 404.923 426.474 403.342 426.105L402.493 425.897C401.488 425.662 401.082 425.347 401.082 424.796C401.082 424.102 401.713 423.648 402.658 423.648C403.556 423.648 404.175 424.091 404.288 424.802H405.452C405.383 423.504 404.24 422.59 402.674 422.59C400.992 422.59 399.87 423.504 399.87 424.876C399.87 426.009 400.506 426.682 401.9 427.008L402.893 427.248C403.914 427.489 404.362 427.841 404.362 428.429C404.362 429.113 403.657 429.609 402.696 429.609C401.665 429.609 400.949 429.145 400.847 428.413H399.662ZM410.036 424.572C409.245 424.572 408.561 424.967 408.209 425.63H408.123V424.668H407.017V432.419H408.166V429.604H408.257C408.561 430.218 409.218 430.582 410.046 430.582C411.515 430.582 412.45 429.422 412.45 427.574C412.45 425.726 411.515 424.572 410.036 424.572ZM409.71 429.551C408.748 429.551 408.145 428.792 408.145 427.579C408.145 426.361 408.748 425.603 409.715 425.603C410.687 425.603 411.27 426.345 411.27 427.574C411.27 428.808 410.687 429.551 409.71 429.551ZM415.735 429.615C415.11 429.615 414.656 429.31 414.656 428.787C414.656 428.274 415.02 428.001 415.821 427.948L417.242 427.857V428.343C417.242 429.065 416.601 429.615 415.735 429.615ZM415.442 430.582C416.206 430.582 416.841 430.25 417.188 429.668H417.279V430.485H418.385V426.511C418.385 425.282 417.562 424.556 416.104 424.556C414.785 424.556 413.844 425.197 413.727 426.196H414.838C414.966 425.785 415.41 425.55 416.051 425.55C416.836 425.55 417.242 425.897 417.242 426.511V427.013L415.666 427.104C414.282 427.189 413.502 427.793 413.502 428.84C413.502 429.903 414.32 430.582 415.442 430.582ZM424.945 426.57C424.795 425.405 423.914 424.556 422.456 424.556C420.762 424.556 419.731 425.694 419.731 427.558C419.731 429.454 420.768 430.598 422.461 430.598C423.898 430.598 424.795 429.786 424.945 428.616H423.828C423.679 429.241 423.182 429.572 422.456 429.572C421.499 429.572 420.906 428.819 420.906 427.558C420.906 426.319 421.494 425.582 422.456 425.582C423.225 425.582 423.695 426.004 423.828 426.57H424.945ZM428.647 425.533C429.496 425.533 430.052 426.126 430.079 427.04H427.14C427.205 426.132 427.798 425.533 428.647 425.533ZM430.073 428.915C429.86 429.369 429.384 429.62 428.69 429.62C427.771 429.62 427.178 428.974 427.14 427.953V427.889H431.248V427.489C431.248 425.662 430.271 424.556 428.652 424.556C427.012 424.556 425.971 425.736 425.971 427.595C425.971 429.454 426.991 430.598 428.658 430.598C429.988 430.598 430.928 429.951 431.179 428.915H430.073ZM432.493 426.313C432.493 427.179 433.006 427.676 434.112 427.937L435.127 428.172C435.709 428.311 435.981 428.536 435.981 428.883C435.981 429.348 435.474 429.668 434.758 429.668C434.064 429.668 433.636 429.39 433.492 428.942H432.344C432.445 429.973 433.348 430.598 434.731 430.598C436.12 430.598 437.141 429.866 437.141 428.771C437.141 427.916 436.622 427.441 435.517 427.184L434.55 426.96C433.919 426.816 433.626 426.597 433.626 426.249C433.626 425.795 434.112 425.491 434.753 425.491C435.404 425.491 435.821 425.763 435.928 426.191H437.028C436.916 425.165 436.062 424.556 434.753 424.556C433.439 424.556 432.493 425.282 432.493 426.313ZM439.416 430.576C439.87 430.576 440.202 430.229 440.202 429.78C440.202 429.332 439.87 428.984 439.416 428.984C438.968 428.984 438.631 429.332 438.631 429.78C438.631 430.229 438.968 430.576 439.416 430.576ZM439.416 426.607C439.87 426.607 440.202 426.26 440.202 425.811C440.202 425.357 439.87 425.015 439.416 425.015C438.968 425.015 438.631 425.357 438.631 425.811C438.631 426.26 438.968 426.607 439.416 426.607ZM444.902 425.031H446.035C446.035 424.193 446.607 423.626 447.477 423.626C448.332 423.626 448.839 424.182 448.839 424.914C448.839 425.523 448.583 425.897 447.605 426.901L444.967 429.62V430.485H450.159V429.412H446.601V429.321L448.3 427.649C449.651 426.313 450.041 425.683 450.041 424.791C450.041 423.514 449 422.59 447.552 422.59C445.998 422.59 444.902 423.594 444.902 425.031Z" fill="white"/>
<path d="M467.798 422.777H466.601V427.831C466.601 429.503 467.792 430.672 469.721 430.672C471.66 430.672 472.846 429.503 472.846 427.831V422.777H471.649V427.724C471.649 428.803 470.949 429.551 469.721 429.551C468.498 429.551 467.798 428.803 467.798 427.724V422.777ZM477.926 430.485V423.867H480.346V422.777H474.304V423.867H476.729V430.485H477.926ZM483.012 430.485V427.291H486.324V426.233H483.012V423.867H486.628V422.777H481.815V430.485H483.012ZM491.575 427.943V426.816H488.07V427.943H491.575ZM496.03 430.672C497.745 430.672 498.931 429.754 498.931 428.418C498.931 427.425 498.279 426.645 497.291 426.458V426.367C498.103 426.159 498.615 425.501 498.615 424.668C498.615 423.45 497.542 422.59 496.03 422.59C494.518 422.59 493.444 423.45 493.444 424.668C493.444 425.496 493.968 426.164 494.769 426.367V426.458C493.781 426.661 493.135 427.441 493.135 428.423C493.135 429.754 494.315 430.672 496.03 430.672ZM496.03 429.679C495.042 429.679 494.358 429.123 494.358 428.322C494.358 427.515 495.042 426.96 496.03 426.96C497.018 426.96 497.702 427.515 497.702 428.322C497.702 429.123 497.018 429.679 496.03 429.679ZM496.03 425.982C495.191 425.982 494.625 425.496 494.625 424.786C494.625 424.064 495.186 423.573 496.03 423.573C496.874 423.573 497.44 424.064 497.44 424.786C497.44 425.496 496.869 425.982 496.03 425.982Z" fill="white"/>
<path d="M520.007 429.385H516.395V422.777H515.199V430.485H520.007V429.385ZM522.72 430.485V427.291H526.032V426.233H522.72V423.867H526.337V422.777H521.524V430.485H522.72Z" fill="white"/>
<path d="M25.0414 424.792C25.0414 424.388 24.9326 424.014 24.7148 423.672C24.497 423.299 24.2014 423.019 23.8281 422.832C23.4548 422.645 23.0659 422.568 22.6614 422.599C22.257 422.63 21.8837 422.77 21.5414 423.019C21.1992 423.268 20.9503 423.594 20.7948 423.999C20.6703 424.372 20.6392 424.761 20.7014 425.165C20.7637 425.57 20.9348 425.928 21.2148 426.239C21.4948 426.519 21.837 426.721 22.2414 426.845C22.0859 427.157 21.8681 427.405 21.5881 427.592C21.3081 427.748 20.997 427.825 20.6548 427.825H18.9281C18.2437 427.825 17.6526 428.059 17.1548 428.525V424.279C17.7148 424.185 18.1503 423.921 18.4614 423.485C18.8037 423.019 18.9437 422.505 18.8814 421.945C18.8503 421.385 18.617 420.919 18.1814 420.545C17.777 420.172 17.2948 419.985 16.7348 419.985C16.1748 419.985 15.677 420.172 15.2414 420.545C14.837 420.919 14.6037 421.385 14.5414 421.945C14.5103 422.505 14.6503 423.019 14.9614 423.485C15.3037 423.921 15.7548 424.185 16.3148 424.279V429.599C15.7548 429.723 15.3037 430.003 14.9614 430.439C14.6192 430.874 14.4637 431.372 14.4948 431.932C14.557 432.492 14.7748 432.974 15.1481 433.379C15.5526 433.752 16.0348 433.954 16.5948 433.985C17.1548 434.017 17.6526 433.861 18.0881 433.519C18.5237 433.177 18.7881 432.725 18.8814 432.165C18.9748 431.605 18.8814 431.092 18.6014 430.625C18.3214 430.159 17.9014 429.848 17.3414 429.692C17.497 429.381 17.7148 429.148 17.9948 428.992C18.2748 428.805 18.5859 428.712 18.9281 428.712H20.6548C21.2148 428.712 21.7126 428.557 22.1481 428.245C22.6148 427.903 22.9414 427.468 23.1281 426.939C23.657 426.877 24.1081 426.643 24.4814 426.239C24.8548 425.803 25.0414 425.321 25.0414 424.792ZM15.4281 422.179C15.4281 421.805 15.5526 421.494 15.8014 421.245C16.0503 420.997 16.3614 420.872 16.7348 420.872C17.1081 420.872 17.4192 420.997 17.6681 421.245C17.917 421.494 18.0414 421.805 18.0414 422.179C18.0414 422.521 17.917 422.832 17.6681 423.112C17.4192 423.361 17.1081 423.485 16.7348 423.485C16.3614 423.485 16.0503 423.361 15.8014 423.112C15.5526 422.832 15.4281 422.521 15.4281 422.179ZM18.0414 431.745C18.0414 432.119 17.917 432.43 17.6681 432.679C17.4192 432.928 17.1081 433.052 16.7348 433.052C16.3614 433.052 16.0503 432.928 15.8014 432.679C15.5526 432.43 15.4281 432.134 15.4281 431.792C15.4281 431.419 15.5526 431.108 15.8014 430.859C16.0503 430.579 16.3614 430.439 16.7348 430.439C17.1081 430.439 17.4192 430.579 17.6681 430.859C17.917 431.108 18.0414 431.403 18.0414 431.745ZM22.8481 426.099C22.4748 426.099 22.1637 425.974 21.9148 425.725C21.6659 425.445 21.5414 425.134 21.5414 424.792C21.5414 424.419 21.6659 424.108 21.9148 423.859C22.1637 423.61 22.4592 423.485 22.8014 423.485C23.1748 423.485 23.4859 423.61 23.7348 423.859C24.0148 424.108 24.1548 424.419 24.1548 424.792C24.1548 425.134 24.0148 425.445 23.7348 425.725C23.4859 425.974 23.1903 426.099 22.8481 426.099Z" fill="white"/>
<path d="M31.2482 430.485H32.3967V426.928C32.3967 426.18 32.9256 425.608 33.6254 425.608C34.3091 425.608 34.7472 426.009 34.7472 426.666V430.485H35.8743V426.826C35.8743 426.142 36.3605 425.608 37.103 425.608C37.8562 425.608 38.2301 425.993 38.2301 426.778V430.485H39.3787V426.479C39.3787 425.266 38.6949 424.556 37.5197 424.556C36.713 424.556 36.0453 424.967 35.7515 425.603H35.6607C35.4042 424.967 34.854 424.556 34.0581 424.556C33.2835 424.556 32.6959 424.946 32.4395 425.603H32.354V424.668H31.2482V430.485ZM42.8936 429.615C42.2686 429.615 41.8146 429.31 41.8146 428.787C41.8146 428.274 42.1778 428.001 42.9791 427.948L44.4001 427.857V428.343C44.4001 429.065 43.759 429.615 42.8936 429.615ZM42.5998 430.582C43.3637 430.582 43.9994 430.25 44.3467 429.668H44.4375V430.485H45.5432V426.511C45.5432 425.282 44.7206 424.556 43.2622 424.556C41.9428 424.556 41.0026 425.197 40.8851 426.196H41.9962C42.1244 425.785 42.5678 425.55 43.2088 425.55C43.9941 425.55 44.4001 425.897 44.4001 426.511V427.013L42.8242 427.104C41.4406 427.189 40.6607 427.793 40.6607 428.84C40.6607 429.903 41.478 430.582 42.5998 430.582ZM47.1993 430.485H48.3424V424.668H47.1993V430.485ZM47.7708 423.658C48.1715 423.658 48.4973 423.322 48.4973 422.911C48.4973 422.494 48.1715 422.157 47.7708 422.157C47.3702 422.157 47.0443 422.494 47.0443 422.911C47.0443 423.322 47.3702 423.658 47.7708 423.658ZM50.0305 430.485H51.179V427.083C51.179 426.175 51.7185 425.608 52.5679 425.608C53.4173 425.608 53.8233 426.073 53.8233 427.008V430.485H54.9718V426.719C54.9718 425.336 54.256 424.556 52.9579 424.556C52.0818 424.556 51.5049 424.946 51.2217 425.592H51.1363V424.668H50.0305V430.485Z" fill="white"/>
<path d="M72.7753 427.219L71.7019 428.292L71.0019 427.639L72.8219 425.819H73.4753L75.3419 427.685L74.6419 428.339L73.6153 427.312C73.7086 428.277 74.0664 429.132 74.6886 429.879C75.3419 430.594 76.1353 431.061 77.0686 431.279C78.033 431.465 78.9508 431.357 79.8219 430.952C80.7242 430.548 81.4086 429.91 81.8753 429.039L82.5753 429.552C81.9842 430.579 81.1442 431.325 80.0553 431.792C78.9975 432.259 77.893 432.368 76.7419 432.119C75.6219 431.839 74.6886 431.248 73.9419 430.345C73.1953 429.443 72.8064 428.401 72.7753 427.219ZM82.3886 426.799L81.3153 425.725L80.6153 426.379L82.4353 428.245H83.1353L84.9553 426.425L84.3019 425.772L83.2286 426.799C83.1975 425.648 82.8242 424.621 82.1086 423.719C81.393 422.817 80.4753 422.225 79.3553 421.945C78.2353 421.634 77.1308 421.697 76.0419 422.132C74.9842 422.537 74.1442 423.237 73.5219 424.232L74.2219 424.745C74.7197 423.905 75.4197 423.299 76.3219 422.925C77.2242 422.552 78.1419 422.49 79.0753 422.739C80.0086 422.988 80.7708 423.485 81.3619 424.232C81.9842 424.979 82.3264 425.834 82.3886 426.799Z" fill="white"/>
<path d="M92.2064 430.672C94.0013 430.672 95.0483 429.193 95.0483 426.634C95.0483 424.08 93.9853 422.59 92.2064 422.59C90.4169 422.59 89.3538 424.075 89.3538 426.623C89.3538 429.187 90.4062 430.672 92.2064 430.672ZM92.2064 429.625C91.1594 429.625 90.5611 428.584 90.5611 426.623C90.5611 424.684 91.1701 423.637 92.2064 423.637C93.2428 423.637 93.8411 424.679 93.8411 426.623C93.8411 428.589 93.2534 429.625 92.2064 429.625ZM103.863 427.403L103.152 426.65L101.063 428.717V422.777H100.059V428.717L97.9704 426.65L97.2599 427.403L100.561 430.747L103.863 427.403ZM111.042 430.485H112.239V422.777H111.047L109.018 424.209V425.432L110.951 424.064H111.042V430.485ZM121.758 425.859L118.457 422.515L115.155 425.859L115.866 426.613L117.955 424.545V430.485H118.959V424.545L121.048 426.613L121.758 425.859Z" fill="white"/>
<path d="M145.749 420.872C146.434 420.903 147.087 421.074 147.709 421.385C148.362 421.697 148.938 422.101 149.436 422.599C150.618 423.874 151.209 425.368 151.209 427.079C151.209 428.417 150.742 429.692 149.809 430.905C149.342 431.465 148.814 431.932 148.222 432.305C147.631 432.648 146.994 432.881 146.309 433.005C144.816 433.285 143.462 433.083 142.249 432.399C141.627 432.057 141.082 431.621 140.616 431.092C140.149 430.563 139.791 429.972 139.542 429.319C139.294 428.665 139.138 427.981 139.076 427.265C139.045 426.55 139.138 425.865 139.356 425.212C139.822 423.781 140.647 422.677 141.829 421.899C142.389 421.525 142.996 421.245 143.649 421.059C144.334 420.872 145.034 420.81 145.749 420.872ZM146.216 432.165C147.398 431.885 148.378 431.263 149.156 430.299C149.934 429.241 150.291 428.137 150.229 426.985C150.229 426.27 150.089 425.585 149.809 424.932C149.56 424.279 149.202 423.703 148.736 423.205C147.834 422.303 146.791 421.805 145.609 421.712C145.018 421.681 144.427 421.743 143.836 421.899C143.245 422.023 142.716 422.257 142.249 422.599C141.254 423.345 140.569 424.325 140.196 425.539C139.854 426.752 139.931 427.919 140.429 429.039C140.958 430.159 141.751 431.014 142.809 431.605C143.307 431.917 143.851 432.119 144.442 432.212C145.034 432.305 145.625 432.29 146.216 432.165ZM145.142 426.565L147.242 424.372L147.849 424.979L145.749 427.172L147.849 429.365L147.242 429.972L145.142 427.779L143.042 429.972L142.436 429.365L144.536 427.172L142.436 424.979L143.042 424.372L145.142 426.565Z" fill="white"/>
<path d="M159.44 430.672C161.235 430.672 162.282 429.193 162.282 426.634C162.282 424.08 161.219 422.59 159.44 422.59C157.651 422.59 156.588 424.075 156.588 426.623C156.588 429.187 157.64 430.672 159.44 430.672ZM159.44 429.625C158.393 429.625 157.795 428.584 157.795 426.623C157.795 424.684 158.404 423.637 159.44 423.637C160.477 423.637 161.075 424.679 161.075 426.623C161.075 428.589 160.487 429.625 159.44 429.625Z" fill="white"/>
<path d="M174.156 420.872H174.903L180.643 431.605L180.269 432.212H168.789L168.416 431.605L174.156 420.872ZM174.529 421.992L169.536 431.372H179.523L174.529 421.992ZM175.089 430.485V429.599H173.969V430.485H175.089ZM173.969 428.712V425.212H175.089V428.712H173.969Z" fill="white"/>
<path d="M188.734 430.672C190.529 430.672 191.576 429.193 191.576 426.634C191.576 424.08 190.513 422.59 188.734 422.59C186.944 422.59 185.881 424.075 185.881 426.623C185.881 429.187 186.934 430.672 188.734 430.672ZM188.734 429.625C187.687 429.625 187.089 428.584 187.089 426.623C187.089 424.684 187.698 423.637 188.734 423.637C189.77 423.637 190.369 424.679 190.369 426.623C190.369 428.589 189.781 429.625 188.734 429.625Z" fill="white"/>
<rect x="167.838" width="372.162" height="21.85" fill="#191919"/>
<rect x="167.838" width="107.635" height="21.85" fill="#121212"/>
<path d="M260.879 7.28296L264.527 10.9246M268.176 14.5663L264.527 10.9246M264.527 10.9246L268.176 7.28296M264.527 10.9246L260.879 14.5663" stroke="#666666" stroke-width="0.911691"/>
<rect x="193.379" y="9.10474" width="60.2027" height="3.64167" rx="1.82083" fill="white"/>
<path d="M179.354 7.41052H181.171V12.4366C181.171 13.5206 180.915 14.309 180.402 14.8018C179.931 15.2523 179.226 15.4776 178.285 15.4776C178.071 15.4776 177.836 15.4635 177.58 15.4353C177.323 15.3931 177.116 15.3368 176.96 15.2664L177.152 13.8304C177.423 13.9571 177.736 14.0204 178.093 14.0204C178.492 14.0204 178.791 13.9148 178.991 13.7037C179.233 13.4502 179.354 13.0279 179.354 12.4366V7.41052ZM182.775 13.4925C183.031 13.6333 183.33 13.7529 183.672 13.8515C184.057 13.9641 184.421 14.0204 184.763 14.0204C185.19 14.0204 185.511 13.95 185.725 13.8092C185.939 13.6544 186.046 13.4432 186.046 13.1757C186.046 12.9082 185.946 12.697 185.746 12.5422C185.547 12.3732 185.198 12.2043 184.699 12.0353C183.231 11.5285 182.497 10.7401 182.497 9.67014C182.497 8.96621 182.767 8.39602 183.309 7.95959C183.865 7.50907 184.62 7.28381 185.575 7.28381C186.331 7.28381 187.022 7.41756 187.649 7.68505L187.243 9.14219L187.114 9.07884C186.858 8.98029 186.651 8.90989 186.494 8.86766C186.195 8.78319 185.889 8.74095 185.575 8.74095C185.19 8.74095 184.891 8.81838 184.677 8.97325C184.478 9.11403 184.378 9.30409 184.378 9.54343C184.378 9.78277 184.492 9.97987 184.72 10.1347C184.891 10.2614 185.262 10.4374 185.832 10.6627C186.544 10.9302 187.065 11.254 187.392 11.6341C187.734 12.0142 187.905 12.4788 187.905 13.0279C187.905 13.7318 187.635 14.302 187.093 14.7384C186.509 15.2312 185.689 15.4776 184.635 15.4776C184.221 15.4776 183.787 15.4212 183.33 15.3086C182.974 15.2382 182.653 15.1397 182.368 15.013L182.775 13.4925Z" fill="#CBCB41"/>
<rect x="43.7831" width="124.054" height="416.971" fill="#1A1A1A"/>
</g>
<rect x="76.6247" y="50.9841" width="49.2568" height="7.28333" rx="3.64167" fill="#333333"/>
<path d="M60.2028 49.6221L65.673 54.6364L60.2028 59.6507" stroke="#666666" stroke-width="1.27637"/>
<rect x="76.6247" y="76.4748" width="49.2568" height="7.28333" rx="3.64167" fill="#333333"/>
<path d="M60.2028 75.112L65.673 80.1263L60.2028 85.1406" stroke="#666666" stroke-width="1.27637"/>
<rect x="76.6247" y="101.966" width="49.2568" height="7.28333" rx="3.64167" fill="#333333"/>
<path d="M60.2028 100.604L65.673 105.618L60.2028 110.632" stroke="#666666" stroke-width="1.27637"/>
<rect x="76.6247" y="127.458" width="49.2568" height="7.28333" rx="3.64167" fill="#666666"/>
<path d="M67.9525 128.374L62.9382 133.844L57.9239 128.374" stroke="#999999" stroke-width="1.27637"/>
<rect x="57.4669" y="149.308" width="0.912162" height="218.5" fill="#333333"/>
<rect x="89.3933" y="229.425" width="31.0135" height="7.28333" rx="3.64167" fill="#333333"/>
<path d="M71.4048 227.773H73.6763V234.474C73.6763 235.92 73.3556 236.971 72.7143 237.628C72.1264 238.229 71.2445 238.529 70.0687 238.529C69.8014 238.529 69.5075 238.51 69.1868 238.473C68.8661 238.416 68.6078 238.341 68.4118 238.247L68.6523 236.333C68.9908 236.502 69.3828 236.586 69.8281 236.586C70.327 236.586 70.7011 236.445 70.9505 236.164C71.2534 235.826 71.4048 235.263 71.4048 234.474V227.773ZM75.6806 235.882C76.0013 236.07 76.3754 236.229 76.803 236.361C77.284 236.511 77.7383 236.586 78.1659 236.586C78.7003 236.586 79.1012 236.492 79.3684 236.304C79.6357 236.098 79.7693 235.816 79.7693 235.46C79.7693 235.103 79.6446 234.822 79.3952 234.615C79.1457 234.39 78.7093 234.165 78.0857 233.939C76.2507 233.263 75.3332 232.212 75.3332 230.786C75.3332 229.847 75.6717 229.087 76.3487 228.505C77.0435 227.904 77.9877 227.604 79.1814 227.604C80.1256 227.604 80.9897 227.782 81.7735 228.139L81.2658 230.082L81.1055 229.997C80.7848 229.866 80.5265 229.772 80.3305 229.716C79.9563 229.603 79.5733 229.547 79.1814 229.547C78.7003 229.547 78.3262 229.65 78.059 229.856C77.8096 230.044 77.6849 230.298 77.6849 230.617C77.6849 230.936 77.8274 231.199 78.1124 231.405C78.3262 231.574 78.7894 231.809 79.502 232.109C80.3928 232.466 81.0431 232.897 81.4529 233.404C81.8804 233.911 82.0942 234.531 82.0942 235.263C82.0942 236.201 81.7557 236.961 81.0787 237.543C80.3483 238.2 79.3239 238.529 78.0055 238.529C77.4889 238.529 76.9455 238.454 76.3754 238.304C75.93 238.21 75.5292 238.078 75.1728 237.909L75.6806 235.882Z" fill="#CBCB41"/>
<rect x="89.3933" y="254.917" width="49.2568" height="7.28333" rx="3.64167" fill="#333333"/>
<path d="M71.4048 253.265H73.6763V259.967C73.6763 261.412 73.3556 262.463 72.7143 263.12C72.1264 263.721 71.2445 264.021 70.0687 264.021C69.8014 264.021 69.5075 264.003 69.1868 263.965C68.8661 263.909 68.6078 263.834 68.4118 263.74L68.6523 261.825C68.9908 261.994 69.3828 262.078 69.8281 262.078C70.327 262.078 70.7011 261.938 70.9505 261.656C71.2534 261.318 71.4048 260.755 71.4048 259.967V253.265ZM75.6806 261.375C76.0013 261.562 76.3754 261.722 76.803 261.853C77.284 262.003 77.7383 262.078 78.1659 262.078C78.7003 262.078 79.1012 261.985 79.3684 261.797C79.6357 261.59 79.7693 261.309 79.7693 260.952C79.7693 260.596 79.6446 260.314 79.3952 260.107C79.1457 259.882 78.7093 259.657 78.0857 259.432C76.2507 258.756 75.3332 257.705 75.3332 256.278C75.3332 255.34 75.6717 254.579 76.3487 253.997C77.0435 253.397 77.9877 253.096 79.1814 253.096C80.1256 253.096 80.9897 253.275 81.7735 253.631L81.2658 255.574L81.1055 255.49C80.7848 255.358 80.5265 255.264 80.3305 255.208C79.9563 255.095 79.5733 255.039 79.1814 255.039C78.7003 255.039 78.3262 255.142 78.059 255.349C77.8096 255.537 77.6849 255.79 77.6849 256.109C77.6849 256.428 77.8274 256.691 78.1124 256.898C78.3262 257.066 78.7894 257.301 79.502 257.601C80.3928 257.958 81.0431 258.39 81.4529 258.897C81.8804 259.404 82.0942 260.023 82.0942 260.755C82.0942 261.694 81.7557 262.454 81.0787 263.036C80.3483 263.693 79.3239 264.021 78.0055 264.021C77.4889 264.021 76.9455 263.946 76.3754 263.796C75.93 263.702 75.5292 263.571 75.1728 263.402L75.6806 261.375Z" fill="#CBCB41"/>
<rect x="89.3933" y="280.409" width="31.0135" height="7.28333" rx="3.64167" fill="#333333"/>
<path d="M71.4048 278.757H73.6763V285.458C73.6763 286.904 73.3556 287.955 72.7143 288.612C72.1264 289.212 71.2445 289.513 70.0687 289.513C69.8014 289.513 69.5075 289.494 69.1868 289.457C68.8661 289.4 68.6078 289.325 68.4118 289.231L68.6523 287.317C68.9908 287.486 69.3828 287.57 69.8281 287.57C70.327 287.57 70.7011 287.429 70.9505 287.148C71.2534 286.81 71.4048 286.247 71.4048 285.458V278.757ZM75.6806 286.866C76.0013 287.054 76.3754 287.213 76.803 287.345C77.284 287.495 77.7383 287.57 78.1659 287.57C78.7003 287.57 79.1012 287.476 79.3684 287.288C79.6357 287.082 79.7693 286.8 79.7693 286.444C79.7693 286.087 79.6446 285.805 79.3952 285.599C79.1457 285.374 78.7093 285.148 78.0857 284.923C76.2507 284.247 75.3332 283.196 75.3332 281.77C75.3332 280.831 75.6717 280.071 76.3487 279.489C77.0435 278.888 77.9877 278.588 79.1814 278.588C80.1256 278.588 80.9897 278.766 81.7735 279.123L81.2658 281.066L81.1055 280.981C80.7848 280.85 80.5265 280.756 80.3305 280.7C79.9563 280.587 79.5733 280.531 79.1814 280.531C78.7003 280.531 78.3262 280.634 78.059 280.84C77.8096 281.028 77.6849 281.282 77.6849 281.601C77.6849 281.92 77.8274 282.183 78.1124 282.389C78.3262 282.558 78.7894 282.793 79.502 283.093C80.3928 283.45 81.0431 283.881 81.4529 284.388C81.8804 284.895 82.0942 285.515 82.0942 286.247C82.0942 287.185 81.7557 287.945 81.0787 288.527C80.3483 289.184 79.3239 289.513 78.0055 289.513C77.4889 289.513 76.9455 289.438 76.3754 289.288C75.93 289.194 75.5292 289.062 75.1728 288.893L75.6806 286.866Z" fill="#CBCB41"/>
<rect x="89.3933" y="305.899" width="40.1351" height="7.28333" rx="3.64167" fill="#333333"/>
<path d="M71.4048 304.247H73.6763V310.948C73.6763 312.393 73.3556 313.445 72.7143 314.102C72.1264 314.702 71.2445 315.003 70.0687 315.003C69.8014 315.003 69.5075 314.984 69.1868 314.946C68.8661 314.89 68.6078 314.815 68.4118 314.721L68.6523 312.806C68.9908 312.975 69.3828 313.06 69.8281 313.06C70.327 313.06 70.7011 312.919 70.9505 312.637C71.2534 312.3 71.4048 311.736 71.4048 310.948V304.247ZM75.6806 312.356C76.0013 312.544 76.3754 312.703 76.803 312.835C77.284 312.985 77.7383 313.06 78.1659 313.06C78.7003 313.06 79.1012 312.966 79.3684 312.778C79.6357 312.572 79.7693 312.29 79.7693 311.934C79.7693 311.577 79.6446 311.295 79.3952 311.089C79.1457 310.864 78.7093 310.638 78.0857 310.413C76.2507 309.737 75.3332 308.686 75.3332 307.259C75.3332 306.321 75.6717 305.561 76.3487 304.979C77.0435 304.378 77.9877 304.078 79.1814 304.078C80.1256 304.078 80.9897 304.256 81.7735 304.613L81.2658 306.556L81.1055 306.471C80.7848 306.34 80.5265 306.246 80.3305 306.189C79.9563 306.077 79.5733 306.021 79.1814 306.021C78.7003 306.021 78.3262 306.124 78.059 306.33C77.8096 306.518 77.6849 306.771 77.6849 307.091C77.6849 307.41 77.8274 307.672 78.1124 307.879C78.3262 308.048 78.7894 308.283 79.502 308.583C80.3928 308.94 81.0431 309.371 81.4529 309.878C81.8804 310.385 82.0942 311.004 82.0942 311.736C82.0942 312.675 81.7557 313.435 81.0787 314.017C80.3483 314.674 79.3239 315.003 78.0055 315.003C77.4889 315.003 76.9455 314.928 76.3754 314.777C75.93 314.684 75.5292 314.552 75.1728 314.383L75.6806 312.356Z" fill="#CBCB41"/>
<rect x="89.3933" y="152.95" width="49.2568" height="7.28333" rx="3.64167" fill="#333333"/>
<g clip-path="url(#clip0_1071_91930)">
<path d="M80.2967 159.338C80.2967 159.391 80.2967 159.46 80.2967 159.547C80.3964 160.61 80.4463 161.412 80.4463 161.952C80.4463 162.475 80.3217 162.911 80.0724 163.259C79.8231 163.608 79.5073 163.799 79.1251 163.834C78.7428 163.921 78.3274 163.869 77.8787 163.677C77.5463 163.503 77.0809 163.207 76.4827 162.789C76.1004 162.527 75.8096 162.335 75.6102 162.214C75.095 162.649 74.6795 162.972 74.3637 163.181C74.0978 163.372 73.8402 163.512 73.5909 163.599C73.1256 163.808 72.6935 163.878 72.2947 163.808C71.8958 163.721 71.5717 163.512 71.3224 163.181C71.0898 162.85 70.9651 162.414 70.9485 161.874C70.9485 161.334 70.9984 160.462 71.0981 159.26C70.4666 159.051 69.9929 158.833 69.6772 158.606C69.2617 158.397 68.8462 158.075 68.4307 157.639C68.0983 157.273 67.9405 156.881 67.9571 156.463C67.9737 156.027 68.1648 155.627 68.5304 155.261C68.7963 154.93 69.1537 154.651 69.6024 154.424C69.8683 154.267 70.2837 154.084 70.8488 153.875C70.882 153.875 70.9319 153.867 70.9984 153.849C71.0815 153.814 71.1396 153.797 71.1729 153.797L70.9485 151.993C70.9319 151.61 70.9817 151.096 71.0981 150.451C71.2144 149.998 71.4471 149.676 71.7961 149.484C72.1617 149.292 72.5772 149.257 73.0425 149.379C73.458 149.484 73.8735 149.676 74.2889 149.954C74.5881 150.146 74.9288 150.416 75.311 150.765C75.3775 150.8 75.4523 150.878 75.5354 151L75.6102 151.105C76.4411 150.442 77.0892 149.972 77.5546 149.693C78.0864 149.327 78.6099 149.223 79.1251 149.379C79.5073 149.467 79.8065 149.684 80.0225 150.033C80.2552 150.364 80.3964 150.8 80.4463 151.34V152.647C80.4463 152.821 80.4047 153.082 80.3217 153.431C80.2718 153.657 80.2302 153.832 80.197 153.954C80.6623 154.111 81.1027 154.302 81.5182 154.529C81.9503 154.738 82.2578 154.912 82.4406 155.052C82.7563 155.278 83.0056 155.539 83.1884 155.836C83.3712 156.115 83.4627 156.411 83.4627 156.724C83.4627 157.038 83.3712 157.343 83.1884 157.639C83.0056 157.918 82.7563 158.171 82.4406 158.397C82.2412 158.537 81.9337 158.72 81.5182 158.946C81.2191 158.998 80.8036 159.129 80.2718 159.338H80.2967ZM75.7597 159.26C75.8428 159.26 75.9758 159.251 76.1586 159.234C76.4079 159.199 76.5907 159.181 76.707 159.181C76.9231 159.181 77.1059 159.068 77.2554 158.842C77.7706 157.97 78.1279 157.291 78.3274 156.803C78.3772 156.733 78.4022 156.646 78.4022 156.541C78.4022 156.437 78.3772 156.367 78.3274 156.332C78.0781 155.827 77.6875 155.147 77.1557 154.294C77.0892 154.119 76.9646 154.032 76.7818 154.032C75.901 154.032 75.2279 154.006 74.7626 153.954C74.3471 153.954 74.0313 154.145 73.8153 154.529C73.6159 154.86 73.458 155.13 73.3417 155.339L72.9927 156.019C72.8431 156.245 72.7517 156.411 72.7184 156.515C72.7018 156.602 72.7018 156.698 72.7184 156.803C72.7517 156.89 72.8431 157.055 72.9927 157.299L73.3417 157.953L73.6408 158.476C73.807 158.755 73.9233 158.929 73.9898 158.998C74.0895 159.12 74.2058 159.19 74.3388 159.208C74.4385 159.225 74.6462 159.234 74.962 159.234L75.7597 159.26ZM71.2477 158.606C71.5634 157.735 71.7961 157.108 71.9457 156.724V156.411L71.2477 154.529C70.317 154.825 69.5941 155.174 69.0789 155.574C68.7132 155.871 68.5304 156.193 68.5304 156.541C68.5304 156.873 68.7132 157.177 69.0789 157.456C69.3448 157.753 69.6855 157.996 70.1009 158.188C70.3502 158.31 70.7325 158.45 71.2477 158.606ZM80.0474 154.45C79.848 154.938 79.5904 155.618 79.2747 156.489L79.2497 156.568C79.2331 156.62 79.2414 156.646 79.2747 156.646C79.5904 157.517 79.848 158.223 80.0474 158.763C80.2469 158.659 80.5543 158.493 80.9698 158.267C81.5182 158.005 81.9088 157.796 82.1414 157.639C82.5735 157.343 82.7896 157.012 82.7896 156.646C82.7896 156.28 82.5818 155.958 82.1664 155.679C81.8838 155.417 81.4268 155.13 80.7953 154.816C80.4463 154.659 80.197 154.537 80.0474 154.45ZM71.7213 153.614C72.5522 153.527 73.2004 153.422 73.6657 153.3C73.699 153.3 73.7322 153.283 73.7654 153.248L73.8153 153.222C74.1144 152.786 74.5299 152.237 75.0617 151.575C74.6462 151.209 74.3305 150.939 74.1144 150.765C73.7488 150.469 73.3915 150.251 73.0425 150.111C72.6104 149.954 72.2614 149.963 71.9955 150.137C71.7296 150.294 71.5551 150.617 71.472 151.105C71.4388 151.436 71.4471 151.819 71.4969 152.255C71.5302 152.516 71.5967 152.926 71.6964 153.483L71.7213 153.614ZM79.499 153.614C79.499 153.596 79.5073 153.553 79.5239 153.483C79.5572 153.396 79.5738 153.335 79.5738 153.3C79.6901 152.76 79.7483 152.342 79.7483 152.046C79.7815 151.558 79.7234 151.131 79.5738 150.765C79.5073 150.486 79.3827 150.286 79.1999 150.164C79.0171 150.042 78.8093 149.998 78.5767 150.033C78.1612 150.103 77.754 150.277 77.3552 150.556C77.1059 150.713 76.7652 151 76.3331 151.418L76.1586 151.575C76.4245 151.958 76.815 152.481 77.3302 153.143L77.5546 153.379L79.499 153.64V153.614ZM71.7213 159.495C71.7047 159.6 71.6797 159.748 71.6465 159.939C71.5468 160.427 71.4886 160.785 71.472 161.011C71.4388 161.412 71.472 161.787 71.5717 162.135C71.6382 162.536 71.7961 162.815 72.0454 162.972C72.3113 163.128 72.6437 163.146 73.0425 163.024C73.3749 162.919 73.7156 162.745 74.0646 162.501C74.264 162.344 74.5548 162.092 74.9371 161.743L75.1365 161.56C74.8374 161.124 74.4219 160.575 73.8901 159.913C73.7904 159.809 73.7156 159.756 73.6657 159.756C73.0674 159.756 72.4193 159.669 71.7213 159.495ZM76.0838 161.56C76.2998 161.856 76.6156 162.161 77.0311 162.475C77.4133 162.771 77.7706 162.98 78.103 163.102C78.934 163.364 79.4242 163.067 79.5738 162.214C79.6403 161.83 79.6569 161.412 79.6237 160.959C79.607 160.68 79.5489 160.262 79.4492 159.704L79.4242 159.6L78.9257 159.652C78.2277 159.704 77.7208 159.791 77.405 159.913C77.2554 160 77.1142 160.122 76.9812 160.279C76.8981 160.384 76.7901 160.541 76.6572 160.75C76.5408 160.924 76.4494 161.063 76.3829 161.168C76.3331 161.255 76.2334 161.386 76.0838 161.56ZM76.5574 153.222C76.4411 153.082 76.2749 152.891 76.0589 152.647C75.8594 152.403 75.7099 152.211 75.6102 152.072L75.4855 152.255C75.1697 152.673 74.9038 152.995 74.6878 153.222H76.5574ZM76.5574 159.913H74.7626C74.8623 160.053 75.0119 160.244 75.2113 160.488C75.4273 160.732 75.5852 160.924 75.6849 161.063C75.8013 160.872 75.9924 160.61 76.2583 160.279L76.5574 159.913ZM73.3417 159.103C73.2752 158.981 73.1755 158.798 73.0425 158.554C72.76 158.066 72.5522 157.674 72.4193 157.378L71.9457 158.763C72.2282 158.885 72.6935 158.998 73.3417 159.103ZM78.801 157.378L77.8787 159.103L79.2747 158.842C79.2082 158.493 79.0503 158.005 78.801 157.378ZM72.4193 155.757L73.3417 154.032L71.9457 154.267L72.0454 154.607C72.1617 155.113 72.2863 155.496 72.4193 155.757ZM77.8787 154.032C77.9784 154.259 78.1279 154.537 78.3274 154.869C78.5434 155.182 78.7013 155.452 78.801 155.679C79.0171 155.017 79.1749 154.555 79.2747 154.294C78.8758 154.276 78.4105 154.189 77.8787 154.032Z" fill="#519ABA"/>
</g>
<rect x="89.3933" y="178.442" width="31.0135" height="7.28333" rx="3.64167" fill="#333333"/>
<g clip-path="url(#clip1_1071_91930)">
<path d="M80.2967 184.83C80.2967 184.882 80.2967 184.952 80.2967 185.039C80.3964 186.102 80.4463 186.904 80.4463 187.444C80.4463 187.966 80.3217 188.402 80.0724 188.751C79.8231 189.099 79.5073 189.291 79.1251 189.326C78.7428 189.413 78.3274 189.361 77.8787 189.169C77.5463 188.995 77.0809 188.698 76.4827 188.28C76.1004 188.019 75.8096 187.827 75.6102 187.705C75.095 188.141 74.6795 188.463 74.3637 188.672C74.0978 188.864 73.8402 189.003 73.5909 189.09C73.1256 189.3 72.6935 189.369 72.2947 189.3C71.8958 189.212 71.5717 189.003 71.3224 188.672C71.0898 188.341 70.9651 187.905 70.9485 187.365C70.9485 186.825 70.9984 185.954 71.0981 184.751C70.4666 184.542 69.9929 184.324 69.6772 184.098C69.2617 183.889 68.8462 183.566 68.4307 183.131C68.0983 182.765 67.9405 182.373 67.9571 181.955C67.9737 181.519 68.1648 181.118 68.5304 180.752C68.7963 180.421 69.1537 180.142 69.6024 179.916C69.8683 179.759 70.2837 179.576 70.8488 179.367C70.882 179.367 70.9319 179.358 70.9984 179.341C71.0815 179.306 71.1396 179.288 71.1729 179.288L70.9485 177.485C70.9319 177.102 70.9817 176.587 71.0981 175.943C71.2144 175.49 71.4471 175.167 71.7961 174.976C72.1617 174.784 72.5772 174.749 73.0425 174.871C73.458 174.976 73.8735 175.167 74.2889 175.446C74.5881 175.638 74.9288 175.908 75.311 176.256C75.3775 176.291 75.4523 176.37 75.5354 176.492L75.6102 176.596C76.4411 175.934 77.0892 175.463 77.5546 175.185C78.0864 174.819 78.6099 174.714 79.1251 174.871C79.5073 174.958 79.8065 175.176 80.0225 175.524C80.2552 175.856 80.3964 176.291 80.4463 176.831V178.138C80.4463 178.313 80.4047 178.574 80.3217 178.923C80.2718 179.149 80.2302 179.323 80.197 179.445C80.6623 179.602 81.1027 179.794 81.5182 180.02C81.9503 180.229 82.2578 180.404 82.4406 180.543C82.7563 180.77 83.0056 181.031 83.1884 181.327C83.3712 181.606 83.4627 181.902 83.4627 182.216C83.4627 182.53 83.3712 182.835 83.1884 183.131C83.0056 183.41 82.7563 183.662 82.4406 183.889C82.2412 184.028 81.9337 184.211 81.5182 184.438C81.2191 184.49 80.8036 184.621 80.2718 184.83H80.2967ZM75.7597 184.751C75.8428 184.751 75.9758 184.743 76.1586 184.725C76.4079 184.69 76.5907 184.673 76.707 184.673C76.9231 184.673 77.1059 184.56 77.2554 184.333C77.7706 183.462 78.1279 182.782 78.3274 182.294C78.3772 182.225 78.4022 182.138 78.4022 182.033C78.4022 181.928 78.3772 181.859 78.3274 181.824C78.0781 181.319 77.6875 180.639 77.1557 179.785C77.0892 179.611 76.9646 179.524 76.7818 179.524C75.901 179.524 75.2279 179.498 74.7626 179.445C74.3471 179.445 74.0313 179.637 73.8153 180.02C73.6159 180.351 73.458 180.622 73.3417 180.831L72.9927 181.51C72.8431 181.737 72.7517 181.902 72.7184 182.007C72.7018 182.094 72.7018 182.19 72.7184 182.294C72.7517 182.382 72.8431 182.547 72.9927 182.791L73.3417 183.444L73.6408 183.967C73.807 184.246 73.9233 184.42 73.9898 184.49C74.0895 184.612 74.2058 184.682 74.3388 184.699C74.4385 184.717 74.6462 184.725 74.962 184.725L75.7597 184.751ZM71.2477 184.098C71.5634 183.227 71.7961 182.599 71.9457 182.216V181.902L71.2477 180.02C70.317 180.317 69.5941 180.665 69.0789 181.066C68.7132 181.362 68.5304 181.684 68.5304 182.033C68.5304 182.364 68.7132 182.669 69.0789 182.948C69.3448 183.244 69.6855 183.488 70.1009 183.68C70.3502 183.802 70.7325 183.941 71.2477 184.098ZM80.0474 179.942C79.848 180.43 79.5904 181.109 79.2747 181.981L79.2497 182.059C79.2331 182.111 79.2414 182.138 79.2747 182.138C79.5904 183.009 79.848 183.715 80.0474 184.255C80.2469 184.15 80.5543 183.985 80.9698 183.758C81.5182 183.497 81.9088 183.288 82.1414 183.131C82.5735 182.835 82.7896 182.504 82.7896 182.138C82.7896 181.772 82.5818 181.449 82.1664 181.17C81.8838 180.909 81.4268 180.622 80.7953 180.308C80.4463 180.151 80.197 180.029 80.0474 179.942ZM71.7213 179.105C72.5522 179.018 73.2004 178.914 73.6657 178.792C73.699 178.792 73.7322 178.774 73.7654 178.74L73.8153 178.713C74.1144 178.278 74.5299 177.729 75.0617 177.067C74.6462 176.701 74.3305 176.431 74.1144 176.256C73.7488 175.96 73.3915 175.742 73.0425 175.603C72.6104 175.446 72.2614 175.455 71.9955 175.629C71.7296 175.786 71.5551 176.108 71.472 176.596C71.4388 176.927 71.4471 177.311 71.4969 177.746C71.5302 178.008 71.5967 178.417 71.6964 178.975L71.7213 179.105ZM79.499 179.105C79.499 179.088 79.5073 179.044 79.5239 178.975C79.5572 178.888 79.5738 178.827 79.5738 178.792C79.6901 178.252 79.7483 177.833 79.7483 177.537C79.7815 177.049 79.7234 176.622 79.5738 176.256C79.5073 175.978 79.3827 175.777 79.1999 175.655C79.0171 175.533 78.8093 175.49 78.5767 175.524C78.1612 175.594 77.754 175.768 77.3552 176.047C77.1059 176.204 76.7652 176.492 76.3331 176.91L76.1586 177.067C76.4245 177.45 76.815 177.973 77.3302 178.635L77.5546 178.87L79.499 179.132V179.105ZM71.7213 184.987C71.7047 185.091 71.6797 185.239 71.6465 185.431C71.5468 185.919 71.4886 186.276 71.472 186.503C71.4388 186.904 71.472 187.278 71.5717 187.627C71.6382 188.027 71.7961 188.306 72.0454 188.463C72.3113 188.62 72.6437 188.637 73.0425 188.515C73.3749 188.411 73.7156 188.237 74.0646 187.993C74.264 187.836 74.5548 187.583 74.9371 187.235L75.1365 187.052C74.8374 186.616 74.4219 186.067 73.8901 185.405C73.7904 185.3 73.7156 185.248 73.6657 185.248C73.0674 185.248 72.4193 185.161 71.7213 184.987ZM76.0838 187.052C76.2998 187.348 76.6156 187.653 77.0311 187.966C77.4133 188.263 77.7706 188.472 78.103 188.594C78.934 188.855 79.4242 188.559 79.5738 187.705C79.6403 187.322 79.6569 186.904 79.6237 186.45C79.607 186.172 79.5489 185.753 79.4492 185.196L79.4242 185.091L78.9257 185.144C78.2277 185.196 77.7208 185.283 77.405 185.405C77.2554 185.492 77.1142 185.614 76.9812 185.771C76.8981 185.875 76.7901 186.032 76.6572 186.241C76.5408 186.416 76.4494 186.555 76.3829 186.66C76.3331 186.747 76.2334 186.877 76.0838 187.052ZM76.5574 178.713C76.4411 178.574 76.2749 178.382 76.0589 178.138C75.8594 177.894 75.7099 177.703 75.6102 177.563L75.4855 177.746C75.1697 178.164 74.9038 178.487 74.6878 178.713H76.5574ZM76.5574 185.405H74.7626C74.8623 185.544 75.0119 185.736 75.2113 185.98C75.4273 186.224 75.5852 186.416 75.6849 186.555C75.8013 186.363 75.9924 186.102 76.2583 185.771L76.5574 185.405ZM73.3417 184.595C73.2752 184.473 73.1755 184.29 73.0425 184.046C72.76 183.558 72.5522 183.166 72.4193 182.869L71.9457 184.255C72.2282 184.377 72.6935 184.49 73.3417 184.595ZM78.801 182.869L77.8787 184.595L79.2747 184.333C79.2082 183.985 79.0503 183.497 78.801 182.869ZM72.4193 181.249L73.3417 179.524L71.9457 179.759L72.0454 180.099C72.1617 180.604 72.2863 180.987 72.4193 181.249ZM77.8787 179.524C77.9784 179.75 78.1279 180.029 78.3274 180.36C78.5434 180.674 78.7013 180.944 78.801 181.17C79.0171 180.508 79.1749 180.046 79.2747 179.785C78.8758 179.768 78.4105 179.681 77.8787 179.524Z" fill="#519ABA"/>
</g>
<rect x="89.3933" y="203.933" width="40.1351" height="7.28333" rx="3.64167" fill="#333333"/>
<g clip-path="url(#clip2_1071_91930)">
<path d="M80.2967 210.321C80.2967 210.374 80.2967 210.443 80.2967 210.531C80.3964 211.594 80.4463 212.395 80.4463 212.935C80.4463 213.458 80.3217 213.894 80.0724 214.242C79.8231 214.591 79.5073 214.782 79.1251 214.817C78.7428 214.904 78.3274 214.852 77.8787 214.66C77.5463 214.486 77.0809 214.19 76.4827 213.772C76.1004 213.51 75.8096 213.319 75.6102 213.197C75.095 213.632 74.6795 213.955 74.3637 214.164C74.0978 214.356 73.8402 214.495 73.5909 214.582C73.1256 214.791 72.6935 214.861 72.2947 214.791C71.8958 214.704 71.5717 214.495 71.3224 214.164C71.0898 213.833 70.9651 213.397 70.9485 212.857C70.9485 212.317 70.9984 211.445 71.0981 210.243C70.4666 210.034 69.9929 209.816 69.6772 209.59C69.2617 209.38 68.8462 209.058 68.4307 208.622C68.0983 208.257 67.9405 207.864 67.9571 207.446C67.9737 207.011 68.1648 206.61 68.5304 206.244C68.7963 205.913 69.1537 205.634 69.6024 205.407C69.8683 205.251 70.2837 205.068 70.8488 204.859C70.882 204.859 70.9319 204.85 70.9984 204.832C71.0815 204.798 71.1396 204.78 71.1729 204.78L70.9485 202.977C70.9319 202.593 70.9817 202.079 71.0981 201.434C71.2144 200.981 71.4471 200.659 71.7961 200.467C72.1617 200.276 72.5772 200.241 73.0425 200.363C73.458 200.467 73.8735 200.659 74.2889 200.938C74.5881 201.129 74.9288 201.399 75.311 201.748C75.3775 201.783 75.4523 201.861 75.5354 201.983L75.6102 202.088C76.4411 201.426 77.0892 200.955 77.5546 200.676C78.0864 200.31 78.6099 200.206 79.1251 200.363C79.5073 200.45 79.8065 200.668 80.0225 201.016C80.2552 201.347 80.3964 201.783 80.4463 202.323V203.63C80.4463 203.804 80.4047 204.066 80.3217 204.414C80.2718 204.641 80.2302 204.815 80.197 204.937C80.6623 205.094 81.1027 205.285 81.5182 205.512C81.9503 205.721 82.2578 205.895 82.4406 206.035C82.7563 206.261 83.0056 206.523 83.1884 206.819C83.3712 207.098 83.4627 207.394 83.4627 207.708C83.4627 208.021 83.3712 208.326 83.1884 208.622C83.0056 208.901 82.7563 209.154 82.4406 209.38C82.2412 209.52 81.9337 209.703 81.5182 209.929C81.2191 209.982 80.8036 210.112 80.2718 210.321H80.2967ZM75.7597 210.243C75.8428 210.243 75.9758 210.234 76.1586 210.217C76.4079 210.182 76.5907 210.165 76.707 210.165C76.9231 210.165 77.1059 210.051 77.2554 209.825C77.7706 208.954 78.1279 208.274 78.3274 207.786C78.3772 207.716 78.4022 207.629 78.4022 207.525C78.4022 207.42 78.3772 207.35 78.3274 207.316C78.0781 206.81 77.6875 206.131 77.1557 205.277C77.0892 205.102 76.9646 205.015 76.7818 205.015C75.901 205.015 75.2279 204.989 74.7626 204.937C74.3471 204.937 74.0313 205.129 73.8153 205.512C73.6159 205.843 73.458 206.113 73.3417 206.322L72.9927 207.002C72.8431 207.228 72.7517 207.394 72.7184 207.499C72.7018 207.586 72.7018 207.681 72.7184 207.786C72.7517 207.873 72.8431 208.039 72.9927 208.283L73.3417 208.936L73.6408 209.459C73.807 209.738 73.9233 209.912 73.9898 209.982C74.0895 210.104 74.2058 210.173 74.3388 210.191C74.4385 210.208 74.6462 210.217 74.962 210.217L75.7597 210.243ZM71.2477 209.59C71.5634 208.718 71.7961 208.091 71.9457 207.708V207.394L71.2477 205.512C70.317 205.808 69.5941 206.157 69.0789 206.558C68.7132 206.854 68.5304 207.176 68.5304 207.525C68.5304 207.856 68.7132 208.161 69.0789 208.439C69.3448 208.736 69.6855 208.98 70.1009 209.171C70.3502 209.293 70.7325 209.433 71.2477 209.59ZM80.0474 205.434C79.848 205.921 79.5904 206.601 79.2747 207.472L79.2497 207.551C79.2331 207.603 79.2414 207.629 79.2747 207.629C79.5904 208.5 79.848 209.206 80.0474 209.746C80.2469 209.642 80.5543 209.476 80.9698 209.25C81.5182 208.988 81.9088 208.779 82.1414 208.622C82.5735 208.326 82.7896 207.995 82.7896 207.629C82.7896 207.263 82.5818 206.941 82.1664 206.662C81.8838 206.401 81.4268 206.113 80.7953 205.799C80.4463 205.643 80.197 205.521 80.0474 205.434ZM71.7213 204.597C72.5522 204.51 73.2004 204.405 73.6657 204.283C73.699 204.283 73.7322 204.266 73.7654 204.231L73.8153 204.205C74.1144 203.769 74.5299 203.22 75.0617 202.558C74.6462 202.192 74.3305 201.922 74.1144 201.748C73.7488 201.452 73.3915 201.234 73.0425 201.095C72.6104 200.938 72.2614 200.946 71.9955 201.121C71.7296 201.278 71.5551 201.6 71.472 202.088C71.4388 202.419 71.4471 202.802 71.4969 203.238C71.5302 203.499 71.5967 203.909 71.6964 204.466L71.7213 204.597ZM79.499 204.597C79.499 204.58 79.5073 204.536 79.5239 204.466C79.5572 204.379 79.5738 204.318 79.5738 204.283C79.6901 203.743 79.7483 203.325 79.7483 203.029C79.7815 202.541 79.7234 202.114 79.5738 201.748C79.5073 201.469 79.3827 201.269 79.1999 201.147C79.0171 201.025 78.8093 200.981 78.5767 201.016C78.1612 201.086 77.754 201.26 77.3552 201.539C77.1059 201.696 76.7652 201.983 76.3331 202.401L76.1586 202.558C76.4245 202.942 76.815 203.464 77.3302 204.127L77.5546 204.362L79.499 204.623V204.597ZM71.7213 210.478C71.7047 210.583 71.6797 210.731 71.6465 210.923C71.5468 211.411 71.4886 211.768 71.472 211.994C71.4388 212.395 71.472 212.77 71.5717 213.118C71.6382 213.519 71.7961 213.798 72.0454 213.955C72.3113 214.112 72.6437 214.129 73.0425 214.007C73.3749 213.902 73.7156 213.728 74.0646 213.484C74.264 213.327 74.5548 213.075 74.9371 212.726L75.1365 212.543C74.8374 212.108 74.4219 211.559 73.8901 210.897C73.7904 210.792 73.7156 210.74 73.6657 210.74C73.0674 210.74 72.4193 210.653 71.7213 210.478ZM76.0838 212.543C76.2998 212.84 76.6156 213.144 77.0311 213.458C77.4133 213.754 77.7706 213.963 78.103 214.085C78.934 214.347 79.4242 214.051 79.5738 213.197C79.6403 212.813 79.6569 212.395 79.6237 211.942C79.607 211.663 79.5489 211.245 79.4492 210.687L79.4242 210.583L78.9257 210.635C78.2277 210.687 77.7208 210.775 77.405 210.897C77.2554 210.984 77.1142 211.106 76.9812 211.262C76.8981 211.367 76.7901 211.524 76.6572 211.733C76.5408 211.907 76.4494 212.047 76.3829 212.151C76.3331 212.238 76.2334 212.369 76.0838 212.543ZM76.5574 204.205C76.4411 204.066 76.2749 203.874 76.0589 203.63C75.8594 203.386 75.7099 203.194 75.6102 203.055L75.4855 203.238C75.1697 203.656 74.9038 203.979 74.6878 204.205H76.5574ZM76.5574 210.897H74.7626C74.8623 211.036 75.0119 211.228 75.2113 211.472C75.4273 211.716 75.5852 211.907 75.6849 212.047C75.8013 211.855 75.9924 211.594 76.2583 211.262L76.5574 210.897ZM73.3417 210.086C73.2752 209.964 73.1755 209.781 73.0425 209.537C72.76 209.049 72.5522 208.657 72.4193 208.361L71.9457 209.746C72.2282 209.868 72.6935 209.982 73.3417 210.086ZM78.801 208.361L77.8787 210.086L79.2747 209.825C79.2082 209.476 79.0503 208.988 78.801 208.361ZM72.4193 206.74L73.3417 205.015L71.9457 205.251L72.0454 205.59C72.1617 206.096 72.2863 206.479 72.4193 206.74ZM77.8787 205.015C77.9784 205.242 78.1279 205.521 78.3274 205.852C78.5434 206.165 78.7013 206.436 78.801 206.662C79.0171 206 79.1749 205.538 79.2747 205.277C78.8758 205.259 78.4105 205.172 77.8787 205.015Z" fill="#519ABA"/>
</g>
<rect x="89.3933" y="331.391" width="49.2568" height="7.28333" rx="3.64167" fill="#333333"/>
<g clip-path="url(#clip3_1071_91930)">
<ellipse cx="72.5167" cy="332.3" rx="4.56081" ry="4.55208" fill="#A06BC7"/>
<rect x="73.4302" y="332.299" width="10.945" height="10.9275" fill="#A06BC7" stroke="#191919" stroke-width="1.82338"/>
</g>
<rect x="89.3933" y="356.883" width="40.1351" height="7.28333" rx="3.64167" fill="#333333"/>
<g clip-path="url(#clip4_1071_91930)">
<ellipse cx="72.5167" cy="357.794" rx="4.56081" ry="4.55208" fill="#A06BC7"/>
<rect x="73.4302" y="357.793" width="10.945" height="10.9275" fill="#A06BC7" stroke="#191919" stroke-width="1.82338"/>
</g>
<rect x="54.7281" y="25.4916" width="102.162" height="7.28333" rx="3.64167" fill="#333333"/>
<defs>
<clipPath id="clip0_1071_91930">
<rect width="16.4189" height="14.5667" fill="white" transform="translate(67.5 149.308)"/>
</clipPath>
<clipPath id="clip1_1071_91930">
<rect width="16.4189" height="14.5667" fill="white" transform="translate(67.5 174.8)"/>
</clipPath>
<clipPath id="clip2_1071_91930">
<rect width="16.4189" height="14.5667" fill="white" transform="translate(67.5 200.292)"/>
</clipPath>
<clipPath id="clip3_1071_91930">
<rect width="16.4189" height="14.5667" fill="white" transform="translate(67.5 327.749)"/>
</clipPath>
<clipPath id="clip4_1071_91930">
<rect width="16.4189" height="14.5667" fill="white" transform="translate(67.5 353.242)"/>
</clipPath>
</defs>
</svg>
