<svg width="944" height="402" viewBox="0 0 944 402" fill="none" xmlns="http://www.w3.org/2000/svg">
<rect x="417.28" y="113.941" width="109.44" height="109.358" fill="#1A1A1A" stroke="#666666" stroke-width="0.611399" stroke-dasharray="3.06 3.06"/>
<rect x="441.43" y="138.073" width="61.1399" height="61.0942" fill="white"/>
<ellipse cx="472" cy="168.62" rx="17.1192" ry="17.1064" fill="black"/>
<rect x="465.275" y="161.9" width="13.4508" height="13.4407" fill="white"/>
<path d="M863.295 128.298C863.295 137.737 855.636 145.399 846.176 145.399C836.716 145.399 829.057 137.737 829.057 128.298C829.057 118.858 836.716 111.197 846.176 111.197C855.636 111.197 863.295 118.858 863.295 128.298Z" stroke="#EE2B6C" stroke-width="14.6736"/>
<rect x="733.067" y="159.458" width="140.622" height="23.2112" rx="11.6056" stroke="white" stroke-width="6.11399"/>
<rect x="729.705" y="156.096" width="147.347" height="29.9357" stroke="#2B4BEE" stroke-width="0.611399"/>
<rect x="726.953" y="153.347" width="5.50259" height="5.49757" fill="white" stroke="#2B4BEE" stroke-width="1.2228"/>
<rect x="726.953" y="183.283" width="5.50259" height="5.49757" fill="white" stroke="#2B4BEE" stroke-width="1.2228"/>
<rect x="874.301" y="153.347" width="5.50259" height="5.49757" fill="white" stroke="#2B4BEE" stroke-width="1.2228"/>
<rect x="874.301" y="183.283" width="5.50259" height="5.49757" fill="white" stroke="#2B4BEE" stroke-width="1.2228"/>
<rect x="760.58" y="152.736" width="22.0104" height="85.5319" transform="rotate(-180 760.58 152.736)" fill="#2B4BEE"/>
<path d="M36.0725 31.158C36.0725 35.541 32.5162 39.098 28.1243 39.098C23.7325 39.098 20.1762 35.541 20.1762 31.158C20.1762 26.7751 23.7325 23.2181 28.1243 23.2181C32.5162 23.2181 36.0725 26.7751 36.0725 31.158Z" fill="black" stroke="#9BDEFF" stroke-width="6.11399"/>
<line x1="594.28" y1="371.148" x2="349.72" y2="371.148" stroke="#666666" stroke-width="0.611399"/>
<rect x="352.777" y="373.896" width="5.50259" height="5.49757" transform="rotate(180 352.777 373.896)" fill="white" stroke="#2B4BEE" stroke-width="1.2228"/>
<rect x="596.725" y="373.896" width="5.50259" height="5.49757" transform="rotate(180 596.725 373.896)" fill="white" stroke="#2B4BEE" stroke-width="1.2228"/>
<path d="M320.373 265.149C320.373 265.149 355.198 370.842 472 370.842C588.802 370.842 623.627 265.149 623.627 265.149" stroke="white" stroke-width="2.4456" stroke-linecap="round"/>
<path d="M320.373 265.149C320.373 265.149 355.198 370.842 472 370.842C588.802 370.842 623.627 265.149 623.627 265.149" stroke="#666666" stroke-width="0.611399" stroke-linecap="round"/>
<path d="M476.891 370.842C476.891 373.54 474.702 375.729 472 375.729C469.298 375.729 467.109 373.54 467.109 370.842C467.109 368.144 469.298 365.955 472 365.955C474.702 365.955 476.891 368.144 476.891 370.842Z" fill="#2B4BEE" stroke="white" stroke-width="2.4456"/>
<path d="M324.041 265.149C324.041 267.172 322.4 268.814 320.373 268.814C318.346 268.814 316.705 267.172 316.705 265.149C316.705 263.126 318.346 261.484 320.373 261.484C322.4 261.484 324.041 263.126 324.041 265.149Z" fill="white" stroke="#2B4BEE" stroke-width="2.4456"/>
<path d="M627.295 265.149C627.295 267.172 625.654 268.814 623.627 268.814C621.6 268.814 619.959 267.172 619.959 265.149C619.959 263.126 621.6 261.484 623.627 261.484C625.654 261.484 627.295 263.126 627.295 265.149Z" fill="white" stroke="#2B4BEE" stroke-width="2.4456"/>
<g clip-path="url(#clip0_2127_91707)">
<circle cx="832.725" cy="386.158" r="9.78238" stroke="white" stroke-width="4.89119"/>
<rect x="722.122" y="381.977" width="220.104" height="12.228" transform="rotate(-12.4882 722.122 381.977)" fill="white"/>
<rect x="721.758" y="381.745" width="220.715" height="12.8394" transform="rotate(-12.4882 721.758 381.745)" stroke="#2B4BEE" stroke-width="0.611399"/>
<rect x="718.476" y="379.654" width="5.50259" height="5.50259" transform="rotate(-12.4882 718.476 379.654)" fill="white" stroke="#2B4BEE" stroke-width="1.2228"/>
<rect x="721.251" y="392.189" width="5.50259" height="5.50259" transform="rotate(-12.4882 721.251 392.189)" fill="white" stroke="#2B4BEE" stroke-width="1.2228"/>
<rect x="933.968" y="331.927" width="5.50259" height="5.50259" transform="rotate(-12.4882 933.968 331.927)" fill="white" stroke="#2B4BEE" stroke-width="1.2228"/>
<rect x="936.745" y="344.462" width="5.50259" height="5.50259" transform="rotate(-12.4882 936.745 344.462)" fill="white" stroke="#2B4BEE" stroke-width="1.2228"/>
<circle cx="737.347" cy="357.422" r="17.1192" fill="#00CC76"/>
</g>
<rect width="17.1068" height="73.3662" transform="matrix(0.173774 0.984786 0.98483 -0.173522 287.649 65.1456)" fill="white"/>
<rect x="0.354185" y="0.248003" width="17.7173" height="73.9776" transform="matrix(0.173774 0.984786 0.98483 -0.173522 286.99 64.5923)" stroke="#2B4BEE" stroke-width="0.611399"/>
<rect x="0.708369" y="0.496006" width="5.50244" height="5.49772" transform="matrix(0.98483 -0.173522 0.173774 0.984786 283.325 62.3027)" fill="white" stroke="#2B4BEE" stroke-width="1.2228"/>
<rect x="0.708369" y="0.496006" width="5.50244" height="5.49772" transform="matrix(0.98483 -0.173522 0.173774 0.984786 286.403 79.7507)" fill="white" stroke="#2B4BEE" stroke-width="1.2228"/>
<rect x="0.708369" y="0.496006" width="5.50244" height="5.49772" transform="matrix(0.98483 -0.173522 0.173774 0.984786 356.179 49.4658)" fill="white" stroke="#2B4BEE" stroke-width="1.2228"/>
<rect x="0.708369" y="0.496006" width="5.50244" height="5.49772" transform="matrix(0.98483 -0.173522 0.173774 0.984786 359.26 66.9141)" fill="white" stroke="#2B4BEE" stroke-width="1.2228"/>
<line y1="-0.3057" x2="97.7691" y2="-0.3057" transform="matrix(-0.50028 -0.865864 0.866187 -0.49972 214.255 104.796)" stroke="#666666" stroke-width="0.611399"/>
<rect x="0.223715" y="-0.834916" width="5.49882" height="5.50134" transform="matrix(-0.50028 -0.865864 0.866187 -0.49972 165.059 24.0906)" fill="white" stroke="#2B4BEE" stroke-width="1.2228"/>
<rect x="0.223715" y="-0.834916" width="5.49882" height="5.50134" transform="matrix(-0.50028 -0.865864 0.866187 -0.49972 213.666 108.216)" fill="white" stroke="#2B4BEE" stroke-width="1.2228"/>
<path d="M4.89119 4.88754C4.89119 4.88754 4.89119 47.6535 55.6368 90.4195C106.382 133.185 215.212 106.915 190.145 64.1489C165.077 21.383 55.6368 72.0912 131.451 221.772" stroke="white" stroke-width="2.4456" stroke-linecap="round"/>
<path d="M4.89119 4.88754C4.89119 4.88754 4.89119 47.6535 55.6368 90.4195C106.382 133.185 215.212 106.915 190.145 64.1489C165.077 21.383 55.6368 72.0912 131.451 221.772" stroke="#666666" stroke-width="0.611399" stroke-linecap="round"/>
<path d="M8.55959 4.88754C8.55959 6.91066 6.91805 8.55228 4.89119 8.55228C2.86433 8.55228 1.2228 6.91066 1.2228 4.88754C1.2228 2.86442 2.86433 1.2228 4.89119 1.2228C6.91805 1.2228 8.55959 2.86442 8.55959 4.88754Z" fill="white" stroke="#2B4BEE" stroke-width="2.4456"/>
<path d="M134.508 220.55C134.508 222.573 132.866 224.215 130.839 224.215C128.813 224.215 127.171 222.573 127.171 220.55C127.171 218.527 128.813 216.885 130.839 216.885C132.866 216.885 134.508 218.527 134.508 220.55Z" fill="white" stroke="#2B4BEE" stroke-width="2.4456"/>
<path d="M194.425 62.3161C194.425 65.0141 192.236 67.2027 189.534 67.2027C186.831 67.2027 184.642 65.0141 184.642 62.3161C184.642 59.6182 186.831 57.4295 189.534 57.4295C192.236 57.4295 194.425 59.6182 194.425 62.3161Z" fill="#2B4BEE" stroke="white" stroke-width="2.4456"/>
<g clip-path="url(#clip1_2127_91707)">
<rect x="101.472" y="333.01" width="149.793" height="20.1762" rx="10.0881" transform="rotate(20 101.472 333.01)" stroke="#EE2B6C" stroke-width="1.8342"/>
<circle cx="107.501" cy="345.94" r="6.11399" transform="rotate(20 107.501 345.94)" stroke="white" stroke-width="2.4456"/>
<circle cx="107.501" cy="345.94" r="2.4456" transform="rotate(20 107.501 345.94)" fill="white"/>
<circle cx="229.301" cy="390.271" r="6.11399" transform="rotate(20 229.301 390.271)" stroke="white" stroke-width="2.4456"/>
<circle cx="229.301" cy="390.271" r="2.4456" transform="rotate(20 229.301 390.271)" fill="white"/>
<rect x="3.36271" y="368.729" width="118.611" height="29.9586" stroke="#2B4BEE" stroke-width="0.611399"/>
<rect x="6.72539" y="372.092" width="111.886" height="23.2332" rx="11.6166" stroke="white" stroke-width="6.11399"/>
<rect x="0.611399" y="365.978" width="5.50259" height="5.50259" fill="white" stroke="#2B4BEE" stroke-width="1.2228"/>
<rect x="0.611399" y="395.936" width="5.50259" height="5.50259" fill="white" stroke="#2B4BEE" stroke-width="1.2228"/>
<rect x="119.223" y="365.978" width="5.50259" height="5.50259" fill="white" stroke="#2B4BEE" stroke-width="1.2228"/>
<rect x="119.223" y="395.936" width="5.50259" height="5.50259" fill="white" stroke="#2B4BEE" stroke-width="1.2228"/>
</g>
<defs>
<clipPath id="clip0_2127_91707">
<rect width="226.218" height="68.4255" fill="white" transform="translate(717.782 329.909)"/>
</clipPath>
<clipPath id="clip1_2127_91707">
<rect width="240.28" height="67.2037" fill="white" transform="translate(0 334.796)"/>
</clipPath>
</defs>
</svg>
