<svg width="179" height="44" viewBox="0 0 179 44" fill="none" xmlns="http://www.w3.org/2000/svg">
<g clip-path="url(#clip0_5411_155896)">
<path d="M46.8496 32.0297H55.059C59.8398 32.0297 62.8594 29.6712 62.8594 26.0403C62.8594 23.3403 61.6642 21.4162 58.0786 20.5784C60.7835 19.5853 61.6327 18.0956 61.6327 16.0164C61.6327 12.6337 59.0535 10.3062 54.2727 10.3062H46.8496V32.0297ZM51.2532 28.1195V22.8128H54.6502C57.0406 22.8128 58.3931 23.7747 58.3931 25.3576C58.3931 27.2505 57.0406 28.1195 54.6502 28.1195H51.2532ZM51.2532 19.2749V14.1854H53.8637C56.2542 14.1854 57.1664 15.2095 57.1664 16.6991C57.1664 18.437 56.2542 19.2749 53.8637 19.2749H51.2532ZM66.2634 38.5157C70.1007 38.5157 72.1452 36.3124 73.5292 33.0539L80.7635 15.8923H75.7309L72.5541 25.1092C72.271 25.8851 72.0195 26.8471 71.8621 27.6851C71.7048 26.8471 71.4532 25.8851 71.1702 25.1092L67.9933 15.8923H62.8664L69.3459 31.2848L69.1256 31.9676C68.654 33.3952 67.6159 34.4194 65.9804 34.4194C65.2883 34.4194 64.6908 34.3573 64.0616 34.202L63.4326 38.2054C64.2819 38.4537 65.4141 38.5157 66.2634 38.5157Z" fill="white"/>
<path d="M89.0986 32.0566H91.4225V28.3391H89.6639C88.8474 28.3391 88.3449 27.8745 88.3449 26.8522V19.51H91.7994V15.9474H88.3449V12.2609L84.1052 12.6946V15.9474H81.8125V19.51H84.1052V27.069C84.1052 30.5696 85.8638 32.0566 89.0986 32.0566ZM100.607 32.4593C103.842 32.4593 106.575 31.0343 107.893 29.0207L104.596 26.5734C103.842 27.8125 102.429 28.7419 100.607 28.7419C98.4719 28.7419 97.0272 27.4098 96.5561 25.5201H108.773C108.867 24.9934 108.899 24.4976 108.899 24.0329C108.899 19.3861 105.507 15.5447 100.607 15.5447C95.7081 15.5447 92.1594 19.3861 92.1594 24.0329C92.1594 28.6799 95.5511 32.4593 100.607 32.4593ZM96.5561 22.3911C97.0272 20.4704 98.5347 19.1383 100.545 19.1383C102.617 19.1383 104.156 20.5943 104.627 22.3911H96.5561ZM120.15 32.4593C124.641 32.4593 128.221 28.7109 128.221 24.0639C128.221 19.4171 124.641 15.6066 120.15 15.6066C117.355 15.6066 115.879 16.7219 114.999 18.4258V9.44177H110.76V32.0566H114.874V29.4234C115.753 31.2511 117.229 32.4593 120.15 32.4593ZM114.874 24.0639C114.874 21.5547 116.664 19.3861 119.459 19.3861C122.16 19.3861 123.981 21.5237 123.981 24.0329C123.981 26.4804 122.16 28.6799 119.459 28.6799C116.664 28.6799 114.874 26.5734 114.874 24.0639ZM137.402 32.4593C140.323 32.4593 141.799 31.2511 142.678 29.4234V32.0566H146.792V15.9474H142.584V18.4877C141.705 16.7529 140.228 15.6066 137.402 15.6066C132.911 15.6066 129.331 19.4171 129.331 24.0639C129.331 28.7109 132.911 32.4593 137.402 32.4593ZM133.57 24.0329C133.57 21.5237 135.392 19.3861 138.093 19.3861C140.888 19.3861 142.678 21.5547 142.678 24.0639C142.678 26.5734 140.888 28.6799 138.093 28.6799C135.392 28.6799 133.57 26.4804 133.57 24.0329ZM154.901 32.4593C158.513 32.4593 161.245 30.2288 161.245 27.2549C161.245 24.8384 160.146 23.1036 155.404 21.8954C153.457 21.3998 153.205 20.9041 153.205 20.3465C153.205 19.3551 154.085 18.9214 155.247 18.9214C156.346 18.9214 157.351 19.4171 158.136 20.6563L161.214 18.3328C159.549 16.1953 157.791 15.5447 155.153 15.5447C151.321 15.5447 149.06 17.6513 149.06 20.4704C149.06 22.515 149.719 24.4666 154.085 25.4891C156.66 26.0777 157.068 26.5424 157.068 27.3788C157.068 28.3391 156.252 29.0516 154.807 29.0516C153.425 29.0516 152.169 28.4011 150.976 27.069L148.118 29.6402C149.908 31.5299 152.138 32.4593 154.901 32.4593ZM170.718 32.4593C173.953 32.4593 176.686 31.0343 178.004 29.0207L174.706 26.5734C173.953 27.8125 172.539 28.7419 170.718 28.7419C168.582 28.7419 167.138 27.4098 166.667 25.5201H178.883C178.978 24.9934 179.009 24.4976 179.009 24.0329C179.009 19.3861 175.618 15.5447 170.718 15.5447C165.819 15.5447 162.27 19.3861 162.27 24.0329C162.27 28.6799 165.662 32.4593 170.718 32.4593ZM166.667 22.3911C167.138 20.4704 168.645 19.1383 170.655 19.1383C172.728 19.1383 174.267 20.5943 174.738 22.3911H166.667Z" fill="white"/>
<path d="M11.0777 39.22C7.17502 37.4161 3.99869 34.3629 2.06049 30.5521C0.122312 26.7408 -0.464832 22.3941 0.393672 18.212C1.25218 14.0299 3.50634 10.2561 6.79291 7.49857C10.0795 4.7411 14.2071 3.16053 18.5105 3.01158C22.8141 2.86263 27.0428 4.154 30.5157 6.67754C33.9882 9.20111 36.5025 12.8099 37.6531 16.9225C38.8041 21.0351 38.5242 25.4117 36.859 29.3475C35.1937 33.2832 32.2399 36.5487 28.4738 38.6177L19.1797 22.0001L11.0777 39.22Z" fill="white"/>
<path d="M28.457 38.6278C25.8158 40.075 22.867 40.8841 19.8506 40.9884C16.8344 41.0929 13.8359 40.4902 11.0991 39.229L19.1813 21.9999L28.457 38.6278Z" fill="black"/>
<path d="M8.39502 14.1732H30.173V23.2931C30.173 25.6644 29.6108 27.4478 28.4861 28.6434C27.3818 29.8597 25.9506 30.4676 24.1918 30.4676C23.0672 30.4676 22.0856 30.1942 21.2472 29.647C20.4292 29.1198 19.8055 28.3903 19.3762 27.4582C18.9875 28.4712 18.3741 29.2718 17.5357 29.8597C16.6973 30.4676 15.7055 30.7717 14.5604 30.7717C12.6382 30.7717 11.1249 30.1637 10.0207 28.9476C8.93693 27.7317 8.39502 25.9785 8.39502 23.6884V14.1732ZM26.1549 18.4899H21.4313V23.2628C21.4313 24.1342 21.6255 24.8031 22.0139 25.2691C22.423 25.7556 23.016 25.9986 23.793 25.9986C24.4882 25.9986 25.0506 25.7658 25.4801 25.2998C25.9299 24.8538 26.1549 24.1747 26.1549 23.2628V18.4899ZM17.3823 18.4899H12.4132V23.5667C12.4132 24.4787 12.6279 25.1578 13.0574 25.6037C13.4868 26.0697 14.1003 26.3027 14.8978 26.3027C15.6544 26.3027 16.2576 26.0697 16.7075 25.6037C17.1574 25.1578 17.3823 24.4787 17.3823 23.5667V18.4899Z" fill="black"/>
</g>
<defs>
<clipPath id="clip0_5411_155896">
<rect width="179" height="44" fill="white"/>
</clipPath>
</defs>
</svg>
