<svg width="734" height="445" viewBox="0 0 734 445" fill="none" xmlns="http://www.w3.org/2000/svg">
<g clip-path="url(#clip0_2127_91704)">
<rect width="83.877" height="83.8831" rx="28" transform="matrix(0.865994 -0.500054 0.499946 0.866056 190 309.943)" fill="black" stroke="white" stroke-width="14"/>
<rect x="0.732096" y="-2.73222" width="151.783" height="23.959" rx="11.9795" transform="matrix(-0.499946 -0.866056 0.865994 -0.500054 542.958 140.434)" fill="black" stroke="#EE2B6C" stroke-width="4"/>
<rect width="348.457" height="43.9428" rx="21.9714" transform="matrix(0.800392 -0.599477 0.599545 0.800341 -8 295.8)" fill="#2B4BEE"/>
<ellipse cx="539.504" cy="267.705" rx="62.9055" ry="62.9146" fill="white"/>
<path d="M728.763 79.915C741.596 110.416 726.865 145.721 695.86 158.771C664.854 171.82 629.316 157.673 616.482 127.171L728.763 79.915Z" fill="#2B4BEE"/>
<path d="M611.923 364.385C615.694 359.875 622.88 360.837 625.332 366.181L655.291 431.481C657.918 437.208 653.203 443.583 646.958 442.746L570.917 432.562C564.673 431.726 561.8 424.335 565.841 419.501L611.923 364.385Z" fill="#EE2B6C"/>
<rect x="-0.732097" y="2.73222" width="148.787" height="23.959" rx="11.9795" transform="matrix(0.499946 0.866057 -0.865994 0.500054 340.945 176.82)" fill="black" stroke="white" stroke-width="4"/>
<path d="M460.533 380.561C462.912 397.491 451.118 413.144 434.191 415.523C417.264 417.903 401.613 406.107 399.234 389.177C396.855 372.247 408.649 356.595 425.576 354.215C442.503 351.836 458.154 363.631 460.533 380.561Z" stroke="#2B4BEE" stroke-width="4"/>
<rect width="31.9521" height="3.99456" rx="1.99728" transform="matrix(0.990265 -0.139193 0.139154 0.990271 412.396 375.226)" fill="white"/>
<rect width="23.9641" height="3.99456" rx="1.99728" transform="matrix(0.990265 -0.139193 0.139154 0.990271 413.787 385.116)" fill="white"/>
<rect width="31.9521" height="3.99456" rx="1.99728" transform="matrix(0.990265 -0.139193 0.139154 0.990271 415.174 395.004)" fill="white"/>
<path d="M157.661 40.9543C166.296 73.1851 147.171 106.314 114.945 114.951C82.7189 123.587 49.5944 104.46 40.9594 72.2288L157.661 40.9543Z" fill="white"/>
<rect width="69.8957" height="69.9044" rx="20" transform="matrix(0.967198 0.254023 -0.253954 0.967216 81.6929 363.632)" fill="#EE2B6C"/>
<path d="M90.4872 404.845L96.8181 415.424C97.0974 415.891 97.6987 416.049 98.1713 415.78L124.607 400.716" stroke="white" stroke-width="8" stroke-linecap="round"/>
<rect x="2.07277" y="3.70202" width="72.8824" height="72.892" rx="17" transform="matrix(0.962419 0.271567 -0.271495 0.96244 387.193 77.4931)" fill="black" stroke="white" stroke-width="6"/>
<path fill-rule="evenodd" clip-rule="evenodd" d="M405.523 141.502C405.074 143.094 406 144.749 407.593 145.199C409.185 145.648 410.84 144.721 411.289 143.129L414.813 130.634L427.305 134.159C428.897 134.608 430.552 133.682 431.002 132.089C431.451 130.497 430.524 128.842 428.932 128.392L416.44 124.868L419.965 112.372C420.414 110.78 419.487 109.125 417.895 108.676C416.303 108.227 414.648 109.153 414.199 110.745L410.674 123.241L398.181 119.715C396.588 119.266 394.933 120.193 394.484 121.785C394.035 123.377 394.962 125.033 396.554 125.482L409.047 129.007L405.523 141.502Z" fill="white"/>
<ellipse cx="330.706" cy="40.947" rx="19.97" ry="19.9729" fill="#EE2B6C"/>
</g>
<defs>
<clipPath id="clip0_2127_91704">
<rect width="734" height="445" fill="white"/>
</clipPath>
</defs>
</svg>
