<svg width="590" height="700" viewBox="0 0 590 700" fill="none" xmlns="http://www.w3.org/2000/svg">
<rect width="65.1355" height="65.1811" rx="28" transform="matrix(0.865722 -0.500525 0.499475 0.866328 156 425.412)" fill="black" stroke="white" stroke-width="14"/>
<rect x="0.732494" y="-2.73371" width="117.051" height="17.7118" rx="8.85591" transform="matrix(-0.499475 -0.866328 0.865722 -0.500525 403.927 112.271)" fill="black" stroke="#EE2B6C" stroke-width="4"/>
<rect width="270.604" height="34.1447" rx="17.0724" transform="matrix(0.635905 -0.771767 0.771061 0.636761 21 359.844)" fill="#2B4BEE"/>
<ellipse cx="124.821" cy="398.68" rx="15.8209" ry="15.8634" fill="white"/>
<rect width="24.5281" height="24.5826" rx="4" transform="matrix(0.95552 0.294928 -0.293486 0.955963 211.215 272.869)" fill="#EE2B6C"/>
<path d="M328.104 115.623C328.104 133.678 313.513 148.282 295.552 148.282C277.592 148.282 263 133.678 263 115.623C263 97.5688 277.592 82.9648 295.552 82.9648C313.513 82.9648 328.104 97.5688 328.104 115.623Z" stroke="#2B4BEE" stroke-width="14"/>
<ellipse cx="295.553" cy="126.204" rx="11.8657" ry="11.8975" fill="white"/>
<ellipse cx="316.866" cy="600.614" rx="11.8657" ry="11.8975" fill="#2B4BEE"/>
<ellipse cx="462.835" cy="365.751" rx="48.8345" ry="48.9029" fill="white"/>
<path d="M374.662 334.875C374.662 347.519 364.429 357.75 351.831 357.75C339.233 357.75 329 347.519 329 334.875C329 322.231 339.233 312 351.831 312C364.429 312 374.662 322.231 374.662 334.875Z" stroke="#EE2B6C" stroke-width="16"/>
<path d="M469.993 688.464C447.971 694.835 424.944 682.145 418.559 660.12C412.175 638.095 424.852 615.076 446.874 608.705L469.993 688.464Z" fill="white"/>
<rect width="134.511" height="22.2032" rx="11.1016" transform="matrix(0.790873 -0.61198 0.612965 0.79011 91 607.066)" fill="#EE2B6C"/>
<ellipse cx="439.657" cy="225.587" rx="12.6567" ry="12.6907" fill="#2B4BEE"/>
<rect x="527" y="325.844" width="45.8806" height="80.9033" rx="6" fill="#EE2B6C"/>
<path d="M571.96 132.76C581.923 156.469 570.487 183.911 546.417 194.054C522.348 204.197 494.758 193.2 484.795 169.492L571.96 132.76Z" fill="#2B4BEE"/>
<path d="M455.285 107.537C455.285 96.1696 464.468 87.0002 475.74 87.0002C487.012 87.0002 496.195 96.1696 496.195 107.537C496.195 118.905 487.012 128.074 475.74 128.074C464.468 128.074 455.285 118.905 455.285 107.537Z" stroke="white" stroke-width="20"/>
<path d="M508.181 458.977C511.951 454.462 519.143 455.426 521.594 460.775L542.324 506.016C544.948 511.742 540.234 518.113 533.991 517.276L481.376 510.22C475.133 509.383 472.259 501.995 476.295 497.161L508.181 458.977Z" fill="#EE2B6C"/>
<rect x="-1.69421" y="2.26572" width="140.057" height="17.7056" rx="8.85278" transform="matrix(0.142605 0.98978 -0.989711 0.143079 303.272 379.437)" fill="black" stroke="white" stroke-width="4"/>
<path d="M409.242 503.416C411.055 516.334 402.067 528.273 389.173 530.088C376.28 531.902 364.354 522.906 362.541 509.988C360.728 497.07 369.715 485.131 382.609 483.316C395.503 481.501 407.429 490.497 409.242 503.416Z" stroke="#2B4BEE" stroke-width="4"/>
<rect width="24.8055" height="3.10486" rx="1.55243" transform="matrix(0.990241 -0.139364 0.138982 0.990295 372.314 499.209)" fill="white"/>
<rect width="18.6041" height="3.10486" rx="1.55243" transform="matrix(0.990241 -0.139364 0.138982 0.990295 373.396 506.896)" fill="white"/>
<rect width="24.8055" height="3.10486" rx="1.55243" transform="matrix(0.990241 -0.139364 0.138982 0.990295 374.472 514.582)" fill="white"/>
<path d="M90.597 136.001C97.3004 161.053 82.4538 186.804 57.4362 193.517C32.4185 200.23 6.70347 185.363 5.44436e-06 160.31L90.597 136.001Z" fill="white"/>
<rect width="90.2057" height="47.5762" rx="23.7881" transform="matrix(0.937591 0.347739 -0.347774 0.937578 60.5459 7.99609)" fill="#EE2B6C"/>
<ellipse rx="18.9907" ry="19.0305" transform="matrix(0.937591 0.347739 -0.347774 0.937578 74.5319 38.5538)" fill="white"/>
<rect width="54.2654" height="54.3316" rx="20" transform="matrix(0.96712 0.254321 -0.253656 0.967295 71.7812 469.773)" fill="#EE2B6C"/>
<path d="M78.6085 501.805L83.4105 509.84C83.6899 510.308 84.2917 510.466 84.7644 510.196L105.096 498.596" stroke="white" stroke-width="8" stroke-linecap="round"/>
<rect x="2.07345" y="3.70324" width="55.2432" height="55.3164" rx="17" transform="matrix(0.96233 0.271883 -0.271179 0.962529 319.71 180.487)" fill="black" stroke="white" stroke-width="6"/>
<path fill-rule="evenodd" clip-rule="evenodd" d="M333.698 230.337C333.35 231.573 334.07 232.859 335.306 233.208C336.542 233.557 337.826 232.838 338.174 231.602L340.911 221.889L350.606 224.628C351.844 224.977 353.13 224.257 353.479 223.02C353.827 221.782 353.107 220.495 351.869 220.145L342.174 217.406L344.911 207.69C345.259 206.454 344.54 205.168 343.304 204.819C342.068 204.47 340.783 205.189 340.435 206.425L337.698 216.141L328.002 213.402C326.764 213.052 325.478 213.772 325.129 215.01C324.781 216.248 325.501 217.535 326.739 217.885L336.435 220.624L333.698 230.337Z" fill="white"/>
<ellipse cx="212.503" cy="75.4954" rx="15.503" ry="15.5247" fill="#EE2B6C"/>
</svg>
