<svg width="620" height="294" viewBox="0 0 620 294" fill="none" xmlns="http://www.w3.org/2000/svg">
<rect width="339.575" height="42.7868" rx="21.3934" transform="matrix(0.931104 0.364754 -0.365588 0.930777 86.73 130.313)" fill="#2B4BEE"/>
<path d="M257.044 41.9656C257.044 58.5984 243.546 72.0939 226.882 72.0939C210.217 72.0939 196.719 58.5984 196.719 41.9656C196.719 25.3328 210.217 11.8373 226.882 11.8373C243.546 11.8373 257.044 25.3328 257.044 41.9656Z" fill="black" stroke="#EE2B6C" stroke-width="15.5808"/>
<ellipse cx="336.905" cy="124.63" rx="61.3082" ry="61.2533" fill="white"/>
<rect width="81.726" height="81.6894" rx="27.2664" transform="matrix(0.866219 -0.499664 0.500336 0.865831 508.335 65.3071)" fill="black" stroke="white" stroke-width="13.6332"/>
<path d="M483.024 216.22C487.735 219.479 487.435 226.536 482.466 229.385L448.531 248.841C443.209 251.892 436.613 247.882 436.873 241.753L438.642 200.042C438.902 193.914 445.814 190.475 450.858 193.965L483.024 216.22Z" fill="#EE2B6C"/>
<ellipse cx="542.409" cy="243.307" rx="14.5972" ry="14.5841" fill="white"/>
<rect width="165.425" height="27.2264" rx="13.6132" transform="matrix(0.965984 0.258603 -0.259035 0.965868 7.05258 185.754)" fill="#EE2B6C"/>
<rect width="35.0298" height="46.6739" rx="3.8952" transform="matrix(0.957821 0.287367 -0.287983 0.957636 472.949 0)" fill="#2B4BEE"/>
</svg>
