<svg width="620" height="367" viewBox="0 0 620 367" fill="none" xmlns="http://www.w3.org/2000/svg">
<path d="M262.252 197.265C251.025 219.867 223.641 229.026 201.087 217.724C178.533 206.422 169.351 178.938 180.578 156.336L262.252 197.265Z" fill="white"/>
<rect width="263.236" height="45.3817" rx="22.6908" transform="matrix(0.965151 -0.261695 0.260206 0.965553 275.187 225.138)" fill="#2B4BEE"/>
<rect width="52.7924" height="52.8898" rx="15.0655" transform="matrix(0.967075 0.254492 -0.253486 0.967339 568.946 180.06)" fill="#EE2B6C"/>
<path d="M575.594 211.244L580.376 219.251C580.586 219.603 581.04 219.723 581.396 219.519L601.361 208.12" stroke="white" stroke-width="6.02621" stroke-linecap="round"/>
<path d="M158.967 109.2C158.967 126.788 144.772 141.005 127.312 141.005C109.851 141.005 95.656 126.788 95.656 109.2C95.656 91.6116 109.851 77.3944 127.312 77.3944C144.772 77.3944 158.967 91.6116 158.967 109.2Z" fill="black" stroke="#EE2B6C" stroke-width="12.0524"/>
<rect width="52.3284" height="52.3838" rx="17.4151" transform="matrix(0.865566 -0.500794 0.499206 0.866483 375.982 111.582)" fill="black" stroke="white" stroke-width="8.70755"/>
<rect width="27.1674" height="36.2448" rx="3.01311" transform="matrix(0.8982 -0.439587 0.436782 0.899567 0 134.537)" fill="#2B4BEE"/>
<rect x="-2.05237" y="-0.551682" width="176.75" height="30.7424" rx="15.3712" transform="matrix(-0.865166 0.501486 -0.497133 -0.867674 176.446 245.461)" fill="black" stroke="#EE2B6C" stroke-width="3.01311"/>
<path d="M551.384 23.5743C555.018 26.0965 554.788 31.5442 550.954 33.7492L524.602 48.9032C520.486 51.2702 515.376 48.1677 515.576 43.4233L516.95 10.9358C517.151 6.19153 522.504 3.53327 526.406 6.24074L551.384 23.5743Z" fill="#EE2B6C"/>
<rect width="360.689" height="60.0968" rx="30.0484" transform="matrix(0.994341 -0.106231 0.105402 0.99443 127.748 307.238)" fill="white"/>
<path d="M181.157 327.723C181.799 333.784 177.419 339.209 171.391 339.853C165.363 340.497 159.945 336.119 159.302 330.058C158.66 323.996 163.039 318.572 169.067 317.928C175.095 317.284 180.514 321.661 181.157 327.723Z" stroke="black" stroke-width="5.99704"/>
<path d="M163.128 337.708L153.361 349.832" stroke="black" stroke-width="5.99704" stroke-linecap="round"/>
</svg>
