<svg width="724" height="430" viewBox="0 0 724 430" fill="none" xmlns="http://www.w3.org/2000/svg">
<g clip-path="url(#clip0_2127_91706)">
<rect width="99.863" height="100.039" rx="20" transform="matrix(0.965794 0.25931 -0.258329 0.966057 309.596 137.125)" fill="#EE2B6C"/>
<path d="M445.991 1.00536C458.824 31.5642 444.093 66.9356 413.088 80.0096C382.083 93.0836 346.545 78.9093 333.711 48.3504L445.991 1.00536Z" fill="#2B4BEE"/>
<rect width="360.466" height="60.0297" rx="30.0149" transform="matrix(0.993163 0.116739 -0.116272 0.993217 174.83 331.297)" fill="white"/>
<path d="M222.377 363.077C221.669 369.12 216.209 373.435 210.193 372.728C204.176 372.02 199.861 366.557 200.568 360.514C201.276 354.47 206.735 350.156 212.752 350.863C218.769 351.57 223.084 357.034 222.377 363.077Z" stroke="black" stroke-width="6"/>
<path d="M202.609 368.813L190.421 378.461" stroke="black" stroke-width="6" stroke-linecap="round"/>
<ellipse rx="35.949" ry="36.0156" transform="matrix(0.977734 -0.209846 0.209033 0.977909 245.497 68.7915)" fill="#EE2B6C"/>
<g clip-path="url(#clip1_2127_91706)">
<path d="M258.695 58.559C257.828 57.4958 256.724 56.6513 255.471 56.0935C254.219 55.5356 252.854 55.2798 251.485 55.3467C250.116 55.4136 248.782 55.8014 247.589 56.4787C246.397 57.1561 245.38 58.1042 244.62 59.247L243.726 60.5043L242.44 59.7531C241.277 59.004 239.954 58.5437 238.578 58.4103C237.203 58.277 235.815 58.4745 234.531 58.9865C233.251 59.4777 232.106 60.268 231.192 61.2916C230.278 62.3153 229.62 63.5427 229.275 64.8721C228.807 66.6257 228.91 68.4829 229.568 70.1741C230.226 71.8653 231.404 73.3024 232.932 74.2769L247.826 84.2538C247.975 84.3528 248.141 84.4211 248.316 84.4545C248.491 84.488 248.67 84.486 248.844 84.4486C249.018 84.4113 249.183 84.3393 249.329 84.237C249.475 84.1348 249.599 84.0042 249.693 83.8531L259.191 68.6657C260.191 67.1473 260.683 65.3486 260.594 63.5311C260.505 61.7136 259.84 59.9719 258.695 58.559Z" fill="white"/>
</g>
<path d="M718.763 160.146C731.596 190.705 716.865 226.076 685.86 239.15C654.855 252.224 619.317 238.05 606.483 207.491L718.763 160.146Z" fill="#2B4BEE"/>
<path d="M512.6 288.425C517.425 291.773 517.12 299.006 512.029 301.933L477.197 321.962C471.733 325.104 464.949 320.985 465.216 314.687L467.031 271.749C467.298 265.451 474.404 261.922 479.584 265.516L512.6 288.425Z" fill="white"/>
<path d="M71.3635 213.952C75.1334 209.435 82.3277 210.4 84.7786 215.752L114.749 281.2C117.372 286.927 112.658 293.295 106.417 292.458L30.3473 282.251C24.106 281.413 21.2307 274.026 25.2645 269.193L71.3635 213.952Z" fill="white"/>
<rect x="-0.732693" y="2.73445" width="149.002" height="23.972" rx="11.986" transform="matrix(0.499239 0.866464 -0.865585 0.500762 564.752 -3)" fill="black" stroke="white" stroke-width="4"/>
<path fill-rule="evenodd" clip-rule="evenodd" d="M86.5912 343.302C84.2033 341.921 81.1511 342.739 79.7739 345.129L68.7876 364.197L49.7672 353.193C47.377 351.81 44.3216 352.629 42.943 355.021C41.5644 357.414 42.3845 360.475 44.7748 361.858L63.7951 372.861L52.8095 391.928C51.4322 394.318 52.2515 397.375 54.6394 398.757C57.0272 400.138 60.0794 399.321 61.4567 396.93L72.4423 377.864L91.4609 388.867C93.8512 390.249 96.9065 389.431 98.2852 387.038C99.6638 384.645 98.8437 381.585 96.4534 380.202L77.4348 369.199L88.4211 350.132C89.7983 347.741 88.979 344.684 86.5912 343.302Z" fill="white"/>
<rect width="215.762" height="72.0087" rx="36.0044" transform="matrix(0.881587 0.472021 -0.470624 0.882334 21.889 28.0288)" fill="white"/>
<rect width="139.846" height="18.0022" rx="9.00109" transform="matrix(0.881587 0.472021 -0.470624 0.882334 42.6441 69.772)" fill="black"/>
<rect width="29.9578" height="30.0127" rx="4" transform="matrix(0.974809 -0.223042 0.222182 0.975005 600.488 365.002)" fill="#EE2B6C"/>
<rect x="196.825" y="223.201" width="35.9458" height="48.0251" rx="4" fill="#2B4BEE"/>
<rect width="113.993" height="59.9449" rx="29.9724" transform="matrix(-0.415432 0.909624 -0.909148 -0.416473 541.477 112.046)" fill="#EE2B6C"/>
<ellipse rx="23.9984" ry="23.978" transform="matrix(-0.415432 0.909624 -0.909148 -0.416473 501.765 126.851)" fill="white"/>
</g>
<defs>
<clipPath id="clip0_2127_91706">
<rect width="724" height="430" fill="white"/>
</clipPath>
<clipPath id="clip1_2127_91706">
<rect width="31.9547" height="32.0139" fill="white" transform="matrix(0.977734 -0.209846 0.209033 0.977909 226.949 58.4473)"/>
</clipPath>
</defs>
</svg>
