<svg width="620" height="339" viewBox="0 0 620 339" fill="none" xmlns="http://www.w3.org/2000/svg">
<rect width="241.349" height="55.5904" rx="27.7952" transform="matrix(0.966177 0.257878 -0.259763 0.965672 187.873 223.078)" fill="white"/>
<rect width="156.43" height="13.8979" rx="6.94893" transform="matrix(0.966177 0.257878 -0.259763 0.965673 223.484 254.159)" fill="black"/>
<path d="M301.265 125.064C311.225 148.64 299.793 175.928 275.731 186.015C251.668 196.101 224.088 185.166 214.128 161.59L301.265 125.064Z" fill="#2B4BEE"/>
<rect width="88.2979" height="46.3358" rx="23.1679" transform="matrix(0.894504 0.44706 -0.449222 0.89342 379.201 182.156)" fill="#EE2B6C"/>
<ellipse rx="18.589" ry="18.5343" transform="matrix(0.894504 0.44706 -0.449222 0.89342 389.577 213.243)" fill="white"/>
<path d="M540.345 163.462C546.796 177.055 540.963 193.315 527.301 199.773C513.639 206.232 497.338 200.436 490.887 186.843C484.435 173.249 490.268 156.99 503.93 150.531C517.592 144.072 533.893 149.868 540.345 163.462Z" stroke="#2B4BEE" stroke-width="3.08746"/>
<rect width="28.0213" height="3.49064" rx="1.74532" transform="matrix(0.904065 -0.427396 0.428772 0.903413 498.458 171.681)" fill="white"/>
<rect width="21.0159" height="3.49064" rx="1.74532" transform="matrix(0.904065 -0.427396 0.428772 0.903413 502.198 179.565)" fill="white"/>
<rect width="28.0213" height="3.49064" rx="1.74532" transform="matrix(0.904065 -0.427396 0.428772 0.903413 505.947 187.445)" fill="white"/>
<path d="M186.758 51.9866C189.671 48.5164 195.203 49.2543 197.097 53.3657L220.376 103.901C222.411 108.32 218.768 113.251 213.943 112.608L154.857 104.726C150.032 104.083 147.82 98.3702 150.951 94.6402L186.758 51.9866Z" fill="white"/>
<ellipse rx="27.8918" ry="27.7927" transform="matrix(0.977989 -0.208659 0.210222 0.977654 578.707 33.9894)" fill="#EE2B6C"/>
<g clip-path="url(#clip0_1090_91205)">
<path d="M588.945 26.0958C588.272 25.2756 587.415 24.6241 586.443 24.1937C585.471 23.7633 584.411 23.5659 583.349 23.6176C582.287 23.6692 581.251 23.9683 580.326 24.4909C579.401 25.0135 578.611 25.745 578.022 26.6266L577.328 27.5966L576.329 27.0171C575.427 26.4391 574.4 26.0839 573.332 25.9811C572.265 25.8782 571.188 26.0306 570.192 26.4256C569.198 26.8046 568.31 27.4143 567.6 28.204C566.891 28.9937 566.381 29.9407 566.112 30.9663C565.75 32.3192 565.829 33.752 566.34 35.0568C566.85 36.3615 567.765 37.4703 568.951 38.2221L580.51 45.9193C580.625 45.9956 580.754 46.0483 580.89 46.0741C581.025 46.0999 581.165 46.0984 581.3 46.0696C581.435 46.0408 581.563 45.9853 581.676 45.9063C581.789 45.8274 581.885 45.7267 581.959 45.6102L589.329 33.8932C590.106 32.7217 590.487 31.334 590.418 29.9318C590.349 28.5296 589.833 27.1859 588.945 26.0958Z" fill="white"/>
</g>
<rect x="-2.71611" y="-0.538467" width="145.918" height="23.4826" rx="11.7413" transform="matrix(-0.831718 0.555198 -0.557003 -0.830511 614.725 217.982)" fill="black" stroke="white" stroke-width="3.91167"/>
<rect width="83.6877" height="83.5979" rx="19.5584" transform="matrix(0.966006 0.25852 -0.259118 0.965846 71.6338 173.181)" fill="#EE2B6C"/>
<path fill-rule="evenodd" clip-rule="evenodd" d="M58.4709 97.8439C56.1292 96.4936 53.1342 97.2961 51.7814 99.6363L41.0115 118.267L22.352 107.508C20.0117 106.158 17.0186 106.96 15.6666 109.299C14.3146 111.638 15.1158 114.628 17.456 115.977L36.1155 126.737L25.3463 145.367C23.9935 147.707 24.7951 150.699 27.1368 152.049C29.4785 153.399 32.4735 152.597 33.8263 150.256L44.5955 131.627L63.2534 142.385C65.5937 143.735 68.5868 142.933 69.9388 140.594C71.2908 138.255 70.4896 135.265 68.1494 133.916L49.4915 123.157L60.2614 104.526C61.6142 102.186 60.8126 99.1942 58.4709 97.8439Z" fill="white"/>
<defs>
<clipPath id="clip0_1090_91205">
<rect width="24.7927" height="24.7051" fill="white" transform="matrix(0.977989 -0.208659 0.210222 0.977654 564.306 26.0098)"/>
</clipPath>
</defs>
</svg>
