<svg width="468" height="380" viewBox="0 0 468 380" fill="none" xmlns="http://www.w3.org/2000/svg">
<rect x="1.00098" y="1" width="465.999" height="378" rx="13" stroke="white" stroke-width="2"/>
<rect width="79.0614" height="79.1591" rx="20" transform="matrix(0.965833 0.259164 -0.258475 0.966018 22.043 281.834)" fill="#EE2B6C"/>
<ellipse cx="19.7632" cy="19.7923" rx="3.95269" ry="3.95833" fill="white"/>
<ellipse cx="33.9937" cy="19.7923" rx="3.95269" ry="3.95833" fill="white"/>
<ellipse cx="48.2232" cy="19.7923" rx="3.95269" ry="3.95833" fill="white"/>
<rect x="91.7041" y="324.582" width="285.384" height="47.5" rx="23.75" fill="white"/>
<path d="M131.394 345.165C131.394 349.634 127.778 353.249 123.326 353.249C118.875 353.249 115.259 349.634 115.259 345.165C115.259 340.697 118.875 337.082 123.326 337.082C127.778 337.082 131.394 340.697 131.394 345.165Z" stroke="black" stroke-width="6"/>
<path d="M117.003 351.5L108.307 360.208" stroke="black" stroke-width="6" stroke-linecap="round"/>
<path d="M453.884 335.667C453.884 353.672 439.312 368.251 421.357 368.251C403.402 368.251 388.83 353.672 388.83 335.667C388.83 317.663 403.402 303.084 421.357 303.084C439.312 303.084 453.884 317.663 453.884 335.667Z" stroke="#2B4BEE" stroke-width="14"/>
<path d="M342.027 289.353C342.027 278.029 351.19 268.874 362.463 268.874C373.736 268.874 382.898 278.029 382.898 289.353C382.898 300.677 373.736 309.832 362.463 309.832C351.19 309.832 342.027 300.677 342.027 289.353Z" stroke="white" stroke-width="20"/>
<ellipse cx="421.358" cy="346.227" rx="11.8581" ry="11.875" fill="white"/>
<rect width="134.444" height="22.158" rx="11.079" transform="matrix(0.850538 0.525914 -0.524829 0.851208 352.041 215.148)" fill="#EE2B6C"/>
<path d="M334.369 314.81C311.682 327.926 282.496 319.835 269.18 296.738C255.863 273.64 263.459 244.283 286.146 231.166L334.369 314.81Z" fill="#2B4BEE"/>
<path d="M345.723 243.26C350.551 246.608 350.245 253.844 345.151 256.771L322.486 269.796C317.021 272.936 310.24 268.817 310.506 262.52L311.688 234.596C311.954 228.299 319.059 224.77 324.239 228.362L345.723 243.26Z" fill="#EE2B6C"/>
<path d="M42.1593 226.673C45.9297 222.158 53.1212 223.123 55.5724 228.472L76.9389 275.103C79.5629 280.83 74.8487 287.2 68.6064 286.363L14.3751 279.09C8.13274 278.253 5.25834 270.865 9.29449 266.032L42.1593 226.673Z" fill="white"/>
<ellipse rx="28.4612" ry="28.4982" transform="matrix(0.97776 -0.209725 0.209153 0.977883 233.797 292.709)" fill="#EE2B6C"/>
<g clip-path="url(#clip0_2284_94644)">
<path d="M244.246 284.612C243.559 283.771 242.684 283.103 241.693 282.661C240.701 282.22 239.62 282.017 238.537 282.07C237.453 282.123 236.397 282.43 235.453 282.966C234.509 283.502 233.704 284.252 233.102 285.156L232.394 286.151L231.375 285.557C230.455 284.964 229.407 284.6 228.318 284.494C227.229 284.389 226.131 284.545 225.114 284.95C224.101 285.339 223.194 285.964 222.47 286.774C221.746 287.584 221.226 288.556 220.952 289.607C220.582 290.995 220.664 292.464 221.184 293.803C221.705 295.141 222.638 296.278 223.848 297.049L235.64 304.943C235.758 305.022 235.889 305.076 236.028 305.102C236.166 305.129 236.308 305.127 236.446 305.097C236.584 305.068 236.714 305.011 236.83 304.93C236.945 304.849 237.043 304.746 237.118 304.626L244.638 292.609C245.43 291.408 245.819 289.984 245.749 288.546C245.678 287.108 245.152 285.73 244.246 284.612Z" fill="white"/>
</g>
<rect x="123.325" y="242.25" width="79.0538" height="79.1667" rx="20" fill="#2B4BEE"/>
<rect width="66.4078" height="66.4974" rx="28" transform="matrix(0.98595 0.167039 -0.166577 0.986029 18.1416 57.5566)" stroke="white" stroke-width="14"/>
<ellipse cx="52.444" cy="107.145" rx="11.8581" ry="11.875" fill="white"/>
<rect x="0.967907" y="-2.6593" width="117.094" height="18.1407" rx="9.07036" transform="matrix(-0.422123 -0.906538 0.906077 -0.423114 109.102 321.931)" stroke="white" stroke-width="4"/>
<rect x="442.33" y="204.623" width="119.5" height="18.1351" rx="9.06754" transform="rotate(-90 442.33 204.623)" stroke="#EE2B6C" stroke-width="4"/>
<ellipse cx="29.2513" cy="201.877" rx="23.7161" ry="23.75" fill="#EE2B6C"/>
<path fill-rule="evenodd" clip-rule="evenodd" d="M117.191 209.157C115.019 208.939 113.081 210.523 112.863 212.695L111.124 230.031L93.8251 228.29C91.6499 228.071 89.7098 229.657 89.4915 231.833C89.2733 234.008 90.8597 235.948 93.0348 236.167L110.334 237.908L108.595 255.242C108.377 257.414 109.961 259.352 112.133 259.57C114.305 259.789 116.243 258.205 116.461 256.033L118.2 238.699L135.499 240.44C137.674 240.659 139.614 239.073 139.833 236.898C140.051 234.722 138.464 232.782 136.289 232.563L118.99 230.822L120.729 213.486C120.947 211.314 119.363 209.376 117.191 209.157Z" fill="white"/>
<path d="M460.231 229.391C462.083 242.588 452.902 254.785 439.73 256.639C426.559 258.492 414.376 249.302 412.524 236.106C410.672 222.909 419.854 210.712 433.025 208.858C446.196 207.005 458.379 216.195 460.231 229.391Z" stroke="#2B4BEE" stroke-width="4"/>
<rect width="25.2979" height="3.16658" rx="1.58329" transform="matrix(0.990241 -0.139368 0.138979 0.990295 422.532 225.104)" fill="white"/>
<rect width="18.9734" height="3.16658" rx="1.58329" transform="matrix(0.990241 -0.139368 0.138979 0.990295 423.633 232.943)" fill="white"/>
<rect width="25.2979" height="3.16658" rx="1.58329" transform="matrix(0.990241 -0.139368 0.138979 0.990295 424.732 240.783)" fill="white"/>
<path d="M211.792 267.042C200.897 246.891 208.378 221.71 228.501 210.8C248.624 199.889 273.768 207.381 284.663 227.533L211.792 267.042Z" fill="white"/>
<path d="M204.656 207.416C204.656 220.06 194.424 230.291 181.825 230.291C169.227 230.291 158.994 220.06 158.994 207.416C158.994 194.772 169.227 184.541 181.825 184.541C194.424 184.541 204.656 194.772 204.656 207.416Z" stroke="#EE2B6C" stroke-width="16"/>
<path d="M304.892 142.104C304.892 150.498 298.098 157.291 289.733 157.291C281.368 157.291 274.574 150.498 274.574 142.104C274.574 133.709 281.368 126.916 289.733 126.916C298.098 126.916 304.892 133.709 304.892 142.104Z" stroke="#EE2B6C" stroke-width="10"/>
<rect width="170.773" height="56.9946" rx="28.4973" transform="matrix(0.965833 -0.259164 0.258475 0.966018 37.4434 148.182)" fill="white"/>
<rect width="110.686" height="14.2486" rx="7.12432" transform="matrix(0.965833 -0.259164 0.258475 0.966018 71.9844 161.039)" fill="black"/>
<ellipse cx="135.972" cy="216.918" rx="11.8581" ry="11.875" fill="#2B4BEE"/>
<rect width="24.5097" height="24.5386" rx="4" transform="matrix(0.955624 0.29459 -0.293823 0.95586 89.4268 194.75)" fill="#EE2B6C"/>
<rect width="23.7178" height="23.7483" rx="4" transform="matrix(0.974838 -0.222914 0.22231 0.974976 85.0283 106.955)" fill="#EE2B6C"/>
<ellipse cx="385.783" cy="168.623" rx="49.8039" ry="49.875" fill="white"/>
<rect width="275.903" height="34.8327" rx="17.4164" transform="matrix(0.993879 0.110476 -0.110165 0.993913 92.3789 61.75)" fill="#2B4BEE"/>
<rect x="8.69629" y="136.166" width="28.4594" height="38" rx="4" fill="#2B4BEE"/>
<path d="M310.725 154.228C314.952 150.127 322.013 151.851 323.882 157.439L342.372 212.738C344.369 218.709 339.01 224.537 332.895 223.045L272.579 208.323C266.465 206.831 264.384 199.187 268.901 194.805L310.725 154.228Z" fill="#2B4BEE"/>
<rect x="2.07347" y="3.70326" width="56.4591" height="56.5351" rx="17" transform="matrix(0.962328 0.27189 -0.271173 0.962531 384.061 46.2859)" stroke="white" stroke-width="6"/>
<path fill-rule="evenodd" clip-rule="evenodd" d="M398.347 97.1156C397.992 98.3765 398.726 99.6873 399.986 100.043C401.247 100.4 402.557 99.6663 402.912 98.4054L405.703 88.4984L415.59 91.2919C416.853 91.6485 418.164 90.9142 418.52 89.6518C418.875 88.3894 418.14 87.0769 416.878 86.7203L406.991 83.9269L409.783 74.0183C410.138 72.7574 409.404 71.4466 408.143 71.0904C406.883 70.7342 405.573 71.4677 405.218 72.7285L402.426 82.6371L392.537 79.8431C391.275 79.4865 389.963 80.2208 389.608 81.4832C389.252 82.7456 389.987 84.0581 391.249 84.4147L401.138 87.2086L398.347 97.1156Z" fill="white"/>
<rect width="90.1342" height="47.4932" rx="23.7466" transform="matrix(0.948511 -0.316743 0.315931 0.948782 283.804 44.3828)" fill="#EE2B6C"/>
<ellipse rx="18.9756" ry="18.9973" transform="matrix(0.948511 -0.316743 0.315931 0.948782 313.805 59.3987)" fill="white"/>
<rect x="215.818" y="120.334" width="45.8512" height="80.75" rx="6" fill="#EE2B6C"/>
<rect x="418.986" y="7.91602" width="41.108" height="46.7083" rx="6" fill="#EE2B6C"/>
<rect width="55.3387" height="55.4157" rx="20" transform="matrix(0.993625 0.112738 -0.112421 0.993661 141.413 7.91797)" fill="#EE2B6C"/>
<path d="M152.986 39.2503L159.019 46.6714C159.362 47.094 159.981 47.1641 160.41 46.8292L179.251 32.1293" stroke="white" stroke-width="8" stroke-linecap="round"/>
<ellipse cx="396.061" cy="30.0814" rx="15.8108" ry="15.8333" fill="#2B4BEE"/>
<ellipse cx="115.419" cy="43.5423" rx="15.8108" ry="15.8333" fill="white"/>
<ellipse cx="212.655" cy="21.3737" rx="12.6486" ry="12.6667" fill="#2B4BEE"/>
<ellipse cx="83.007" cy="49.8737" rx="12.6486" ry="12.6667" fill="#EE2B6C"/>
<path d="M288.178 7.99915C298.415 32.3837 286.975 60.4622 262.625 70.7143C238.276 80.9664 210.237 69.5098 200 45.1253L288.178 7.99915Z" fill="white"/>
<defs>
<clipPath id="clip0_2284_94644">
<rect width="25.2988" height="25.3318" fill="white" transform="matrix(0.97776 -0.209725 0.209153 0.977883 219.11 284.525)"/>
</clipPath>
</defs>
</svg>
