<svg width="591" height="767" viewBox="0 0 591 767" fill="none" xmlns="http://www.w3.org/2000/svg">
<rect width="79.7031" height="79.8174" rx="20" transform="matrix(0.965819 0.259219 -0.25842 0.966033 263.547 414.707)" fill="#EE2B6C"/>
<path d="M294.547 246.826C304.79 271.207 293.033 299.428 268.286 309.859C243.54 320.29 215.175 308.981 204.932 284.6L294.547 246.826Z" fill="#2B4BEE"/>
<ellipse cx="469.68" cy="224.743" rx="48.8184" ry="48.8684" fill="white"/>
<path d="M255.918 176.355C255.918 165.046 265.073 155.897 276.344 155.897C287.615 155.897 296.77 165.046 296.77 176.355C296.77 187.663 287.615 196.812 276.344 196.812C265.073 196.812 255.918 187.663 255.918 176.355Z" stroke="white" stroke-width="20"/>
<rect width="287.67" height="47.9002" rx="23.9501" transform="matrix(0.824178 0.566331 -0.566233 0.824245 231.055 563.604)" fill="white"/>
<path d="M252.296 603.38C249.736 607.106 244.652 608.049 240.944 605.501C237.236 602.952 236.292 597.868 238.852 594.142C241.412 590.415 246.496 589.473 250.204 592.021C253.912 594.569 254.856 599.654 252.296 603.38Z" stroke="black" stroke-width="6"/>
<path d="M236.703 600.413L224.506 602.688" stroke="black" stroke-width="6" stroke-linecap="round"/>
<ellipse rx="28.692" ry="28.7354" transform="matrix(0.977751 -0.209771 0.209108 0.977893 222.001 68.097)" fill="#EE2B6C"/>
<g clip-path="url(#clip0_2284_94764)">
<path d="M232.534 59.932C231.842 59.0838 230.961 58.41 229.961 57.9649C228.962 57.5198 227.872 57.3157 226.779 57.3691C225.687 57.4225 224.622 57.7319 223.67 58.2723C222.719 58.8127 221.907 59.5692 221.3 60.4809L220.587 61.4841L219.56 60.8848C218.632 60.2871 217.576 59.9198 216.478 59.8134C215.38 59.707 214.273 59.8646 213.248 60.2731C212.226 60.665 211.312 61.2955 210.583 62.1122C209.853 62.9289 209.328 63.9083 209.052 64.9689C208.679 66.368 208.761 67.8498 209.286 69.1991C209.811 70.5484 210.752 71.695 211.972 72.4725L223.859 80.4325C223.978 80.5115 224.11 80.5659 224.25 80.5926C224.389 80.6193 224.533 80.6177 224.672 80.5879C224.811 80.5581 224.942 80.5007 225.059 80.4191C225.175 80.3375 225.274 80.2334 225.349 80.1128L232.93 67.9956C233.728 66.7841 234.121 65.3491 234.05 63.899C233.979 62.4489 233.448 61.0593 232.534 59.932Z" fill="white"/>
</g>
<path d="M571.457 362.744C581.701 387.125 569.943 415.346 545.196 425.777C520.45 436.208 492.085 424.899 481.842 400.518L571.457 362.744Z" fill="#2B4BEE"/>
<path d="M418.521 338.636C418.521 351.266 408.295 361.49 395.7 361.49C383.104 361.49 372.879 351.266 372.879 338.636C372.879 326.007 383.104 315.783 395.7 315.783C408.295 315.783 418.521 326.007 418.521 338.636Z" stroke="#EE2B6C" stroke-width="16"/>
<path d="M411.083 472.113C415.91 475.461 415.604 482.696 410.512 485.623L387.469 498.867C382.005 502.008 375.223 497.89 375.489 491.592L376.69 463.198C376.957 456.9 384.063 453.371 389.242 456.963L411.083 472.113Z" fill="white"/>
<path d="M74.5555 284.158C78.3257 279.642 85.5183 280.607 87.9694 285.957L109.602 333.18C112.226 338.907 107.512 345.276 101.27 344.439L46.3626 337.074C40.1206 336.237 37.2459 328.85 41.2812 324.016L74.5555 284.158Z" fill="white"/>
<rect x="-0.732575" y="2.73401" width="118.084" height="18.3236" rx="9.16182" transform="matrix(0.49938 0.866383 -0.865667 0.500621 454.182 2)" fill="black" stroke="white" stroke-width="4"/>
<path fill-rule="evenodd" clip-rule="evenodd" d="M98.5766 413.491C96.6708 412.389 94.2345 413.042 93.1351 414.95L84.3666 430.162L69.1848 421.382C67.2774 420.279 64.8391 420.933 63.7387 422.842C62.6384 424.751 63.2927 427.192 65.2001 428.295L80.3819 437.075L71.6143 452.286C70.5149 454.194 71.1686 456.633 73.0745 457.736C74.9803 458.838 77.4166 458.185 78.516 456.278L87.2837 441.067L102.464 449.845C104.371 450.948 106.809 450.295 107.91 448.386C109.01 446.477 108.356 444.035 106.448 442.932L91.2684 434.153L100.037 418.941C101.136 417.033 100.483 414.594 98.5766 413.491Z" fill="white"/>
<rect width="172.195" height="57.4566" rx="28.7283" transform="matrix(0.881661 0.471883 -0.470761 0.882261 27.0508 98.9297)" fill="white"/>
<rect width="111.608" height="14.3641" rx="7.18207" transform="matrix(0.881661 0.471884 -0.470761 0.882261 43.6162 132.234)" fill="black"/>
<rect width="23.9102" height="23.9459" rx="4" transform="matrix(0.974827 -0.222962 0.222262 0.974987 467.846 568.932)" fill="#EE2B6C"/>
<rect x="171.943" y="366.74" width="28.6899" height="38.3166" rx="4" fill="#2B4BEE"/>
<rect width="90.9544" height="47.8416" rx="23.9208" transform="matrix(-0.415561 0.909565 -0.909207 -0.416344 427.182 103.859)" fill="#EE2B6C"/>
<ellipse rx="19.1483" ry="19.1366" transform="matrix(-0.415561 0.909565 -0.909207 -0.416344 395.486 115.67)" fill="white"/>
<rect width="270.421" height="34.1326" rx="17.0663" transform="matrix(0.265881 -0.964006 0.963762 0.266765 80.9727 745.346)" fill="#2B4BEE"/>
<defs>
<clipPath id="clip0_2284_94764">
<rect width="25.504" height="25.5426" fill="white" transform="matrix(0.977751 -0.209771 0.209108 0.977893 207.196 59.8438)"/>
</clipPath>
</defs>
</svg>
