<svg width="540" height="438" viewBox="0 0 540 438" fill="none" xmlns="http://www.w3.org/2000/svg">
<rect x="1.00005" y="1" width="538" height="436" rx="19" stroke="white" stroke-width="2"/>
<rect width="91.2185" height="91.2477" rx="20" transform="matrix(0.965902 0.258909 -0.25873 0.96595 25.4328 324.849)" fill="#EE2B6C"/>
<ellipse cx="22.8038" cy="22.812" rx="4.56053" ry="4.5625" fill="white"/>
<ellipse cx="39.2227" cy="22.812" rx="4.56053" ry="4.5625" fill="white"/>
<ellipse cx="55.6417" cy="22.812" rx="4.56053" ry="4.5625" fill="white"/>
<rect x="105.811" y="374.125" width="329.291" height="54.75" rx="27.375" fill="white"/>
<path d="M152.068 397.85C152.068 403.249 147.692 407.625 142.297 407.625C136.902 407.625 132.527 403.249 132.527 397.85C132.527 392.45 136.902 388.075 142.297 388.075C147.692 388.075 152.068 392.45 152.068 397.85Z" stroke="black" stroke-width="6"/>
<path d="M134.999 405.149L124.966 415.186" stroke="black" stroke-width="6" stroke-linecap="round"/>
<path d="M524.791 386.9C524.791 408.234 507.503 425.525 486.182 425.525C464.862 425.525 447.574 408.234 447.574 386.9C447.574 365.565 464.862 348.275 486.182 348.275C507.503 348.275 524.791 365.565 524.791 386.9Z" stroke="#2B4BEE" stroke-width="14"/>
<path d="M393.108 333.519C393.108 319.636 404.357 308.388 418.226 308.388C432.095 308.388 443.345 319.636 443.345 333.519C443.345 347.402 432.095 358.65 418.226 358.65C404.357 358.65 393.108 347.402 393.108 333.519Z" stroke="white" stroke-width="20"/>
<ellipse cx="486.182" cy="402.413" rx="13.6824" ry="13.6875" fill="white"/>
<rect width="155.083" height="25.5474" rx="12.7737" transform="matrix(0.850786 0.525512 -0.52523 0.85096 406.201 247.985)" fill="#EE2B6C"/>
<path d="M385.81 362.859C359.633 377.978 325.956 368.652 310.591 342.029C295.226 315.406 303.991 281.568 330.168 266.449L385.81 362.859Z" fill="#2B4BEE"/>
<path d="M400.496 281.486C405.328 284.833 405.021 292.074 399.923 295L370.158 312.088C364.693 315.225 357.915 311.106 358.182 304.811L359.734 268.179C360 261.883 367.102 258.353 372.282 261.941L400.496 281.486Z" fill="#EE2B6C"/>
<path d="M49.8985 259.772C53.6697 255.261 60.8562 256.223 63.308 261.568L89.698 319.102C92.3247 324.828 87.6093 331.202 81.3652 330.366L14.3834 321.393C8.13927 320.557 5.2665 313.166 9.30672 308.332L49.8985 259.772Z" fill="white"/>
<ellipse rx="32.8384" ry="32.8495" transform="matrix(0.977806 -0.209513 0.209365 0.977838 269.764 337.389)" fill="#EE2B6C"/>
<g clip-path="url(#clip0_2127_91572)">
<path d="M281.821 328.057C281.029 327.087 280.02 326.317 278.876 325.808C277.732 325.299 276.484 325.066 275.234 325.127C273.983 325.188 272.764 325.542 271.675 326.16C270.586 326.777 269.657 327.642 268.963 328.684L268.146 329.831L266.971 329.146C265.909 328.463 264.7 328.043 263.443 327.921C262.187 327.8 260.919 327.98 259.746 328.447C258.577 328.895 257.531 329.615 256.696 330.549C255.86 331.483 255.26 332.602 254.944 333.815C254.517 335.414 254.611 337.108 255.212 338.65C255.813 340.192 256.889 341.503 258.285 342.392L271.892 351.491C272.027 351.581 272.179 351.644 272.339 351.674C272.499 351.705 272.663 351.703 272.822 351.669C272.981 351.635 273.131 351.569 273.264 351.476C273.398 351.383 273.511 351.263 273.597 351.126L282.274 337.274C283.188 335.89 283.637 334.249 283.555 332.592C283.474 330.934 282.867 329.345 281.821 328.057V328.057Z" fill="white"/>
</g>
<rect x="142.297" y="279.224" width="91.2162" height="91.25" rx="20" fill="#2B4BEE"/>
<rect width="76.6224" height="76.6492" rx="28" transform="matrix(0.985979 0.166868 -0.166748 0.986 20.9308 66.3403)" stroke="white" stroke-width="14"/>
<ellipse cx="63.8514" cy="126.837" rx="13.6824" ry="13.6875" fill="white"/>
<rect x="0.967516" y="-2.65823" width="135.603" height="21.5422" rx="10.7711" transform="matrix(-0.42249 -0.906368 0.906248 -0.422747 125.302 371.513)" stroke="white" stroke-width="4"/>
<rect x="510.074" y="236.162" width="138.35" height="21.5405" rx="10.7703" transform="rotate(-90 510.074 236.162)" stroke="#EE2B6C" stroke-width="4"/>
<ellipse cx="33.75" cy="232.687" rx="27.3649" ry="27.375" fill="#EE2B6C"/>
<path fill-rule="evenodd" clip-rule="evenodd" d="M135.218 241.081C132.711 240.829 130.476 242.656 130.224 245.163L128.218 265.138L108.252 263.131C105.745 262.879 103.508 264.708 103.256 267.215C103.005 269.722 104.833 271.959 107.34 272.211L127.306 274.218L125.3 294.194C125.048 296.7 126.876 298.936 129.382 299.188C131.888 299.44 134.124 297.613 134.376 295.106L136.382 275.13L156.347 277.137C158.854 277.389 161.091 275.56 161.342 273.053C161.594 270.546 159.766 268.309 157.258 268.057L137.294 266.05L139.3 246.075C139.552 243.569 137.724 241.333 135.218 241.081Z" fill="white"/>
<path d="M531.341 264.361C533.502 279.737 522.793 293.952 507.425 296.113C492.056 298.273 477.846 287.562 475.686 272.186C473.526 256.81 484.234 242.595 499.603 240.435C514.971 238.274 529.181 248.986 531.341 264.361Z" stroke="#2B4BEE" stroke-width="4"/>
<rect width="29.1894" height="3.65019" rx="1.8251" transform="matrix(0.990261 -0.139224 0.139123 0.990275 487.537 259.462)" fill="white"/>
<rect width="21.8921" height="3.65019" rx="1.8251" transform="matrix(0.990261 -0.139224 0.139123 0.990275 488.807 268.499)" fill="white"/>
<rect width="29.1894" height="3.65019" rx="1.8251" transform="matrix(0.990261 -0.139224 0.139123 0.990275 490.076 277.534)" fill="white"/>
<path d="M244.374 307.803C231.803 284.576 240.435 255.552 263.654 242.976C286.873 230.401 315.886 239.036 328.457 262.263L244.374 307.803Z" fill="white"/>
<path d="M237.372 239.074C237.372 254.313 225.023 266.662 209.797 266.662C194.571 266.662 182.223 254.313 182.223 239.074C182.223 223.835 194.571 211.487 209.797 211.487C225.023 211.487 237.372 223.835 237.372 239.074Z" stroke="#EE2B6C" stroke-width="16"/>
<path d="M352.568 163.794C352.568 173.885 344.39 182.062 334.307 182.062C324.224 182.062 316.047 173.885 316.047 163.794C316.047 153.702 324.224 145.525 334.307 145.525C344.39 145.525 352.568 153.702 352.568 163.794Z" stroke="#EE2B6C" stroke-width="10"/>
<rect width="197.032" height="65.6984" rx="32.8492" transform="matrix(0.965902 -0.258909 0.25873 0.96595 43.2022 170.802)" fill="white"/>
<rect width="127.706" height="16.4255" rx="8.21277" transform="matrix(0.965902 -0.258909 0.25873 0.96595 83.0575 185.625)" fill="black"/>
<ellipse cx="156.892" cy="250.024" rx="13.6824" ry="13.6875" fill="#2B4BEE"/>
<rect width="28.2779" height="28.2866" rx="4" transform="matrix(0.955711 0.294306 -0.294107 0.955773 103.184 224.475)" fill="#EE2B6C"/>
<rect width="27.3654" height="27.3745" rx="4" transform="matrix(0.974889 -0.22269 0.222533 0.974925 98.1091 123.28)" fill="#EE2B6C"/>
<ellipse cx="445.135" cy="194.362" rx="57.4662" ry="57.4875" fill="white"/>
<rect width="318.346" height="40.1498" rx="20.0749" transform="matrix(0.993892 0.110361 -0.11028 0.993901 106.59 71.1753)" fill="#2B4BEE"/>
<rect x="10.0338" y="156.949" width="32.8378" height="43.8" rx="4" fill="#2B4BEE"/>
<path d="M359.934 176.407C364.162 172.31 371.219 174.03 373.088 179.614L395.746 247.304C397.745 253.275 392.383 259.107 386.266 257.616L312.357 239.595C306.24 238.104 304.162 230.458 308.683 226.077L359.934 176.407Z" fill="#2B4BEE"/>
<rect x="2.0729" y="3.70224" width="66.0628" height="66.0855" rx="17" transform="matrix(0.962403 0.271624 -0.271438 0.962456 442.981 53.4134)" stroke="white" stroke-width="6"/>
<path fill-rule="evenodd" clip-rule="evenodd" d="M459.633 111.938C459.222 113.393 460.069 114.905 461.523 115.315C462.978 115.726 464.49 114.88 464.9 113.425L468.12 102.007L479.531 105.228C480.986 105.639 482.498 104.792 482.909 103.337C483.319 101.882 482.472 100.369 481.017 99.9585L469.606 96.7378L472.826 85.3203C473.236 83.8657 472.39 82.3537 470.935 81.9432C469.481 81.5327 467.969 82.3791 467.559 83.8337L464.339 95.2512L452.927 92.0303C451.471 91.6196 449.959 92.4663 449.549 93.9215C449.138 95.3766 449.985 96.8892 451.44 97.2999L462.853 100.521L459.633 111.938Z" fill="white"/>
<rect width="103.99" height="54.748" rx="27.374" transform="matrix(0.948612 -0.316442 0.316231 0.948682 327.466 51.1572)" fill="#EE2B6C"/>
<ellipse rx="21.8927" ry="21.8992" transform="matrix(0.948612 -0.316442 0.316231 0.948682 362.082 68.4667)" fill="white"/>
<rect x="249.02" y="138.7" width="52.9054" height="93.075" rx="6" fill="#EE2B6C"/>
<rect x="483.446" y="9.125" width="47.4324" height="53.8375" rx="6" fill="#EE2B6C"/>
<rect width="63.8516" height="63.8747" rx="20" transform="matrix(0.993638 0.11262 -0.112538 0.993647 163.168 9.125)" fill="#EE2B6C"/>
<path d="M176.52 45.2392L183.577 53.9104C183.92 54.3324 184.538 54.4024 184.967 54.068L206.826 37.0314" stroke="white" stroke-width="8" stroke-linecap="round"/>
<ellipse cx="456.993" cy="34.6753" rx="18.2432" ry="18.25" fill="#2B4BEE"/>
<ellipse cx="133.176" cy="50.1875" rx="18.2432" ry="18.25" fill="white"/>
<ellipse cx="245.372" cy="24.6376" rx="14.5946" ry="14.6" fill="#2B4BEE"/>
<ellipse cx="95.777" cy="57.4877" rx="14.5946" ry="14.6" fill="#EE2B6C"/>
<path d="M333.434 9.12526C345.246 37.2316 332.046 69.5958 303.95 81.4127C275.854 93.2296 243.502 80.0244 231.689 51.918L333.434 9.12526Z" fill="white"/>
<defs>
<clipPath id="clip0_2127_91572">
<rect width="29.1897" height="29.1995" fill="white" transform="matrix(0.977806 -0.209513 0.209365 0.977838 252.819 327.955)"/>
</clipPath>
</defs>
</svg>
