<svg width="202" height="46" viewBox="0 0 202 46" fill="none" xmlns="http://www.w3.org/2000/svg">
<path d="M15.1764 8.91643V20.1671L23.5788 25.08L23.6062 35.72L4.87177 44.9486L0 41.705V0L5.10441 2.945V39.1264L18.5292 32.5036L18.5155 27.0343L10.0993 30.9429V5.94429L15.1764 8.91643Z" fill="white"/>
<path fill-rule="evenodd" clip-rule="evenodd" d="M46.0343 20.533C46.7955 20.7997 47.4679 21.2693 47.9776 21.8901C48.5431 22.641 48.9312 23.5083 49.1134 24.428C49.4155 25.6684 49.5761 26.9385 49.5924 28.2144C49.6195 29.4977 49.4815 30.7793 49.1818 32.028C48.9608 32.9634 48.4878 33.8218 47.8134 34.5116C47.1524 35.1689 46.3252 35.6377 45.4185 35.8687C44.236 36.1515 43.022 36.2837 41.8057 36.2623H35.7434V14.3308L39.8488 16.4887V20.9537C40.9027 20.4676 42.0409 20.1866 43.2016 20.1258C44.1621 20.1048 45.1194 20.2424 46.0343 20.533ZM44.5974 31.5123C44.8857 31.1078 45.0775 30.6438 45.1585 30.1551C45.2565 29.4356 45.2977 28.7096 45.2817 27.9837C45.2817 25.1744 44.4195 23.8173 42.6679 23.8173C41.8723 23.8099 41.0798 23.915 40.3141 24.1294L39.8762 24.2244V32.4758L41.0531 32.5708L41.8057 32.5166C42.3801 32.5284 42.9527 32.4506 43.5027 32.2858C43.9395 32.1466 44.322 31.8763 44.5974 31.5123Z" fill="white"/>
<path d="M57.1873 20.493H53.0819V35.8965H57.1873V25.5687L57.8168 25.3651C58.4189 25.1751 59.0758 24.9851 59.7874 24.8087C60.499 24.6322 61.2791 24.4422 62.1275 24.2794V20.1265C60.3714 20.5132 58.6925 21.1874 57.1599 22.1215L57.1873 20.493Z" fill="white"/>
<path fill-rule="evenodd" clip-rule="evenodd" d="M68.0691 20.696C69.1374 20.2871 70.2772 20.0933 71.4218 20.126C72.4475 20.0174 73.4846 20.1514 74.448 20.5171C75.4114 20.8827 76.2736 21.4696 76.9641 22.2296C78.1595 23.9712 78.7372 26.0575 78.6063 28.1603C78.6063 33.5889 76.2252 36.3031 71.4629 36.3031C66.7006 36.3031 64.3194 33.5889 64.3194 28.1603C64.2933 27.0429 64.4036 25.9264 64.6479 24.8353C64.8634 23.9184 65.274 23.0578 65.8521 22.311C66.4379 21.5916 67.2017 21.0352 68.0691 20.696ZM72.73 32.535C73.137 32.3428 73.4806 32.0399 73.7209 31.6617C74.2043 30.5599 74.4155 29.3594 74.3367 28.1603C74.4191 26.9742 74.2077 25.7861 73.7209 24.6996C73.4409 24.3639 73.0897 24.0936 72.6923 23.9081C72.2949 23.7226 71.8611 23.6264 71.4218 23.6264C70.9826 23.6264 70.5488 23.7226 70.1513 23.9081C69.7539 24.0936 69.4027 24.3639 69.1228 24.6996C68.6302 25.7846 68.414 26.973 68.4933 28.1603C68.4933 28.6996 68.5207 29.2387 68.5754 29.7753C68.6189 30.2847 68.7436 30.784 68.9449 31.2546C69.1368 31.6858 69.4387 32.0599 69.8207 32.3403C70.2993 32.6364 70.8586 32.7786 71.4218 32.7474C71.8694 32.8008 72.323 32.7271 72.73 32.535Z" fill="white"/>
<path d="M97.3935 32.3809H96.6546L94.2871 20.7909H90.0038L87.6363 32.3809H86.8973L84.9952 20.4923H80.8897L83.8456 35.8959H90.3733L92.1386 26.4638L93.9176 35.8959H100.432L103.387 20.4923H99.2957L97.3935 32.3809Z" fill="white"/>
<path d="M115.759 27.0755C116.272 27.2838 116.738 27.5932 117.127 27.9848C117.506 28.3635 117.784 28.83 117.935 29.342C118.111 29.9782 118.194 30.6365 118.181 31.2962C118.181 34.6167 116.101 36.277 111.941 36.277C110.267 36.2471 108.599 36.0608 106.96 35.7205L105.974 35.5441L106.098 32.097C107.398 32.2598 108.492 32.382 109.368 32.4634C110.253 32.5448 110.951 32.5855 111.462 32.5855C112.161 32.6415 112.864 32.5347 113.515 32.2734C113.679 32.1987 113.817 32.0778 113.912 31.9257C114.006 31.7736 114.054 31.5972 114.048 31.4184C114.053 31.2347 114.002 31.0539 113.902 30.8991C113.802 30.7444 113.657 30.6227 113.487 30.5498C112.514 30.2397 111.516 30.0127 110.504 29.8713C109.788 29.766 109.083 29.598 108.397 29.3691C107.844 29.1861 107.336 28.8902 106.905 28.5005C106.497 28.1304 106.191 27.6633 106.015 27.1434C105.78 26.4806 105.66 25.7831 105.66 25.0805C105.644 24.3367 105.799 23.5991 106.111 22.9227C106.405 22.325 106.83 21.8007 107.357 21.3891C107.921 20.9567 108.568 20.6427 109.259 20.4663C110.042 20.2463 110.853 20.1411 111.667 20.1541C112.385 20.1591 113.103 20.2044 113.816 20.2898C114.664 20.3848 115.608 20.5341 116.662 20.7377L117.689 20.9277V24.3477C116.375 24.1848 115.28 24.0491 114.404 23.9677C113.528 23.8863 112.83 23.8455 112.31 23.8455C111.631 23.7839 110.947 23.8816 110.312 24.1305C110.163 24.2172 110.041 24.3428 109.959 24.4935C109.877 24.6443 109.838 24.8144 109.847 24.9855C109.845 25.1746 109.906 25.3591 110.02 25.511C110.133 25.6628 110.294 25.7738 110.477 25.827C110.825 25.9477 111.182 26.043 111.544 26.112C112.05 26.2341 112.735 26.3563 113.583 26.5055C114.329 26.6077 115.06 26.7991 115.759 27.0755Z" fill="white"/>
<path fill-rule="evenodd" clip-rule="evenodd" d="M127.747 20.1265C123.176 20.1265 120.904 22.8408 120.904 28.4051C120.719 30.5307 121.28 32.6545 122.492 34.4172C123.152 35.0802 123.952 35.5897 124.835 35.9089C125.717 36.228 126.661 36.349 127.596 36.263C129.776 36.2341 131.944 35.947 134.055 35.408V32.3544L133.193 32.4494C131.674 32.5715 129.964 32.6258 128.034 32.6258C127.274 32.6817 126.519 32.4596 125.913 32.0015C125.654 31.729 125.454 31.4062 125.327 31.0536C125.2 30.7009 125.148 30.3259 125.174 29.9522H134.302L134.521 27.143C134.521 22.4653 132.263 20.1265 127.747 20.1265ZM125.01 26.8037C124.947 25.9133 125.167 25.0259 125.639 24.2658C125.908 23.9907 126.236 23.7794 126.598 23.6478C126.961 23.5162 127.349 23.4676 127.733 23.5058C128.111 23.4623 128.494 23.5058 128.852 23.6329C129.211 23.76 129.535 23.9673 129.799 24.2387C130.259 25.012 130.461 25.9099 130.374 26.8037H125.01Z" fill="white"/>
<path d="M137.997 20.493H142.102L142.075 22.1215C143.608 21.1874 145.286 20.5132 147.042 20.1265V24.2794C146.194 24.4422 145.414 24.6322 144.702 24.8087C143.991 24.9851 143.334 25.1751 142.732 25.3651L142.102 25.5687V35.8965H137.997V20.493Z" fill="white"/>
<path d="M154.337 14.3308H150.177V35.8958H154.337V14.3308Z" fill="white"/>
<path fill-rule="evenodd" clip-rule="evenodd" d="M158.099 28.4051C158.099 22.8861 160.38 20.1265 164.941 20.1265C169.457 20.1265 171.724 22.4472 171.743 27.0887L171.428 29.9522H162.3C162.274 30.3259 162.326 30.7009 162.454 31.0536C162.581 31.4062 162.78 31.729 163.039 32.0015C163.644 32.4619 164.4 32.6842 165.16 32.6258C167.076 32.6258 168.8 32.5715 170.306 32.4494L171.182 32.3544L171.25 35.408C169.135 35.9481 166.961 36.2352 164.777 36.263C163.844 36.3488 162.903 36.2278 162.022 35.9086C161.142 35.5894 160.344 35.0799 159.686 34.4172C158.474 32.6545 157.914 30.5307 158.099 28.4051ZM162.848 24.2658C162.37 25.0239 162.145 25.9118 162.204 26.8037H167.583C167.669 25.9099 167.468 25.012 167.008 24.2387C166.743 23.9673 166.419 23.76 166.061 23.6329C165.703 23.5058 165.319 23.4623 164.941 23.5058C164.557 23.4656 164.169 23.5132 163.806 23.6449C163.443 23.7767 163.115 23.9891 162.848 24.2658Z" fill="white"/>
<path d="M185.757 27.9847C185.368 27.593 184.902 27.2837 184.389 27.0754C183.706 26.8042 182.995 26.6129 182.268 26.5054C181.419 26.3561 180.749 26.234 180.242 26.1118C179.875 26.0442 179.514 25.9489 179.161 25.8268C178.98 25.7732 178.821 25.6617 178.709 25.5096C178.598 25.3575 178.54 25.1733 178.545 24.9854C178.535 24.8141 178.573 24.6433 178.655 24.4923C178.738 24.3412 178.861 24.2159 179.011 24.1304C179.64 23.8795 180.32 23.7818 180.995 23.8454C181.515 23.8454 182.213 23.8861 183.089 23.9675C183.978 24.049 185.073 24.1847 186.373 24.3475V20.9275L185.347 20.7375C184.279 20.534 183.335 20.3847 182.5 20.2897C181.783 20.204 181.061 20.1587 180.338 20.154C179.524 20.142 178.713 20.2471 177.93 20.4661C177.242 20.6399 176.599 20.9542 176.041 21.389C175.511 21.7967 175.084 22.3219 174.796 22.9225C174.483 23.5989 174.329 24.3366 174.344 25.0804C174.325 25.7746 174.422 26.4671 174.632 27.1297C174.812 27.6471 175.118 28.1129 175.521 28.4868C175.954 28.8736 176.461 29.1691 177.013 29.3554C177.699 29.5843 178.404 29.7523 179.12 29.8575C180.133 29.9972 181.131 30.2242 182.103 30.5361C182.265 30.6161 182.4 30.7392 182.495 30.8914C182.59 31.0436 182.64 31.219 182.64 31.3979C182.64 31.5768 182.59 31.7522 182.495 31.9044C182.4 32.0566 182.265 32.1796 182.103 32.2597C181.452 32.5181 180.75 32.6249 180.051 32.5718C179.531 32.5718 178.833 32.5311 177.957 32.4497C177.081 32.3682 175.986 32.2461 174.673 32.0832L174.549 35.5304L175.548 35.7068C177.183 36.0469 178.846 36.2332 180.516 36.2632C184.676 36.2632 186.756 34.603 186.756 31.2825C186.769 30.6227 186.686 29.9645 186.51 29.3282C186.373 28.8264 186.114 28.3653 185.757 27.9847Z" fill="white"/>
<path d="M200.892 27.9702C201.27 28.3489 201.548 28.8154 201.699 29.3274C201.894 29.961 201.995 30.6192 202 31.2817C202 34.6021 199.92 36.2624 195.76 36.2624C194.085 36.2325 192.418 36.0462 190.779 35.706L189.793 35.5295L189.916 32.0824C190.558 32.1628 191.146 32.2233 191.685 32.2787C192.237 32.3355 192.737 32.387 193.187 32.4488C194.077 32.571 194.775 32.571 195.295 32.571C195.989 32.6258 196.688 32.519 197.334 32.2588C197.497 32.1842 197.635 32.0632 197.73 31.9111C197.825 31.7591 197.873 31.5826 197.867 31.4038C197.872 31.2201 197.82 31.0393 197.721 30.8845C197.621 30.7298 197.476 30.6082 197.306 30.5352C196.333 30.2251 195.335 29.9981 194.323 29.8567C193.569 29.7535 192.827 29.5808 192.106 29.341C191.555 29.1547 191.047 28.8592 190.614 28.4724C190.206 28.1022 189.9 27.6352 189.725 27.1152C189.515 26.4527 189.418 25.7601 189.437 25.066C189.418 24.3232 189.568 23.5856 189.875 22.9081C190.169 22.3104 190.594 21.7861 191.121 21.3745C191.685 20.9421 192.332 20.6281 193.023 20.4517C193.806 20.2317 194.617 20.1266 195.431 20.1395C196.154 20.1448 196.876 20.1901 197.594 20.2752C198.424 20.3748 199.368 20.5241 200.426 20.7231L201.453 20.9131V24.3331C200.139 24.1703 199.044 24.0345 198.168 23.9531C197.292 23.8717 196.595 23.831 196.075 23.831C195.4 23.7674 194.719 23.8651 194.09 24.116C193.94 24.2015 193.817 24.3268 193.735 24.4778C193.653 24.6289 193.615 24.7996 193.625 24.971C193.62 25.1588 193.678 25.3431 193.789 25.4952C193.9 25.6473 194.059 25.7588 194.241 25.8124C194.589 25.9332 194.946 26.0284 195.308 26.0974C195.815 26.2195 196.499 26.3417 197.347 26.491C198.07 26.5984 198.777 26.7897 199.455 27.061C199.994 27.258 200.484 27.5682 200.892 27.9702Z" fill="white"/>
</svg>
