<svg width="16" height="15" viewBox="0 0 16 15" fill="none" xmlns="http://www.w3.org/2000/svg">
<path d="M14.0696 7.50002C14.0573 7.05957 13.923 6.6307 13.6809 6.26184C13.4396 5.89366 13.1 5.59911 12.7005 5.41229C12.8525 4.99843 12.8846 4.55048 12.7959 4.11889C12.7066 3.68661 12.498 3.28843 12.1946 2.96866C11.8741 2.66525 11.4766 2.45729 11.0443 2.36729C10.6127 2.27866 10.1648 2.3107 9.75093 2.46275C9.56479 2.06252 9.27093 1.72229 8.90206 1.48093C8.5332 1.23957 8.10434 1.10457 7.6632 1.09366C7.22274 1.10525 6.79525 1.23889 6.42706 1.48093C6.05888 1.72298 5.76638 2.0632 5.58161 2.46275C5.16706 2.3107 4.71775 2.27729 4.28479 2.36729C3.85184 2.45593 3.45297 2.66457 3.13252 2.96866C2.82911 3.28911 2.62184 3.68798 2.53388 4.11957C2.44525 4.55116 2.47934 4.99911 2.63206 5.41229C2.23184 5.59911 1.89093 5.89298 1.6482 6.26116C1.40547 6.62934 1.26979 7.05889 1.25684 7.50002C1.27047 7.94116 1.40547 8.37002 1.6482 8.73889C1.89093 9.10707 2.23184 9.40161 2.63206 9.58775C2.47934 10.0009 2.44525 10.4489 2.53388 10.8805C2.62252 11.3127 2.82911 11.7109 3.13184 12.0314C3.45229 12.3334 3.85047 12.5407 4.28206 12.63C4.71365 12.72 5.16161 12.6873 5.57547 12.5373C5.76229 12.9368 6.05615 13.2764 6.42502 13.5184C6.7932 13.7598 7.22274 13.8941 7.6632 13.9064C8.10434 13.8955 8.5332 13.7612 8.90206 13.5198C9.27093 13.2784 9.56479 12.9375 9.75093 12.538C10.1627 12.7009 10.6141 12.7398 11.0484 12.6498C11.4821 12.5598 11.8802 12.345 12.1939 12.0314C12.5075 11.7177 12.723 11.3196 12.813 10.8852C12.903 10.4509 12.8641 9.99957 12.7005 9.58775C13.1 9.40093 13.4396 9.10707 13.6816 8.7382C13.923 8.37002 14.0573 7.94048 14.0696 7.50002ZM6.75093 10.125L4.41297 7.78775L5.29456 6.90002L6.70729 8.31275L9.70729 5.04411L10.6257 5.89366L6.75093 10.125Z" fill="#259DF4"/>
</svg>
