<svg width="17" height="16" viewBox="0 0 17 16" fill="none" xmlns="http://www.w3.org/2000/svg">
<g id="Frame">
<g id="Group">
<path id="Vector" d="M1.68205 6.66668C1.68205 3.72001 4.07139 1.33334 7.01872 1.33334H9.92939C12.9227 1.33334 15.3487 3.76001 15.3487 6.75334C15.3487 8.72668 14.2774 10.54 12.5514 11.4933L7.18205 14.4667V12.0067H7.13739C4.14405 12.0733 1.68205 9.66668 1.68205 6.66668ZM7.01872 2.66668C4.80739 2.66668 3.01539 4.46001 3.01539 6.66668C3.01539 8.91334 4.86205 10.72 7.10739 10.6733L7.34139 10.6667H8.51539V12.2L11.9067 10.3267C13.2074 9.60668 14.0154 8.24001 14.0154 6.75334C14.0154 4.49334 12.1861 2.66668 9.92939 2.66668H7.01872Z" fill="#999999"/>
</g>
</g>
</svg>
