<svg width="17" height="16" viewBox="0 0 17 16" fill="none" xmlns="http://www.w3.org/2000/svg">
<g id="Frame" clip-path="url(#clip0_6325_2631)">
<g id="Group">
<path id="Vector" d="M3.13605 2.58669L6.09071 5.34669L5.18138 6.32002L3.80271 5.03335V10.6667C3.80271 11.4 4.40005 12 5.13605 12H8.80271V13.3334H5.13605C3.66338 13.3334 2.46938 12.14 2.46938 10.6667V5.03335L1.09071 6.32002L0.181381 5.34669L3.13605 2.58669ZM11.136 4.00002H7.46938V2.66669H11.136C12.6087 2.66669 13.8027 3.86002 13.8027 5.33335V10.9667L15.1814 9.68002L16.0907 10.6534L13.136 13.4134L10.1814 10.6534L11.0907 9.68002L12.4694 10.9667V5.33335C12.4694 4.60002 11.872 4.00002 11.136 4.00002Z" fill="#999999"/>
</g>
</g>
<defs>
<clipPath id="clip0_6325_2631">
<rect width="16" height="16" fill="white" transform="translate(0.136032)"/>
</clipPath>
</defs>
</svg>
