<svg width="17" height="16" viewBox="0 0 17 16" fill="none" xmlns="http://www.w3.org/2000/svg">
<g id="view 1" clip-path="url(#clip0_6325_2626)">
<g id="Group">
<path id="Vector" d="M8.75732 14C12.3573 14 15.1573 10.9 16.3573 9.10002C16.8573 8.40002 16.8573 7.50002 16.3573 6.80002C15.1573 5.10002 12.3573 2.00002 8.75732 2.00002C5.15732 2.00002 2.35732 5.10002 1.15732 6.90002C0.657318 7.60002 0.657318 8.50002 1.15732 9.10002C2.35732 10.9 5.15732 14 8.75732 14ZM8.75732 5.00002C10.4573 5.00002 11.7573 6.30002 11.7573 8.00002C11.7573 9.70002 10.4573 11 8.75732 11C7.05732 11 5.75732 9.70002 5.75732 8.00002C5.75732 6.30002 7.05732 5.00002 8.75732 5.00002Z" fill="#999999"/>
</g>
</g>
<defs>
<clipPath id="clip0_6325_2626">
<rect width="16" height="16" fill="white" transform="translate(0.757355)"/>
</clipPath>
</defs>
</svg>
