<svg width="592" height="224" viewBox="0 0 592 224" fill="none" xmlns="http://www.w3.org/2000/svg">
<g opacity="0.06">
<mask id="mask0_1220_91341" style="mask-type:alpha" maskUnits="userSpaceOnUse" x="0" y="0" width="592" height="224">
<rect width="592" height="224" fill="url(#paint0_radial_1220_91341)"/>
</mask>
<g mask="url(#mask0_1220_91341)">
<rect x="32" width="1" height="224" fill="white"/>
<rect x="63" width="1" height="224" fill="white"/>
<rect x="94" width="1" height="224" fill="white"/>
<rect x="125" width="1" height="224" fill="white"/>
<rect x="156" width="1" height="224" fill="white"/>
<rect x="187" width="1" height="224" fill="white"/>
<rect x="218" width="1" height="224" fill="white"/>
<rect x="249" width="1" height="224" fill="white"/>
<rect x="280" width="1" height="224" fill="white"/>
<rect x="311" width="1" height="224" fill="white"/>
<rect x="342" width="1" height="224" fill="white"/>
<rect x="373" width="1" height="224" fill="white"/>
<rect x="404" width="1" height="224" fill="white"/>
<rect x="435" width="1" height="224" fill="white"/>
<rect x="466" width="1" height="224" fill="white"/>
<rect x="497" width="1" height="224" fill="white"/>
<rect x="528" width="1" height="224" fill="white"/>
<rect x="559" width="1" height="224" fill="white"/>
<rect y="20" width="1" height="592" transform="rotate(-90 0 20)" fill="white"/>
<rect y="51" width="1" height="592" transform="rotate(-90 0 51)" fill="white"/>
<rect y="82" width="1" height="592" transform="rotate(-90 0 82)" fill="white"/>
<rect y="113" width="1" height="592" transform="rotate(-90 0 113)" fill="white"/>
<rect y="144" width="1" height="592" transform="rotate(-90 0 144)" fill="white"/>
<rect y="175" width="1" height="592" transform="rotate(-90 0 175)" fill="white"/>
<rect y="206" width="1" height="592" transform="rotate(-90 0 206)" fill="white"/>
</g>
</g>
<g opacity="0.08">
<mask id="mask1_1220_91341" style="mask-type:alpha" maskUnits="userSpaceOnUse" x="0" y="0" width="592" height="224">
<path fill-rule="evenodd" clip-rule="evenodd" d="M32 0H33V19H63V0H64V19H94V0H95V19L125 19V0H126V19L156 19V0H157V19H187V0H188V19L218 19V0H219V19L249 19V0H250V19L280 19V0H281V19H311V0H312V19L342 19V0H343V19L373 19V0H374V19L404 19V0H405V19H435V0H436V19L466 19V0H467V19L497 19V0H498V19H528V0H529V19H559V0H560V19L592 19V20L560 20V50H592V51H560V81H592V82H560V112H592V113H560V143H592V144H560V174H592V175H560V205H592V206H560V224H559V206H529V224H528V206H498V224H497V206H467V224H466V206L436 206V224H435V206H405V224H404V206H374V224H373V206H343V224H342V206H312V224H311V206H281V224H280V206H250V224H249V206H219V224H218V206H188V224H187V206H157V224H156V206L126 206V224H125V206H95V224H94V206H64V224H63V206H33V224H32V206H0V205H32V175H0V174H32V144H0V143H32V113H0V112H32V82H0V81H32V51H0V50H32V20L0 20V19L32 19V0ZM33 205H63V175H33V205ZM64 205H94V175H64V205ZM95 205H125V175H95V205ZM126 205L156 205V175L126 175V205ZM157 205H187V175H157V205ZM188 205H218V175H188V205ZM219 205H249V175H219V205ZM250 205H280V175H250V205ZM281 205H311V175H281V205ZM312 205H342V175H312V205ZM343 205H373V175H343V205ZM374 205H404V175H374V205ZM405 205H435V175H405V205ZM436 205L466 205V175L436 175V205ZM467 205H497V175H467V205ZM498 205H528V175H498V205ZM529 205H559V175H529V205ZM559 144V174H529V144H559ZM528 144V174H498V144H528ZM497 144V174H467V144H497ZM466 144V174L436 174V144L466 144ZM435 144V174H405V144H435ZM404 144V174H374V144H404ZM373 144V174H343V144H373ZM342 144V174H312V144H342ZM311 144V174H281V144H311ZM280 144V174H250V144H280ZM249 144V174H219V144H249ZM218 144V174H188V144H218ZM187 144V174H157V144H187ZM156 144V174L126 174V144L156 144ZM125 144V174H95V144H125ZM94 144V174H64V144H94ZM63 144V174H33V144H63ZM33 143H63V113H33V143ZM64 143H94V113H64V143ZM95 143H125V113L95 113V143ZM126 143L156 143V113H126V143ZM157 143H187V113H157V143ZM188 143H218V113H188V143ZM219 143H249V113H219V143ZM250 143H280V113H250V143ZM281 143H311V113L281 113V143ZM312 143H342V113H312V143ZM343 143H373V113H343V143ZM374 143H404V113H374V143ZM405 143H435V113H405V143ZM436 143L466 143V113H436V143ZM467 143H497V113L467 113V143ZM498 143H528V113H498V143ZM529 143H559V113H529V143ZM559 82V112H529V82H559ZM528 82V112H498V82H528ZM497 82V112L467 112V82L497 82ZM466 82V112H436V82H466ZM435 82V112H405V82H435ZM404 82V112H374V82H404ZM373 82V112H343V82H373ZM342 82V112H312V82H342ZM311 82V112L281 112V82L311 82ZM280 82V112H250V82H280ZM249 82V112H219V82H249ZM218 82V112H188V82H218ZM187 82V112H157V82H187ZM156 82V112H126V82H156ZM125 82V112L95 112V82L125 82ZM94 82V112H64V82H94ZM63 82V112H33V82H63ZM33 81H63V51L33 51V81ZM64 81H94V51H64V81ZM95 81L125 81V51H95V81ZM126 81H156V51L126 51V81ZM157 81H187V51H157V81ZM188 81H218V51L188 51V81ZM219 81H249V51H219V81ZM250 81H280V51H250V81ZM281 81L311 81V51L281 51V81ZM312 81H342V51H312V81ZM343 81H373V51H343V81ZM374 81H404V51L374 51V81ZM405 81H435V51H405V81ZM436 81H466V51L436 51V81ZM467 81L497 81V51H467V81ZM498 81H528V51H498V81ZM529 81H559V51L529 51V81ZM559 20V50L529 50V20H559ZM528 20V50H498V20H528ZM497 20V50H467V20L497 20ZM466 20V50L436 50V20L466 20ZM435 20V50H405V20H435ZM404 20V50L374 50V20L404 20ZM373 20V50H343V20L373 20ZM342 20V50H312V20L342 20ZM311 20V50L281 50V20H311ZM280 20V50H250V20L280 20ZM249 20V50H219V20L249 20ZM218 20V50L188 50V20L218 20ZM187 20V50H157V20H187ZM156 20V50L126 50V20L156 20ZM125 20V50H95V20L125 20ZM94 20V50H64V20H94ZM63 20V50L33 50V20H63Z" fill="white"/>
</mask>
<g mask="url(#mask1_1220_91341)">
<ellipse cx="296" cy="112" rx="200" ry="112" fill="url(#paint1_radial_1220_91341)"/>
</g>
</g>
<defs>
<radialGradient id="paint0_radial_1220_91341" cx="0" cy="0" r="1" gradientUnits="userSpaceOnUse" gradientTransform="translate(296 112) rotate(90) scale(112 296)">
<stop/>
<stop offset="1" stop-opacity="0"/>
</radialGradient>
<radialGradient id="paint1_radial_1220_91341" cx="0" cy="0" r="1" gradientUnits="userSpaceOnUse" gradientTransform="translate(296 112) rotate(90) scale(112 200)">
<stop offset="0.339286" stop-color="#FF40A7"/>
<stop offset="1" stop-color="#E233FF" stop-opacity="0"/>
</radialGradient>
</defs>
</svg>
