<svg width="198" height="52" viewBox="0 0 198 52" fill="none" xmlns="http://www.w3.org/2000/svg">
<g clip-path="url(#clip0_1093_92562)">
<path d="M117.492 22.2858H122.722V40.8572H117.492V38.4429C115.624 41.2287 113.196 41.4144 111.701 41.4144C105.911 41.4144 102.175 36.9572 102.175 31.5715C102.175 26.0001 105.911 21.7287 111.328 21.7287C112.822 21.7287 115.624 21.9144 117.305 24.7001V22.2858H117.492ZM107.779 31.5715C107.779 34.5429 109.833 36.7715 113.009 36.7715C115.997 36.7715 118.239 34.5429 118.239 31.5715C118.239 28.6001 116.184 26.3715 113.009 26.3715C110.02 26.3715 107.779 28.6001 107.779 31.5715ZM132.996 26.7429V40.8572H127.765V26.7429H125.711V22.2858H127.765V15.9715H132.996V22.2858H136.545V26.7429H132.996ZM148.873 26.7429C147.565 25.6287 146.445 25.4429 145.884 25.4429C144.577 25.4429 143.83 26.0001 143.83 26.9287C143.83 27.4858 144.016 28.0429 145.511 28.6001L146.818 28.9715C148.313 29.5287 150.554 30.0858 151.488 31.5715C152.048 32.3144 152.422 33.4287 152.422 34.7287C152.422 36.4001 151.862 38.0715 150.367 39.3715C148.873 40.6715 147.005 41.4144 144.763 41.4144C140.841 41.4144 138.786 39.5572 137.479 38.2572L140.28 35.1001C141.401 36.2144 142.896 37.3287 144.39 37.3287C145.884 37.3287 147.005 36.5858 147.005 35.2858C147.005 34.1715 146.071 33.6144 145.324 33.4287L144.203 33.0572C142.896 32.5001 141.401 31.9429 140.28 30.8287C139.346 29.9001 138.786 28.7858 138.786 27.3001C138.786 25.4429 139.72 23.9572 140.654 23.0287C142.148 21.9144 144.016 21.7287 145.511 21.7287C146.818 21.7287 149.06 21.9144 151.488 23.7715L148.873 26.7429ZM160.267 24.7001C162.135 22.1001 164.75 21.7287 166.245 21.7287C171.662 21.7287 175.397 26.0001 175.397 31.5715C175.397 37.1429 171.662 41.4144 166.058 41.4144C164.937 41.4144 162.135 41.2287 160.08 38.4429V40.8572H155.037V9.65723H160.267V24.7001ZM159.707 31.5715C159.707 34.5429 161.762 36.7715 164.937 36.7715C167.926 36.7715 170.167 34.5429 170.167 31.5715C170.167 28.6001 168.113 26.3715 164.937 26.3715C161.762 26.3715 159.707 28.6001 159.707 31.5715ZM183.99 38.0715L175.024 22.2858H181.188L186.979 32.8715L192.209 22.2858H198.186L183.243 50.7001H177.265L183.99 38.0715ZM100.867 25.4429H87.7918V30.6429H94.7031C93.5823 34.1715 90.9673 36.5858 86.1107 36.5858C80.6937 36.5858 76.771 32.1287 76.771 26.7429C76.771 21.3572 80.5069 16.7144 85.9239 16.7144C88.9125 16.7144 91.9012 18.2001 93.7691 20.6144L98.0654 17.8287C95.2635 13.9287 90.7805 11.7001 85.9239 11.7001C77.705 11.7001 70.9805 18.3858 70.9805 26.7429C70.9805 35.1001 77.3314 41.7858 85.9239 41.7858C94.5163 41.7858 100.867 35.1001 100.867 26.7429C101.054 26.1858 100.867 25.8144 100.867 25.4429Z" fill="white"/>
<path d="M46.6979 25.9999H33.6224V29.7141H42.5884C41.2809 35.2856 37.1714 39.9284 31.7545 41.7856L10.2733 20.4284C12.5148 13.9284 18.8658 9.28557 26.1507 9.28557C31.7545 9.28557 36.7979 12.0713 39.9733 16.3427L42.7752 13.9284C39.0394 8.91415 33.062 5.57129 26.1507 5.57129C16.4375 5.57129 8.21861 12.4427 6.16389 21.5427L30.8205 46.057C39.7865 43.8284 46.6979 35.657 46.6979 25.9999ZM5.60352 26.1856C5.60352 31.3856 7.65823 36.3999 11.5809 40.2999C15.5035 44.1999 20.7337 46.2427 25.7771 46.2427L5.60352 26.1856Z" fill="white"/>
<path d="M26.1509 0C11.7679 0 0 11.7 0 26C0 40.3 11.7679 52 26.1509 52C40.534 52 52.3019 40.3 52.3019 26C52.3019 11.7 40.534 0 26.1509 0ZM11.5811 40.4857C7.65849 36.5857 5.60377 31.3857 5.60377 26.3714L25.9642 46.4286C20.734 46.2429 15.5038 44.3857 11.5811 40.4857ZM30.634 45.8714L6.16415 21.5429C8.21887 12.4429 16.4377 5.57143 26.1509 5.57143C33.0623 5.57143 39.0396 8.91429 42.7755 13.9286L39.9736 16.3429C36.7981 12.0714 31.7547 9.28571 26.1509 9.28571C18.866 9.28571 12.7019 13.9286 10.2736 20.4286L31.7547 41.7857C37.1717 39.9286 41.2811 35.2857 42.5887 29.7143H33.6226V26H46.6981C46.6981 35.6571 39.7868 43.8286 30.634 45.8714Z" fill="#663399"/>
</g>
<defs>
<clipPath id="clip0_1093_92562">
<rect width="198" height="52" fill="white"/>
</clipPath>
</defs>
</svg>
