<svg width="86" height="56" viewBox="0 0 86 56" fill="none" xmlns="http://www.w3.org/2000/svg">
<path d="M20.332 15.7317H36.5179V17.019H21.8157V26.7078H35.6411V27.9952H21.8157V38.6326H36.6865V39.9199H20.332V15.7317ZM37.9679 15.7317H39.6876L47.3084 26.3691L55.0979 15.7317L65.6928 2.21973L48.2863 27.487L57.256 39.9199H55.4688L47.3084 28.605L39.1144 39.9199H37.3609L46.398 27.487L37.9679 15.7317ZM57.8967 17.019V15.7317H76.3418V17.019H67.8442V39.9199H66.3605V17.019H57.8967Z" fill="white"/>
<path d="M0.0839844 15.7314H1.93861L27.5129 54.0263L16.9442 39.9197L1.63513 17.5608L1.56769 39.9197H0.0839844V15.7314Z" fill="white"/>
<path d="M76.1926 38.244C76.4993 38.244 76.7231 38.009 76.7231 37.7053C76.7231 37.4015 76.4993 37.1665 76.1926 37.1665C75.8895 37.1665 75.6621 37.4015 75.6621 37.7053C75.6621 38.009 75.8895 38.244 76.1926 38.244ZM77.6505 36.8266C77.6505 37.7233 78.2965 38.3091 79.2383 38.3091C80.2416 38.3091 80.8478 37.7053 80.8478 36.6567V32.9649H80.0395V36.6531C80.0395 37.2352 79.7472 37.5462 79.2311 37.5462C78.7692 37.5462 78.4552 37.2569 78.4444 36.8266H77.6505ZM81.9052 36.7796C81.9629 37.7125 82.7388 38.3091 83.8936 38.3091C85.1277 38.3091 85.9 37.6836 85.9 36.6856C85.9 35.901 85.4597 35.4671 84.3916 35.2176L83.8178 35.0766C83.1393 34.9175 82.8651 34.7041 82.8651 34.3317C82.8651 33.8617 83.2909 33.5543 83.9297 33.5543C84.5359 33.5543 84.9545 33.8544 85.0303 34.3353H85.817C85.7701 33.4567 84.9978 32.8384 83.9405 32.8384C82.8037 32.8384 82.0459 33.4567 82.0459 34.3859C82.0459 35.1525 82.4753 35.6081 83.4172 35.8287L84.0884 35.9914C84.7777 36.1541 85.0808 36.3927 85.0808 36.7905C85.0808 37.2533 84.6045 37.5896 83.9549 37.5896C83.2584 37.5896 82.7749 37.275 82.7063 36.7796H81.9052Z" fill="white"/>
</svg>
