<svg width="90" height="56" viewBox="0 0 90 56" fill="none" xmlns="http://www.w3.org/2000/svg">
<g clip-path="url(#clip0_1102_91769)">
<path fill-rule="evenodd" clip-rule="evenodd" d="M18.5302 38.9676C18.5302 37.6571 18.5302 36.4564 18.3318 33.8952C18.086 31.3221 16.7526 30.0179 14.4715 29.5596C17.1737 29.2071 19.174 27.0923 19.174 23.8495C19.174 19.5139 16.3314 16.7998 10.6112 16.7998H0V21.3182H9.55851C12.0852 21.3182 13.3485 22.4076 13.3485 24.2052C13.3485 26.2496 12.0852 27.0218 9.55851 27.0218H0V31.6393H7.50551H9.27775C11.2781 31.6393 12.3659 32.2033 12.5414 34.7411C12.6741 36.4742 12.6575 37.3325 12.6415 38.1555L12.6415 38.1561L12.6413 38.1659V38.1659V38.166V38.166V38.1661C12.6363 38.4275 12.6314 38.6856 12.6314 38.9676H18.5302ZM0 35.5249V38.9672H7.50527V36.7641C7.50527 36.3012 7.27911 35.5249 6.23727 35.5249H0ZM89.5129 23.4873H83.6664L81.0057 27.2148L78.4151 23.4873H72.1484L77.7848 31.1883L71.6582 39.1704H77.5048L80.6206 34.9156L83.7364 39.1704H90.003L83.8414 30.9421L89.5129 23.4873ZM47.8189 22.9912C50.5847 22.9912 52.02 24.2571 52.6853 26.0857C53.5255 24.3274 55.3809 22.9912 58.0066 22.9912C62.3127 22.9912 63.573 25.9802 63.573 29.2504V39.0962H57.9016V30.7625C57.9016 28.6174 57.5164 27.4922 55.801 27.4922C53.9105 27.4922 53.2803 29.0394 53.2803 31.3954V39.0962H47.6089V30.7625C47.6089 28.6174 47.1888 27.4922 45.4733 27.4922C43.6178 27.4922 42.9527 29.0394 42.9527 31.3954V39.0962H37.2812V23.4132H42.9527V25.7692C43.7929 24.0462 45.4733 22.9912 47.8189 22.9912ZM31.3741 33.0102C30.8489 34.2409 29.8687 34.7683 28.3283 34.7683C26.6128 34.7683 25.2124 33.8541 25.0724 31.92H36.0302V30.3377C36.0302 26.0829 33.2646 22.4961 28.0481 22.4961C23.1819 22.4961 19.541 26.0477 19.541 31.0058C19.541 35.999 23.112 39.0231 28.1182 39.0231C32.2493 39.0231 35.1201 37.0188 35.9252 33.4321L31.3741 33.0102ZM25.1425 29.1772C25.3524 27.7003 26.1577 26.5751 27.9782 26.5751C29.6586 26.5751 30.5688 27.7707 30.6388 29.1772H25.1425ZM65.4276 39.1996V23.5166H71.099V39.1996H65.4276ZM71.1341 22.0397H65.3926V17.0464H71.1341V22.0397Z" fill="white"/>
</g>
<defs>
<clipPath id="clip0_1102_91769">
<rect width="90" height="56" fill="white"/>
</clipPath>
</defs>
</svg>
