<svg width="640" height="640" viewBox="0 0 640 640" fill="none" xmlns="http://www.w3.org/2000/svg">
<circle opacity="0.05" cx="320" cy="320" r="320" fill="#259DF4"/>
<circle opacity="0.05" cx="320" cy="320" r="270" fill="#259DF4"/>
<circle opacity="0.05" cx="320" cy="320" r="220" fill="#259DF4"/>
<path fill-rule="evenodd" clip-rule="evenodd" d="M256 110.673C256 107.981 253.403 106.049 250.842 106.88C160.975 136.021 96 220.423 96 320C96 321.725 96.0195 323.444 96.0583 325.16C96.1067 327.305 97.8736 329 100.02 329C102.292 329 104.103 327.109 104.053 324.838C104.018 323.23 104 321.617 104 320C104 224.032 166.586 142.682 253.168 114.538C254.846 113.992 256 112.437 256 110.673ZM384 110.673C384 112.437 385.154 113.992 386.832 114.538C473.414 142.682 536 224.032 536 320C536 321.617 535.982 323.229 535.947 324.838C535.897 327.109 537.708 329 539.98 329C542.126 329 543.893 327.305 543.942 325.16C543.98 323.444 544 321.725 544 320C544 220.423 479.025 136.021 389.158 106.88C386.597 106.049 384 107.981 384 110.673ZM492.029 463.473C494.199 460.874 492.314 457 488.928 457C487.709 457 486.555 457.548 485.773 458.483C446.151 505.863 386.595 536 320 536C253.405 536 193.849 505.863 154.227 458.483C153.445 457.548 152.291 457 151.072 457C147.686 457 145.801 460.874 147.971 463.473C189.061 512.688 250.874 544 320 544C389.126 544 450.939 512.688 492.029 463.473Z" fill="#259DF4"/>
<circle opacity="0.05" cx="320" cy="320" r="170" fill="#259DF4"/>
<circle opacity="0.4" cx="320" cy="320" r="170" stroke="#259DF4" stroke-width="3" stroke-linecap="round" stroke-linejoin="round" stroke-dasharray="0.01 8"/>
<circle opacity="0.05" cx="320" cy="320" r="120" fill="#259DF4"/>
<circle cx="320" cy="320" r="70" fill="white"/>
<rect x="292" y="292" width="56" height="56" fill="black"/>
<circle opacity="0.4" cx="320" cy="320" r="120" stroke="#259DF4" stroke-width="3" stroke-linecap="round" stroke-linejoin="round" stroke-dasharray="0.01 8"/>
<circle cx="140" cy="393" r="44" fill="#663399"/>
<path d="M140 366C125.15 366 113 378.15 113 393C113 407.85 125.15 420 140 420C154.85 420 167 407.85 167 393C167 378.15 154.85 366 140 366ZM124.957 408.043C120.907 403.993 118.786 398.593 118.786 393.386L139.807 414.214C134.407 414.021 129.007 412.093 124.957 408.043ZM144.629 413.636L119.364 388.371C121.486 378.921 129.971 371.786 140 371.786C147.136 371.786 153.307 375.257 157.164 380.464L154.271 382.971C150.993 378.536 145.786 375.643 140 375.643C132.479 375.643 126.114 380.464 123.607 387.214L145.786 409.393C151.379 407.464 155.621 402.643 156.971 396.857H147.714V393H161.214C161.214 403.029 154.079 411.514 144.629 413.636Z" fill="white"/>
<circle cx="500" cy="393" r="44" fill="white"/>
<path d="M484.588 381.519H499.445V382.712H485.95V391.689H498.64V392.882H485.95V402.737H499.6V403.93H484.588V381.519ZM500.776 381.519H502.355L509.35 391.375L516.5 381.519L526.225 369L510.248 392.411L518.481 403.93H516.841L509.35 393.447L501.828 403.93H500.219L508.514 392.411L500.776 381.519ZM519.069 382.712V381.519H536V382.712H528.2V403.93H526.838V382.712H519.069Z" fill="black"/>
<path d="M466 381.519H467.702L491.177 417L481.476 403.93L467.424 383.214L467.362 403.93H466V381.519Z" fill="black"/>
<circle cx="320" cy="126" r="44" fill="#9BDEFF"/>
<g clip-path="url(#clip0_1329_96536)">
<path d="M320.5 131.61C323.601 131.61 326.115 129.098 326.115 126C326.115 122.902 323.601 120.39 320.5 120.39C317.399 120.39 314.885 122.902 314.885 126C314.885 129.098 317.399 131.61 320.5 131.61Z" fill="black"/>
<path d="M320.5 137.494C337.14 137.494 350.63 132.348 350.63 126C350.63 119.652 337.14 114.506 320.5 114.506C303.859 114.506 290.369 119.652 290.369 126C290.369 132.348 303.859 137.494 320.5 137.494Z" stroke="black" stroke-width="2"/>
<path d="M310.536 131.747C318.856 146.145 330.061 155.243 335.564 152.07C341.066 148.896 338.782 134.651 330.462 120.253C322.141 105.856 310.936 96.7568 305.433 99.9307C299.931 103.105 302.215 117.349 310.536 131.747Z" stroke="black" stroke-width="2"/>
<path d="M310.536 120.253C302.216 134.651 299.931 148.896 305.434 152.07C310.936 155.243 322.142 146.145 330.462 131.747C338.782 117.349 341.067 103.105 335.564 99.9307C330.062 96.7568 318.856 105.856 310.536 120.253Z" stroke="black" stroke-width="2"/>
</g>
<defs>
<clipPath id="clip0_1329_96536">
<rect width="63" height="56" fill="white" transform="translate(289 98)"/>
</clipPath>
</defs>
</svg>
