<svg width="44" height="44" viewBox="0 0 44 44" fill="none" xmlns="http://www.w3.org/2000/svg">
<rect width="44" height="44" rx="22" fill="#EE2B6C"/>
<path d="M30.4767 17.7264C30.124 17.0289 29.6151 16.4252 28.9908 15.9636C28.3666 15.5021 27.6444 15.1957 26.8824 15.0691C26.1203 14.9424 25.3397 14.999 24.6031 15.2343C23.8665 15.4696 23.1946 15.8771 22.6412 16.424L22.0006 17.0188L21.3803 16.4453C20.8283 15.8878 20.1531 15.4722 19.4111 15.2329C18.669 14.9937 17.8814 14.9377 17.1138 15.0697C16.3506 15.1906 15.6268 15.4946 15.0025 15.9565C14.3783 16.4184 13.8716 17.025 13.5246 17.7257C13.0607 18.6488 12.8986 19.6979 13.0618 20.7209C13.225 21.7439 13.705 22.6874 14.4322 23.4146L21.4628 30.7693C21.5327 30.8423 21.6163 30.9003 21.7087 30.9399C21.8011 30.9796 21.9004 31 22.0006 31C22.1009 31 22.2002 30.9796 22.2926 30.9399C22.3849 30.9003 22.4686 30.8423 22.5385 30.7693L29.5593 23.4283C30.2895 22.7004 30.7721 21.7552 30.937 20.7298C31.102 19.7045 30.9408 18.6524 30.4767 17.7264Z" fill="white"/>
</svg>
