<svg width="121" height="30" viewBox="0 0 121 30" fill="none" xmlns="http://www.w3.org/2000/svg">
<path fill-rule="evenodd" clip-rule="evenodd" d="M11.656 21.4286C7.77602 21.4286 4.33885 19.686 2.22018 17.0058V27.8571H118.78V17.0058C116.661 19.686 113.224 21.4286 109.344 21.4286C102.907 21.4286 97.6881 16.6316 97.6881 10.7143C97.6881 4.79695 102.907 0 109.344 0C115.781 0 121 4.79695 121 10.7143V30H0V10.7143C0 4.79695 5.21855 0 11.656 0C18.0934 0 23.3119 4.79695 23.3119 10.7143C23.3119 16.6316 18.0934 21.4286 11.656 21.4286ZM11.656 19.2857C16.9705 19.2857 21.0917 15.3508 21.0917 10.7143C21.0917 6.07774 16.9705 2.14286 11.656 2.14286C6.3414 2.14286 2.22018 6.07774 2.22018 10.7143C2.22018 15.3508 6.3414 19.2857 11.656 19.2857ZM109.344 2.14286C114.659 2.14286 118.78 6.07774 118.78 10.7143C118.78 15.3508 114.659 19.2857 109.344 19.2857C104.029 19.2857 99.9082 15.3508 99.9082 10.7143C99.9082 6.07774 104.029 2.14286 109.344 2.14286Z" fill="white"/>
<path fill-rule="evenodd" clip-rule="evenodd" d="M48.5496 10.7959C48.5496 10.9204 48.5473 11.0445 48.5427 11.168V20.9253H46.3225V17.0871C44.2302 19.7199 40.8583 21.4286 37.0549 21.4286C30.7066 21.4286 25.5603 16.6682 25.5603 10.7959C25.5603 4.92364 30.7066 0.163225 37.0549 0.163225C43.4032 0.163225 48.5496 4.92364 48.5496 10.7959ZM37.0549 19.2857C42.1425 19.2857 46.1348 15.5831 46.3225 11.1244V10.4674C46.1348 6.00869 42.1425 2.30608 37.0549 2.30608C31.8429 2.30608 27.7805 6.19202 27.7805 10.7959C27.7805 15.3998 31.8429 19.2857 37.0549 19.2857Z" fill="white"/>
<path d="M55.3962 7.27635C55.3962 5.7296 56.1376 4.51299 57.3035 3.66198C58.4909 2.79524 60.1178 2.31679 61.7755 2.35066C63.4279 2.38443 65.0279 2.92449 66.2039 3.99112C67.3618 5.04128 68.2018 6.68553 68.2018 9.1178H70.422C70.422 6.17115 69.3838 3.93462 67.7243 2.42954C66.083 0.94092 63.9266 0.251284 61.8225 0.208284C59.7237 0.165393 57.5942 0.763102 55.9643 1.95286C54.3128 3.15835 53.176 4.97856 53.176 7.27635V20.9325H55.3962V7.27635Z" fill="white"/>
<path d="M94.1163 16.0412C93.1552 17.5664 91.6371 19.1926 89.7942 20.0864L89.7505 20.1091C87.4602 21.2942 84.8034 21.698 82.2315 21.2513L82.2109 21.2477C79.6356 20.7958 77.3076 19.5188 75.6233 17.6354L75.5855 17.593C73.8983 15.6864 72.9736 13.2858 72.9712 10.8066C72.9688 8.32723 73.889 5.92499 75.5726 4.01552L75.6102 3.97307C77.291 2.08683 79.6166 0.80592 82.191 0.349661L82.2118 0.345994C84.7828 -0.104974 87.4404 0.294374 89.7329 1.47564L89.7765 1.49822C91.5883 2.44155 93.1515 3.88617 94.1634 5.53846C94.4306 5.97492 94.6594 6.42587 94.8442 6.8859C94.9496 7.14841 95.0407 7.41389 95.1164 7.68131H92.7889C92.0215 5.83399 90.596 4.2943 88.756 3.32399L88.7126 3.30121C86.8516 2.33231 84.6887 2.00481 82.5979 2.37535L82.5771 2.37906C80.4946 2.75283 78.6154 3.79628 77.2628 5.33041L77.2254 5.37307C75.8921 6.90531 75.1639 8.82437 75.1658 10.8045C75.1676 12.7847 75.8994 14.7026 77.2357 16.2327L77.2732 16.2753C78.6288 17.8072 80.5101 18.8475 82.5933 19.2177L82.614 19.2214C84.7055 19.5884 86.8677 19.2573 88.7268 18.2852L88.7704 18.2623L88.8283 18.2314C90.6383 17.2564 92.0389 15.7274 92.7948 13.8983H95.1207C95.0536 14.1415 94.959 14.4061 94.8388 14.6852C94.6553 15.1114 94.4122 15.5715 94.1163 16.0412Z" fill="white"/>
</svg>
