<svg width="183" height="44" viewBox="0 0 183 44" fill="none" xmlns="http://www.w3.org/2000/svg">
<path fill-rule="evenodd" clip-rule="evenodd" d="M21.9607 0C9.83213 0 0 9.84974 0 22C0 34.1503 9.83213 44 21.9607 44H26.3528C27.97 44 29.2809 42.6867 29.2809 41.0667V36.6891L29.2809 36.6667C29.2809 32.6166 32.5583 29.3334 36.6011 29.3334L29.2809 29.3333L40.9932 29.3333C42.6104 29.3333 43.9213 28.02 43.9213 26.4V17.6C43.9213 15.98 42.6104 14.6667 40.9932 14.6667H32.209C30.5918 14.6667 29.2809 15.98 29.2809 17.6V21.9569L29.281 22C29.281 26.0501 26.0035 29.3333 21.9607 29.3333C21.4455 29.3333 20.9427 29.28 20.4575 29.1786C17.1357 28.4841 14.6405 25.534 14.6405 22C14.6405 18.0765 17.7162 14.8726 21.584 14.6762C21.6464 14.673 21.709 14.6707 21.7717 14.6691C21.8346 14.6675 21.8976 14.6667 21.9608 14.6667L26.3528 14.6667C27.97 14.6667 29.2809 13.3534 29.2809 11.7333V2.93333C29.2809 1.3133 27.97 0 26.3528 0H21.9607ZM80.7209 10.9997H75.1999C74.9939 10.9997 74.8291 10.8367 74.8291 10.633V5.86664C74.8291 5.66295 74.9939 5.5 75.1999 5.5H80.7209C80.9269 5.5 81.0917 5.66295 81.0917 5.86664V10.633C81.0917 10.8367 80.9269 10.9997 80.7209 10.9997ZM80.7621 34.0169H75.1999C74.9939 34.0169 74.8291 33.8539 74.8291 33.6502L74.9527 23.5471L74.8291 13.4032C74.8291 13.1996 74.9939 13.0366 75.1999 13.0366H80.7621C80.9681 13.0366 81.1329 13.1996 81.1329 13.4032L81.0093 23.5471L81.1329 33.6502C81.1329 33.8539 80.9681 34.0169 80.7621 34.0169ZM57.5402 23.1397C57.5402 27.6617 59.1882 29.943 62.1548 29.9023C65.1625 29.9023 66.7693 27.7839 66.8105 23.5471C66.8517 19.1881 65.2449 16.7845 62.2784 16.7438C59.147 16.6623 57.5402 18.9437 57.5402 23.1397ZM72.7024 33.4465C72.7024 38.7425 69.2002 42.1645 62.196 42.1645C56.6337 42.246 52.39 40.0054 52.0604 35.402C52.0604 35.1983 52.2252 35.0353 52.4312 35.0353H57.7462C57.9934 35.0353 58.1582 35.1983 58.1994 35.402C58.4878 37.113 59.8887 38.1314 62.402 38.1314C65.0801 38.1314 66.9341 36.6649 66.9341 33.365V30.9615C65.5333 32.7947 63.4732 33.8946 60.8363 33.8946C54.5325 33.8946 51.2363 29.2912 51.2363 23.3841C51.2363 17.5178 54.7797 12.7514 60.5479 12.7514C63.1848 12.7514 65.2449 13.6477 66.6869 15.3179L66.5633 13.4032C66.5633 13.1996 66.7281 13.0366 66.9341 13.0366H72.3727C72.5788 13.0366 72.7436 13.1996 72.7436 13.4032L72.6612 23.8323L72.7024 33.4465ZM96.421 33.2428V29.9838C96.421 29.8208 96.2562 29.6579 96.0502 29.6986C95.4321 29.9023 94.6493 30.0652 93.6605 30.0652C92.3008 30.0652 91.3944 29.4949 91.3944 27.7024L91.3532 17.3549H96.0914C96.2974 17.3549 96.4622 17.1919 96.4622 16.9882V13.4032C96.4622 13.1996 96.2974 13.0366 96.0914 13.0366H91.3944L91.4356 8.14799C91.4356 7.9443 91.2708 7.78135 91.0648 7.78135H85.5849C85.3789 7.78135 85.2141 7.9443 85.2141 8.14799L85.2553 13.0366H82.8656C82.6596 13.0366 82.4948 13.1996 82.4948 13.4032V16.9882C82.4948 17.1919 82.6596 17.3549 82.8656 17.3549H85.2553L85.2141 27.8654C85.2141 32.6318 88.6339 34.4242 92.2184 34.4242C93.5368 34.4242 94.8965 34.1391 96.0914 33.7317C96.2562 33.6502 96.421 33.4465 96.421 33.2428ZM103.735 34.0169H98.1315C97.9255 34.0169 97.7607 33.8539 97.7607 33.6502L97.8843 23.9545L97.8431 13.4032C97.8431 13.1996 98.0079 13.0366 98.2139 13.0366H103.446C103.652 13.0366 103.817 13.1996 103.817 13.4032L103.694 15.6846C105.136 13.8514 107.567 12.5477 110.533 12.5477C115.024 12.5477 117.908 15.5624 117.908 20.6954V25.0952L118.032 33.6502C118.032 33.8539 117.867 34.0169 117.661 34.0169H112.14C111.934 34.0169 111.769 33.8539 111.769 33.6502L111.852 25.0952V20.7769C111.852 18.4955 110.492 17.029 108.638 17.029C106.413 17.029 104.023 19.0659 104.023 23.5471V25.0952L104.106 33.6502C104.106 33.8539 103.941 34.0169 103.735 34.0169ZM140.041 26.9284H134.85C134.643 26.9284 134.438 27.0913 134.396 27.295C133.819 29.5356 132.336 30.4726 130.276 30.4726C127.31 30.4726 125.744 28.7209 125.497 24.7692H140.659C140.865 24.7692 141.03 24.6063 141.03 24.4026C140.906 17.0697 137.033 12.507 130.07 12.507C123.313 12.507 119.275 16.9067 119.275 23.5878C119.275 29.943 123.107 34.5465 130.194 34.5465C136.127 34.5465 139.835 31.1244 140.371 27.295C140.412 27.0913 140.247 26.9284 140.041 26.9284ZM130.111 16.5401C132.831 16.5401 134.108 18.6585 134.355 20.8991H125.662C126.156 18.0067 127.639 16.5401 130.111 16.5401ZM161.796 27.6209C161.796 32.0207 157.593 34.5057 151.866 34.5057C145.686 34.5057 141.731 32.0207 141.525 27.3358C141.525 27.1321 141.69 26.9691 141.896 26.9691H147.169C147.375 26.9691 147.54 27.1321 147.54 27.3358C147.705 29.6986 149.271 30.717 152.155 30.717C154.586 30.717 155.904 29.7801 155.904 28.1505C155.904 26.5437 153.655 26.2105 150.967 25.8123C146.977 25.2211 142.019 24.4867 142.019 19.2288C142.019 14.8698 145.563 12.5477 151.29 12.5477C156.852 12.5477 160.601 14.7476 160.972 19.1474C161.013 19.351 160.848 19.514 160.642 19.514H155.616C155.41 19.514 155.245 19.351 155.204 19.1474C154.874 17.3549 153.72 16.2549 151.207 16.2549C149.188 16.2549 147.911 16.9882 147.911 18.7807C147.911 20.3809 150.142 20.6853 152.815 21.0499C156.811 21.5951 161.796 22.2752 161.796 27.6209ZM173.071 34.5057C178.798 34.5057 183 32.0207 183 27.6209C183 22.2752 178.015 21.5951 174.019 21.0499C171.346 20.6853 169.115 20.3809 169.115 18.7807C169.115 16.9882 170.393 16.2549 172.412 16.2549C174.925 16.2549 176.078 17.3549 176.408 19.1474C176.449 19.351 176.614 19.514 176.82 19.514H181.847C182.053 19.514 182.217 19.351 182.176 19.1474C181.805 14.7476 178.056 12.5477 172.494 12.5477C166.767 12.5477 163.224 14.8698 163.224 19.2288C163.224 24.4867 168.181 25.2211 172.171 25.8123C174.859 26.2105 177.109 26.5437 177.109 28.1505C177.109 29.7801 175.79 30.717 173.359 30.717C170.475 30.717 168.909 29.6986 168.745 27.3358C168.745 27.1321 168.58 26.9691 168.374 26.9691H163.1C162.894 26.9691 162.729 27.1321 162.729 27.3358C162.935 32.0207 166.891 34.5057 173.071 34.5057Z" fill="white"/>
</svg>
