<svg width="66" height="69" viewBox="0 0 66 69" fill="none" xmlns="http://www.w3.org/2000/svg">
<g filter="url(#filter0_d_6353_580)">
<rect x="7" y="6" width="52" height="52" rx="8" fill="url(#paint0_linear_6353_580)"/>
<rect x="7.5" y="6.5" width="51" height="51" rx="7.5" stroke="url(#paint1_linear_6353_580)"/>
</g>
<g style="mix-blend-mode:overlay" opacity="0.6" filter="url(#filter1_f_6353_580)">
<circle cx="33" cy="32.002" r="17" fill="white"/>
</g>
<g clip-path="url(#clip0_6353_580)">
<path d="M39.3102 22.512H42.515L35.515 30.5662L43.78 41.4879H37.2861L32.2258 34.8674L26.4065 41.4879H23.2017L30.7077 32.8855L22.78 22.512H29.4427L34.0391 28.5843L39.3102 22.512ZM38.1716 39.5481H39.9427L28.4728 24.3252H26.533L38.1716 39.5481Z" fill="url(#paint2_linear_6353_580)"/>
</g>
<defs>
<filter id="filter0_d_6353_580" x="0" y="3" width="66" height="66" filterUnits="userSpaceOnUse" color-interpolation-filters="sRGB">
<feFlood flood-opacity="0" result="BackgroundImageFix"/>
<feColorMatrix in="SourceAlpha" type="matrix" values="0 0 0 0 0 0 0 0 0 0 0 0 0 0 0 0 0 0 127 0" result="hardAlpha"/>
<feOffset dy="4"/>
<feGaussianBlur stdDeviation="3.5"/>
<feComposite in2="hardAlpha" operator="out"/>
<feColorMatrix type="matrix" values="0 0 0 0 0 0 0 0 0 0 0 0 0 0 0 0 0 0 0.25 0"/>
<feBlend mode="normal" in2="BackgroundImageFix" result="effect1_dropShadow_6353_580"/>
<feBlend mode="normal" in="SourceGraphic" in2="effect1_dropShadow_6353_580" result="shape"/>
</filter>
<filter id="filter1_f_6353_580" x="1" y="0.00195312" width="64" height="64" filterUnits="userSpaceOnUse" color-interpolation-filters="sRGB">
<feFlood flood-opacity="0" result="BackgroundImageFix"/>
<feBlend mode="normal" in="SourceGraphic" in2="BackgroundImageFix" result="shape"/>
<feGaussianBlur stdDeviation="7.5" result="effect1_foregroundBlur_6353_580"/>
</filter>
<linearGradient id="paint0_linear_6353_580" x1="33" y1="6" x2="33" y2="58" gradientUnits="userSpaceOnUse">
<stop stop-color="#333333"/>
<stop offset="1" stop-color="#1A1A1A"/>
</linearGradient>
<linearGradient id="paint1_linear_6353_580" x1="33" y1="6" x2="33" y2="58" gradientUnits="userSpaceOnUse">
<stop stop-color="#666666" stop-opacity="0.2"/>
<stop offset="1" stop-opacity="0.4"/>
</linearGradient>
<linearGradient id="paint2_linear_6353_580" x1="33.28" y1="22.512" x2="33.28" y2="41.4879" gradientUnits="userSpaceOnUse">
<stop stop-color="white"/>
<stop offset="1" stop-color="white" stop-opacity="0.8"/>
</linearGradient>
<clipPath id="clip0_6353_580">
<rect width="21" height="18.9759" fill="white" transform="translate(22.78 22.512)"/>
</clipPath>
</defs>
</svg>
