<svg width="52" height="52" viewBox="0 0 52 52" fill="none" xmlns="http://www.w3.org/2000/svg">
<g clip-path="url(#clip0_8201_780)">
<rect x="0.5" y="0.5" width="51" height="51" rx="7.5" fill="url(#paint0_linear_8201_780)" stroke="url(#paint1_linear_8201_780)"/>
<g style="mix-blend-mode:overlay" opacity="0.6" filter="url(#filter0_f_8201_780)">
<circle cx="26" cy="26" r="17" fill="white"/>
</g>
<g clip-path="url(#clip1_8201_780)">
<path d="M32.3104 16.5156H35.5152L28.5152 24.5698L36.7803 35.4915H30.2863L25.2261 28.871L19.4068 35.4915H16.202L23.708 26.8891L15.7803 16.5156H22.4429L27.0393 22.5879L32.3104 16.5156ZM31.1718 33.5518H32.9429L21.473 18.3289H19.5333L31.1718 33.5518Z" fill="url(#paint2_linear_8201_780)"/>
</g>
</g>
<defs>
<filter id="filter0_f_8201_780" x="-6" y="-6" width="64" height="64" filterUnits="userSpaceOnUse" color-interpolation-filters="sRGB">
<feFlood flood-opacity="0" result="BackgroundImageFix"/>
<feBlend mode="normal" in="SourceGraphic" in2="BackgroundImageFix" result="shape"/>
<feGaussianBlur stdDeviation="7.5" result="effect1_foregroundBlur_8201_780"/>
</filter>
<linearGradient id="paint0_linear_8201_780" x1="26" y1="0" x2="26" y2="52" gradientUnits="userSpaceOnUse">
<stop stop-color="#333333"/>
<stop offset="1" stop-color="#1A1A1A"/>
</linearGradient>
<linearGradient id="paint1_linear_8201_780" x1="26" y1="0" x2="26" y2="52" gradientUnits="userSpaceOnUse">
<stop stop-color="#666666" stop-opacity="0.2"/>
<stop offset="1" stop-opacity="0.4"/>
</linearGradient>
<linearGradient id="paint2_linear_8201_780" x1="26.2803" y1="16.5156" x2="26.2803" y2="35.4915" gradientUnits="userSpaceOnUse">
<stop stop-color="white"/>
<stop offset="1" stop-color="white" stop-opacity="0.8"/>
</linearGradient>
<clipPath id="clip0_8201_780">
<rect width="52" height="52" rx="8" fill="white"/>
</clipPath>
<clipPath id="clip1_8201_780">
<rect width="21" height="18.9759" fill="white" transform="translate(15.7803 16.5156)"/>
</clipPath>
</defs>
</svg>
