<svg width="66" height="69" viewBox="0 0 66 69" fill="none" xmlns="http://www.w3.org/2000/svg">
<g filter="url(#filter0_d_6353_568)">
<rect x="7" y="6" width="52" height="52" rx="8" fill="url(#paint0_linear_6353_568)"/>
<rect x="7.5" y="6.5" width="51" height="51" rx="7.5" stroke="url(#paint1_linear_6353_568)"/>
</g>
<g style="mix-blend-mode:overlay" opacity="0.6" filter="url(#filter1_f_6353_568)">
<circle cx="33" cy="32.002" r="17" fill="white"/>
</g>
<path d="M43.8612 42.6321H39.3062V35.569C39.3062 33.8847 39.2758 31.7165 36.9371 31.7165C34.5647 31.7165 34.2017 33.5516 34.2017 35.4463V42.6316H29.6466V28.1069H34.0195V30.0919H34.0807C34.5183 29.351 35.1507 28.7415 35.9105 28.3284C36.6702 27.9152 37.529 27.7138 38.3952 27.7456C43.0119 27.7456 43.8632 30.7524 43.8632 34.6641L43.8612 42.6321ZM24.507 26.1215C23.9842 26.1216 23.4731 25.9682 23.0383 25.6807C22.6036 25.3931 22.2647 24.9844 22.0646 24.5062C21.8644 24.028 21.812 23.5017 21.9139 22.994C22.0158 22.4863 22.2674 22.0199 22.6371 21.6538C23.0067 21.2877 23.4776 21.0383 23.9904 20.9372C24.5031 20.8361 25.0346 20.8879 25.5176 21.0859C26.0007 21.2839 26.4136 21.6193 26.7041 22.0497C26.9947 22.48 27.1498 22.986 27.1499 23.5037C27.1499 23.8474 27.0816 24.1878 26.9488 24.5053C26.8161 24.8229 26.6214 25.1115 26.376 25.3546C26.1306 25.5976 25.8392 25.7905 25.5185 25.9221C25.1978 26.0537 24.8541 26.1214 24.507 26.1215ZM26.7845 42.6321H22.2247V28.1069H26.7845V42.6321Z" fill="url(#paint2_linear_6353_568)"/>
<defs>
<filter id="filter0_d_6353_568" x="0" y="3" width="66" height="66" filterUnits="userSpaceOnUse" color-interpolation-filters="sRGB">
<feFlood flood-opacity="0" result="BackgroundImageFix"/>
<feColorMatrix in="SourceAlpha" type="matrix" values="0 0 0 0 0 0 0 0 0 0 0 0 0 0 0 0 0 0 127 0" result="hardAlpha"/>
<feOffset dy="4"/>
<feGaussianBlur stdDeviation="3.5"/>
<feComposite in2="hardAlpha" operator="out"/>
<feColorMatrix type="matrix" values="0 0 0 0 0 0 0 0 0 0 0 0 0 0 0 0 0 0 0.25 0"/>
<feBlend mode="normal" in2="BackgroundImageFix" result="effect1_dropShadow_6353_568"/>
<feBlend mode="normal" in="SourceGraphic" in2="effect1_dropShadow_6353_568" result="shape"/>
</filter>
<filter id="filter1_f_6353_568" x="1" y="0.00195312" width="64" height="64" filterUnits="userSpaceOnUse" color-interpolation-filters="sRGB">
<feFlood flood-opacity="0" result="BackgroundImageFix"/>
<feBlend mode="normal" in="SourceGraphic" in2="BackgroundImageFix" result="shape"/>
<feGaussianBlur stdDeviation="7.5" result="effect1_foregroundBlur_6353_568"/>
</filter>
<linearGradient id="paint0_linear_6353_568" x1="33" y1="6" x2="33" y2="58" gradientUnits="userSpaceOnUse">
<stop stop-color="#333333"/>
<stop offset="1" stop-color="#1A1A1A"/>
</linearGradient>
<linearGradient id="paint1_linear_6353_568" x1="33" y1="6" x2="33" y2="58" gradientUnits="userSpaceOnUse">
<stop stop-color="#666666" stop-opacity="0.2"/>
<stop offset="1" stop-opacity="0.4"/>
</linearGradient>
<linearGradient id="paint2_linear_6353_568" x1="32.8632" y1="20.8868" x2="32.8632" y2="42.6321" gradientUnits="userSpaceOnUse">
<stop stop-color="white"/>
<stop offset="1" stop-color="white" stop-opacity="0.8"/>
</linearGradient>
</defs>
</svg>
