<svg width="112" height="112" viewBox="0 0 112 112" fill="none" xmlns="http://www.w3.org/2000/svg">
<rect width="112" height="112" rx="20" fill="black"/>
<path fill-rule="evenodd" clip-rule="evenodd" d="M77.6 48.0644C77.6 50.2152 74.9887 51.2802 73.4845 49.7428L42.6892 18.2681C46.8532 16.7992 51.3333 16 56 16C63.9563 16 71.37 18.3229 77.6 22.3276V48.0644ZM88.8 33.0994V48.0644C88.8 60.2523 74.0027 66.2872 65.479 57.5755L32.3622 23.7282C22.4409 31.0074 16 42.7515 16 56C16 64.5176 18.6622 72.4133 23.2 78.9006V64.0156C23.2 51.8277 37.9973 45.7928 46.521 54.5045L79.5922 88.3052C89.5394 81.0285 96 69.2687 96 56C96 47.4824 93.3378 39.5867 88.8 33.0994ZM38.5155 62.3372L69.2526 93.7524C65.1051 95.2083 60.645 96 56 96C48.0437 96 40.63 93.6771 34.4 89.6724V64.0156C34.4 61.8648 37.0113 60.7998 38.5155 62.3372Z" fill="url(#paint0_radial_3683_109895)"/>
<path fill-rule="evenodd" clip-rule="evenodd" d="M77.6 48.0644C77.6 50.2152 74.9887 51.2802 73.4845 49.7428L42.6892 18.2681C46.8532 16.7992 51.3333 16 56 16C63.9563 16 71.37 18.3229 77.6 22.3276V48.0644ZM88.8 33.0994V48.0644C88.8 60.2523 74.0027 66.2872 65.479 57.5755L32.3622 23.7282C22.4409 31.0074 16 42.7515 16 56C16 64.5176 18.6622 72.4133 23.2 78.9006V64.0156C23.2 51.8277 37.9973 45.7928 46.521 54.5045L79.5922 88.3052C89.5394 81.0285 96 69.2687 96 56C96 47.4824 93.3378 39.5867 88.8 33.0994ZM38.5155 62.3372L69.2526 93.7524C65.1051 95.2083 60.645 96 56 96C48.0437 96 40.63 93.6771 34.4 89.6724V64.0156C34.4 61.8648 37.0113 60.7998 38.5155 62.3372Z" fill="url(#paint1_linear_3683_109895)"/>
<path fill-rule="evenodd" clip-rule="evenodd" d="M77.6 48.0644C77.6 50.2152 74.9887 51.2802 73.4845 49.7428L42.6892 18.2681C46.8532 16.7992 51.3333 16 56 16C63.9563 16 71.37 18.3229 77.6 22.3276V48.0644ZM88.8 33.0994V48.0644C88.8 60.2523 74.0027 66.2872 65.479 57.5755L32.3622 23.7282C22.4409 31.0074 16 42.7515 16 56C16 64.5176 18.6622 72.4133 23.2 78.9006V64.0156C23.2 51.8277 37.9973 45.7928 46.521 54.5045L79.5922 88.3052C89.5394 81.0285 96 69.2687 96 56C96 47.4824 93.3378 39.5867 88.8 33.0994ZM38.5155 62.3372L69.2526 93.7524C65.1051 95.2083 60.645 96 56 96C48.0437 96 40.63 93.6771 34.4 89.6724V64.0156C34.4 61.8648 37.0113 60.7998 38.5155 62.3372Z" fill="url(#paint2_linear_3683_109895)"/>
<defs>
<radialGradient id="paint0_radial_3683_109895" cx="0" cy="0" r="1" gradientUnits="userSpaceOnUse" gradientTransform="translate(56 56) rotate(135) scale(56.5685)">
<stop offset="0.34" stop-color="#FF006A"/>
<stop offset="0.613333" stop-color="#E300BD"/>
<stop offset="0.766667" stop-color="#FF4CE1"/>
</radialGradient>
<linearGradient id="paint1_linear_3683_109895" x1="65.3333" y1="13.3333" x2="56" y2="96" gradientUnits="userSpaceOnUse">
<stop offset="0.0851785" stop-color="#FFBA33"/>
<stop offset="0.553333" stop-color="#FF006A" stop-opacity="0"/>
</linearGradient>
<linearGradient id="paint2_linear_3683_109895" x1="56" y1="16" x2="56" y2="96" gradientUnits="userSpaceOnUse">
<stop offset="0.546667" stop-opacity="0"/>
<stop offset="1" stop-opacity="0.6"/>
</linearGradient>
</defs>
</svg>
