<svg width="112" height="112" viewBox="0 0 112 112" fill="none" xmlns="http://www.w3.org/2000/svg">
<rect width="112" height="112" rx="20" fill="#D9EEF2"/>
<path d="M94 92.131C94 88.3374 90.9248 85.2622 87.1312 85.2622H48.6427L89.3819 34.3867C90.5678 32.9057 91.214 31.0651 91.214 29.1678V29.1678C91.214 24.5565 87.4758 20.8184 82.8645 20.8184H35.8975C32.104 20.8184 29.0287 23.8936 29.0287 27.6872V27.6872C29.0287 31.4807 32.104 34.556 35.8975 34.556H68.0338L27.5893 85.5701C26.4286 87.0342 25.7969 88.8478 25.7969 90.7162V90.7162C25.7969 95.2911 29.5055 98.9998 34.0804 98.9998H87.1312C90.9248 98.9998 94 95.9245 94 92.131V92.131Z" fill="#2E3338"/>
<path d="M90.0977 88.2218C90.0977 84.4283 87.0224 81.353 83.2289 81.353H44.7404L85.4796 30.4775C86.6655 28.9966 87.3116 27.1559 87.3116 25.2586V25.2586C87.3116 20.6474 83.5735 16.9092 78.9622 16.9092H31.9952C28.2016 16.9092 25.1264 19.9844 25.1264 23.778V23.778C25.1264 27.5715 28.2016 30.6468 31.9952 30.6468H64.1315L23.687 81.6609C22.5262 83.125 21.8945 84.9386 21.8945 86.8071V86.8071C21.8945 91.3819 25.6032 95.0906 30.1781 95.0906H83.2289C87.0224 95.0906 90.0977 92.0153 90.0977 88.2218V88.2218Z" fill="#F0F075"/>
<path d="M86.2032 84.3126C86.2032 80.5191 83.1279 77.4438 79.3344 77.4438H40.8458L81.585 26.5683C82.7709 25.0874 83.4171 23.2467 83.4171 21.3495V21.3495C83.4171 16.7382 79.6789 13 75.0676 13H28.1006C24.3071 13 21.2318 16.0753 21.2318 19.8688V19.8688C21.2318 23.6623 24.3071 26.7376 28.1006 26.7376H60.2369L19.7925 77.7517C18.6317 79.2159 18 81.0294 18 82.8979V82.8979C18 87.4727 21.7087 91.1814 26.2835 91.1814H79.3344C83.1279 91.1814 86.2032 88.1061 86.2032 84.3126V84.3126Z" fill="#2E3338"/>
<ellipse cx="72.5611" cy="22.7721" rx="4.87165" ry="4.88634" fill="white"/>
<ellipse cx="27.7408" cy="81.4088" rx="4.87165" ry="4.88634" fill="white"/>
</svg>
