<svg width="52" height="52" viewBox="0 0 52 52" fill="none" xmlns="http://www.w3.org/2000/svg">
<g clip-path="url(#clip0_8201_783)">
<g filter="url(#filter0_d_8201_783)">
<rect width="52" height="52" rx="8" fill="url(#paint0_linear_8201_783)"/>
<rect x="0.5" y="0.5" width="51" height="51" rx="7.5" stroke="url(#paint1_linear_8201_783)"/>
</g>
<g style="mix-blend-mode:overlay" opacity="0.6" filter="url(#filter1_f_8201_783)">
<circle cx="26" cy="26" r="17" fill="white"/>
</g>
<g clip-path="url(#clip1_8201_783)">
<path d="M23.4317 29.8577V22.1526L30.2272 26.0053L23.4317 29.8577ZM38.5475 19.7281C38.2485 18.606 37.3674 17.7224 36.2488 17.4225C34.2213 16.8775 26.0908 16.8775 26.0908 16.8775C26.0908 16.8775 17.9604 16.8775 15.9328 17.4225C14.8141 17.7224 13.9331 18.606 13.6341 19.7281C13.0908 21.7619 13.0908 26.0052 13.0908 26.0052C13.0908 26.0052 13.0908 30.2484 13.6341 32.2822C13.9331 33.4043 14.8141 34.2879 15.9328 34.5879C17.9604 35.1328 26.0908 35.1328 26.0908 35.1328C26.0908 35.1328 34.2213 35.1328 36.2488 34.5879C37.3674 34.2879 38.2485 33.4043 38.5475 32.2822C39.0908 30.2484 39.0908 26.0052 39.0908 26.0052C39.0908 26.0052 39.0908 21.7619 38.5475 19.7281Z" fill="url(#paint2_linear_8201_783)"/>
</g>
</g>
<defs>
<filter id="filter0_d_8201_783" x="-7" y="-3" width="66" height="66" filterUnits="userSpaceOnUse" color-interpolation-filters="sRGB">
<feFlood flood-opacity="0" result="BackgroundImageFix"/>
<feColorMatrix in="SourceAlpha" type="matrix" values="0 0 0 0 0 0 0 0 0 0 0 0 0 0 0 0 0 0 127 0" result="hardAlpha"/>
<feOffset dy="4"/>
<feGaussianBlur stdDeviation="3.5"/>
<feComposite in2="hardAlpha" operator="out"/>
<feColorMatrix type="matrix" values="0 0 0 0 0 0 0 0 0 0 0 0 0 0 0 0 0 0 0.25 0"/>
<feBlend mode="normal" in2="BackgroundImageFix" result="effect1_dropShadow_8201_783"/>
<feBlend mode="normal" in="SourceGraphic" in2="effect1_dropShadow_8201_783" result="shape"/>
</filter>
<filter id="filter1_f_8201_783" x="-6" y="-6" width="64" height="64" filterUnits="userSpaceOnUse" color-interpolation-filters="sRGB">
<feFlood flood-opacity="0" result="BackgroundImageFix"/>
<feBlend mode="normal" in="SourceGraphic" in2="BackgroundImageFix" result="shape"/>
<feGaussianBlur stdDeviation="7.5" result="effect1_foregroundBlur_8201_783"/>
</filter>
<linearGradient id="paint0_linear_8201_783" x1="26" y1="0" x2="26" y2="52" gradientUnits="userSpaceOnUse">
<stop stop-color="#333333"/>
<stop offset="1" stop-color="#1A1A1A"/>
</linearGradient>
<linearGradient id="paint1_linear_8201_783" x1="26" y1="0" x2="26" y2="52" gradientUnits="userSpaceOnUse">
<stop stop-color="#666666" stop-opacity="0.2"/>
<stop offset="1" stop-opacity="0.4"/>
</linearGradient>
<linearGradient id="paint2_linear_8201_783" x1="26.0908" y1="35.1328" x2="26.0908" y2="16.8775" gradientUnits="userSpaceOnUse">
<stop stop-color="white"/>
<stop offset="1" stop-color="white" stop-opacity="0.8"/>
</linearGradient>
<clipPath id="clip0_8201_783">
<rect width="52" height="52" rx="8" fill="white"/>
</clipPath>
<clipPath id="clip1_8201_783">
<rect width="26" height="18.2553" fill="white" transform="translate(13.0908 16.875)"/>
</clipPath>
</defs>
</svg>
