<svg width="66" height="69" viewBox="0 0 66 69" fill="none" xmlns="http://www.w3.org/2000/svg">
<g filter="url(#filter0_d_6353_578)">
<rect x="7" y="6.00146" width="52" height="52" rx="8" fill="url(#paint0_linear_6353_578)"/>
<rect x="7.5" y="6.50146" width="51" height="51" rx="7.5" stroke="url(#paint1_linear_6353_578)"/>
</g>
<g style="mix-blend-mode:overlay" opacity="0.6" filter="url(#filter1_f_6353_578)">
<circle cx="33" cy="32.002" r="17" fill="white"/>
</g>
<g clip-path="url(#clip0_6353_578)">
<path d="M30.432 35.8543V28.1492L37.2274 32.0019L30.432 35.8543ZM45.5477 25.7247C45.2487 24.6026 44.3677 23.719 43.2491 23.4191C41.2215 22.8741 33.0911 22.8741 33.0911 22.8741C33.0911 22.8741 24.9606 22.8741 22.933 23.4191C21.8144 23.719 20.9333 24.6026 20.6344 25.7247C20.0911 27.7584 20.0911 32.0017 20.0911 32.0017C20.0911 32.0017 20.0911 36.245 20.6344 38.2788C20.9333 39.4009 21.8144 40.2845 22.933 40.5845C24.9606 41.1294 33.0911 41.1294 33.0911 41.1294C33.0911 41.1294 41.2215 41.1294 43.2491 40.5845C44.3677 40.2845 45.2487 39.4009 45.5477 38.2788C46.0911 36.245 46.0911 32.0017 46.0911 32.0017C46.0911 32.0017 46.0911 27.7584 45.5477 25.7247Z" fill="url(#paint2_linear_6353_578)"/>
</g>
<defs>
<filter id="filter0_d_6353_578" x="0" y="3.00146" width="66" height="66" filterUnits="userSpaceOnUse" color-interpolation-filters="sRGB">
<feFlood flood-opacity="0" result="BackgroundImageFix"/>
<feColorMatrix in="SourceAlpha" type="matrix" values="0 0 0 0 0 0 0 0 0 0 0 0 0 0 0 0 0 0 127 0" result="hardAlpha"/>
<feOffset dy="4"/>
<feGaussianBlur stdDeviation="3.5"/>
<feComposite in2="hardAlpha" operator="out"/>
<feColorMatrix type="matrix" values="0 0 0 0 0 0 0 0 0 0 0 0 0 0 0 0 0 0 0.25 0"/>
<feBlend mode="normal" in2="BackgroundImageFix" result="effect1_dropShadow_6353_578"/>
<feBlend mode="normal" in="SourceGraphic" in2="effect1_dropShadow_6353_578" result="shape"/>
</filter>
<filter id="filter1_f_6353_578" x="1" y="0.00195312" width="64" height="64" filterUnits="userSpaceOnUse" color-interpolation-filters="sRGB">
<feFlood flood-opacity="0" result="BackgroundImageFix"/>
<feBlend mode="normal" in="SourceGraphic" in2="BackgroundImageFix" result="shape"/>
<feGaussianBlur stdDeviation="7.5" result="effect1_foregroundBlur_6353_578"/>
</filter>
<linearGradient id="paint0_linear_6353_578" x1="33" y1="6.00146" x2="33" y2="58.0015" gradientUnits="userSpaceOnUse">
<stop stop-color="#333333"/>
<stop offset="1" stop-color="#1A1A1A"/>
</linearGradient>
<linearGradient id="paint1_linear_6353_578" x1="33" y1="6.00146" x2="33" y2="58.0015" gradientUnits="userSpaceOnUse">
<stop stop-color="#666666" stop-opacity="0.2"/>
<stop offset="1" stop-opacity="0.4"/>
</linearGradient>
<linearGradient id="paint2_linear_6353_578" x1="33.0911" y1="41.1294" x2="33.0911" y2="22.8741" gradientUnits="userSpaceOnUse">
<stop stop-color="white"/>
<stop offset="1" stop-color="white" stop-opacity="0.8"/>
</linearGradient>
<clipPath id="clip0_6353_578">
<rect width="26" height="18.2553" fill="white" transform="translate(20.0909 22.8741)"/>
</clipPath>
</defs>
</svg>
