<svg width="52" height="52" viewBox="0 0 52 52" fill="none" xmlns="http://www.w3.org/2000/svg">
<g clip-path="url(#clip0_8201_781)">
<g filter="url(#filter0_d_8201_781)">
<rect width="52" height="52" rx="8" fill="url(#paint0_linear_8201_781)"/>
<rect x="0.5" y="0.5" width="51" height="51" rx="7.5" stroke="url(#paint1_linear_8201_781)"/>
</g>
<g style="mix-blend-mode:overlay" opacity="0.6" filter="url(#filter1_f_8201_781)">
<circle cx="26" cy="26" r="17" fill="white"/>
</g>
<path d="M36.8614 36.6359H32.3063V29.5727C32.3063 27.8885 32.276 25.7203 29.9372 25.7203C27.5648 25.7203 27.2018 27.5554 27.2018 29.4501V36.6354H22.6467V22.1107H27.0196V24.0957H27.0808C27.5184 23.3548 28.1508 22.7453 28.9106 22.3321C29.6704 21.919 30.5291 21.7176 31.3953 21.7494C36.0121 21.7494 36.8633 24.7562 36.8633 28.6679L36.8614 36.6359ZM17.5071 20.1253C16.9843 20.1254 16.4732 19.972 16.0384 19.6844C15.6037 19.3969 15.2648 18.9882 15.0647 18.51C14.8645 18.0318 14.8121 17.5055 14.914 16.9978C15.0159 16.4901 15.2676 16.0237 15.6372 15.6576C16.0068 15.2915 16.4777 15.0421 16.9905 14.941C17.5032 14.8399 18.0347 14.8917 18.5178 15.0897C19.0008 15.2877 19.4137 15.6231 19.7042 16.0535C19.9948 16.4838 20.1499 16.9898 20.15 17.5075C20.1501 17.8512 20.0817 18.1916 19.949 18.5091C19.8162 18.8267 19.6215 19.1153 19.3761 19.3583C19.1307 19.6014 18.8393 19.7943 18.5186 19.9259C18.198 20.0575 17.8542 20.1252 17.5071 20.1253ZM19.7846 36.6359H15.2248V22.1107H19.7846V36.6359Z" fill="url(#paint2_linear_8201_781)"/>
</g>
<defs>
<filter id="filter0_d_8201_781" x="-7" y="-3" width="66" height="66" filterUnits="userSpaceOnUse" color-interpolation-filters="sRGB">
<feFlood flood-opacity="0" result="BackgroundImageFix"/>
<feColorMatrix in="SourceAlpha" type="matrix" values="0 0 0 0 0 0 0 0 0 0 0 0 0 0 0 0 0 0 127 0" result="hardAlpha"/>
<feOffset dy="4"/>
<feGaussianBlur stdDeviation="3.5"/>
<feComposite in2="hardAlpha" operator="out"/>
<feColorMatrix type="matrix" values="0 0 0 0 0 0 0 0 0 0 0 0 0 0 0 0 0 0 0.25 0"/>
<feBlend mode="normal" in2="BackgroundImageFix" result="effect1_dropShadow_8201_781"/>
<feBlend mode="normal" in="SourceGraphic" in2="effect1_dropShadow_8201_781" result="shape"/>
</filter>
<filter id="filter1_f_8201_781" x="-6" y="-6" width="64" height="64" filterUnits="userSpaceOnUse" color-interpolation-filters="sRGB">
<feFlood flood-opacity="0" result="BackgroundImageFix"/>
<feBlend mode="normal" in="SourceGraphic" in2="BackgroundImageFix" result="shape"/>
<feGaussianBlur stdDeviation="7.5" result="effect1_foregroundBlur_8201_781"/>
</filter>
<linearGradient id="paint0_linear_8201_781" x1="26" y1="0" x2="26" y2="52" gradientUnits="userSpaceOnUse">
<stop stop-color="#333333"/>
<stop offset="1" stop-color="#1A1A1A"/>
</linearGradient>
<linearGradient id="paint1_linear_8201_781" x1="26" y1="0" x2="26" y2="52" gradientUnits="userSpaceOnUse">
<stop stop-color="#666666" stop-opacity="0.2"/>
<stop offset="1" stop-opacity="0.4"/>
</linearGradient>
<linearGradient id="paint2_linear_8201_781" x1="25.8633" y1="14.8906" x2="25.8633" y2="36.6359" gradientUnits="userSpaceOnUse">
<stop stop-color="white"/>
<stop offset="1" stop-color="white" stop-opacity="0.8"/>
</linearGradient>
<clipPath id="clip0_8201_781">
<rect width="52" height="52" rx="8" fill="white"/>
</clipPath>
</defs>
</svg>
