<svg width="112" height="112" viewBox="0 0 112 112" fill="none" xmlns="http://www.w3.org/2000/svg">
<rect width="112" height="112" rx="20" fill="#F25A5A"/>
<path d="M18.4219 22.3332C21.923 21.4905 27.3437 21.0059 32.2382 21.0059C45.4667 21.0059 53.3861 25.5868 53.3861 37.2459C53.3861 44.395 50.4788 49.1118 45.9194 51.68L56.9548 70.4173C56.0964 71.0347 54.2444 71.3897 51.6634 71.3897C48.7561 71.3897 46.8395 71.0439 45.452 70.4173L36.2656 54.1773H35.2073C32.93 54.1785 30.6553 54.0165 28.399 53.6927V70.4883C27.4731 71.0439 25.821 71.3897 23.4428 71.3897C21.1322 71.3897 19.4125 71.0409 18.4219 70.4883V22.3332ZM28.275 44.8782C30.1533 45.2034 32.0538 45.3655 33.9574 45.3628C39.7073 45.3628 43.2114 43.202 43.2114 37.8C43.2114 32.2436 39.5104 29.9594 32.9021 29.9594C31.3512 29.9521 29.8028 30.0895 28.275 30.3699V44.8782Z" fill="white"/>
<path d="M95.4877 72.7846C95.4877 81.1249 91.2398 83.4162 88.0421 84.9567C79.8778 88.8933 66.7988 84.3143 52.8976 82.9207C40.3109 81.2831 27.8275 80.2045 25.8871 83.0126C25.1578 83.7238 25.0027 86.0149 25.8871 86.9492C28.497 89.7048 35.3034 87.7837 40.1231 86.9151C41.6184 86.6807 43.1299 87.2334 44.0881 88.365C45.0463 89.4966 45.3056 91.0353 44.7685 92.4013C44.2313 93.7673 42.9792 94.7533 41.4838 94.9877C39.3051 95.317 37.1032 95.4837 34.8979 95.4863C30.2034 95.4863 24.3005 94.6806 20.9504 91.1351C19.2822 89.3715 17.5731 86.2406 18.8903 81.3409C21.3967 72.0558 36.4001 74.3495 53.7821 76.0921C65.8844 77.3046 79.0132 81.3409 84.2593 77.6347C85.5964 76.6901 88.091 74.5724 86.7463 72.7846C85.4017 70.9968 83.2007 71.9662 80.309 71.9662C65.8246 71.9662 57.2953 62.6832 57.2953 47.1927C57.2974 35.5553 62.1332 27.4175 70.0149 23.5552C73.4399 21.8769 77.44 21.0059 81.8685 21.0059C85.7282 21.0059 89.6512 21.6796 92.1561 23.1589C93.7126 25.3808 94.39 29.3515 94.0498 32.3161C90.8013 30.7679 87.8237 29.9594 83.967 29.9594C74.4231 29.9594 67.8568 34.8075 67.8568 46.5189C67.8568 58.2304 74.3539 62.8779 83.4913 62.8779C86.0926 62.8517 89.6121 62.5378 94.0498 61.9363C95.0084 65.4867 95.4877 69.1028 95.4877 72.7846Z" fill="white"/>
</svg>
