<svg width="346" height="412" viewBox="0 0 346 412" fill="none" xmlns="http://www.w3.org/2000/svg">
<mask id="mask0_6349_15112" style="mask-type:alpha" maskUnits="userSpaceOnUse" x="4" y="0" width="338" height="412">
<rect x="4" width="338" height="412" rx="16" fill="black"/>
</mask>
<g mask="url(#mask0_6349_15112)">
<line x1="230" y1="-11.9" x2="230" y2="314.1" stroke="url(#paint0_linear_6349_15112)" stroke-dasharray="4 4"/>
<line y1="159.5" x2="347" y2="159.5" stroke="url(#paint1_linear_6349_15112)" stroke-dasharray="4 4"/>
<path d="M29.2556 315.443C71.759 280.56 85.2828 60 96.2306 60C111.686 60 112.974 111.611 117.482 118.798C119.941 122.717 146.462 272.324 168.358 272.324C180.593 272.324 180.593 268.405 190.897 268.405C201.201 268.405 249.5 304.365 257.872 306.95C272.684 311.523 281.7 309.563 292.648 309.563C303.596 309.563 335.795 310.87 353.183 311.523C360.267 311.789 380.23 314.136 404.702 314.136C404.702 314.136 492.285 314.136 600.475 314.789" stroke="#ADE0EB" stroke-width="2.3519"/>
<path d="M33.7675 315.7C76.2709 280.818 85.9308 100.505 101.387 100.505C114.91 100.505 118.117 150.143 125.858 157.996C127.79 159.956 156.126 240.966 168.362 240.966C180.597 240.966 181.241 237.699 188.969 237.699C196.697 237.699 216.983 277.551 223.745 282.124C242.42 294.755 262.384 308.91 313.903 308.91C324.851 308.91 347.391 314.136 364.779 315.443C377.623 316.408 382.81 312.83 407.282 312.83C407.282 312.83 489.713 314.789 599.835 314.789" stroke="#E05299" stroke-width="2.3519"/>
<path d="M56.2964 315.7C73.6842 315.7 91.7159 148.849 126.491 148.849C140.015 148.849 155.892 213.089 166.419 216.14C170.927 217.447 175.81 216.14 188.314 216.14C200.55 216.14 217.294 233.126 223.734 235.086C230.174 237.046 259.153 311.359 290.709 310.216C302.301 309.797 306.165 302.376 320.333 302.376C331.28 302.376 340.296 314.79 351.888 314.79C413.711 314.79 441.403 311.523 447.843 311.523C454.209 311.523 494.854 314.79 599.824 314.789" stroke="#F0F075" stroke-width="2.3519"/>
<path d="M600.478 314.789C589.531 314.789 548.935 308.91 532.215 308.91C498.084 308.91 499.372 314.136 486.492 314.136C473.612 314.136 437.549 308.91 437.549 308.91C417.585 305.643 410.501 310.217 392.469 310.217C379.59 310.217 359.626 291.924 356.406 290.617C345.495 286.189 332.578 282.778 322.274 282.778C311.971 282.778 308.751 292.696 299.091 292.696C275.263 292.696 260.451 206.994 257.875 203.727C253.852 198.626 243.708 161.262 229.54 161.262C217.948 161.262 199.979 287.351 189.612 287.351C177.377 287.351 166.429 259.912 163.209 258.605C156.632 255.936 139.349 198.502 131.653 198.502C109.758 198.502 93.6579 315.7 56.3064 315.7H-217" stroke="#00E599" stroke-width="2.3519"/>
<circle cx="258" cy="33" r="3" fill="#00E599"/>
<path d="M268.02 37V36.46H269.97V30.41C269.4 30.77 268.74 31.03 268.06 31.25V30.71C268.85 30.44 269.54 30.1 270.15 29.66H270.58V36.46H272.52V37H268.02ZM275.867 30.05V29.32H276.607V30.05H275.867ZM276.537 37H275.937V31.63H276.537V37ZM277.261 32.14V31.63H278.451V29.93H279.051V31.63H280.451V32.14H279.051V35.57C279.051 36.19 279.321 36.56 280.071 36.56C280.191 36.56 280.321 36.55 280.451 36.53V37.02C280.281 37.06 280.061 37.08 279.881 37.08C278.901 37.08 278.451 36.59 278.451 35.64V32.14H277.261ZM284.99 35.87L285.43 36.25C284.95 36.8 284.33 37.11 283.46 37.11C281.84 37.11 280.86 35.93 280.86 34.27C280.86 32.72 281.77 31.52 283.28 31.52C284.74 31.52 285.61 32.64 285.61 34.12C285.61 34.22 285.6 34.45 285.58 34.56H281.47C281.57 35.73 282.3 36.59 283.48 36.59C284.11 36.59 284.62 36.35 284.99 35.87ZM281.47 34.04H285.02C284.98 32.9 284.36 32.04 283.28 32.04C282.2 32.04 281.54 32.87 281.47 34.04ZM286.753 37V31.63H287.333L287.343 32.63H287.353C287.663 31.93 288.183 31.52 288.863 31.52C289.053 31.52 289.233 31.55 289.383 31.61V32.2C289.223 32.14 289.023 32.1 288.823 32.1C287.933 32.1 287.353 32.91 287.353 33.83V37H286.753ZM293.8 37H293.22L293.21 36.04H293.19C292.76 36.8 292.11 37.11 291.4 37.11C290.34 37.11 289.73 36.47 289.73 35.58C289.73 34.69 290.33 34.27 291.11 34.11C291.68 33.99 292.62 33.94 293.21 33.92V33.22C293.21 32.66 292.77 32.04 291.78 32.04C290.95 32.04 290.52 32.46 290.36 32.99L289.83 32.79C290.08 32.01 290.78 31.52 291.8 31.52C293.07 31.52 293.8 32.21 293.8 33.27V37ZM291.48 36.59C292.5 36.59 293.21 35.72 293.21 34.87V34.41C292.68 34.42 291.96 34.48 291.46 34.57C290.73 34.7 290.33 34.95 290.33 35.55C290.33 36.18 290.78 36.59 291.48 36.59ZM294.449 32.14V31.63H295.639V29.93H296.239V31.63H297.639V32.14H296.239V35.57C296.239 36.19 296.509 36.56 297.259 36.56C297.379 36.56 297.509 36.55 297.639 36.53V37.02C297.469 37.06 297.249 37.08 297.069 37.08C296.089 37.08 295.639 36.59 295.639 35.64V32.14H294.449ZM298.426 30.05V29.32H299.166V30.05H298.426ZM299.096 37H298.496V31.63H299.096V37ZM302.791 37.11C301.161 37.11 300.231 35.85 300.231 34.31C300.231 32.77 301.181 31.52 302.801 31.52C304.421 31.52 305.361 32.77 305.361 34.31C305.361 35.85 304.421 37.11 302.791 37.11ZM302.801 32.04C301.531 32.04 300.831 33.07 300.831 34.32C300.831 35.55 301.531 36.59 302.791 36.59C304.061 36.59 304.761 35.56 304.761 34.32C304.761 33.08 304.071 32.04 302.801 32.04ZM306.495 37V31.63H307.075L307.085 32.63H307.105C307.475 31.92 308.105 31.52 308.955 31.52C310.155 31.52 310.865 32.33 310.865 33.47V37H310.265V33.6C310.265 32.75 309.815 32.04 308.825 32.04C307.835 32.04 307.095 32.78 307.095 33.97V37H306.495Z" fill="#94979E"/>
<circle cx="258" cy="51" r="3" fill="#F0F075"/>
<path d="M267.7 55V54.55L270.42 51.73C271.09 51.03 271.6 50.33 271.6 49.56C271.6 48.71 271 48.09 269.91 48.09C269.16 48.09 268.66 48.38 268.21 48.91L267.78 48.54C268.28 47.94 268.98 47.55 269.95 47.55C271.39 47.55 272.21 48.37 272.21 49.52C272.21 50.34 271.77 51.13 271.03 51.9L268.56 54.44V54.46H272.37V55H267.7ZM275.867 48.05V47.32H276.607V48.05H275.867ZM276.537 55H275.937V49.63H276.537V55ZM277.261 50.14V49.63H278.451V47.93H279.051V49.63H280.451V50.14H279.051V53.57C279.051 54.19 279.321 54.56 280.071 54.56C280.191 54.56 280.321 54.55 280.451 54.53V55.02C280.281 55.06 280.061 55.08 279.881 55.08C278.901 55.08 278.451 54.59 278.451 53.64V50.14H277.261ZM284.99 53.87L285.43 54.25C284.95 54.8 284.33 55.11 283.46 55.11C281.84 55.11 280.86 53.93 280.86 52.27C280.86 50.72 281.77 49.52 283.28 49.52C284.74 49.52 285.61 50.64 285.61 52.12C285.61 52.22 285.6 52.45 285.58 52.56H281.47C281.57 53.73 282.3 54.59 283.48 54.59C284.11 54.59 284.62 54.35 284.99 53.87ZM281.47 52.04H285.02C284.98 50.9 284.36 50.04 283.28 50.04C282.2 50.04 281.54 50.87 281.47 52.04ZM286.753 55V49.63H287.333L287.343 50.63H287.353C287.663 49.93 288.183 49.52 288.863 49.52C289.053 49.52 289.233 49.55 289.383 49.61V50.2C289.223 50.14 289.023 50.1 288.823 50.1C287.933 50.1 287.353 50.91 287.353 51.83V55H286.753ZM293.8 55H293.22L293.21 54.04H293.19C292.76 54.8 292.11 55.11 291.4 55.11C290.34 55.11 289.73 54.47 289.73 53.58C289.73 52.69 290.33 52.27 291.11 52.11C291.68 51.99 292.62 51.94 293.21 51.92V51.22C293.21 50.66 292.77 50.04 291.78 50.04C290.95 50.04 290.52 50.46 290.36 50.99L289.83 50.79C290.08 50.01 290.78 49.52 291.8 49.52C293.07 49.52 293.8 50.21 293.8 51.27V55ZM291.48 54.59C292.5 54.59 293.21 53.72 293.21 52.87V52.41C292.68 52.42 291.96 52.48 291.46 52.57C290.73 52.7 290.33 52.95 290.33 53.55C290.33 54.18 290.78 54.59 291.48 54.59ZM294.449 50.14V49.63H295.639V47.93H296.239V49.63H297.639V50.14H296.239V53.57C296.239 54.19 296.509 54.56 297.259 54.56C297.379 54.56 297.509 54.55 297.639 54.53V55.02C297.469 55.06 297.249 55.08 297.069 55.08C296.089 55.08 295.639 54.59 295.639 53.64V50.14H294.449ZM298.426 48.05V47.32H299.166V48.05H298.426ZM299.096 55H298.496V49.63H299.096V55ZM302.791 55.11C301.161 55.11 300.231 53.85 300.231 52.31C300.231 50.77 301.181 49.52 302.801 49.52C304.421 49.52 305.361 50.77 305.361 52.31C305.361 53.85 304.421 55.11 302.791 55.11ZM302.801 50.04C301.531 50.04 300.831 51.07 300.831 52.32C300.831 53.55 301.531 54.59 302.791 54.59C304.061 54.59 304.761 53.56 304.761 52.32C304.761 51.08 304.071 50.04 302.801 50.04ZM306.495 55V49.63H307.075L307.085 50.63H307.105C307.475 49.92 308.105 49.52 308.955 49.52C310.155 49.52 310.865 50.33 310.865 51.47V55H310.265V51.6C310.265 50.75 309.815 50.04 308.825 50.04C307.835 50.04 307.095 50.78 307.095 51.97V55H306.495Z" fill="#94979E"/>
<circle cx="258" cy="69" r="3" fill="#E05299"/>
<path d="M268.86 66.2L268.65 68.8C269.01 68.64 269.44 68.52 269.97 68.52C271.44 68.52 272.44 69.43 272.44 70.8C272.44 72.14 271.47 73.11 269.89 73.11C268.88 73.11 268.12 72.72 267.68 72.18L268.1 71.78C268.51 72.25 269.1 72.58 269.9 72.58C271.11 72.58 271.83 71.86 271.83 70.81C271.83 69.76 271.08 69.04 269.86 69.04C269.29 69.04 268.83 69.21 268.48 69.4H268.01L268.31 65.66H272.05V66.2H268.86ZM275.867 66.05V65.32H276.607V66.05H275.867ZM276.537 73H275.937V67.63H276.537V73ZM277.261 68.14V67.63H278.451V65.93H279.051V67.63H280.451V68.14H279.051V71.57C279.051 72.19 279.321 72.56 280.071 72.56C280.191 72.56 280.321 72.55 280.451 72.53V73.02C280.281 73.06 280.061 73.08 279.881 73.08C278.901 73.08 278.451 72.59 278.451 71.64V68.14H277.261ZM284.99 71.87L285.43 72.25C284.95 72.8 284.33 73.11 283.46 73.11C281.84 73.11 280.86 71.93 280.86 70.27C280.86 68.72 281.77 67.52 283.28 67.52C284.74 67.52 285.61 68.64 285.61 70.12C285.61 70.22 285.6 70.45 285.58 70.56H281.47C281.57 71.73 282.3 72.59 283.48 72.59C284.11 72.59 284.62 72.35 284.99 71.87ZM281.47 70.04H285.02C284.98 68.9 284.36 68.04 283.28 68.04C282.2 68.04 281.54 68.87 281.47 70.04ZM286.753 73V67.63H287.333L287.343 68.63H287.353C287.663 67.93 288.183 67.52 288.863 67.52C289.053 67.52 289.233 67.55 289.383 67.61V68.2C289.223 68.14 289.023 68.1 288.823 68.1C287.933 68.1 287.353 68.91 287.353 69.83V73H286.753ZM293.8 73H293.22L293.21 72.04H293.19C292.76 72.8 292.11 73.11 291.4 73.11C290.34 73.11 289.73 72.47 289.73 71.58C289.73 70.69 290.33 70.27 291.11 70.11C291.68 69.99 292.62 69.94 293.21 69.92V69.22C293.21 68.66 292.77 68.04 291.78 68.04C290.95 68.04 290.52 68.46 290.36 68.99L289.83 68.79C290.08 68.01 290.78 67.52 291.8 67.52C293.07 67.52 293.8 68.21 293.8 69.27V73ZM291.48 72.59C292.5 72.59 293.21 71.72 293.21 70.87V70.41C292.68 70.42 291.96 70.48 291.46 70.57C290.73 70.7 290.33 70.95 290.33 71.55C290.33 72.18 290.78 72.59 291.48 72.59ZM294.449 68.14V67.63H295.639V65.93H296.239V67.63H297.639V68.14H296.239V71.57C296.239 72.19 296.509 72.56 297.259 72.56C297.379 72.56 297.509 72.55 297.639 72.53V73.02C297.469 73.06 297.249 73.08 297.069 73.08C296.089 73.08 295.639 72.59 295.639 71.64V68.14H294.449ZM298.426 66.05V65.32H299.166V66.05H298.426ZM299.096 73H298.496V67.63H299.096V73ZM302.791 73.11C301.161 73.11 300.231 71.85 300.231 70.31C300.231 68.77 301.181 67.52 302.801 67.52C304.421 67.52 305.361 68.77 305.361 70.31C305.361 71.85 304.421 73.11 302.791 73.11ZM302.801 68.04C301.531 68.04 300.831 69.07 300.831 70.32C300.831 71.55 301.531 72.59 302.791 72.59C304.061 72.59 304.761 71.56 304.761 70.32C304.761 69.08 304.071 68.04 302.801 68.04ZM306.495 73V67.63H307.075L307.085 68.63H307.105C307.475 67.92 308.105 67.52 308.955 67.52C310.155 67.52 310.865 68.33 310.865 69.47V73H310.265V69.6C310.265 68.75 309.815 68.04 308.825 68.04C307.835 68.04 307.095 68.78 307.095 69.97V73H306.495Z" fill="#94979E"/>
<circle cx="258" cy="87" r="3" fill="#ADE0EB"/>
<path d="M268.02 91V90.46H269.97V84.41C269.4 84.77 268.74 85.03 268.06 85.25V84.71C268.85 84.44 269.54 84.1 270.15 83.66H270.58V90.46H272.52V91H268.02ZM276.022 91.11C273.982 91.11 273.462 89.33 273.462 87.34C273.462 85.35 273.992 83.55 276.032 83.55C278.072 83.55 278.592 85.33 278.592 87.32C278.592 89.31 278.062 91.11 276.022 91.11ZM276.022 90.58C277.652 90.58 277.982 89.01 277.982 87.33C277.982 85.65 277.662 84.08 276.032 84.08C274.402 84.08 274.072 85.65 274.072 87.33C274.072 89.01 274.392 90.58 276.022 90.58ZM281.819 84.05V83.32H282.559V84.05H281.819ZM282.489 91H281.889V85.63H282.489V91ZM283.213 86.14V85.63H284.403V83.93H285.003V85.63H286.403V86.14H285.003V89.57C285.003 90.19 285.273 90.56 286.023 90.56C286.143 90.56 286.273 90.55 286.403 90.53V91.02C286.233 91.06 286.013 91.08 285.833 91.08C284.853 91.08 284.403 90.59 284.403 89.64V86.14H283.213ZM290.942 89.87L291.382 90.25C290.902 90.8 290.282 91.11 289.412 91.11C287.792 91.11 286.812 89.93 286.812 88.27C286.812 86.72 287.722 85.52 289.232 85.52C290.692 85.52 291.562 86.64 291.562 88.12C291.562 88.22 291.552 88.45 291.532 88.56H287.422C287.522 89.73 288.252 90.59 289.432 90.59C290.062 90.59 290.572 90.35 290.942 89.87ZM287.422 88.04H290.972C290.932 86.9 290.312 86.04 289.232 86.04C288.152 86.04 287.492 86.87 287.422 88.04ZM292.705 91V85.63H293.285L293.295 86.63H293.305C293.615 85.93 294.135 85.52 294.815 85.52C295.005 85.52 295.185 85.55 295.335 85.61V86.2C295.175 86.14 294.975 86.1 294.775 86.1C293.885 86.1 293.305 86.91 293.305 87.83V91H292.705ZM299.752 91H299.172L299.162 90.04H299.142C298.712 90.8 298.062 91.11 297.352 91.11C296.292 91.11 295.682 90.47 295.682 89.58C295.682 88.69 296.282 88.27 297.062 88.11C297.632 87.99 298.572 87.94 299.162 87.92V87.22C299.162 86.66 298.722 86.04 297.732 86.04C296.902 86.04 296.472 86.46 296.312 86.99L295.782 86.79C296.032 86.01 296.732 85.52 297.752 85.52C299.022 85.52 299.752 86.21 299.752 87.27V91ZM297.432 90.59C298.452 90.59 299.162 89.72 299.162 88.87V88.41C298.632 88.42 297.912 88.48 297.412 88.57C296.682 88.7 296.282 88.95 296.282 89.55C296.282 90.18 296.732 90.59 297.432 90.59ZM300.401 86.14V85.63H301.591V83.93H302.191V85.63H303.591V86.14H302.191V89.57C302.191 90.19 302.461 90.56 303.211 90.56C303.331 90.56 303.461 90.55 303.591 90.53V91.02C303.421 91.06 303.201 91.08 303.021 91.08C302.041 91.08 301.591 90.59 301.591 89.64V86.14H300.401ZM304.379 84.05V83.32H305.119V84.05H304.379ZM305.049 91H304.449V85.63H305.049V91ZM308.743 91.11C307.113 91.11 306.183 89.85 306.183 88.31C306.183 86.77 307.133 85.52 308.753 85.52C310.373 85.52 311.313 86.77 311.313 88.31C311.313 89.85 310.373 91.11 308.743 91.11ZM308.753 86.04C307.483 86.04 306.783 87.07 306.783 88.32C306.783 89.55 307.483 90.59 308.743 90.59C310.013 90.59 310.713 89.56 310.713 88.32C310.713 87.08 310.023 86.04 308.753 86.04ZM312.447 91V85.63H313.027L313.037 86.63H313.057C313.427 85.92 314.057 85.52 314.907 85.52C316.107 85.52 316.817 86.33 316.817 87.47V91H316.217V87.6C316.217 86.75 315.767 86.04 314.777 86.04C313.787 86.04 313.047 86.78 313.047 87.97V91H312.447Z" fill="#94979E"/>
</g>
<defs>
<linearGradient id="paint0_linear_6349_15112" x1="229" y1="-11.9" x2="229" y2="314.1" gradientUnits="userSpaceOnUse">
<stop offset="0.0426894" stop-color="#333333" stop-opacity="0"/>
<stop offset="0.188421" stop-color="#333333"/>
<stop offset="0.895174" stop-color="#333333"/>
<stop offset="1" stop-color="#333333" stop-opacity="0"/>
</linearGradient>
<linearGradient id="paint1_linear_6349_15112" x1="0" y1="160.5" x2="347" y2="160.5" gradientUnits="userSpaceOnUse">
<stop stop-color="#333333" stop-opacity="0"/>
<stop offset="0.2" stop-color="#333333"/>
<stop offset="0.8" stop-color="#333333"/>
<stop offset="1" stop-color="#333333" stop-opacity="0"/>
</linearGradient>
</defs>
</svg>
