<svg width="72" height="72" viewBox="0 0 72 72" fill="none" xmlns="http://www.w3.org/2000/svg">
<rect x="5.5" y="5.5" width="61" height="61" stroke="white" stroke-width="3"/>
<rect x="3.5" y="3.5" width="65" height="65" stroke="#2B4BEE"/>
<rect x="1" y="1" width="9" height="9" fill="white" stroke="#2B4BEE" stroke-width="2"/>
<rect x="62" y="1" width="9" height="9" fill="white" stroke="#2B4BEE" stroke-width="2"/>
<rect x="1" y="62" width="9" height="9" fill="white" stroke="#2B4BEE" stroke-width="2"/>
<rect x="62" y="62" width="9" height="9" fill="white" stroke="#2B4BEE" stroke-width="2"/>
<path d="M25.9062 46.625H46.0938C46.6573 46.625 47.1978 46.8489 47.5964 47.2474C47.9949 47.6459 48.2188 48.1864 48.2188 48.75V51.4062C48.2188 51.5471 48.1628 51.6823 48.0632 51.7819C47.9635 51.8815 47.8284 51.9375 47.6875 51.9375H24.3125C24.1716 51.9375 24.0365 51.8815 23.9368 51.7819C23.8372 51.6823 23.7812 51.5471 23.7812 51.4062V48.75C23.7812 48.1864 24.0051 47.6459 24.4036 47.2474C24.8022 46.8489 25.3427 46.625 25.9062 46.625Z" fill="white"/>
<path d="M27.5001 45H44.5001V42.9801L47.8576 31.1061C47.1246 30.9237 46.4645 30.5223 45.9653 29.9554L39.9786 35.5601L37.1465 26.2548C36.4016 26.4984 35.5985 26.4984 34.8536 26.2548L32.0215 35.5601L26.0349 29.9554C25.5356 30.5223 24.8756 30.9237 24.1426 31.1061L27.5001 42.9801V45Z" fill="white"/>
<path d="M23.25 30.1562C24.717 30.1562 25.9062 28.967 25.9062 27.5C25.9062 26.033 24.717 24.8438 23.25 24.8438C21.783 24.8438 20.5938 26.033 20.5938 27.5C20.5938 28.967 21.783 30.1562 23.25 30.1562Z" fill="white"/>
<path d="M36 25.375C37.467 25.375 38.6562 24.1858 38.6562 22.7188C38.6562 21.2517 37.467 20.0625 36 20.0625C34.533 20.0625 33.3438 21.2517 33.3438 22.7188C33.3438 24.1858 34.533 25.375 36 25.375Z" fill="white"/>
<path d="M48.75 30.1562C50.217 30.1562 51.4062 28.967 51.4062 27.5C51.4062 26.033 50.217 24.8438 48.75 24.8438C47.283 24.8438 46.0938 26.033 46.0938 27.5C46.0938 28.967 47.283 30.1562 48.75 30.1562Z" fill="white"/>
</svg>
