<svg width="72" height="72" viewBox="0 0 72 72" fill="none" xmlns="http://www.w3.org/2000/svg">
<rect x="5.5" y="5.5" width="61" height="61" rx="30.5" stroke="#2B4BEE" stroke-width="3"/>
<rect x="3.5" y="3.5" width="65" height="65" stroke="#2B4BEE"/>
<rect x="1" y="1" width="9" height="9" fill="white" stroke="#2B4BEE" stroke-width="2"/>
<rect x="62" y="1" width="9" height="9" fill="white" stroke="#2B4BEE" stroke-width="2"/>
<rect x="1" y="62" width="9" height="9" fill="white" stroke="#2B4BEE" stroke-width="2"/>
<rect x="62" y="62" width="9" height="9" fill="white" stroke="#2B4BEE" stroke-width="2"/>
<path d="M43.8289 26.8305C43.6452 26.6055 43.4824 26.4037 43.3452 26.226C43.262 26.1174 43.1507 26.0337 43.0234 25.9838C42.8961 25.934 42.7576 25.9199 42.6228 25.943C42.488 25.9662 42.3622 26.0258 42.2588 26.1153C42.1555 26.2048 42.0786 26.3209 42.0364 26.451C41.6237 27.7113 40.9959 28.8907 40.1809 29.937C40.2289 26.958 39.6387 21.7012 35.3217 18.87C35.2083 18.7955 35.077 18.7532 34.9415 18.7475C34.806 18.7418 34.6716 18.7729 34.5524 18.8375C34.4332 18.9022 34.3338 18.9979 34.2646 19.1145C34.1955 19.2312 34.1593 19.3644 34.1599 19.5C34.1599 21.957 32.8437 24.5752 30.5554 26.6812C28.3414 28.7197 23.1972 34.107 23.2504 40.0747C23.2879 44.2297 25.4037 49.9747 30.7707 52.2555C30.8509 49.6477 31.9887 47.796 33.1017 46.011C34.1592 44.313 35.1589 42.711 35.2504 40.4692C35.2561 40.3254 35.3031 40.1863 35.3857 40.0685C35.4683 39.9507 35.5831 39.8591 35.7163 39.8047C35.8495 39.7503 35.9956 39.7354 36.1371 39.7617C36.2785 39.7881 36.4094 39.8545 36.5142 39.9532C39.5389 42.8032 41.1597 47.0257 41.2392 52.1782C45.0889 50.5365 48.2419 46.9582 48.7069 41.1375C49.3077 33.5782 45.6072 29.0205 43.8289 26.8305Z" fill="white"/>
</svg>
