<svg width="72" height="72" viewBox="0 0 72 72" fill="none" xmlns="http://www.w3.org/2000/svg">
<rect x="5.5" y="5.5" width="61" height="61" stroke="#EE2B6C" stroke-width="3"/>
<rect x="3.5" y="3.5" width="65" height="65" stroke="#2B4BEE"/>
<rect x="1" y="1" width="9" height="9" fill="white" stroke="#2B4BEE" stroke-width="2"/>
<rect x="62" y="1" width="9" height="9" fill="white" stroke="#2B4BEE" stroke-width="2"/>
<rect x="1" y="62" width="9" height="9" fill="white" stroke="#2B4BEE" stroke-width="2"/>
<rect x="62" y="62" width="9" height="9" fill="white" stroke="#2B4BEE" stroke-width="2"/>
<path d="M50.1279 27.4305C49.54 26.297 48.6918 25.3159 47.6514 24.5659C46.6109 23.816 45.4074 23.3181 44.1373 23.1122C42.8672 22.9064 41.5661 22.9984 40.3385 23.3807C39.1109 23.7631 37.9909 24.4253 37.0687 25.314L36.0011 26.2806L34.9672 25.3486C34.0471 24.4427 32.9219 23.7673 31.6851 23.3785C30.4483 22.9897 29.1357 22.8988 27.8563 23.1133C26.5843 23.3097 25.378 23.8037 24.3375 24.5543C23.2971 25.305 22.4527 26.2906 21.8743 27.4292C21.1011 28.9292 20.831 30.6341 21.103 32.2965C21.375 33.9588 22.175 35.4921 23.387 36.6737L35.1047 48.6251C35.2212 48.7437 35.3606 48.838 35.5145 48.9024C35.6685 48.9668 35.8339 49 36.0011 49C36.1682 49 36.3336 48.9668 36.4876 48.9024C36.6416 48.838 36.7809 48.7437 36.8974 48.6251L48.5989 36.696C49.8158 35.5132 50.6201 33.9772 50.8951 32.311C51.17 30.6448 50.9013 28.9351 50.1279 27.4305Z" fill="white"/>
</svg>
