<svg width="72" height="72" viewBox="0 0 72 72" fill="none" xmlns="http://www.w3.org/2000/svg">
<rect x="5.5" y="5.5" width="61" height="61" rx="30.5" stroke="#EE2B6C" stroke-width="3"/>
<rect x="3.5" y="3.5" width="65" height="65" stroke="#2B4BEE"/>
<rect x="1" y="1" width="9" height="9" fill="white" stroke="#2B4BEE" stroke-width="2"/>
<rect x="62" y="1" width="9" height="9" fill="white" stroke="#2B4BEE" stroke-width="2"/>
<rect x="1" y="62" width="9" height="9" fill="white" stroke="#2B4BEE" stroke-width="2"/>
<rect x="62" y="62" width="9" height="9" fill="white" stroke="#2B4BEE" stroke-width="2"/>
<path d="M42.0732 47.4706L41.6652 49.1427C40.2812 49.688 35.4865 51.976 32.7212 49.5413C31.8972 48.8173 31.4852 47.8973 31.4852 46.7826C31.4852 44.6933 32.1732 42.872 33.4079 38.4986C33.6252 37.6733 33.8919 36.6 33.8919 35.7493C33.8919 34.2826 33.3359 33.892 31.8252 33.892C31.0879 33.892 30.2719 34.1546 29.5332 34.4306L29.9425 32.7586C31.5892 32.0893 33.6572 31.2733 35.4292 31.2733C38.0865 31.2733 40.0399 32.5986 40.0399 35.1186C40.0399 35.8453 39.9145 37.1173 39.6505 37.9973L38.1225 43.4026C37.8079 44.496 37.2345 46.904 38.1199 47.6187C38.9932 48.324 41.0559 47.9507 42.0732 47.4706Z" fill="white"/>
<path d="M39.3333 28C41.1743 28 42.6667 26.5077 42.6667 24.6667C42.6667 22.8258 41.1743 21.3334 39.3333 21.3334C37.4924 21.3334 36 22.8258 36 24.6667C36 26.5077 37.4924 28 39.3333 28Z" fill="white"/>
</svg>
