<svg width="72" height="72" viewBox="0 0 72 72" fill="none" xmlns="http://www.w3.org/2000/svg">
<rect x="5.5" y="5.5" width="61" height="61" rx="30.5" stroke="white" stroke-width="3"/>
<rect x="3.5" y="3.5" width="65" height="65" stroke="#2B4BEE"/>
<rect x="1" y="1" width="9" height="9" fill="white" stroke="#2B4BEE" stroke-width="2"/>
<rect x="62" y="1" width="9" height="9" fill="white" stroke="#2B4BEE" stroke-width="2"/>
<rect x="1" y="62" width="9" height="9" fill="white" stroke="#2B4BEE" stroke-width="2"/>
<rect x="62" y="62" width="9" height="9" fill="white" stroke="#2B4BEE" stroke-width="2"/>
<path d="M42.9993 50.5C41.276 50.4981 39.6239 49.8126 38.4053 48.594C37.1867 47.3755 36.5013 45.7233 36.4993 44V38.5C36.4963 38.4707 36.4905 38.4417 36.4818 38.4135C36.8184 38.2992 37.1034 38.0691 37.286 37.7642C37.4687 37.4593 37.5372 37.0994 37.4792 36.7487C37.4213 36.3981 37.2407 36.0793 36.9697 35.8494C36.6986 35.6195 36.3547 35.4933 35.9993 35.4933C35.6439 35.4933 35.3 35.6195 35.0289 35.8494C34.7579 36.0793 34.5773 36.3981 34.5194 36.7487C34.4614 37.0994 34.5299 37.4593 34.7126 37.7642C34.8953 38.0691 35.1803 38.2992 35.5168 38.4135C35.5082 38.4417 35.5023 38.4707 35.4993 38.5V44C35.4993 45.7239 34.8145 47.3772 33.5955 48.5962C32.3765 49.8152 30.7232 50.5 28.9993 50.5C27.2754 50.5 25.6221 49.8152 24.4031 48.5962C23.1841 47.3772 22.4993 45.7239 22.4993 44C22.5017 43.7579 22.5184 43.5162 22.5493 43.276C23.5246 44.0681 24.7429 44.5003 25.9993 44.5H27.5913C27.7093 44.8336 27.9413 45.1148 28.2465 45.2939C28.5518 45.4729 28.9104 45.5383 29.2592 45.4784C29.6079 45.4186 29.9243 45.2374 30.1524 44.9669C30.3804 44.6963 30.5055 44.3539 30.5055 44C30.5055 43.6462 30.3804 43.3037 30.1524 43.0332C29.9243 42.7627 29.6079 42.5815 29.2592 42.5216C28.9104 42.4618 28.5518 42.5272 28.2465 42.7062C27.9413 42.8853 27.7093 43.1664 27.5913 43.5H25.9993C25.3701 43.4997 24.7481 43.367 24.1736 43.1105C23.5991 42.8539 23.085 42.4793 22.6648 42.011C22.6278 41.9452 22.5765 41.8885 22.5148 41.845C21.7969 40.9704 21.4366 39.8564 21.5062 38.727C21.5759 37.5976 22.0704 36.5364 22.8903 35.7565C24.0455 36.7729 25.5048 37.3779 27.0403 37.477C27.1536 38.1805 27.5135 38.8206 28.0557 39.2829C28.5978 39.7451 29.2868 39.9994 29.9993 40C30.1319 40 30.2591 39.9474 30.3529 39.8536C30.4466 39.7598 30.4993 39.6326 30.4993 39.5C30.4993 39.3674 30.4466 39.2403 30.3529 39.1465C30.2591 39.0527 30.1319 39 29.9993 39C29.6038 39 29.2172 38.8826 28.8884 38.6628C28.5596 38.4431 28.3033 38.1307 28.1519 37.7653C28.0006 37.3999 27.961 36.9979 28.0381 36.61C28.1153 36.2221 28.3057 35.8657 28.5853 35.586C28.6764 35.4917 28.7268 35.3654 28.7256 35.2343C28.7245 35.1032 28.6719 34.9778 28.5792 34.8851C28.4865 34.7924 28.3611 34.7398 28.23 34.7387C28.0989 34.7376 27.9726 34.788 27.8783 34.879C27.4421 35.3134 27.1515 35.8724 27.0468 36.479C25.4942 36.3693 24.0452 35.6602 23.0058 34.5017C21.9664 33.3432 21.4182 31.8259 21.4769 30.2706C21.5357 28.7153 22.1968 27.2437 23.3206 26.1669C24.4444 25.0901 25.9429 24.4923 27.4993 24.5C27.6938 24.5 27.8853 24.5105 28.0748 24.529C28.1658 24.5379 28.2574 24.5213 28.3395 24.4812C28.4216 24.441 28.491 24.3788 28.5398 24.3015C28.578 24.2506 28.6061 24.1929 28.6228 24.1315C28.8325 23.3059 29.3368 22.5854 30.0408 22.1057C30.7447 21.6259 31.5997 21.4201 32.4449 21.5268C33.29 21.6335 34.067 22.0455 34.6296 22.6852C35.1921 23.3249 35.5014 24.1482 35.4993 25V26C35.4981 26.9279 35.129 27.8175 34.4729 28.4736C33.8167 29.1297 32.9272 29.4988 31.9993 29.5H30.4073C30.2894 29.1664 30.0573 28.8853 29.7521 28.7062C29.4469 28.5272 29.0882 28.4618 28.7394 28.5216C28.3907 28.5815 28.0743 28.7627 27.8463 29.0332C27.6182 29.3037 27.4931 29.6462 27.4931 30C27.4931 30.3539 27.6182 30.6963 27.8463 30.9669C28.0743 31.2374 28.3907 31.4186 28.7394 31.4784C29.0882 31.5383 29.4469 31.4729 29.7521 31.2939C30.0573 31.1148 30.2894 30.8336 30.4073 30.5H31.9993C32.8266 30.4992 33.6376 30.2703 34.3433 29.8385C35.049 29.4067 35.622 28.7888 35.9993 28.0525C36.3766 28.7888 36.9496 29.4067 37.6553 29.8385C38.361 30.2703 39.172 30.4992 39.9993 30.5H41.5913C41.7093 30.8336 41.9413 31.1148 42.2465 31.2939C42.5518 31.4729 42.9104 31.5383 43.2592 31.4784C43.6079 31.4186 43.9243 31.2374 44.1524 30.9669C44.3804 30.6963 44.5055 30.3539 44.5055 30C44.5055 29.6462 44.3804 29.3037 44.1524 29.0332C43.9243 28.7627 43.6079 28.5815 43.2592 28.5216C42.9104 28.4618 42.5518 28.5272 42.2465 28.7062C41.9413 28.8853 41.7093 29.1664 41.5913 29.5H39.9993C39.0714 29.4988 38.1819 29.1297 37.5257 28.4736C36.8696 27.8175 36.5005 26.9279 36.4993 26V25C36.5029 24.1485 36.8167 23.3275 37.3821 22.6907C37.9475 22.054 38.7257 21.6452 39.5708 21.541C40.416 21.4367 41.2701 21.6442 41.9733 22.1244C42.6765 22.6047 43.1805 23.3249 43.3908 24.15C43.4192 24.2666 43.4888 24.3689 43.5868 24.4382C43.6847 24.5074 43.8045 24.5388 43.9238 24.5265C44.1133 24.5105 44.3048 24.5 44.4993 24.5C46.0508 24.4997 47.5421 25.1007 48.6598 26.1768C49.7775 27.2528 50.4347 28.7202 50.4933 30.2706C50.5519 31.821 50.0073 33.3338 48.9739 34.4912C47.9406 35.6485 46.4989 36.3603 44.9518 36.477C44.8471 35.8704 44.5565 35.3114 44.1203 34.877C44.0742 34.8293 44.019 34.7912 43.958 34.765C43.897 34.7388 43.8314 34.725 43.765 34.7244C43.6986 34.7238 43.6328 34.7365 43.5713 34.7616C43.5099 34.7868 43.4541 34.8239 43.4071 34.8708C43.3602 34.9178 43.323 34.9736 43.2979 35.0351C43.2728 35.0965 43.2601 35.1623 43.2607 35.2287C43.2613 35.2951 43.2751 35.3607 43.3013 35.4217C43.3275 35.4827 43.3656 35.5379 43.4133 35.584C43.6936 35.8636 43.8846 36.2201 43.9622 36.6084C44.0397 36.9966 44.0002 37.3992 43.8488 37.765C43.6974 38.1308 43.4408 38.4434 43.1116 38.6633C42.7823 38.8831 42.3952 39.0004 41.9993 39C41.8667 39 41.7395 39.0527 41.6458 39.1465C41.552 39.2403 41.4993 39.3674 41.4993 39.5C41.4993 39.6326 41.552 39.7598 41.6458 39.8536C41.7395 39.9474 41.8667 40 41.9993 40C42.7117 39.9992 43.4006 39.745 43.9426 39.2827C44.4847 38.8204 44.8445 38.1804 44.9578 37.477C46.4933 37.3779 47.9526 36.7729 49.1078 35.7565C49.9277 36.5364 50.4222 37.5976 50.4919 38.727C50.5615 39.8564 50.2012 40.9704 49.4833 41.845C49.4216 41.8885 49.3703 41.9452 49.3333 42.011C48.9132 42.4793 48.3992 42.8538 47.8248 43.1104C47.2504 43.3669 46.6284 43.4997 45.9993 43.5H44.4073C44.2894 43.1664 44.0573 42.8853 43.7521 42.7062C43.4469 42.5272 43.0882 42.4618 42.7394 42.5216C42.3907 42.5815 42.0743 42.7627 41.8463 43.0332C41.6182 43.3037 41.4931 43.6462 41.4931 44C41.4931 44.3539 41.6182 44.6963 41.8463 44.9669C42.0743 45.2374 42.3907 45.4186 42.7394 45.4784C43.0882 45.5383 43.4469 45.4729 43.7521 45.2939C44.0573 45.1148 44.2894 44.8336 44.4073 44.5H45.9993C47.2557 44.5003 48.474 44.0681 49.4493 43.276C49.4802 43.5162 49.4969 43.7579 49.4993 44C49.4973 45.7233 48.8119 47.3755 47.5933 48.594C46.3748 49.8126 44.7226 50.4981 42.9993 50.5Z" fill="white"/>
</svg>
