<svg width="72" height="72" viewBox="0 0 72 72" fill="none" xmlns="http://www.w3.org/2000/svg">
<rect x="5.5" y="5.5" width="61" height="61" stroke="#2B4BEE" stroke-width="3"/>
<rect x="3.5" y="3.5" width="65" height="65" stroke="#2B4BEE"/>
<rect x="1" y="1" width="9" height="9" fill="white" stroke="#2B4BEE" stroke-width="2"/>
<rect x="62" y="1" width="9" height="9" fill="white" stroke="#2B4BEE" stroke-width="2"/>
<rect x="1" y="62" width="9" height="9" fill="white" stroke="#2B4BEE" stroke-width="2"/>
<rect x="62" y="62" width="9" height="9" fill="white" stroke="#2B4BEE" stroke-width="2"/>
<g clip-path="url(#clip0_3585_94568)">
<path d="M26.625 32.25H21.9375C21.4197 32.25 21 32.6697 21 33.1875V49.125C21 49.6428 21.4197 50.0625 21.9375 50.0625H26.625C27.1428 50.0625 27.5625 49.6428 27.5625 49.125V33.1875C27.5625 32.6697 27.1428 32.25 26.625 32.25Z" fill="white"/>
<path d="M50.4881 33.1246C50.1654 32.5813 49.7091 32.1295 49.1625 31.8123C48.6159 31.4951 47.9972 31.323 47.3653 31.3125H39.75V26.625C39.7484 25.3566 39.3189 24.1259 38.531 23.132C37.7431 22.1381 36.6429 21.4391 35.4084 21.1481C35.1371 21.0933 34.857 21.1 34.5887 21.1676C34.3203 21.2353 34.0704 21.3621 33.8575 21.5388C33.6445 21.7156 33.4738 21.9378 33.3578 22.1891C33.2419 22.4404 33.1837 22.7145 33.1875 22.9912V29.0906L29.4375 33.4687V50.0625H45.3797C46.4012 50.066 47.3896 49.7002 48.1626 49.0324C48.9357 48.3646 49.4413 47.4399 49.5863 46.4287L50.9925 35.1787V35.1703C51.0548 34.4514 50.8775 33.7321 50.4881 33.1246Z" fill="white"/>
</g>
<defs>
<clipPath id="clip0_3585_94568">
<rect width="30" height="30" fill="white" transform="translate(21 21)"/>
</clipPath>
</defs>
</svg>
