<svg width="161" height="44" viewBox="0 0 161 44" fill="none" xmlns="http://www.w3.org/2000/svg">
<g clip-path="url(#clip0_7110_839)">
<path d="M75.8965 24.4486C75.8965 18.7998 80.1806 14.4637 85.6383 14.4637C89.7487 14.4637 93.0644 16.8808 94.4802 20.3264L91.1302 21.828C90.1521 19.4813 88.1593 18.0553 85.6383 18.0553C82.149 18.0553 79.557 20.8974 79.557 24.4511C79.546 25.2877 79.6968 26.1182 80.0009 26.8943C80.3049 27.6703 80.756 28.3763 81.3278 28.9713C81.8997 29.5663 82.5809 30.0384 83.3318 30.3599C84.0828 30.6816 84.8885 30.8463 85.7019 30.8445C88.3622 30.8445 90.2964 29.1393 91.1938 26.936L94.5805 28.3924C93.0938 31.9461 89.9859 34.4286 85.6676 34.4286C80.1096 34.4335 75.8965 29.9919 75.8965 24.4486Z" fill="white"/>
<path d="M96.9238 10.6989L100.592 8.2467V14.8564H105.807V18.3071H100.587V27.7537C100.587 29.8513 101.589 30.7719 103.032 30.7719C103.737 30.7862 104.419 30.5153 104.932 30.0173L106.695 33.2165C105.532 34.0129 104.16 34.4269 102.763 34.4036C99.0659 34.4036 96.9238 32.5198 96.9238 27.7939V10.6989Z" fill="white"/>
<path d="M106.597 24.4487C106.597 18.4124 110.983 14.4637 115.991 14.4637C118.48 14.4637 120.933 15.6383 122.349 17.5196V14.8561H126.017V34.0437H122.349V31.2369C121.59 32.2349 120.62 33.0415 119.512 33.5954C118.405 34.1495 117.189 34.4361 115.957 34.4335C111.086 34.4335 106.597 30.4547 106.597 24.4487ZM122.557 24.4134C122.557 20.8596 119.965 17.9471 116.444 17.9471C112.988 17.9471 110.294 20.7892 110.294 24.4134C110.294 28.0376 112.984 30.915 116.444 30.915C119.965 30.915 122.557 28.0024 122.557 24.4134Z" fill="white"/>
<path d="M129.449 14.8576H133.117V18.1976C133.912 15.7806 135.807 14.5734 138.196 14.5734C139.474 14.5734 140.614 14.8576 141.34 15.3279L139.888 19.0251C139.369 18.6679 138.611 18.4567 137.54 18.4567C134.88 18.4567 133.188 19.8073 133.188 23.2529V34.0553H129.449V14.8576Z" fill="white"/>
<path d="M141.206 24.4487C141.206 18.4124 145.593 14.4637 150.6 14.4637C153.089 14.4637 155.543 15.6383 156.959 17.5196V14.8561H160.627V34.0437H156.959V31.2369C156.199 32.2349 155.23 33.0415 154.122 33.5954C153.014 34.1495 151.798 34.4361 150.566 34.4335C145.693 34.4335 141.206 30.4547 141.206 24.4487ZM157.167 24.4134C157.167 20.8596 154.575 17.9471 151.053 17.9471C147.598 17.9471 144.903 20.7892 144.903 24.4134C144.903 28.0376 147.593 30.915 151.053 30.915C154.572 30.915 157.164 28.0024 157.164 24.4134H157.167Z" fill="white"/>
<path d="M65.1067 31.0225C62.8009 31.0225 60.9792 30.0844 59.8715 28.5251L65.8966 25.8692L74.2812 22.1694C74.072 21.049 73.6723 19.9754 73.1001 18.9979C71.457 16.2112 68.4836 14.4708 64.9086 14.4708C59.4167 14.4708 55.2012 18.8747 55.2012 24.5311C55.1997 25.2969 55.2767 26.0606 55.431 26.8097C55.6616 27.924 56.0804 28.9881 56.6682 29.9537C58.3359 32.68 61.3142 34.4456 65.1165 34.4456C69.1585 34.4456 71.8531 32.597 73.6479 29.8254L70.5742 27.9441C69.4593 29.7801 67.7329 31.0225 65.1067 31.0225ZM58.9228 22.6021C59.6564 19.8355 61.928 17.841 64.8989 17.841C67.1289 17.841 68.8821 18.7565 69.8896 20.4089L64.9184 22.6021L58.8054 25.3007L58.6684 25.3611C58.5558 24.4334 58.6426 23.4915 58.9228 22.6021Z" fill="white"/>
<path d="M36.9033 14.8544H40.8425L46.1976 29.281L51.758 14.8544H55.6239L47.8848 34.0421H44.2169L36.9033 14.8544Z" fill="white"/>
<path d="M27.4666 19.4189C27 20.8652 26.4397 22.2776 25.7892 23.6467C24.5249 26.3252 23.0114 28.9133 21.0698 31.1316C19.2359 33.2293 16.8152 35.2564 13.9958 35.679C7.84366 36.5969 3.38358 28.8002 1.45186 23.9133C0.723179 22.0773 -0.0470617 20.191 -0.306259 18.199C-0.521433 16.5441 -0.325815 13.5637 1.79908 13.3172C3.18308 13.1538 4.21741 14.439 5.04144 15.3972C6.01953 16.529 6.77754 17.8268 7.62848 19.0542C8.82908 20.7871 10.8415 23.1864 13.1669 22.8922C14.8786 22.6734 16.2112 21.1039 17.0596 19.6754C18.3434 17.5174 19.2604 15.1231 20.6273 13.018C21.6445 11.4385 23.1556 9.60247 25.0556 9.18999C26.4567 8.88314 27.5179 9.60749 27.9898 10.9505C28.7551 13.0808 28.5254 15.4148 27.9898 17.5677C27.8382 18.1932 27.6638 18.8102 27.4666 19.4189Z" fill="white"/>
</g>
<defs>
<clipPath id="clip0_7110_839">
<rect width="161" height="44" fill="white"/>
</clipPath>
</defs>
</svg>
