<svg width="150" height="44" viewBox="0 0 150 44" fill="none" xmlns="http://www.w3.org/2000/svg">
<path d="M41.3131 1.44918V43.4375L25.193 29.1752V43.1607H0V1.4375L41.3131 1.44918ZM5.06414 38.0965H20.1288V18.0629L36.2492 32.3249V6.51183L5.06414 6.50289V38.0965Z" fill="white" style="fill:white;fill-opacity:1;"/>
<path d="M74.9604 35.1228L58.8417 20.8572V34.8431H53.7718V9.73838L69.8905 24.004V10.0181H74.9604V35.1228ZM80.5417 34.8431V10.0181H95.7164V15.0181H85.6115V19.9131H93.6185V24.8082H85.6115V29.8431H95.7164V34.8431H80.5417ZM111.412 35.1228C104.384 35.1228 98.7198 29.4585 98.7198 22.4306C98.7198 15.4027 104.384 9.73838 111.412 9.73838C118.44 9.73838 124.104 15.4027 124.104 22.4306C124.104 29.4585 118.44 35.1228 111.412 35.1228ZM111.412 30.2277C115.748 30.2277 118.999 26.7312 118.999 22.4306C118.999 18.1299 115.748 14.6334 111.412 14.6334C107.076 14.6334 103.825 18.1299 103.825 22.4306C103.825 26.7312 107.076 30.2277 111.412 30.2277ZM148.744 35.1228L132.625 20.8572V34.8431H127.556V9.73838L143.674 24.004V10.0181H148.744V35.1228Z" fill="white" style="fill:white;fill-opacity:1;"/>
</svg>
