<svg width="138" height="44" viewBox="0 0 138 44" fill="none" xmlns="http://www.w3.org/2000/svg">
<path d="M70.7485 12.5998V22.0158L61.6185 12.5998H56.8665V27.9998H61.2005V17.8798L71.1445 27.9998H75.0825V12.5998H70.7485Z" fill="white"/>
<path d="M83.1166 24.5678V21.8398H92.8186V18.5618H83.1166V16.0318H94.8866V12.5998H78.6946V27.9998H95.1286V24.5678H83.1166Z" fill="white"/>
<path d="M106.645 28.5058C112.739 28.5058 116.699 25.5138 116.699 20.2998C116.699 15.0858 112.739 12.0938 106.645 12.0938C100.551 12.0938 96.6134 15.0858 96.6134 20.2998C96.6134 25.5138 100.551 28.5058 106.645 28.5058ZM106.645 24.8538C103.257 24.8538 101.167 23.2038 101.167 20.2998C101.167 17.3958 103.279 15.7458 106.645 15.7458C110.033 15.7458 112.123 17.3958 112.123 20.2998C112.123 23.2038 110.033 24.8538 106.645 24.8538Z" fill="white"/>
<path d="M133.311 12.5998V22.0158L124.181 12.5998H119.429V27.9998H123.763V17.8798L133.707 27.9998H137.645V12.5998H133.311Z" fill="white"/>
<path fill-rule="evenodd" clip-rule="evenodd" d="M0 7.58621C0 3.39646 3.38681 0 7.56465 0H36.3103C40.4882 0 43.875 3.39646 43.875 7.58621V32.104C43.875 36.4386 38.4055 38.3197 35.7528 34.8976L27.4597 24.1991V37.1724C27.4597 40.9432 24.4116 44 20.6515 44H7.56465C3.38681 44 0 40.6035 0 36.4138V7.58621ZM7.56465 6.06897C6.72909 6.06897 6.05172 6.74826 6.05172 7.58621V36.4138C6.05172 37.2517 6.72909 37.931 7.56465 37.931H20.8784C21.2962 37.931 21.408 37.5914 21.408 37.1724V19.7752C21.408 15.4407 26.8775 13.5594 29.5302 16.9816L37.8233 27.6801V7.58621C37.8233 6.74826 37.9024 6.06897 37.0668 6.06897H7.56465Z" fill="white"/>
<path d="M36.3107 0C40.4885 0 43.8753 3.39646 43.8753 7.58621V32.104C43.8753 36.4385 38.4058 38.3197 35.7531 34.8976L27.46 24.1991V37.1724C27.46 40.9432 24.4119 44 20.6519 44C21.0696 44 21.4083 43.6604 21.4083 43.2414V19.7752C21.4083 15.4407 26.8778 13.5594 29.5305 16.9816L37.8236 27.6801V1.51724C37.8236 0.679292 37.1463 0 36.3107 0Z" fill="white"/>
</svg>
