<svg width="156" height="44" viewBox="0 0 156 44" fill="none" xmlns="http://www.w3.org/2000/svg">
<path fill-rule="evenodd" clip-rule="evenodd" d="M0 7.58621C0 3.39646 3.38681 0 7.56464 0H36.3103C40.4881 0 43.8749 3.39646 43.8749 7.58621V32.104C43.8749 36.4386 38.4054 38.3197 35.7527 34.8976L27.4597 24.1991V37.1724C27.4597 40.9432 24.4115 44 20.6515 44H7.56464C3.38681 44 0 40.6035 0 36.4138V7.58621ZM7.56464 6.06897C6.72908 6.06897 6.05172 6.74826 6.05172 7.58621V36.4138C6.05172 37.2517 6.72908 37.931 7.56464 37.931H20.8784C21.2962 37.931 21.4079 37.5914 21.4079 37.1724V19.7752C21.4079 15.4407 26.8774 13.5594 29.5301 16.9816L37.8232 27.6801V7.58621C37.8232 6.74826 37.9023 6.06897 37.0668 6.06897H7.56464Z" fill="white"/>
<path d="M36.3121 0C40.49 0 43.8768 3.39646 43.8768 7.58621V32.104C43.8768 36.4386 38.4073 38.3197 35.7546 34.8976L27.4615 24.1991V37.1724C27.4615 40.9432 24.4134 44 20.6533 44C21.0711 44 21.4098 43.6604 21.4098 43.2414V19.7752C21.4098 15.4407 26.8793 13.5594 29.532 16.9816L37.8251 27.6801V1.51724C37.8251 0.679292 37.1477 0 36.3121 0Z" fill="white"/>
<path d="M74.0135 12.9553V24.4637L62.8546 12.9553H57.0466V31.7775H62.3437V19.4086L74.4975 31.7775H79.3106V12.9553H74.0135Z" fill="white"/>
<path d="M89.1301 27.5829V24.2486H100.988V20.2422H89.1301V17.15H103.516V12.9553H83.7255V31.7775H103.811V27.5829H89.1301Z" fill="white"/>
<path d="M117.888 32.396C125.336 32.396 130.176 28.7391 130.176 22.3664C130.176 15.9937 125.336 12.3369 117.888 12.3369C110.439 12.3369 105.626 15.9937 105.626 22.3664C105.626 28.7391 110.439 32.396 117.888 32.396ZM117.888 27.9324C113.747 27.9324 111.192 25.9157 111.192 22.3664C111.192 18.8171 113.774 16.8004 117.888 16.8004C122.028 16.8004 124.583 18.8171 124.583 22.3664C124.583 25.9157 122.028 27.9324 117.888 27.9324Z" fill="white"/>
<path d="M150.479 12.9553V24.4637L139.32 12.9553H133.512V31.7775H138.809V19.4086L150.963 31.7775H155.776V12.9553H150.479Z" fill="white"/>
</svg>
