<svg width="190" height="44" viewBox="0 0 190 44" fill="none" xmlns="http://www.w3.org/2000/svg">
<ellipse cx="19.3699" cy="9.32609" rx="2.15217" ry="2.15217" fill="url(#paint0_linear_5897_707)"/>
<ellipse cx="10.283" cy="9.32609" rx="2.15217" ry="2.15217" fill="url(#paint1_linear_5897_707)"/>
<ellipse opacity="0.6" cx="19.3699" cy="2.15217" rx="2.15217" ry="2.15217" fill="url(#paint2_linear_5897_707)"/>
<ellipse cx="28.4569" cy="2.15217" rx="2.15217" ry="2.15217" fill="url(#paint3_linear_5897_707)"/>
<ellipse cx="10.283" cy="2.15217" rx="2.15217" ry="2.15217" fill="url(#paint4_linear_5897_707)"/>
<ellipse opacity="0.6" cx="10.283" cy="16.5" rx="2.15217" ry="2.15217" fill="url(#paint5_linear_5897_707)"/>
<ellipse opacity="0.6" cx="2.15217" cy="9.32609" rx="2.15217" ry="2.15217" fill="url(#paint6_linear_5897_707)"/>
<ellipse cx="2.15217" cy="16.5" rx="2.15217" ry="2.15217" fill="url(#paint7_linear_5897_707)"/>
<ellipse cx="2.15217" cy="23.1957" rx="2.15217" ry="2.15217" fill="url(#paint8_linear_5897_707)"/>
<ellipse cx="36.5867" cy="9.32609" rx="2.15217" ry="2.15217" fill="url(#paint9_linear_5897_707)"/>
<ellipse opacity="0.6" cx="36.5867" cy="16.5" rx="2.15217" ry="2.15217" fill="url(#paint10_linear_5897_707)"/>
<ellipse cx="36.5867" cy="23.1957" rx="2.15217" ry="2.15217" fill="url(#paint11_linear_5897_707)"/>
<rect x="7.65234" y="21.0435" width="5.26087" height="11" rx="2.63043" fill="url(#paint12_linear_5897_707)"/>
<rect x="16.7393" y="14.3478" width="5.26087" height="17.6957" rx="2.63043" fill="url(#paint13_linear_5897_707)"/>
<rect x="25.8262" y="7.17391" width="5.26087" height="24.8696" rx="2.63043" fill="url(#paint14_linear_5897_707)"/>
<rect x="28.2168" y="34.4348" width="3.82609" height="17.6956" rx="1.91304" transform="rotate(90 28.2168 34.4348)" fill="url(#paint15_linear_5897_707)"/>
<rect x="28.2168" y="34.4348" width="3.82609" height="17.6956" rx="1.91304" transform="rotate(90 28.2168 34.4348)" fill="url(#paint16_radial_5897_707)"/>
<rect x="25.1084" y="40.1739" width="3.82609" height="11.4783" rx="1.91304" transform="rotate(90 25.1084 40.1739)" fill="url(#paint17_linear_5897_707)"/>
<rect x="25.1084" y="40.1739" width="3.82609" height="11.4783" rx="1.91304" transform="rotate(90 25.1084 40.1739)" fill="url(#paint18_radial_5897_707)"/>
<path d="M62.7217 33.5474C57.6185 33.5474 54.043 29.6171 54.043 24.7123C54.043 19.8075 57.6185 15.8771 62.7217 15.8771C67.8249 15.8771 71.4004 19.8075 71.4004 24.7123C71.4004 29.6171 67.8249 33.5474 62.7217 33.5474ZM62.7217 29.8769C65.4521 29.8769 67.0123 27.2783 67.0123 24.7123C67.0123 22.1462 65.4521 19.5801 62.7217 19.5801C59.9913 19.5801 58.4311 22.1462 58.4311 24.7123C58.4311 27.2783 59.9913 29.8769 62.7217 29.8769Z" fill="white"/>
<path d="M73.954 33.1576V9.44565H78.4072V18.9304C79.2198 17.1764 81.0075 15.8771 83.5754 15.8771C88.0935 15.8771 91.279 19.775 91.279 24.7123C91.279 29.6495 88.061 33.5474 83.5429 33.5474C80.9425 33.5474 79.1223 32.2481 78.2772 30.4941V33.1576H73.954ZM78.4072 24.7123C78.4072 27.6032 80.0974 29.8444 82.6328 29.8444C85.2331 29.8444 86.8584 27.3758 86.8584 24.7123C86.8584 22.0487 85.2331 19.5801 82.6328 19.5801C80.0974 19.5801 78.4072 21.8213 78.4072 24.7123Z" fill="white"/>
<path d="M100.472 33.5474C96.1493 33.5474 93.2239 31.3711 92.7363 27.7006H96.7994C97.1245 29.3247 98.3271 30.4616 100.472 30.4616C102.423 30.4616 103.625 29.5846 103.625 28.2853C103.625 27.3108 102.975 26.6937 101.383 26.4338L97.742 25.8167C94.5891 25.2969 93.0289 23.8677 93.0289 21.1717C93.0289 18.0209 95.8568 15.8771 100.017 15.8771C104.178 15.8771 106.843 17.9235 107.136 21.3016H103.073C102.845 19.9699 101.903 18.9954 100.017 18.9954C98.2621 18.9954 97.0594 19.645 97.0594 20.8144C97.0594 21.7239 97.612 22.0812 99.0097 22.3086L102.683 22.8933C106.063 23.413 107.688 25.0046 107.688 27.8305C107.688 31.3711 104.535 33.5474 100.472 33.5474Z" fill="white"/>
<path d="M109.134 24.7123C109.134 19.775 112.58 15.8771 117.521 15.8771C122.884 15.8771 125.679 19.71 125.679 24.6148V25.6867H113.392C113.555 28.2203 115.083 30.1368 117.683 30.1368C119.763 30.1368 120.869 29.1623 121.421 27.8955H125.452C124.672 31.2412 121.649 33.5474 117.716 33.5474C112.287 33.5474 109.134 29.682 109.134 24.7123ZM113.522 22.6009H121.421C121.129 20.4896 119.731 19.0279 117.521 19.0279C115.343 19.0279 113.913 20.5545 113.522 22.6009Z" fill="white"/>
<path d="M128.315 33.1576V16.2669H132.573V20.0673C133.061 17.6961 134.589 16.072 137.254 16.072C137.742 16.072 138.229 16.1045 138.554 16.2019V20.4246C138.229 20.3921 137.904 20.3921 137.482 20.3921C134.491 20.3921 132.769 22.2436 132.769 25.6542V33.1576H128.315Z" fill="white"/>
<path d="M145.552 33.1576L139.311 16.2669H143.797L147.827 28.1554L151.858 16.2669H156.311L150.103 33.1576H145.552Z" fill="white"/>
<path d="M158.585 33.1576V10.4201H163.135V33.1576H158.585Z" fill="white"/>
<path d="M166.479 21.7889C166.479 15.4548 171.062 9.96537 177.823 9.96537C184.584 9.96537 189.167 15.4548 189.167 21.7889C189.167 24.8097 188.127 27.6357 186.274 29.7795L188.485 32.0857L185.982 34.5543L183.609 32.0207C181.984 33.0277 180.034 33.6124 177.823 33.6124C171.062 33.6124 166.479 28.1229 166.479 21.7889ZM171.03 21.7889C171.03 25.5893 173.468 29.6171 177.823 29.6171C178.928 29.6171 179.871 29.3247 180.716 28.9025L177.986 25.9791L180.424 23.6728L183.219 26.5962C184.129 25.1995 184.617 23.4779 184.617 21.7889C184.617 17.9885 182.211 13.9607 177.823 13.9607C173.468 13.9607 171.03 17.9885 171.03 21.7889Z" fill="white"/>
<defs>
<linearGradient id="paint0_linear_5897_707" x1="17.2178" y1="11.4783" x2="21.5221" y2="7.17391" gradientUnits="userSpaceOnUse">
<stop stop-color="#737B8C"/>
<stop offset="1" stop-color="#F9FAFA"/>
</linearGradient>
<linearGradient id="paint1_linear_5897_707" x1="8.13086" y1="11.4783" x2="12.4352" y2="7.17391" gradientUnits="userSpaceOnUse">
<stop stop-color="#737B8C"/>
<stop offset="1" stop-color="#F9FAFA"/>
</linearGradient>
<linearGradient id="paint2_linear_5897_707" x1="17.2178" y1="4.30435" x2="21.5221" y2="2.38419e-06" gradientUnits="userSpaceOnUse">
<stop stop-color="#737B8C"/>
<stop offset="0.935195" stop-color="#EEEFF1"/>
</linearGradient>
<linearGradient id="paint3_linear_5897_707" x1="26.3047" y1="4.30435" x2="30.609" y2="2.38419e-06" gradientUnits="userSpaceOnUse">
<stop stop-color="#737B8C"/>
<stop offset="1" stop-color="#F9FAFA"/>
</linearGradient>
<linearGradient id="paint4_linear_5897_707" x1="8.13086" y1="4.30435" x2="12.4352" y2="2.38419e-06" gradientUnits="userSpaceOnUse">
<stop stop-color="#737B8C"/>
<stop offset="1" stop-color="#F9FAFA"/>
</linearGradient>
<linearGradient id="paint5_linear_5897_707" x1="8.13086" y1="18.6522" x2="12.4352" y2="14.3478" gradientUnits="userSpaceOnUse">
<stop stop-color="#737B8C"/>
<stop offset="0.935195" stop-color="#EEEFF1"/>
</linearGradient>
<linearGradient id="paint6_linear_5897_707" x1="0" y1="11.4783" x2="4.30435" y2="7.17391" gradientUnits="userSpaceOnUse">
<stop stop-color="#737B8C"/>
<stop offset="0.935195" stop-color="#EEEFF1"/>
</linearGradient>
<linearGradient id="paint7_linear_5897_707" x1="0" y1="18.6522" x2="4.30435" y2="14.3478" gradientUnits="userSpaceOnUse">
<stop stop-color="#737B8C"/>
<stop offset="1" stop-color="#F9FAFA"/>
</linearGradient>
<linearGradient id="paint8_linear_5897_707" x1="0" y1="25.3478" x2="4.30435" y2="21.0435" gradientUnits="userSpaceOnUse">
<stop stop-color="#737B8C"/>
<stop offset="1" stop-color="#F9FAFA"/>
</linearGradient>
<linearGradient id="paint9_linear_5897_707" x1="34.4346" y1="11.4783" x2="38.7389" y2="7.17391" gradientUnits="userSpaceOnUse">
<stop stop-color="#737B8C"/>
<stop offset="1" stop-color="#F9FAFA"/>
</linearGradient>
<linearGradient id="paint10_linear_5897_707" x1="34.4346" y1="18.6522" x2="38.7389" y2="14.3478" gradientUnits="userSpaceOnUse">
<stop stop-color="#737B8C"/>
<stop offset="0.935195" stop-color="#EEEFF1"/>
</linearGradient>
<linearGradient id="paint11_linear_5897_707" x1="34.4346" y1="25.3478" x2="38.7389" y2="21.0435" gradientUnits="userSpaceOnUse">
<stop stop-color="#737B8C"/>
<stop offset="1" stop-color="#F9FAFA"/>
</linearGradient>
<linearGradient id="paint12_linear_5897_707" x1="7.65234" y1="32.0435" x2="16.2154" y2="27.9481" gradientUnits="userSpaceOnUse">
<stop stop-color="#C7CAD1"/>
<stop offset="0.845606" stop-color="white"/>
</linearGradient>
<linearGradient id="paint13_linear_5897_707" x1="16.7393" y1="32.0435" x2="26.4065" y2="29.1694" gradientUnits="userSpaceOnUse">
<stop stop-color="#C7CAD1"/>
<stop offset="0.890238" stop-color="white"/>
</linearGradient>
<linearGradient id="paint14_linear_5897_707" x1="25.8262" y1="32.0435" x2="35.8972" y2="29.9131" gradientUnits="userSpaceOnUse">
<stop stop-color="#C7CAD1"/>
<stop offset="0.796587" stop-color="white"/>
</linearGradient>
<linearGradient id="paint15_linear_5897_707" x1="32.7603" y1="43.7609" x2="28.2168" y2="43.7609" gradientUnits="userSpaceOnUse">
<stop stop-color="#C7CAD1"/>
<stop offset="0.506345" stop-color="#F9FAFA"/>
</linearGradient>
<radialGradient id="paint16_radial_5897_707" cx="0" cy="0" r="1" gradientUnits="userSpaceOnUse" gradientTransform="translate(30.1298 34.4348) rotate(90) scale(17.6956 6.35874)">
<stop offset="0.560901" stop-color="#C7CAD1" stop-opacity="0"/>
<stop offset="0.86104" stop-color="#C7CAD1" stop-opacity="0.362607"/>
<stop offset="1" stop-color="#C7CAD1"/>
</radialGradient>
<linearGradient id="paint17_linear_5897_707" x1="29.6519" y1="46.2233" x2="25.1084" y2="46.2233" gradientUnits="userSpaceOnUse">
<stop stop-color="#C7CAD1"/>
<stop offset="0.506345" stop-color="#F9FAFA"/>
</linearGradient>
<radialGradient id="paint18_radial_5897_707" cx="0" cy="0" r="1" gradientUnits="userSpaceOnUse" gradientTransform="translate(27.0214 40.1739) rotate(90) scale(11.4783 6.35874)">
<stop offset="0.560901" stop-color="#C7CAD1" stop-opacity="0"/>
<stop offset="0.86104" stop-color="#C7CAD1" stop-opacity="0.362607"/>
<stop offset="1" stop-color="#C7CAD1"/>
</radialGradient>
</defs>
</svg>
