<svg width="190" height="44" viewBox="0 0 190 44" fill="none" xmlns="http://www.w3.org/2000/svg">
<g filter="url(#filter0_ii_5883_581)">
<path d="M21.5211 9.32609C21.5211 10.5147 20.5576 11.4783 19.369 11.4783C18.1804 11.4783 17.2168 10.5147 17.2168 9.32609C17.2168 8.13747 18.1804 7.17391 19.369 7.17391C20.5576 7.17391 21.5211 8.13747 21.5211 9.32609Z" fill="url(#paint0_linear_5883_581)"/>
</g>
<g filter="url(#filter1_ii_5883_581)">
<path d="M12.4342 9.32609C12.4342 10.5147 11.4707 11.4783 10.2821 11.4783C9.09344 11.4783 8.12988 10.5147 8.12988 9.32609C8.12988 8.13747 9.09344 7.17391 10.2821 7.17391C11.4707 7.17391 12.4342 8.13747 12.4342 9.32609Z" fill="url(#paint1_linear_5883_581)"/>
</g>
<g opacity="0.6" filter="url(#filter2_ii_5883_581)">
<path d="M21.5211 2.15217C21.5211 3.34079 20.5576 4.30435 19.369 4.30435C18.1804 4.30435 17.2168 3.34079 17.2168 2.15217C17.2168 0.963561 18.1804 0 19.369 0C20.5576 0 21.5211 0.963561 21.5211 2.15217Z" fill="url(#paint2_linear_5883_581)"/>
</g>
<g filter="url(#filter3_ii_5883_581)">
<path d="M30.6081 2.15217C30.6081 3.34079 29.6445 4.30435 28.4559 4.30435C27.2673 4.30435 26.3037 3.34079 26.3037 2.15217C26.3037 0.963561 27.2673 0 28.4559 0C29.6445 0 30.6081 0.963561 30.6081 2.15217Z" fill="url(#paint3_linear_5883_581)"/>
</g>
<g filter="url(#filter4_ii_5883_581)">
<path d="M12.4342 2.15217C12.4342 3.34079 11.4707 4.30435 10.2821 4.30435C9.09344 4.30435 8.12988 3.34079 8.12988 2.15217C8.12988 0.963561 9.09344 0 10.2821 0C11.4707 0 12.4342 0.963561 12.4342 2.15217Z" fill="url(#paint4_linear_5883_581)"/>
</g>
<g opacity="0.6" filter="url(#filter5_ii_5883_581)">
<path d="M12.4342 16.5C12.4342 17.6886 11.4707 18.6522 10.2821 18.6522C9.09344 18.6522 8.12988 17.6886 8.12988 16.5C8.12988 15.3114 9.09344 14.3478 10.2821 14.3478C11.4707 14.3478 12.4342 15.3114 12.4342 16.5Z" fill="url(#paint5_linear_5883_581)"/>
</g>
<g opacity="0.6" filter="url(#filter6_ii_5883_581)">
<path d="M4.30337 9.32609C4.30337 10.5147 3.33981 11.4783 2.1512 11.4783C0.962584 11.4783 -0.000976562 10.5147 -0.000976562 9.32609C-0.000976562 8.13747 0.962584 7.17391 2.1512 7.17391C3.33981 7.17391 4.30337 8.13747 4.30337 9.32609Z" fill="url(#paint6_linear_5883_581)"/>
</g>
<g filter="url(#filter7_ii_5883_581)">
<path d="M4.30337 16.5C4.30337 17.6886 3.33981 18.6522 2.1512 18.6522C0.962584 18.6522 -0.000976562 17.6886 -0.000976562 16.5C-0.000976562 15.3114 0.962584 14.3478 2.1512 14.3478C3.33981 14.3478 4.30337 15.3114 4.30337 16.5Z" fill="url(#paint7_linear_5883_581)"/>
</g>
<g filter="url(#filter8_ii_5883_581)">
<path d="M4.30337 23.1957C4.30337 24.3843 3.33981 25.3478 2.1512 25.3478C0.962584 25.3478 -0.000976562 24.3843 -0.000976562 23.1957C-0.000976562 22.007 0.962584 21.0435 2.1512 21.0435C3.33981 21.0435 4.30337 22.007 4.30337 23.1957Z" fill="url(#paint8_linear_5883_581)"/>
</g>
<g filter="url(#filter9_ii_5883_581)">
<path d="M38.7379 9.32609C38.7379 10.5147 37.7744 11.4783 36.5858 11.4783C35.3972 11.4783 34.4336 10.5147 34.4336 9.32609C34.4336 8.13747 35.3972 7.17391 36.5858 7.17391C37.7744 7.17391 38.7379 8.13747 38.7379 9.32609Z" fill="url(#paint9_linear_5883_581)"/>
</g>
<g opacity="0.6" filter="url(#filter10_ii_5883_581)">
<path d="M38.7379 16.5C38.7379 17.6886 37.7744 18.6522 36.5858 18.6522C35.3972 18.6522 34.4336 17.6886 34.4336 16.5C34.4336 15.3114 35.3972 14.3478 36.5858 14.3478C37.7744 14.3478 38.7379 15.3114 38.7379 16.5Z" fill="url(#paint10_linear_5883_581)"/>
</g>
<g filter="url(#filter11_ii_5883_581)">
<path d="M38.7379 23.1957C38.7379 24.3843 37.7744 25.3478 36.5858 25.3478C35.3972 25.3478 34.4336 24.3843 34.4336 23.1957C34.4336 22.007 35.3972 21.0435 36.5858 21.0435C37.7744 21.0435 38.7379 22.007 38.7379 23.1957Z" fill="url(#paint11_linear_5883_581)"/>
</g>
<g filter="url(#filter12_i_5883_581)">
<path d="M23.1944 40.1739C24.2509 40.1739 25.1074 41.0304 25.1074 42.087C25.1074 43.1435 24.2509 44 23.1944 44L15.5422 44C14.4857 44 13.6292 43.1435 13.6292 42.087C13.6292 41.0304 14.4857 40.1739 15.5422 40.1739L23.1944 40.1739Z" fill="white"/>
</g>
<g filter="url(#filter13_i_5883_581)">
<path d="M26.3028 34.4348C27.3593 34.4348 28.2158 35.2913 28.2158 36.3478C28.2158 37.4044 27.3593 38.2609 26.3028 38.2609L12.4332 38.2609C11.3767 38.2609 10.5202 37.4044 10.5202 36.3478C10.5202 35.2913 11.3767 34.4348 12.4332 34.4348L26.3028 34.4348Z" fill="white"/>
</g>
<g filter="url(#filter14_i_5883_581)">
<path d="M7.65137 23.6739C7.65137 22.2212 8.82905 21.0435 10.2818 21.0435C11.7345 21.0435 12.9122 22.2212 12.9122 23.6739V29.413C12.9122 30.8658 11.7345 32.0435 10.2818 32.0435C8.82905 32.0435 7.65137 30.8658 7.65137 29.413V23.6739Z" fill="white"/>
</g>
<g filter="url(#filter15_i_5883_581)">
<path d="M16.7383 16.9783C16.7383 15.5255 17.916 14.3478 19.3687 14.3478C20.8215 14.3478 21.9991 15.5255 21.9991 16.9783V29.413C21.9991 30.8658 20.8215 32.0435 19.3687 32.0435C17.916 32.0435 16.7383 30.8658 16.7383 29.413V16.9783Z" fill="white"/>
</g>
<g filter="url(#filter16_i_5883_581)">
<path d="M25.8252 9.80434C25.8252 8.3516 27.0029 7.17391 28.4556 7.17391C29.9084 7.17391 31.0861 8.3516 31.0861 9.80434V29.413C31.0861 30.8658 29.9084 32.0435 28.4556 32.0435C27.0029 32.0435 25.8252 30.8658 25.8252 29.413V9.80434Z" fill="white"/>
</g>
<path d="M62.7217 33.5474C57.6185 33.5474 54.043 29.6171 54.043 24.7123C54.043 19.8075 57.6185 15.8771 62.7217 15.8771C67.8249 15.8771 71.4004 19.8075 71.4004 24.7123C71.4004 29.6171 67.8249 33.5474 62.7217 33.5474ZM62.7217 29.8769C65.4521 29.8769 67.0123 27.2783 67.0123 24.7123C67.0123 22.1462 65.4521 19.5801 62.7217 19.5801C59.9913 19.5801 58.4311 22.1462 58.4311 24.7123C58.4311 27.2783 59.9913 29.8769 62.7217 29.8769Z" fill="white"/>
<path d="M73.954 33.1576V9.44565H78.4072V18.9304C79.2198 17.1764 81.0075 15.8771 83.5754 15.8771C88.0935 15.8771 91.279 19.775 91.279 24.7123C91.279 29.6495 88.061 33.5474 83.5429 33.5474C80.9425 33.5474 79.1223 32.2481 78.2772 30.4941V33.1576H73.954ZM78.4072 24.7123C78.4072 27.6032 80.0974 29.8444 82.6328 29.8444C85.2331 29.8444 86.8584 27.3758 86.8584 24.7123C86.8584 22.0487 85.2331 19.5801 82.6328 19.5801C80.0974 19.5801 78.4072 21.8213 78.4072 24.7123Z" fill="white"/>
<path d="M100.472 33.5474C96.1493 33.5474 93.2239 31.3711 92.7363 27.7006H96.7994C97.1245 29.3247 98.3271 30.4616 100.472 30.4616C102.423 30.4616 103.625 29.5846 103.625 28.2853C103.625 27.3108 102.975 26.6937 101.383 26.4338L97.742 25.8167C94.5891 25.2969 93.0289 23.8677 93.0289 21.1717C93.0289 18.0209 95.8568 15.8771 100.017 15.8771C104.178 15.8771 106.843 17.9235 107.136 21.3016H103.073C102.845 19.9699 101.903 18.9954 100.017 18.9954C98.2621 18.9954 97.0594 19.645 97.0594 20.8144C97.0594 21.7239 97.612 22.0812 99.0097 22.3086L102.683 22.8933C106.063 23.413 107.688 25.0046 107.688 27.8305C107.688 31.3711 104.535 33.5474 100.472 33.5474Z" fill="white"/>
<path d="M109.134 24.7123C109.134 19.775 112.58 15.8771 117.521 15.8771C122.884 15.8771 125.679 19.71 125.679 24.6148V25.6867H113.392C113.555 28.2203 115.083 30.1368 117.683 30.1368C119.763 30.1368 120.869 29.1623 121.421 27.8955H125.452C124.672 31.2412 121.649 33.5474 117.716 33.5474C112.287 33.5474 109.134 29.682 109.134 24.7123ZM113.522 22.6009H121.421C121.129 20.4896 119.731 19.0279 117.521 19.0279C115.343 19.0279 113.913 20.5545 113.522 22.6009Z" fill="white"/>
<path d="M128.315 33.1576V16.2669H132.573V20.0673C133.061 17.6961 134.589 16.072 137.254 16.072C137.742 16.072 138.229 16.1045 138.554 16.2019V20.4246C138.229 20.3921 137.904 20.3921 137.482 20.3921C134.491 20.3921 132.769 22.2436 132.769 25.6542V33.1576H128.315Z" fill="white"/>
<path d="M145.552 33.1576L139.311 16.2669H143.797L147.827 28.1554L151.858 16.2669H156.311L150.103 33.1576H145.552Z" fill="white"/>
<path d="M158.585 33.1576V10.4201H163.135V33.1576H158.585Z" fill="white"/>
<path d="M166.479 21.7889C166.479 15.4548 171.062 9.96537 177.823 9.96537C184.584 9.96537 189.167 15.4548 189.167 21.7889C189.167 24.8097 188.127 27.6357 186.274 29.7795L188.485 32.0857L185.982 34.5543L183.609 32.0207C181.984 33.0277 180.034 33.6124 177.823 33.6124C171.062 33.6124 166.479 28.1229 166.479 21.7889ZM171.03 21.7889C171.03 25.5893 173.468 29.6171 177.823 29.6171C178.928 29.6171 179.871 29.3247 180.716 28.9025L177.986 25.9791L180.424 23.6728L183.219 26.5962C184.129 25.1995 184.617 23.4779 184.617 21.7889C184.617 17.9885 182.211 13.9607 177.823 13.9607C173.468 13.9607 171.03 17.9885 171.03 21.7889Z" fill="white"/>
<defs>
<filter id="filter0_ii_5883_581" x="16.4452" y="6.40232" width="5.84788" height="5.84754" filterUnits="userSpaceOnUse" color-interpolation-filters="sRGB">
<feFlood flood-opacity="0" result="BackgroundImageFix"/>
<feBlend mode="normal" in="SourceGraphic" in2="BackgroundImageFix" result="shape"/>
<feColorMatrix in="SourceAlpha" type="matrix" values="0 0 0 0 0 0 0 0 0 0 0 0 0 0 0 0 0 0 127 0" result="hardAlpha"/>
<feOffset dx="-0.771594" dy="0.771594"/>
<feGaussianBlur stdDeviation="0.385797"/>
<feComposite in2="hardAlpha" operator="arithmetic" k2="-1" k3="1"/>
<feColorMatrix type="matrix" values="0 0 0 0 1 0 0 0 0 1 0 0 0 0 1 0 0 0 0.25 0"/>
<feBlend mode="normal" in2="shape" result="effect1_innerShadow_5883_581"/>
<feColorMatrix in="SourceAlpha" type="matrix" values="0 0 0 0 0 0 0 0 0 0 0 0 0 0 0 0 0 0 127 0" result="hardAlpha"/>
<feOffset dx="0.771594" dy="-0.771594"/>
<feGaussianBlur stdDeviation="0.771594"/>
<feComposite in2="hardAlpha" operator="arithmetic" k2="-1" k3="1"/>
<feColorMatrix type="matrix" values="0 0 0 0 0 0 0 0 0 0 0 0 0 0 0 0 0 0 0.25 0"/>
<feBlend mode="normal" in2="effect1_innerShadow_5883_581" result="effect2_innerShadow_5883_581"/>
</filter>
<filter id="filter1_ii_5883_581" x="7.35829" y="6.40232" width="5.84788" height="5.84754" filterUnits="userSpaceOnUse" color-interpolation-filters="sRGB">
<feFlood flood-opacity="0" result="BackgroundImageFix"/>
<feBlend mode="normal" in="SourceGraphic" in2="BackgroundImageFix" result="shape"/>
<feColorMatrix in="SourceAlpha" type="matrix" values="0 0 0 0 0 0 0 0 0 0 0 0 0 0 0 0 0 0 127 0" result="hardAlpha"/>
<feOffset dx="-0.771594" dy="0.771594"/>
<feGaussianBlur stdDeviation="0.385797"/>
<feComposite in2="hardAlpha" operator="arithmetic" k2="-1" k3="1"/>
<feColorMatrix type="matrix" values="0 0 0 0 1 0 0 0 0 1 0 0 0 0 1 0 0 0 0.25 0"/>
<feBlend mode="normal" in2="shape" result="effect1_innerShadow_5883_581"/>
<feColorMatrix in="SourceAlpha" type="matrix" values="0 0 0 0 0 0 0 0 0 0 0 0 0 0 0 0 0 0 127 0" result="hardAlpha"/>
<feOffset dx="0.771594" dy="-0.771594"/>
<feGaussianBlur stdDeviation="0.771594"/>
<feComposite in2="hardAlpha" operator="arithmetic" k2="-1" k3="1"/>
<feColorMatrix type="matrix" values="0 0 0 0 0 0 0 0 0 0 0 0 0 0 0 0 0 0 0.25 0"/>
<feBlend mode="normal" in2="effect1_innerShadow_5883_581" result="effect2_innerShadow_5883_581"/>
</filter>
<filter id="filter2_ii_5883_581" x="16.4452" y="-0.771594" width="5.84788" height="5.84754" filterUnits="userSpaceOnUse" color-interpolation-filters="sRGB">
<feFlood flood-opacity="0" result="BackgroundImageFix"/>
<feBlend mode="normal" in="SourceGraphic" in2="BackgroundImageFix" result="shape"/>
<feColorMatrix in="SourceAlpha" type="matrix" values="0 0 0 0 0 0 0 0 0 0 0 0 0 0 0 0 0 0 127 0" result="hardAlpha"/>
<feOffset dx="-0.771594" dy="0.771594"/>
<feGaussianBlur stdDeviation="0.385797"/>
<feComposite in2="hardAlpha" operator="arithmetic" k2="-1" k3="1"/>
<feColorMatrix type="matrix" values="0 0 0 0 1 0 0 0 0 1 0 0 0 0 1 0 0 0 0.25 0"/>
<feBlend mode="normal" in2="shape" result="effect1_innerShadow_5883_581"/>
<feColorMatrix in="SourceAlpha" type="matrix" values="0 0 0 0 0 0 0 0 0 0 0 0 0 0 0 0 0 0 127 0" result="hardAlpha"/>
<feOffset dx="0.771594" dy="-0.771594"/>
<feGaussianBlur stdDeviation="0.771594"/>
<feComposite in2="hardAlpha" operator="arithmetic" k2="-1" k3="1"/>
<feColorMatrix type="matrix" values="0 0 0 0 0 0 0 0 0 0 0 0 0 0 0 0 0 0 0.25 0"/>
<feBlend mode="normal" in2="effect1_innerShadow_5883_581" result="effect2_innerShadow_5883_581"/>
</filter>
<filter id="filter3_ii_5883_581" x="25.5321" y="-0.771594" width="5.84788" height="5.84754" filterUnits="userSpaceOnUse" color-interpolation-filters="sRGB">
<feFlood flood-opacity="0" result="BackgroundImageFix"/>
<feBlend mode="normal" in="SourceGraphic" in2="BackgroundImageFix" result="shape"/>
<feColorMatrix in="SourceAlpha" type="matrix" values="0 0 0 0 0 0 0 0 0 0 0 0 0 0 0 0 0 0 127 0" result="hardAlpha"/>
<feOffset dx="-0.771594" dy="0.771594"/>
<feGaussianBlur stdDeviation="0.385797"/>
<feComposite in2="hardAlpha" operator="arithmetic" k2="-1" k3="1"/>
<feColorMatrix type="matrix" values="0 0 0 0 1 0 0 0 0 1 0 0 0 0 1 0 0 0 0.25 0"/>
<feBlend mode="normal" in2="shape" result="effect1_innerShadow_5883_581"/>
<feColorMatrix in="SourceAlpha" type="matrix" values="0 0 0 0 0 0 0 0 0 0 0 0 0 0 0 0 0 0 127 0" result="hardAlpha"/>
<feOffset dx="0.771594" dy="-0.771594"/>
<feGaussianBlur stdDeviation="0.771594"/>
<feComposite in2="hardAlpha" operator="arithmetic" k2="-1" k3="1"/>
<feColorMatrix type="matrix" values="0 0 0 0 0 0 0 0 0 0 0 0 0 0 0 0 0 0 0.25 0"/>
<feBlend mode="normal" in2="effect1_innerShadow_5883_581" result="effect2_innerShadow_5883_581"/>
</filter>
<filter id="filter4_ii_5883_581" x="7.35829" y="-0.771594" width="5.84788" height="5.84754" filterUnits="userSpaceOnUse" color-interpolation-filters="sRGB">
<feFlood flood-opacity="0" result="BackgroundImageFix"/>
<feBlend mode="normal" in="SourceGraphic" in2="BackgroundImageFix" result="shape"/>
<feColorMatrix in="SourceAlpha" type="matrix" values="0 0 0 0 0 0 0 0 0 0 0 0 0 0 0 0 0 0 127 0" result="hardAlpha"/>
<feOffset dx="-0.771594" dy="0.771594"/>
<feGaussianBlur stdDeviation="0.385797"/>
<feComposite in2="hardAlpha" operator="arithmetic" k2="-1" k3="1"/>
<feColorMatrix type="matrix" values="0 0 0 0 1 0 0 0 0 1 0 0 0 0 1 0 0 0 0.25 0"/>
<feBlend mode="normal" in2="shape" result="effect1_innerShadow_5883_581"/>
<feColorMatrix in="SourceAlpha" type="matrix" values="0 0 0 0 0 0 0 0 0 0 0 0 0 0 0 0 0 0 127 0" result="hardAlpha"/>
<feOffset dx="0.771594" dy="-0.771594"/>
<feGaussianBlur stdDeviation="0.771594"/>
<feComposite in2="hardAlpha" operator="arithmetic" k2="-1" k3="1"/>
<feColorMatrix type="matrix" values="0 0 0 0 0 0 0 0 0 0 0 0 0 0 0 0 0 0 0.25 0"/>
<feBlend mode="normal" in2="effect1_innerShadow_5883_581" result="effect2_innerShadow_5883_581"/>
</filter>
<filter id="filter5_ii_5883_581" x="7.35829" y="13.5762" width="5.84788" height="5.84754" filterUnits="userSpaceOnUse" color-interpolation-filters="sRGB">
<feFlood flood-opacity="0" result="BackgroundImageFix"/>
<feBlend mode="normal" in="SourceGraphic" in2="BackgroundImageFix" result="shape"/>
<feColorMatrix in="SourceAlpha" type="matrix" values="0 0 0 0 0 0 0 0 0 0 0 0 0 0 0 0 0 0 127 0" result="hardAlpha"/>
<feOffset dx="-0.771594" dy="0.771594"/>
<feGaussianBlur stdDeviation="0.385797"/>
<feComposite in2="hardAlpha" operator="arithmetic" k2="-1" k3="1"/>
<feColorMatrix type="matrix" values="0 0 0 0 1 0 0 0 0 1 0 0 0 0 1 0 0 0 0.25 0"/>
<feBlend mode="normal" in2="shape" result="effect1_innerShadow_5883_581"/>
<feColorMatrix in="SourceAlpha" type="matrix" values="0 0 0 0 0 0 0 0 0 0 0 0 0 0 0 0 0 0 127 0" result="hardAlpha"/>
<feOffset dx="0.771594" dy="-0.771594"/>
<feGaussianBlur stdDeviation="0.771594"/>
<feComposite in2="hardAlpha" operator="arithmetic" k2="-1" k3="1"/>
<feColorMatrix type="matrix" values="0 0 0 0 0 0 0 0 0 0 0 0 0 0 0 0 0 0 0.25 0"/>
<feBlend mode="normal" in2="effect1_innerShadow_5883_581" result="effect2_innerShadow_5883_581"/>
</filter>
<filter id="filter6_ii_5883_581" x="-0.772571" y="6.40232" width="5.84788" height="5.84754" filterUnits="userSpaceOnUse" color-interpolation-filters="sRGB">
<feFlood flood-opacity="0" result="BackgroundImageFix"/>
<feBlend mode="normal" in="SourceGraphic" in2="BackgroundImageFix" result="shape"/>
<feColorMatrix in="SourceAlpha" type="matrix" values="0 0 0 0 0 0 0 0 0 0 0 0 0 0 0 0 0 0 127 0" result="hardAlpha"/>
<feOffset dx="-0.771594" dy="0.771594"/>
<feGaussianBlur stdDeviation="0.385797"/>
<feComposite in2="hardAlpha" operator="arithmetic" k2="-1" k3="1"/>
<feColorMatrix type="matrix" values="0 0 0 0 1 0 0 0 0 1 0 0 0 0 1 0 0 0 0.25 0"/>
<feBlend mode="normal" in2="shape" result="effect1_innerShadow_5883_581"/>
<feColorMatrix in="SourceAlpha" type="matrix" values="0 0 0 0 0 0 0 0 0 0 0 0 0 0 0 0 0 0 127 0" result="hardAlpha"/>
<feOffset dx="0.771594" dy="-0.771594"/>
<feGaussianBlur stdDeviation="0.771594"/>
<feComposite in2="hardAlpha" operator="arithmetic" k2="-1" k3="1"/>
<feColorMatrix type="matrix" values="0 0 0 0 0 0 0 0 0 0 0 0 0 0 0 0 0 0 0.25 0"/>
<feBlend mode="normal" in2="effect1_innerShadow_5883_581" result="effect2_innerShadow_5883_581"/>
</filter>
<filter id="filter7_ii_5883_581" x="-0.772571" y="13.5762" width="5.84788" height="5.84754" filterUnits="userSpaceOnUse" color-interpolation-filters="sRGB">
<feFlood flood-opacity="0" result="BackgroundImageFix"/>
<feBlend mode="normal" in="SourceGraphic" in2="BackgroundImageFix" result="shape"/>
<feColorMatrix in="SourceAlpha" type="matrix" values="0 0 0 0 0 0 0 0 0 0 0 0 0 0 0 0 0 0 127 0" result="hardAlpha"/>
<feOffset dx="-0.771594" dy="0.771594"/>
<feGaussianBlur stdDeviation="0.385797"/>
<feComposite in2="hardAlpha" operator="arithmetic" k2="-1" k3="1"/>
<feColorMatrix type="matrix" values="0 0 0 0 1 0 0 0 0 1 0 0 0 0 1 0 0 0 0.25 0"/>
<feBlend mode="normal" in2="shape" result="effect1_innerShadow_5883_581"/>
<feColorMatrix in="SourceAlpha" type="matrix" values="0 0 0 0 0 0 0 0 0 0 0 0 0 0 0 0 0 0 127 0" result="hardAlpha"/>
<feOffset dx="0.771594" dy="-0.771594"/>
<feGaussianBlur stdDeviation="0.771594"/>
<feComposite in2="hardAlpha" operator="arithmetic" k2="-1" k3="1"/>
<feColorMatrix type="matrix" values="0 0 0 0 0 0 0 0 0 0 0 0 0 0 0 0 0 0 0.25 0"/>
<feBlend mode="normal" in2="effect1_innerShadow_5883_581" result="effect2_innerShadow_5883_581"/>
</filter>
<filter id="filter8_ii_5883_581" x="-0.772571" y="20.2719" width="5.84788" height="5.84753" filterUnits="userSpaceOnUse" color-interpolation-filters="sRGB">
<feFlood flood-opacity="0" result="BackgroundImageFix"/>
<feBlend mode="normal" in="SourceGraphic" in2="BackgroundImageFix" result="shape"/>
<feColorMatrix in="SourceAlpha" type="matrix" values="0 0 0 0 0 0 0 0 0 0 0 0 0 0 0 0 0 0 127 0" result="hardAlpha"/>
<feOffset dx="-0.771594" dy="0.771594"/>
<feGaussianBlur stdDeviation="0.385797"/>
<feComposite in2="hardAlpha" operator="arithmetic" k2="-1" k3="1"/>
<feColorMatrix type="matrix" values="0 0 0 0 1 0 0 0 0 1 0 0 0 0 1 0 0 0 0.25 0"/>
<feBlend mode="normal" in2="shape" result="effect1_innerShadow_5883_581"/>
<feColorMatrix in="SourceAlpha" type="matrix" values="0 0 0 0 0 0 0 0 0 0 0 0 0 0 0 0 0 0 127 0" result="hardAlpha"/>
<feOffset dx="0.771594" dy="-0.771594"/>
<feGaussianBlur stdDeviation="0.771594"/>
<feComposite in2="hardAlpha" operator="arithmetic" k2="-1" k3="1"/>
<feColorMatrix type="matrix" values="0 0 0 0 0 0 0 0 0 0 0 0 0 0 0 0 0 0 0.25 0"/>
<feBlend mode="normal" in2="effect1_innerShadow_5883_581" result="effect2_innerShadow_5883_581"/>
</filter>
<filter id="filter9_ii_5883_581" x="33.662" y="6.40232" width="5.84788" height="5.84754" filterUnits="userSpaceOnUse" color-interpolation-filters="sRGB">
<feFlood flood-opacity="0" result="BackgroundImageFix"/>
<feBlend mode="normal" in="SourceGraphic" in2="BackgroundImageFix" result="shape"/>
<feColorMatrix in="SourceAlpha" type="matrix" values="0 0 0 0 0 0 0 0 0 0 0 0 0 0 0 0 0 0 127 0" result="hardAlpha"/>
<feOffset dx="-0.771594" dy="0.771594"/>
<feGaussianBlur stdDeviation="0.385797"/>
<feComposite in2="hardAlpha" operator="arithmetic" k2="-1" k3="1"/>
<feColorMatrix type="matrix" values="0 0 0 0 1 0 0 0 0 1 0 0 0 0 1 0 0 0 0.25 0"/>
<feBlend mode="normal" in2="shape" result="effect1_innerShadow_5883_581"/>
<feColorMatrix in="SourceAlpha" type="matrix" values="0 0 0 0 0 0 0 0 0 0 0 0 0 0 0 0 0 0 127 0" result="hardAlpha"/>
<feOffset dx="0.771594" dy="-0.771594"/>
<feGaussianBlur stdDeviation="0.771594"/>
<feComposite in2="hardAlpha" operator="arithmetic" k2="-1" k3="1"/>
<feColorMatrix type="matrix" values="0 0 0 0 0 0 0 0 0 0 0 0 0 0 0 0 0 0 0.25 0"/>
<feBlend mode="normal" in2="effect1_innerShadow_5883_581" result="effect2_innerShadow_5883_581"/>
</filter>
<filter id="filter10_ii_5883_581" x="33.662" y="13.5762" width="5.84788" height="5.84754" filterUnits="userSpaceOnUse" color-interpolation-filters="sRGB">
<feFlood flood-opacity="0" result="BackgroundImageFix"/>
<feBlend mode="normal" in="SourceGraphic" in2="BackgroundImageFix" result="shape"/>
<feColorMatrix in="SourceAlpha" type="matrix" values="0 0 0 0 0 0 0 0 0 0 0 0 0 0 0 0 0 0 127 0" result="hardAlpha"/>
<feOffset dx="-0.771594" dy="0.771594"/>
<feGaussianBlur stdDeviation="0.385797"/>
<feComposite in2="hardAlpha" operator="arithmetic" k2="-1" k3="1"/>
<feColorMatrix type="matrix" values="0 0 0 0 1 0 0 0 0 1 0 0 0 0 1 0 0 0 0.25 0"/>
<feBlend mode="normal" in2="shape" result="effect1_innerShadow_5883_581"/>
<feColorMatrix in="SourceAlpha" type="matrix" values="0 0 0 0 0 0 0 0 0 0 0 0 0 0 0 0 0 0 127 0" result="hardAlpha"/>
<feOffset dx="0.771594" dy="-0.771594"/>
<feGaussianBlur stdDeviation="0.771594"/>
<feComposite in2="hardAlpha" operator="arithmetic" k2="-1" k3="1"/>
<feColorMatrix type="matrix" values="0 0 0 0 0 0 0 0 0 0 0 0 0 0 0 0 0 0 0.25 0"/>
<feBlend mode="normal" in2="effect1_innerShadow_5883_581" result="effect2_innerShadow_5883_581"/>
</filter>
<filter id="filter11_ii_5883_581" x="33.662" y="20.2719" width="5.84788" height="5.84753" filterUnits="userSpaceOnUse" color-interpolation-filters="sRGB">
<feFlood flood-opacity="0" result="BackgroundImageFix"/>
<feBlend mode="normal" in="SourceGraphic" in2="BackgroundImageFix" result="shape"/>
<feColorMatrix in="SourceAlpha" type="matrix" values="0 0 0 0 0 0 0 0 0 0 0 0 0 0 0 0 0 0 127 0" result="hardAlpha"/>
<feOffset dx="-0.771594" dy="0.771594"/>
<feGaussianBlur stdDeviation="0.385797"/>
<feComposite in2="hardAlpha" operator="arithmetic" k2="-1" k3="1"/>
<feColorMatrix type="matrix" values="0 0 0 0 1 0 0 0 0 1 0 0 0 0 1 0 0 0 0.25 0"/>
<feBlend mode="normal" in2="shape" result="effect1_innerShadow_5883_581"/>
<feColorMatrix in="SourceAlpha" type="matrix" values="0 0 0 0 0 0 0 0 0 0 0 0 0 0 0 0 0 0 127 0" result="hardAlpha"/>
<feOffset dx="0.771594" dy="-0.771594"/>
<feGaussianBlur stdDeviation="0.771594"/>
<feComposite in2="hardAlpha" operator="arithmetic" k2="-1" k3="1"/>
<feColorMatrix type="matrix" values="0 0 0 0 0 0 0 0 0 0 0 0 0 0 0 0 0 0 0.25 0"/>
<feBlend mode="normal" in2="effect1_innerShadow_5883_581" result="effect2_innerShadow_5883_581"/>
</filter>
<filter id="filter12_i_5883_581" x="13.6289" y="39.4023" width="12.2501" height="4.59768" filterUnits="userSpaceOnUse" color-interpolation-filters="sRGB">
<feFlood flood-opacity="0" result="BackgroundImageFix"/>
<feBlend mode="normal" in="SourceGraphic" in2="BackgroundImageFix" result="shape"/>
<feColorMatrix in="SourceAlpha" type="matrix" values="0 0 0 0 0 0 0 0 0 0 0 0 0 0 0 0 0 0 127 0" result="hardAlpha"/>
<feOffset dx="0.771594" dy="-0.771594"/>
<feGaussianBlur stdDeviation="0.771594"/>
<feComposite in2="hardAlpha" operator="arithmetic" k2="-1" k3="1"/>
<feColorMatrix type="matrix" values="0 0 0 0 0 0 0 0 0 0 0 0 0 0 0 0 0 0 0.25 0"/>
<feBlend mode="normal" in2="shape" result="effect1_innerShadow_5883_581"/>
</filter>
<filter id="filter13_i_5883_581" x="10.5205" y="33.6632" width="18.4669" height="4.59768" filterUnits="userSpaceOnUse" color-interpolation-filters="sRGB">
<feFlood flood-opacity="0" result="BackgroundImageFix"/>
<feBlend mode="normal" in="SourceGraphic" in2="BackgroundImageFix" result="shape"/>
<feColorMatrix in="SourceAlpha" type="matrix" values="0 0 0 0 0 0 0 0 0 0 0 0 0 0 0 0 0 0 127 0" result="hardAlpha"/>
<feOffset dx="0.771594" dy="-0.771594"/>
<feGaussianBlur stdDeviation="0.771594"/>
<feComposite in2="hardAlpha" operator="arithmetic" k2="-1" k3="1"/>
<feColorMatrix type="matrix" values="0 0 0 0 0 0 0 0 0 0 0 0 0 0 0 0 0 0 0.25 0"/>
<feBlend mode="normal" in2="shape" result="effect1_innerShadow_5883_581"/>
</filter>
<filter id="filter14_i_5883_581" x="7.65137" y="20.2719" width="6.03234" height="11.7716" filterUnits="userSpaceOnUse" color-interpolation-filters="sRGB">
<feFlood flood-opacity="0" result="BackgroundImageFix"/>
<feBlend mode="normal" in="SourceGraphic" in2="BackgroundImageFix" result="shape"/>
<feColorMatrix in="SourceAlpha" type="matrix" values="0 0 0 0 0 0 0 0 0 0 0 0 0 0 0 0 0 0 127 0" result="hardAlpha"/>
<feOffset dx="0.771594" dy="-0.771594"/>
<feGaussianBlur stdDeviation="0.771594"/>
<feComposite in2="hardAlpha" operator="arithmetic" k2="-1" k3="1"/>
<feColorMatrix type="matrix" values="0 0 0 0 0 0 0 0 0 0 0 0 0 0 0 0 0 0 0.25 0"/>
<feBlend mode="normal" in2="shape" result="effect1_innerShadow_5883_581"/>
</filter>
<filter id="filter15_i_5883_581" x="16.7383" y="13.5762" width="6.03234" height="18.4672" filterUnits="userSpaceOnUse" color-interpolation-filters="sRGB">
<feFlood flood-opacity="0" result="BackgroundImageFix"/>
<feBlend mode="normal" in="SourceGraphic" in2="BackgroundImageFix" result="shape"/>
<feColorMatrix in="SourceAlpha" type="matrix" values="0 0 0 0 0 0 0 0 0 0 0 0 0 0 0 0 0 0 127 0" result="hardAlpha"/>
<feOffset dx="0.771594" dy="-0.771594"/>
<feGaussianBlur stdDeviation="0.771594"/>
<feComposite in2="hardAlpha" operator="arithmetic" k2="-1" k3="1"/>
<feColorMatrix type="matrix" values="0 0 0 0 0 0 0 0 0 0 0 0 0 0 0 0 0 0 0.25 0"/>
<feBlend mode="normal" in2="shape" result="effect1_innerShadow_5883_581"/>
</filter>
<filter id="filter16_i_5883_581" x="25.8252" y="6.40232" width="6.03234" height="25.6412" filterUnits="userSpaceOnUse" color-interpolation-filters="sRGB">
<feFlood flood-opacity="0" result="BackgroundImageFix"/>
<feBlend mode="normal" in="SourceGraphic" in2="BackgroundImageFix" result="shape"/>
<feColorMatrix in="SourceAlpha" type="matrix" values="0 0 0 0 0 0 0 0 0 0 0 0 0 0 0 0 0 0 127 0" result="hardAlpha"/>
<feOffset dx="0.771594" dy="-0.771594"/>
<feGaussianBlur stdDeviation="0.771594"/>
<feComposite in2="hardAlpha" operator="arithmetic" k2="-1" k3="1"/>
<feColorMatrix type="matrix" values="0 0 0 0 0 0 0 0 0 0 0 0 0 0 0 0 0 0 0.25 0"/>
<feBlend mode="normal" in2="shape" result="effect1_innerShadow_5883_581"/>
</filter>
<linearGradient id="paint0_linear_5883_581" x1="17.2168" y1="11.4783" x2="21.5211" y2="7.17391" gradientUnits="userSpaceOnUse">
<stop stop-color="#ABB0BA"/>
<stop offset="0.935195" stop-color="#E3E3E8"/>
</linearGradient>
<linearGradient id="paint1_linear_5883_581" x1="8.12988" y1="11.4783" x2="12.4342" y2="7.17391" gradientUnits="userSpaceOnUse">
<stop stop-color="#ABB0BA"/>
<stop offset="0.935195" stop-color="#E3E3E8"/>
</linearGradient>
<linearGradient id="paint2_linear_5883_581" x1="17.2168" y1="4.30435" x2="21.5211" y2="2.38419e-06" gradientUnits="userSpaceOnUse">
<stop stop-color="#ABB0BA"/>
<stop offset="0.935195" stop-color="#E3E3E8"/>
</linearGradient>
<linearGradient id="paint3_linear_5883_581" x1="26.3037" y1="4.30435" x2="30.6081" y2="2.38419e-06" gradientUnits="userSpaceOnUse">
<stop stop-color="#ABB0BA"/>
<stop offset="0.935195" stop-color="#E3E3E8"/>
</linearGradient>
<linearGradient id="paint4_linear_5883_581" x1="8.12988" y1="4.30435" x2="12.4342" y2="2.38419e-06" gradientUnits="userSpaceOnUse">
<stop stop-color="#ABB0BA"/>
<stop offset="0.935195" stop-color="#E3E3E8"/>
</linearGradient>
<linearGradient id="paint5_linear_5883_581" x1="8.12988" y1="18.6522" x2="12.4342" y2="14.3478" gradientUnits="userSpaceOnUse">
<stop stop-color="#ABB0BA"/>
<stop offset="0.935195" stop-color="#E3E3E8"/>
</linearGradient>
<linearGradient id="paint6_linear_5883_581" x1="-0.000976563" y1="11.4783" x2="4.30337" y2="7.17391" gradientUnits="userSpaceOnUse">
<stop stop-color="#ABB0BA"/>
<stop offset="0.935195" stop-color="#E3E3E8"/>
</linearGradient>
<linearGradient id="paint7_linear_5883_581" x1="-0.000976563" y1="18.6522" x2="4.30337" y2="14.3478" gradientUnits="userSpaceOnUse">
<stop stop-color="#ABB0BA"/>
<stop offset="0.935195" stop-color="#E3E3E8"/>
</linearGradient>
<linearGradient id="paint8_linear_5883_581" x1="-0.000976563" y1="25.3478" x2="4.30337" y2="21.0435" gradientUnits="userSpaceOnUse">
<stop stop-color="#ABB0BA"/>
<stop offset="0.935195" stop-color="#E3E3E8"/>
</linearGradient>
<linearGradient id="paint9_linear_5883_581" x1="34.4336" y1="11.4783" x2="38.7379" y2="7.17391" gradientUnits="userSpaceOnUse">
<stop stop-color="#ABB0BA"/>
<stop offset="0.935195" stop-color="#E3E3E8"/>
</linearGradient>
<linearGradient id="paint10_linear_5883_581" x1="34.4336" y1="18.6522" x2="38.7379" y2="14.3478" gradientUnits="userSpaceOnUse">
<stop stop-color="#ABB0BA"/>
<stop offset="0.935195" stop-color="#E3E3E8"/>
</linearGradient>
<linearGradient id="paint11_linear_5883_581" x1="34.4336" y1="25.3478" x2="38.7379" y2="21.0435" gradientUnits="userSpaceOnUse">
<stop stop-color="#ABB0BA"/>
<stop offset="0.935195" stop-color="#E3E3E8"/>
</linearGradient>
</defs>
</svg>
