<svg width="146" height="44" viewBox="0 0 146 44" fill="none" xmlns="http://www.w3.org/2000/svg">
<path fill-rule="evenodd" clip-rule="evenodd" d="M0 29.3342L25.4252 44.0008L50.8517 29.3342L25.4252 14.6663L0 29.3342Z" fill="#BFBFBF"/>
<path fill-rule="evenodd" clip-rule="evenodd" d="M0 24.4446L25.4252 39.1112L50.8517 24.4446L25.4252 9.77661L0 24.4446Z" fill="#818181"/>
<path fill-rule="evenodd" clip-rule="evenodd" d="M8.47507 14.6659H0V19.5552L25.4252 34.2218L50.8517 19.5552H50.8689V14.6659H42.3754L25.4252 4.88727L8.47507 14.6659Z" fill="#555555"/>
<path fill-rule="evenodd" clip-rule="evenodd" d="M25.4252 0L0 14.6666L25.4252 29.3333L50.8517 14.6666L25.4252 0Z" fill="#929292"/>
<path fill-rule="evenodd" clip-rule="evenodd" d="M22.6006 11.4069L26.0663 13.4074L19.7752 13.0363L16.9497 14.6669L25.4261 19.5549L28.2502 17.9256L24.6542 15.8501L31.0757 16.2962L33.9012 14.6669L25.4261 9.77759L22.6006 11.4069Z" fill="#5E5E5E"/>
<path fill-rule="evenodd" clip-rule="evenodd" d="M60.8286 29.0518C60.7099 28.9453 60.6519 28.82 60.6519 28.6771V14.7502C60.6519 14.5925 60.7099 14.4645 60.8286 14.3647C60.9459 14.265 61.0821 14.2151 61.2399 14.2151H63.7313C64.1238 14.2151 64.3908 14.3513 64.5311 14.6221L70.2691 22.8497V14.7502C70.2691 14.5925 70.3271 14.4645 70.4458 14.3647C70.5631 14.265 70.6994 14.2151 70.8572 14.2151H73.6776C73.8503 14.2151 73.9919 14.265 74.1011 14.3647C74.2104 14.4645 74.2657 14.5925 74.2657 14.7502V28.6556C74.2657 28.8132 74.2104 28.9453 74.1011 29.0518C73.9919 29.1596 73.8503 29.2135 73.6776 29.2135H71.162C70.8167 29.2135 70.5591 29.0774 70.3864 28.8052L64.6485 20.8781V28.6771C64.6485 28.82 64.5945 28.9453 64.4839 29.0518C64.3747 29.1596 64.233 29.2135 64.0604 29.2135H61.2399C61.0821 29.2135 60.9459 29.1596 60.8286 29.0518Z" fill="white"/>
<path fill-rule="evenodd" clip-rule="evenodd" d="M87.6596 23.4922L85.4731 17.836L83.2866 23.4922H87.6596ZM77.418 29.0735C77.3169 28.9805 77.2656 28.8768 77.2656 28.7622C77.2656 28.6773 77.2737 28.6126 77.2886 28.5695L82.8148 14.8151C82.862 14.6426 82.9645 14.501 83.1209 14.3865C83.2774 14.2719 83.4811 14.214 83.732 14.214H87.212C87.4615 14.214 87.6665 14.2719 87.823 14.3865C87.9795 14.501 88.0806 14.6426 88.1292 14.8151L93.6311 28.5695L93.6783 28.7622C93.6783 28.8768 93.6271 28.9805 93.5259 29.0735C93.422 29.1652 93.302 29.2123 93.1604 29.2123H90.2698C89.8921 29.2123 89.6426 29.0627 89.5158 28.7622L88.5986 26.5776H82.3211L81.4281 28.7622C81.3014 29.0627 81.0437 29.2123 80.6526 29.2123H77.7593C77.6339 29.2123 77.5192 29.1652 77.418 29.0735Z" fill="white"/>
<path fill-rule="evenodd" clip-rule="evenodd" d="M99.3806 29.0521C99.2633 28.9456 99.2039 28.8203 99.2039 28.6774V24.0711L93.7492 14.9014C93.702 14.772 93.6777 14.6939 93.6777 14.6656C93.6777 14.551 93.729 14.4473 93.8315 14.3543C93.9327 14.2613 94.0554 14.2155 94.1957 14.2155H97.1348C97.4477 14.2155 97.7229 14.365 97.9576 14.6656L101.319 20.1924L104.706 14.6656C104.895 14.365 105.169 14.2155 105.53 14.2155H108.468C108.609 14.2155 108.727 14.2613 108.821 14.3543C108.914 14.4473 108.963 14.551 108.963 14.6656C108.963 14.737 108.947 14.8152 108.914 14.9014L103.46 24.0711V28.6774C103.46 28.8351 103.4 28.9631 103.284 29.0629C103.167 29.1639 103.021 29.2138 102.848 29.2138H99.792C99.6342 29.2138 99.498 29.1599 99.3806 29.0521Z" fill="white"/>
<path fill-rule="evenodd" clip-rule="evenodd" d="M112.467 29.0521C112.349 28.9456 112.29 28.8203 112.29 28.6774V14.7505C112.29 14.5928 112.349 14.4648 112.467 14.365C112.584 14.2653 112.72 14.2155 112.879 14.2155H115.418C115.794 14.2155 116.068 14.3718 116.241 14.6871L120.379 21.4363L124.519 14.6871C124.69 14.3718 124.965 14.2155 125.34 14.2155H127.856C128.028 14.2155 128.174 14.2653 128.291 14.365C128.409 14.4648 128.468 14.5928 128.468 14.7505V28.6774C128.468 28.8351 128.409 28.9631 128.291 29.0629C128.174 29.1639 128.028 29.2138 127.856 29.2138H125.058C124.886 29.2138 124.741 29.1639 124.624 29.0629C124.506 28.9631 124.447 28.8351 124.447 28.6774V20.6425L121.814 25.1209C121.609 25.4497 121.335 25.6141 120.99 25.6141H119.768C119.564 25.6141 119.4 25.571 119.274 25.4848C119.149 25.3999 119.038 25.2786 118.945 25.1209L116.288 20.6425V28.6774C116.288 28.8203 116.233 28.9456 116.123 29.0521C116.014 29.1599 115.871 29.2138 115.7 29.2138H112.879C112.72 29.2138 112.584 29.1599 112.467 29.0521Z" fill="white"/>
<path fill-rule="evenodd" clip-rule="evenodd" d="M135.067 28.8258C134.001 28.4269 133.197 27.9013 132.656 27.2518C132.115 26.6022 131.831 25.8906 131.798 25.1197C131.798 25.0052 131.848 24.9014 131.951 24.8098C132.053 24.7168 132.175 24.6696 132.316 24.6696H135.278C135.467 24.6696 135.62 24.7019 135.737 24.7666C135.854 24.83 135.976 24.927 136.102 25.055C136.305 25.427 136.634 25.7343 137.088 25.9768C137.543 26.2194 138.147 26.3407 138.9 26.3407C139.793 26.3407 140.475 26.2127 140.945 25.9553C141.416 25.6979 141.65 25.3475 141.65 24.9054C141.65 24.5914 141.529 24.334 141.286 24.1346C141.043 23.9338 140.663 23.7559 140.146 23.5982C139.628 23.4405 138.861 23.2626 137.842 23.0632C135.96 22.706 134.553 22.1804 133.621 21.4877C132.687 20.795 132.222 19.8058 132.222 18.5201C132.222 17.6495 132.488 16.8706 133.02 16.1846C133.555 15.5 134.314 14.9636 135.303 14.5782C136.289 14.1927 137.442 14 138.758 14C140.122 14 141.305 14.2143 142.309 14.6428C143.312 15.0714 144.077 15.6105 144.602 16.2601C145.126 16.911 145.404 17.5498 145.435 18.1778C145.435 18.3058 145.389 18.4137 145.295 18.4986C145.202 18.5848 145.083 18.6279 144.941 18.6279H141.839C141.65 18.6279 141.498 18.5996 141.38 18.5417C141.263 18.4851 141.157 18.3921 141.062 18.2641C140.969 17.9352 140.714 17.6563 140.299 17.4272C139.882 17.1994 139.369 17.0848 138.758 17.0848C138.053 17.0848 137.512 17.1994 137.136 17.4272C136.759 17.6563 136.572 17.9918 136.572 18.4352C136.572 18.7344 136.677 18.9851 136.89 19.1845C137.101 19.3853 137.446 19.5673 137.923 19.7303C138.402 19.8961 139.087 20.0632 139.982 20.2344C141.44 20.4783 142.603 20.7815 143.473 21.1454C144.343 21.5093 144.982 21.981 145.389 22.5591C145.797 23.1373 146 23.8623 146 24.7343C146 25.6911 145.698 26.524 145.095 27.2302C144.491 27.9364 143.652 28.4808 142.578 28.8582C141.505 29.2369 140.278 29.4256 138.9 29.4256C137.41 29.4256 136.132 29.2261 135.067 28.8258Z" fill="white"/>
</svg>
