<svg width="128" height="44" viewBox="0 0 128 44" fill="none" xmlns="http://www.w3.org/2000/svg">
<path fill-rule="evenodd" clip-rule="evenodd" d="M0.252578 43.467C0.0829072 43.3151 0 43.1364 0 42.9326V23.07C0 22.8451 0.0829072 22.6625 0.252578 22.5203C0.42032 22.378 0.615056 22.3069 0.840641 22.3069H4.4018C4.96287 22.3069 5.34462 22.501 5.54514 22.8874L13.7472 34.6216V23.07C13.7472 22.8451 13.8301 22.6625 13.9998 22.5203C14.1675 22.378 14.3622 22.3069 14.5878 22.3069H18.6194C18.8662 22.3069 19.0687 22.378 19.2248 22.5203C19.381 22.6625 19.4601 22.8451 19.4601 23.07V42.9019C19.4601 43.1268 19.381 43.3151 19.2248 43.467C19.0687 43.6207 18.8662 43.6976 18.6194 43.6976H15.0236C14.53 43.6976 14.1617 43.5035 13.9149 43.1152L5.71289 31.8096V42.9326C5.71289 43.1364 5.63576 43.3151 5.47766 43.467C5.32149 43.6207 5.11904 43.6976 4.87225 43.6976H0.840641C0.615056 43.6976 0.42032 43.6207 0.252578 43.467Z" fill="white"/>
<path fill-rule="evenodd" clip-rule="evenodd" d="M38.6042 35.5381L35.4788 27.4712L32.3534 35.5381H38.6042ZM23.9659 43.4979C23.8213 43.3653 23.748 43.2173 23.748 43.0539C23.748 42.9328 23.7596 42.8406 23.7808 42.7791L31.6801 23.1624C31.7476 22.9164 31.8942 22.7146 32.1178 22.5512C32.3415 22.3878 32.6326 22.3052 32.9912 22.3052H37.9657C38.3224 22.3052 38.6154 22.3878 38.8391 22.5512C39.0627 22.7146 39.2074 22.9164 39.2768 23.1624L47.1414 42.7791L47.2089 43.0539C47.2089 43.2173 47.1356 43.3653 46.991 43.4979C46.8425 43.6286 46.6709 43.6959 46.4685 43.6959H42.3366C41.7968 43.6959 41.4401 43.4825 41.2588 43.0539L39.9477 39.9382H30.9745L29.6981 43.0539C29.5168 43.4825 29.1486 43.6959 28.5894 43.6959H24.4537C24.2744 43.6959 24.1105 43.6286 23.9659 43.4979Z" fill="white"/>
<path fill-rule="evenodd" clip-rule="evenodd" d="M55.3599 43.4672C55.1922 43.3153 55.1073 43.1366 55.1073 42.9329V36.3632L47.3102 23.2855C47.2427 23.1009 47.208 22.9895 47.208 22.9491C47.208 22.7857 47.2813 22.6377 47.4278 22.5051C47.5724 22.3725 47.7479 22.3071 47.9484 22.3071H52.1497C52.597 22.3071 52.9903 22.5205 53.3258 22.9491L58.1306 30.8315L62.9719 22.9491C63.2419 22.5205 63.6333 22.3071 64.15 22.3071H68.3493C68.5518 22.3071 68.7195 22.3725 68.8545 22.5051C68.9875 22.6377 69.057 22.7857 69.057 22.9491C69.057 23.051 69.0338 23.1624 68.9875 23.2855L61.1904 36.3632V42.9329C61.1904 43.1577 61.1056 43.3403 60.9398 43.4826C60.772 43.6267 60.5638 43.6978 60.317 43.6978H55.948C55.7224 43.6978 55.5277 43.621 55.3599 43.4672Z" fill="white"/>
<path fill-rule="evenodd" clip-rule="evenodd" d="M74.0656 43.4672C73.8978 43.3153 73.813 43.1366 73.813 42.9329V23.0702C73.813 22.8453 73.8978 22.6627 74.0656 22.5205C74.2333 22.3782 74.428 22.3071 74.6556 22.3071H78.2842C78.8221 22.3071 79.2135 22.5301 79.4603 22.9799L85.3757 32.6056L91.2929 22.9799C91.5378 22.5301 91.9311 22.3071 92.4671 22.3071H96.063C96.3098 22.3071 96.518 22.3782 96.6857 22.5205C96.8535 22.6627 96.9383 22.8453 96.9383 23.0702V42.9329C96.9383 43.1577 96.8535 43.3403 96.6857 43.4826C96.518 43.6267 96.3098 43.6978 96.063 43.6978H92.0641C91.8174 43.6978 91.611 43.6267 91.4433 43.4826C91.2756 43.3403 91.1907 43.1577 91.1907 42.9329V31.4735L87.4271 37.8605C87.1341 38.3295 86.7427 38.564 86.2491 38.564H84.5022C84.2111 38.564 83.9759 38.5025 83.7966 38.3795C83.6173 38.2584 83.4591 38.0854 83.3261 37.8605L79.5278 31.4735V42.9329C79.5278 43.1366 79.4488 43.3153 79.2926 43.4672C79.1364 43.621 78.932 43.6978 78.6872 43.6978H74.6556C74.428 43.6978 74.2333 43.621 74.0656 43.4672Z" fill="white"/>
<path fill-rule="evenodd" clip-rule="evenodd" d="M106.37 43.1447C104.847 42.5757 103.698 41.8261 102.924 40.8997C102.151 39.9733 101.745 38.9584 101.698 37.859C101.698 37.6956 101.77 37.5476 101.916 37.4169C102.063 37.2843 102.236 37.217 102.439 37.217H106.673C106.943 37.217 107.16 37.2631 107.328 37.3554C107.496 37.4457 107.669 37.5841 107.851 37.7667C108.14 38.2972 108.61 38.7355 109.26 39.0814C109.91 39.4274 110.774 39.6004 111.85 39.6004C113.126 39.6004 114.102 39.4178 114.773 39.0507C115.445 38.6836 115.781 38.1838 115.781 37.5534C115.781 37.1055 115.607 36.7384 115.26 36.454C114.913 36.1676 114.37 35.9139 113.631 35.689C112.891 35.4641 111.794 35.2104 110.338 34.9259C107.646 34.4166 105.635 33.667 104.303 32.679C102.969 31.6911 102.304 30.2803 102.304 28.4466C102.304 27.205 102.683 26.094 103.445 25.1157C104.209 24.1393 105.294 23.3743 106.707 22.8246C108.117 22.2749 109.765 22 111.647 22C113.596 22 115.287 22.3056 116.722 22.9168C118.156 23.528 119.25 24.2969 120 25.2233C120.75 26.1517 121.147 27.0627 121.191 27.9584C121.191 28.141 121.126 28.2948 120.991 28.4159C120.858 28.5389 120.688 28.6004 120.485 28.6004H116.051C115.781 28.6004 115.563 28.56 115.395 28.4774C115.228 28.3966 115.075 28.264 114.94 28.0814C114.807 27.6124 114.443 27.2146 113.849 26.8878C113.253 26.563 112.521 26.3996 111.647 26.3996C110.639 26.3996 109.866 26.563 109.328 26.8878C108.79 27.2146 108.522 27.6932 108.522 28.3255C108.522 28.7522 108.672 29.1097 108.977 29.3942C109.278 29.6806 109.771 29.9401 110.454 30.1726C111.138 30.4091 112.118 30.6474 113.396 30.8915C115.48 31.2394 117.142 31.6719 118.386 32.1908C119.629 32.7098 120.543 33.3825 121.126 34.2071C121.708 35.0316 121.999 36.0657 121.999 37.3093C121.999 38.6739 121.567 39.8618 120.705 40.8689C119.841 41.8761 118.642 42.6526 117.107 43.1908C115.573 43.7309 113.82 44 111.85 44C109.719 44 107.893 43.7155 106.37 43.1447Z" fill="white"/>
</svg>
