<svg width="280" height="224" viewBox="0 0 280 224" fill="none" xmlns="http://www.w3.org/2000/svg">
<rect width="280" height="224" fill="#1A1A1A"/>
<mask id="mask0_3560_94317" style="mask-type:alpha" maskUnits="userSpaceOnUse" x="0" y="0" width="280" height="224">
<rect width="280" height="224" fill="#1A1A1A"/>
</mask>
<g mask="url(#mask0_3560_94317)">
<path d="M-58 67C-20.3899 200.038 307 -119 133 126C-41 370.999 196.214 125.482 294 169.166" stroke="white" stroke-width="6"/>
<path d="M-139 175.489C-101.39 308.527 173 2.48937 -1 247.489C-175 492.489 62.2138 246.971 160 290.656" stroke="white" stroke-width="6"/>
<path d="M119 -96.511C156.61 36.5265 431 -269.511 257 -24.511C83 220.489 320.214 -25.029 418 18.6556" stroke="white" stroke-width="6"/>
<circle cx="208" cy="152" r="44" fill="#EE2B6C"/>
<rect x="190" y="134" width="36" height="36" fill="white"/>
<rect x="28" y="28" width="88" height="88" fill="#2B4BEE"/>
<rect x="51" y="51" width="42" height="42" fill="white"/>
</g>
</svg>
