<svg width="168" height="35" viewBox="0 0 168 35" fill="none" xmlns="http://www.w3.org/2000/svg">
<g clip-path="url(#clip0_6_80)">
<path d="M61.1255 14.9594V12.7156H64.9228C65.6017 12.7156 66.1126 12.5315 66.4532 12.1633C66.8065 11.7836 66.9825 11.2588 66.9825 10.5926C66.9825 9.91254 66.7927 9.37517 66.4118 8.98049C66.0436 8.5858 65.5142 8.38789 64.8192 8.38789H61.1255V6.1452H64.657C65.2956 6.1452 65.7789 5.99561 66.1057 5.69643C66.4452 5.38345 66.6155 4.92663 66.6155 4.32827C66.6155 3.72991 66.4521 3.28115 66.1264 2.98197C65.8123 2.66898 65.3439 2.51249 64.718 2.51249H61.1244V0.267503H65.39C66.696 0.267503 67.75 0.600051 68.5532 1.2663C69.3564 1.93369 69.7568 2.83813 69.7568 3.98076C69.7568 4.70109 69.5865 5.32016 69.2471 5.83797C68.9104 6.35115 68.4375 6.76037 67.8812 7.01972C67.2806 7.29831 66.625 7.43793 65.963 7.42821L66.0643 6.99901C66.826 6.99901 67.5141 7.16241 68.1263 7.4892C68.741 7.80571 69.2563 8.28597 69.6153 8.87693C69.9835 9.46148 70.1665 10.1553 70.1665 10.9585C70.1665 11.7617 69.9755 12.4682 69.5946 13.0804C69.2275 13.6787 68.7039 14.1425 68.0239 14.4681C67.3565 14.7949 66.5683 14.9583 65.6569 14.9583H61.1244L61.1255 14.9594ZM58.5549 14.9594V0.266352H61.6974V14.9594H58.5549ZM71.6842 14.9594V0.266352H74.745V14.9594H71.6842ZM83.4085 14.9594C83.3237 14.6445 83.2622 14.3238 83.2244 13.9998C83.1955 13.6062 83.182 13.2115 83.1842 12.8169H83.1036V7.89884C83.1036 7.47654 82.9598 7.1509 82.6744 6.91961C82.4017 6.67452 81.9944 6.55139 81.4501 6.55139C80.9323 6.55139 80.518 6.64 80.205 6.81605C79.9059 6.99441 79.7079 7.25331 79.6124 7.59276H76.6943C76.8312 6.6538 77.3134 5.87824 78.1442 5.26608C78.9727 4.65391 80.1095 4.34783 81.5513 4.34783C83.0472 4.34783 84.191 4.68153 84.9804 5.34778C85.7686 6.01517 86.1633 6.97369 86.1633 8.22449V12.8157C86.1633 13.1563 86.184 13.5038 86.2243 13.8571C86.2856 14.2288 86.3675 14.5968 86.4694 14.9594H83.4085ZM79.7758 15.1631C78.7425 15.1631 77.9198 14.9054 77.3065 14.3876C76.6943 13.8582 76.3882 13.1563 76.3882 12.2864C76.3882 11.3198 76.7495 10.5443 77.4699 9.95972C78.2051 9.36137 79.2247 8.97358 80.5307 8.79753L83.5719 8.36832V10.1438L81.0404 10.5316C80.4973 10.6122 80.0969 10.7617 79.8368 10.9804C79.5791 11.1979 79.4502 11.497 79.4502 11.8779C79.4502 12.2185 79.5722 12.4763 79.8173 12.6535C80.0624 12.8307 80.388 12.9181 80.7965 12.9181C81.4363 12.9181 81.9806 12.749 82.4293 12.4084C82.8781 12.0551 83.1025 11.6466 83.1025 11.1841L83.3878 12.8169C83.0887 13.5924 82.633 14.177 82.0208 14.5717C81.4087 14.9664 80.6596 15.1631 79.7758 15.1631ZM92.6647 15.1631C91.5761 15.1631 90.6164 14.933 89.7879 14.4693C88.9715 14.0208 88.2935 13.3574 87.8272 12.5511C87.3658 11.7341 87.1345 10.8032 87.1345 9.7549C87.1345 8.70778 87.3646 7.77572 87.8272 6.95989C88.2931 6.15368 88.9708 5.49034 89.7868 5.04169C90.6164 4.57912 91.5761 4.34783 92.6635 4.34783C93.576 4.34783 94.3918 4.51813 95.1133 4.85759C95.8475 5.18438 96.447 5.64005 96.9084 6.22575C97.3848 6.8103 97.6908 7.49726 97.8266 8.28548H94.8682C94.7186 7.78263 94.4471 7.40175 94.0512 7.144C93.6715 6.88509 93.2227 6.75621 92.7049 6.75621C92.2159 6.75621 91.7867 6.87819 91.4196 7.12328C91.0528 7.38416 90.7692 7.74536 90.6026 8.1635C90.4128 8.61227 90.3173 9.14389 90.3173 9.75605C90.3173 10.3682 90.4128 10.8987 90.6026 11.3474C90.7936 11.7962 91.0652 12.1437 91.4196 12.3877C91.7878 12.6328 92.2159 12.7559 92.7049 12.7559C93.2227 12.7559 93.6715 12.6259 94.0512 12.3681C94.4471 12.1092 94.7186 11.7283 94.8682 11.2255H97.8278C97.7064 11.9805 97.3894 12.6906 96.9084 13.2852C96.4288 13.8841 95.8134 14.3602 95.1133 14.6741C94.3918 15.0009 93.576 15.1631 92.6647 15.1631ZM99.082 14.9594V0.266352H102.143V14.9594H99.082ZM105.756 14.9594L101.429 9.55123L105.652 4.5515H109.184L104.224 10.0207L104.368 9.06219L109.388 14.9594H105.756ZM58.5549 33.3704V18.6773H61.6974V33.3704H58.5549ZM60.0243 27.6768V25.2684H68.4519V27.6768H60.0243ZM60.0243 21.0857V18.6762H68.9214V21.0845L60.0243 21.0857ZM75.1282 33.5741C73.9856 33.5741 72.9787 33.3497 72.1077 32.9009C71.2718 32.4582 70.5734 31.7947 70.0882 30.9827C69.6118 30.1531 69.3736 29.2003 69.3736 28.1256C69.3736 27.0508 69.6118 26.1119 70.0871 25.3099C70.5743 24.5093 71.2737 23.8593 72.1077 23.4319C72.9787 22.9832 73.9856 22.7588 75.1282 22.7588C76.2847 22.7588 77.2915 22.9832 78.1488 23.4319C78.9882 23.8516 79.6895 24.5034 80.1694 25.3099C80.6446 26.1119 80.8828 27.0508 80.8828 28.1256C80.8828 29.2003 80.6389 30.1531 80.1487 30.9827C79.6723 31.7997 78.998 32.4384 78.1281 32.9009C77.2708 33.3497 76.2709 33.5741 75.1282 33.5741ZM75.1282 31.1668C75.6046 31.1668 76.0327 31.0437 76.4135 30.7986C76.8082 30.5547 77.1212 30.2072 77.3525 29.7584C77.5838 29.2958 77.7 28.7458 77.7 28.1049C77.7 27.1671 77.448 26.4456 76.944 25.9416C76.7135 25.6912 76.4324 25.4927 76.1194 25.3592C75.8063 25.2257 75.4685 25.1602 75.1282 25.1672C74.4067 25.1672 73.7946 25.4249 73.2917 25.9427C72.8015 26.4594 72.5576 27.1797 72.5576 28.106C72.5576 28.7447 72.6727 29.2958 72.9039 29.7584C73.1352 30.2072 73.4413 30.5547 73.8222 30.7986C74.2169 31.0437 74.6518 31.1668 75.1282 31.1668ZM82.1785 33.3704V22.9625H85.1783V25.4123H85.2404V33.3704H82.1785ZM85.2393 27.9426L84.9746 25.4733C85.2197 24.5884 85.6213 23.9152 86.1782 23.4527C86.7363 22.9901 87.4302 22.7588 88.261 22.7588C88.5187 22.7588 88.7098 22.7864 88.8317 22.8393V25.6976C88.7399 25.6665 88.6432 25.6525 88.5464 25.6562C88.3972 25.6416 88.2474 25.6351 88.0976 25.6367C87.1172 25.6367 86.3969 25.8127 85.9343 26.166C85.4717 26.5066 85.2393 27.098 85.2393 27.9426ZM94.7209 33.5741C93.5645 33.5741 92.5576 33.3497 91.7015 32.9009C90.868 32.4616 90.1747 31.7969 89.7005 30.9827C89.2391 30.1657 89.0078 29.2279 89.0078 28.167C89.0078 27.0923 89.2379 26.1533 89.7005 25.3501C90.1769 24.5331 90.8374 23.9014 91.6797 23.4527C92.5243 22.9901 93.5035 22.7588 94.6197 22.7588C95.6944 22.7588 96.6253 22.9774 97.4158 23.4124C98.1875 23.8312 98.8241 24.461 99.2512 25.2282C99.6873 26.0037 99.9048 26.9151 99.9048 27.9622C99.9048 28.1808 99.8979 28.3845 99.8841 28.5744C99.8702 28.7516 99.8495 28.9219 99.8231 29.0853H90.8029V27.0647H97.3537L96.8232 27.4329C96.8232 26.5883 96.6196 25.9692 96.2111 25.5745C95.8164 25.1672 95.2721 24.9624 94.5782 24.9624C93.7762 24.9624 93.1502 25.2351 92.7003 25.7793C92.2654 26.3236 92.0479 27.1394 92.0479 28.228C92.0479 29.2889 92.2665 30.0783 92.7003 30.595C93.1491 31.1128 93.8165 31.3705 94.7002 31.3705C95.1904 31.3705 95.6127 31.29 95.966 31.1254C96.3204 30.962 96.585 30.6974 96.7623 30.3303H99.639C99.2995 31.336 98.7138 32.1323 97.8842 32.718C97.0672 33.2887 96.0132 33.5741 94.7209 33.5741ZM105.518 33.5741C103.994 33.5741 102.784 33.268 101.886 32.6558C100.989 32.0437 100.499 31.2002 100.417 30.1255H103.151C103.22 30.5881 103.45 30.9425 103.845 31.1864C104.253 31.4177 104.811 31.5339 105.518 31.5339C106.158 31.5339 106.62 31.4453 106.906 31.2693C107.045 31.1891 107.16 31.0728 107.239 30.9327C107.318 30.7926 107.358 30.6338 107.354 30.473C107.354 30.2141 107.267 30.0173 107.09 29.8804C106.926 29.7308 106.62 29.6088 106.171 29.5133L104.498 29.167C103.26 28.9081 102.349 28.5203 101.763 28.0036C101.179 27.4731 100.886 26.7931 100.886 25.9623C100.886 24.9554 101.274 24.1741 102.048 23.6149C102.824 23.0442 103.906 22.7588 105.293 22.7588C106.667 22.7588 107.763 23.0373 108.58 23.5953C109.396 24.1396 109.846 24.9014 109.926 25.8806H107.192C107.169 25.7115 107.104 25.5506 107.005 25.4121C106.905 25.2735 106.773 25.1614 106.62 25.0855C106.293 24.8945 105.831 24.799 105.232 24.799C104.688 24.799 104.28 24.8807 104.008 25.0441C103.888 25.1054 103.789 25.1993 103.72 25.3149C103.651 25.4306 103.617 25.5632 103.62 25.6976C103.62 25.9427 103.73 26.1395 103.947 26.2891C104.165 26.4249 104.525 26.548 105.029 26.6573L106.906 27.0439C107.953 27.2626 108.742 27.6699 109.272 28.2683C109.817 28.854 110.089 29.5478 110.089 30.351C110.089 31.3705 109.688 32.1668 108.885 32.7375C108.096 33.2956 106.975 33.5741 105.518 33.5741ZM116.17 33.5948C114.836 33.5948 113.843 33.2749 113.189 32.6351C112.551 31.9827 112.231 30.9965 112.231 29.6767V20.6369L115.292 19.4931V29.7791C115.292 30.2417 115.421 30.5881 115.68 30.8193C115.938 31.0506 116.339 31.1668 116.883 31.1668C117.088 31.1668 117.278 31.1461 117.455 31.1047C117.632 31.0644 117.808 31.0173 117.985 30.962V33.2887C117.808 33.3842 117.557 33.459 117.231 33.5131C116.88 33.5705 116.525 33.5979 116.17 33.5948ZM110.292 25.2891V22.9625H117.985V25.2891H110.292ZM122.848 33.3704V18.6773H125.991V33.3704H122.848ZM124.318 33.3704V30.962H133.051V33.3704H124.318ZM140.835 33.3704C140.75 33.0555 140.689 32.7347 140.652 32.4107C140.622 32.0171 140.608 31.6225 140.61 31.2278H140.529V26.3098C140.529 25.8875 140.386 25.5619 140.1 25.3294C139.828 25.0855 139.42 24.9624 138.876 24.9624C138.358 24.9624 137.944 25.051 137.631 25.227C137.486 25.3108 137.359 25.4226 137.257 25.5559C137.155 25.6892 137.081 25.8415 137.039 26.0037H134.12C134.257 25.0648 134.739 24.2892 135.57 23.677C136.4 23.0649 137.536 22.7588 138.977 22.7588C140.474 22.7588 141.617 23.0925 142.406 23.7587C143.195 24.4261 143.589 25.3847 143.589 26.6354V31.2267C143.589 31.5673 143.61 31.9148 143.652 32.2681C143.706 32.6087 143.787 32.9757 143.895 33.3704H140.835ZM137.202 33.5741C136.169 33.5741 135.346 33.3163 134.733 32.7985C134.12 32.2692 133.814 31.5673 133.814 30.6974C133.814 29.7308 134.176 28.9552 134.896 28.3707C135.631 27.7723 136.652 27.3845 137.958 27.2085L140.998 26.7793V28.5548L138.468 28.9426C137.923 29.0231 137.522 29.1727 137.264 29.3913C137.005 29.6088 136.876 29.908 136.876 30.2889C136.876 30.6295 136.998 30.8872 137.243 31.0644C137.488 31.2416 137.814 31.3291 138.223 31.3291C138.862 31.3291 139.407 31.1599 139.855 30.8193C140.304 30.4661 140.529 30.0576 140.529 29.595L140.814 31.2278C140.515 32.0034 140.059 32.5879 139.447 32.9826C138.835 33.3773 138.087 33.5741 137.202 33.5741ZM151.962 33.5741C150.969 33.5741 150.16 33.3439 149.534 32.8802C148.922 32.4176 148.561 31.7859 148.452 30.9827L148.616 30.962V33.3704H145.616V18.6773H148.677V25.2684L148.492 25.2282C148.558 24.8644 148.697 24.5177 148.9 24.2091C149.104 23.9005 149.368 23.6365 149.677 23.4331C150.33 22.9843 151.146 22.7588 152.125 22.7588C153.064 22.7588 153.873 22.9832 154.554 23.4319C155.248 23.8681 155.779 24.486 156.146 25.2891C156.527 26.0923 156.716 27.0382 156.716 28.1256C156.716 29.2279 156.52 30.1865 156.125 31.0023C155.73 31.8193 155.179 32.4522 154.473 32.9009C153.765 33.3497 152.928 33.5741 151.962 33.5741ZM151.104 31.1254C151.826 31.1254 152.411 30.8677 152.86 30.3499C153.309 29.8332 153.534 29.0991 153.534 28.1463C153.534 27.1935 153.302 26.4663 152.84 25.9623C152.391 25.4594 151.798 25.2074 151.064 25.2074C150.357 25.2074 149.772 25.4664 149.309 25.983C148.861 26.487 148.636 27.2142 148.636 28.167C148.636 29.1186 148.861 29.8539 149.309 30.3706C149.772 30.8746 150.37 31.1254 151.104 31.1254ZM162.366 33.5741C160.843 33.5741 159.632 33.268 158.734 32.6558C157.836 32.0437 157.346 31.2002 157.264 30.1255H159.999C160.067 30.5881 160.298 30.9425 160.693 31.1864C161.102 31.4177 161.659 31.5339 162.366 31.5339C163.006 31.5339 163.469 31.4453 163.754 31.2693C163.893 31.1891 164.009 31.0728 164.088 30.9327C164.167 30.7926 164.206 30.6338 164.203 30.473C164.203 30.2141 164.114 30.0173 163.938 29.8804C163.775 29.7308 163.469 29.6088 163.02 29.5133L161.346 29.167C160.109 28.9081 159.196 28.5203 158.612 28.0036C158.027 27.4731 157.734 26.7931 157.734 25.9623C157.734 24.9554 158.121 24.1741 158.897 23.6149C159.673 23.0442 160.754 22.7588 162.142 22.7588C163.516 22.7588 164.611 23.0373 165.427 23.5953C166.244 24.1396 166.693 24.9014 166.775 25.8806H164.039C164.016 25.7116 163.952 25.5508 163.853 25.4122C163.753 25.2736 163.621 25.1614 163.469 25.0855C163.142 24.8945 162.679 24.799 162.081 24.799C161.537 24.799 161.128 24.8807 160.857 25.0441C160.737 25.1054 160.637 25.1993 160.568 25.3149C160.5 25.4306 160.465 25.5632 160.469 25.6976C160.469 25.9427 160.577 26.1395 160.796 26.2891C161.013 26.4249 161.373 26.548 161.877 26.6573L163.754 27.0439C164.801 27.2626 165.59 27.6699 166.121 28.2683C166.665 28.854 166.938 29.5478 166.938 30.351C166.938 31.3705 166.536 32.1668 165.733 32.7375C164.945 33.2956 163.822 33.5741 162.366 33.5741ZM34.4596 14.7558H29.3206L24.1805 7.51452L8.1457 30.0794H13.2973L24.1805 14.7558H29.3195L18.4374 30.0794H23.6017L34.4596 14.7558L48.3288 34.2806L40.2141 34.2818V30.0944L34.4607 21.997L28.7384 30.0806V34.2818H0L24.1805 0.242188L34.4596 14.7569V14.7558Z" fill="white" style="fill:white;fill-opacity:1;"/>
</g>
<defs>
<clipPath id="clip0_6_80">
<rect width="168" height="34.5205" fill="white" style="fill:white;fill-opacity:1;"/>
</clipPath>
</defs>
</svg>
