<svg width="18" height="18" viewBox="0 0 18 18" fill="none" xmlns="http://www.w3.org/2000/svg">
<path d="M10.5328 1.68157L7.42181 1.67407H7.42031C4.13981 1.67407 1.57031 4.24432 1.57031 7.52557C1.57031 10.5991 3.95981 12.9301 7.16906 13.0531V15.9241C7.16906 16.0051 7.20206 16.1386 7.25906 16.2263C7.36556 16.3951 7.54706 16.4866 7.73306 16.4866C7.83656 16.4866 7.94081 16.4581 8.03456 16.3981C8.23256 16.2721 12.8893 13.2931 14.1006 12.2686C15.5271 11.0611 16.3806 9.29107 16.3828 7.53457V7.52182C16.3783 4.24657 13.8103 1.68157 10.5328 1.68082V1.68157ZM13.3731 11.4106C12.5226 12.1306 9.72656 13.9643 8.29406 14.8928V12.5026C8.29406 12.1921 8.04281 11.9401 7.73156 11.9401H7.43456C4.68956 11.9401 2.69606 10.0831 2.69606 7.52557C2.69606 4.87507 4.77206 2.79907 7.42106 2.79907L10.5313 2.80657H10.5328C13.1818 2.80657 15.2578 4.88107 15.2593 7.52857C15.2571 8.96107 14.5528 10.4116 13.3738 11.4106H13.3731Z" fill="#999999"/>
</svg>
