<svg width="18" height="18" viewBox="0 0 18 18" fill="none" xmlns="http://www.w3.org/2000/svg">
<path d="M17.8267 11.7524C17.6077 11.5327 17.2514 11.5327 17.0317 11.7524L15.3667 13.4174V5.73744C15.3667 4.18644 14.1044 2.92494 12.5542 2.92494H8.16669C7.85619 2.92494 7.60419 3.17694 7.60419 3.48744C7.60419 3.79794 7.85619 4.04994 8.16669 4.04994H12.5542C13.4842 4.04994 14.2417 4.80744 14.2417 5.73744V13.4174L12.5767 11.7524C12.3569 11.5327 12.0007 11.5327 11.7817 11.7524C11.5627 11.9722 11.5612 12.3284 11.7817 12.5474L14.4067 15.1724C14.5154 15.2827 14.6594 15.3374 14.8042 15.3374C14.9489 15.3374 15.0914 15.2834 15.2017 15.1724L17.8267 12.5474C18.0472 12.3284 18.0472 11.9722 17.8267 11.7524ZM9.83169 14.2124H5.44419C4.51419 14.2124 3.75669 13.4549 3.75669 12.5249V4.84494L5.42169 6.50994C5.53269 6.62019 5.67669 6.67494 5.82069 6.67494C5.96469 6.67494 6.10869 6.62019 6.21819 6.50994C6.43794 6.29019 6.43794 5.93394 6.21819 5.71494L3.59319 3.08994C3.37344 2.86944 3.01719 2.86944 2.79819 3.08994L0.173187 5.71494C-0.0473125 5.93394 -0.0473125 6.29019 0.173187 6.50994C0.393687 6.72969 0.748437 6.72969 0.968187 6.50994L2.63319 4.84494V12.5249C2.63319 14.0759 3.89544 15.3374 5.44569 15.3374H9.83319C10.1437 15.3374 10.3957 15.0854 10.3957 14.7749C10.3957 14.4644 10.1429 14.2124 9.83319 14.2124H9.83169Z" fill="#999999"/>
</svg>
