<svg width="549" height="72" viewBox="0 0 549 72" fill="none" xmlns="http://www.w3.org/2000/svg">
<g clip-path="url(#clip0_3576_95882)">
<path d="M147.977 25.8665C146.873 25.8665 145.987 25.6359 145.319 25.1748C144.665 24.6993 144.186 24.0149 143.881 23.1215C143.59 22.2281 143.445 21.1546 143.445 19.901V14.0436C143.445 12.7612 143.576 11.6733 143.837 10.7799C144.114 9.87214 144.592 9.18043 145.276 8.70494C145.973 8.22944 146.938 7.9917 148.172 7.9917C149.276 7.9917 150.162 8.17897 150.83 8.55366C151.512 8.91388 152.006 9.47584 152.311 10.2396C152.616 10.9889 152.769 11.9398 152.769 13.0926V13.741H150.46V13.2006C150.46 12.4369 150.409 11.8174 150.307 11.3419C150.206 10.8519 149.995 10.4917 149.676 10.2612C149.371 10.0162 148.884 9.89374 148.216 9.89374C147.49 9.89374 146.96 10.0594 146.626 10.3908C146.306 10.7222 146.103 11.1761 146.016 11.7525C145.943 12.3145 145.907 12.9557 145.907 13.6761V20.1604C145.907 20.9961 145.965 21.695 146.081 22.2569C146.212 22.8189 146.451 23.2368 146.8 23.5105C147.148 23.7843 147.642 23.9212 148.281 23.9212C148.921 23.9212 149.414 23.7699 149.763 23.4673C150.111 23.1647 150.351 22.718 150.481 22.1273C150.612 21.5364 150.678 20.8016 150.678 19.9226V18.7122H148.434V16.9831H152.899V25.6503H151.353L151.113 23.6402C150.881 24.2886 150.518 24.8218 150.024 25.2396C149.53 25.6575 148.847 25.8665 147.977 25.8665Z" fill="currentColor"/>
<path d="M157.086 25.6499L160.833 8.14258H163.207L166.976 25.6499H164.645L163.839 21.2407H160.244L159.395 25.6499H157.086ZM160.571 19.4899H163.512L162.031 11.6008L160.571 19.4899Z" fill="currentColor"/>
<path d="M172.618 25.6499V9.95814H169.633V8.14258H177.976V9.95814H175.079V25.6499H172.618Z" fill="currentColor"/>
<path d="M186.451 25.8449C185.435 25.8449 184.585 25.6287 183.903 25.1964C183.234 24.7641 182.726 24.1662 182.377 23.4025C182.029 22.6388 181.826 21.7526 181.768 20.7439L183.946 20.1604C183.99 20.78 184.084 21.378 184.23 21.9543C184.389 22.5307 184.643 23.0062 184.992 23.3809C185.34 23.7411 185.827 23.9212 186.451 23.9212C187.09 23.9212 187.57 23.7483 187.889 23.4025C188.223 23.0422 188.39 22.5307 188.39 21.8678C188.39 21.0753 188.208 20.4414 187.845 19.9658C187.483 19.4759 187.025 18.986 186.473 18.4961L183.511 15.9024C182.929 15.3981 182.501 14.8505 182.225 14.2598C181.949 13.6545 181.812 12.9125 181.812 12.0335C181.812 10.751 182.182 9.75686 182.922 9.05075C183.663 8.34472 184.672 7.9917 185.95 7.9917C186.647 7.9917 187.258 8.08537 187.78 8.27264C188.317 8.44559 188.76 8.71934 189.109 9.09403C189.472 9.46864 189.755 9.94413 189.959 10.5205C190.176 11.0825 190.321 11.7453 190.394 12.509L188.303 13.071C188.26 12.4946 188.172 11.9686 188.041 11.4932C187.911 11.0033 187.678 10.6142 187.344 10.326C187.025 10.0234 186.561 9.87214 185.95 9.87214C185.34 9.87214 184.861 10.0378 184.513 10.3692C184.178 10.6862 184.011 11.1617 184.011 11.7958C184.011 12.3289 184.098 12.7684 184.273 13.1142C184.462 13.4601 184.76 13.8131 185.166 14.1733L188.15 16.767C188.818 17.3433 189.407 18.035 189.915 18.8419C190.423 19.6345 190.677 20.5782 190.677 21.6734C190.677 22.5379 190.496 23.2872 190.133 23.9212C189.769 24.5408 189.269 25.0163 188.63 25.3477C188.005 25.6791 187.279 25.8449 186.451 25.8449Z" fill="currentColor"/>
<path d="M195.201 25.6499V8.14258H199.253C200.051 8.14258 200.741 8.22905 201.322 8.40192C201.917 8.57487 202.411 8.84142 202.804 9.20171C203.196 9.56192 203.486 10.023 203.675 10.585C203.863 11.1325 203.958 11.781 203.958 12.5302C203.958 13.2507 203.863 13.8775 203.675 14.4107C203.501 14.9294 203.224 15.34 202.847 15.6427C202.484 15.9453 202.012 16.1397 201.431 16.2262C202.142 16.3848 202.716 16.6585 203.152 17.0475C203.588 17.4222 203.907 17.9121 204.111 18.5173C204.328 19.1081 204.437 19.8213 204.437 20.6571C204.437 21.4064 204.35 22.0908 204.176 22.7104C204.001 23.33 203.726 23.856 203.348 24.2883C202.985 24.7205 202.513 25.0592 201.932 25.3041C201.366 25.5347 200.69 25.6499 199.906 25.6499H195.201ZM197.663 23.8992H199.318C200.422 23.8992 201.155 23.647 201.518 23.1427C201.896 22.624 202.085 21.7955 202.085 20.6571C202.085 19.9222 201.983 19.3099 201.78 18.8199C201.591 18.3156 201.279 17.9409 200.843 17.696C200.422 17.4366 199.848 17.3069 199.122 17.3069H197.663V23.8992ZM197.663 15.4481H199.122C199.819 15.4481 200.364 15.3544 200.756 15.1672C201.148 14.9654 201.424 14.6484 201.584 14.2161C201.744 13.7838 201.824 13.2219 201.824 12.5302C201.824 11.7233 201.7 11.1397 201.453 10.7795C201.206 10.4192 200.821 10.1959 200.298 10.1095C199.776 10.0086 199.093 9.95814 198.251 9.95814H197.663V15.4481Z" fill="currentColor"/>
<path d="M211.939 25.6499V19.4683L208.127 8.14258H210.414L213.115 16.5936L215.773 8.14258H218.082L214.291 19.4683V25.6499H211.939Z" fill="currentColor"/>
<path d="M229.932 25.6499V8.14258H233.983C234.782 8.14258 235.471 8.22905 236.053 8.40192C236.648 8.57487 237.142 8.84142 237.534 9.20171C237.925 9.56192 238.216 10.023 238.405 10.585C238.594 11.1325 238.689 11.781 238.689 12.5302C238.689 13.2507 238.594 13.8775 238.405 14.4107C238.231 14.9294 237.955 15.34 237.577 15.6427C237.214 15.9453 236.742 16.1397 236.161 16.2262C236.873 16.3848 237.447 16.6585 237.882 17.0475C238.318 17.4222 238.637 17.9121 238.841 18.5173C239.059 19.1081 239.167 19.8213 239.167 20.6571C239.167 21.4064 239.081 22.0908 238.906 22.7104C238.732 23.33 238.456 23.856 238.079 24.2883C237.715 24.7205 237.243 25.0592 236.663 25.3041C236.096 25.5347 235.421 25.6499 234.637 25.6499H229.932ZM232.393 23.8992H234.048C235.152 23.8992 235.886 23.647 236.248 23.1427C236.626 22.624 236.815 21.7955 236.815 20.6571C236.815 19.9222 236.713 19.3099 236.51 18.8199C236.321 18.3156 236.009 17.9409 235.573 17.696C235.152 17.4366 234.579 17.3069 233.852 17.3069H232.393V23.8992ZM232.393 15.4481H233.852C234.549 15.4481 235.094 15.3544 235.486 15.1672C235.878 14.9654 236.154 14.6484 236.314 14.2161C236.473 13.7838 236.553 13.2219 236.553 12.5302C236.553 11.7233 236.43 11.1397 236.183 10.7795C235.936 10.4192 235.551 10.1959 235.029 10.1095C234.506 10.0086 233.823 9.95814 232.981 9.95814H232.393V15.4481Z" fill="currentColor"/>
<path d="M243.969 25.6499V8.14258H250.809V9.95814H246.43V15.7507H249.981V17.4798H246.43V23.8992H250.852V25.6499H243.969Z" fill="currentColor"/>
<path d="M259.615 25.8449C258.598 25.8449 257.748 25.6287 257.066 25.1964C256.398 24.7641 255.89 24.1662 255.541 23.4025C255.193 22.6388 254.99 21.7526 254.932 20.7439L257.109 20.1604C257.153 20.78 257.248 21.378 257.393 21.9543C257.553 22.5307 257.806 23.0062 258.155 23.3809C258.503 23.7411 258.99 23.9212 259.615 23.9212C260.254 23.9212 260.733 23.7483 261.053 23.4025C261.386 23.0422 261.553 22.5307 261.553 21.8678C261.553 21.0753 261.372 20.4414 261.009 19.9658C260.646 19.4759 260.189 18.986 259.637 18.4961L256.674 15.9024C256.093 15.3981 255.665 14.8505 255.389 14.2598C255.113 13.6545 254.975 12.9125 254.975 12.0335C254.975 10.751 255.345 9.75686 256.086 9.05075C256.826 8.34472 257.836 7.9917 259.114 7.9917C259.811 7.9917 260.421 8.08537 260.944 8.27264C261.481 8.44559 261.924 8.71934 262.272 9.09403C262.635 9.46864 262.919 9.94413 263.122 10.5205C263.34 11.0825 263.485 11.7453 263.557 12.509L261.466 13.071C261.423 12.4946 261.336 11.9686 261.205 11.4932C261.074 11.0033 260.842 10.6142 260.508 10.326C260.189 10.0234 259.724 9.87214 259.114 9.87214C258.503 9.87214 258.025 10.0378 257.676 10.3692C257.342 10.6862 257.175 11.1617 257.175 11.7958C257.175 12.3289 257.262 12.7684 257.436 13.1142C257.625 13.4601 257.923 13.8131 258.33 14.1733L261.314 16.767C261.982 17.3433 262.57 18.035 263.079 18.8419C263.587 19.6345 263.841 20.5782 263.841 21.6734C263.841 22.5379 263.659 23.2872 263.296 23.9212C262.933 24.5408 262.432 25.0163 261.793 25.3477C261.169 25.6791 260.443 25.8449 259.615 25.8449Z" fill="currentColor"/>
<path d="M270.302 25.6499V9.95814H267.318V8.14258H275.661V9.95814H272.764V25.6499H270.302Z" fill="currentColor"/>
<path d="M292.078 25.8449C290.887 25.8449 289.936 25.6143 289.224 25.1532C288.512 24.6921 288.004 24.0365 287.7 23.1863C287.395 22.3217 287.242 21.3131 287.242 20.1604V13.5249C287.242 12.3721 287.395 11.3851 287.7 10.5638C288.019 9.72799 288.527 9.09403 289.224 8.66174C289.936 8.21504 290.887 7.9917 292.078 7.9917C293.269 7.9917 294.213 8.21504 294.91 8.66174C295.607 9.10843 296.108 9.74239 296.413 10.5638C296.733 11.3851 296.892 12.3721 296.892 13.5249V20.182C296.892 21.3204 296.733 22.3145 296.413 23.1647C296.108 24.0149 295.607 24.6777 294.91 25.1532C294.213 25.6143 293.269 25.8449 292.078 25.8449ZM292.078 23.9212C292.731 23.9212 293.225 23.7916 293.559 23.5321C293.893 23.2584 294.118 22.8837 294.235 22.4082C294.351 21.9183 294.408 21.3492 294.408 20.7007V13.0278C294.408 12.3793 294.351 11.8246 294.235 11.3635C294.118 10.888 293.893 10.5277 293.559 10.2828C293.225 10.0234 292.731 9.89373 292.078 9.89373C291.425 9.89373 290.923 10.0234 290.575 10.2828C290.241 10.5277 290.016 10.888 289.9 11.3635C289.783 11.8246 289.726 12.3793 289.726 13.0278V20.7007C289.726 21.3492 289.783 21.9183 289.9 22.4082C290.016 22.8837 290.241 23.2584 290.575 23.5321C290.923 23.7916 291.425 23.9212 292.078 23.9212Z" fill="currentColor"/>
<path d="M301.926 25.6499V8.14258H308.745V9.89334H304.388V15.7291H307.764V17.4582H304.388V25.6499H301.926Z" fill="currentColor"/>
<path d="M320.162 25.6503V24.0076L324.649 17.0696C324.984 16.5508 325.289 16.0681 325.564 15.6214C325.854 15.1748 326.087 14.7065 326.261 14.2165C326.45 13.7122 326.544 13.1358 326.544 12.4874C326.544 11.6805 326.414 11.0465 326.152 10.5854C325.891 10.1243 325.434 9.89373 324.78 9.89373C324.228 9.89373 323.8 10.045 323.495 10.3476C323.19 10.6502 322.979 11.0465 322.863 11.5364C322.747 12.0263 322.689 12.5522 322.689 13.1142V13.6978H320.358V13.0926C320.358 12.0407 320.496 11.1401 320.772 10.3908C321.062 9.62712 321.52 9.03635 322.144 8.61846C322.783 8.20064 323.625 7.9917 324.671 7.9917C326.094 7.9917 327.155 8.39512 327.852 9.2021C328.549 9.99461 328.897 11.0969 328.897 12.509C328.897 13.2583 328.802 13.914 328.614 14.4759C328.44 15.0379 328.207 15.5638 327.917 16.0537C327.626 16.5436 327.307 17.0479 326.958 17.5667L322.906 23.7051H328.483V25.6503H320.162Z" fill="currentColor"/>
<path d="M337.928 25.8449C336.926 25.8449 336.097 25.6215 335.444 25.1748C334.805 24.7281 334.326 24.1157 334.006 23.3376C333.701 22.5596 333.549 21.6734 333.549 20.6791V13.1358C333.549 12.1128 333.701 11.2194 334.006 10.4557C334.311 9.67759 334.783 9.07235 335.422 8.64014C336.076 8.20784 336.911 7.9917 337.928 7.9917C338.944 7.9917 339.772 8.20784 340.411 8.64014C341.05 9.07235 341.522 9.67759 341.827 10.4557C342.132 11.2194 342.284 12.1128 342.284 13.1358V20.6791C342.284 21.6878 342.125 22.5812 341.805 23.3593C341.5 24.1374 341.028 24.7497 340.389 25.1964C339.75 25.6287 338.93 25.8449 337.928 25.8449ZM337.928 23.9428C338.48 23.9428 338.893 23.7843 339.169 23.4673C339.46 23.1503 339.656 22.7468 339.757 22.2569C339.874 21.7526 339.932 21.2339 339.932 20.7007V13.1142C339.932 12.5522 339.881 12.0263 339.779 11.5364C339.677 11.0321 339.482 10.6286 339.191 10.326C338.915 10.0234 338.494 9.87214 337.928 9.87214C337.361 9.87214 336.933 10.0234 336.642 10.326C336.352 10.6286 336.156 11.0321 336.054 11.5364C335.952 12.0263 335.902 12.5522 335.902 13.1142V20.7007C335.902 21.2339 335.952 21.7526 336.054 22.2569C336.171 22.7468 336.374 23.1503 336.664 23.4673C336.969 23.7843 337.39 23.9428 337.928 23.9428Z" fill="currentColor"/>
<path d="M347.045 25.6503V24.0076L351.533 17.0696C351.866 16.5508 352.171 16.0681 352.448 15.6214C352.738 15.1748 352.97 14.7065 353.145 14.2165C353.333 13.7122 353.428 13.1358 353.428 12.4874C353.428 11.6805 353.297 11.0465 353.036 10.5854C352.775 10.1243 352.317 9.89373 351.663 9.89373C351.111 9.89373 350.683 10.045 350.378 10.3476C350.073 10.6502 349.863 11.0465 349.747 11.5364C349.63 12.0263 349.572 12.5522 349.572 13.1142V13.6978H347.241V13.0926C347.241 12.0407 347.379 11.1401 347.656 10.3908C347.946 9.62712 348.403 9.03635 349.028 8.61846C349.667 8.20064 350.509 7.9917 351.554 7.9917C352.978 7.9917 354.038 8.39512 354.735 9.2021C355.432 9.99461 355.781 11.0969 355.781 12.509C355.781 13.2583 355.686 13.914 355.497 14.4759C355.323 15.0379 355.091 15.5638 354.8 16.0537C354.51 16.5436 354.19 17.0479 353.842 17.5667L349.79 23.7051H355.366V25.6503H347.045Z" fill="currentColor"/>
<path d="M362.893 25.6499V11.1685C362.88 11.1829 362.712 11.2262 362.393 11.2982C362.088 11.3703 361.739 11.4424 361.347 11.5144C360.955 11.5864 360.607 11.6512 360.302 11.7089C359.997 11.7665 359.837 11.7954 359.822 11.7954V10.0446C360.069 9.98701 360.352 9.90774 360.672 9.80687C361.006 9.706 361.34 9.58352 361.674 9.43945C362.023 9.29531 362.349 9.11523 362.654 8.89909C362.973 8.68294 363.242 8.4308 363.46 8.14258H365.224V25.6499H362.893Z" fill="currentColor"/>
<path d="M378.426 25.6499L382.173 8.14258H384.547L388.316 25.6499H385.985L385.179 21.2407H381.584L380.735 25.6499H378.426ZM381.911 19.4899H384.852L383.37 11.6008L381.911 19.4899Z" fill="currentColor"/>
<path d="M396.839 25.8665C395.735 25.8665 394.85 25.6359 394.182 25.1748C393.528 24.6993 393.049 24.0149 392.744 23.1215C392.454 22.2281 392.309 21.1546 392.309 19.901V14.0436C392.309 12.7612 392.439 11.6733 392.701 10.7799C392.976 9.87214 393.456 9.18043 394.138 8.70494C394.835 8.22944 395.801 7.9917 397.036 7.9917C398.139 7.9917 399.025 8.17897 399.693 8.55366C400.376 8.91388 400.869 9.47584 401.174 10.2396C401.479 10.9889 401.631 11.9398 401.631 13.0926V13.741H399.322V13.2006C399.322 12.4369 399.272 11.8174 399.17 11.3419C399.069 10.8519 398.858 10.4917 398.538 10.2612C398.233 10.0162 397.747 9.89374 397.079 9.89374C396.353 9.89374 395.823 10.0594 395.489 10.3908C395.169 10.7222 394.966 11.1761 394.879 11.7525C394.806 12.3145 394.77 12.9557 394.77 13.6761V20.1604C394.77 20.9961 394.828 21.695 394.944 22.2569C395.075 22.8189 395.315 23.2368 395.663 23.5105C396.012 23.7843 396.506 23.9212 397.144 23.9212C397.783 23.9212 398.277 23.7699 398.625 23.4673C398.974 23.1647 399.214 22.718 399.344 22.1273C399.475 21.5364 399.54 20.8016 399.54 19.9226V18.7122H397.297V16.9831H401.763V25.6503H400.216L399.976 23.6402C399.744 24.2886 399.38 24.8218 398.887 25.2396C398.393 25.6575 397.711 25.8665 396.839 25.8665Z" fill="currentColor"/>
<path d="M406.906 25.6499V8.14258H413.746V9.95814H409.368V15.7507H412.919V17.4798H409.368V23.8992H413.79V25.6499H406.906Z" fill="currentColor"/>
<path d="M418.391 25.6499V8.14258H420.068L425.078 19.7709V8.14258H427.126V25.6499H425.558L420.482 13.6974V25.6499H418.391Z" fill="currentColor"/>
<path d="M436.936 25.8449C435.687 25.8449 434.714 25.5855 434.017 25.0668C433.335 24.548 432.855 23.8492 432.58 22.9702C432.318 22.0912 432.188 21.1114 432.188 20.0307V13.8491C432.188 12.6675 432.318 11.6372 432.58 10.7582C432.855 9.87934 433.335 9.2021 434.017 8.72654C434.714 8.23664 435.687 7.9917 436.936 7.9917C438.04 7.9917 438.911 8.19344 439.55 8.59686C440.203 9.00035 440.668 9.57672 440.944 10.326C441.235 11.0753 441.38 11.9758 441.38 13.0278V14.411H439.049V13.179C439.049 12.5306 439.013 11.9614 438.94 11.4716C438.882 10.9672 438.708 10.5782 438.418 10.3044C438.127 10.0306 437.64 9.89373 436.958 9.89373C436.261 9.89373 435.753 10.045 435.433 10.3476C435.114 10.6358 434.903 11.0537 434.801 11.6012C434.714 12.1344 434.671 12.7612 434.671 13.4817V20.4198C434.671 21.2987 434.743 21.9976 434.889 22.5163C435.034 23.0206 435.273 23.3809 435.608 23.597C435.941 23.8132 436.392 23.9212 436.958 23.9212C437.626 23.9212 438.106 23.7771 438.396 23.4889C438.686 23.1863 438.868 22.7756 438.94 22.2569C439.013 21.7382 439.049 21.133 439.049 20.4414V19.1445H441.38V20.4414C441.38 21.5076 441.249 22.4515 440.988 23.2728C440.727 24.0797 440.277 24.7137 439.637 25.1748C438.998 25.6215 438.098 25.8449 436.936 25.8449Z" fill="currentColor"/>
<path d="M449.039 25.6499V19.4683L445.227 8.14258H447.514L450.215 16.5936L452.873 8.14258H455.182L451.392 19.4683V25.6499H449.039Z" fill="currentColor"/>
<path d="M466.072 25.6499L469.819 8.14258H472.193L475.962 25.6499H473.631L472.825 21.2407H469.231L468.382 25.6499H466.072ZM469.558 19.4899H472.499L471.018 11.6008L469.558 19.4899Z" fill="currentColor"/>
<path d="M482.315 25.6499L479.439 8.14258H481.487L483.382 20.7219L485.757 8.20745H487.499L489.895 20.7868L491.747 8.14258H493.751L490.919 25.6499H489.133L486.672 12.6816L484.188 25.6499H482.315Z" fill="currentColor"/>
<path d="M496.893 25.6499L500.64 8.14258H503.014L506.783 25.6499H504.452L503.646 21.2407H500.052L499.202 25.6499H496.893ZM500.378 19.4899H503.319L501.838 11.6008L500.378 19.4899Z" fill="currentColor"/>
<path d="M511.188 25.6499V8.14258H514.738C515.915 8.14258 516.887 8.30112 517.657 8.61807C518.426 8.92069 518.993 9.41785 519.356 10.1095C519.734 10.7867 519.922 11.6801 519.922 12.7896C519.922 13.4669 519.85 14.0864 519.705 14.6484C519.56 15.196 519.327 15.6643 519.008 16.0533C518.688 16.428 518.267 16.7017 517.744 16.8747L520.249 25.6499H517.875L515.566 17.4366H513.649V25.6499H511.188ZM513.649 15.6859H514.586C515.283 15.6859 515.849 15.5995 516.285 15.4265C516.72 15.2536 517.04 14.9582 517.243 14.5403C517.446 14.1224 517.548 13.5389 517.548 12.7896C517.548 11.7665 517.359 11.0317 516.982 10.585C516.604 10.1239 515.856 9.89334 514.738 9.89334H513.649V15.6859Z" fill="currentColor"/>
<path d="M525.098 25.6499V8.14258H528.932C530.239 8.14258 531.27 8.34432 532.025 8.74781C532.795 9.13683 533.339 9.7276 533.659 10.5201C533.992 11.3126 534.159 12.2997 534.159 13.4813V19.9222C534.159 21.1614 533.992 22.2061 533.659 23.0563C533.339 23.9064 532.809 24.5548 532.068 25.0015C531.343 25.4338 530.362 25.6499 529.128 25.6499H525.098ZM527.559 23.8992H528.953C529.854 23.8992 530.493 23.7263 530.871 23.3805C531.248 23.0347 531.473 22.5303 531.546 21.8675C531.633 21.2047 531.676 20.4049 531.676 19.4683V13.7838C531.676 12.876 531.618 12.1412 531.502 11.5792C531.386 11.0173 531.132 10.6066 530.739 10.3472C530.347 10.0878 529.73 9.95814 528.888 9.95814H527.559V23.8992Z" fill="currentColor"/>
<path d="M543.359 25.8449C542.343 25.8449 541.493 25.6287 540.811 25.1964C540.142 24.7641 539.635 24.1662 539.286 23.4025C538.937 22.6388 538.734 21.7526 538.676 20.7439L540.854 20.1604C540.898 20.78 540.993 21.378 541.138 21.9543C541.298 22.5307 541.551 23.0062 541.9 23.3809C542.248 23.7411 542.735 23.9212 543.359 23.9212C543.999 23.9212 544.478 23.7483 544.797 23.4025C545.131 23.0422 545.298 22.5307 545.298 21.8678C545.298 21.0753 545.116 20.4414 544.754 19.9658C544.391 19.4759 543.933 18.986 543.381 18.4961L540.419 15.9024C539.838 15.3981 539.41 14.8505 539.133 14.2598C538.858 13.6545 538.72 12.9125 538.72 12.0335C538.72 10.751 539.09 9.75686 539.831 9.05075C540.571 8.34472 541.581 7.9917 542.858 7.9917C543.555 7.9917 544.166 8.08537 544.688 8.27264C545.226 8.44559 545.668 8.71934 546.017 9.09403C546.38 9.46864 546.663 9.94413 546.867 10.5205C547.084 11.0825 547.23 11.7453 547.302 12.509L545.211 13.071C545.168 12.4946 545.081 11.9686 544.95 11.4932C544.819 11.0033 544.586 10.6142 544.252 10.326C543.933 10.0234 543.469 9.87214 542.858 9.87214C542.248 9.87214 541.77 10.0378 541.421 10.3692C541.087 10.6862 540.919 11.1617 540.919 11.7958C540.919 12.3289 541.007 12.7684 541.181 13.1142C541.37 13.4601 541.668 13.8131 542.075 14.1733L545.059 16.767C545.727 17.3433 546.315 18.035 546.823 18.8419C547.331 19.6345 547.586 20.5782 547.586 21.6734C547.586 22.5379 547.404 23.2872 547.041 23.9212C546.678 24.5408 546.177 25.0163 545.538 25.3477C544.913 25.6791 544.187 25.8449 543.359 25.8449Z" fill="currentColor"/>
<path fill-rule="evenodd" clip-rule="evenodd" d="M548.47 37.9121L142.4 37.9121V36.4575L548.47 36.4576V37.9121Z" fill="currentColor"/>
<path d="M171.807 65.479V47.9717H179.257V50.3924H175.401V55.1259H178.669V57.6115H175.401V65.479H171.807Z" fill="currentColor"/>
<path d="M185.896 65.479V47.9717H189.469V65.479H185.896Z" fill="currentColor"/>
<path d="M196.963 65.479V47.9717H199.468L203.389 57.0928V47.9717H206.352V65.479H203.955L200.035 55.7959V65.479H196.963Z" fill="currentColor"/>
<path d="M212.945 65.479L216.365 47.9717H220.352L223.75 65.479H220.417L219.785 61.6317H216.997L216.322 65.479H212.945ZM217.324 59.4487H219.437L218.37 52.3809L217.324 59.4487Z" fill="currentColor"/>
<path d="M230.332 65.479V47.9717H233.927V63.0582H238.065V65.479H230.332Z" fill="currentColor"/>
<path d="M244.592 65.479V47.9717H248.164V65.479H244.592Z" fill="currentColor"/>
<path d="M260.233 65.7171C259.143 65.7171 258.236 65.5225 257.51 65.1335C256.784 64.73 256.232 64.1321 255.854 63.3395C255.491 62.5326 255.281 61.5095 255.223 60.2703L258.316 59.7516C258.345 60.4721 258.418 61.0772 258.534 61.5672C258.664 62.0427 258.853 62.4029 259.1 62.6479C259.361 62.8784 259.681 62.9937 260.059 62.9937C260.524 62.9937 260.835 62.8496 260.995 62.5615C261.169 62.2732 261.257 61.9418 261.257 61.5672C261.257 60.8323 261.075 60.2199 260.712 59.73C260.364 59.2257 259.899 58.7213 259.318 58.217L257.488 56.6392C256.834 56.0916 256.297 55.472 255.876 54.7804C255.47 54.0887 255.266 53.2386 255.266 52.2299C255.266 50.789 255.687 49.6867 256.53 48.923C257.386 48.1449 258.555 47.7559 260.037 47.7559C260.922 47.7559 261.649 47.8999 262.215 48.1881C262.781 48.4763 263.217 48.8654 263.522 49.3553C263.842 49.8308 264.059 50.3567 264.175 50.9331C264.306 51.4951 264.386 52.057 264.415 52.619L261.344 53.0729C261.314 52.5397 261.264 52.0714 261.191 51.6679C261.133 51.2645 261.002 50.9475 260.799 50.717C260.61 50.4864 260.32 50.3711 259.928 50.3711C259.507 50.3711 259.195 50.5296 258.991 50.8466C258.788 51.1492 258.686 51.4879 258.686 51.8625C258.686 52.4821 258.824 52.9936 259.1 53.3971C259.39 53.7861 259.782 54.1968 260.277 54.6291L262.063 56.1853C262.803 56.8193 263.435 57.547 263.958 58.3683C264.495 59.1752 264.764 60.1767 264.764 61.3727C264.764 62.194 264.575 62.9361 264.197 63.5989C263.82 64.2618 263.29 64.7804 262.607 65.1551C261.939 65.5297 261.147 65.7171 260.233 65.7171Z" fill="currentColor"/>
<path d="M273.104 65.479V50.6302H270.381V47.9717H279.399V50.6302H276.72V65.479H273.104Z" fill="currentColor"/>
<path d="M296.031 65.479V47.9717H300.497C301.266 47.9717 301.978 48.0365 302.632 48.1661C303.285 48.2958 303.859 48.5264 304.352 48.8578C304.861 49.1892 305.245 49.6504 305.507 50.2411C305.783 50.8175 305.921 51.574 305.921 52.5106C305.921 53.2166 305.819 53.8219 305.616 54.3262C305.413 54.8161 305.122 55.2051 304.744 55.4933C304.367 55.7815 303.902 55.976 303.35 56.0769C304.033 56.1778 304.606 56.4083 305.071 56.7686C305.536 57.1288 305.885 57.6043 306.117 58.1951C306.349 58.7859 306.465 59.4991 306.465 60.3349C306.465 61.2138 306.349 61.9775 306.117 62.6259C305.899 63.2744 305.572 63.8075 305.136 64.2254C304.701 64.6432 304.164 64.9603 303.524 65.1764C302.885 65.3782 302.145 65.479 301.303 65.479H296.031ZM299.625 62.9718H300.627C301.528 62.9718 302.145 62.7484 302.479 62.3017C302.827 61.855 303.002 61.185 303.002 60.2916C303.002 59.6 302.922 59.0524 302.762 58.649C302.602 58.2311 302.341 57.9285 301.978 57.7412C301.629 57.5395 301.158 57.4386 300.562 57.4386H299.625V62.9718ZM299.625 55.0395H300.519C301.143 55.0395 301.615 54.953 301.935 54.78C302.253 54.5928 302.472 54.3189 302.588 53.9587C302.718 53.5841 302.784 53.1302 302.784 52.5971C302.784 52.0639 302.69 51.6388 302.5 51.3218C302.327 50.9904 302.05 50.7526 301.673 50.6085C301.31 50.4645 300.845 50.3924 300.279 50.3924H299.625V55.0395Z" fill="currentColor"/>
<path d="M313.332 65.479V47.9717H321.022V50.4356H316.927V55.0827H320.085V57.5683H316.927V63.0582H321.066V65.479H313.332Z" fill="currentColor"/>
<path d="M332.251 65.7171C331.162 65.7171 330.253 65.5225 329.528 65.1335C328.801 64.73 328.25 64.1321 327.872 63.3395C327.509 62.5326 327.299 61.5095 327.24 60.2703L330.333 59.7516C330.363 60.4721 330.435 61.0772 330.552 61.5672C330.682 62.0427 330.871 62.4029 331.118 62.6479C331.379 62.8784 331.699 62.9937 332.076 62.9937C332.541 62.9937 332.853 62.8496 333.013 62.5615C333.188 62.2732 333.275 61.9418 333.275 61.5672C333.275 60.8323 333.093 60.2199 332.73 59.73C332.381 59.2257 331.917 58.7213 331.335 58.217L329.506 56.6392C328.853 56.0916 328.315 55.472 327.894 54.7804C327.487 54.0887 327.284 53.2386 327.284 52.2299C327.284 50.789 327.705 49.6867 328.547 48.923C329.404 48.1449 330.573 47.7559 332.054 47.7559C332.941 47.7559 333.666 47.8999 334.233 48.1881C334.799 48.4763 335.235 48.8654 335.54 49.3553C335.859 49.8308 336.077 50.3567 336.194 50.9331C336.324 51.4951 336.404 52.057 336.433 52.619L333.361 53.0729C333.333 52.5397 333.281 52.0714 333.209 51.6679C333.151 51.2645 333.02 50.9475 332.817 50.717C332.628 50.4864 332.338 50.3711 331.946 50.3711C331.524 50.3711 331.212 50.5296 331.009 50.8466C330.805 51.1492 330.704 51.4879 330.704 51.8625C330.704 52.4821 330.842 52.9936 331.118 53.3971C331.409 53.7861 331.801 54.1968 332.294 54.6291L334.08 56.1853C334.821 56.8193 335.452 57.547 335.976 58.3683C336.513 59.1752 336.781 60.1767 336.781 61.3727C336.781 62.194 336.593 62.9361 336.216 63.5989C335.837 64.2618 335.307 64.7804 334.625 65.1551C333.957 65.5297 333.166 65.7171 332.251 65.7171Z" fill="currentColor"/>
<path d="M345.121 65.479V50.6302H342.398V47.9717H351.417V50.6302H348.738V65.479H345.121Z" fill="currentColor"/>
<path d="M372.623 65.7171C371.534 65.7171 370.627 65.5225 369.9 65.1335C369.175 64.73 368.623 64.1321 368.245 63.3395C367.882 62.5326 367.671 61.5095 367.613 60.2703L370.706 59.7516C370.736 60.4721 370.808 61.0772 370.924 61.5672C371.055 62.0427 371.244 62.4029 371.491 62.6479C371.752 62.8784 372.071 62.9937 372.449 62.9937C372.913 62.9937 373.226 62.8496 373.385 62.5615C373.56 62.2732 373.647 61.9418 373.647 61.5672C373.647 60.8323 373.465 60.2199 373.103 59.73C372.754 59.2257 372.289 58.7213 371.708 58.217L369.879 56.6392C369.225 56.0916 368.688 55.472 368.266 54.7804C367.86 54.0887 367.657 53.2386 367.657 52.2299C367.657 50.789 368.078 49.6867 368.92 48.923C369.777 48.1449 370.946 47.7559 372.427 47.7559C373.313 47.7559 374.039 47.8999 374.606 48.1881C375.172 48.4763 375.608 48.8654 375.913 49.3553C376.232 49.8308 376.45 50.3567 376.566 50.9331C376.697 51.4951 376.777 52.057 376.806 52.619L373.734 53.0729C373.705 52.5397 373.654 52.0714 373.582 51.6679C373.524 51.2645 373.393 50.9475 373.19 50.717C373.001 50.4864 372.71 50.3711 372.318 50.3711C371.898 50.3711 371.585 50.5296 371.381 50.8466C371.178 51.1492 371.077 51.4879 371.077 51.8625C371.077 52.4821 371.214 52.9936 371.491 53.3971C371.781 53.7861 372.173 54.1968 372.667 54.6291L374.453 56.1853C375.194 56.8193 375.826 57.547 376.348 58.3683C376.885 59.1752 377.154 60.1767 377.154 61.3727C377.154 62.194 376.965 62.9361 376.588 63.5989C376.21 64.2618 375.68 64.7804 374.998 65.1551C374.33 65.5297 373.538 65.7171 372.623 65.7171Z" fill="currentColor"/>
<path d="M383.883 65.479V47.9717H387.455V65.479H383.883Z" fill="currentColor"/>
<path d="M396.606 65.479V50.6302H393.883V47.9717H402.901V50.6302H400.222V65.479H396.606Z" fill="currentColor"/>
<path d="M409.293 65.479V47.9717H416.983V50.4356H412.887V55.0827H416.046V57.5683H412.887V63.0582H417.027V65.479H409.293Z" fill="currentColor"/>
<path d="M433.875 65.479V47.9717H438.188C439.684 47.9717 440.846 48.1662 441.673 48.5552C442.516 48.9299 443.111 49.5278 443.459 50.3492C443.808 51.1561 443.983 52.1936 443.983 53.4616V59.8377C443.983 61.1346 443.808 62.2008 443.459 63.0366C443.111 63.8723 442.523 64.492 441.695 64.8954C440.882 65.2845 439.742 65.479 438.275 65.479H433.875ZM437.47 62.9934H438.232C438.9 62.9934 439.372 62.8925 439.648 62.6908C439.938 62.4747 440.12 62.1648 440.193 61.7614C440.265 61.3435 440.301 60.832 440.301 60.2268V53.0077C440.301 52.4025 440.25 51.9198 440.149 51.5596C440.061 51.1849 439.873 50.9112 439.582 50.7382C439.306 50.5653 438.849 50.4789 438.21 50.4789H437.47V62.9934Z" fill="currentColor"/>
<path d="M451.156 65.479V47.9717H458.845V50.4356H454.75V55.0827H457.909V57.5683H454.75V63.0582H458.889V65.479H451.156Z" fill="currentColor"/>
<path d="M470.074 65.7171C468.985 65.7171 468.078 65.5225 467.351 65.1335C466.625 64.73 466.074 64.1321 465.696 63.3395C465.333 62.5326 465.122 61.5095 465.064 60.2703L468.158 59.7516C468.186 60.4721 468.259 61.0772 468.375 61.5672C468.506 62.0427 468.695 62.4029 468.942 62.6479C469.203 62.8784 469.522 62.9937 469.9 62.9937C470.365 62.9937 470.677 62.8496 470.837 62.5615C471.011 62.2732 471.098 61.9418 471.098 61.5672C471.098 60.8323 470.916 60.2199 470.554 59.73C470.205 59.2257 469.74 58.7213 469.16 58.217L467.329 56.6392C466.676 56.0916 466.139 55.472 465.718 54.7804C465.311 54.0887 465.108 53.2386 465.108 52.2299C465.108 50.789 465.529 49.6867 466.371 48.923C467.228 48.1449 468.397 47.7559 469.879 47.7559C470.764 47.7559 471.49 47.8999 472.056 48.1881C472.623 48.4763 473.059 48.8654 473.364 49.3553C473.684 49.8308 473.901 50.3567 474.017 50.9331C474.148 51.4951 474.228 52.057 474.257 52.619L471.185 53.0729C471.156 52.5397 471.106 52.0714 471.033 51.6679C470.974 51.2645 470.844 50.9475 470.641 50.717C470.452 50.4864 470.162 50.3711 469.769 50.3711C469.348 50.3711 469.036 50.5296 468.833 50.8466C468.63 51.1492 468.528 51.4879 468.528 51.8625C468.528 52.4821 468.666 52.9936 468.942 53.3971C469.232 53.7861 469.624 54.1968 470.118 54.6291L471.904 56.1853C472.645 56.8193 473.277 57.547 473.799 58.3683C474.337 59.1752 474.606 60.1767 474.606 61.3727C474.606 62.194 474.416 62.9361 474.039 63.5989C473.661 64.2618 473.132 64.7804 472.448 65.1551C471.781 65.5297 470.989 65.7171 470.074 65.7171Z" fill="currentColor"/>
<path d="M481.332 65.479V47.9717H484.905V65.479H481.332Z" fill="currentColor"/>
<path d="M496.91 65.7387C495.719 65.7387 494.774 65.4937 494.077 65.0038C493.38 64.4995 492.88 63.7934 492.575 62.8856C492.284 61.9634 492.139 60.8972 492.139 59.6868V53.8294C492.139 52.5758 492.291 51.4951 492.596 50.5873C492.901 49.6795 493.432 48.9807 494.187 48.4907C494.956 48.0008 495.995 47.7559 497.302 47.7559C498.565 47.7559 499.56 47.9647 500.286 48.3826C501.027 48.8005 501.557 49.3913 501.876 50.155C502.196 50.9187 502.356 51.8265 502.356 52.8783V53.8942H498.848V52.6622C498.848 52.2011 498.819 51.7977 498.761 51.4519C498.703 51.0916 498.565 50.8106 498.347 50.6089C498.144 50.4071 497.81 50.3063 497.345 50.3063C496.866 50.3063 496.517 50.4287 496.3 50.6737C496.081 50.9187 495.944 51.2357 495.886 51.6247C495.828 51.9993 495.798 52.4028 495.798 52.8351V60.5945C495.798 61.0844 495.842 61.5239 495.929 61.913C496.016 62.302 496.176 62.6047 496.408 62.8208C496.655 63.0369 497.004 63.145 497.454 63.145C497.904 63.145 498.253 63.0297 498.499 62.7992C498.746 62.5687 498.914 62.2588 499.001 61.8697C499.103 61.4663 499.153 61.0124 499.153 60.5081V58.6493H497.432V56.4879H502.399V65.4793H500.046L499.828 63.9015C499.596 64.4346 499.248 64.8741 498.783 65.2199C498.318 65.5657 497.694 65.7387 496.91 65.7387Z" fill="currentColor"/>
<path d="M509.658 65.479V47.9717H512.164L516.085 57.0928V47.9717H519.047V65.479H516.651L512.73 55.7959V65.479H509.658Z" fill="currentColor"/>
<path d="M18.7157 5.44859C18.7157 5.44859 20.4167 5.90709 22.4019 4.02155C23.3146 3.05089 24.1227 1.99092 24.8136 0.858398C24.8136 0.858398 20.9379 1.41478 19.1159 3.64549C18.2682 4.67583 18.7157 5.44859 18.7157 5.44859Z" stroke="currentColor" stroke-width="1.30838" stroke-miterlimit="10"/>
<path d="M18.1936 8.3731C19.0455 8.50372 19.8771 8.73914 20.6687 9.07368C21.4059 9.37768 21.9325 9.6507 21.9325 9.6507C21.9325 9.6507 21.7376 9.7331 21.4059 9.84648C21.3469 9.86663 21.2834 9.88874 21.2157 9.9123C20.9028 10.0213 20.5 10.1615 20.0368 10.2844C19.4125 10.4492 18.7773 10.5714 18.1357 10.6501C17.4377 10.7546 16.7274 10.7546 16.0294 10.6501C15.547 10.5928 15.0982 10.3788 14.755 10.0423C14.6289 9.91405 14.5352 9.75877 14.4812 9.58888C14.2927 9.56357 14.1126 9.49659 13.9546 9.3931C13.5576 9.11586 13.2829 8.70161 13.1858 8.23397C13.0141 7.50714 12.9909 6.75437 13.1173 6.01874C13.2425 5.2898 13.4637 4.57981 13.7755 3.90653C14.0019 3.36662 14.2805 2.8491 14.6075 2.361C14.8551 1.98493 15.0288 1.76855 15.0288 1.76855C15.0288 1.76855 15.1552 2.36615 15.2921 3.16467C15.4583 4.03703 15.5761 4.91754 15.6449 5.80236C15.6753 6.38978 15.6275 6.97859 15.5028 7.55397C15.4189 7.9627 15.2864 8.36037 15.1078 8.73885C15.0154 8.93085 14.9042 9.11368 14.776 9.28496C14.9385 9.14132 15.1148 9.01368 15.3027 8.90372C15.6574 8.68976 16.0478 8.53812 16.4559 8.4555C17.0272 8.33899 17.6135 8.31121 18.1936 8.3731Z" stroke="currentColor" stroke-width="1.30838" stroke-miterlimit="10"/>
<path d="M10.3435 15.2708C10.433 15.0768 10.5035 14.875 10.5542 14.668C10.7832 13.6856 10.7633 12.6635 10.4963 11.6903C10.3909 11.2885 10.2383 10.8506 10.0802 10.4127C9.92227 9.9748 9.76959 9.55749 9.61684 9.17626C9.31141 8.42411 9.06396 7.85742 9.06396 7.85742C9.06396 7.85742 8.9428 8.10986 8.77428 8.52717C8.74592 8.60869 8.71337 8.69022 8.67973 8.77466C8.61984 8.92491 8.5563 9.08426 8.50572 9.26899C8.42678 9.55749 8.34776 9.88208 8.2793 10.2221C8.12596 10.9437 8.05362 11.6797 8.06337 12.4167C8.09496 13.1677 8.27373 13.9058 8.59001 14.5907C8.77883 15.0338 9.13542 15.3882 9.58525 15.5799C9.75164 15.6485 9.93143 15.6801 10.1118 15.6726C10.1965 15.8299 10.3195 15.9644 10.47 16.0641C10.8741 16.3294 11.3598 16.4496 11.8444 16.4042C12.549 16.3729 13.244 16.232 13.9033 15.9869C14.5227 15.7951 15.1236 15.5503 15.699 15.2553C15.957 15.1265 16.1887 14.9925 16.3941 14.8689L16.9523 14.5598C17.263 14.3795 17.4368 14.2611 17.4368 14.2611C17.4368 14.2611 16.868 14.0962 16.0782 13.9468C15.6885 13.8747 15.2356 13.8025 14.7933 13.7613C14.3655 13.7306 13.9361 13.7306 13.5084 13.7613C12.4988 13.78 11.5279 14.1445 10.7648 14.7917C10.6094 14.9381 10.4684 15.0986 10.3435 15.2708Z" stroke="currentColor" stroke-width="1.30838" stroke-miterlimit="10"/>
<path d="M5.25161 16.232C5.75019 16.965 6.20555 17.7253 6.61551 18.5091C6.88319 19.0366 7.07963 19.596 7.19999 20.1731C7.28692 20.5811 7.32225 20.9982 7.30531 21.4147C7.29586 21.6268 7.26412 21.8374 7.21054 22.0432C7.29894 21.8437 7.40837 21.6537 7.53701 21.4765C7.77852 21.143 8.07794 20.8535 8.42171 20.6213C8.90599 20.3031 9.43938 20.0631 10.0015 19.9104C10.8452 19.7041 11.7121 19.602 12.5818 19.6064C13.3822 19.6064 13.972 19.6424 13.972 19.6424C13.972 19.6424 13.8298 19.797 13.5613 20.034C13.3954 20.1803 13.1794 20.3581 12.9355 20.5588C12.7844 20.6831 12.6225 20.8163 12.4554 20.9561C11.9583 21.3548 11.4301 21.7148 10.8756 22.0328C10.267 22.3979 9.60452 22.669 8.91141 22.8366C8.44876 22.9726 7.95239 22.949 7.50542 22.7696C7.33683 22.6993 7.18723 22.5917 7.06834 22.4553C6.89514 22.4947 6.71497 22.4947 6.54176 22.4553C6.06006 22.3528 5.63636 22.0747 5.35693 21.6774C4.90846 21.0736 4.58634 20.389 4.40906 19.6631C4.10763 18.3689 4.07539 17.0286 4.31428 15.722C4.38273 15.2789 4.45119 15.0059 4.45119 15.0059C4.45119 15.0059 4.79874 15.5468 5.25161 16.232Z" stroke="currentColor" stroke-width="1.30838" stroke-miterlimit="10"/>
<path d="M5.13955 27.4618C4.90368 26.9191 4.5975 26.4084 4.22854 25.942C3.66609 25.262 3.06296 24.6152 2.42233 24.005C1.83254 23.4022 1.36914 22.9746 1.36914 22.9746V23.701C1.39224 24.2897 1.46445 24.8755 1.58505 25.4526C1.73029 26.1785 1.96548 26.8844 2.28541 27.5545C2.60366 28.234 3.05856 28.8437 3.62296 29.3473C3.98113 29.6764 4.4534 29.8604 4.94471 29.8625C5.1271 29.8622 5.30707 29.8217 5.4713 29.744C5.61689 29.8538 5.78619 29.9296 5.9663 29.9656C6.44075 30.0531 6.93157 29.9785 7.35648 29.7543C7.99879 29.452 8.59155 29.0579 9.11533 28.5849C9.60034 28.15 10.051 27.6799 10.4634 27.1785C10.5356 27.0892 10.6063 27.0021 10.6748 26.9177C10.9462 26.5837 11.1842 26.2908 11.3481 26.0605C11.5534 25.7721 11.6588 25.5917 11.6588 25.5917C11.6588 25.5917 11.0743 25.6638 10.3002 25.8287C9.45214 25.9965 8.62805 26.2646 7.84626 26.6272C7.32445 26.8952 6.84977 27.243 6.44023 27.6576C6.15159 27.9598 5.91825 28.3083 5.7504 28.6879C5.65949 28.8796 5.58891 29.0798 5.53976 29.2855C5.54642 29.0753 5.53408 28.865 5.5029 28.657C5.43459 28.245 5.31248 27.8433 5.13955 27.4618Z" stroke="currentColor" stroke-width="1.30838" stroke-miterlimit="10"/>
<path d="M3.42812 33.701C3.88538 34.0837 4.28907 34.5236 4.62876 35.0095C4.88159 35.3443 5.08541 35.7118 5.23434 36.1017C5.30202 36.3025 5.35655 36.5073 5.39759 36.7148C5.39911 36.5027 5.42741 36.2916 5.48184 36.0862C5.57624 35.6908 5.73255 35.3119 5.94524 34.9632C6.26419 34.4815 6.66079 34.0535 7.11956 33.6958C7.80951 33.1851 8.56118 32.7594 9.35756 32.4285C10.0842 32.1142 10.6425 31.9134 10.6425 31.9134C10.6425 31.9134 10.574 32.1092 10.4318 32.4285C10.2932 32.7398 10.0696 33.1687 9.81449 33.6577L9.79463 33.6958C9.19234 34.8868 8.33996 35.9401 7.29335 36.7869C6.92414 37.0945 6.45646 37.2658 5.97157 37.2712C5.78888 37.2734 5.6083 37.2328 5.44497 37.1526C5.30183 37.2632 5.13403 37.3391 4.95524 37.3742C4.4725 37.466 3.97212 37.3758 3.55451 37.1217C2.25382 36.416 1.29542 34.9889 0.747762 33.7062C0.506729 33.1734 0.311222 32.622 0.163241 32.0576C0.0526571 31.6249 0 31.3467 0 31.3467C0 31.3467 0.526593 31.6713 1.23749 32.1246C1.997 32.61 2.72834 33.1362 3.42812 33.701Z" stroke="currentColor" stroke-width="1.30838" stroke-miterlimit="10"/>
<path d="M6.4839 43.4528C5.91782 42.6142 5.14675 41.9272 4.24061 41.4539C3.43677 41.0268 2.60868 40.645 1.76036 40.3102C0.99153 40.0063 0.396484 39.795 0.396484 39.795C0.396484 39.795 0.496536 40.0578 0.696638 40.4596C0.951047 41.0001 1.25416 41.5173 1.60238 42.0051C1.80775 42.2936 2.02892 42.5822 2.27115 42.8655C2.53483 43.1469 2.81623 43.4118 3.1137 43.6589C3.67577 44.1662 4.34173 44.5508 5.06737 44.7871C5.52418 44.9633 6.03235 44.9633 6.48917 44.7871C6.65777 44.7168 6.80737 44.6093 6.92626 44.4728C7.09946 44.5122 7.27963 44.5122 7.45283 44.4728C7.92729 44.3717 8.35139 44.1132 8.65345 43.7413C9.11295 43.2112 9.49571 42.6219 9.79088 41.9897C9.93176 41.6923 10.0566 41.388 10.1648 41.0779C10.2859 40.779 10.386 40.4905 10.4702 40.2175C10.6334 39.6714 10.7546 39.1923 10.8283 38.8472C10.902 38.502 10.9336 38.2959 10.9336 38.2959C10.9336 38.2959 10.4176 38.5844 9.76985 39.0429C9.05813 39.5216 8.41061 40.0859 7.84248 40.7224C7.16792 41.4604 6.77212 42.4022 6.72088 43.3909C6.71231 43.6021 6.7318 43.8133 6.77879 44.0195C6.69193 43.8251 6.59349 43.6358 6.4839 43.4528Z" stroke="currentColor" stroke-width="1.30838" stroke-miterlimit="10"/>
<path d="M6.619 48.889C7.19314 49.0735 7.74427 49.3206 8.26197 49.6257C8.61996 49.8444 8.94745 50.1076 9.23617 50.4088C9.392 50.5652 9.52973 50.738 9.64686 50.9239C9.56388 50.7295 9.50041 50.5276 9.45731 50.3212C9.39325 49.9149 9.39325 49.5014 9.45731 49.0951C9.54439 48.5304 9.73533 47.9858 10.0207 47.4877C10.4509 46.7552 10.9689 46.0755 11.5637 45.4631C12.0903 44.8913 12.5537 44.5049 12.5537 44.5049V45.0664C12.5537 45.4167 12.5537 45.9062 12.4852 46.478C12.4059 47.8044 12.0473 49.1006 11.432 50.2852C11.2033 50.7118 10.8314 51.0483 10.3789 51.2382C10.2126 51.3073 10.0327 51.339 9.85224 51.3309C9.76208 51.4861 9.63806 51.6197 9.4889 51.7225C9.08349 51.9922 8.58771 52.0991 8.10394 52.0213C6.61372 51.8822 5.1761 50.9291 4.15452 49.9606C3.72146 49.551 3.31849 49.112 2.94862 48.6468C2.68005 48.2914 2.52734 48.0544 2.52734 48.0544C2.52734 48.0544 3.14873 48.1471 3.96494 48.2966C4.86137 48.4397 5.74778 48.6376 6.619 48.889Z" stroke="currentColor" stroke-width="1.30838" stroke-miterlimit="10"/>
<path d="M12.2271 56.1111C11.6598 55.9075 11.0691 55.7725 10.4683 55.7093C9.56317 55.6295 8.65377 55.6072 7.74576 55.6423C6.9032 55.6578 6.28711 55.6835 6.28711 55.6835C6.45073 55.8665 6.62665 56.0386 6.8137 56.1987C7.27379 56.5693 7.75558 56.9133 8.25657 57.229C8.89609 57.6238 9.57989 57.9454 10.2945 58.1872C11.0201 58.4303 11.7887 58.5267 12.5536 58.4706C13.041 58.4509 13.5024 58.25 13.8438 57.9091C13.9696 57.7778 14.0648 57.6214 14.1228 57.4505C14.3117 57.4302 14.4925 57.3648 14.6494 57.2599C15.0431 56.9806 15.3288 56.5795 15.4603 56.1214C15.678 55.4548 15.7933 54.7604 15.8026 54.0607C15.8273 53.4293 15.7991 52.7969 15.7184 52.17C15.6733 51.7007 15.5995 51.2345 15.4972 50.7739C15.4288 50.4339 15.3814 50.2227 15.3814 50.2227C15.3814 50.2227 15.0128 50.6966 14.6073 51.356C14.1516 52.0781 13.7823 52.8491 13.5067 53.6537C13.3344 54.1987 13.2597 54.7685 13.2855 55.3384C13.3008 55.7488 13.3899 56.1533 13.5488 56.5336C13.6322 56.7272 13.7326 56.9133 13.849 57.0899C13.6978 56.9389 13.5321 56.8026 13.354 56.6829C13.0019 56.4507 12.6239 56.2589 12.2271 56.1111Z" stroke="currentColor" stroke-width="1.30838" stroke-miterlimit="10"/>
<path d="M12.9759 62.0914C13.8554 61.8911 14.7472 61.7466 15.6457 61.6587C16.6718 61.5353 17.713 61.6663 18.6737 62.0399C18.8737 62.1213 19.0643 62.2231 19.2424 62.3439C19.0883 62.1859 18.9507 62.0133 18.8316 61.8288C18.2975 60.9916 18.0725 60.0007 18.1944 59.021C18.2975 58.1794 18.5026 57.3528 18.8053 56.5585C18.9369 56.1979 19.0686 55.8837 19.1634 55.6621L19.3266 55.3066L19.5636 55.8218C19.7058 56.1361 19.8796 56.6049 20.0586 57.1458C20.2704 57.7426 20.429 58.3562 20.5326 58.9798C20.6656 59.6588 20.694 60.3533 20.6168 61.0405C20.5863 61.5149 20.3891 61.9645 20.0586 62.313C19.9328 62.4437 19.7778 62.5442 19.6057 62.6066C19.5887 62.7898 19.5273 62.9664 19.4266 63.1218C19.1637 63.526 18.7532 63.817 18.2787 63.9358C17.5408 64.137 16.7693 64.193 16.0091 64.1007C15.2591 63.9997 14.5227 63.8183 13.8132 63.5597C13.2554 63.3441 12.712 63.0946 12.186 62.8127L11.7121 62.5448L11.5488 62.4367L12.9759 62.0914Z" stroke="currentColor" stroke-width="1.30838" stroke-miterlimit="10"/>
<path d="M21.9378 66.4207C22.918 66.1011 23.9639 66.025 24.9816 66.1992C25.1943 66.2415 25.4024 66.3036 25.603 66.3847C25.4141 66.2683 25.2377 66.1337 25.0764 65.9828C24.3793 65.2702 23.9552 64.3439 23.8758 63.3606C23.8026 62.5153 23.8327 61.6644 23.9653 60.826C24.0759 60.0635 24.2128 59.502 24.2128 59.502C24.2128 59.502 24.3496 59.6617 24.5497 59.9502C24.7498 60.2387 25.0185 60.6611 25.3134 61.1505C25.6398 61.6963 25.9215 62.2665 26.1559 62.8557C26.4335 63.4976 26.611 64.1767 26.6825 64.8701C26.7485 65.3409 26.6462 65.8195 26.3929 66.2249C26.2958 66.3775 26.1643 66.5061 26.0084 66.601C26.0252 66.7756 26.0018 66.9516 25.94 67.1162C25.7676 67.5673 25.4244 67.9363 24.9816 68.1465C24.3038 68.4844 23.565 68.6892 22.8067 68.7493C22.0526 68.8048 21.2944 68.7737 20.5477 68.6566C19.9554 68.5614 19.371 68.4236 18.7994 68.2444C18.357 68.1106 18.0938 68.0075 18.0938 68.0075C18.0938 68.0075 18.6625 67.7293 19.426 67.3944C20.2413 67.0179 21.0803 66.6927 21.9378 66.4207Z" stroke="currentColor" stroke-width="1.30838" stroke-miterlimit="10"/>
<path d="M30.4906 71.4452C30.4352 70.6004 30.1554 69.7843 29.6789 69.0778C29.2023 68.3713 28.5455 67.7986 27.7733 67.4165C22.0926 64.9698 17.1179 61.1877 13.2916 56.4065C9.4654 51.6252 6.90614 45.9931 5.84147 40.0107C4.77681 34.0285 5.23975 27.8815 7.18907 22.1165C9.13842 16.3515 12.5138 11.147 17.015 6.96604C17.3994 6.60542 18.3473 5.7863 18.7475 5.44629" stroke="currentColor" stroke-width="1.30838" stroke-miterlimit="10"/>
<path d="M93.9089 5.44859C93.9089 5.44859 92.2077 5.90709 90.2228 4.02155C89.3102 3.05089 88.5017 1.99092 87.8105 0.858398C87.8105 0.858398 91.6865 1.41478 93.5087 3.64549C94.356 4.67583 93.9089 5.44859 93.9089 5.44859Z" stroke="currentColor" stroke-width="1.30838" stroke-miterlimit="10"/>
<path d="M94.4296 8.3731C93.5779 8.50372 92.7467 8.73914 91.9551 9.07368C91.2177 9.37768 90.6914 9.6507 90.6914 9.6507C90.6914 9.6507 90.8856 9.7331 91.2177 9.84648C91.2763 9.86663 91.3401 9.88874 91.4075 9.9123C91.7205 10.0213 92.1236 10.1615 92.5869 10.2844C93.2114 10.4492 93.8461 10.5714 94.4875 10.6501C95.186 10.7546 95.8963 10.7546 96.5941 10.6501C97.0764 10.5928 97.5257 10.3788 97.8687 10.0423C97.9948 9.91405 98.0886 9.75877 98.1421 9.58888C98.3305 9.56357 98.5108 9.49659 98.6691 9.3931C99.0657 9.11586 99.3405 8.70161 99.438 8.23397C99.6095 7.50714 99.633 6.75437 99.5062 6.01874C99.3809 5.2898 99.1595 4.57981 98.848 3.90653C98.6215 3.36662 98.343 2.8491 98.0161 2.361C97.7683 1.98493 97.5946 1.76855 97.5946 1.76855C97.5946 1.76855 97.4685 2.36615 97.3314 3.16467C97.1651 4.03703 97.0478 4.91754 96.9789 5.80236C96.9481 6.38978 96.9958 6.97859 97.1211 7.55397C97.2047 7.9627 97.3373 8.36037 97.5154 8.73885C97.6085 8.93085 97.7192 9.11368 97.8475 9.28496C97.6855 9.14132 97.5088 9.01368 97.3212 8.90372C96.9664 8.68976 96.5758 8.53812 96.1675 8.4555C95.5965 8.33899 95.0101 8.31121 94.4296 8.3731Z" stroke="currentColor" stroke-width="1.30838" stroke-miterlimit="10"/>
<path d="M102.281 15.2708C102.192 15.0768 102.121 14.875 102.07 14.668C101.841 13.6856 101.861 12.6635 102.128 11.6903C102.234 11.2885 102.386 10.8506 102.544 10.4127C102.702 9.9748 102.855 9.55749 103.008 9.17626C103.313 8.42411 103.561 7.85742 103.561 7.85742C103.561 7.85742 103.682 8.10986 103.851 8.52717C103.878 8.60869 103.911 8.69022 103.945 8.77466C104.004 8.92491 104.068 9.08426 104.119 9.26899C104.198 9.55749 104.277 9.88208 104.345 10.2221C104.498 10.9437 104.571 11.6797 104.562 12.4167C104.529 13.1677 104.351 13.9058 104.035 14.5907C103.845 15.0338 103.489 15.3882 103.039 15.5799C102.873 15.6485 102.693 15.6801 102.513 15.6726C102.428 15.8299 102.305 15.9644 102.154 16.0641C101.751 16.3294 101.265 16.4496 100.78 16.4042C100.076 16.3729 99.3809 16.232 98.7212 15.9869C98.1018 15.7951 97.5008 15.5503 96.9254 15.2553C96.6674 15.1265 96.4358 14.9925 96.2305 14.8689L95.672 14.5598C95.3619 14.3795 95.1875 14.2611 95.1875 14.2611C95.1875 14.2611 95.7563 14.0962 96.5464 13.9468C96.9364 13.8747 97.3894 13.8025 97.8313 13.7613C98.2594 13.7306 98.6882 13.7306 99.1163 13.7613C100.126 13.78 101.097 14.1445 101.86 14.7917C102.015 14.9381 102.156 15.0986 102.281 15.2708Z" stroke="currentColor" stroke-width="1.30838" stroke-miterlimit="10"/>
<path d="M107.373 16.232C106.874 16.965 106.419 17.7253 106.009 18.5091C105.741 19.0366 105.545 19.596 105.424 20.1731C105.337 20.5811 105.302 20.9982 105.319 21.4147C105.328 21.6268 105.36 21.8374 105.414 22.0432C105.325 21.8437 105.216 21.6537 105.087 21.4765C104.846 21.143 104.546 20.8535 104.202 20.6213C103.718 20.3031 103.185 20.0631 102.623 19.9104C101.779 19.7041 100.912 19.602 100.043 19.6064C99.2424 19.6064 98.6523 19.6424 98.6523 19.6424C98.6523 19.6424 98.7945 19.797 99.0628 20.034C99.2292 20.1803 99.4447 20.3581 99.6888 20.5588C99.8398 20.6831 100.002 20.8163 100.169 20.9561C100.666 21.3548 101.194 21.7148 101.748 22.0328C102.358 22.3979 103.02 22.669 103.713 22.8366C104.175 22.9726 104.672 22.949 105.119 22.7696C105.287 22.6993 105.437 22.5917 105.556 22.4553C105.729 22.4947 105.91 22.4947 106.083 22.4553C106.564 22.3528 106.988 22.0747 107.267 21.6774C107.716 21.0736 108.038 20.389 108.215 19.6631C108.517 18.3689 108.549 17.0286 108.31 15.722C108.242 15.2789 108.173 15.0059 108.173 15.0059C108.173 15.0059 107.826 15.5468 107.373 16.232Z" stroke="currentColor" stroke-width="1.30838" stroke-miterlimit="10"/>
<path d="M107.484 27.4618C107.72 26.9191 108.026 26.4084 108.395 25.942C108.957 25.262 109.56 24.6152 110.201 24.005C110.791 23.4022 111.254 22.9746 111.254 22.9746V23.701C111.232 24.2897 111.159 24.8755 111.039 25.4526C110.893 26.1785 110.658 26.8844 110.338 27.5545C110.02 28.234 109.565 28.8437 109 29.3473C108.643 29.6764 108.17 29.8604 107.679 29.8625C107.496 29.8622 107.317 29.8217 107.153 29.744C107.007 29.8538 106.837 29.9296 106.657 29.9656C106.183 30.0531 105.692 29.9785 105.267 29.7543C104.625 29.452 104.032 29.0579 103.508 28.5849C103.023 28.15 102.573 27.6799 102.16 27.1785C102.089 27.0894 102.017 27.0025 101.949 26.9183L101.949 26.9177C101.677 26.5836 101.44 26.2909 101.276 26.0605C101.07 25.7721 100.965 25.5917 100.965 25.5917C100.965 25.5917 101.55 25.6638 102.324 25.8287C103.172 25.9965 103.996 26.2646 104.777 26.6272C105.299 26.8952 105.774 27.243 106.184 27.6576C106.472 27.9598 106.706 28.3083 106.873 28.6879C106.964 28.8796 107.035 29.0798 107.084 29.2855C107.077 29.0753 107.09 28.865 107.121 28.657C107.189 28.245 107.311 27.8433 107.484 27.4618Z" stroke="currentColor" stroke-width="1.30838" stroke-miterlimit="10"/>
<path d="M109.195 33.701C108.738 34.0837 108.334 34.5236 107.995 35.0095C107.742 35.3443 107.538 35.7118 107.389 36.1017C107.321 36.3025 107.267 36.5073 107.226 36.7148C107.224 36.5027 107.196 36.2916 107.141 36.0862C107.047 35.6908 106.891 35.3119 106.678 34.9632C106.359 34.4815 105.963 34.0535 105.504 33.6958C104.813 33.1851 104.062 32.7594 103.265 32.4285C102.539 32.1142 101.98 31.9134 101.98 31.9134C101.98 31.9134 102.049 32.1092 102.192 32.4285C102.33 32.7398 102.554 33.1687 102.809 33.6577L102.829 33.6958C103.431 34.8868 104.283 35.9401 105.33 36.7869C105.699 37.0945 106.167 37.2658 106.652 37.2712C106.834 37.2734 107.015 37.2328 107.178 37.1526C107.322 37.2632 107.49 37.3391 107.668 37.3742C108.151 37.466 108.651 37.3758 109.069 37.1217C110.369 36.416 111.328 34.9889 111.876 33.7062C112.117 33.1734 112.312 32.622 112.46 32.0576C112.571 31.6249 112.623 31.3467 112.623 31.3467C112.623 31.3467 112.097 31.6713 111.386 32.1246C110.626 32.61 109.895 33.1362 109.195 33.701Z" stroke="currentColor" stroke-width="1.30838" stroke-miterlimit="10"/>
<path d="M106.141 43.4528C106.707 42.6142 107.478 41.9272 108.384 41.4539C109.188 41.0268 110.017 40.645 110.865 40.3102C111.634 40.0063 112.229 39.795 112.229 39.795C112.229 39.795 112.129 40.0578 111.929 40.4596C111.674 41.0001 111.371 41.5173 111.023 42.0051C110.818 42.2936 110.596 42.5822 110.354 42.8655C110.091 43.1469 109.809 43.4118 109.512 43.6589C108.949 44.1662 108.284 44.5508 107.558 44.7871C107.101 44.9633 106.593 44.9633 106.136 44.7871C105.968 44.7168 105.818 44.6093 105.699 44.4728C105.526 44.5122 105.345 44.5122 105.172 44.4728C104.698 44.3717 104.274 44.1132 103.972 43.7413C103.512 43.2112 103.13 42.6219 102.834 41.9897C102.693 41.6923 102.569 41.388 102.46 41.0779C102.339 40.779 102.239 40.4905 102.155 40.2175C101.992 39.6714 101.871 39.1923 101.797 38.8472C101.723 38.5019 101.691 38.2959 101.691 38.2959C101.691 38.2959 102.207 38.5844 102.855 39.0429C103.567 39.5216 104.214 40.0859 104.782 40.7224C105.457 41.4604 105.853 42.4022 105.905 43.3909C105.913 43.6021 105.894 43.8133 105.847 44.0195C105.933 43.8251 106.031 43.6358 106.141 43.4528Z" stroke="currentColor" stroke-width="1.30838" stroke-miterlimit="10"/>
<path d="M106.005 48.889C105.431 49.0735 104.879 49.3206 104.362 49.6258C104.004 49.8444 103.677 50.1076 103.388 50.4088C103.232 50.5652 103.094 50.738 102.977 50.9239C103.06 50.7295 103.123 50.5276 103.166 50.3212C103.231 49.9149 103.231 49.5014 103.166 49.0951C103.079 48.5304 102.889 47.9858 102.603 47.4877C102.173 46.7552 101.655 46.0755 101.06 45.4631C100.534 44.8913 100.07 44.5049 100.07 44.5049V45.0664C100.07 45.4167 100.07 45.9062 100.138 46.478C100.218 47.8044 100.577 49.1006 101.192 50.2852C101.42 50.7118 101.793 51.0483 102.245 51.2382C102.411 51.3073 102.591 51.339 102.771 51.3309C102.861 51.4861 102.986 51.6197 103.135 51.7225C103.54 51.9922 104.036 52.0991 104.52 52.0213C106.01 51.8822 107.448 50.9291 108.469 49.9606C108.903 49.551 109.305 49.112 109.675 48.6468C109.944 48.2914 110.097 48.0544 110.097 48.0544C110.097 48.0544 109.475 48.1471 108.659 48.2966C107.762 48.4397 106.876 48.6376 106.005 48.889Z" stroke="currentColor" stroke-width="1.30838" stroke-miterlimit="10"/>
<path d="M100.396 56.1111C100.964 55.9075 101.554 55.7725 102.156 55.7093C103.061 55.6295 103.97 55.6072 104.878 55.6423C105.721 55.6578 106.336 55.6835 106.336 55.6835C106.173 55.8665 105.997 56.0386 105.81 56.1987C105.35 56.5693 104.868 56.9133 104.367 57.229C103.728 57.6238 103.044 57.9454 102.329 58.1872C101.604 58.4303 100.835 58.5267 100.07 58.4706C99.5828 58.4509 99.121 58.25 98.7802 57.9091C98.6541 57.7778 98.5588 57.6214 98.5009 57.4505C98.3118 57.4302 98.1315 57.3648 97.9746 57.26C97.5803 56.9806 97.2952 56.5795 97.1632 56.1214C96.9455 55.4548 96.8305 54.7604 96.8209 54.0607C96.7967 53.4293 96.8246 52.7969 96.9052 52.17C96.9507 51.7007 97.024 51.2345 97.1266 50.7739C97.1947 50.4339 97.2424 50.2227 97.2424 50.2227C97.2424 50.2227 97.6111 50.6966 98.0164 51.356C98.4723 52.0781 98.841 52.8491 99.1173 53.6537C99.2896 54.1986 99.3643 54.7685 99.338 55.3384C99.3226 55.7488 99.2339 56.1533 99.0748 56.5336C98.9913 56.7272 98.8909 56.9133 98.775 57.0899C98.926 56.9389 99.0917 56.8026 99.2698 56.6829C99.6216 56.4507 99.9998 56.2589 100.396 56.1111Z" stroke="currentColor" stroke-width="1.30838" stroke-miterlimit="10"/>
<path d="M99.6483 62.0914C98.7687 61.8911 97.8767 61.7466 96.9781 61.6587C95.9519 61.5353 94.9111 61.6663 93.9501 62.0399C93.75 62.1213 93.5595 62.2231 93.3813 62.3439C93.536 62.1859 93.6731 62.0133 93.7925 61.8288C94.3269 60.9916 94.5512 60.0007 94.4295 59.021C94.3261 58.1794 94.1216 57.3528 93.8189 56.5585C93.687 56.1979 93.5551 55.8837 93.4605 55.6621L93.297 55.3066L93.0603 55.8218C92.9181 56.1361 92.7444 56.6049 92.5655 57.1458C92.3537 57.7426 92.1954 58.3562 92.0913 58.9798C91.9586 59.6588 91.93 60.3533 92.007 61.0405C92.0378 61.5149 92.235 61.9645 92.5655 62.313C92.6909 62.4437 92.8463 62.5442 93.0185 62.6066C93.0354 62.7898 93.0969 62.9664 93.1974 63.1218C93.4605 63.526 93.871 63.817 94.3452 63.9358C95.0833 64.137 95.8544 64.193 96.6152 64.1007C97.3651 63.9997 98.101 63.8183 98.8105 63.5597C99.3683 63.3441 99.9122 63.0946 100.438 62.8127L100.912 62.5448L101.075 62.4367L99.6483 62.0914Z" stroke="currentColor" stroke-width="1.30838" stroke-miterlimit="10"/>
<path d="M90.686 66.4207C89.706 66.1012 88.6601 66.025 87.642 66.1992C87.4294 66.2415 87.2212 66.3036 87.0211 66.3847C87.2095 66.2683 87.3861 66.1337 87.5474 65.9828C88.2445 65.2702 88.6689 64.3439 88.748 63.3606C88.8213 62.5153 88.7913 61.6644 88.6586 60.826C88.5479 60.0635 88.4108 59.502 88.4108 59.502C88.4108 59.502 88.2745 59.6617 88.0744 59.9502C87.8743 60.2387 87.6053 60.6611 87.3106 61.1505C86.9837 61.6963 86.7023 62.2665 86.4677 62.8557C86.1907 63.4976 86.0125 64.1767 85.9414 64.8701C85.8755 65.3409 85.9774 65.8195 86.231 66.2249C86.3277 66.3775 86.4597 66.5061 86.6151 66.601C86.5989 66.7756 86.6224 66.9516 86.684 67.1162C86.8562 67.5673 87.1992 67.9363 87.642 68.1465C88.32 68.4844 89.0588 68.6892 89.8174 68.7493C90.5709 68.8048 91.3296 68.7737 92.0765 68.6566C92.6687 68.5614 93.2529 68.4236 93.8246 68.2444C94.2666 68.1106 94.5297 68.0075 94.5297 68.0075C94.5297 68.0075 93.9617 67.7293 93.1979 67.3944C92.3829 67.0179 91.5436 66.6927 90.686 66.4207Z" stroke="currentColor" stroke-width="1.30838" stroke-miterlimit="10"/>
<path d="M82.1328 71.4452C82.1878 70.6004 82.4678 69.7843 82.9442 69.0778C83.4207 68.3713 84.0774 67.7986 84.85 67.4165C90.5305 64.9698 95.5053 61.1877 99.3314 56.4065C103.158 51.6252 105.717 45.9931 106.781 40.0107C107.846 34.0285 107.383 27.8815 105.434 22.1165C103.484 16.3515 100.109 11.147 95.6079 6.96604C95.2238 6.60542 94.276 5.7863 93.8758 5.44629" stroke="currentColor" stroke-width="1.30838" stroke-miterlimit="10"/>
<path d="M56.3109 9.68164C42.4554 9.68164 31.1191 21.0952 31.1191 35.045C31.1191 48.9948 42.4554 60.4083 56.3109 60.4083C70.1665 60.4083 81.5028 48.9948 81.5028 35.045C81.5028 21.0952 70.1665 9.68164 56.3109 9.68164ZM42.2755 49.176C38.4967 45.3715 36.5174 40.2988 36.5174 35.4073L56.131 54.9734C51.0926 54.7922 46.0543 52.9805 42.2755 49.176ZM60.6295 54.4299L37.0572 30.697C39.0365 21.8198 46.954 15.1166 56.3109 15.1166C62.9688 15.1166 68.7269 18.3776 72.3257 23.2691L69.6266 25.6243C66.5676 21.4575 61.7092 18.74 56.3109 18.74C49.2932 18.74 43.3552 23.2691 41.0159 29.61L61.7092 50.4442C66.9275 48.6325 70.8862 44.1033 72.1458 38.6683H63.5086V35.045H76.1045C76.1045 44.4657 69.4467 52.437 60.6295 54.4299Z" fill="currentColor"/>
</g>
<defs>
<clipPath id="clip0_3576_95882">
<rect width="549" height="72" fill="white"/>
</clipPath>
</defs>
</svg>
