<svg width="549" height="72" viewBox="0 0 549 72" fill="none" xmlns="http://www.w3.org/2000/svg">
<g clip-path="url(#clip0_3576_95809)">
<path d="M19.4481 5.44811C19.4481 5.44811 21.1491 5.9066 23.1343 4.02107C24.047 3.0504 24.8552 1.99043 25.5461 0.85791C25.5461 0.85791 21.6704 1.4143 19.8483 3.645C19.0006 4.67534 19.4481 5.44811 19.4481 5.44811Z" stroke="currentColor" stroke-width="1.30838" stroke-miterlimit="10"/>
<path d="M18.926 8.3731C19.7779 8.50372 20.6095 8.73914 21.4011 9.07368C22.1383 9.37768 22.6649 9.6507 22.6649 9.6507C22.6649 9.6507 22.4701 9.7331 22.1383 9.84648C22.0793 9.86663 22.0158 9.88874 21.9481 9.9123C21.6352 10.0213 21.2324 10.1615 20.7692 10.2844C20.1449 10.4492 19.5097 10.5714 18.8681 10.6501C18.1701 10.7546 17.4599 10.7546 16.7618 10.6501C16.2794 10.5928 15.8306 10.3788 15.4874 10.0423C15.3614 9.91405 15.2676 9.75877 15.2136 9.58888C15.0251 9.56357 14.845 9.49659 14.687 9.3931C14.29 9.11586 14.0153 8.70161 13.9182 8.23397C13.7465 7.50714 13.7233 6.75437 13.8497 6.01874C13.9749 5.2898 14.1961 4.57981 14.5079 3.90653C14.7344 3.36662 15.013 2.8491 15.3399 2.361C15.5875 1.98493 15.7613 1.76855 15.7613 1.76855C15.7613 1.76855 15.8876 2.36615 16.0246 3.16467C16.1907 4.03703 16.3085 4.91754 16.3773 5.80236C16.4077 6.38978 16.36 6.97859 16.2352 7.55397C16.1514 7.9627 16.0188 8.36037 15.8402 8.73885C15.7478 8.93085 15.6367 9.11368 15.5085 9.28496C15.6709 9.14132 15.8472 9.01368 16.0351 8.90372C16.3899 8.68976 16.7802 8.53812 17.1883 8.4555C17.7596 8.33899 18.346 8.31121 18.926 8.3731Z" stroke="currentColor" stroke-width="1.30838" stroke-miterlimit="10"/>
<path d="M11.0759 15.2708C11.1654 15.0768 11.2359 14.875 11.2866 14.668C11.5157 13.6856 11.4957 12.6635 11.2287 11.6903C11.1234 11.2885 10.9707 10.8506 10.8127 10.4127C10.6547 9.9748 10.502 9.55749 10.3493 9.17626C10.0438 8.42411 9.79638 7.85742 9.79638 7.85742C9.79638 7.85742 9.67522 8.10986 9.50671 8.52717C9.47834 8.60869 9.44579 8.69022 9.41215 8.77466C9.35227 8.92491 9.28872 9.08426 9.23814 9.26899C9.1592 9.55749 9.08019 9.88208 9.01173 10.2221C8.85839 10.9437 8.78604 11.6797 8.79579 12.4167C8.82738 13.1677 9.00615 13.9058 9.32243 14.5907C9.51125 15.0338 9.86784 15.3882 10.3177 15.5799C10.4841 15.6485 10.6639 15.6801 10.8442 15.6726C10.9289 15.8299 11.0519 15.9644 11.2024 16.0641C11.6065 16.3294 12.0922 16.4496 12.5768 16.4042C13.2814 16.3729 13.9764 16.232 14.6357 15.9869C15.2551 15.7951 15.856 15.5503 16.4314 15.2553C16.6894 15.1265 16.9211 14.9925 17.1265 14.8689L17.6847 14.5598C17.9954 14.3795 18.1692 14.2611 18.1692 14.2611C18.1692 14.2611 17.6005 14.0962 16.8106 13.9468C16.4209 13.8747 15.968 13.8025 15.5257 13.7613C15.0979 13.7306 14.6685 13.7306 14.2408 13.7613C13.2312 13.78 12.2603 14.1445 11.4973 14.7917C11.3419 14.9381 11.2008 15.0986 11.0759 15.2708Z" stroke="currentColor" stroke-width="1.30838" stroke-miterlimit="10"/>
<path d="M5.98403 16.2325C6.48262 16.9655 6.93798 17.7258 7.34793 18.5095C7.61561 19.0371 7.81205 19.5965 7.93241 20.1735C8.01934 20.5816 8.05467 20.9986 8.03774 21.4151C8.02828 21.6273 7.99654 21.8379 7.94296 22.0437C8.03136 21.8442 8.14079 21.6542 8.26943 21.477C8.51095 21.1434 8.81037 20.854 9.15413 20.6218C9.63841 20.3036 10.1718 20.0636 10.7339 19.9109C11.5776 19.7046 12.4445 19.6025 13.3142 19.6069C14.1146 19.6069 14.7044 19.6429 14.7044 19.6429C14.7044 19.6429 14.5623 19.7975 14.2937 20.0345C14.1278 20.1808 13.9118 20.3586 13.6679 20.5593C13.5168 20.6836 13.355 20.8167 13.1879 20.9566C12.6907 21.3553 12.1626 21.7153 11.6081 22.0333C10.9994 22.3984 10.3369 22.6695 9.64384 22.837C9.18118 22.9731 8.68481 22.9495 8.23784 22.7701C8.06925 22.6998 7.91965 22.5922 7.80076 22.4558C7.62756 22.4951 7.4474 22.4951 7.27419 22.4558C6.79248 22.3533 6.36878 22.0751 6.08935 21.6779C5.64089 21.0741 5.31876 20.3895 5.14148 19.6636C4.84005 18.3694 4.80781 17.0291 5.0467 15.7225C5.11515 15.2794 5.18361 15.0063 5.18361 15.0063C5.18361 15.0063 5.53116 15.5473 5.98403 16.2325Z" stroke="currentColor" stroke-width="1.30838" stroke-miterlimit="10"/>
<path d="M5.87197 27.4618C5.6361 26.9191 5.32992 26.4084 4.96097 25.942C4.39852 25.262 3.79539 24.6152 3.15475 24.005C2.56497 23.4022 2.10156 22.9746 2.10156 22.9746V23.701C2.12467 24.2897 2.19687 24.8755 2.31747 25.4526C2.46272 26.1785 2.69791 26.8844 3.01784 27.5545C3.33608 28.234 3.79098 28.8437 4.35538 29.3473C4.71355 29.6764 5.18582 29.8604 5.67713 29.8625C5.85952 29.8622 6.03949 29.8217 6.20372 29.744C6.34931 29.8538 6.51862 29.9296 6.69872 29.9656C7.17317 30.0531 7.664 29.9785 8.0889 29.7543C8.73121 29.452 9.32397 29.0579 9.84776 28.5849C10.3328 28.15 10.7834 27.6799 11.1958 27.1785C11.268 27.0892 11.3387 27.0021 11.4072 26.9177C11.6786 26.5837 11.9166 26.2908 12.0805 26.0605C12.2859 25.7721 12.3912 25.5917 12.3912 25.5917C12.3912 25.5917 11.8067 25.6638 11.0326 25.8287C10.1846 25.9965 9.36047 26.2646 8.57868 26.6272C8.05687 26.8952 7.5822 27.243 7.17265 27.6576C6.88401 27.9598 6.65067 28.3083 6.48282 28.6879C6.39191 28.8796 6.32134 29.0798 6.27218 29.2855C6.27884 29.0753 6.2665 28.865 6.23532 28.657C6.16701 28.245 6.0449 27.8433 5.87197 27.4618Z" stroke="currentColor" stroke-width="1.30838" stroke-miterlimit="10"/>
<path d="M4.16054 33.7015C4.6178 34.0842 5.02149 34.5241 5.36118 35.01C5.61401 35.3448 5.81783 35.7123 5.96676 36.1022C6.03444 36.303 6.08897 36.5078 6.13001 36.7152C6.13153 36.5032 6.15983 36.292 6.21426 36.0867C6.30866 35.6912 6.46497 35.3124 6.67766 34.9637C6.99662 34.482 7.39321 34.054 7.85198 33.6963C8.54193 33.1856 9.2936 32.7599 10.09 32.429C10.8167 32.1147 11.3749 31.9139 11.3749 31.9139C11.3749 31.9139 11.3064 32.1096 11.1642 32.429C11.0256 32.7403 10.802 33.1692 10.5469 33.6582L10.5271 33.6963C9.92477 34.8873 9.07239 35.9406 8.02577 36.7874C7.65657 37.095 7.18888 37.2663 6.70399 37.2717C6.5213 37.2739 6.34073 37.2333 6.1774 37.1531C6.03425 37.2637 5.86645 37.3396 5.68766 37.3747C5.20492 37.4665 4.70454 37.3763 4.28693 37.1222C2.98624 36.4165 2.02784 34.9894 1.48018 33.7067C1.23915 33.1739 1.04364 32.6224 0.895663 32.0581C0.785079 31.6254 0.732422 31.3472 0.732422 31.3472C0.732422 31.3472 1.25901 31.6717 1.96991 32.1251C2.72943 32.6104 3.46076 33.1367 4.16054 33.7015Z" stroke="currentColor" stroke-width="1.30838" stroke-miterlimit="10"/>
<path d="M7.21632 43.4523C6.65024 42.6137 5.87918 41.9267 4.97303 41.4534C4.16919 41.0263 3.3411 40.6445 2.49278 40.3097C1.72395 40.0058 1.12891 39.7945 1.12891 39.7945C1.12891 39.7945 1.22896 40.0573 1.42906 40.4591C1.68347 40.9996 1.98658 41.5168 2.3348 42.0046C2.54017 42.2932 2.76134 42.5817 3.00358 42.865C3.26726 43.1464 3.54865 43.4113 3.84613 43.6584C4.40819 44.1657 5.07416 44.5503 5.79979 44.7866C6.2566 44.9628 6.76477 44.9628 7.22159 44.7866C7.39019 44.7164 7.53979 44.6088 7.65868 44.4724C7.83189 44.5117 8.01205 44.5117 8.18525 44.4724C8.65971 44.3712 9.08381 44.1127 9.38587 43.7408C9.84537 43.2108 10.2281 42.6214 10.5233 41.9892C10.6642 41.6918 10.789 41.3875 10.8972 41.0774C11.0184 40.7785 11.1184 40.49 11.2026 40.217C11.3659 39.6709 11.487 39.1918 11.5607 38.8467C11.6344 38.5015 11.666 38.2954 11.666 38.2954C11.666 38.2954 11.15 38.5839 10.5023 39.0424C9.79055 39.5212 9.14304 40.0854 8.5749 40.7219C7.90035 41.4599 7.50454 42.4017 7.4533 43.3905C7.44473 43.6016 7.46422 43.8128 7.51121 44.019C7.42435 43.8246 7.32591 43.6353 7.21632 43.4523Z" stroke="currentColor" stroke-width="1.30838" stroke-miterlimit="10"/>
<path d="M7.35142 48.889C7.92556 49.0735 8.47669 49.3206 8.99439 49.6257C9.35238 49.8444 9.67987 50.1076 9.96859 50.4088C10.1244 50.5652 10.2621 50.738 10.3793 50.9239C10.2963 50.7295 10.2328 50.5276 10.1897 50.3212C10.1257 49.9149 10.1257 49.5014 10.1897 49.0951C10.2768 48.5304 10.4677 47.9858 10.7532 47.4877C11.1834 46.7552 11.7013 46.0755 12.2961 45.4631C12.8227 44.8913 13.2861 44.5049 13.2861 44.5049V45.0664C13.2861 45.4167 13.2861 45.9062 13.2177 46.478C13.1383 47.8044 12.7797 49.1006 12.1644 50.2852C11.9358 50.7118 11.5638 51.0483 11.1113 51.2382C10.9451 51.3073 10.7651 51.339 10.5847 51.3309C10.4945 51.4861 10.3705 51.6197 10.2213 51.7225C9.81591 51.9922 9.32013 52.0991 8.83636 52.0213C7.34615 51.8822 5.90853 50.9291 4.88694 49.9606C4.45388 49.551 4.05091 49.112 3.68104 48.6468C3.41247 48.2914 3.25977 48.0544 3.25977 48.0544C3.25977 48.0544 3.88115 48.1471 4.69736 48.2966C5.59379 48.4397 6.4802 48.6376 7.35142 48.889Z" stroke="currentColor" stroke-width="1.30838" stroke-miterlimit="10"/>
<path d="M12.9595 56.1106C12.3922 55.907 11.8015 55.7721 11.2007 55.7088C10.2956 55.629 9.38619 55.6067 8.47818 55.6418C7.63562 55.6573 7.01953 55.683 7.01953 55.683C7.18315 55.866 7.35907 56.0381 7.54612 56.1982C8.00621 56.5688 8.488 56.9128 8.98899 57.2285C9.62851 57.6233 10.3123 57.9449 11.0269 58.1868C11.7525 58.4298 12.5211 58.5262 13.286 58.4701C13.7734 58.4504 14.2348 58.2495 14.5762 57.9086C14.702 57.7773 14.7972 57.6209 14.8552 57.45C15.0441 57.4297 15.2249 57.3643 15.3818 57.2594C15.7755 56.9801 16.0613 56.579 16.1928 56.1209C16.4104 55.4543 16.5257 54.7599 16.5351 54.0602C16.5597 53.4288 16.5315 52.7964 16.4508 52.1695C16.4058 51.7002 16.332 51.234 16.2296 50.7734C16.1612 50.4334 16.1138 50.2222 16.1138 50.2222C16.1138 50.2222 15.7452 50.6961 15.3397 51.3555C14.884 52.0777 14.5148 52.8486 14.2392 53.6532C14.0668 54.1982 13.9921 54.7681 14.0179 55.3379C14.0332 55.7483 14.1223 56.1529 14.2812 56.5331C14.3646 56.7267 14.465 56.9129 14.5814 57.0894C14.4302 56.9385 14.2645 56.8021 14.0864 56.6825C13.7344 56.4502 13.3563 56.2584 12.9595 56.1106Z" stroke="currentColor" stroke-width="1.30838" stroke-miterlimit="10"/>
<path d="M13.7084 62.091C14.5879 61.8907 15.4796 61.7461 16.3782 61.6582C17.4042 61.5348 18.4454 61.6659 19.4061 62.0395C19.6061 62.1208 19.7968 62.2227 19.9748 62.3434C19.8207 62.1854 19.6831 62.0128 19.564 61.8283C19.0299 60.9911 18.805 60.0002 18.9269 59.0206C19.0299 58.1789 19.235 57.3523 19.5377 56.558C19.6694 56.1974 19.801 55.8832 19.8958 55.6616L20.059 55.3062L20.296 55.8214C20.4382 56.1356 20.612 56.6044 20.791 57.1453C21.0028 57.7422 21.1614 58.3558 21.265 58.9793C21.398 59.6583 21.4265 60.3528 21.3492 61.04C21.3187 61.5144 21.1215 61.964 20.791 62.3125C20.6652 62.4432 20.5102 62.5438 20.3381 62.6062C20.3211 62.7894 20.2597 62.9659 20.1591 63.1214C19.8961 63.5255 19.4856 63.8166 19.0112 63.9353C18.2732 64.1366 17.5017 64.1926 16.7415 64.1002C15.9915 63.9992 15.2551 63.8178 14.5456 63.5592C13.9878 63.3436 13.4444 63.0941 12.9184 62.8122L12.4445 62.5443L12.2812 62.4362L13.7084 62.091Z" stroke="currentColor" stroke-width="1.30838" stroke-miterlimit="10"/>
<path d="M22.6703 66.4202C23.6504 66.1006 24.6964 66.0245 25.714 66.1987C25.9267 66.241 26.1348 66.3031 26.3354 66.3842C26.1466 66.2678 25.9701 66.1332 25.8088 65.9823C25.1117 65.2697 24.6876 64.3434 24.6082 63.3601C24.535 62.5148 24.5651 61.6639 24.6977 60.8255C24.8083 60.063 24.9452 59.5015 24.9452 59.5015C24.9452 59.5015 25.0821 59.6612 25.2822 59.9497C25.4823 60.2382 25.7509 60.6606 26.0458 61.15C26.3722 61.6958 26.6539 62.266 26.8883 62.8552C27.1659 63.4971 27.3434 64.1762 27.4149 64.8696C27.4809 65.3404 27.3786 65.819 27.1253 66.2245C27.0282 66.377 26.8967 66.5056 26.7409 66.6005C26.7576 66.7751 26.7343 66.9512 26.6724 67.1157C26.5 67.5669 26.1568 67.9358 25.714 68.1461C25.0362 68.4839 24.2974 68.6887 23.5391 68.7488C22.7851 68.8043 22.0269 68.7732 21.2801 68.6561C20.6878 68.5609 20.1035 68.4232 19.5318 68.244C19.0895 68.1101 18.8262 68.007 18.8262 68.007C18.8262 68.007 19.3949 67.7288 20.1584 67.3939C20.9737 67.0174 21.8127 66.6922 22.6703 66.4202Z" stroke="currentColor" stroke-width="1.30838" stroke-miterlimit="10"/>
<path d="M31.223 71.4447C31.1676 70.5999 30.8879 69.7839 30.4113 69.0773C29.9347 68.3708 29.2779 67.7981 28.5058 67.416C22.825 64.9693 17.8503 61.1872 14.024 56.406C10.1978 51.6247 7.63856 45.9926 6.57389 40.0103C5.50923 34.028 5.97217 27.881 7.92149 22.116C9.87085 16.351 13.2462 11.1465 17.7474 6.96555C18.1319 6.60494 19.0798 5.78582 19.48 5.4458" stroke="currentColor" stroke-width="1.30838" stroke-miterlimit="10"/>
<path d="M94.6413 5.44811C94.6413 5.44811 92.9401 5.9066 90.9552 4.02107C90.0426 3.0504 89.2342 1.99043 88.543 0.85791C88.543 0.85791 92.419 1.4143 94.2411 3.645C95.0885 4.67534 94.6413 5.44811 94.6413 5.44811Z" stroke="currentColor" stroke-width="1.30838" stroke-miterlimit="10"/>
<path d="M95.162 8.3731C94.3103 8.50372 93.4791 8.73914 92.6875 9.07368C91.9501 9.37768 91.4238 9.6507 91.4238 9.6507C91.4238 9.6507 91.6181 9.7331 91.9501 9.84648C92.0087 9.86663 92.0725 9.88874 92.14 9.9123C92.4529 10.0213 92.8561 10.1615 93.3193 10.2844C93.9438 10.4492 94.5786 10.5714 95.2199 10.6501C95.9185 10.7546 96.6287 10.7546 97.3265 10.6501C97.8088 10.5928 98.2581 10.3788 98.6011 10.0423C98.7272 9.91405 98.821 9.75877 98.8745 9.58888C99.0629 9.56357 99.2432 9.49659 99.4016 9.3931C99.7981 9.11586 100.073 8.70161 100.17 8.23397C100.342 7.50714 100.365 6.75437 100.239 6.01874C100.113 5.2898 99.8919 4.57981 99.5804 3.90653C99.3539 3.36662 99.0754 2.8491 98.7485 2.361C98.5007 1.98493 98.327 1.76855 98.327 1.76855C98.327 1.76855 98.2009 2.36615 98.0639 3.16467C97.8975 4.03703 97.7802 4.91754 97.7113 5.80236C97.6805 6.38978 97.7282 6.97859 97.8535 7.55397C97.9371 7.9627 98.0697 8.36037 98.2479 8.73885C98.3409 8.93085 98.4516 9.11368 98.5799 9.28496C98.4179 9.14132 98.2413 9.01368 98.0536 8.90372C97.6989 8.68976 97.3082 8.53812 96.8999 8.4555C96.3289 8.33899 95.7425 8.31121 95.162 8.3731Z" stroke="currentColor" stroke-width="1.30838" stroke-miterlimit="10"/>
<path d="M103.014 15.2708C102.924 15.0768 102.853 14.875 102.803 14.668C102.574 13.6856 102.594 12.6635 102.86 11.6903C102.966 11.2885 103.118 10.8506 103.277 10.4127C103.434 9.9748 103.588 9.55749 103.74 9.17626C104.046 8.42411 104.293 7.85742 104.293 7.85742C104.293 7.85742 104.414 8.10986 104.583 8.52717C104.611 8.60869 104.644 8.69022 104.678 8.77466C104.737 8.92491 104.801 9.08426 104.851 9.26899C104.93 9.55749 105.01 9.88208 105.078 10.2221C105.231 10.9437 105.303 11.6797 105.294 12.4167C105.262 13.1677 105.084 13.9058 104.767 14.5907C104.578 15.0338 104.222 15.3882 103.772 15.5799C103.605 15.6485 103.426 15.6801 103.245 15.6726C103.16 15.8299 103.038 15.9644 102.887 16.0641C102.483 16.3294 101.997 16.4496 101.513 16.4042C100.808 16.3729 100.113 16.232 99.4536 15.9869C98.8342 15.7951 98.2332 15.5503 97.6578 15.2553C97.3998 15.1265 97.1682 14.9925 96.9629 14.8689L96.4044 14.5598C96.0944 14.3795 95.9199 14.2611 95.9199 14.2611C95.9199 14.2611 96.4887 14.0962 97.2789 13.9468C97.6688 13.8747 98.1218 13.8025 98.5638 13.7613C98.9918 13.7306 99.4206 13.7306 99.8487 13.7613C100.858 13.78 101.829 14.1445 102.592 14.7917C102.748 14.9381 102.888 15.0986 103.014 15.2708Z" stroke="currentColor" stroke-width="1.30838" stroke-miterlimit="10"/>
<path d="M108.105 16.2325C107.607 16.9655 107.151 17.7258 106.741 18.5095C106.473 19.0371 106.277 19.5965 106.157 20.1735C106.07 20.5816 106.034 20.9986 106.051 21.4151C106.061 21.6273 106.092 21.8379 106.146 22.0437C106.058 21.8442 105.949 21.6542 105.82 21.477C105.578 21.1434 105.279 20.854 104.935 20.6218C104.45 20.3036 103.917 20.0636 103.355 19.9109C102.512 19.7046 101.645 19.6025 100.775 19.6069C99.9748 19.6069 99.3848 19.6429 99.3848 19.6429C99.3848 19.6429 99.527 19.7975 99.7952 20.0345C99.9616 20.1808 100.177 20.3586 100.421 20.5593C100.572 20.6836 100.734 20.8167 100.901 20.9566C101.398 21.3553 101.927 21.7153 102.481 22.0333C103.09 22.3984 103.753 22.6695 104.445 22.837C104.908 22.9731 105.404 22.9495 105.851 22.7701C106.02 22.6998 106.169 22.5922 106.289 22.4558C106.462 22.4951 106.642 22.4951 106.815 22.4558C107.297 22.3533 107.72 22.0751 107.999 21.6779C108.448 21.0741 108.771 20.3895 108.948 19.6636C109.249 18.3694 109.281 17.0291 109.042 15.7225C108.974 15.2794 108.905 15.0063 108.905 15.0063C108.905 15.0063 108.558 15.5473 108.105 16.2325Z" stroke="currentColor" stroke-width="1.30838" stroke-miterlimit="10"/>
<path d="M108.216 27.4618C108.452 26.9191 108.759 26.4084 109.127 25.942C109.69 25.262 110.293 24.6152 110.934 24.005C111.524 23.4022 111.987 22.9746 111.987 22.9746V23.701C111.964 24.2897 111.892 24.8755 111.771 25.4526C111.625 26.1785 111.391 26.8844 111.071 27.5545C110.752 28.234 110.297 28.8437 109.733 29.3473C109.375 29.6764 108.902 29.8604 108.411 29.8625C108.229 29.8622 108.049 29.8217 107.885 29.744C107.739 29.8538 107.57 29.9296 107.39 29.9656C106.915 30.0531 106.424 29.9785 106 29.7543C105.357 29.452 104.765 29.0579 104.241 28.5849C103.755 28.15 103.305 27.6799 102.893 27.1785C102.821 27.0894 102.75 27.0025 102.682 26.9183L102.681 26.9177C102.41 26.5836 102.172 26.2909 102.008 26.0605C101.803 25.7721 101.697 25.5917 101.697 25.5917C101.697 25.5917 102.282 25.6638 103.056 25.8287C103.904 25.9965 104.728 26.2646 105.509 26.6272C106.031 26.8952 106.506 27.243 106.916 27.6576C107.204 27.9598 107.438 28.3083 107.606 28.6879C107.697 28.8796 107.767 29.0798 107.816 29.2855C107.81 29.0753 107.822 28.865 107.854 28.657C107.922 28.245 108.043 27.8433 108.216 27.4618Z" stroke="currentColor" stroke-width="1.30838" stroke-miterlimit="10"/>
<path d="M109.928 33.7015C109.47 34.0842 109.066 34.5241 108.727 35.01C108.474 35.3448 108.27 35.7123 108.122 36.1022C108.053 36.303 107.999 36.5078 107.958 36.7152C107.957 36.5032 107.928 36.292 107.874 36.0867C107.779 35.6912 107.623 35.3124 107.411 34.9637C107.092 34.482 106.695 34.054 106.236 33.6963C105.546 33.1856 104.795 32.7599 103.998 32.429C103.271 32.1147 102.713 31.9139 102.713 31.9139C102.713 31.9139 102.782 32.1096 102.924 32.429C103.063 32.7403 103.286 33.1692 103.541 33.6582L103.561 33.6963C104.163 34.8873 105.016 35.9406 106.063 36.7874C106.431 37.095 106.899 37.2663 107.384 37.2717C107.567 37.2739 107.748 37.2333 107.91 37.1531C108.054 37.2637 108.222 37.3396 108.401 37.3747C108.883 37.4665 109.384 37.3763 109.802 37.1222C111.102 36.4165 112.061 34.9894 112.608 33.7067C112.849 33.1739 113.044 32.6224 113.192 32.0581C113.303 31.6254 113.356 31.3472 113.356 31.3472C113.356 31.3472 112.829 31.6717 112.118 32.1251C111.358 32.6104 110.628 33.1367 109.928 33.7015Z" stroke="currentColor" stroke-width="1.30838" stroke-miterlimit="10"/>
<path d="M106.874 43.4523C107.44 42.6137 108.211 41.9267 109.117 41.4534C109.921 41.0263 110.749 40.6445 111.597 40.3097C112.366 40.0058 112.961 39.7945 112.961 39.7945C112.961 39.7945 112.861 40.0573 112.661 40.4591C112.406 40.9996 112.104 41.5168 111.755 42.0046C111.55 42.2932 111.329 42.5817 111.086 42.865C110.823 43.1464 110.542 43.4113 110.244 43.6584C109.682 44.1657 109.016 44.5503 108.291 44.7866C107.833 44.9628 107.325 44.9628 106.869 44.7866C106.7 44.7164 106.55 44.6088 106.432 44.4724C106.258 44.5117 106.078 44.5117 105.905 44.4724C105.431 44.3712 105.006 44.1127 104.704 43.7408C104.245 43.2108 103.862 42.6214 103.567 41.9892C103.426 41.6918 103.301 41.3875 103.193 41.0774C103.072 40.7785 102.971 40.49 102.887 40.217C102.724 39.6709 102.603 39.1918 102.529 38.8467C102.455 38.5014 102.424 38.2954 102.424 38.2954C102.424 38.2954 102.94 38.5839 103.588 39.0424C104.3 39.5212 104.947 40.0854 105.515 40.7219C106.19 41.4599 106.586 42.4017 106.637 43.3905C106.645 43.6016 106.626 43.8128 106.579 44.019C106.666 43.8246 106.764 43.6353 106.874 43.4523Z" stroke="currentColor" stroke-width="1.30838" stroke-miterlimit="10"/>
<path d="M106.738 48.889C106.163 49.0735 105.612 49.3206 105.094 49.6258C104.737 49.8444 104.409 50.1076 104.12 50.4088C103.964 50.5652 103.826 50.738 103.71 50.9239C103.793 50.7295 103.856 50.5276 103.899 50.3212C103.963 49.9149 103.963 49.5014 103.899 49.0951C103.812 48.5304 103.621 47.9858 103.335 47.4877C102.906 46.7552 102.387 46.0755 101.792 45.4631C101.266 44.8913 100.803 44.5049 100.803 44.5049V45.0664C100.803 45.4167 100.803 45.9062 100.871 46.478C100.95 47.8044 101.309 49.1006 101.924 50.2852C102.153 50.7118 102.525 51.0483 102.977 51.2382C103.144 51.3073 103.323 51.339 103.504 51.3309C103.594 51.4861 103.719 51.6197 103.867 51.7225C104.273 51.9922 104.769 52.0991 105.253 52.0213C106.743 51.8822 108.18 50.9291 109.202 49.9606C109.635 49.551 110.038 49.112 110.408 48.6468C110.676 48.2914 110.829 48.0544 110.829 48.0544C110.829 48.0544 110.208 48.1471 109.391 48.2966C108.495 48.4397 107.608 48.6376 106.738 48.889Z" stroke="currentColor" stroke-width="1.30838" stroke-miterlimit="10"/>
<path d="M101.129 56.1106C101.696 55.907 102.287 55.7721 102.888 55.7088C103.793 55.629 104.702 55.6067 105.61 55.6418C106.453 55.6573 107.069 55.683 107.069 55.683C106.905 55.866 106.729 56.0381 106.543 56.1982C106.082 56.5688 105.601 56.9128 105.099 57.2285C104.46 57.6233 103.776 57.9449 103.062 58.1868C102.336 58.4298 101.567 58.5262 100.803 58.4701C100.315 58.4504 99.8534 58.2495 99.5126 57.9086C99.3865 57.7773 99.2912 57.6209 99.2333 57.45C99.0442 57.4297 98.8639 57.3643 98.707 57.2595C98.3127 56.9801 98.0276 56.579 97.8956 56.1209C97.6779 55.4543 97.5629 54.7599 97.5533 54.0602C97.5292 53.4288 97.557 52.7964 97.6376 52.1695C97.6831 51.7002 97.7564 51.234 97.859 50.7734C97.9272 50.4334 97.9748 50.2222 97.9748 50.2222C97.9748 50.2222 98.3435 50.6961 98.7488 51.3555C99.2047 52.0777 99.5734 52.8486 99.8498 53.6532C100.022 54.1981 100.097 54.7681 100.07 55.3379C100.055 55.7483 99.9663 56.1529 99.8072 56.5331C99.7237 56.7267 99.6233 56.9129 99.5075 57.0894C99.6585 56.9385 99.8241 56.8021 100.002 56.6825C100.354 56.4502 100.732 56.2584 101.129 56.1106Z" stroke="currentColor" stroke-width="1.30838" stroke-miterlimit="10"/>
<path d="M100.381 62.091C99.5011 61.8907 98.6091 61.7461 97.7105 61.6582C96.6843 61.5348 95.6435 61.6659 94.6826 62.0395C94.4824 62.1208 94.2919 62.2227 94.1138 62.3434C94.2684 62.1854 94.4055 62.0128 94.525 61.8283C95.0593 60.9911 95.2836 60.0002 95.1619 59.0206C95.0586 58.1789 94.8541 57.3523 94.5513 56.558C94.4194 56.1974 94.2875 55.8832 94.1929 55.6616L94.0295 55.3062L93.7927 55.8214C93.6505 56.1356 93.4768 56.6044 93.298 57.1453C93.0861 57.7422 92.9278 58.3558 92.8237 58.9793C92.691 59.6583 92.6625 60.3528 92.7394 61.04C92.7702 61.5144 92.9674 61.964 93.298 62.3125C93.4233 62.4432 93.5787 62.5438 93.7509 62.6062C93.7678 62.7894 93.8294 62.9659 93.9298 63.1214C94.1929 63.5255 94.6034 63.8166 95.0776 63.9353C95.8157 64.1366 96.5868 64.1926 97.3477 64.1002C98.0975 63.9992 98.8334 63.8179 99.5429 63.5592C100.101 63.3436 100.645 63.0941 101.17 62.8122L101.644 62.5443L101.808 62.4362L100.381 62.091Z" stroke="currentColor" stroke-width="1.30838" stroke-miterlimit="10"/>
<path d="M91.4184 66.4202C90.4384 66.1007 89.3925 66.0245 88.3744 66.1987C88.1618 66.241 87.9536 66.3031 87.7535 66.3842C87.9419 66.2678 88.1186 66.1332 88.2798 65.9823C88.9769 65.2697 89.4013 64.3434 89.4804 63.3601C89.5537 62.5148 89.5237 61.6639 89.391 60.8255C89.2803 60.063 89.1433 59.5015 89.1433 59.5015C89.1433 59.5015 89.0069 59.6612 88.8068 59.9497C88.6067 60.2382 88.3377 60.6606 88.0431 61.15C87.7162 61.6958 87.4347 62.266 87.2001 62.8552C86.9231 63.4971 86.745 64.1762 86.6739 64.8696C86.6079 65.3404 86.7098 65.819 86.9634 66.2245C87.0601 66.377 87.1921 66.5056 87.3475 66.6005C87.3313 66.7751 87.3548 66.9512 87.4164 67.1157C87.5886 67.5669 87.9317 67.9358 88.3744 68.1461C89.0524 68.4839 89.7912 68.6887 90.5499 68.7488C91.3034 68.8043 92.062 68.7732 92.8089 68.6561C93.4011 68.5609 93.9853 68.4232 94.5571 68.244C94.999 68.1101 95.2622 68.007 95.2622 68.007C95.2622 68.007 94.6941 67.7288 93.9303 67.3939C93.1153 67.0174 92.276 66.6922 91.4184 66.4202Z" stroke="currentColor" stroke-width="1.30838" stroke-miterlimit="10"/>
<path d="M82.8652 71.4447C82.9202 70.5999 83.2002 69.7839 83.6766 69.0773C84.1531 68.3708 84.8098 67.7981 85.5824 67.416C91.263 64.9693 96.2377 61.1872 100.064 56.406C103.89 51.6247 106.45 45.9926 107.514 40.0103C108.579 34.028 108.116 27.881 106.167 22.116C104.217 16.351 100.842 11.1465 96.3403 6.96555C95.9562 6.60494 95.0085 5.78582 94.6083 5.4458" stroke="currentColor" stroke-width="1.30838" stroke-miterlimit="10"/>
<path d="M57.0433 9.68164C43.1879 9.68164 31.8516 21.0952 31.8516 35.045C31.8516 48.9948 43.1879 60.4083 57.0433 60.4083C70.8989 60.4083 82.2353 48.9948 82.2353 35.045C82.2353 21.0952 70.8989 9.68164 57.0433 9.68164ZM43.0079 49.176C39.2291 45.3715 37.2498 40.2988 37.2498 35.4073L56.8634 54.9734C51.825 54.7922 46.7867 52.9805 43.0079 49.176ZM61.362 54.4299L37.7896 30.697C39.769 21.8198 47.6864 15.1166 57.0433 15.1166C63.7012 15.1166 69.4593 18.3776 73.0582 23.2691L70.359 25.6243C67.3 21.4575 62.4416 18.74 57.0433 18.74C50.0257 18.74 44.0876 23.2691 41.7483 29.61L62.4416 50.4442C67.6599 48.6325 71.6187 44.1033 72.8782 38.6683H64.241V35.045H76.8369C76.8369 44.4657 70.1791 52.437 61.362 54.4299Z" fill="currentColor"/>
<path d="M147.977 25.9089C146.873 25.9089 145.987 25.6784 145.319 25.2173C144.665 24.7418 144.186 24.0573 143.881 23.164C143.59 22.2706 143.445 21.1971 143.445 19.9435V14.0861C143.445 12.8036 143.576 11.7158 143.837 10.8224C144.114 9.91454 144.592 9.22291 145.276 8.74742C145.973 8.27193 146.938 8.03418 148.172 8.03418C149.276 8.03418 150.162 8.22145 150.83 8.59614C151.512 8.95636 152.006 9.51832 152.311 10.282C152.616 11.0313 152.769 11.9823 152.769 13.135V13.7835H150.46V13.2431C150.46 12.4794 150.409 11.8599 150.307 11.3844C150.206 10.8944 149.995 10.5342 149.676 10.3036C149.371 10.0587 148.884 9.93621 148.216 9.93621C147.49 9.93621 146.96 10.1019 146.626 10.4333C146.306 10.7647 146.103 11.2186 146.016 11.795C145.943 12.3569 145.907 12.9982 145.907 13.7186V20.2028C145.907 21.0386 145.965 21.7374 146.081 22.2994C146.212 22.8614 146.451 23.2793 146.8 23.553C147.148 23.8268 147.642 23.9637 148.281 23.9637C148.921 23.9637 149.414 23.8124 149.763 23.5098C150.111 23.2072 150.351 22.7605 150.481 22.1697C150.612 21.5789 150.678 20.8441 150.678 19.9651V18.7547H148.434V17.0256H152.899V25.6928H151.353L151.113 23.6827C150.881 24.3311 150.518 24.8643 150.024 25.2821C149.53 25.7 148.847 25.9089 147.977 25.9089Z" fill="currentColor"/>
<path d="M157.086 25.6929L160.833 8.18555H163.207L166.976 25.6929H164.645L163.839 21.2837H160.244L159.395 25.6929H157.086ZM160.571 19.5329H163.512L162.031 11.6438L160.571 19.5329Z" fill="currentColor"/>
<path d="M172.618 25.6929V10.0011H169.633V8.18555H177.976V10.0011H175.079V25.6929H172.618Z" fill="currentColor"/>
<path d="M186.451 25.8874C185.435 25.8874 184.585 25.6712 183.903 25.2389C183.234 24.8066 182.726 24.2087 182.377 23.4449C182.029 22.6812 181.826 21.7951 181.768 20.7864L183.946 20.2028C183.99 20.8225 184.084 21.4204 184.23 21.9968C184.389 22.5732 184.643 23.0487 184.992 23.4234C185.34 23.7836 185.827 23.9637 186.451 23.9637C187.09 23.9637 187.57 23.7908 187.889 23.4449C188.223 23.0847 188.39 22.5732 188.39 21.9103C188.39 21.1178 188.208 20.4839 187.845 20.0083C187.483 19.5184 187.025 19.0285 186.473 18.5385L183.511 15.9449C182.929 15.4406 182.501 14.893 182.225 14.3023C181.949 13.697 181.812 12.955 181.812 12.076C181.812 10.7935 182.182 9.79927 182.922 9.09324C183.663 8.3872 184.672 8.03418 185.95 8.03418C186.647 8.03418 187.258 8.12785 187.78 8.31513C188.317 8.48807 188.76 8.76182 189.109 9.13651C189.472 9.51113 189.755 9.98662 189.959 10.563C190.176 11.1249 190.321 11.7878 190.394 12.5515L188.303 13.1135C188.26 12.5371 188.172 12.0111 188.041 11.5356C187.911 11.0457 187.678 10.6567 187.344 10.3685C187.025 10.0659 186.561 9.91454 185.95 9.91454C185.34 9.91454 184.861 10.0803 184.513 10.4117C184.178 10.7287 184.011 11.2042 184.011 11.8383C184.011 12.3713 184.098 12.8108 184.273 13.1567C184.462 13.5025 184.76 13.8556 185.166 14.2158L188.15 16.8095C188.818 17.3858 189.407 18.0775 189.915 18.8844C190.423 19.6769 190.677 20.6207 190.677 21.7159C190.677 22.5804 190.496 23.3297 190.133 23.9637C189.769 24.5833 189.269 25.0588 188.63 25.3902C188.005 25.7216 187.279 25.8874 186.451 25.8874Z" fill="currentColor"/>
<path d="M195.201 25.6929V8.18555H199.253C200.051 8.18555 200.741 8.27202 201.322 8.44489C201.917 8.61784 202.411 8.88438 202.804 9.24467C203.196 9.60489 203.486 10.066 203.675 10.6279C203.863 11.1755 203.958 11.8239 203.958 12.5732C203.958 13.2937 203.863 13.9205 203.675 14.4536C203.501 14.9724 203.224 15.383 202.847 15.6856C202.484 15.9882 202.012 16.1827 201.431 16.2692C202.142 16.4277 202.716 16.7015 203.152 17.0905C203.588 17.4652 203.907 17.9551 204.111 18.5603C204.328 19.1511 204.437 19.8643 204.437 20.7001C204.437 21.4493 204.35 22.1338 204.176 22.7534C204.001 23.373 203.726 23.8989 203.348 24.3312C202.985 24.7635 202.513 25.1021 201.932 25.3471C201.366 25.5776 200.69 25.6929 199.906 25.6929H195.201ZM197.663 23.9421H199.318C200.422 23.9421 201.155 23.69 201.518 23.1857C201.896 22.6669 202.085 21.8384 202.085 20.7001C202.085 19.9652 201.983 19.3528 201.78 18.8629C201.591 18.3586 201.279 17.9839 200.843 17.7389C200.422 17.4796 199.848 17.3499 199.122 17.3499H197.663V23.9421ZM197.663 15.4911H199.122C199.819 15.4911 200.364 15.3974 200.756 15.2101C201.148 15.0084 201.424 14.6914 201.584 14.2591C201.744 13.8268 201.824 13.2648 201.824 12.5732C201.824 11.7663 201.7 11.1827 201.453 10.8225C201.206 10.4622 200.821 10.2389 200.298 10.1525C199.776 10.0516 199.093 10.0011 198.251 10.0011H197.663V15.4911Z" fill="currentColor"/>
<path d="M211.939 25.6929V19.5113L208.127 8.18555H210.414L213.115 16.6366L215.773 8.18555H218.082L214.291 19.5113V25.6929H211.939Z" fill="currentColor"/>
<path d="M229.932 25.6929V8.18555H233.983C234.782 8.18555 235.471 8.27202 236.053 8.44489C236.648 8.61784 237.142 8.88438 237.534 9.24467C237.925 9.60489 238.216 10.066 238.405 10.6279C238.594 11.1755 238.689 11.8239 238.689 12.5732C238.689 13.2937 238.594 13.9205 238.405 14.4536C238.231 14.9724 237.955 15.383 237.577 15.6856C237.215 15.9882 236.742 16.1827 236.161 16.2692C236.873 16.4277 237.447 16.7015 237.882 17.0905C238.318 17.4652 238.637 17.9551 238.841 18.5603C239.059 19.1511 239.167 19.8643 239.167 20.7001C239.167 21.4493 239.081 22.1338 238.906 22.7534C238.732 23.373 238.456 23.8989 238.079 24.3312C237.715 24.7635 237.243 25.1021 236.663 25.3471C236.096 25.5776 235.421 25.6929 234.637 25.6929H229.932ZM232.393 23.9421H234.048C235.152 23.9421 235.886 23.69 236.248 23.1857C236.626 22.6669 236.815 21.8384 236.815 20.7001C236.815 19.9652 236.713 19.3528 236.51 18.8629C236.321 18.3586 236.009 17.9839 235.573 17.7389C235.152 17.4796 234.579 17.3499 233.852 17.3499H232.393V23.9421ZM232.393 15.4911H233.852C234.549 15.4911 235.094 15.3974 235.486 15.2101C235.878 15.0084 236.154 14.6914 236.314 14.2591C236.473 13.8268 236.553 13.2648 236.553 12.5732C236.553 11.7663 236.43 11.1827 236.183 10.8225C235.936 10.4622 235.551 10.2389 235.029 10.1525C234.506 10.0516 233.823 10.0011 232.981 10.0011H232.393V15.4911Z" fill="currentColor"/>
<path d="M243.969 25.6929V8.18555H250.809V10.0011H246.43V15.7937H249.981V17.5228H246.43V23.9421H250.852V25.6929H243.969Z" fill="currentColor"/>
<path d="M259.615 25.8874C258.598 25.8874 257.748 25.6712 257.066 25.2389C256.398 24.8066 255.89 24.2087 255.541 23.4449C255.193 22.6812 254.99 21.7951 254.932 20.7864L257.109 20.2028C257.153 20.8225 257.248 21.4204 257.393 21.9968C257.553 22.5732 257.806 23.0487 258.155 23.4234C258.503 23.7836 258.99 23.9637 259.615 23.9637C260.254 23.9637 260.733 23.7908 261.053 23.4449C261.386 23.0847 261.553 22.5732 261.553 21.9103C261.553 21.1178 261.372 20.4839 261.009 20.0083C260.646 19.5184 260.189 19.0285 259.637 18.5385L256.674 15.9449C256.093 15.4406 255.665 14.893 255.389 14.3023C255.113 13.697 254.975 12.955 254.975 12.076C254.975 10.7935 255.345 9.79927 256.086 9.09324C256.826 8.3872 257.836 8.03418 259.114 8.03418C259.811 8.03418 260.421 8.12785 260.944 8.31513C261.481 8.48807 261.924 8.76182 262.272 9.13651C262.635 9.51113 262.919 9.98662 263.122 10.563C263.34 11.1249 263.485 11.7878 263.557 12.5515L261.466 13.1135C261.423 12.5371 261.336 12.0111 261.205 11.5356C261.074 11.0457 260.842 10.6567 260.508 10.3685C260.189 10.0659 259.724 9.91454 259.114 9.91454C258.503 9.91454 258.025 10.0803 257.676 10.4117C257.342 10.7287 257.175 11.2042 257.175 11.8383C257.175 12.3713 257.262 12.8108 257.436 13.1567C257.625 13.5025 257.923 13.8556 258.33 14.2158L261.314 16.8095C261.982 17.3858 262.57 18.0775 263.079 18.8844C263.587 19.6769 263.841 20.6207 263.841 21.7159C263.841 22.5804 263.659 23.3297 263.296 23.9637C262.933 24.5833 262.432 25.0588 261.793 25.3902C261.169 25.7216 260.443 25.8874 259.615 25.8874Z" fill="currentColor"/>
<path d="M270.302 25.6929V10.0011H267.318V8.18555H275.661V10.0011H272.764V25.6929H270.302Z" fill="currentColor"/>
<path d="M292.078 25.8874C290.887 25.8874 289.936 25.6568 289.224 25.1957C288.512 24.7346 288.004 24.079 287.7 23.2288C287.395 22.3642 287.242 21.3556 287.242 20.2028V13.5673C287.242 12.4146 287.395 11.4276 287.7 10.6063C288.019 9.77047 288.527 9.13651 289.224 8.70422C289.936 8.25753 290.887 8.03418 292.078 8.03418C293.269 8.03418 294.213 8.25753 294.91 8.70422C295.607 9.15091 296.108 9.78487 296.413 10.6063C296.733 11.4276 296.892 12.4146 296.892 13.5673V20.2244C296.892 21.3628 296.733 22.357 296.413 23.2072C296.108 24.0573 295.607 24.7202 294.91 25.1957C294.213 25.6568 293.269 25.8874 292.078 25.8874ZM292.078 23.9637C292.731 23.9637 293.225 23.834 293.559 23.5746C293.893 23.3009 294.118 22.9262 294.235 22.4507C294.351 21.9608 294.408 21.3916 294.408 20.7432V13.0703C294.408 12.4218 294.351 11.8671 294.235 11.406C294.118 10.9305 293.893 10.5702 293.559 10.3252C293.225 10.0659 292.731 9.93622 292.078 9.93622C291.425 9.93622 290.923 10.0659 290.575 10.3252C290.241 10.5702 290.016 10.9305 289.9 11.406C289.783 11.8671 289.726 12.4218 289.726 13.0703V20.7432C289.726 21.3916 289.783 21.9608 289.9 22.4507C290.016 22.9262 290.241 23.3009 290.575 23.5746C290.923 23.834 291.425 23.9637 292.078 23.9637Z" fill="currentColor"/>
<path d="M301.926 25.6929V8.18555H308.745V9.93631H304.388V15.7721H307.764V17.5012H304.388V25.6929H301.926Z" fill="currentColor"/>
<path d="M320.162 25.6928V24.0501L324.649 17.1121C324.984 16.5933 325.289 16.1106 325.564 15.6639C325.854 15.2172 326.087 14.7489 326.261 14.259C326.45 13.7547 326.544 13.1783 326.544 12.5299C326.544 11.723 326.414 11.0889 326.152 10.6279C325.891 10.1668 325.434 9.93622 324.78 9.93622C324.228 9.93622 323.8 10.0875 323.495 10.3901C323.19 10.6927 322.979 11.0889 322.863 11.5788C322.747 12.0688 322.689 12.5947 322.689 13.1567V13.7403H320.358V13.1351C320.358 12.0832 320.496 11.1826 320.772 10.4333C321.062 9.6696 321.52 9.07883 322.144 8.66094C322.783 8.24313 323.625 8.03418 324.671 8.03418C326.094 8.03418 327.155 8.4376 327.852 9.24458C328.549 10.0371 328.897 11.1393 328.897 12.5515C328.897 13.3008 328.803 13.9564 328.614 14.5184C328.44 15.0804 328.207 15.6063 327.917 16.0962C327.626 16.5861 327.307 17.0904 326.958 17.6092L322.906 23.7476H328.483V25.6928H320.162Z" fill="currentColor"/>
<path d="M337.928 25.8874C336.926 25.8874 336.097 25.664 335.444 25.2173C334.805 24.7706 334.326 24.1582 334.006 23.3801C333.701 22.602 333.549 21.7159 333.549 20.7216V13.1783C333.549 12.1552 333.701 11.2618 334.006 10.4982C334.311 9.72007 334.783 9.11484 335.422 8.68262C336.076 8.25033 336.911 8.03418 337.928 8.03418C338.944 8.03418 339.772 8.25033 340.411 8.68262C341.05 9.11484 341.522 9.72007 341.827 10.4982C342.132 11.2618 342.284 12.1552 342.284 13.1783V20.7216C342.284 21.7303 342.125 22.6236 341.805 23.4017C341.5 24.1799 341.028 24.7922 340.389 25.2389C339.75 25.6712 338.93 25.8874 337.928 25.8874ZM337.928 23.9853C338.48 23.9853 338.893 23.8268 339.169 23.5098C339.46 23.1928 339.656 22.7893 339.757 22.2994C339.874 21.7951 339.932 21.2764 339.932 20.7432V13.1567C339.932 12.5947 339.881 12.0688 339.779 11.5788C339.677 11.0745 339.482 10.6711 339.191 10.3685C338.915 10.0659 338.494 9.91454 337.928 9.91454C337.361 9.91454 336.933 10.0659 336.642 10.3685C336.352 10.6711 336.156 11.0745 336.054 11.5788C335.952 12.0688 335.902 12.5947 335.902 13.1567V20.7432C335.902 21.2764 335.952 21.7951 336.054 22.2994C336.171 22.7893 336.374 23.1928 336.664 23.5098C336.969 23.8268 337.39 23.9853 337.928 23.9853Z" fill="currentColor"/>
<path d="M347.045 25.6928V24.0501L351.533 17.1121C351.866 16.5933 352.171 16.1106 352.448 15.6639C352.738 15.2172 352.97 14.7489 353.145 14.259C353.333 13.7547 353.428 13.1783 353.428 12.5299C353.428 11.723 353.297 11.0889 353.036 10.6279C352.775 10.1668 352.317 9.93622 351.663 9.93622C351.111 9.93622 350.683 10.0875 350.378 10.3901C350.073 10.6927 349.863 11.0889 349.747 11.5788C349.63 12.0688 349.572 12.5947 349.572 13.1567V13.7403H347.241V13.1351C347.241 12.0832 347.379 11.1826 347.656 10.4333C347.946 9.6696 348.403 9.07883 349.028 8.66094C349.667 8.24313 350.509 8.03418 351.554 8.03418C352.978 8.03418 354.038 8.4376 354.735 9.24458C355.432 10.0371 355.781 11.1393 355.781 12.5515C355.781 13.3008 355.686 13.9564 355.497 14.5184C355.323 15.0804 355.091 15.6063 354.8 16.0962C354.51 16.5861 354.19 17.0904 353.842 17.6092L349.79 23.7476H355.366V25.6928H347.045Z" fill="currentColor"/>
<path d="M362.893 25.6929V11.2115C362.88 11.2259 362.712 11.2692 362.393 11.3412C362.088 11.4133 361.739 11.4853 361.347 11.5573C360.955 11.6294 360.607 11.6942 360.302 11.7519C359.997 11.8095 359.837 11.8383 359.822 11.8383V10.0876C360.069 10.03 360.352 9.95071 360.672 9.84984C361.006 9.74896 361.34 9.62649 361.674 9.48242C362.023 9.33827 362.349 9.1582 362.654 8.94206C362.973 8.72591 363.242 8.47377 363.46 8.18555H365.224V25.6929H362.893Z" fill="currentColor"/>
<path d="M378.426 25.6929L382.173 8.18555H384.547L388.316 25.6929H385.985L385.179 21.2837H381.584L380.735 25.6929H378.426ZM381.911 19.5329H384.852L383.37 11.6438L381.911 19.5329Z" fill="currentColor"/>
<path d="M396.839 25.9089C395.735 25.9089 394.85 25.6784 394.182 25.2173C393.528 24.7418 393.049 24.0573 392.744 23.164C392.454 22.2706 392.309 21.1971 392.309 19.9435V14.0861C392.309 12.8036 392.439 11.7158 392.701 10.8224C392.976 9.91454 393.456 9.22291 394.138 8.74742C394.835 8.27193 395.801 8.03418 397.036 8.03418C398.139 8.03418 399.025 8.22145 399.693 8.59614C400.376 8.95636 400.869 9.51832 401.174 10.282C401.479 11.0313 401.631 11.9823 401.631 13.135V13.7835H399.322V13.2431C399.322 12.4794 399.272 11.8599 399.17 11.3844C399.069 10.8944 398.858 10.5342 398.538 10.3036C398.233 10.0587 397.747 9.93621 397.079 9.93621C396.353 9.93621 395.823 10.1019 395.489 10.4333C395.169 10.7647 394.966 11.2186 394.879 11.795C394.806 12.3569 394.77 12.9982 394.77 13.7186V20.2028C394.77 21.0386 394.828 21.7374 394.944 22.2994C395.075 22.8614 395.315 23.2793 395.663 23.553C396.012 23.8268 396.506 23.9637 397.144 23.9637C397.783 23.9637 398.277 23.8124 398.625 23.5098C398.974 23.2072 399.214 22.7605 399.344 22.1697C399.475 21.5789 399.54 20.8441 399.54 19.9651V18.7547H397.297V17.0256H401.763V25.6928H400.216L399.976 23.6827C399.744 24.3311 399.38 24.8643 398.887 25.2821C398.393 25.7 397.711 25.9089 396.839 25.9089Z" fill="currentColor"/>
<path d="M406.906 25.6929V8.18555H413.746V10.0011H409.368V15.7937H412.919V17.5228H409.368V23.9421H413.79V25.6929H406.906Z" fill="currentColor"/>
<path d="M418.391 25.6929V8.18555H420.068L425.078 19.8139V8.18555H427.125V25.6929H425.558L420.482 13.7404V25.6929H418.391Z" fill="currentColor"/>
<path d="M436.936 25.8874C435.687 25.8874 434.714 25.6279 434.017 25.1092C433.335 24.5905 432.855 23.8916 432.58 23.0127C432.318 22.1337 432.188 21.1539 432.188 20.0732V13.8916C432.188 12.71 432.318 11.6797 432.58 10.8007C432.855 9.92182 433.335 9.24458 434.017 8.76902C434.714 8.27913 435.687 8.03418 436.936 8.03418C438.04 8.03418 438.911 8.23593 439.55 8.63934C440.203 9.04283 440.668 9.6192 440.944 10.3685C441.235 11.1177 441.38 12.0183 441.38 13.0703V14.4535H439.049V13.2215C439.049 12.5731 439.013 12.0039 438.94 11.514C438.882 11.0097 438.708 10.6207 438.418 10.3468C438.127 10.0731 437.64 9.93622 436.958 9.93622C436.261 9.93622 435.753 10.0875 435.433 10.3901C435.114 10.6783 434.903 11.0961 434.801 11.6437C434.714 12.1769 434.671 12.8036 434.671 13.5241V20.4622C434.671 21.3412 434.743 22.04 434.889 22.5588C435.034 23.0631 435.273 23.4234 435.608 23.6395C435.941 23.8556 436.392 23.9637 436.958 23.9637C437.626 23.9637 438.106 23.8196 438.396 23.5314C438.686 23.2288 438.868 22.8181 438.94 22.2994C439.013 21.7807 439.049 21.1755 439.049 20.4839V19.187H441.38V20.4839C441.38 21.5501 441.249 22.494 440.988 23.3153C440.727 24.1222 440.277 24.7562 439.637 25.2173C438.998 25.664 438.098 25.8874 436.936 25.8874Z" fill="currentColor"/>
<path d="M449.039 25.6929V19.5113L445.227 8.18555H447.514L450.215 16.6366L452.873 8.18555H455.182L451.392 19.5113V25.6929H449.039Z" fill="currentColor"/>
<path d="M466.072 25.6929L469.819 8.18555H472.193L475.962 25.6929H473.632L472.825 21.2837H469.231L468.382 25.6929H466.072ZM469.558 19.5329H472.499L471.018 11.6438L469.558 19.5329Z" fill="currentColor"/>
<path d="M482.315 25.6929L479.439 8.18555H481.487L483.382 20.7649L485.757 8.25042H487.499L489.895 20.8298L491.747 8.18555H493.751L490.919 25.6929H489.133L486.672 12.7245L484.188 25.6929H482.315Z" fill="currentColor"/>
<path d="M496.893 25.6929L500.64 8.18555H503.014L506.783 25.6929H504.452L503.646 21.2837H500.052L499.202 25.6929H496.893ZM500.378 19.5329H503.319L501.838 11.6438L500.378 19.5329Z" fill="currentColor"/>
<path d="M511.188 25.6929V8.18555H514.738C515.915 8.18555 516.887 8.34409 517.657 8.66104C518.426 8.96366 518.993 9.46075 519.356 10.1525C519.734 10.8297 519.923 11.7231 519.923 12.8325C519.923 13.5098 519.85 14.1294 519.705 14.6914C519.56 15.2389 519.327 15.7072 519.008 16.0963C518.688 16.4709 518.267 16.7447 517.744 16.9176L520.249 25.6929H517.875L515.566 17.4796H513.649V25.6929H511.188ZM513.649 15.7288H514.586C515.283 15.7288 515.849 15.6424 516.285 15.4695C516.72 15.2965 517.04 15.0012 517.243 14.5833C517.446 14.1654 517.548 13.5818 517.548 12.8325C517.548 11.8095 517.359 11.0746 516.982 10.6279C516.604 10.1669 515.856 9.93631 514.738 9.93631H513.649V15.7288Z" fill="currentColor"/>
<path d="M525.098 25.6929V8.18555H528.932C530.239 8.18555 531.27 8.38729 532.025 8.79071C532.795 9.1798 533.339 9.77056 533.659 10.5631C533.992 11.3556 534.159 12.3426 534.159 13.5242V19.9652C534.159 21.2044 533.992 22.249 533.659 23.0992C533.339 23.9493 532.809 24.5978 532.068 25.0445C531.343 25.4767 530.362 25.6929 529.128 25.6929H525.098ZM527.559 23.9421H528.953C529.854 23.9421 530.493 23.7693 530.871 23.4234C531.248 23.0776 531.473 22.5733 531.546 21.9104C531.633 21.2476 531.676 20.4479 531.676 19.5113V13.8268C531.676 12.919 531.618 12.1842 531.502 11.6222C531.386 11.0602 531.131 10.6495 530.739 10.3902C530.347 10.1308 529.73 10.0011 528.888 10.0011H527.559V23.9421Z" fill="currentColor"/>
<path d="M543.36 25.8874C542.343 25.8874 541.493 25.6712 540.811 25.2389C540.143 24.8066 539.635 24.2087 539.286 23.4449C538.937 22.6812 538.734 21.7951 538.676 20.7864L540.854 20.2028C540.898 20.8225 540.993 21.4204 541.138 21.9968C541.298 22.5732 541.551 23.0487 541.9 23.4234C542.248 23.7836 542.735 23.9637 543.36 23.9637C543.999 23.9637 544.478 23.7908 544.797 23.4449C545.131 23.0847 545.298 22.5732 545.298 21.9103C545.298 21.1178 545.117 20.4839 544.754 20.0083C544.391 19.5184 543.933 19.0285 543.382 18.5385L540.419 15.9449C539.838 15.4406 539.41 14.893 539.133 14.3023C538.858 13.697 538.72 12.955 538.72 12.076C538.72 10.7935 539.09 9.79927 539.831 9.09324C540.571 8.3872 541.581 8.03418 542.858 8.03418C543.555 8.03418 544.166 8.12785 544.688 8.31513C545.226 8.48807 545.668 8.76182 546.017 9.13651C546.38 9.51113 546.663 9.98662 546.867 10.563C547.085 11.1249 547.23 11.7878 547.302 12.5515L545.211 13.1135C545.168 12.5371 545.081 12.0111 544.95 11.5356C544.819 11.0457 544.587 10.6567 544.252 10.3685C543.933 10.0659 543.469 9.91454 542.858 9.91454C542.248 9.91454 541.77 10.0803 541.421 10.4117C541.087 10.7287 540.919 11.2042 540.919 11.8383C540.919 12.3713 541.007 12.8108 541.181 13.1567C541.37 13.5025 541.668 13.8556 542.075 14.2158L545.059 16.8095C545.727 17.3858 546.315 18.0775 546.823 18.8844C547.332 19.6769 547.586 20.6207 547.586 21.7159C547.586 22.5804 547.404 23.3297 547.041 23.9637C546.678 24.5833 546.177 25.0588 545.538 25.3902C544.913 25.7216 544.187 25.8874 543.36 25.8874Z" fill="currentColor"/>
<path fill-rule="evenodd" clip-rule="evenodd" d="M548.47 37.9545H142.4V36.5H548.47V37.9545Z" fill="currentColor"/>
<path d="M202.551 65.5215V48.0142H210.001V50.435H206.145V55.1684H209.412V57.654H206.145V65.5215H202.551Z" fill="currentColor"/>
<path d="M216.641 65.5215V48.0142H220.213V65.5215H216.641Z" fill="currentColor"/>
<path d="M227.707 65.5215V48.0142H230.212L234.133 57.1353V48.0142H237.096V65.5215H234.7L230.778 55.8384V65.5215H227.707Z" fill="currentColor"/>
<path d="M243.689 65.5215L247.11 48.0142H251.096L254.494 65.5215H251.161L250.53 61.6742H247.741L247.066 65.5215H243.689ZM248.068 59.4912H250.181L249.113 52.4235L248.068 59.4912Z" fill="currentColor"/>
<path d="M261.076 65.5215V48.0142H264.67V63.1008H268.809V65.5215H261.076Z" fill="currentColor"/>
<path d="M275.336 65.5215V48.0142H278.908V65.5215H275.336Z" fill="currentColor"/>
<path d="M290.977 65.7596C289.887 65.7596 288.98 65.565 288.254 65.1759C287.528 64.7725 286.976 64.1745 286.599 63.382C286.235 62.5751 286.025 61.552 285.967 60.3128L289.06 59.794C289.089 60.5146 289.162 61.1197 289.278 61.6097C289.408 62.0852 289.597 62.4454 289.844 62.6903C290.105 62.9209 290.425 63.0362 290.802 63.0362C291.267 63.0362 291.579 62.8921 291.739 62.6039C291.913 62.3157 292.001 61.9843 292.001 61.6097C292.001 60.8748 291.819 60.2624 291.456 59.7725C291.107 59.2682 290.642 58.7638 290.062 58.2595L288.232 56.6817C287.579 56.1341 287.041 55.5145 286.62 54.8228C286.213 54.1312 286.01 53.281 286.01 52.2724C286.01 50.8315 286.431 49.7292 287.274 48.9655C288.131 48.1874 289.3 47.7983 290.781 47.7983C291.666 47.7983 292.393 47.9424 292.959 48.2306C293.525 48.5188 293.961 48.9078 294.266 49.3978C294.586 49.8732 294.804 50.3992 294.919 50.9756C295.051 51.5375 295.13 52.0995 295.159 52.6615L292.088 53.1154C292.059 52.5822 292.008 52.1139 291.935 51.7104C291.877 51.307 291.746 50.99 291.543 50.7594C291.354 50.5289 291.064 50.4136 290.672 50.4136C290.25 50.4136 289.938 50.5721 289.735 50.8891C289.532 51.1917 289.43 51.5303 289.43 51.905C289.43 52.5246 289.568 53.0361 289.844 53.4396C290.134 53.8286 290.527 54.2393 291.021 54.6716L292.807 56.2278C293.547 56.8618 294.179 57.5895 294.702 58.4108C295.239 59.2177 295.508 60.2191 295.508 61.4151C295.508 62.2364 295.319 62.9786 294.941 63.6414C294.564 64.3042 294.034 64.8229 293.351 65.1976C292.683 65.5722 291.891 65.7596 290.977 65.7596Z" fill="currentColor"/>
<path d="M303.848 65.5215V50.6727H301.125V48.0142H310.144V50.6727H307.464V65.5215H303.848Z" fill="currentColor"/>
<path d="M326.775 65.5215V48.0142H331.241C332.01 48.0142 332.722 48.079 333.375 48.2087C334.029 48.3384 334.603 48.5689 335.096 48.9003C335.605 49.2318 335.99 49.6929 336.251 50.2837C336.527 50.8601 336.665 51.6166 336.665 52.5531C336.665 53.2592 336.563 53.8644 336.36 54.3687C336.157 54.8586 335.866 55.2477 335.488 55.5358C335.111 55.824 334.646 56.0186 334.094 56.1195C334.777 56.2203 335.351 56.4509 335.815 56.8111C336.28 57.1713 336.629 57.6468 336.861 58.2377C337.094 58.8284 337.209 59.5417 337.209 60.3774C337.209 61.2563 337.094 62.0201 336.861 62.6685C336.643 63.3169 336.317 63.8501 335.88 64.2679C335.445 64.6858 334.908 65.0028 334.269 65.219C333.629 65.4207 332.889 65.5215 332.047 65.5215H326.775ZM330.369 63.0143H331.371C332.272 63.0143 332.889 62.791 333.223 62.3443C333.572 61.8976 333.746 61.2275 333.746 60.3342C333.746 59.6425 333.666 59.095 333.506 58.6915C333.347 58.2737 333.085 57.971 332.722 57.7838C332.373 57.582 331.901 57.4811 331.306 57.4811H330.369V63.0143ZM330.369 55.0819H331.263C331.887 55.0819 332.359 54.9955 332.678 54.8226C332.998 54.6353 333.215 54.3615 333.332 54.0013C333.462 53.6266 333.528 53.1727 333.528 52.6396C333.528 52.1065 333.434 51.6814 333.245 51.3643C333.07 51.0329 332.795 50.7952 332.417 50.6511C332.054 50.507 331.589 50.435 331.023 50.435H330.369V55.0819Z" fill="currentColor"/>
<path d="M344.076 65.5215V48.0142H351.766V50.4782H347.671V55.1252H350.829V57.6108H347.671V63.1008H351.809V65.5215H344.076Z" fill="currentColor"/>
<path d="M362.995 65.7596C361.906 65.7596 360.998 65.565 360.272 65.1759C359.546 64.7725 358.994 64.1745 358.616 63.382C358.253 62.5751 358.042 61.552 357.984 60.3128L361.078 59.794C361.107 60.5146 361.179 61.1197 361.295 61.6097C361.426 62.0852 361.615 62.4454 361.862 62.6903C362.123 62.9209 362.443 63.0362 362.821 63.0362C363.285 63.0362 363.597 62.8921 363.757 62.6039C363.931 62.3157 364.018 61.9843 364.018 61.6097C364.018 60.8748 363.837 60.2624 363.474 59.7725C363.125 59.2682 362.661 58.7638 362.079 58.2595L360.25 56.6817C359.596 56.1341 359.059 55.5145 358.638 54.8228C358.231 54.1312 358.028 53.281 358.028 52.2724C358.028 50.8315 358.449 49.7292 359.291 48.9655C360.148 48.1874 361.317 47.7983 362.799 47.7983C363.685 47.7983 364.41 47.9424 364.977 48.2306C365.544 48.5188 365.979 48.9078 366.284 49.3978C366.603 49.8732 366.821 50.3992 366.938 50.9756C367.068 51.5375 367.148 52.0995 367.177 52.6615L364.105 53.1154C364.077 52.5822 364.026 52.1139 363.953 51.7104C363.895 51.307 363.765 50.99 363.561 50.7594C363.372 50.5289 363.081 50.4136 362.689 50.4136C362.269 50.4136 361.956 50.5721 361.753 50.8891C361.55 51.1917 361.448 51.5303 361.448 51.905C361.448 52.5246 361.586 53.0361 361.862 53.4396C362.152 53.8286 362.544 54.2393 363.038 54.6716L364.824 56.2278C365.565 56.8618 366.197 57.5895 366.72 58.4108C367.257 59.2177 367.525 60.2191 367.525 61.4151C367.525 62.2364 367.337 62.9786 366.959 63.6414C366.581 64.3042 366.051 64.8229 365.369 65.1976C364.701 65.5722 363.91 65.7596 362.995 65.7596Z" fill="currentColor"/>
<path d="M375.866 65.5215V50.6727H373.143V48.0142H382.161V50.6727H379.482V65.5215H375.866Z" fill="currentColor"/>
<path d="M397.922 65.5215L401.342 48.0142H405.329L408.727 65.5215H405.394L404.762 61.6742H401.974L401.299 65.5215H397.922ZM402.301 59.4912H404.414L403.346 52.4235L402.301 59.4912Z" fill="currentColor"/>
<path d="M419.581 65.7812C418.39 65.7812 417.446 65.5362 416.749 65.0462C416.052 64.542 415.551 63.8359 415.246 62.9281C414.956 62.0059 414.811 60.9396 414.811 59.7292V53.8719C414.811 52.6182 414.963 51.5375 415.268 50.6298C415.573 49.722 416.103 49.0231 416.858 48.5332C417.628 48.0433 418.666 47.7983 419.973 47.7983C421.237 47.7983 422.231 48.0072 422.958 48.4251C423.698 48.843 424.228 49.4338 424.547 50.1975C424.867 50.9612 425.027 51.869 425.027 52.9208V53.9367H421.519V52.7047C421.519 52.2436 421.491 51.8402 421.432 51.4943C421.374 51.134 421.237 50.8531 421.019 50.6514C420.815 50.4496 420.482 50.3487 420.017 50.3487C419.538 50.3487 419.189 50.4712 418.971 50.7162C418.753 50.9612 418.615 51.2782 418.558 51.6672C418.499 52.0418 418.47 52.4453 418.47 52.8776V60.637C418.47 61.1269 418.514 61.5664 418.601 61.9555C418.688 62.3445 418.848 62.6471 419.08 62.8633C419.327 63.0794 419.675 63.1875 420.125 63.1875C420.576 63.1875 420.924 63.0722 421.171 62.8417C421.418 62.6111 421.585 62.3013 421.672 61.9122C421.774 61.5088 421.824 61.0549 421.824 60.5505V58.6918H420.104V56.5303H425.071V65.5217H422.718L422.5 63.9439C422.268 64.4771 421.919 64.9166 421.454 65.2624C420.99 65.6082 420.365 65.7812 419.581 65.7812Z" fill="currentColor"/>
<path d="M432.33 65.5215V48.0142H440.02V50.4782H435.925V55.1252H439.083V57.6108H435.925V63.1008H440.063V65.5215H432.33Z" fill="currentColor"/>
<path d="M446.674 65.5215V48.0142H449.179L453.101 57.1353V48.0142H456.063V65.5215H453.666L449.746 55.8384V65.5215H446.674Z" fill="currentColor"/>
<path d="M468.43 65.7596C467.123 65.7596 466.085 65.5146 465.315 65.0247C464.56 64.5348 464.03 63.8575 463.725 62.993C463.42 62.114 463.268 61.0981 463.268 59.9454V53.6557C463.268 52.4453 463.42 51.4079 463.725 50.5433C464.03 49.6643 464.56 48.9871 465.315 48.5116C466.085 48.0361 467.123 47.7983 468.43 47.7983C469.694 47.7983 470.681 48.0072 471.393 48.4251C472.119 48.843 472.627 49.4338 472.918 50.1975C473.223 50.9612 473.375 51.8474 473.375 52.856V54.3258H469.89V52.6831C469.89 52.2796 469.868 51.905 469.824 51.5591C469.781 51.1989 469.658 50.9107 469.454 50.6946C469.266 50.464 468.931 50.3487 468.452 50.3487C467.973 50.3487 467.624 50.464 467.407 50.6946C467.188 50.9251 467.051 51.2277 466.993 51.6023C466.935 51.9626 466.905 52.366 466.905 52.8127V60.7667C466.905 61.2566 466.942 61.6889 467.015 62.0636C467.101 62.4238 467.254 62.7047 467.472 62.9065C467.704 63.0938 468.03 63.1875 468.452 63.1875C468.917 63.1875 469.244 63.0794 469.432 62.8633C469.636 62.6327 469.759 62.3301 469.803 61.9555C469.861 61.5808 469.89 61.1846 469.89 60.7667V59.0592H473.375V60.5074C473.375 61.5304 473.23 62.4382 472.939 63.2307C472.649 64.0088 472.148 64.6284 471.437 65.0895C470.725 65.5362 469.723 65.7596 468.43 65.7596Z" fill="currentColor"/>
<path d="M482.606 65.5215V58.5835L479.164 48.0142H482.541L484.436 54.1742L486.2 48.0142H489.468L486.069 58.5835V65.5215H482.606Z" fill="currentColor"/>
</g>
<defs>
<clipPath id="clip0_3576_95809">
<rect width="549" height="72" fill="white"/>
</clipPath>
</defs>
</svg>
