<svg width="592" height="306" viewBox="0 0 592 306" fill="none" xmlns="http://www.w3.org/2000/svg">
<rect width="592" height="306" rx="16" fill="black"/>
<g opacity="0.08">
<rect x="53" width="1" height="306" fill="white"/>
<rect x="134" width="1" height="306" fill="white"/>
<rect x="215" width="1" height="306" fill="white"/>
<rect x="296" width="1" height="306" fill="white"/>
<rect x="377" width="1" height="306" fill="white"/>
<rect x="458" width="1" height="306" fill="white"/>
<rect x="539" width="1" height="306" fill="white"/>
</g>
<path d="M30 38C30 33.5817 33.5817 30 38 30H509C520.598 30 530 39.402 530 51C530 62.598 520.598 72 509 72H38C33.5817 72 30 68.4183 30 64V38Z" fill="url(#paint0_linear_1133_92113)"/>
<rect opacity="0.7" x="48" y="48" width="78" height="6" rx="3" fill="white"/>
<circle cx="509" cy="51" r="21" fill="white"/>
<g clip-path="url(#clip0_1133_92113)">
<path d="M514.926 56.9028L515.083 56.3561C515.271 55.7057 515.201 55.1045 514.886 54.6628C514.596 54.2559 514.113 54.0163 513.526 53.9884L502.407 53.8473C502.372 53.8466 502.338 53.8378 502.308 53.8216C502.277 53.8053 502.251 53.7822 502.231 53.7539C502.212 53.7246 502.2 53.6913 502.195 53.6564C502.191 53.6215 502.195 53.5861 502.206 53.553C502.225 53.4983 502.26 53.4505 502.306 53.4154C502.352 53.3803 502.407 53.3594 502.465 53.3553L513.686 53.2127C515.018 53.1514 516.459 52.0688 516.963 50.7486L517.603 49.0725C517.63 49.0017 517.636 48.9249 517.621 48.8508C516.894 45.5748 513.977 43.125 510.489 43.125C507.276 43.125 504.547 45.2039 503.569 48.0934C502.907 47.5958 502.083 47.3671 501.26 47.453C499.719 47.6064 498.479 48.8505 498.326 50.396C498.287 50.7819 498.316 51.1717 498.411 51.5477C495.893 51.6213 493.873 53.6893 493.873 56.2315C493.873 56.4584 493.89 56.685 493.923 56.9096C493.93 56.9614 493.956 57.0089 493.995 57.0434C494.035 57.0779 494.085 57.0971 494.137 57.0974L514.665 57.1C514.667 57.1001 514.668 57.1001 514.67 57.1C514.728 57.0989 514.785 57.0792 514.831 57.0438C514.877 57.0082 514.91 56.9588 514.926 56.9028Z" fill="black"/>
<path d="M518.631 49.1943C518.528 49.1943 518.425 49.1969 518.323 49.2021C518.307 49.2033 518.29 49.2069 518.275 49.2127C518.248 49.2219 518.224 49.2374 518.204 49.258C518.185 49.2786 518.171 49.3036 518.163 49.331L517.726 50.8445C517.538 51.495 517.608 52.0957 517.923 52.5374C518.213 52.9447 518.696 53.1838 519.283 53.2117L521.654 53.3543C521.687 53.3554 521.72 53.3643 521.749 53.3803C521.778 53.3962 521.804 53.4188 521.823 53.4462C521.842 53.4756 521.855 53.5092 521.859 53.5443C521.864 53.5794 521.86 53.6151 521.848 53.6484C521.829 53.7029 521.794 53.7507 521.748 53.7858C521.702 53.8209 521.647 53.8418 521.59 53.846L519.127 53.9887C517.79 54.0505 516.349 55.1326 515.845 56.4528L515.667 56.9189C515.659 56.9383 515.657 56.9593 515.659 56.98C515.661 57.0008 515.668 57.0208 515.68 57.0382C515.691 57.0556 515.707 57.0701 515.725 57.0804C515.743 57.0907 515.763 57.0966 515.784 57.0974C515.786 57.0974 515.788 57.0974 515.79 57.0974H524.265C524.314 57.0979 524.362 57.0822 524.402 57.0526C524.441 57.023 524.47 56.9814 524.484 56.9339C524.634 56.397 524.71 55.842 524.709 55.2842C524.708 51.9211 521.987 49.1943 518.631 49.1943Z" fill="black"/>
</g>
<path d="M30 106C30 101.582 33.5817 98 38 98H459C470.598 98 480 107.402 480 119C480 130.598 470.598 140 459 140H38C33.5817 140 30 136.418 30 132V106Z" fill="url(#paint1_linear_1133_92113)"/>
<circle cx="459" cy="119" r="21" fill="white"/>
<path d="M452.127 118.49C452.127 118.878 452.169 119.192 452.243 119.422C452.326 119.653 452.431 119.904 452.578 120.177C452.63 120.261 452.651 120.344 452.651 120.418C452.651 120.523 452.588 120.627 452.452 120.732L451.792 121.172C451.698 121.235 451.604 121.266 451.52 121.266C451.415 121.266 451.31 121.214 451.205 121.12C451.059 120.963 450.933 120.795 450.828 120.627C450.724 120.449 450.619 120.25 450.503 120.009C449.686 120.973 448.66 121.455 447.423 121.455C446.543 121.455 445.841 121.204 445.328 120.701C444.815 120.198 444.553 119.527 444.553 118.689C444.553 117.798 444.867 117.076 445.506 116.531C446.145 115.986 446.994 115.714 448.073 115.714C448.429 115.714 448.796 115.745 449.183 115.797C449.571 115.85 449.969 115.934 450.388 116.028V115.263C450.388 114.467 450.221 113.911 449.896 113.587C449.561 113.262 448.995 113.105 448.188 113.105C447.821 113.105 447.444 113.147 447.057 113.241C446.669 113.335 446.292 113.45 445.925 113.597C445.758 113.671 445.632 113.712 445.558 113.733C445.485 113.754 445.433 113.765 445.391 113.765C445.244 113.765 445.171 113.66 445.171 113.44V112.927C445.171 112.759 445.192 112.633 445.244 112.56C445.297 112.487 445.391 112.413 445.538 112.34C445.904 112.151 446.344 111.994 446.858 111.868C447.371 111.732 447.916 111.669 448.492 111.669C449.739 111.669 450.65 111.952 451.237 112.518C451.813 113.084 452.106 113.943 452.106 115.095V118.49H452.127ZM447.874 120.083C448.22 120.083 448.576 120.02 448.953 119.894C449.33 119.768 449.665 119.538 449.948 119.223C450.116 119.024 450.242 118.804 450.304 118.553C450.367 118.301 450.409 117.998 450.409 117.641V117.201C450.105 117.128 449.781 117.065 449.445 117.023C449.11 116.981 448.785 116.96 448.461 116.96C447.759 116.96 447.245 117.097 446.9 117.379C446.554 117.662 446.386 118.06 446.386 118.584C446.386 119.077 446.512 119.443 446.774 119.695C447.025 119.957 447.392 120.083 447.874 120.083ZM456.287 121.214C456.098 121.214 455.972 121.183 455.889 121.109C455.805 121.046 455.731 120.9 455.668 120.701L453.206 112.602C453.144 112.392 453.112 112.256 453.112 112.183C453.112 112.015 453.196 111.921 453.364 111.921H454.39C454.589 111.921 454.726 111.952 454.799 112.026C454.883 112.088 454.946 112.235 455.008 112.434L456.769 119.37L458.403 112.434C458.455 112.225 458.518 112.088 458.602 112.026C458.686 111.963 458.832 111.921 459.021 111.921H459.859C460.058 111.921 460.194 111.952 460.278 112.026C460.362 112.088 460.435 112.235 460.477 112.434L462.133 119.454L463.945 112.434C464.008 112.225 464.081 112.088 464.155 112.026C464.238 111.963 464.375 111.921 464.563 111.921H465.538C465.705 111.921 465.799 112.005 465.799 112.183C465.799 112.235 465.789 112.288 465.778 112.35C465.768 112.413 465.747 112.497 465.705 112.612L463.18 120.711C463.117 120.921 463.044 121.057 462.96 121.12C462.876 121.183 462.74 121.225 462.562 121.225H461.661C461.462 121.225 461.326 121.193 461.242 121.12C461.158 121.046 461.085 120.91 461.043 120.701L459.419 113.943L457.806 120.69C457.753 120.9 457.69 121.036 457.607 121.109C457.523 121.183 457.376 121.214 457.188 121.214H456.287ZM469.749 121.497C469.204 121.497 468.66 121.434 468.136 121.308C467.612 121.183 467.203 121.046 466.931 120.889C466.763 120.795 466.648 120.69 466.606 120.596C466.564 120.502 466.543 120.397 466.543 120.303V119.768C466.543 119.548 466.627 119.443 466.784 119.443C466.847 119.443 466.91 119.454 466.973 119.475C467.036 119.496 467.13 119.538 467.235 119.58C467.591 119.737 467.979 119.862 468.387 119.946C468.806 120.03 469.215 120.072 469.634 120.072C470.294 120.072 470.807 119.957 471.164 119.726C471.52 119.496 471.708 119.161 471.708 118.731C471.708 118.438 471.614 118.197 471.425 117.998C471.237 117.798 470.881 117.62 470.367 117.453L468.848 116.981C468.083 116.74 467.518 116.384 467.172 115.913C466.826 115.452 466.648 114.938 466.648 114.393C466.648 113.953 466.742 113.566 466.931 113.23C467.12 112.895 467.371 112.602 467.685 112.371C468 112.13 468.356 111.952 468.775 111.827C469.194 111.701 469.634 111.648 470.095 111.648C470.325 111.648 470.566 111.659 470.797 111.69C471.038 111.722 471.258 111.764 471.478 111.806C471.687 111.858 471.886 111.91 472.075 111.973C472.264 112.036 472.41 112.099 472.515 112.162C472.662 112.246 472.766 112.329 472.829 112.424C472.892 112.508 472.924 112.623 472.924 112.769V113.262C472.924 113.482 472.84 113.597 472.683 113.597C472.599 113.597 472.463 113.555 472.285 113.471C471.687 113.199 471.017 113.063 470.273 113.063C469.676 113.063 469.204 113.157 468.88 113.356C468.555 113.555 468.387 113.859 468.387 114.289C468.387 114.582 468.492 114.833 468.701 115.033C468.911 115.232 469.299 115.431 469.854 115.609L471.342 116.08C472.096 116.321 472.641 116.656 472.965 117.086C473.29 117.516 473.447 118.008 473.447 118.553C473.447 119.003 473.353 119.412 473.175 119.768C472.986 120.124 472.735 120.439 472.41 120.69C472.085 120.952 471.698 121.141 471.247 121.277C470.776 121.424 470.283 121.497 469.749 121.497Z" fill="black"/>
<path fill-rule="evenodd" clip-rule="evenodd" d="M471.729 126.588C468.282 129.134 463.274 130.486 458.968 130.486C452.934 130.486 447.496 128.254 443.39 124.545C443.065 124.252 443.358 123.854 443.746 124.084C448.188 126.662 453.667 128.223 459.335 128.223C463.159 128.223 467.36 127.427 471.226 125.792C471.802 125.53 472.295 126.169 471.729 126.588Z" fill="black"/>
<path fill-rule="evenodd" clip-rule="evenodd" d="M473.165 124.953C472.725 124.387 470.253 124.68 469.132 124.816C468.797 124.858 468.744 124.565 469.048 124.345C471.018 122.962 474.255 123.36 474.632 123.821C475.009 124.292 474.527 127.53 472.684 129.081C472.401 129.321 472.128 129.196 472.254 128.881C472.673 127.844 473.605 125.508 473.165 124.953Z" fill="black"/>
<rect opacity="0.7" x="48" y="116" width="46" height="6" rx="3" fill="white"/>
<path d="M30 174C30 169.582 33.5817 166 38 166H531C542.598 166 552 175.402 552 187C552 198.598 542.598 208 531 208H38C33.5817 208 30 204.418 30 200V174Z" fill="url(#paint2_linear_1133_92113)"/>
<circle cx="531" cy="187" r="21" fill="white"/>
<path d="M531 173C523.3 173 517 179.3 517 187C517 194.7 523.3 201 531 201C538.7 201 545 194.7 545 187C545 179.3 538.7 173 531 173ZM523.2 194.8C521.1 192.7 520 189.9 520 187.2L530.9 198C528.1 197.9 525.3 196.9 523.2 194.8ZM533.4 197.7L520.3 184.6C521.4 179.7 525.8 176 531 176C534.7 176 537.9 177.8 539.9 180.5L538.4 181.8C536.7 179.5 534 178 531 178C527.1 178 523.8 180.5 522.5 184L534 195.5C536.9 194.5 539.1 192 539.8 189H535V187H542C542 192.2 538.3 196.6 533.4 197.7Z" fill="black"/>
<rect opacity="0.7" x="48" y="184" width="100" height="6" rx="3" fill="white"/>
<path d="M30 242C30 237.582 33.5817 234 38 234H429C440.598 234 450 243.402 450 255C450 266.598 440.598 276 429 276H38C33.5817 276 30 272.418 30 268V242Z" fill="url(#paint3_linear_1133_92113)"/>
<circle cx="429" cy="255" r="21" fill="white"/>
<path d="M429 244.5L439.5 262H418.5L429 244.5Z" fill="black"/>
<rect opacity="0.7" x="48" y="252" width="60" height="6" rx="3" fill="white"/>
<circle cx="296" cy="153" r="90.5" fill="black" stroke="#4D4D4D"/>
<circle cx="296" cy="153" r="74" fill="black" stroke="white" stroke-width="8"/>
<path d="M296 101C324.719 101 348 124.281 348 153C348 167.496 342.068 180.607 332.5 190.037" stroke="url(#paint4_linear_1133_92113)" stroke-width="20"/>
<path fill-rule="evenodd" clip-rule="evenodd" d="M290.477 171.758C285.041 168.508 279.264 164.834 277.453 158.756C275.479 152.134 277.122 144.644 282.371 139.388C287.62 134.131 295.104 132.483 301.723 134.453C307.798 136.262 311.473 142.041 314.725 147.478L340.634 190.804C341.803 192.758 341.487 195.266 339.869 196.886C338.251 198.507 335.745 198.824 333.791 197.656L290.477 171.758Z" fill="#EE2B6C"/>
<path d="M248 153C248 156.314 245.314 159 242 159C238.686 159 236 156.314 236 153C236 149.686 238.686 147 242 147C245.314 147 248 149.686 248 153Z" fill="white"/>
<path d="M264 191C264 194.314 261.314 197 258 197C254.686 197 252 194.314 252 191C252 187.686 254.686 185 258 185C261.314 185 264 187.686 264 191Z" fill="white"/>
<path d="M302 207C302 210.314 299.314 213 296 213C292.686 213 290 210.314 290 207C290 203.686 292.686 201 296 201C299.314 201 302 203.686 302 207Z" fill="white"/>
<defs>
<linearGradient id="paint0_linear_1133_92113" x1="30" y1="53.625" x2="534.348" y2="53.625" gradientUnits="userSpaceOnUse">
<stop stop-color="#2B4BEE"/>
<stop offset="1" stop-color="#2B4BEE" stop-opacity="0"/>
</linearGradient>
<linearGradient id="paint1_linear_1133_92113" x1="30" y1="121.625" x2="483.913" y2="121.625" gradientUnits="userSpaceOnUse">
<stop stop-color="#2B4BEE"/>
<stop offset="1" stop-color="#2B4BEE" stop-opacity="0"/>
</linearGradient>
<linearGradient id="paint2_linear_1133_92113" x1="30" y1="189.625" x2="556.539" y2="189.625" gradientUnits="userSpaceOnUse">
<stop stop-color="#2B4BEE"/>
<stop offset="1" stop-color="#2B4BEE" stop-opacity="0"/>
</linearGradient>
<linearGradient id="paint3_linear_1133_92113" x1="30" y1="257.625" x2="453.652" y2="257.625" gradientUnits="userSpaceOnUse">
<stop stop-color="#2B4BEE"/>
<stop offset="1" stop-color="#2B4BEE" stop-opacity="0"/>
</linearGradient>
<linearGradient id="paint4_linear_1133_92113" x1="360.299" y1="179.492" x2="275.525" y2="108.418" gradientUnits="userSpaceOnUse">
<stop stop-color="#2B4BEE"/>
<stop offset="1" stop-color="#2B4BEE" stop-opacity="0"/>
</linearGradient>
<clipPath id="clip0_1133_92113">
<rect width="31.5" height="15.75" fill="white" transform="translate(493.25 43.125)"/>
</clipPath>
</defs>
</svg>
