<svg width="137" height="49" viewBox="0 0 85 30" fill="none" xmlns="http://www.w3.org/2000/svg">
<g clip-path="url(#clip0_1600_91283)">
<path d="M16.9926 10.2461H11.5611L8.83398 15.0497L11.5483 19.804H16.9911L19.7054 15.0497L16.9918 10.2461H16.9926ZM16.2668 18.5004H12.2711L10.2811 15.0368L12.2733 11.5368H16.2704L18.2618 15.0368L16.269 18.5011L16.2668 18.5004Z" fill="white"/>
<path d="M10.2803 15.0486L12.2717 18.5H16.2688L18.2731 15.0486L16.2688 11.5H12.2717L10.2803 15.0486Z" fill="#E83030"/>
<path d="M16.9926 20.4551H11.5611L8.83398 25.2458L11.5483 30.0001H16.9911L19.7054 25.2458L16.9918 20.4551H16.9926ZM16.2676 28.7458H12.2711L10.2811 25.2822L12.2733 21.7822H16.2704L18.2618 25.2822L16.269 28.7465L16.2676 28.7458Z" fill="white"/>
<path d="M10.2803 25.2461L12.2717 28.7461H16.2688L18.2731 25.2461L16.2688 21.7461H12.2717L10.2803 25.2461Z" fill="#6B91C7"/>
<path d="M16.9926 0H11.5611L8.83398 4.80357L11.5611 9.55786H17.004L19.7183 4.80357L16.9926 0ZM16.2676 8.25428H12.2711L10.2811 4.79071L12.2733 1.255H16.2704L18.2618 4.755L16.269 8.25428H16.2676Z" fill="white"/>
<path d="M10.2803 4.80176L12.2717 8.25391H16.2688L18.2731 4.80176L16.2688 1.25391H12.2717L10.2803 4.80176Z" fill="#F9C31F"/>
<path d="M25.8277 15.3867H20.4399L17.7256 20.1903L20.4399 24.9446H25.8827L28.597 20.1903L25.8277 15.3867ZM25.1027 23.6617H21.107L19.1149 20.1974L21.107 16.6974H25.1034L27.0956 20.1974L25.1034 23.6617H25.1027Z" fill="white"/>
<path d="M19.1055 20.207L21.1262 23.6713H25.1119L27.1519 20.207L25.1119 16.6592H21.1262L19.1055 20.2078V20.207Z" fill="#795AA5"/>
<path d="M25.8277 5.14062H20.4399L17.7256 9.89491L20.4399 14.6492H25.8827L28.597 9.89491L25.8277 5.14062ZM25.1027 13.4071H21.107L19.1149 9.94277L21.107 6.44277H25.1034L27.0956 9.94277L25.1034 13.4071H25.1027Z" fill="white"/>
<path d="M19.1055 9.9455L21.094 13.4555H25.1119L27.1519 9.99193L25.1119 6.44336H21.094L19.1055 9.9455Z" fill="#F17423"/>
<path d="M8.11071 15.3867H2.71429L0 20.1903L2.71429 24.9446H8.15714L10.8714 20.1903L8.11071 15.3867ZM7.38571 23.6539H3.43714L1.44571 20.1896L3.43714 16.6896H7.43429L9.42643 20.1896L7.38643 23.6539H7.38571Z" fill="white"/>
<path d="M1.44531 20.1892L3.43746 23.6528H7.38603L9.42603 20.1885L7.38603 16.6406H3.43746L1.44531 20.1892Z" fill="#97C639"/>
<path d="M8.11071 5.14062H2.71429L0 9.89491L2.71429 14.6492H8.15714L10.8714 9.89491L8.11071 5.14062ZM7.38571 13.4078H3.43714L1.44571 9.94348L3.43714 6.44348H7.43429L9.42643 9.94348L7.38643 13.4078H7.38571Z" fill="white"/>
<path d="M1.44531 9.94239L3.43746 13.4067H7.38603L9.42603 9.94239L7.38603 6.39453H3.43746L1.44531 9.94239Z" fill="#C9DB70"/>
<path d="M40.7771 10.0529C41.2199 10.0557 41.6621 10.1064 42.0942 10.205C42.5042 10.2936 42.8514 10.455 43.1871 10.6243V11.9371C42.8127 11.7984 42.4312 11.6797 42.0442 11.5814C41.6599 11.4921 41.3128 11.4286 40.9271 11.4286C40.5414 11.4286 40.1699 11.4921 39.7842 11.6071C39.3985 11.7214 39.0771 11.9371 38.7535 12.2414C38.4556 12.5464 38.2192 12.9279 38.0214 13.4107C37.8478 13.8936 37.7614 14.4907 37.7614 15.2143C37.7614 15.7143 37.8228 16.2129 37.9728 16.6621C38.1064 17.08 38.3171 17.4686 38.5935 17.805C38.8671 18.1357 39.2142 18.3771 39.5871 18.555C39.9971 18.7321 40.4692 18.8207 41.0028 18.8207C41.3871 18.8207 41.7592 18.7957 42.1821 18.7064C42.5699 18.6114 42.9514 18.4921 43.3249 18.3507V19.6721C43.2135 19.735 43.0649 19.8243 42.8906 19.8879C42.7164 19.9521 42.5056 20.0021 42.2699 20.0664C42.0585 20.1293 41.8356 20.155 41.5628 20.1807L40.8299 20.2436C40.208 20.2518 39.5897 20.1485 39.0042 19.9386C38.453 19.7307 37.9437 19.4253 37.5006 19.0371C37.0622 18.5927 36.7235 18.0599 36.5071 17.4743C36.2628 16.8393 36.1221 16.1264 36.1221 15.2514C36.1221 14.6157 36.1842 14.0443 36.3335 13.5371C36.4363 13.0615 36.6168 12.6061 36.8678 12.1893C37.1049 11.8064 37.3564 11.465 37.6628 11.1907C37.9558 10.93 38.2811 10.708 38.6306 10.53C38.9778 10.3521 39.3385 10.2257 39.6864 10.1371L40.7792 10.035L40.7771 10.0529ZM45.7085 8.07071V6.29214H47.2535V8.07071H45.7085ZM45.7328 20V10.3193H47.2778V20.0079L45.7328 20.0007V20ZM50.4649 20.0079V5.25H52.0106V20.0079L50.4649 20.0086V20.0079ZM55.1642 8.07143V6.29286H56.7092V8.07143H55.1642ZM55.1885 20V10.3193H56.7342V20.0079L55.1885 20.0007V20ZM63.6056 20.2493C63.1622 20.25 62.7201 20.199 62.2885 20.0971C61.9279 19.9923 61.5816 19.843 61.2578 19.6529C60.9606 19.4364 60.6992 19.2336 60.5014 18.9286C60.2849 18.6605 60.1196 18.355 60.0135 18.0271C59.9238 17.7616 59.8532 17.4899 59.8021 17.2143L59.7399 16.2486V10.3293H61.2856V16.2486C61.2856 16.7957 61.3478 17.2471 61.4971 17.5971C61.6464 18.0164 61.9071 18.3207 62.2542 18.5614C62.5999 18.8036 63.0735 18.9186 63.6071 18.9186C64.1914 18.9186 64.6628 18.8043 65.0221 18.5243C65.3706 18.2586 65.6435 17.9271 65.7792 17.47C65.8906 17.14 65.9528 16.7214 65.9528 16.2386V10.315H67.4985V16.2607C67.4985 16.5621 67.4778 16.8636 67.4364 17.1621C67.4124 17.4269 67.354 17.6874 67.2628 17.9371C67.1514 18.2671 66.9649 18.5721 66.7742 18.865C66.5628 19.1314 66.3028 19.3643 66.0178 19.5886C65.7206 19.805 65.3721 19.945 64.9621 20.0714C64.5209 20.1913 64.0656 20.2511 63.6085 20.2493H63.6056ZM78.1128 19.9993H76.5671V13.7671C76.5685 13.402 76.5185 13.0384 76.4185 12.6871C76.3314 12.3821 76.2071 12.14 76.0335 11.9629C75.8594 11.7797 75.6476 11.6367 75.4128 11.5436C75.1685 11.455 74.9249 11.4293 74.6185 11.4293C74.0842 11.4248 73.5607 11.5797 73.1149 11.8743C72.6371 12.2126 72.2285 12.6393 71.9114 13.1314V20.0179H70.3714V10.3193H71.5749L71.8728 11.6679H71.8971L72.4564 11.0321C72.6678 10.855 72.8906 10.6764 73.1271 10.5336C73.3799 10.378 73.6571 10.2662 73.9471 10.2029C74.2449 10.1143 74.5678 10.0886 74.9235 10.0886C75.6306 10.0886 76.2149 10.2671 76.6864 10.5886C77.1585 10.9443 77.5064 11.4014 77.7799 11.9986H77.8042C78.2142 11.4014 78.7114 10.9186 79.2442 10.5886C79.7771 10.2579 80.4235 10.0886 81.1199 10.0886C81.4428 10.0886 81.7906 10.1529 82.1756 10.2414C82.5599 10.3307 82.8835 10.5079 83.2064 10.7407C83.5292 10.9736 83.7649 11.3379 83.9628 11.795C84.1742 12.2393 84.2856 12.8114 84.2856 13.5357V20.0279H82.7956V13.79C82.7965 13.4248 82.7463 13.0613 82.6464 12.71C82.5592 12.4057 82.4349 12.1636 82.2614 11.9864C82.0874 11.8035 81.8759 11.6605 81.6413 11.5671C81.3971 11.4779 81.1528 11.4529 80.8464 11.4529C80.2878 11.4529 79.7906 11.605 79.3435 11.8971C78.8632 12.2414 78.4469 12.6671 78.1135 13.155L78.1128 20.0007V19.9993Z" fill="white"/>
</g>
<defs>
<clipPath id="clip0_1600_91283">
<rect width="84.2857" height="30" fill="white"/>
</clipPath>
</defs>
</svg>
