<svg width="180" height="58" viewBox="0 0 180 58" fill="none" xmlns="http://www.w3.org/2000/svg">
<path d="M82.4382 17.887C83.4312 17.8934 84.4227 18.0084 85.3917 18.2318C86.3111 18.4326 87.0895 18.7985 87.8423 19.1823V22.1582C87.0028 21.8437 86.1473 21.5746 85.2796 21.3519C84.4179 21.1495 83.6394 21.0054 82.7745 21.0054C81.9096 21.0054 81.0768 21.1495 80.2118 21.4102C79.3469 21.6692 78.6262 22.1582 77.9006 22.848C77.2327 23.5393 76.7025 24.4039 76.2589 25.4984C75.8697 26.593 75.6759 27.9466 75.6759 29.5867C75.6759 30.7201 75.8136 31.8503 76.15 32.8687C76.4495 33.8159 76.922 34.6967 77.5418 35.4593C78.1553 36.2089 78.9337 36.7562 79.7698 37.1594C80.6891 37.5609 81.7479 37.7617 82.9443 37.7617C83.806 37.7617 84.6405 37.705 85.5887 37.5026C86.4584 37.2873 87.3137 37.0169 88.1514 36.6963V39.6917C87.9015 39.8341 87.5684 40.0365 87.1776 40.1806C86.7868 40.3264 86.3143 40.4397 85.7857 40.5854C85.3116 40.7279 84.8119 40.7862 84.2 40.8445L82.5567 40.987C81.1622 41.0057 79.7756 40.7715 78.4628 40.2956C77.2269 39.8243 76.0848 39.1322 75.0913 38.2523C74.1082 37.2447 73.3487 36.037 72.8633 34.7096C72.3155 33.2702 72 31.6543 72 29.6709C72 28.2299 72.1393 26.9346 72.4741 25.785C72.7045 24.7069 73.1093 23.6746 73.6722 22.7298C74.2039 21.8619 74.7677 21.088 75.4548 20.4662C76.1119 19.8753 76.8413 19.3719 77.6251 18.9685C78.4035 18.5654 79.2124 18.2788 79.9924 18.078L82.443 17.8465L82.4382 17.887V17.887ZM93.4962 13.3939V9.3623H96.9607V13.3939H93.4962ZM93.5507 40.4348V18.4909H97.0151V40.4526L93.5507 40.4365V40.4348ZM104.162 40.4526V7H107.628V40.4526L104.162 40.4543V40.4526ZM114.699 13.3955V9.36392H118.164V13.3955H114.699ZM114.754 40.4348V18.4909H118.22V40.4526L114.754 40.4365V40.4348ZM133.628 40.9999C132.634 41.0016 131.642 40.8858 130.675 40.655C129.866 40.4173 129.09 40.079 128.363 39.6479C127.697 39.1573 127.111 38.6975 126.667 38.0062C126.182 37.3985 125.811 36.7059 125.573 35.9628C125.372 35.3608 125.214 34.745 125.099 34.1203L124.96 31.9312V18.5136H128.426V31.9312C128.426 33.1715 128.565 34.1947 128.9 34.9881C129.235 35.9385 129.819 36.6283 130.598 37.1739C131.373 37.7228 132.435 37.9835 133.631 37.9835C134.941 37.9835 135.999 37.7244 136.804 37.0897C137.586 36.4874 138.198 35.7361 138.502 34.6999C138.752 33.9519 138.891 33.0031 138.891 31.9085V18.4812H142.357V31.9587C142.357 32.642 142.311 33.3253 142.218 34.0021C142.164 34.6022 142.033 35.1928 141.829 35.7588C141.579 36.5068 141.161 37.1982 140.733 37.8621C140.259 38.466 139.676 38.9938 139.037 39.5022C138.371 39.9928 137.589 40.3102 136.67 40.5967C135.68 40.8684 134.659 41.004 133.634 40.9999H133.628V40.9999ZM166.158 40.4332H162.692V26.3064C162.695 25.4786 162.583 24.6544 162.359 23.8583C162.164 23.1669 161.885 22.618 161.496 22.2165C161.105 21.8014 160.631 21.4771 160.104 21.2661C159.556 21.0653 159.01 21.007 158.323 21.007C157.125 20.9967 155.951 21.3479 154.951 22.0157C153.88 22.7825 152.964 23.7498 152.252 24.8654V40.4753H148.799V18.4909H151.498L152.166 21.5478H152.22L153.475 20.1068C153.949 19.7052 154.448 19.3005 154.978 18.9766C155.545 18.6241 156.167 18.3706 156.817 18.227C157.485 18.0262 158.209 17.9679 159.007 17.9679C160.592 17.9679 161.903 18.3727 162.96 19.1013C164.018 19.9076 164.798 20.9439 165.412 22.2974H165.466C166.386 20.9439 167.5 19.8493 168.695 19.1013C169.89 18.3517 171.34 17.9679 172.901 17.9679C173.625 17.9679 174.405 18.1136 175.269 18.3144C176.13 18.5168 176.856 18.9183 177.58 19.4462C178.304 19.974 178.832 20.7998 179.276 21.836C179.75 22.8431 180 24.14 180 25.7818V40.498H176.659V26.3582C176.661 25.5304 176.548 24.7063 176.324 23.9101C176.129 23.2203 175.85 22.6715 175.461 22.2699C175.071 21.8553 174.596 21.531 174.071 21.3195C173.523 21.1171 172.975 21.0604 172.288 21.0604C171.035 21.0604 169.921 21.4053 168.918 22.0675C167.841 22.8478 166.907 23.8128 166.16 24.9188L166.158 40.4365V40.4332Z" fill="white"/>
<path d="M20 29.1104L24.4855 37H33.4864L38 29.1104L33.4864 21H24.4855L20 29.1104Z" fill="white" stroke="white" stroke-width="2"/>
<path d="M20 49L24.4855 57H33.4864L38 49L33.4864 41H24.4855L20 49Z" fill="white" stroke="white" stroke-width="2"/>
<path d="M20 9.11041L24.4855 17H33.4864L38 9.11041L33.4864 1H24.4855L20 9.11041Z" fill="white" stroke="white" stroke-width="2"/>
<path d="M37.9999 39.0967L42.5197 47H51.4363L56 39.0967L51.4363 31H42.5197L37.9999 39.0967Z" fill="white" stroke="white" stroke-width="2"/>
<path d="M38 18.9901L42.4481 27H51.4363L56 19.0967L51.4363 11L42.4481 11L38 18.9901Z" fill="white" stroke="white" stroke-width="2"/>
<path d="M2 39.0967L6.49249 47H15.3986L20 39.0967L15.3986 31H6.49249L2 39.0967Z" fill="white" stroke="white" stroke-width="2"/>
<path d="M2 19.0967L6.49249 27H15.3986L20 19.0967L15.3986 11H6.49249L2 19.0967Z" fill="white" stroke="white" stroke-width="2"/>
</svg>
