<svg width="1544" height="658" viewBox="0 0 1544 658" fill="none" xmlns="http://www.w3.org/2000/svg">
<rect x="682.5" y="186.5" width="179" height="179" fill="#1A1A1A" stroke="#666666" stroke-dasharray="5 5"/>
<rect x="722" y="226" width="100" height="100" fill="white"/>
<circle cx="772" cy="276" r="28" fill="black"/>
<rect x="761" y="265" width="22" height="22" fill="white"/>
<circle cx="1384" cy="210" r="28" stroke="#EE2B6C" stroke-width="24"/>
<rect x="1199" y="261" width="230" height="38" rx="19" stroke="white" stroke-width="10"/>
<rect x="1193.5" y="255.5" width="241" height="49" stroke="#2B4BEE"/>
<rect x="1189" y="251" width="9" height="9" fill="white" stroke="#2B4BEE" stroke-width="2"/>
<rect x="1189" y="300" width="9" height="9" fill="white" stroke="#2B4BEE" stroke-width="2"/>
<rect x="1430" y="251" width="9" height="9" fill="white" stroke="#2B4BEE" stroke-width="2"/>
<rect x="1430" y="300" width="9" height="9" fill="white" stroke="#2B4BEE" stroke-width="2"/>
<rect x="1244" y="250" width="36" height="140" transform="rotate(-180 1244 250)" fill="#2B4BEE"/>
<circle cx="46" cy="51" r="13" fill="black" stroke="#9BDEFF" stroke-width="10"/>
<line x1="972" y1="607.5" x2="572" y2="607.5" stroke="#666666"/>
<rect x="577" y="612" width="9" height="9" transform="rotate(180 577 612)" fill="white" stroke="#2B4BEE" stroke-width="2"/>
<rect x="976" y="612" width="9" height="9" transform="rotate(180 976 612)" fill="white" stroke="#2B4BEE" stroke-width="2"/>
<path d="M524 434C524 434 580.959 607 772 607C963.041 607 1020 434 1020 434" stroke="white" stroke-width="4" stroke-linecap="round"/>
<path d="M524 434C524 434 580.959 607 772 607C963.041 607 1020 434 1020 434" stroke="#666666" stroke-linecap="round"/>
<circle cx="772" cy="607" r="8" fill="#2B4BEE" stroke="white" stroke-width="4"/>
<circle cx="524" cy="434" r="6" fill="white" stroke="#2B4BEE" stroke-width="4"/>
<circle cx="1020" cy="434" r="6" fill="white" stroke="#2B4BEE" stroke-width="4"/>
<g clip-path="url(#clip0_1287_91382)">
<circle cx="1362" cy="632" r="16" stroke="white" stroke-width="8"/>
<rect x="1181.1" y="625.164" width="360" height="20" transform="rotate(-12.4882 1181.1 625.164)" fill="white"/>
<rect x="1180.5" y="624.783" width="361" height="21" transform="rotate(-12.4882 1180.5 624.783)" stroke="#2B4BEE"/>
<rect x="1175.13" y="621.363" width="9" height="9" transform="rotate(-12.4882 1175.13 621.363)" fill="white" stroke="#2B4BEE" stroke-width="2"/>
<rect x="1179.67" y="641.866" width="9" height="9" transform="rotate(-12.4882 1179.67 641.866)" fill="white" stroke="#2B4BEE" stroke-width="2"/>
<rect x="1527.59" y="543.301" width="9" height="9" transform="rotate(-12.4882 1527.59 543.301)" fill="white" stroke="#2B4BEE" stroke-width="2"/>
<rect x="1532.13" y="563.804" width="9" height="9" transform="rotate(-12.4882 1532.13 563.804)" fill="white" stroke="#2B4BEE" stroke-width="2"/>
<circle cx="1206" cy="585" r="28" fill="#00CC76"/>
</g>
<rect width="28" height="120" transform="matrix(0.173648 0.984808 0.984808 -0.173648 470.477 106.631)" fill="white"/>
<rect x="0.579228" y="0.40558" width="29" height="121" transform="matrix(0.173648 0.984808 0.984808 -0.173648 469.4 105.726)" stroke="#2B4BEE"/>
<rect x="464.686" y="102.576" width="9" height="9" transform="rotate(-10 464.686 102.576)" fill="white" stroke="#2B4BEE" stroke-width="2"/>
<rect x="469.721" y="131.135" width="9" height="9" transform="rotate(-10 469.721 131.135)" fill="white" stroke="#2B4BEE" stroke-width="2"/>
<rect x="583.846" y="81.5641" width="9" height="9" transform="rotate(-10 583.846 81.5641)" fill="white" stroke="#2B4BEE" stroke-width="2"/>
<rect x="588.885" y="110.124" width="9" height="9" transform="rotate(-10 588.885 110.124)" fill="white" stroke="#2B4BEE" stroke-width="2"/>
<line x1="350.001" y1="171.782" x2="270.001" y2="33.2182" stroke="#666666"/>
<rect x="268.604" y="39.7983" width="9" height="9" transform="rotate(-120 268.604 39.7983)" fill="white" stroke="#2B4BEE" stroke-width="2"/>
<rect x="348.104" y="177.496" width="9" height="9" transform="rotate(-120 348.104 177.496)" fill="white" stroke="#2B4BEE" stroke-width="2"/>
<path d="M8 8C8 8 8 78 90.9992 148C173.998 218 351.999 175 310.999 105C269.999 35 90.9992 118 215 363" stroke="white" stroke-width="4" stroke-linecap="round"/>
<path d="M8 8C8 8 8 78 90.9992 148C173.998 218 351.999 175 310.999 105C269.999 35 90.9992 118 215 363" stroke="#666666" stroke-linecap="round"/>
<circle cx="8" cy="8" r="6" fill="white" stroke="#2B4BEE" stroke-width="4"/>
<circle cx="214" cy="361" r="6" fill="white" stroke="#2B4BEE" stroke-width="4"/>
<circle cx="310" cy="102" r="8" fill="#2B4BEE" stroke="white" stroke-width="4"/>
<g clip-path="url(#clip1_1287_91382)">
<rect x="165.967" y="545.078" width="245" height="33" rx="16.5" transform="rotate(20 165.967 545.078)" stroke="#EE2B6C" stroke-width="3"/>
<circle cx="175.828" cy="566.226" r="10" transform="rotate(20 175.828 566.226)" stroke="white" stroke-width="4"/>
<circle cx="175.828" cy="566.226" r="4" transform="rotate(20 175.828 566.226)" fill="white"/>
<circle cx="375.043" cy="638.735" r="10" transform="rotate(20 375.043 638.735)" stroke="white" stroke-width="4"/>
<circle cx="375.043" cy="638.734" r="4" transform="rotate(20 375.043 638.734)" fill="white"/>
<rect x="5.5" y="603.5" width="194" height="49" stroke="#2B4BEE"/>
<rect x="11" y="609" width="183" height="38" rx="19" stroke="white" stroke-width="10"/>
<rect x="1" y="599" width="9" height="9" fill="white" stroke="#2B4BEE" stroke-width="2"/>
<rect x="1" y="648" width="9" height="9" fill="white" stroke="#2B4BEE" stroke-width="2"/>
<rect x="195" y="599" width="9" height="9" fill="white" stroke="#2B4BEE" stroke-width="2"/>
<rect x="195" y="648" width="9" height="9" fill="white" stroke="#2B4BEE" stroke-width="2"/>
</g>
<defs>
<clipPath id="clip0_1287_91382">
<rect width="370" height="112" fill="white" transform="translate(1174 540)"/>
</clipPath>
<clipPath id="clip1_1287_91382">
<rect width="393" height="110" fill="white" transform="translate(0 548)"/>
</clipPath>
</defs>
</svg>
