<svg width="1270" height="134" viewBox="0 0 1270 134" fill="none" xmlns="http://www.w3.org/2000/svg">
<g clip-path="url(#clip0_1395_91897)">
<rect x="164.73" y="58" width="180" height="26" rx="13" transform="rotate(15 164.73 58)" fill="white"/>
<path d="M875.243 28.6585C878.385 23.7029 885.615 23.7029 888.757 28.6585L945.213 117.717C948.59 123.043 944.763 130 938.457 130H825.543C819.237 130 815.41 123.043 818.787 117.717L875.243 28.6585Z" fill="#2B4BEE"/>
<circle cx="370" cy="98" r="26" stroke="#2B4BEE" stroke-width="12"/>
<circle cx="787" cy="100" r="30" fill="#EE2B6C"/>
<circle cx="950" cy="58" r="24" stroke="#EE2B6C" stroke-width="12"/>
<circle cx="210" cy="116" r="14" fill="white"/>
<circle cx="18" cy="112" r="15" stroke="white" stroke-width="6"/>
<circle cx="312.999" cy="61.0001" r="32" transform="rotate(-16.954 312.999 61.0001)" fill="#EE2B6C"/>
<g clip-path="url(#clip1_1395_91897)">
<path d="M325.303 49.6888C324.347 48.7037 323.173 47.9565 321.876 47.5073C320.579 47.0581 319.195 46.9193 317.835 47.1022C316.474 47.2851 315.176 47.7845 314.044 48.5604C312.911 49.3362 311.977 50.3668 311.315 51.5694L310.53 52.8975L309.182 52.2586C307.959 51.6113 306.599 51.2653 305.215 51.2493C303.831 51.2333 302.463 51.5479 301.226 52.1668C299.99 52.7647 298.914 53.649 298.088 54.746C297.263 55.8431 296.711 57.1213 296.479 58.4745C296.161 60.2606 296.421 62.1014 297.221 63.7298C298.02 65.3581 299.318 66.6892 300.926 67.5299L316.634 76.2008C316.79 76.2868 316.962 76.3406 317.139 76.3591C317.317 76.3776 317.496 76.3603 317.666 76.3084C317.837 76.2564 317.995 76.1707 318.132 76.0565C318.269 75.9422 318.382 75.8017 318.463 75.6432L326.653 59.7119C327.523 58.1146 327.861 56.2817 327.618 54.4793C327.376 52.6768 326.564 50.9988 325.303 49.6888Z" fill="white"/>
</g>
<circle cx="728" cy="106" r="21" stroke="white" stroke-width="6"/>
<rect x="39" y="70" width="114" height="60" rx="30" fill="#EE2B6C"/>
<circle cx="69" cy="100" r="24" fill="white"/>
<rect x="157" y="94" width="36" height="36" rx="8" fill="#2B4BEE"/>
<rect x="217.248" y="30" width="64" height="36" rx="18" transform="rotate(14.8851 217.248 30)" fill="#2B4BEE"/>
<rect width="48" height="12" rx="6" transform="matrix(-1 0 0 1 275 118)" fill="#2B4BEE"/>
<rect x="661" y="92" width="38" height="38" rx="8" fill="#2B4BEE"/>
<rect x="1234" y="94" width="36" height="36" rx="18" fill="#2B4BEE"/>
<path fill-rule="evenodd" clip-rule="evenodd" d="M125.961 21.12C123.476 22.3243 122.438 25.3151 123.642 27.8L133.237 47.5972L113.439 57.1923C110.954 58.3967 109.916 61.3874 111.12 63.8724C112.324 66.3573 115.315 67.3955 117.8 66.1912L137.598 56.596L147.193 76.3938C148.398 78.8788 151.388 79.9169 153.873 78.7126C156.358 77.5083 157.396 74.5175 156.192 72.0325L146.597 52.2347L166.394 42.6403C168.879 41.4359 169.917 38.4452 168.713 35.9602C167.508 33.4752 164.518 32.4371 162.033 33.6414L142.236 43.2359L132.641 23.4388C131.437 20.9538 128.446 19.9157 125.961 21.12Z" fill="white"/>
<rect x="547" y="111" width="109" height="19" rx="9.5" fill="#EE2B6C"/>
<path d="M952 130C952 96.8629 979.311 70 1013 70C1046.69 70 1074 96.8629 1074 130L952 130Z" fill="white"/>
<circle cx="1105" cy="97" r="31" stroke="#2B4BEE" stroke-width="4"/>
<rect x="1089" y="85" width="32" height="4" rx="2" fill="white"/>
<rect x="1089" y="95" width="24" height="4" rx="2" fill="white"/>
<rect x="1089" y="105" width="32" height="4" rx="2" fill="white"/>
<rect x="978.883" y="39.0142" width="36" height="100" rx="4" transform="rotate(-62.5958 978.883 39.0142)" fill="#2B4BEE"/>
<rect x="1146" y="45" width="80" height="80" rx="28" stroke="white" stroke-width="10"/>
<circle cx="1186" cy="100" r="15" fill="white"/>
<rect x="408.439" y="80.5939" width="452" height="46" rx="23" transform="rotate(-10 408.439 80.5939)" stroke="white" stroke-width="10"/>
<rect x="483.977" y="88.5986" width="56" height="16" rx="8" transform="rotate(-10 483.977 88.5986)" fill="white"/>
<circle cx="435.084" cy="99.2508" r="14" transform="rotate(-10 435.084 99.2508)" fill="#EE2B6C"/>
<circle cx="466.597" cy="93.6936" r="14" transform="rotate(-10 466.597 93.6936)" fill="#2B4BEE"/>
</g>
<defs>
<clipPath id="clip0_1395_91897">
<rect width="1270" height="134" fill="white"/>
</clipPath>
<clipPath id="clip1_1395_91897">
<rect width="32" height="32" fill="white" transform="translate(293.611 52.2742) rotate(-16.954)"/>
</clipPath>
</defs>
</svg>
