<svg width="466" height="90" viewBox="0 0 466 90" fill="none" xmlns="http://www.w3.org/2000/svg">
<g clip-path="url(#clip0_2534_91824)">
<path d="M416.293 21.5924C418.894 17.4761 424.898 17.4761 427.499 21.5924L463.573 78.6717C466.362 83.0852 463.191 88.8412 457.97 88.8412H385.822C380.601 88.8412 377.43 83.0852 380.219 78.6717L416.293 21.5924Z" fill="#2B4BEE"/>
<path d="M91.7094 67.0986C91.7094 76.378 84.214 83.8744 75 83.8744C65.786 83.8744 58.2906 76.378 58.2906 67.0986C58.2906 57.8193 65.786 50.3228 75 50.3228C84.214 50.3228 91.7094 57.8193 91.7094 67.0986Z" stroke="#2B4BEE" stroke-width="9.94252"/>
<ellipse cx="357.533" cy="68.4543" rx="20.3256" ry="20.3879" fill="#EE2B6C"/>
<ellipse cx="39.9314" cy="78" rx="10.9802" ry="11" fill="white"/>
<ellipse rx="21.6863" ry="21.7414" transform="matrix(0.95629 -0.29242 0.290789 0.956787 36.3809 41.9448)" fill="#EE2B6C"/>
<g clip-path="url(#clip1_2534_91824)">
<path d="M44.7926 34.2665C44.1438 33.597 43.3473 33.0893 42.467 32.784C41.5867 32.4787 40.6471 32.3844 39.7238 32.5087C38.8004 32.633 37.9191 32.9724 37.1506 33.4996C36.3821 34.0269 35.7478 34.7273 35.2986 35.5445L34.7655 36.4471L33.8509 36.013C33.0206 35.573 32.0975 35.3379 31.1582 35.327C30.2189 35.3162 29.2906 35.5299 28.4504 35.9505C27.6115 36.3569 26.8815 36.9578 26.3212 37.7034C25.7608 38.4489 25.3862 39.3176 25.2285 40.2372C25.0129 41.4511 25.1894 42.7021 25.7322 43.8087C26.2749 44.9153 27.1558 45.8199 28.247 46.3912L38.9089 52.2839C39.0149 52.3424 39.1315 52.379 39.2519 52.3915C39.3722 52.4041 39.4938 52.3923 39.6096 52.357C39.7253 52.3217 39.8328 52.2635 39.9257 52.1858C40.0185 52.1082 40.0949 52.0127 40.1503 51.905L45.7094 41.0781C46.2998 39.9927 46.5293 38.747 46.3644 37.5221C46.1995 36.2971 45.6489 35.1567 44.7926 34.2665V34.2665Z" fill="white"/>
</g>
<path d="M331.329 72.5329C331.329 80.1753 325.155 86.3576 317.554 86.3576C309.954 86.3576 303.78 80.1753 303.78 72.5329C303.78 64.8906 309.954 58.7083 317.554 58.7083C325.155 58.7083 331.329 64.8906 331.329 72.5329Z" stroke="white" stroke-width="4.97126"/>
<rect x="2" y="61" width="23.9568" height="28" rx="6.62835" fill="#2B4BEE"/>
<rect x="272.161" y="63.0156" width="25.7458" height="25.8246" rx="6.62835" fill="#2B4BEE"/>
<rect x="194.926" y="75.9297" width="73.8498" height="12.9123" rx="6.45616" fill="#EE2B6C"/>
<rect x="4.79665" y="3.35865" width="304.758" height="29.7684" rx="14.8842" transform="matrix(0.984717 -0.174164 0.173134 0.984898 96.6158 53.4057)" stroke="white" stroke-width="8.28544"/>
<rect width="37.9447" height="10.8725" rx="5.43626" transform="matrix(0.984717 -0.174164 0.173134 0.984898 152.228 60.7148)" fill="white"/>
<ellipse rx="9.48617" ry="9.51346" transform="matrix(0.984717 -0.174164 0.173134 0.984898 119.103 67.952)" fill="#EE2B6C"/>
<ellipse rx="9.48617" ry="9.51346" transform="matrix(0.984717 -0.174164 0.173134 0.984898 140.452 64.1786)" fill="#2B4BEE"/>
</g>
<defs>
<clipPath id="clip0_2534_91824">
<rect width="466" height="90" fill="white"/>
</clipPath>
<clipPath id="clip1_2534_91824">
<rect width="21.6863" height="21.7414" fill="white" transform="matrix(0.95629 -0.29242 0.290789 0.956787 23.2451 36.0117)"/>
</clipPath>
</defs>
</svg>
