<svg width="34" height="30" viewBox="0 0 34 30" fill="none" xmlns="http://www.w3.org/2000/svg">
<path fill-rule="evenodd" clip-rule="evenodd" d="M18.4358 11.2552L26.8697 0L33.9474 30H0L11.3582 6.2069L18.4358 11.2552ZM14.0488 22.0655L16.0662 24.78V24.7791H18.2308L15.8643 21.5948L17.9493 18.7888L16.5327 17.7822L14.0488 21.125V16.0179L12.1817 14.6922V24.78H14.0488V22.0655ZM18.5262 21.7854C18.5262 23.5011 19.9487 24.8929 21.7044 24.8929C23.4602 24.8929 24.8827 23.5011 24.8827 21.7864C24.8827 20.2409 23.7297 18.96 22.2187 18.7198L23.7387 16.6734L22.3222 15.6668L19.135 19.9569C18.752 20.4705 18.5262 21.1017 18.5262 21.7854ZM23.0698 21.7861C23.0698 22.5237 22.4584 23.1215 21.704 23.1215C20.9497 23.1215 20.3383 22.5237 20.3383 21.7861C20.3383 21.0486 20.9497 20.4508 21.704 20.4508C22.4584 20.4508 23.0698 21.0486 23.0698 21.7861Z" fill="white"/>
</svg>
