<svg width="144" height="30" viewBox="0 0 144 30" fill="none" xmlns="http://www.w3.org/2000/svg">
<path d="M111.242 23.3101V7.83003H106.328V23.3101H111.242Z" fill="white"/>
<path d="M106.829 4.63503C107.365 5.16528 108.017 5.4301 108.785 5.4301C109.574 5.4301 110.236 5.16528 110.772 4.63503C111.308 4.10518 111.576 3.47008 111.576 2.7301C111.576 1.99033 111.297 1.34989 110.742 0.810017C110.185 0.269939 109.533 0 108.785 0C108.037 0 107.39 0.269939 106.844 0.810017C106.298 1.34989 106.025 1.99033 106.025 2.7301C106.025 3.47008 106.293 4.10518 106.829 4.63503Z" fill="white"/>
<path d="M61.8629 21.7202L64.0165 18.48C65.1283 19.0604 66.0588 19.4654 66.807 19.6951C67.5549 19.9253 68.3033 20.04 69.0517 20.04C69.7386 20.04 70.285 19.9253 70.6894 19.6951C71.0939 19.4654 71.2965 19.1603 71.2965 18.7801C71.2965 18.48 71.1793 18.2401 70.9471 18.0601C70.7149 17.8801 70.3456 17.7503 69.8399 17.6701L66.8374 17.13C65.3208 16.8502 64.173 16.3303 63.3948 15.5701C62.616 14.8103 62.227 13.83 62.227 12.6301C62.227 11.0503 62.808 9.81003 63.9711 8.91002C65.1336 8.01007 66.736 7.55993 68.7785 7.55993C69.8709 7.55993 70.952 7.71007 72.024 8.01007C73.0954 8.30994 74.1372 8.75027 75.1487 9.33009L72.9039 12.4201C72.115 11.9804 71.3516 11.6504 70.6137 11.4301C69.8751 11.2102 69.1426 11.1 68.4147 11.1C67.8278 11.1 67.3681 11.1952 67.0346 11.385C66.701 11.5753 66.5341 11.8402 66.5341 12.1801C66.5341 12.5001 66.6503 12.7402 66.883 12.9001C67.1151 13.0604 67.5349 13.1902 68.1418 13.29L71.0835 13.83C72.62 14.1103 73.7934 14.6354 74.6023 15.4051C75.4112 16.1752 75.8053 17.1404 75.7853 18.3001C75.7853 19.0604 75.6186 19.7653 75.2851 20.4151C74.9509 21.0652 74.481 21.6254 73.8747 22.0951C73.2677 22.5652 72.5497 22.9351 71.7209 23.2051C70.8913 23.4753 70.0018 23.6102 69.0517 23.6102C67.6359 23.6102 66.3113 23.4498 65.0781 23.1301C63.8446 22.8104 62.7728 22.3404 61.8629 21.7202Z" fill="white"/>
<path fill-rule="evenodd" clip-rule="evenodd" d="M27.702 22.245C28.7128 23.115 30.0071 23.55 31.5845 23.55C32.4133 23.55 33.1716 23.4247 33.8591 23.175C34.5464 22.9252 35.2341 22.5201 35.9218 21.9599V23.31H40.7748V13.4099C40.7748 11.5701 40.173 10.1399 38.9701 9.11984C37.7669 8.0999 36.0836 7.58996 33.9198 7.58996C32.7675 7.58996 31.5996 7.73001 30.4165 8.00997C29.2337 8.2902 28.0052 8.7102 26.7313 9.26998L28.4299 12.66C29.3398 12.2802 30.1535 12.0051 30.8717 11.8349C31.5892 11.6652 32.2413 11.5799 32.8281 11.5799C33.8591 11.5799 34.6328 11.7703 35.1484 12.1499C35.664 12.5301 35.9218 13.0903 35.9218 13.8299V15.09C35.2341 14.8302 34.5972 14.6452 34.0109 14.5349C33.4241 14.4252 32.8478 14.37 32.2821 14.37C30.3607 14.37 28.8646 14.7652 27.7929 15.5549C26.7209 16.3453 26.1852 17.4501 26.1852 18.8699C26.1852 20.25 26.6905 21.375 27.702 22.245ZM31.3417 19.935C30.917 19.665 30.7048 19.2802 30.7048 18.78C30.7048 18.2803 30.9218 17.9001 31.3569 17.6399C31.7915 17.3802 32.4133 17.2499 33.2224 17.2499C33.6668 17.2499 34.1172 17.2799 34.5721 17.3399C35.0271 17.3999 35.4768 17.4801 35.9218 17.5799V19.5599C35.4973 19.82 35.0469 20.015 34.5721 20.145C34.0966 20.2753 33.6061 20.34 33.101 20.34C32.3527 20.34 31.7664 20.205 31.3417 19.935Z" fill="white"/>
<path fill-rule="evenodd" clip-rule="evenodd" d="M47.4526 22.665C48.302 23.0752 49.2015 23.28 50.1522 23.28C51.0621 23.28 51.9215 23.0955 52.7303 22.725C53.5389 22.3551 54.1962 21.8603 54.7018 21.2401V23.4601C54.7018 24.3999 54.3987 25.1099 53.792 25.5901C53.1855 26.0702 52.3058 26.31 51.1533 26.31C50.4049 26.31 49.6366 26.2099 48.8479 26.0102C48.0594 25.8098 47.23 25.51 46.3607 25.1099L44.8441 28.62C45.7741 29.0597 46.7953 29.4001 47.9076 29.6401C49.0196 29.8801 50.1622 30 51.3352 30C53.9839 30 56.0213 29.4401 57.447 28.3202C58.8725 27.1999 59.5854 25.5999 59.5854 23.5201V7.83006H54.7627V9.69001C54.2365 9.07037 53.6048 8.59029 52.8669 8.25013C52.1285 7.91037 51.345 7.73999 50.5163 7.73999C49.5049 7.73999 48.5547 7.94024 47.6651 8.34006C46.7751 8.74043 46.0015 9.29019 45.3446 9.99002C44.6873 10.6904 44.1716 11.5101 43.7978 12.45C43.4234 13.3904 43.2366 14.4001 43.2366 15.4801C43.2366 16.56 43.4186 17.5754 43.7825 18.5251C44.1465 19.4753 44.6366 20.3001 45.2535 21.0001C45.8701 21.7005 46.6034 22.2553 47.4526 22.665ZM49.1361 18.2251C48.4182 17.4952 48.0594 16.59 48.0594 15.5101C48.0594 14.4301 48.4128 13.53 49.121 12.8101C49.8286 12.09 50.7182 11.73 51.7902 11.73C52.3561 11.73 52.8869 11.835 53.3826 12.045C53.8779 12.255 54.3177 12.5504 54.7018 12.9301V18.09C54.3177 18.4904 53.8831 18.7951 53.3977 19.0051C52.9125 19.2151 52.3764 19.32 51.7902 19.32C50.7385 19.32 49.8536 18.9553 49.1361 18.2251Z" fill="white"/>
<path d="M117.127 18.54V11.5799H114.094V7.83002H117.127V4.15451L122.252 3.15198L122.041 7.83002H126.226V11.5799H122.041V17.5799C122.041 18.2601 122.197 18.7402 122.511 19.02C122.824 19.3003 123.355 19.44 124.104 19.44C124.386 19.44 124.669 19.4203 124.952 19.38C125.236 19.3402 125.62 19.2502 126.105 19.11V23.0401C125.66 23.1802 125.114 23.2949 124.467 23.385C123.82 23.4752 123.244 23.5199 122.738 23.5199C120.898 23.5199 119.502 23.0999 118.552 22.26C117.601 21.4199 117.127 20.1801 117.127 18.54Z" fill="white"/>
<path d="M128.956 1.65523V23.3101H133.87V13.7601C133.803 12.8777 134.073 12.3427 134.885 11.8076C135.287 11.5423 135.952 11.4 136.478 11.4C137.266 11.4 137.898 11.6652 138.374 12.1949C138.848 12.7251 139.087 13.4204 139.087 14.28V23.3101H144V12.87C144 11.3301 143.515 10.065 142.544 9.07501C141.573 8.085 140.33 7.58999 138.813 7.58999C137.802 7.58999 136.877 7.82529 136.038 8.29494C135.199 8.76519 134.476 9.44981 133.87 10.35V0.495605L128.956 1.65523Z" fill="white"/>
<path d="M78.2993 23.415H83.4902C83.6032 19.5324 83.7851 13.3262 83.9491 12.6817C84.2357 11.5519 85.0584 11.0949 86.1842 11.1921C87.1949 11.2793 87.7909 11.8633 87.968 13.0125C88.051 13.5519 88.0682 14.1032 88.0852 14.6502L88.0858 14.6705C88.097 15.0432 87.9989 19.3753 87.9186 22.9187L87.9185 22.9222L87.9074 23.415H93.0012C93.0687 19.6524 93.1603 15.2759 93.2085 14.6783C93.2712 13.9041 93.407 13.0978 93.7115 12.3905C94.096 11.4961 95.0179 11.149 95.9907 11.315C96.8203 11.4565 97.2998 11.94 97.47 12.9596C97.5823 13.6333 97.6085 14.3265 97.6154 15.0114C97.625 15.9572 97.5568 19.7011 97.4879 23.415H102.52C102.603 18.4756 102.683 13.1854 102.625 11.2809C102.577 9.70174 101.659 8.51086 100.14 7.85897C97.4762 6.71551 94.528 7.45239 92.738 9.70672C92.7091 9.74306 92.6636 9.76628 92.6111 9.79307C92.5845 9.80665 92.5561 9.82114 92.5271 9.83872C91.5804 8.26493 90.1404 7.52678 88.3511 7.39362C86.5618 7.26032 85.0335 7.88372 83.6928 9.16582C83.6617 8.568 83.639 8.12829 83.6135 7.62837C83.1697 7.62837 82.7316 7.62926 82.2976 7.63014C81.2026 7.63237 80.1335 7.63454 79.0647 7.62224C78.5437 7.61633 78.5444 7.92863 78.5452 8.28439L78.5452 8.30236C78.548 9.86122 78.4274 19.6659 78.2993 23.415Z" fill="white"/>
<path d="M18.8109 23.4105V8.93827C21.8183 8.09056 23.0116 5.622 23.7247 3.64477V23.4105H18.8109Z" fill="white"/>
<path d="M0.538123 10.326C-0.538578 6.77224 -0.000753377 3.37303 4.57153 2.08663C5.73106 1.76037 7.49857 1.52463 8.69839 1.50619C13.0781 1.43882 22.1475 1.49207 22.3548 1.50825C22.4687 1.51725 22.0303 3.22372 21.2623 4.35222C20.006 6.19796 18.2164 7.06411 15.9554 7.17675C13.1713 7.31557 10.3793 7.34141 7.59076 7.34263C4.82988 7.34407 2.461 8.16083 0.641256 10.2911C0.627351 10.3075 0.600078 10.3128 0.572932 10.318C0.560923 10.3204 0.548912 10.3227 0.538123 10.326Z" fill="white"/>
<path d="M6.92445 9.47776L14.3102 9.49105V14.3803H6.92445V23.2958C3.09453 23.2629 0 20.1825 0 16.3868C0 12.591 3.09453 9.51076 6.92445 9.47776Z" fill="white"/>
</svg>
