<svg width="114" height="30" viewBox="0 0 114 30" fill="none" xmlns="http://www.w3.org/2000/svg">
<path d="M39.3589 8.84498H45.2479C47.0094 8.7105 48.7523 9.28108 50.0945 10.4317C50.6848 11.1282 51.1311 11.9352 51.4077 12.8058C51.6842 13.6765 51.7855 14.5935 51.7056 15.5036C51.779 16.3903 51.6743 17.2828 51.3976 18.1284C51.1209 18.9739 50.6778 19.7553 50.0945 20.4264C48.7723 21.5651 47.055 22.1352 45.3156 22.013H39.3589V8.84498ZM44.7741 19.0702C45.3394 19.087 45.9019 18.9854 46.4257 18.7719C46.6517 18.6704 46.854 18.5227 47.0196 18.3382C47.1851 18.1536 47.3103 17.9364 47.3869 17.7005C47.6341 16.9957 47.7444 16.25 47.7119 15.5036C47.7423 14.7351 47.6322 13.9676 47.3869 13.2389C47.2227 12.7554 46.8914 12.3466 46.4528 12.0861C45.9266 11.8467 45.3514 11.7352 44.7741 11.7607H43.2037V19.0702H44.7741ZM55.3608 8.84498H62.2246C62.8662 8.8027 63.5097 8.89281 64.1152 9.10975C64.7206 9.32669 65.2752 9.66584 65.7445 10.1062C66.5696 11.061 66.9834 12.3045 66.8952 13.5643C66.9073 14.3926 66.6818 15.2068 66.2454 15.9104C65.809 16.5824 65.2015 17.1255 64.4855 17.4835C64.6474 17.6008 64.7853 17.7481 64.8916 17.9175C65.0277 18.1474 65.1453 18.3878 65.2436 18.6363L66.7598 22.0944H62.6984L61.3446 18.921C61.2592 18.7151 61.1243 18.5334 60.952 18.3922C60.754 18.2815 60.5286 18.2297 60.3022 18.243H59.2192V22.0944H55.4014V8.84498H55.3608ZM61.2093 15.2188C61.4526 15.2439 61.6985 15.2183 61.9315 15.1436C62.1644 15.069 62.3795 14.9468 62.5631 14.7848C62.7272 14.6211 62.8534 14.4233 62.933 14.2054C63.0125 13.9875 63.0433 13.7548 63.0234 13.5236C63.0234 12.3709 62.4954 11.8014 61.3717 11.8014H59.1379V15.2595H61.1822L61.2093 15.2188ZM76.6155 22.23C74.7963 22.3602 72.9971 21.7821 71.5929 20.6162C70.9832 19.9211 70.5191 19.1104 70.2284 18.2321C69.9377 17.3538 69.8263 16.4259 69.9007 15.5036C69.8164 14.566 69.9229 13.6211 70.2137 12.726C70.5046 11.8309 70.9738 11.0042 71.5929 10.296C72.9888 9.11383 74.7929 8.52927 76.6155 8.66869C78.4422 8.53006 80.2502 9.11432 81.6517 10.296C82.2684 11.0053 82.7351 11.8325 83.0236 12.7275C83.3122 13.6226 83.4165 14.567 83.3304 15.5036C83.4066 16.425 83.2973 17.3523 83.009 18.2305C82.7206 19.1088 82.259 19.9201 81.6517 20.6162C80.2364 21.7909 78.4212 22.3694 76.5885 22.23H76.6155ZM76.6155 18.9617C77.0094 18.9958 77.4058 18.9389 77.7742 18.7955C78.1427 18.6521 78.4734 18.4259 78.741 18.1345C79.2459 17.3254 79.4696 16.3719 79.3773 15.4222C79.4635 14.473 79.2403 13.5213 78.741 12.71C78.1475 12.1772 77.3786 11.8826 76.5817 11.8826C75.7848 11.8826 75.0159 12.1772 74.4224 12.71C73.9345 13.526 73.7121 14.4739 73.7861 15.4222C73.7066 16.371 73.9293 17.3205 74.4224 18.1345C74.6973 18.4293 75.0344 18.659 75.4091 18.8068C75.7838 18.9546 76.1867 19.0168 76.5885 18.9889L76.6155 18.9617ZM87.0263 8.84498H90.3025L95.2574 15.8291V8.84498H99.1022V22.013H95.7718L90.844 15.0696V22.013H86.9992L87.0263 8.84498ZM103.272 8.84498H113.182V11.8014H107.035V13.9576H112.451V16.9411H107.035V19.0973H113.182V22.0537H103.204L103.272 8.84498Z" fill="white"/>
<path d="M5.99868 3.35041L5.84976 3.48602L11.0619 8.63932C10.2947 9.88093 9.89563 11.3154 9.91117 12.7755C9.88051 13.7578 10.0524 14.7359 10.4162 15.6486C10.7799 16.5613 11.3276 17.389 12.0251 18.0801C12.7227 18.7712 13.555 19.3108 14.4701 19.6651C15.3852 20.0194 16.3634 20.1808 17.3436 20.1393C18.8147 20.1611 20.2615 19.7612 21.5133 18.9866L26.7525 24.2077C25.3605 26.0293 23.564 27.5009 21.5055 28.5061C19.447 29.5112 17.1831 30.0221 14.8932 29.9984C12.9444 30.0272 11.0095 29.6669 9.20122 28.9385C7.39299 28.2101 5.74771 27.1282 4.36141 25.7559C2.97512 24.3837 1.87558 22.7485 1.12699 20.946C0.37839 19.1434 -0.00427339 17.2096 0.00133285 15.2572C-0.0302122 12.9355 0.498604 10.6404 1.54279 8.56731C2.58698 6.49424 4.11563 4.70451 5.99868 3.35041ZM8.90936 1.35689C10.9028 0.449722 13.0692 -0.0129837 15.2587 0.000759992C17.2005 -0.0190375 19.1269 0.348136 20.9258 1.08092C22.7246 1.81371 24.3601 2.89749 25.737 4.26921C27.114 5.64093 28.2049 7.27321 28.9463 9.07112C29.6877 10.869 30.0648 12.7967 30.0558 14.7419C30.0789 16.9405 29.6166 19.117 28.702 21.1157L24.0313 16.4371C24.7843 15.2142 25.1827 13.8055 25.1821 12.3687C25.2223 11.379 25.0571 10.3918 24.697 9.46937C24.3368 8.54695 23.7896 7.7094 23.0898 7.00967C22.39 6.30995 21.5529 5.76326 20.6314 5.40418C19.7099 5.0451 18.724 4.88143 17.7362 4.92352C16.3008 4.91559 14.8926 5.31527 13.6747 6.07623L8.90936 1.35689ZM17.8174 16.6134C17.2316 16.6338 16.6477 16.5342 16.1017 16.3207C15.5557 16.1071 15.0589 15.7841 14.6419 15.3715C14.2249 14.9588 13.8964 14.4652 13.6765 13.9209C13.4567 13.3766 13.3501 12.793 13.3634 12.2059C13.3407 11.6133 13.4402 11.0223 13.6558 10.47C13.8715 9.91763 14.1985 9.41576 14.6165 8.99575C15.0345 8.57574 15.5345 8.24662 16.0853 8.02896C16.636 7.81129 17.2257 7.70976 17.8174 7.73071C18.4064 7.71761 18.9919 7.82461 19.5384 8.04522C20.0848 8.26583 20.5808 8.59545 20.9961 9.01403C21.4114 9.43261 21.7374 9.93141 21.9544 10.4801C22.1713 11.0288 22.2745 11.616 22.2579 12.2059C22.2807 12.7962 22.1815 13.3848 21.9664 13.9349C21.7513 14.4849 21.425 14.9844 21.0081 15.4021C20.5911 15.8198 20.0924 16.1466 19.5433 16.3621C18.9943 16.5775 18.4066 16.6769 17.8174 16.6541V16.6134Z" fill="white"/>
</svg>
