<svg width="153" height="30" viewBox="0 0 153 30" fill="none" xmlns="http://www.w3.org/2000/svg">
<path fill-rule="evenodd" clip-rule="evenodd" d="M26.2019 27.3639C26.2016 26.6652 25.9239 25.9952 25.4298 25.5011C24.9357 25.007 24.2657 24.7293 23.567 24.729H8.77644L24.4282 5.20739C24.806 4.73645 25.0429 4.16832 25.1116 3.56854C25.1804 2.96875 25.0783 2.36175 24.8169 1.81753C24.5556 1.2733 24.1457 0.814039 23.6347 0.492701C23.1236 0.171363 22.5321 0.00104133 21.9283 0.00138115H3.87791C3.18887 0.0163878 2.53311 0.300647 2.0511 0.793266C1.5691 1.28588 1.29918 1.94768 1.29918 2.63689C1.29918 3.32609 1.5691 3.98789 2.0511 4.4805C2.53311 4.97312 3.18887 5.25738 3.87791 5.27239H16.2273L0.68931 24.8465C0.317758 25.3143 0.085613 25.8774 0.0195119 26.4711C-0.0465891 27.0648 0.0560321 27.6651 0.3156 28.2032C0.575169 28.7413 0.981168 29.1952 1.48701 29.5131C1.99285 29.8309 2.57805 29.9996 3.17545 30H23.5658C24.2647 29.9997 24.9349 29.7218 25.429 29.2275C25.9231 28.7331 26.2006 28.0628 26.2006 27.3639H26.2019ZM50.9883 24.729H37.7139V17.9131H49.2321V12.6421H37.7139V5.27239H50.9883V0.00138115H31.0767V30H50.9858V24.729H50.9883ZM78.0708 30C77.5422 30 77.0211 29.8747 76.5503 29.6344C76.0794 29.3941 75.6723 29.0456 75.3621 28.6176L63.1339 11.7433V26.6389C63.1339 27.5191 62.7843 28.3631 62.162 28.9855C61.5396 29.6079 60.6955 29.9575 59.8154 29.9575C58.9352 29.9575 58.0911 29.6079 57.4688 28.9855C56.8464 28.3631 56.4968 27.5191 56.4968 26.6389V3.37873C56.4965 2.66574 56.7218 1.97095 57.1405 1.39387C57.5593 0.816797 58.1499 0.387041 58.8278 0.166158C59.5057 -0.0547243 60.2361 -0.0554003 60.9145 0.164227C61.5928 0.383854 62.1842 0.812517 62.604 1.38882L74.7784 18.0868V3.31998C74.7784 2.43983 75.1281 1.59573 75.7504 0.973376C76.3728 0.351018 77.2169 0.00138115 78.097 0.00138115C78.9772 0.00138115 79.8213 0.351018 80.4436 0.973376C81.066 1.59573 81.4156 2.43983 81.4156 3.31998V26.6552C81.4156 27.542 81.0634 28.3926 80.4364 29.0199C79.8094 29.6471 78.9589 29.9997 78.072 30H78.0708ZM95.1637 0.00138115H88.5265V30H95.1637V0.00138115ZM99.7573 2.7875C99.7573 1.24882 101.005 0.00138115 102.545 0.00138115H120.479C120.85 -0.00647325 121.218 0.0597692 121.563 0.196225C121.908 0.332681 122.222 0.536604 122.487 0.796039C122.752 1.05547 122.962 1.3652 123.106 1.70706C123.25 2.04892 123.324 2.41603 123.324 2.78688C123.324 3.15772 123.25 3.52484 123.106 3.8667C122.962 4.20856 122.752 4.51828 122.487 4.77772C122.222 5.03715 121.908 5.24108 121.563 5.37753C121.218 5.51399 120.85 5.58023 120.479 5.57237H114.744V26.7252C114.744 27.5937 114.399 28.4267 113.785 29.0408C113.171 29.655 112.338 30 111.469 30C110.601 30 109.768 29.655 109.154 29.0408C108.539 28.4267 108.194 27.5937 108.194 26.7252V5.57237H102.545C101.806 5.57271 101.097 5.27966 100.575 4.75766C100.052 4.23567 99.7579 3.52746 99.7573 2.78875V2.7875ZM152.492 30V0.00138115H145.856V13.0295H134.467V0.00138115H127.831V30H134.467V18.3005H145.856V30H152.492ZM22.9683 3.75121C22.9683 4.78616 22.1246 5.62612 21.0846 5.62612C20.8379 5.62662 20.5935 5.57851 20.3654 5.48455C20.1373 5.3906 19.9299 5.25263 19.7551 5.07853C19.5803 4.90443 19.4415 4.6976 19.3467 4.46986C19.2518 4.24212 19.2027 3.99792 19.2022 3.75121C19.2022 2.71626 20.0459 1.87629 21.0846 1.87629C22.1246 1.87629 22.9683 2.71626 22.9683 3.75121ZM3.76417 28.1251C4.80412 28.1251 5.64783 27.2851 5.64783 26.2502C5.64783 25.2152 4.80412 24.3753 3.76417 24.3753C2.72547 24.3753 1.88176 25.2152 1.88176 26.2502C1.88176 27.2851 2.72547 28.1251 3.76417 28.1251Z" fill="white"/>
</svg>
