<svg width="170" height="44" viewBox="0 0 170 44" fill="none" xmlns="http://www.w3.org/2000/svg">
<path d="M17.8691 8.90057V38.1437" stroke="white" style="stroke:white;stroke-opacity:1;" stroke-width="4.96412" stroke-linecap="round"/>
<path d="M30.5352 16.2114L5.20984 30.8329" stroke="white" style="stroke:white;stroke-opacity:1;" stroke-width="4.96412" stroke-linecap="round"/>
<path d="M5.20312 16.2114L30.5284 30.8329" stroke="white" style="stroke:white;stroke-opacity:1;" stroke-width="4.96412" stroke-linecap="round"/>
<path d="M68.5473 16.781L63.9611 17.5933C63.7693 17.0066 63.4647 16.4482 63.0472 15.9179C62.6411 15.3877 62.0883 14.9533 61.3888 14.6148C60.6893 14.2764 59.8149 14.1072 58.7657 14.1072C57.3329 14.1072 56.137 14.4287 55.178 15.0718C54.219 15.7036 53.7395 16.5215 53.7395 17.5256C53.7395 18.3943 54.0611 19.0938 54.7041 19.6241C55.3472 20.1543 56.3852 20.5887 57.818 20.9272L61.9472 21.8749C64.339 22.4277 66.1216 23.2795 67.2949 24.4303C68.4683 25.581 69.055 27.0759 69.055 28.9149C69.055 30.4718 68.6037 31.8595 67.7011 33.078C66.8098 34.2852 65.5631 35.2329 63.9611 35.9211C62.3703 36.6093 60.5257 36.9534 58.4272 36.9534C55.5165 36.9534 53.1416 36.3329 51.3026 35.0918C49.4636 33.8395 48.3354 32.0626 47.918 29.761L52.8088 29.0164C53.1134 30.2913 53.7395 31.2559 54.6872 31.9103C55.6349 32.5534 56.8703 32.8749 58.3934 32.8749C60.0518 32.8749 61.3775 32.5308 62.3703 31.8426C63.3631 31.1431 63.8596 30.2913 63.8596 29.2872C63.8596 28.4749 63.5549 27.7923 62.9457 27.2395C62.3478 26.6867 61.4283 26.2692 60.1872 25.9872L55.7872 25.0226C53.3616 24.4697 51.5677 23.5897 50.4057 22.3826C49.2549 21.1754 48.6795 19.6467 48.6795 17.7964C48.6795 16.262 49.1082 14.9195 49.9657 13.7687C50.8231 12.6179 52.0077 11.721 53.5195 11.0779C55.0313 10.4236 56.7631 10.0964 58.7149 10.0964C61.5242 10.0964 63.7354 10.7056 65.3488 11.9241C66.9621 13.1313 68.0283 14.7502 68.5473 16.781Z" fill="white" style="fill:white;fill-opacity:1;"/>
<path d="M84.6146 36.9534C82.0987 36.9534 79.9325 36.3836 78.1161 35.2441C76.311 34.0934 74.9233 32.5082 73.953 30.4887C72.9828 28.4692 72.4976 26.1564 72.4976 23.5503C72.4976 20.9102 72.994 18.5805 73.9869 16.561C74.9797 14.5302 76.3787 12.9451 78.1838 11.8056C79.9889 10.6661 82.1156 10.0964 84.5638 10.0964C86.5382 10.0964 88.2982 10.463 89.8438 11.1964C91.3895 11.9184 92.6361 12.9338 93.5838 14.2425C94.5428 15.5513 95.1126 17.08 95.2931 18.8287H90.3684C90.0977 17.6102 89.4772 16.561 88.5069 15.681C87.5479 14.801 86.2618 14.361 84.6484 14.361C83.2382 14.361 82.0028 14.7333 80.9423 15.4779C79.893 16.2113 79.0751 17.2605 78.4884 18.6256C77.9017 19.9795 77.6084 21.5815 77.6084 23.4318C77.6084 25.3272 77.8961 26.9631 78.4715 28.3395C79.0469 29.7159 79.8592 30.7821 80.9084 31.538C81.9689 32.2939 83.2156 32.6718 84.6484 32.6718C85.6074 32.6718 86.4761 32.4969 87.2546 32.1472C88.0443 31.7862 88.7043 31.2728 89.2346 30.6072C89.7761 29.9416 90.1541 29.1405 90.3684 28.2041H95.2931C95.1126 29.8851 94.5654 31.3857 93.6515 32.7057C92.7377 34.0257 91.5136 35.0636 89.9792 35.8195C88.4561 36.5754 86.6679 36.9534 84.6146 36.9534Z" fill="white" style="fill:white;fill-opacity:1;"/>
<path d="M110.7 36.9534C108.263 36.9534 106.137 36.3949 104.32 35.278C102.504 34.1611 101.094 32.5985 100.09 30.5903C99.0855 28.5821 98.5834 26.2354 98.5834 23.5503C98.5834 20.8538 99.0855 18.4959 100.09 16.4764C101.094 14.4569 102.504 12.8887 104.32 11.7718C106.137 10.6548 108.263 10.0964 110.7 10.0964C113.137 10.0964 115.264 10.6548 117.08 11.7718C118.897 12.8887 120.307 14.4569 121.311 16.4764C122.315 18.4959 122.817 20.8538 122.817 23.5503C122.817 26.2354 122.315 28.5821 121.311 30.5903C120.307 32.5985 118.897 34.1611 117.08 35.278C115.264 36.3949 113.137 36.9534 110.7 36.9534ZM110.717 32.7057C112.297 32.7057 113.606 32.2882 114.643 31.4534C115.681 30.6185 116.449 29.5072 116.945 28.1195C117.453 26.7318 117.707 25.2031 117.707 23.5333C117.707 21.8749 117.453 20.3518 116.945 18.9641C116.449 17.5651 115.681 16.4425 114.643 15.5964C113.606 14.7502 112.297 14.3272 110.717 14.3272C109.127 14.3272 107.807 14.7502 106.757 15.5964C105.719 16.4425 104.947 17.5651 104.439 18.9641C103.942 20.3518 103.694 21.8749 103.694 23.5333C103.694 25.2031 103.942 26.7318 104.439 28.1195C104.947 29.5072 105.719 30.6185 106.757 31.4534C107.807 32.2882 109.127 32.7057 110.717 32.7057Z" fill="white" style="fill:white;fill-opacity:1;"/>
<path d="M143.979 25.6487V10.4348H149.055V36.4287H144.08V31.9272H143.809C143.211 33.3149 142.252 34.4713 140.932 35.3964C139.624 36.3103 137.993 36.7672 136.042 36.7672C134.372 36.7672 132.894 36.4005 131.608 35.6672C130.333 34.9226 129.329 33.8226 128.595 32.3672C127.873 30.9118 127.512 29.1123 127.512 26.9687V10.4348H132.572V26.3595C132.572 28.1308 133.063 29.541 134.045 30.5903C135.026 31.6395 136.301 32.1641 137.869 32.1641C138.817 32.1641 139.759 31.9272 140.695 31.4534C141.643 30.9795 142.427 30.2631 143.048 29.3041C143.68 28.3451 143.99 27.1267 143.979 25.6487Z" fill="white" style="fill:white;fill-opacity:1;"/>
<path d="M167.035 10.4348V14.4964H152.837V10.4348H167.035ZM156.644 4.20712H161.704V28.7964C161.704 29.778 161.851 30.5169 162.144 31.0134C162.438 31.4985 162.816 31.8313 163.278 32.0118C163.752 32.181 164.265 32.2657 164.818 32.2657C165.224 32.2657 165.58 32.2375 165.884 32.181C166.189 32.1246 166.426 32.0795 166.595 32.0457L167.509 36.2257C167.216 36.3385 166.798 36.4513 166.257 36.5641C165.715 36.6882 165.038 36.7559 164.226 36.7672C162.895 36.7898 161.654 36.5529 160.503 36.0564C159.352 35.56 158.421 34.7929 157.71 33.7549C157 32.7169 156.644 31.4139 156.644 29.8457V4.20712Z" fill="white" style="fill:white;fill-opacity:1;"/>
</svg>
