<svg width="166" height="44" viewBox="0 0 166 44" fill="none" xmlns="http://www.w3.org/2000/svg">
<path d="M57.7266 12.9709H66.3638C68.9473 12.7736 71.5036 13.6105 73.4722 15.298C74.3379 16.3196 74.9925 17.5032 75.3981 18.7801C75.8037 20.0571 75.9522 21.402 75.835 22.7368C75.9427 24.0374 75.7891 25.3464 75.3833 26.5865C74.9775 27.8266 74.3276 28.9726 73.4722 29.9569C71.5329 31.627 69.0142 32.4632 66.4631 32.284H57.7266V12.9709ZM65.6689 27.9679C66.4979 27.9926 67.323 27.8435 68.0913 27.5303C68.4228 27.3815 68.7195 27.1648 68.9623 26.8942C69.2051 26.6236 69.3886 26.305 69.501 25.959C69.8635 24.9252 70.0253 23.8315 69.9776 22.7368C70.0223 21.6098 69.8607 20.4841 69.501 19.4152C69.2601 18.7061 68.7742 18.1066 68.131 17.7246C67.3593 17.3734 66.5157 17.2099 65.6689 17.2472H63.3656V27.9679H65.6689ZM81.1961 12.9709H91.263C92.204 12.9089 93.1478 13.041 94.0358 13.3592C94.9238 13.6774 95.7372 14.1748 96.4255 14.8207C97.6357 16.2211 98.2425 18.0449 98.1132 19.8926C98.1309 21.1073 97.8001 22.3016 97.1601 23.3335C96.5201 24.3191 95.629 25.1156 94.5789 25.6408C94.8164 25.8127 95.0186 26.0288 95.1745 26.2773C95.3741 26.6145 95.5467 26.967 95.6908 27.3314L97.9146 32.4034H91.9579L89.9723 27.7491C89.847 27.447 89.6492 27.1806 89.3965 26.9734C89.1061 26.8111 88.7754 26.7352 88.4434 26.7546H86.855V32.4034H81.2556V12.9709H81.1961ZM89.7738 22.3192C90.1307 22.356 90.4913 22.3184 90.833 22.2089C91.1747 22.0994 91.4901 21.9202 91.7593 21.6827C92 21.4425 92.1852 21.1525 92.3019 20.8329C92.4185 20.5133 92.4638 20.1719 92.4344 19.8329C92.4344 18.1423 91.6601 17.3069 90.012 17.3069H86.7358V22.3788H89.7341L89.7738 22.3192ZM112.37 32.6023C109.701 32.7931 107.063 31.9453 105.003 30.2354C104.109 29.2159 103.428 28.0268 103.002 26.7386C102.576 25.4504 102.412 24.0896 102.521 22.7368C102.398 21.3618 102.554 19.9759 102.98 18.663C103.407 17.3502 104.095 16.1378 105.003 15.0991C107.05 13.3652 109.697 12.5078 112.37 12.7123C115.049 12.509 117.701 13.3659 119.756 15.0991C120.66 16.1394 121.345 17.3525 121.768 18.6653C122.191 19.9781 122.344 21.3632 122.218 22.7368C122.33 24.0882 122.17 25.4483 121.747 26.7364C121.324 28.0245 120.647 29.2143 119.756 30.2354C117.68 31.9582 115.018 32.8068 112.33 32.6023H112.37ZM112.37 27.8088C112.947 27.8587 113.529 27.7753 114.069 27.5649C114.609 27.3546 115.095 27.023 115.487 26.5955C116.227 25.4089 116.556 24.0103 116.42 22.6175C116.547 21.2253 116.219 19.8295 115.487 18.6395C114.617 17.8581 113.489 17.4261 112.32 17.4261C111.151 17.4261 110.023 17.8581 109.153 18.6395C108.437 19.8364 108.111 21.2266 108.22 22.6175C108.103 24.009 108.43 25.4017 109.153 26.5955C109.556 27.0279 110.051 27.3647 110.6 27.5815C111.15 27.7983 111.741 27.8895 112.33 27.8486L112.37 27.8088ZM127.639 12.9709H132.444L139.711 23.2142V12.9709H145.35V32.284H140.466L133.238 22.1004V32.284H127.599L127.639 12.9709ZM151.466 12.9709H166V17.3069H156.986V20.4694H164.928V24.8452H156.986V28.0077H166V32.3437H151.366L151.466 12.9709Z" fill="white"/>
<path d="M8.79807 4.91393L8.57965 5.11283L16.2241 12.671C15.0989 14.492 14.5136 16.5959 14.5364 18.7374C14.4914 20.1781 14.7435 21.6126 15.277 22.9512C15.8105 24.2899 16.6138 25.5039 17.6369 26.5175C18.6599 27.5311 19.8806 28.3225 21.2228 28.8421C22.5649 29.3618 23.9996 29.5985 25.4372 29.5377C27.595 29.5697 29.7169 28.9831 31.5528 27.847L39.237 35.5047C37.1954 38.1763 34.5606 40.3347 31.5415 41.8089C28.5223 43.2831 25.2019 44.0325 21.8433 43.9977C18.9851 44.0399 16.1472 43.5115 13.4951 42.4432C10.843 41.3748 8.42997 39.788 6.39674 37.7754C4.36351 35.7627 2.75086 33.3645 1.65291 30.7208C0.554972 28.077 -0.00626764 25.2407 0.00195485 22.3773C-0.0443112 18.972 0.731286 15.6059 2.26276 12.5654C3.79423 9.52488 6.03625 6.89995 8.79807 4.91393ZM13.0671 1.99011C15.9908 0.659592 19.1682 -0.0190428 22.3794 0.00111466C25.2274 -0.0279217 28.0528 0.5106 30.6911 1.58535C33.3295 2.66011 35.7282 4.24965 37.7477 6.2615C39.7671 8.27336 41.3671 10.6674 42.4545 13.3043C43.542 15.9412 44.0951 18.7684 44.0818 21.6215C44.1158 24.8461 43.4377 28.0383 42.0962 30.9697L35.246 24.1077C36.3503 22.3141 36.9347 20.2481 36.9337 18.1407C36.9927 16.6893 36.7504 15.2413 36.2222 13.8884C35.694 12.5355 34.8914 11.3071 33.865 10.2809C32.8386 9.25459 31.6109 8.45278 30.2593 7.92613C28.9078 7.39948 27.4619 7.15943 26.013 7.22116C23.9079 7.20953 21.8425 7.79572 20.0563 8.91181L13.0671 1.99011ZM26.1322 24.3663C25.273 24.3963 24.4167 24.2502 23.6158 23.937C22.815 23.6238 22.0864 23.1501 21.4748 22.5448C20.8631 21.9396 20.3813 21.2156 20.0589 20.4173C19.7364 19.6189 19.5802 18.763 19.5996 17.9021C19.5663 17.0328 19.7123 16.1661 20.0286 15.356C20.3448 14.5459 20.8245 13.8098 21.4376 13.1938C22.0507 12.5778 22.784 12.095 23.5918 11.7758C24.3995 11.4566 25.2643 11.3076 26.1322 11.3384C26.996 11.3192 27.8548 11.4761 28.6563 11.7997C29.4577 12.1232 30.1851 12.6067 30.7943 13.2206C31.4034 13.8345 31.8816 14.5661 32.1997 15.3709C32.5179 16.1756 32.6693 17.0368 32.6449 17.9021C32.6784 18.7678 32.5328 19.6311 32.2174 20.4378C31.9019 21.2445 31.4234 21.9771 30.8118 22.5898C30.2003 23.2024 29.4689 23.6817 28.6635 23.9977C27.8582 24.3137 26.9964 24.4595 26.1322 24.426V24.3663Z" fill="white"/>
</svg>
