<svg width="142" height="28" viewBox="0 0 142 28" fill="none" xmlns="http://www.w3.org/2000/svg">
<path fill-rule="evenodd" clip-rule="evenodd" d="M24.4 25.54C24.4 24.1814 23.2986 23.08 21.94 23.08H8.1732L22.748 4.85922C23.1722 4.32891 23.4033 3.67003 23.4033 2.99094C23.4033 1.33909 22.0642 0 20.4123 0H3.61621C2.25759 0 1.15621 1.10138 1.15621 2.46C1.15621 3.81862 2.25759 4.92 3.61621 4.92H15.1105L0.641129 23.1904C0.225922 23.7147 0 24.3639 0 25.0327C0 26.6715 1.32852 28 2.96732 28H21.94C23.2986 28 24.4 26.8986 24.4 25.54ZM47.4793 23.08H35.1198V16.72H45.8447V11.8H35.1198V4.92H47.4793V0H28.9401V28H47.4793V23.08ZM72.7019 28C71.7027 28 70.7642 27.5204 70.1787 26.7107L58.7913 10.96V24.8701C58.7913 26.5766 57.4079 27.96 55.7014 27.96C53.9949 27.96 52.6115 26.5766 52.6115 24.8701V3.1438C52.6115 1.40753 54.0191 0 55.7553 0C56.761 0 57.706 0.481127 58.2976 1.29437L69.6357 16.88V3.08987C69.6357 1.38338 71.0191 0 72.7256 0C74.4321 0 75.8155 1.38338 75.8155 3.08987V24.8864C75.8155 26.606 74.4215 28 72.7019 28ZM88.6163 0H82.4366V28H88.6163V0ZM92.8938 2.6C92.8938 1.16406 94.0579 0 95.4938 0H112.182C113.618 0 114.782 1.16406 114.782 2.6C114.782 4.03594 113.618 5.2 112.182 5.2H106.848V24.95C106.848 26.6345 105.483 28 103.798 28C102.114 28 100.748 26.6345 100.748 24.95V5.2H95.4938C94.0579 5.2 92.8938 4.03594 92.8938 2.6ZM142 28V0H135.82V12.16H125.215V0H119.035V28H125.215V17.08H135.82V28H142ZM21.387 3.5C21.387 4.4665 20.6021 5.25 19.6339 5.25C18.6657 5.25 17.8809 4.4665 17.8809 3.5C17.8809 2.5335 18.6657 1.75 19.6339 1.75C20.6021 1.75 21.387 2.5335 21.387 3.5ZM3.50699 26.25C4.4752 26.25 5.26008 25.4665 5.26008 24.5C5.26008 23.5335 4.4752 22.75 3.50699 22.75C2.53879 22.75 1.75391 23.5335 1.75391 24.5C1.75391 25.4665 2.53879 26.25 3.50699 26.25Z" fill="black"/>
</svg>
