<svg width="130" height="44" viewBox="0 0 130 44" fill="none" xmlns="http://www.w3.org/2000/svg">
<g clip-path="url(#clip0_7908_3756)">
<path d="M119.724 44H105.064V39.1111H124.611L119.724 44Z" fill="white" style="fill:white;fill-opacity:1;"/>
<path d="M129.498 34.2222L124.611 39.1111V9.77778H129.498V34.2222Z" fill="white" style="fill:white;fill-opacity:1;"/>
<path d="M4.8867 9.77778V29.3333H19.5468L14.6601 34.2222H4.8867C2.1868 34.2222 0 32.0344 0 29.3333V9.77778H4.8867Z" fill="white" style="fill:white;fill-opacity:1;"/>
<path d="M31.7636 14.6667V34.2222H26.8769V19.5556L31.7636 14.6667Z" fill="white" style="fill:white;fill-opacity:1;"/>
<path d="M46.4237 9.77778C49.1236 9.77778 51.3104 11.9656 51.3104 14.6667V34.2222H46.4237V14.6667H31.7636L36.6503 9.77778H46.4237Z" fill="white" style="fill:white;fill-opacity:1;"/>
<path d="M58.6404 22.4156L71.2726 9.77778H78.1849L65.9681 22L78.1872 34.2222H71.275L62.5131 25.4564L58.6404 29.3286V34.2222H53.7537V4.88889L58.6404 0V22.4156Z" fill="white" style="fill:white;fill-opacity:1;"/>
<path d="M97.7341 9.77778C100.432 9.77778 102.621 11.9656 102.621 14.6667V19.5556C102.621 22.2567 100.432 24.4444 97.7341 24.4444H83.074V29.3333H102.621V34.2222H83.074C81.7252 34.2222 80.5036 33.6746 79.6191 32.7897C78.7346 31.9048 78.1872 30.6827 78.1872 29.3333V19.5556L83.074 14.6667V19.5556H97.7341V14.6667H83.074L87.9607 9.77778H97.7341Z" fill="white" style="fill:white;fill-opacity:1;"/>
<path d="M109.951 9.77778V29.3333H124.611L119.724 34.2222H109.951C107.251 34.2222 105.064 32.0344 105.064 29.3333V9.77778H109.951Z" fill="white" style="fill:white;fill-opacity:1;"/>
<path d="M24.4335 24.4444L19.5468 29.3333V9.77778H24.4335V24.4444Z" fill="white" style="fill:white;fill-opacity:1;"/>
</g>
<defs>
<clipPath id="clip0_7908_3756">
<rect width="130" height="44" fill="white" style="fill:white;fill-opacity:1;"/>
</clipPath>
</defs>
</svg>
