<svg width="26" height="26" viewBox="0 0 26 26" fill="none" xmlns="http://www.w3.org/2000/svg">
<path fill-rule="evenodd" clip-rule="evenodd" d="M12.9602 0C5.80428 0 0 5.96613 0 13.3216C0 19.206 3.737 24.1914 8.82569 25.9894C9.46177 26.0712 9.7003 25.6625 9.7003 25.3356C9.7003 25.0087 9.7003 24.1914 9.7003 23.0472C6.12232 23.8645 5.32722 21.2492 5.32722 21.2492C4.77064 19.6964 3.89602 19.2878 3.89602 19.2878C2.70336 18.4705 3.97553 18.4705 3.97553 18.4705C5.24771 18.5522 5.9633 19.8598 5.9633 19.8598C7.15596 21.903 8.98471 21.3309 9.7003 21.004C9.77982 20.105 10.1774 19.5329 10.4954 19.206C7.63303 18.8791 4.61162 17.7349 4.61162 12.5861C4.61162 11.115 5.08869 9.97079 5.9633 8.99005C5.88379 8.74487 5.40673 7.3555 6.12232 5.55749C6.12232 5.55749 7.23547 5.23058 9.7003 6.94686C10.7339 6.61995 11.8471 6.53822 12.9602 6.53822C14.0734 6.53822 15.1865 6.70168 16.2202 6.94686C18.685 5.23058 19.7982 5.55749 19.7982 5.55749C20.5138 7.3555 20.0367 8.74487 19.9572 9.07178C20.7523 9.97079 21.3089 11.1967 21.3089 12.6678C21.3089 17.8167 18.2875 18.8791 15.4251 19.206C15.9021 19.6147 16.2997 20.4319 16.2997 21.6579C16.2997 23.4559 16.2997 24.8452 16.2997 25.3356C16.2997 25.6625 16.5382 26.0712 17.1743 25.9894C22.3425 24.1914 26 19.206 26 13.3216C25.9205 5.96613 20.1162 0 12.9602 0Z" fill="currentColor"/>
</svg>
