<svg width="86" height="76" viewBox="0 0 86 76" fill="none" xmlns="http://www.w3.org/2000/svg">
<path fill-rule="evenodd" clip-rule="evenodd" d="M46.7041 28.5131L68.0699 0L86 76H0L28.774 15.7241L46.7041 28.5131ZM35.5904 55.8993L40.701 62.7761V62.7736H46.1846L40.1895 54.7068L45.4715 47.5983L41.8829 45.0482L35.5904 53.5167V40.5786L30.8603 37.2203V62.7761H35.5904V55.8993ZM46.9331 55.1897C46.9331 59.5361 50.5367 63.0619 54.9846 63.0619C59.4324 63.0619 63.0361 59.5361 63.0361 55.1922C63.0361 51.277 60.1154 48.032 56.2874 47.4234L60.138 42.2393L56.5495 39.6892L48.4753 50.5575C47.5051 51.8585 46.9331 53.4576 46.9331 55.1897ZM58.4434 55.1906C58.4434 57.0589 56.8943 58.5736 54.9834 58.5736C53.0725 58.5736 51.5234 57.0589 51.5234 55.1906C51.5234 53.3222 53.0725 51.8076 54.9834 51.8076C56.8943 51.8076 58.4434 53.3222 58.4434 55.1906Z" fill="white"/>
</svg>
