<svg width="18" height="19" viewBox="0 0 18 19" fill="none" xmlns="http://www.w3.org/2000/svg">
<path d="M0.296014 5.97694H4.02759V18.001H0.296014V5.97694ZM2.1619 0C3.35456 0 4.3238 0.970978 4.3238 2.16777C4.3238 3.36336 3.35456 4.33434 2.1619 4.33434C0.966445 4.33434 0 3.36336 0 2.16777C0 0.970978 0.966445 0 2.1619 0Z" fill="currentColor"/>
<path d="M6.36719 5.97719H9.94538V7.62139H9.99638C10.4944 6.67566 11.7117 5.67944 13.526 5.67944C17.3036 5.67944 18.0008 8.16899 18.0008 11.4065V18.0012H14.272V12.1539C14.272 10.7591 14.2478 8.96565 12.3335 8.96565C10.3922 8.96565 10.096 10.4858 10.096 12.0537V18.0012H6.36719V5.97719Z" fill="currentColor"/>
</svg>
