<svg width="143" height="36" viewBox="0 0 143 36" fill="none" xmlns="http://www.w3.org/2000/svg">
<path d="M50.428 24V19.68H54.37C55.972 19.68 57.016 19.248 57.754 18.546C58.438 17.88 58.87 16.98 58.87 15.954C58.87 15.054 58.528 14.226 57.916 13.542C57.142 12.714 56.026 12.246 54.37 12.246H47.854V24H50.428ZM54.46 14.424C54.928 14.424 55.45 14.496 55.846 14.91C56.116 15.198 56.278 15.558 56.278 15.972C56.278 16.368 56.098 16.764 55.81 17.052C55.414 17.43 54.91 17.502 54.46 17.502H50.428V14.424H54.46ZM62.9988 24V15.216H60.6048V24H62.9988ZM60.3708 12.552C60.3708 13.254 60.9828 13.83 61.7928 13.83C62.6028 13.83 63.2328 13.254 63.2328 12.552C63.2328 11.85 62.6028 11.238 61.7928 11.238C60.9828 11.238 60.3708 11.832 60.3708 12.552ZM71.6407 15.216L69.7327 17.862L67.8607 15.216H64.8367L68.2927 19.5L64.6567 24H67.6447L69.7327 21.156L71.8567 24H74.8267L71.1907 19.5L74.6287 15.216H71.6407ZM83.0755 21.444C82.3735 21.966 81.3295 22.344 80.3755 22.344C78.8995 22.344 78.0355 21.444 77.8375 20.202H84.5155C84.5515 19.788 84.5515 19.608 84.5515 19.464C84.5515 16.224 82.2835 14.928 80.1415 14.928C77.4235 14.928 75.4795 17.016 75.4795 19.68C75.4795 22.146 77.0995 24.27 80.0695 24.27C81.6535 24.27 83.2375 23.712 84.2095 22.974L83.0755 21.444ZM80.1235 16.764C81.0415 16.764 82.1035 17.358 82.1215 18.6H77.8915C78.1615 17.61 78.8455 16.764 80.1235 16.764ZM89.1387 24V11.4H86.7267V24H89.1387ZM99.0315 24V19.68H102.974C104.576 19.68 105.62 19.248 106.358 18.546C107.042 17.88 107.474 16.98 107.474 15.954C107.474 15.054 107.132 14.226 106.52 13.542C105.746 12.714 104.63 12.246 102.974 12.246H96.4575V24H99.0315ZM103.064 14.424C103.532 14.424 104.054 14.496 104.45 14.91C104.72 15.198 104.882 15.558 104.882 15.972C104.882 16.368 104.702 16.764 104.414 17.052C104.018 17.43 103.514 17.502 103.064 17.502H99.0315V14.424H103.064ZM108.509 19.572C108.509 22.182 110.435 24.27 113.279 24.27C116.141 24.27 118.085 22.182 118.085 19.572C118.085 16.962 116.141 14.928 113.279 14.928C110.435 14.928 108.509 16.962 108.509 19.572ZM110.975 19.572C110.975 18.132 111.821 16.926 113.279 16.926C114.773 16.926 115.637 18.132 115.637 19.572C115.637 21.03 114.773 22.29 113.279 22.29C111.821 22.29 110.975 21.03 110.975 19.572ZM122.659 24V15.216H120.265V24H122.659ZM120.031 12.552C120.031 13.254 120.643 13.83 121.453 13.83C122.263 13.83 122.893 13.254 122.893 12.552C122.893 11.85 122.263 11.238 121.453 11.238C120.643 11.238 120.031 11.832 120.031 12.552ZM127.575 16.368C127.539 15.954 127.467 15.558 127.395 15.216H125.199C125.397 16.188 125.451 16.98 125.451 17.718V24H127.845V18.096C128.349 17.538 128.997 16.962 129.861 16.962C130.725 16.962 131.319 17.52 131.319 18.186V24H133.731V18.096C133.731 16.26 132.309 14.928 130.527 14.928C129.159 14.928 128.241 15.576 127.575 16.368ZM135.429 16.998H136.959V21.732C136.959 23.694 138.399 24.342 139.695 24.342C140.163 24.342 141.261 24.27 141.603 24L141.423 22.2C141.117 22.254 140.649 22.326 140.307 22.326C139.695 22.326 139.353 22.092 139.353 21.552V16.998H141.513V15.216H139.353V12.732H136.959V15.216H135.429V16.998Z" fill="white"/>
<circle cx="18" cy="18" r="18" fill="white"/>
<rect x="11" y="11" width="14" height="14" fill="black"/>
</svg>
