<svg width="20" height="20" viewBox="0 0 20 20" fill="none" xmlns="http://www.w3.org/2000/svg">
<g clip-path="url(#clip0_1329_96523)">
<path d="M19.998 3.81226C19.248 4.12476 18.498 4.37476 17.623 4.43726C18.498 3.93726 19.123 3.12476 19.4355 2.18726C18.623 2.68726 17.748 2.99976 16.8105 3.18726C16.0605 2.37476 14.998 1.87476 13.873 1.87476C11.623 1.87476 9.74805 3.68726 9.74805 5.99976C9.74805 6.31226 9.81055 6.62476 9.87305 6.93726C6.43555 6.74976 3.43555 5.12476 1.37305 2.62476C0.998047 3.24976 0.810547 3.93726 0.810547 4.68726C0.810547 6.12476 1.56055 7.37476 2.62305 8.12476C1.93555 8.12476 1.31055 7.93726 0.748047 7.62476V7.68726C0.748047 9.68726 2.18555 11.3123 4.06055 11.6873C3.68555 11.7498 3.37305 11.8123 2.99805 11.8123C2.74805 11.8123 2.49805 11.8123 2.24805 11.7498C2.74805 13.3748 4.31055 14.5623 6.06055 14.6248C4.68555 15.7498 2.87305 16.3748 0.935547 16.3748C0.623047 16.3748 0.248047 16.3748 -0.0644531 16.3123C1.81055 17.4373 3.99805 18.1248 6.31055 18.1248C13.873 18.1248 17.998 11.8748 17.998 6.43726C17.998 6.24976 17.998 6.06226 17.998 5.93726C18.748 5.31226 19.4355 4.62476 19.998 3.81226Z" fill="currentColor"/>
</g>
</svg>
