<svg width="224" height="44" viewBox="0 0 224 44" fill="none" xmlns="http://www.w3.org/2000/svg">
<path d="M14.6477 4.53333C14.6477 4.23878 14.8862 4 15.1804 4H26.0996C26.3938 4 26.6322 4.23878 26.6322 4.53333V5.86667C26.6322 6.16122 26.3938 6.4 26.0996 6.4H15.1804C14.8862 6.4 14.6477 6.16122 14.6477 5.86667V4.53333Z" fill="white" style="fill:white;fill-opacity:1;"/>
<path d="M11.119 8.26667C11.119 7.97211 11.3574 7.73333 11.6516 7.73333H29.6284C29.9225 7.73333 30.161 7.97211 30.161 8.26667V9.6C30.161 9.89455 29.9225 10.1333 29.6284 10.1333H11.6516C11.3574 10.1333 11.119 9.89455 11.119 9.6V8.26667Z" fill="white" style="fill:white;fill-opacity:1;"/>
<path d="M7.12413 12C7.12413 11.7054 6.88565 11.4667 6.59148 11.4667H0.532646C0.238474 11.4667 9.14346e-07 11.7054 9.14346e-07 12V13.3333C9.14346e-07 13.6279 0.238474 13.8667 0.532646 13.8667H6.59148C6.88565 13.8667 7.12413 13.6279 7.12413 13.3333V12Z" fill="white" style="fill:white;fill-opacity:1;"/>
<path d="M9.78735 12C9.78735 11.7054 10.0258 11.4667 10.32 11.4667H30.96C31.2542 11.4667 31.4926 11.7054 31.4926 12V13.3333C31.4926 13.6279 31.2542 13.8667 30.96 13.8667H10.32C10.0258 13.8667 9.78735 13.6279 9.78735 13.3333V12Z" fill="white" style="fill:white;fill-opacity:1;"/>
<path d="M34.1559 12C34.1559 11.7054 34.3943 11.4667 34.6885 11.4667H40.7473C41.0415 11.4667 41.28 11.7054 41.28 12V13.3333C41.28 13.6279 41.0415 13.8667 40.7473 13.8667H34.6885C34.3943 13.8667 34.1559 13.6279 34.1559 13.3333V12Z" fill="white" style="fill:white;fill-opacity:1;"/>
<path d="M5.9257 15.7333C5.9257 15.4388 5.68723 15.2 5.39305 15.2H0.53267C0.238498 15.2 2.57541e-05 15.4388 2.57541e-05 15.7333V17.0667C2.57541e-05 17.3612 0.238499 17.6 0.532671 17.6H5.39306C5.68723 17.6 5.9257 17.3612 5.9257 17.0667V15.7333Z" fill="white" style="fill:white;fill-opacity:1;"/>
<path d="M9.65421 15.7333C9.65421 15.4388 9.89269 15.2 10.1869 15.2H31.0932C31.3873 15.2 31.6258 15.4388 31.6258 15.7333V17.0667C31.6258 17.3612 31.3873 17.6 31.0932 17.6H10.1869C9.89269 17.6 9.65421 17.3612 9.65421 17.0667V15.7333Z" fill="white" style="fill:white;fill-opacity:1;"/>
<path d="M35.3543 15.7333C35.3543 15.4388 35.5928 15.2 35.887 15.2H40.7474C41.0415 15.2 41.28 15.4388 41.28 15.7333V17.0667C41.28 17.3612 41.0415 17.6 40.7474 17.6H35.887C35.5928 17.6 35.3543 17.3612 35.3543 17.0667V15.7333Z" fill="white" style="fill:white;fill-opacity:1;"/>
<path d="M2.66323 19.4667C2.66323 19.1721 2.9017 18.9333 3.19587 18.9333H38.0841C38.3783 18.9333 38.6168 19.1721 38.6168 19.4667V20.8C38.6168 21.0946 38.3783 21.3333 38.0841 21.3333H3.19587C2.9017 21.3333 2.66323 21.0946 2.66323 20.8V19.4667Z" fill="white" style="fill:white;fill-opacity:1;"/>
<path d="M12.7169 23.2C12.7169 22.9054 12.9554 22.6667 13.2495 22.6667H28.0304C28.3246 22.6667 28.5631 22.9054 28.5631 23.2V24.5333C28.5631 24.8279 28.3246 25.0667 28.0304 25.0667H13.2495C12.9554 25.0667 12.7169 24.8279 12.7169 24.5333V23.2Z" fill="white" style="fill:white;fill-opacity:1;"/>
<path d="M9.78737 26.9333C9.78737 26.6388 10.0258 26.4 10.32 26.4H14.9807C15.2748 26.4 15.5133 26.6388 15.5133 26.9333V28.2667C15.5133 28.5612 15.2748 28.8 14.9807 28.8H10.32C10.0258 28.8 9.78737 28.5612 9.78737 28.2667V26.9333Z" fill="white" style="fill:white;fill-opacity:1;"/>
<path d="M16.5786 26.9333C16.5786 26.6388 16.8171 26.4 17.1112 26.4H24.1688C24.463 26.4 24.7014 26.6388 24.7014 26.9333V28.2667C24.7014 28.5612 24.463 28.8 24.1688 28.8H17.1112C16.8171 28.8 16.5786 28.5612 16.5786 28.2667V26.9333Z" fill="white" style="fill:white;fill-opacity:1;"/>
<path d="M31.4927 26.9333C31.4927 26.6388 31.2542 26.4 30.96 26.4H26.2994C26.0052 26.4 25.7667 26.6388 25.7667 26.9333V28.2667C25.7667 28.5612 26.0052 28.8 26.2994 28.8H30.96C31.2542 28.8 31.4927 28.5612 31.4927 28.2667V26.9333Z" fill="white" style="fill:white;fill-opacity:1;"/>
<path d="M0 30.6667C0 30.3721 0.238473 30.1333 0.532645 30.1333H12.7835C13.0776 30.1333 13.3161 30.3721 13.3161 30.6667V32C13.3161 32.2946 13.0777 32.5333 12.7835 32.5333H0.532645C0.238474 32.5333 0 32.2946 0 32V30.6667Z" fill="white" style="fill:white;fill-opacity:1;"/>
<path d="M17.311 30.6667C17.311 30.3721 17.5494 30.1333 17.8436 30.1333H23.4364C23.7305 30.1333 23.969 30.3721 23.969 30.6667V32C23.969 32.2946 23.7305 32.5333 23.4364 32.5333H17.8436C17.5494 32.5333 17.311 32.2946 17.311 32V30.6667Z" fill="white" style="fill:white;fill-opacity:1;"/>
<path d="M41.28 30.6667C41.28 30.3721 41.0415 30.1333 40.7473 30.1333H28.4965C28.2023 30.1333 27.9639 30.3721 27.9639 30.6667V32C27.9639 32.2946 28.2023 32.5333 28.4965 32.5333H40.7473C41.0415 32.5333 41.28 32.2946 41.28 32V30.6667Z" fill="white" style="fill:white;fill-opacity:1;"/>
<path d="M9.14346e-07 34.4C9.14346e-07 34.1054 0.238474 33.8667 0.532646 33.8667H8.256C8.55017 33.8667 8.78864 34.1054 8.78864 34.4V35.7333C8.78864 36.0279 8.55017 36.2667 8.256 36.2667H0.532646C0.238475 36.2667 9.14346e-07 36.0279 9.14346e-07 35.7333V34.4Z" fill="white" style="fill:white;fill-opacity:1;"/>
<path d="M17.311 34.4C17.311 34.1054 17.5494 33.8667 17.8436 33.8667H23.4364C23.7305 33.8667 23.969 34.1054 23.969 34.4V35.7333C23.969 36.0279 23.7305 36.2667 23.4364 36.2667H17.8436C17.5494 36.2667 17.311 36.0279 17.311 35.7333V34.4Z" fill="white" style="fill:white;fill-opacity:1;"/>
<path d="M41.28 34.4C41.28 34.1054 41.0415 33.8667 40.7473 33.8667H33.024C32.7298 33.8667 32.4913 34.1054 32.4913 34.4V35.7333C32.4913 36.0279 32.7298 36.2667 33.024 36.2667H40.7473C41.0415 36.2667 41.28 36.0279 41.28 35.7333V34.4Z" fill="white" style="fill:white;fill-opacity:1;"/>
<path d="M17.311 38.1333C17.311 37.8388 17.5494 37.6 17.8436 37.6H23.4364C23.7305 37.6 23.969 37.8388 23.969 38.1333V39.4667C23.969 39.7612 23.7305 40 23.4364 40H17.8436C17.5494 40 17.311 39.7612 17.311 39.4667V38.1333Z" fill="white" style="fill:white;fill-opacity:1;"/>
<path d="M211.641 17.4394C211.792 17.4394 211.928 17.5343 211.979 17.6768L216.183 29.2894L220.269 17.6799C220.319 17.5358 220.456 17.4394 220.608 17.4394H223.452C223.621 17.4394 223.737 17.6095 223.675 17.7669L216.843 35.1994C216.483 36.1194 216.153 36.8194 215.853 37.2994C215.553 37.7994 215.183 38.1694 214.743 38.4094C214.303 38.6694 213.713 38.7994 212.973 38.7994H209.853C209.655 38.7994 209.493 38.6382 209.493 38.4394V36.3094C209.493 36.1105 209.655 35.9494 209.853 35.9494H211.773C212.393 35.9494 212.823 35.8494 213.063 35.6494C213.303 35.4694 213.553 35.0494 213.813 34.3894L214.443 32.9194L208.57 17.7661C208.509 17.6088 208.625 17.4394 208.794 17.4394H211.641Z" fill="white" style="fill:white;fill-opacity:1;"/>
<path d="M201.221 13.509C201.221 13.3102 201.382 13.149 201.581 13.149H204.101C204.3 13.149 204.461 13.3102 204.461 13.509V17.439H207.581C207.78 17.439 207.941 17.6002 207.941 17.799V19.929C207.941 20.1278 207.78 20.289 207.581 20.289H204.461V28.299C204.461 28.899 204.581 29.329 204.821 29.589C205.061 29.829 205.471 29.949 206.051 29.949H208.151C208.35 29.949 208.511 30.1102 208.511 30.309V32.439C208.511 32.6378 208.35 32.799 208.151 32.799H205.391C203.931 32.799 202.871 32.459 202.211 31.779C201.551 31.099 201.221 30.049 201.221 28.629V13.509Z" fill="white" style="fill:white;fill-opacity:1;"/>
<path d="M199.105 17.4394C199.303 17.4394 199.465 17.6005 199.465 17.7994V20.1094C199.465 20.3082 199.303 20.4694 199.105 20.4694H198.025C196.685 20.4694 195.715 20.9094 195.115 21.7894C194.515 22.6494 194.215 23.7494 194.215 25.0894V32.4394C194.215 32.6382 194.053 32.7994 193.855 32.7994H191.335C191.136 32.7994 190.975 32.6382 190.975 32.4394V17.7994C190.975 17.6005 191.136 17.4394 191.335 17.4394H193.546C193.724 17.4394 193.875 17.5686 193.902 17.7439L194.215 19.7494C194.655 19.0294 195.225 18.4694 195.925 18.0694C196.625 17.6494 197.565 17.4394 198.745 17.4394H199.105Z" fill="white" style="fill:white;fill-opacity:1;"/>
<path d="M181.88 17.2593C183.94 17.2593 185.53 17.7393 186.65 18.6993C187.77 19.6593 188.33 21.0293 188.33 22.8093V32.4393C188.33 32.6382 188.169 32.7993 187.97 32.7993H185.828C185.646 32.7993 185.493 32.6638 185.471 32.4834L185.24 30.6093C184.66 31.3693 183.97 31.9593 183.17 32.3793C182.39 32.7793 181.43 32.9793 180.29 32.9793C178.59 32.9793 177.23 32.5793 176.21 31.7793C175.19 30.9793 174.68 29.8793 174.68 28.4793C174.68 26.8993 175.24 25.6893 176.36 24.8493C177.5 23.9893 179.14 23.5593 181.28 23.5593H185.12V22.6293C185.12 21.7693 184.82 21.0993 184.22 20.6193C183.62 20.1193 182.79 19.8693 181.73 19.8693C180.79 19.8693 180.01 20.0693 179.39 20.4693C178.877 20.8112 178.539 21.2626 178.377 21.8235C178.329 21.992 178.182 22.1193 178.006 22.1193H175.396C175.254 22.1193 175.142 21.9959 175.163 21.8551C175.37 20.4426 176.039 19.3407 177.17 18.5493C178.37 17.6893 179.94 17.2593 181.88 17.2593ZM180.83 30.4593C182.17 30.4593 183.21 30.0993 183.95 29.3793C184.71 28.6593 185.1 27.6993 185.12 26.4993V25.9593H181.1C180.1 25.9593 179.33 26.1593 178.79 26.5593C178.25 26.9393 177.98 27.5093 177.98 28.2693C177.98 28.9293 178.23 29.4593 178.73 29.8593C179.25 30.2593 179.95 30.4593 180.83 30.4593Z" fill="white" style="fill:white;fill-opacity:1;"/>
<path d="M166.897 11.7991C168.337 11.7991 169.607 12.0791 170.707 12.6391C171.807 13.1791 172.657 13.9591 173.257 14.9791C173.857 15.9791 174.157 17.1491 174.157 18.4891C174.157 19.8291 173.857 21.0091 173.257 22.0291C172.657 23.0291 171.807 23.8091 170.707 24.3691C169.607 24.9091 168.337 25.1791 166.897 25.1791H162.067V32.4391C162.067 32.6379 161.906 32.7991 161.707 32.7991H158.977C158.778 32.7991 158.617 32.6379 158.617 32.4391V12.1591C158.617 11.9602 158.778 11.7991 158.977 11.7991H166.897ZM162.067 22.1791H166.597C167.837 22.1791 168.817 21.8491 169.537 21.1891C170.277 20.5091 170.647 19.6091 170.647 18.4891C170.647 17.3491 170.287 16.4491 169.567 15.7891C168.847 15.1291 167.867 14.7991 166.627 14.7991H162.067V22.1791Z" fill="white" style="fill:white;fill-opacity:1;"/>
<path d="M142.775 17.2591C144.615 17.2591 146.105 17.8191 147.245 18.9391C148.405 20.0591 148.985 21.8591 148.985 24.3391V32.4391C148.985 32.6379 148.824 32.7991 148.625 32.7991H146.105C145.906 32.7991 145.745 32.6379 145.745 32.4391V24.5191C145.745 23.0591 145.425 21.9491 144.785 21.1891C144.165 20.4291 143.255 20.0491 142.055 20.0491C140.775 20.0491 139.765 20.4991 139.025 21.3991C138.305 22.2791 137.945 23.4891 137.945 25.0291V32.4391C137.945 32.6379 137.784 32.7991 137.585 32.7991H135.065C134.866 32.7991 134.705 32.6379 134.705 32.4391V12.1591C134.705 11.9602 134.866 11.7991 135.065 11.7991H137.585C137.784 11.7991 137.945 11.9602 137.945 12.1591V19.6591C139.105 18.0591 140.715 17.2591 142.775 17.2591Z" fill="white" style="fill:white;fill-opacity:1;"/>
<path d="M132.37 27.2793C132.518 27.2793 132.632 27.4131 132.602 27.5586C132.271 29.2064 131.518 30.5133 130.344 31.4793C129.104 32.4793 127.514 32.9793 125.574 32.9793C124.054 32.9793 122.714 32.6593 121.554 32.0193C120.394 31.3593 119.494 30.4293 118.854 29.2293C118.234 28.0293 117.924 26.6493 117.924 25.0893C117.924 23.5293 118.244 22.1593 118.884 20.9793C119.524 19.7993 120.424 18.8893 121.584 18.2493C122.764 17.5893 124.124 17.2593 125.664 17.2593C127.584 17.2593 129.154 17.7693 130.374 18.7893C131.528 19.7351 132.27 21.0117 132.601 22.6192C132.631 22.765 132.518 22.8993 132.369 22.8993H129.605C129.44 22.8993 129.297 22.7863 129.247 22.6288C129.009 21.8747 128.595 21.2649 128.004 20.7993C127.344 20.2793 126.534 20.0193 125.574 20.0193C124.274 20.0193 123.224 20.4893 122.424 21.4293C121.644 22.3693 121.254 23.5893 121.254 25.0893C121.254 26.6093 121.644 27.8493 122.424 28.8093C123.224 29.7493 124.274 30.2193 125.574 30.2193C126.574 30.2193 127.404 29.9593 128.064 29.4393C128.654 28.9565 129.06 28.3298 129.283 27.5592C129.329 27.3971 129.474 27.2793 129.643 27.2793H132.37Z" fill="white" style="fill:white;fill-opacity:1;"/>
<path d="M117.103 17.4394C117.301 17.4394 117.463 17.6005 117.463 17.7994V20.1094C117.463 20.3082 117.301 20.4694 117.103 20.4694H116.023C114.683 20.4694 113.713 20.9094 113.113 21.7894C112.513 22.6494 112.213 23.7494 112.213 25.0894V32.4394C112.213 32.6382 112.051 32.7994 111.853 32.7994H109.333C109.134 32.7994 108.973 32.6382 108.973 32.4394V17.7994C108.973 17.6005 109.134 17.4394 109.333 17.4394H111.544C111.722 17.4394 111.873 17.5686 111.9 17.7439L112.213 19.7494C112.653 19.0294 113.223 18.4694 113.923 18.0694C114.623 17.6494 115.563 17.4394 116.743 17.4394H117.103Z" fill="white" style="fill:white;fill-opacity:1;"/>
<path d="M99.8836 17.2593C101.944 17.2593 103.534 17.7393 104.654 18.6993C105.774 19.6593 106.334 21.0293 106.334 22.8093V32.4393C106.334 32.6382 106.172 32.7993 105.974 32.7993H103.832C103.65 32.7993 103.497 32.6638 103.475 32.4834L103.244 30.6093C102.664 31.3693 101.974 31.9593 101.174 32.3793C100.394 32.7793 99.4336 32.9793 98.2936 32.9793C96.5936 32.9793 95.2336 32.5793 94.2136 31.7793C93.1936 30.9793 92.6836 29.8793 92.6836 28.4793C92.6836 26.8993 93.2436 25.6893 94.3636 24.8493C95.5036 23.9893 97.1436 23.5593 99.2836 23.5593H103.124V22.6293C103.124 21.7693 102.824 21.0993 102.224 20.6193C101.624 20.1193 100.794 19.8693 99.7336 19.8693C98.7936 19.8693 98.0136 20.0693 97.3936 20.4693C96.8808 20.8112 96.5434 21.2626 96.3812 21.8235C96.3325 21.992 96.1854 22.1193 96.0101 22.1193H93.3998C93.2575 22.1193 93.146 21.9959 93.1667 21.8551C93.3742 20.4426 94.0431 19.3407 95.1736 18.5493C96.3736 17.6893 97.9436 17.2593 99.8836 17.2593ZM98.8336 30.4593C100.174 30.4593 101.214 30.0993 101.954 29.3793C102.714 28.6593 103.104 27.6993 103.124 26.4993V25.9593H99.1036C98.1036 25.9593 97.3336 26.1593 96.7936 26.5593C96.2536 26.9393 95.9836 27.5093 95.9836 28.2693C95.9836 28.9293 96.2336 29.4593 96.7336 29.8593C97.2536 30.2593 97.9536 30.4593 98.8336 30.4593Z" fill="white" style="fill:white;fill-opacity:1;"/>
<path d="M75.8945 25.1493C75.8945 23.5693 76.2045 22.1893 76.8245 21.0093C77.4645 19.8093 78.3445 18.8893 79.4645 18.2493C80.6045 17.5893 81.9045 17.2593 83.3645 17.2593C84.8445 17.2593 86.1445 17.5593 87.2645 18.1593C88.4045 18.7593 89.2945 19.6093 89.9345 20.7093C90.5945 21.8093 90.9345 23.0993 90.9545 24.5793C90.9545 24.8804 90.9375 25.1872 90.9035 25.4996C90.8842 25.6777 90.7315 25.8093 90.5523 25.8093H79.2845V25.9893C79.3645 27.3293 79.7845 28.3893 80.5445 29.1693C81.3045 29.9493 82.3145 30.3393 83.5745 30.3393C84.5745 30.3393 85.4145 30.1093 86.0945 29.6493C86.7021 29.2205 87.126 28.6399 87.3664 27.9077C87.4177 27.7515 87.5596 27.6393 87.724 27.6393H90.3976C90.5471 27.6393 90.6605 27.7747 90.6282 27.9207C90.3104 29.3539 89.5692 30.5401 88.4045 31.4793C87.1845 32.4793 85.6545 32.9793 83.8145 32.9793C82.2145 32.9793 80.8145 32.6593 79.6145 32.0193C78.4345 31.3593 77.5145 30.4393 76.8545 29.2593C76.2145 28.0793 75.8945 26.7093 75.8945 25.1493ZM87.6545 23.4393C87.5145 22.3193 87.0645 21.4493 86.3045 20.8293C85.5645 20.1893 84.6245 19.8693 83.4845 19.8693C82.4245 19.8693 81.5045 20.1993 80.7245 20.8593C79.9645 21.4993 79.5245 22.3593 79.4045 23.4393H87.6545Z" fill="white" style="fill:white;fill-opacity:1;"/>
<path d="M60.9196 25.9594C61.1072 25.9594 61.2619 26.1038 61.2887 26.2895C61.4454 27.3781 61.9331 28.2681 62.7518 28.9594C63.6718 29.6994 64.8618 30.0694 66.3218 30.0694C67.6018 30.0694 68.6318 29.7994 69.4118 29.2594C70.2118 28.6994 70.6118 27.9294 70.6118 26.9494C70.6118 26.2494 70.3918 25.6994 69.9518 25.2994C69.5318 24.8794 68.9518 24.5594 68.2118 24.3394C67.4718 24.1194 66.4318 23.8894 65.0918 23.6494C63.7318 23.4094 62.5618 23.0994 61.5818 22.7194C60.6218 22.3194 59.8318 21.7194 59.2118 20.9194C58.6118 20.1194 58.3118 19.0694 58.3118 17.7694C58.3118 16.5694 58.6218 15.4994 59.2418 14.5594C59.8818 13.6194 60.7618 12.8894 61.8818 12.3694C63.0218 11.8494 64.3218 11.5894 65.7818 11.5894C67.2818 11.5894 68.6218 11.8694 69.8018 12.4294C70.9818 12.9894 71.9118 13.7594 72.5918 14.7394C73.2033 15.6207 73.5641 16.6152 73.6742 17.7229C73.6945 17.9274 73.5298 18.0994 73.3242 18.0994H70.634C70.4506 18.0994 70.2982 17.961 70.2651 17.7806C70.0939 16.8469 69.6395 16.0832 68.9018 15.4894C68.0818 14.8294 67.0418 14.4994 65.7818 14.4994C64.5618 14.4994 63.5818 14.7694 62.8418 15.3094C62.1218 15.8294 61.7618 16.5694 61.7618 17.5294C61.7618 18.2094 61.9718 18.7494 62.3918 19.1494C62.8318 19.5494 63.4118 19.8494 64.1318 20.0494C64.8518 20.2494 65.8818 20.4694 67.2218 20.7094C68.5818 20.9494 69.7518 21.2694 70.7318 21.6694C71.7118 22.0694 72.5118 22.6594 73.1318 23.4394C73.7518 24.2194 74.0618 25.2494 74.0618 26.5294C74.0618 27.7694 73.7318 28.8794 73.0718 29.8594C72.4118 30.8394 71.4918 31.6094 70.3118 32.1694C69.1318 32.7094 67.7918 32.9794 66.2918 32.9794C64.6318 32.9794 63.1718 32.6794 61.9118 32.0794C60.6518 31.4794 59.6618 30.6494 58.9418 29.5894C58.3043 28.6059 57.9355 27.5478 57.8596 26.3244C57.8471 26.124 58.0101 25.9594 58.211 25.9594H60.9196Z" fill="white" style="fill:white;fill-opacity:1;"/>
</svg>
