<svg width="185" height="44" viewBox="0 0 185 44" fill="none" xmlns="http://www.w3.org/2000/svg">
<g clip-path="url(#clip0_6120_14239)">
<path fill-rule="evenodd" clip-rule="evenodd" d="M26.9856 4.86426L37.086 15.038H37.0777C39.8591 17.8362 40.7558 21.2869 39.6069 24.7586C39.0725 26.3256 38.21 27.7591 37.0777 28.9619L26.969 39.1358C24.977 41.1355 22.6544 42.1667 20.2285 42.1667C19.2333 42.1623 18.2454 41.9967 17.3026 41.676C15.7463 41.1401 14.3227 40.2738 13.1286 39.1358L3.01576 28.9619C0.234436 26.168 -0.662366 22.7131 0.490664 19.2414C1.02391 17.6747 1.88498 16.2414 3.01576 15.038L13.141 4.86426C15.9223 2.07032 19.3566 1.16811 22.8074 2.32394C24.3646 2.8604 25.7894 3.72665 26.9856 4.86426ZM22.8941 9.00528C22.2957 8.46771 21.5918 8.06259 20.8278 7.81618L20.8361 7.81203C19.1747 7.32143 18.0382 8.1779 17.2323 8.98449L14.2278 12.0113L20.055 17.8735L25.8821 12.0154L22.8941 9.00528ZM7.14436 19.1333C6.60813 19.7347 6.20397 20.443 5.95826 21.2122L5.95413 21.2038C5.47061 22.8751 6.31781 24.0185 7.1237 24.8251L10.1282 27.8519L15.9594 21.9896L10.1323 16.1274L7.14436 19.1333ZM17.2076 34.9822C17.8045 35.5218 18.509 35.9272 19.2739 36.1713V36.2046C20.9394 36.6952 22.0717 35.8387 22.8776 35.0322L25.8821 32.0053L20.055 26.1431L14.2278 32.0096L17.2076 34.9822ZM32.9697 24.8834C33.5035 24.2809 33.9061 23.5727 34.1517 22.8045L34.1559 22.7712C34.6394 21.0998 33.7922 19.9565 32.9863 19.15L29.9818 16.1274L24.1546 21.9896L29.9818 27.8519L32.9697 24.8834ZM64.1146 36.3254H58.8949V22.8462C58.8949 20.3226 58.0601 18.7718 55.3036 18.7718C52.1751 18.7718 50.8361 22.1312 50.8361 24.817V36.3129H45.6206V5.98697H50.8361V16.7969C52.0925 14.9467 54.5101 13.9406 56.7665 13.9406C61.3993 13.9406 64.1146 17.2584 64.1146 21.7527V36.3254ZM74.467 32.6625C77.6946 32.6625 79.9718 30.9121 79.9718 27.7065V26.7087L74.5084 27.1244C72.9338 27.2492 71.4006 28.2054 71.4006 29.9558C71.4006 31.623 72.8511 32.6625 74.467 32.6625ZM86.8859 36.08C86.0937 36.4909 85.2103 36.6914 84.3194 36.6621L84.3153 36.6496C82.0795 36.6496 80.8397 35.236 80.6744 33.6103C79.6784 35.3607 77.1946 36.8575 74.1322 36.8575C68.9953 36.8575 66.3463 33.6103 66.3463 30.068C66.3463 25.9437 69.5325 23.5697 73.6323 23.2787L79.9718 22.8337V21.4991C79.9718 19.4577 79.2693 18.0858 76.3309 18.0858C73.9256 18.0858 72.5205 19.1668 72.3965 21.1665H67.3836C67.6728 16.2938 71.5245 14.1277 76.3309 14.1277C80.0131 14.1277 83.1623 15.2918 84.4021 18.543C84.8797 19.9491 85.0913 21.4326 85.0261 22.9169V30.9537C85.0261 31.9556 85.3567 32.3298 86.2247 32.3298C86.4473 32.3259 86.669 32.298 86.8859 32.2467V36.08ZM101.408 19.333C101.134 19.299 100.858 19.281 100.582 19.279L100.569 19.2914C96.9284 19.2914 95.0233 21.9149 95.0233 25.4156V36.3295H89.8036V14.6682H94.1967L94.6554 17.9152C95.6472 15.4166 98.2137 14.3771 100.743 14.3771C100.852 14.3771 100.962 14.3895 101.072 14.4019C101.184 14.4144 101.296 14.427 101.408 14.427V19.333ZM122.092 36.3378H116.914L116.918 23.0416C116.918 20.5013 116.092 18.9588 113.36 18.9588C111.546 18.9588 110.343 20.1229 109.64 21.707C108.929 23.3315 108.932 25.4445 108.934 27.2244C108.934 27.3167 108.934 27.4082 108.934 27.4986V36.3254H103.76V14.6639H108.095L108.467 17.4537C109.753 15.1671 112.323 14.1277 114.802 14.1277C119.398 14.1277 122.092 17.3747 122.092 21.8733V36.3378ZM129.78 23.341H139.086H139.099C139.057 21.7154 138.599 20.4681 137.772 19.5492C137.343 19.1239 136.831 18.7934 136.269 18.5786C135.706 18.3639 135.104 18.2696 134.503 18.3019C133.816 18.2775 133.131 18.4152 132.506 18.7039C131.88 18.9926 131.329 19.4245 130.9 19.965C130.152 20.9276 129.756 22.1197 129.78 23.341ZM142.409 18.1315C143.984 20.5096 144.355 22.9668 144.272 25.6735C144.272 25.6735 144.231 26.6712 144.231 27.1328H129.837C129.799 27.9115 129.918 28.6901 130.189 29.4207C130.46 30.1514 130.875 30.8187 131.412 31.3818C132.26 32.2303 133.406 32.7084 134.603 32.7123C136.094 32.7123 137.004 32.4213 137.747 31.6729C138.252 31.1677 138.611 30.5339 138.785 29.8395H143.744C143.62 31.1325 142.748 32.837 141.921 33.839C140.099 36.0052 137.408 36.8783 134.677 36.8783C133.425 36.9121 132.179 36.6938 131.012 36.2361C129.846 35.7784 128.782 35.0907 127.882 34.2132C125.733 32.1302 124.576 29.0911 124.576 25.5487C124.576 22.0896 125.614 19.0087 127.68 16.8842C128.58 15.979 129.654 15.2683 130.836 14.7958C132.019 14.3232 133.285 14.0986 134.557 14.1359C137.73 14.1359 140.632 15.4248 142.409 18.1315ZM151.696 19.3134C151.401 19.7224 151.237 20.2121 151.224 20.7175L151.237 20.7092C151.237 22.2475 152.559 22.709 153.716 22.8753C154.22 22.9399 154.63 22.9905 154.997 23.0359C156.047 23.1658 156.747 23.2525 158.312 23.499C161.713 24.0395 164.192 26.2056 164.192 29.6232C164.22 30.5019 164.067 31.377 163.746 32.1943C163.423 33.0116 162.939 33.754 162.32 34.3754C160.581 36.1216 157.89 36.87 154.952 36.87C152.216 36.87 149.774 36.0842 147.992 34.3754C146.746 33.1974 145.952 31.6146 145.752 29.906H150.629C150.764 30.6671 151.148 31.3608 151.72 31.8766C152.551 32.5419 153.501 32.8329 154.993 32.8329C156.733 32.8329 159.382 32.4587 159.382 30.0847C159.382 28.8332 158.552 28.0017 157.229 27.7938C156.508 27.6836 155.751 27.5973 154.986 27.51C153.729 27.3666 152.449 27.2207 151.265 26.9623C148.327 26.3345 146.34 23.9189 146.34 21.1707C146.317 20.2447 146.503 19.3256 146.883 18.4818C147.262 17.6382 147.827 16.8916 148.534 16.298C150.117 14.9218 152.381 14.1318 155.076 14.1318C157.642 14.1318 160.25 14.9634 161.821 16.6763C162.984 17.8718 163.664 19.4609 163.726 21.1333H158.795C158.78 20.3654 158.469 19.6336 157.927 19.0919C157.144 18.4207 156.141 18.0652 155.113 18.094C154.353 18.0442 153.59 18.1576 152.877 18.4267C152.403 18.595 151.992 18.9043 151.696 19.3134ZM183.575 21.1249H178.662H178.649C178.632 20.3566 178.319 19.6249 177.777 19.0835C176.993 18.4123 175.991 18.0569 174.962 18.0858C174.202 18.0358 173.44 18.1492 172.726 18.4184C172.253 18.5867 171.841 18.8959 171.546 19.305C171.251 19.7142 171.086 20.2039 171.074 20.7092C171.074 22.2475 172.397 22.709 173.554 22.8753C174.056 22.9397 174.465 22.9903 174.831 23.0356C175.882 23.1656 176.582 23.2522 178.148 23.499C181.55 24.0395 184.03 26.2056 184.03 29.6232C184.058 30.5014 183.907 31.376 183.586 32.1933C183.266 33.0107 182.782 33.7532 182.166 34.3754C180.426 36.1216 177.736 36.87 174.797 36.87C172.061 36.87 169.619 36.0842 167.842 34.3754C166.593 33.1989 165.797 31.6156 165.598 29.906H170.491C170.625 30.6671 171.009 31.3608 171.582 31.8766C172.412 32.5419 173.363 32.8329 174.855 32.8329C176.59 32.8329 179.244 32.4587 179.244 30.0847C179.244 28.8332 178.414 28.0017 177.091 27.7938C176.369 27.6836 175.612 27.5972 174.847 27.5098C173.59 27.3665 172.311 27.2206 171.127 26.9623C168.189 26.3345 166.201 23.9189 166.201 21.1707C166.179 20.2447 166.365 19.3256 166.744 18.4818C167.124 17.6382 167.689 16.8916 168.396 16.298C169.978 14.9218 172.247 14.1318 174.938 14.1318C177.488 14.1318 180.096 14.9634 181.67 16.668C182.834 17.8635 183.513 19.4526 183.575 21.1249Z" fill="white"/>
</g>
<defs>
<clipPath id="clip0_6120_14239">
<rect width="185" height="44" fill="white"/>
</clipPath>
</defs>
</svg>
