<svg width="72" height="72" viewBox="0 0 72 72" fill="none" xmlns="http://www.w3.org/2000/svg">
<rect x="5.5" y="5.5" width="61" height="61" rx="30.5" stroke="#2B4BEE" stroke-width="3"/>
<rect x="3.5" y="3.5" width="65" height="65" stroke="#2B4BEE"/>
<rect x="1" y="1" width="9" height="9" fill="white" stroke="#2B4BEE" stroke-width="2"/>
<rect x="62" y="1" width="9" height="9" fill="white" stroke="#2B4BEE" stroke-width="2"/>
<rect x="1" y="62" width="9" height="9" fill="white" stroke="#2B4BEE" stroke-width="2"/>
<rect x="62" y="62" width="9" height="9" fill="white" stroke="#2B4BEE" stroke-width="2"/>
<path fill-rule="evenodd" clip-rule="evenodd" d="M28.5285 48.9166C30.8101 49.7414 33.024 50.789 34.563 51.6074V52.3835C30.6711 52.0466 27.167 50.3541 24.5253 47.7806C25.7427 48.006 27.1127 48.4047 28.5285 48.9166ZM37.1176 52.408C41.1708 52.136 44.8217 50.3955 47.5427 47.714C46.2322 47.9215 44.7203 48.3496 43.1521 48.9166C40.8706 49.7414 38.6567 50.789 37.1176 51.6074V52.408ZM37.1176 48.7364C38.5996 48.0015 40.4156 47.1895 42.2836 46.5141C44.7421 45.6253 47.5056 44.8908 49.7392 45.0414C50.4936 43.8973 51.1089 42.6535 51.5611 41.3339C50.9865 41.3598 50.3285 41.4368 49.5969 41.5651C48.1688 41.8154 46.5637 42.2412 44.9316 42.758C42.0403 43.6736 39.1393 44.8508 37.1176 45.7607V48.7364ZM37.1176 42.9696C39.1042 42.1133 41.6296 41.1241 44.1604 40.3226C45.856 39.7857 47.5778 39.3254 49.1558 39.0488C50.2148 38.8632 51.2595 38.7508 52.2127 38.7722C52.3657 37.871 52.4454 36.9448 52.4454 36C52.4454 35.9637 52.4453 35.9274 52.445 35.8912C49.3254 36.1467 43.024 37.2775 37.1176 40.2859V42.9696ZM35.8403 38.0699C29.7465 34.9392 23.2733 33.7019 19.7632 33.3734C21.0207 25.5394 27.8115 19.5546 36 19.5546C44.1789 19.5546 50.9632 25.5252 52.2323 33.3457C48.8052 33.6277 42.1213 34.8431 35.8403 38.0699ZM34.563 40.2859C28.8517 37.3767 22.7708 36.2234 19.5548 35.9194C19.5547 35.9462 19.5546 35.9731 19.5546 36C19.5546 36.944 19.6342 37.8694 19.7869 38.7699C20.652 38.7765 21.5828 38.8837 22.5249 39.0488C24.1028 39.3254 25.8247 39.7857 27.5203 40.3226C30.0511 41.1241 32.5765 42.1133 34.563 42.9696V40.2859ZM34.563 45.7607C32.5414 44.8508 29.6403 43.6736 26.749 42.758C25.117 42.2412 23.5118 41.8154 22.0838 41.5651C21.487 41.4605 20.9391 41.3899 20.4456 41.3534C20.8952 42.6599 21.5047 43.892 22.2509 45.0262C24.4269 44.9583 27.0509 45.6659 29.3971 46.5141C31.2651 47.1895 33.0811 48.0015 34.563 48.7364V45.7607ZM36 55C46.4934 55 55 46.4934 55 36C55 25.5066 46.4934 17 36 17C25.5066 17 17 25.5066 17 36C17 46.4934 25.5066 55 36 55Z" fill="white"/>
</svg>
