<svg width="72" height="72" viewBox="0 0 72 72" fill="none" xmlns="http://www.w3.org/2000/svg">
<rect x="5.5" y="5.5" width="61" height="61" rx="30.5" stroke="#2B4BEE" stroke-width="3"/>
<rect x="3.5" y="3.5" width="65" height="65" stroke="#2B4BEE"/>
<rect x="1" y="1" width="9" height="9" fill="white" stroke="#2B4BEE" stroke-width="2"/>
<rect x="62" y="1" width="9" height="9" fill="white" stroke="#2B4BEE" stroke-width="2"/>
<rect x="1" y="62" width="9" height="9" fill="white" stroke="#2B4BEE" stroke-width="2"/>
<rect x="62" y="62" width="9" height="9" fill="white" stroke="#2B4BEE" stroke-width="2"/>
<path fill-rule="evenodd" clip-rule="evenodd" d="M28.9218 48.2367C31.0832 49.0182 33.1806 50.0107 34.6387 50.7859V51.5212C30.9515 51.202 27.6319 49.5986 25.1292 47.1606C26.2825 47.3741 27.5804 47.7518 28.9218 48.2367ZM37.0588 51.5444C40.8986 51.2867 44.3574 49.6378 46.9352 47.0974C45.6936 47.2941 44.2613 47.6996 42.7757 48.2367C40.6143 49.0182 38.5169 50.0107 37.0588 50.7859V51.5444ZM37.0588 48.0661C38.4628 47.3698 40.1832 46.6005 41.9529 45.9607C44.2819 45.1187 46.9 44.4229 49.0161 44.5655C49.7307 43.4817 50.3137 42.3033 50.7421 41.0531C50.1977 41.0777 49.5744 41.1507 48.8812 41.2722C47.5284 41.5093 46.0077 41.9127 44.4615 42.4024C41.7224 43.2698 38.9741 44.3849 37.0588 45.247V48.0661ZM37.0588 42.6027C38.9408 41.7916 41.3333 40.8544 43.7309 40.0951C45.3372 39.5864 46.9685 39.1504 48.4634 38.8883C49.4666 38.7125 50.4564 38.606 51.3594 38.6263C51.5044 37.7725 51.5798 36.8951 51.5798 36C51.5798 35.9656 51.5797 35.9312 51.5795 35.8969C48.6241 36.1389 42.6543 37.2102 37.0588 40.0603V42.6027ZM35.8487 37.9609C30.0756 34.9951 23.9431 33.8228 20.6178 33.5116C21.8091 26.0899 28.2424 20.4202 36 20.4202C43.7484 20.4202 50.1757 26.0765 51.378 33.4854C48.1313 33.7525 41.7991 34.904 35.8487 37.9609ZM34.6387 40.0603C29.2279 37.3043 23.4671 36.2116 20.4204 35.9236C20.4202 35.9491 20.4202 35.9745 20.4202 36C20.4202 36.8943 20.4955 37.771 20.6402 38.6242C21.4598 38.6304 22.3416 38.7319 23.2341 38.8883C24.729 39.1504 26.3603 39.5864 27.9666 40.0951C30.3642 40.8544 32.7566 41.7916 34.6387 42.6027V40.0603ZM34.6387 45.247C32.7234 44.3849 29.9751 43.2698 27.2359 42.4024C25.6897 41.9127 24.1691 41.5093 22.8162 41.2722C22.2508 41.1731 21.7318 41.1062 21.2643 41.0716C21.6902 42.3094 22.2676 43.4766 22.9745 44.5511C25.036 44.4868 27.5219 45.1572 29.7446 45.9607C31.5143 46.6005 33.2347 47.3698 34.6387 48.0661V45.247ZM36 54C45.9411 54 54 45.9411 54 36C54 26.0589 45.9411 18 36 18C26.0589 18 18 26.0589 18 36C18 45.9411 26.0589 54 36 54Z" fill="white"/>
</svg>
