<svg width="72" height="72" viewBox="0 0 72 72" fill="none" xmlns="http://www.w3.org/2000/svg">
<rect x="5.5" y="5.5" width="61" height="61" rx="30.5" stroke="#EE2B6C" stroke-width="3"/>
<path d="M51.75 24.75H42.75C41.4 24.75 40.5 25.65 40.5 27C40.5 28.35 41.4 29.25 42.75 29.25H51.75C53.1 29.25 54 28.35 54 27C54 25.65 53.1 24.75 51.75 24.75Z" fill="white"/>
<path d="M29.25 20.25C26.325 20.25 23.85 22.275 22.95 24.75C22.725 24.75 22.725 24.75 22.5 24.75H20.25C18.9 24.75 18 25.65 18 27C18 28.35 18.9 29.25 20.25 29.25H22.5C22.725 29.25 22.725 29.25 22.95 29.25C23.85 31.725 26.325 33.75 29.25 33.75C33.075 33.75 36 30.825 36 27C36 23.175 33.075 20.25 29.25 20.25Z" fill="white"/>
<path d="M20.25 47.25H29.25C30.6 47.25 31.5 46.35 31.5 45C31.5 43.65 30.6 42.75 29.25 42.75H20.25C18.9 42.75 18 43.65 18 45C18 46.35 18.9 47.25 20.25 47.25Z" fill="white"/>
<path d="M51.75 42.75H49.5C49.275 42.75 49.275 42.75 49.05 42.75C48.15 40.05 45.675 38.25 42.75 38.25C38.925 38.25 36 41.175 36 45C36 48.825 38.925 51.75 42.75 51.75C45.675 51.75 48.15 49.725 49.05 47.25C49.275 47.25 49.275 47.25 49.5 47.25H51.75C53.1 47.25 54 46.35 54 45C54 43.65 53.1 42.75 51.75 42.75Z" fill="white"/>
<rect x="3.5" y="3.5" width="65" height="65" stroke="#2B4BEE"/>
<rect x="1" y="1" width="9" height="9" fill="white" stroke="#2B4BEE" stroke-width="2"/>
<rect x="62" y="1" width="9" height="9" fill="white" stroke="#2B4BEE" stroke-width="2"/>
<rect x="1" y="62" width="9" height="9" fill="white" stroke="#2B4BEE" stroke-width="2"/>
<rect x="62" y="62" width="9" height="9" fill="white" stroke="#2B4BEE" stroke-width="2"/>
</svg>
