<svg width="72" height="72" viewBox="0 0 72 72" fill="none" xmlns="http://www.w3.org/2000/svg">
<rect x="5.5" y="5.5" width="61" height="61" rx="30.5" stroke="#2B4BEE" stroke-width="3"/>
<rect x="3.5" y="3.5" width="65" height="65" stroke="#2B4BEE"/>
<rect x="1" y="1" width="9" height="9" fill="white" stroke="#2B4BEE" stroke-width="2"/>
<rect x="62" y="1" width="9" height="9" fill="white" stroke="#2B4BEE" stroke-width="2"/>
<rect x="1" y="62" width="9" height="9" fill="white" stroke="#2B4BEE" stroke-width="2"/>
<rect x="62" y="62" width="9" height="9" fill="white" stroke="#2B4BEE" stroke-width="2"/>
<path d="M54 24.75V21.375C54 20.754 53.4971 20.25 52.875 20.25H25.875V24.75H54Z" fill="white"/>
<path d="M23.625 20.25H19.125C18.5029 20.25 18 20.754 18 21.375V24.75H23.625V20.25Z" fill="white"/>
<path d="M18 27V50.625C18 51.246 18.5029 51.75 19.125 51.75H52.875C53.4971 51.75 54 51.246 54 50.625V27H18ZM25.5454 43.5454C25.1061 43.9846 24.3939 43.9846 23.9546 43.5454C23.5154 43.1061 23.5154 42.3939 23.9546 41.9546L26.9521 38.9571C27.3427 38.5666 27.3427 37.9334 26.9521 37.5429L23.9546 34.5454C23.5154 34.1061 23.5154 33.3939 23.9546 32.9546C24.3939 32.5154 25.1061 32.5154 25.5454 32.9546L30.1336 37.5429C30.5242 37.9334 30.5242 38.5666 30.1336 38.9571L25.5454 43.5454ZM40.5 42.75C40.5 43.3713 39.9963 43.875 39.375 43.875H32.625C32.0037 43.875 31.5 43.3713 31.5 42.75C31.5 42.1287 32.0037 41.625 32.625 41.625H39.375C39.9963 41.625 40.5 42.1287 40.5 42.75Z" fill="white"/>
</svg>
