<svg width="72" height="72" viewBox="0 0 72 72" fill="none" xmlns="http://www.w3.org/2000/svg">
<rect x="5.5" y="5.5" width="61" height="61" stroke="#2B4BEE" stroke-width="3"/>
<rect x="3.5" y="3.5" width="65" height="65" stroke="#2B4BEE"/>
<rect x="1" y="1" width="9" height="9" fill="white" stroke="#2B4BEE" stroke-width="2"/>
<rect x="62" y="1" width="9" height="9" fill="white" stroke="#2B4BEE" stroke-width="2"/>
<rect x="1" y="62" width="9" height="9" fill="white" stroke="#2B4BEE" stroke-width="2"/>
<rect x="62" y="62" width="9" height="9" fill="white" stroke="#2B4BEE" stroke-width="2"/>
<path fill-rule="evenodd" clip-rule="evenodd" d="M29.6855 44.9467C29.2254 43.2341 27.923 39.0423 25.5081 35.9461C24.9591 35.2423 24.8214 34.2737 25.2614 33.4971C30.4846 24.2788 32.1568 21.3561 32.6922 20.4295C32.8302 20.1906 33.1678 19.9997 33.4437 20L35.2425 20.002V31.7908C33.9204 32.1366 32.9433 33.3576 32.9433 34.8109C32.9433 36.533 34.3152 37.929 36.0076 37.929C37.7 37.929 39.0719 36.533 39.0719 34.8109C39.0719 33.3585 38.096 32.138 36.775 31.7914V20.0037L38.5709 20.0057C38.8472 20.0061 39.1859 20.1981 39.3243 20.4373C39.8604 21.3648 41.5337 24.2875 46.7552 33.4969C47.1956 34.2736 47.0579 35.2424 46.5088 35.9465C44.0941 39.0426 42.7918 43.2342 42.3317 44.9467C42.2097 45.4007 41.8021 45.7241 41.332 45.7241H30.6852C30.2151 45.7241 29.8075 45.4007 29.6855 44.9467Z" fill="white"/>
<path d="M27.5837 50.3237C27.5837 48.6669 28.9269 47.3237 30.5837 47.3237H41.4375C43.0943 47.3237 44.4375 48.6669 44.4375 50.3237V51.0009C44.4375 51.5531 43.9898 52.0009 43.4375 52.0009H28.5837C28.0315 52.0009 27.5837 51.5531 27.5837 51.0009V50.3237Z" fill="white"/>
</svg>
