<svg width="72" height="72" viewBox="0 0 72 72" fill="none" xmlns="http://www.w3.org/2000/svg">
<rect x="5.5" y="5.5" width="61" height="61" stroke="#EE2B6C" stroke-width="3"/>
<rect x="3.5" y="3.5" width="65" height="65" stroke="#2B4BEE"/>
<rect x="1" y="1" width="9" height="9" fill="white" stroke="#2B4BEE" stroke-width="2"/>
<rect x="62" y="1" width="9" height="9" fill="white" stroke="#2B4BEE" stroke-width="2"/>
<rect x="1" y="62" width="9" height="9" fill="white" stroke="#2B4BEE" stroke-width="2"/>
<rect x="62" y="62" width="9" height="9" fill="white" stroke="#2B4BEE" stroke-width="2"/>
<g clip-path="url(#clip0_1628_91902)">
<path d="M52.7671 29.0955L42.7502 19.0059C41.5639 17.8777 40.1509 17.0186 38.6066 16.4865C35.1843 15.3403 31.7783 16.235 29.0201 19.0059L18.9786 29.0955C17.8572 30.289 17.0032 31.7105 16.4744 33.2642C15.3309 36.7071 16.2203 40.1336 18.9786 42.9045L29.0077 52.9941C30.1921 54.1227 31.6038 54.9819 33.1473 55.5135C34.0823 55.8314 35.0621 55.9958 36.0491 56C38.4549 56 40.7583 54.9774 42.7338 52.9941L52.7588 42.9045C53.8817 41.7114 54.7371 40.2899 55.2672 38.7358C56.4066 35.2929 55.5172 31.8705 52.7588 29.0955H52.7671ZM36.6433 21.9334C37.4009 22.1778 38.0992 22.5795 38.6926 23.1127L41.6558 26.0979L35.8769 31.9076L30.0979 26.0938L33.0776 23.092C33.8768 22.2921 35.0039 21.4427 36.6516 21.9293L36.6433 21.9334ZM21.8968 35.2186C22.1404 34.4559 22.5413 33.7534 23.0731 33.157L26.0363 30.1759L31.8153 35.9896L26.0322 41.8035L23.0526 38.8018C22.2534 38.0019 21.4131 36.868 21.8927 35.2104L21.8968 35.2186ZM35.1023 50.0543C34.3437 49.812 33.6451 49.41 33.0531 48.875L30.0979 45.9268L35.8769 40.1089L41.6558 45.9226L38.6762 48.9244C37.8769 49.7244 36.7539 50.5737 35.1023 50.0872V50.0543ZM49.8571 36.7979C49.6134 37.5597 49.2142 38.262 48.6848 38.8595L45.7216 41.8035L39.9427 35.9896L45.7216 30.1759L48.7013 33.1735C49.5004 33.9734 50.3407 35.1073 49.8612 36.7649" fill="white"/>
</g>
<defs>
<clipPath id="clip0_1628_91902">
<rect width="40" height="40" fill="white" transform="translate(16 16)"/>
</clipPath>
</defs>
</svg>
