<svg width="72" height="72" viewBox="0 0 72 72" fill="none" xmlns="http://www.w3.org/2000/svg">
<rect x="5.5" y="5.5" width="61" height="61" rx="30.5" stroke="#2B4BEE" stroke-width="3"/>
<rect x="3.5" y="3.5" width="65" height="65" stroke="#2B4BEE"/>
<rect x="1" y="1" width="9" height="9" fill="white" stroke="#2B4BEE" stroke-width="2"/>
<rect x="62" y="1" width="9" height="9" fill="white" stroke="#2B4BEE" stroke-width="2"/>
<rect x="1" y="62" width="9" height="9" fill="white" stroke="#2B4BEE" stroke-width="2"/>
<rect x="62" y="62" width="9" height="9" fill="white" stroke="#2B4BEE" stroke-width="2"/>
<g clip-path="url(#clip0_1628_94056)">
<path d="M36 54C32.4399 54 28.9598 52.9443 25.9997 50.9665C23.0397 48.9886 20.7326 46.1774 19.3702 42.8883C18.0078 39.5992 17.6513 35.98 18.3459 32.4884C19.0404 28.9967 20.7547 25.7894 23.2721 23.2721C25.7894 20.7547 28.9967 19.0404 32.4884 18.3459C35.98 17.6513 39.5992 18.0078 42.8883 19.3702C46.1774 20.7325 48.9886 23.0396 50.9665 25.9997C52.9443 28.9598 54 32.4399 54 36C53.9861 40.7696 52.0852 45.3399 48.7125 48.7125C45.3399 52.0851 40.7696 53.9861 36 54ZM42.75 31.625H29.25C29.033 31.6229 28.8204 31.6861 28.6398 31.8065C28.4592 31.9269 28.319 32.0989 28.2375 32.3C28.1422 32.4774 28.1021 32.6793 28.1221 32.8797C28.1421 33.0801 28.2215 33.2699 28.35 33.425L35.1 42.425C35.2099 42.557 35.3475 42.6632 35.503 42.7361C35.6586 42.809 35.8282 42.8468 36 42.8468C36.1718 42.8468 36.3414 42.809 36.497 42.7361C36.6525 42.6632 36.7901 42.557 36.9 42.425L43.5375 33.5375C43.6474 33.4385 43.7345 33.3168 43.7928 33.1808C43.8511 33.0449 43.8791 32.8979 43.875 32.75C43.884 32.5999 43.8611 32.4496 43.8078 32.309C43.7544 32.1685 43.6719 32.0408 43.5655 31.9345C43.4592 31.8281 43.3316 31.7456 43.191 31.6922C43.0504 31.6389 42.9001 31.616 42.75 31.625Z" fill="white"/>
</g>
<defs>
<clipPath id="clip0_1628_94056">
<rect width="36" height="36" fill="white" transform="matrix(1 0 0 -1 18 54)"/>
</clipPath>
</defs>
</svg>
