<svg width="72" height="72" viewBox="0 0 72 72" fill="none" xmlns="http://www.w3.org/2000/svg">
<rect x="5.5" y="5.5" width="61" height="61" stroke="white" stroke-width="3"/>
<rect x="3.5" y="3.5" width="65" height="65" stroke="#2B4BEE"/>
<rect x="1" y="1" width="9" height="9" fill="white" stroke="#2B4BEE" stroke-width="2"/>
<rect x="62" y="1" width="9" height="9" fill="white" stroke="#2B4BEE" stroke-width="2"/>
<rect x="1" y="62" width="9" height="9" fill="white" stroke="#2B4BEE" stroke-width="2"/>
<rect x="62" y="62" width="9" height="9" fill="white" stroke="#2B4BEE" stroke-width="2"/>
<path d="M19.4596 40.4649C18.9348 40.4649 18.4657 40.0965 18.3583 39.5627C17.2873 34.251 18.6434 28.797 22.0798 24.6002C22.4735 24.1192 23.1823 24.0495 23.6626 24.4421C24.143 24.8358 24.2139 25.5446 23.8201 26.025C20.813 29.6975 19.6261 34.4698 20.5633 39.1172C20.6859 39.7263 20.2921 40.3198 19.6829 40.4424C19.6081 40.4576 19.5333 40.4649 19.4596 40.4649Z" fill="white"/>
<path d="M25.884 23.625C25.542 23.625 25.2039 23.4697 24.9828 23.175C24.6099 22.6777 24.7111 21.9723 25.2078 21.5994C27.356 19.989 29.7888 18.9017 32.4382 18.3678C37.2594 17.3958 42.147 18.3965 46.1992 21.1871C46.7111 21.5398 46.8405 22.2401 46.4878 22.752C46.1356 23.2622 45.4342 23.3921 44.9235 23.0405C41.378 20.5987 37.103 19.7218 32.8831 20.574C30.564 21.0408 28.436 21.992 26.5578 23.4C26.3553 23.5518 26.1191 23.625 25.884 23.625Z" fill="white"/>
<path d="M52.5293 33.7966C52.0045 33.7966 51.5353 33.4282 51.4279 32.8944C50.8722 30.1381 49.5913 27.5815 47.725 25.5009C47.3104 25.0385 47.3487 24.3269 47.811 23.9124C48.2734 23.4972 48.985 23.5344 49.4001 23.9979C51.5348 26.3767 52.999 29.2994 53.634 32.4489C53.7567 33.0581 53.3629 33.6515 52.7537 33.7741C52.6778 33.7893 52.603 33.7966 52.5293 33.7966Z" fill="white"/>
<path d="M31.6403 53.4277C31.3764 53.4277 31.1121 53.3355 30.8983 53.1482C30.4314 52.7381 30.3853 52.0271 30.7954 51.5602C34.5135 47.3285 36.0086 41.7395 34.8971 36.227C34.7745 35.6178 35.1683 35.0244 35.7774 34.9018C36.3866 34.7808 36.9801 35.1729 37.1027 35.7821C38.3543 41.9887 36.6713 48.2814 32.4857 53.0452C32.2629 53.2989 31.9524 53.4277 31.6403 53.4277Z" fill="white"/>
<path d="M27.4671 51.6817C27.1667 51.6817 26.8669 51.5619 26.6453 51.3251C26.2206 50.8711 26.2448 50.1596 26.6981 49.7354C30.0495 46.6001 31.4552 42.2615 30.7633 37.1883L30.7414 37.0241C30.4714 35.6347 30.7532 34.2228 31.5373 33.0433C32.3282 31.853 33.5353 31.0413 34.9365 30.7584C37.83 30.1756 40.6566 32.0538 41.2405 34.9462C41.2478 34.9828 41.2534 35.0199 41.2573 35.0559C41.3873 35.7168 41.4913 36.3873 41.5661 37.0505C41.6359 37.6681 41.1915 38.225 40.5745 38.2948C39.958 38.3662 39.4005 37.9207 39.3308 37.3031C39.2593 36.6674 39.1581 36.0251 39.0304 35.3928C39.0242 35.3619 39.0191 35.3315 39.0158 35.3006C38.6383 33.6761 37.029 32.6309 35.3826 32.9645C34.5703 33.1282 33.8706 33.5984 33.4121 34.2886C32.9537 34.9788 32.7917 35.8057 32.9554 36.6179C32.9616 36.6478 32.9661 36.677 32.9695 36.7074L32.9931 36.8846C33.7879 42.7109 32.1426 47.7228 28.2355 51.3779C28.0183 51.581 27.7427 51.6817 27.4671 51.6817Z" fill="white"/>
<path d="M36.532 53.9899C36.3132 53.9899 36.0921 53.9263 35.8981 53.793C35.3851 53.442 35.254 52.7423 35.605 52.2293C37.8674 48.9235 39.1904 45.0754 39.43 41.103C39.4677 40.4826 40.0021 40.0033 40.6208 40.0478C41.2413 40.0849 41.7132 40.6182 41.6761 41.238C41.4117 45.6177 39.9543 49.8578 37.4618 53.5005C37.2436 53.8189 36.8909 53.9899 36.532 53.9899Z" fill="white"/>
<path d="M24.0668 49.0554C23.7411 49.0554 23.4182 48.9148 23.196 48.6436C22.8023 48.1633 22.8732 47.4539 23.3535 47.0608C26.0299 44.8687 27.2877 41.4206 26.6565 38.0321C26.6413 37.9876 26.6295 37.9426 26.62 37.8965C26.319 36.4036 26.3719 34.9074 26.7769 33.4494C26.9428 32.8509 27.5633 32.4999 28.1618 32.6664C28.7603 32.8329 29.1107 33.4528 28.9442 34.0513C28.6472 35.1206 28.5983 36.2186 28.7991 37.3154C28.8137 37.3593 28.8261 37.4038 28.8351 37.4493C29.6923 41.7007 28.1382 46.0499 24.7789 48.8011C24.5702 48.9721 24.3177 49.0554 24.0668 49.0554Z" fill="white"/>
<path d="M42.0461 52.8759C41.8808 52.8759 41.7131 52.8399 41.554 52.7623C40.9954 52.4906 40.7631 51.8167 41.0353 51.2581C43.5784 46.0387 44.3147 40.2641 43.165 34.5598C43.1509 34.4923 41.4949 27.4273 34.5497 28.8341C33.1125 29.1238 31.812 29.8263 30.7877 30.8653C30.3523 31.308 29.6391 31.3136 29.197 30.8771C28.7543 30.4411 28.7486 29.729 29.1851 29.2863C30.525 27.9262 32.226 27.0065 34.1048 26.6274C41.7278 25.0935 44.8699 31.6803 45.3694 34.1098C46.6187 40.3068 45.8188 46.5753 43.0581 52.2425C42.8635 52.6436 42.463 52.8759 42.0461 52.8759Z" fill="white"/>
<path d="M21.4772 45.7238C21.1583 45.7238 20.8411 45.5888 20.6183 45.3261C20.2167 44.8519 20.2752 44.1426 20.7494 43.7404C22.1736 42.5338 22.8441 40.663 22.5145 38.8343C22.5038 38.7994 22.4948 38.7645 22.4881 38.7285C21.0638 31.6635 25.3849 24.6334 32.3256 22.7232C32.9269 22.5583 33.544 22.911 33.7088 23.5095C33.8736 24.108 33.5215 24.7273 32.923 24.8927C27.1529 26.4807 23.5478 32.2986 24.6711 38.1717C24.6824 38.2071 24.6919 38.2448 24.6992 38.2819C25.237 40.9476 24.2802 43.6971 22.2034 45.4572C21.9925 45.6366 21.7337 45.7238 21.4772 45.7238Z" fill="white"/>
<path d="M47.9694 49.0127C47.8733 49.0127 47.7759 49.0003 47.6786 48.9744C47.0784 48.8141 46.7213 48.1976 46.8816 47.5974C48.0904 43.0643 48.2349 38.4214 47.3124 33.7937C47.3063 33.7718 47.3012 33.7498 47.2967 33.7273C46.2465 28.5191 41.8118 24.7189 36.513 24.4854C35.892 24.4579 35.4111 23.9331 35.4386 23.3121C35.4656 22.6911 35.9916 22.2135 36.612 22.2377C42.9227 22.5156 48.2074 27.024 49.4882 33.2115C49.4944 33.2351 49.5 33.2588 49.5045 33.2824C50.5114 38.274 50.3601 43.2853 49.0562 48.1774C48.9212 48.6803 48.4667 49.0127 47.9694 49.0127Z" fill="white"/>
</svg>
