<svg width="72" height="72" viewBox="0 0 72 72" fill="none" xmlns="http://www.w3.org/2000/svg">
<rect x="5.5" y="5.5" width="61" height="61" rx="30.5" stroke="#EE2B6C" stroke-width="3"/>
<path d="M52.0296 33.8812C51.9738 33.277 51.8663 32.5797 51.6591 31.8089C51.452 31.042 51.1453 30.2014 50.7031 29.326C50.253 28.4584 49.6675 27.552 48.9106 26.6766C48.6159 26.3318 48.2932 25.9948 47.9427 25.6617C48.4645 23.6475 47.3093 21.9045 47.3093 21.9045C45.3177 21.7844 44.051 22.5048 43.5809 22.838C43.5013 22.807 43.4256 22.7721 43.3459 22.7411C43.0073 22.6056 42.6568 22.4816 42.2983 22.3731C41.9398 22.2647 41.5733 22.164 41.1989 22.0749C40.8245 21.9897 40.4421 21.9161 40.0557 21.858C39.988 21.8464 39.9203 21.8386 39.8525 21.8309C38.9842 19.1272 36.4866 18 36.4866 18C33.7063 19.7159 33.1765 22.1175 33.1765 22.1175C33.1765 22.1175 33.1645 22.1717 33.1486 22.2608C32.9932 22.3034 32.8419 22.346 32.6865 22.3925C32.4714 22.4545 32.2643 22.532 32.0492 22.6056C31.8381 22.6869 31.627 22.7644 31.4159 22.8535C30.9976 23.0278 30.5794 23.2253 30.1731 23.4461C29.7787 23.663 29.3923 23.8993 29.0139 24.1549C28.9581 24.1317 28.9183 24.1123 28.9183 24.1123C25.0664 22.683 21.6447 24.4028 21.6447 24.4028C21.334 28.3886 23.1823 30.8986 23.5488 31.3518C23.4572 31.5997 23.3735 31.8476 23.2938 32.0994C23.007 33.0019 22.7959 33.9277 22.6645 34.8883C22.6446 35.0239 22.6286 35.1633 22.6127 35.3028C19.0556 37.011 18 40.5165 18 40.5165C20.9716 43.8399 24.4331 44.0452 24.4331 44.0452C24.4371 44.0413 24.441 44.0413 24.441 44.0374C24.8832 44.8005 25.3931 45.5287 25.9627 46.2066C26.2017 46.4893 26.4566 46.7644 26.7155 47.0278C25.6321 50.0374 26.8669 52.5475 26.8669 52.5475C30.1731 52.6675 32.348 51.1414 32.8021 50.7889C33.1327 50.8974 33.4633 50.9942 33.8019 51.0794C34.8176 51.3351 35.8573 51.4822 36.8969 51.5287C37.1558 51.5403 37.4147 51.5442 37.6776 51.5442H37.8051L37.8888 51.5403L38.0521 51.5365L38.2154 51.5287L38.2194 51.5326C39.7769 53.694 42.5174 54 42.5174 54C44.4652 52.0013 44.5768 50.0219 44.5768 49.592C44.5768 49.592 44.5768 49.5765 44.5768 49.5649C44.5768 49.53 44.5768 49.5029 44.5768 49.5029C44.5768 49.4719 44.5728 49.4448 44.5728 49.4099C44.9831 49.1311 45.3734 48.8328 45.7399 48.5113C46.5206 47.8257 47.2018 47.0433 47.7674 46.2027C47.8192 46.1252 47.871 46.0439 47.9228 45.9626C50.1295 46.0865 51.683 44.634 51.683 44.634C51.3166 42.399 50.006 41.3105 49.7352 41.1014C49.7352 41.1014 49.7232 41.0936 49.7073 41.082C49.6914 41.0704 49.6834 41.0626 49.6834 41.0626C49.6675 41.0549 49.6515 41.0433 49.6356 41.0316C49.6475 40.8961 49.6595 40.7644 49.6675 40.6288C49.6834 40.3886 49.6914 40.1485 49.6914 39.9083V39.7301V39.6411V39.5946C49.6914 39.5326 49.6914 39.5558 49.6914 39.5326L49.6834 39.3815L49.6714 39.1801C49.6675 39.1104 49.6635 39.0484 49.6555 38.9864C49.6515 38.9245 49.6436 38.8625 49.6356 38.8005L49.6117 38.6146L49.5838 38.4287C49.548 38.1846 49.4962 37.9406 49.4404 37.6966C49.2094 36.7321 48.823 35.8179 48.3131 34.9968C47.8033 34.1756 47.1659 33.4474 46.4529 32.8354C45.7359 32.2195 44.9353 31.7276 44.0948 31.3596C43.2543 30.9916 42.37 30.7553 41.4897 30.6469C41.0515 30.5926 40.6094 30.5694 40.1752 30.5733L40.0119 30.5771H39.972C39.9601 30.5771 39.9123 30.5771 39.9163 30.5771L39.8486 30.581L39.6892 30.5926C39.6295 30.5965 39.5657 30.6004 39.51 30.6081C39.2869 30.6275 39.0638 30.6585 38.8487 30.7011C37.9764 30.8599 37.1518 31.1659 36.4229 31.5881C35.6979 32.0103 35.0646 32.541 34.5507 33.1375C34.0369 33.7379 33.6385 34.4003 33.3637 35.0859C33.0889 35.7715 32.9375 36.4803 32.8937 37.1698C32.8817 37.3402 32.8777 37.5145 32.8817 37.6811C32.8817 37.7237 32.8817 37.7663 32.8857 37.8089L32.8897 37.9484C32.8977 38.0297 32.9016 38.1149 32.9096 38.1963C32.9454 38.5449 33.0092 38.878 33.1048 39.2034C33.296 39.8464 33.6027 40.4312 33.9851 40.927C34.3635 41.4229 34.8176 41.8334 35.2996 42.1549C35.7816 42.4764 36.2954 42.705 36.8053 42.8483C37.3152 42.9955 37.821 43.0575 38.299 43.0575C38.3588 43.0575 38.4185 43.0575 38.4783 43.0536C38.5102 43.0536 38.542 43.0497 38.5739 43.0497C38.6058 43.0497 38.6376 43.0458 38.6695 43.0458C38.7213 43.042 38.7691 43.0342 38.8209 43.0303C38.8328 43.0303 38.8487 43.0265 38.8647 43.0265L38.9125 43.0187C38.9443 43.0148 38.9722 43.011 39.0041 43.0071C39.0678 42.9994 39.1196 42.9877 39.1794 42.9761C39.2351 42.9645 39.2909 42.9567 39.3467 42.9413C39.4582 42.918 39.5618 42.887 39.6653 42.8522C39.8725 42.7863 40.0676 42.705 40.2509 42.6159C40.4341 42.5229 40.6014 42.4222 40.7568 42.3176C40.8006 42.2866 40.8444 42.2556 40.8882 42.2208C41.0555 42.093 41.0834 41.8567 40.948 41.6979C40.8324 41.5584 40.6293 41.5236 40.47 41.6088C40.4301 41.6281 40.3903 41.6514 40.3505 41.6708C40.211 41.7366 40.0676 41.7947 39.9123 41.8451C39.7569 41.8915 39.5976 41.9303 39.4303 41.9613C39.3467 41.9729 39.263 41.9845 39.1754 41.9923C39.1316 41.9961 39.0877 42 39.0479 42C39.0041 42 38.9603 42.0039 38.9204 42.0039C38.8806 42.0039 38.8368 42.0039 38.797 42C38.7452 41.9961 38.6934 41.9961 38.6416 41.9923C38.6416 41.9923 38.6137 41.9923 38.6376 41.9923H38.6217L38.5858 41.9884C38.5619 41.9845 38.538 41.9845 38.5181 41.9806C38.4703 41.9768 38.4265 41.969 38.3787 41.9651C38.0043 41.9148 37.6259 41.8102 37.2634 41.6475C36.8969 41.4887 36.5464 41.264 36.2317 40.989C35.917 40.714 35.6422 40.3809 35.4271 40.0052C35.212 39.6294 35.0606 39.215 34.9889 38.7773C34.953 38.5604 34.9371 38.3318 34.9451 38.111C34.9491 38.0491 34.9491 37.991 34.953 37.929C34.953 37.9445 34.953 37.9212 34.953 37.9174V37.8941L34.957 37.8476C34.961 37.8167 34.961 37.7895 34.965 37.7586C34.9769 37.6385 34.9969 37.5184 35.0168 37.3983C35.1881 36.4454 35.678 35.5158 36.4388 34.8108C36.63 34.6365 36.8332 34.47 37.0523 34.3267C37.2713 34.1795 37.5024 34.0516 37.7414 33.9432C37.9844 33.8347 38.2353 33.7456 38.4942 33.6798C38.7531 33.6139 39.02 33.5675 39.2869 33.5442C39.4223 33.5326 39.5578 33.5287 39.6932 33.5287C39.7291 33.5287 39.7569 33.5287 39.7848 33.5287L39.8964 33.5326L39.9641 33.5365C39.992 33.5365 39.9641 33.5365 39.976 33.5365H40.0039L40.1154 33.5442C40.4062 33.5675 40.697 33.6062 40.9838 33.672C41.5574 33.796 42.1151 34.0013 42.6369 34.2802C43.6765 34.8418 44.5648 35.7172 45.1066 36.7747C45.3814 37.3015 45.5726 37.867 45.6682 38.4519C45.6921 38.5991 45.708 38.7463 45.72 38.8935L45.728 39.0058L45.7319 39.1181C45.7359 39.1569 45.7359 39.1917 45.7359 39.2305C45.7359 39.2692 45.7399 39.3079 45.7359 39.3351V39.4319L45.7319 39.5403C45.728 39.6139 45.724 39.7301 45.72 39.8037C45.708 39.9664 45.6921 40.1252 45.6722 40.2879C45.6523 40.4467 45.6244 40.6056 45.5965 40.7644C45.5646 40.9232 45.5288 41.0781 45.489 41.2331C45.4093 41.5429 45.3057 41.8528 45.1822 42.1511C44.9393 42.7515 44.6126 43.3209 44.2223 43.8476C43.4375 44.8974 42.366 45.7534 41.1471 46.2957C40.5377 46.5629 39.8924 46.7605 39.2351 46.8651C38.9045 46.9193 38.5699 46.9503 38.2353 46.9619L38.1716 46.9658H38.1198H38.0122H37.8489H37.7653C37.8091 46.9658 37.7573 46.9658 37.7613 46.9658H37.7294C37.5502 46.9619 37.3709 46.9542 37.1917 46.9387C36.4747 46.8883 35.7696 46.7644 35.0845 46.5707C34.3994 46.377 33.7341 46.1175 33.1048 45.7921C31.8461 45.1375 30.7228 44.2427 29.8424 43.162C29.4003 42.6236 29.0139 42.0465 28.6952 41.4383C28.3766 40.8302 28.1256 40.1911 27.9384 39.5403C27.7552 38.8857 27.6397 38.2195 27.5958 37.5455L27.5879 37.4177L27.5839 37.3867V37.3596V37.3054L27.5799 37.193V37.1659V37.1272V37.0497L27.5759 36.8948V36.8638C27.5759 36.8677 27.5759 36.8677 27.5759 36.8522V36.7902C27.5759 36.7088 27.5799 36.6275 27.5799 36.5423C27.5919 36.2092 27.6197 35.8683 27.6675 35.5274C27.7114 35.1866 27.7711 34.8418 27.8428 34.501C27.9145 34.1601 28.0021 33.8231 28.0977 33.4939C28.2929 32.8315 28.5359 32.1885 28.8267 31.5804C29.4043 30.3641 30.1611 29.2912 31.0733 28.4312C31.3003 28.2143 31.5354 28.009 31.7823 27.8192C32.0253 27.6294 32.2802 27.4513 32.5431 27.2847C32.802 27.1181 33.0729 26.9632 33.3518 26.8238C33.4872 26.7502 33.6306 26.6882 33.77 26.6223C33.8417 26.5913 33.9134 26.5604 33.9851 26.5294C34.0568 26.4984 34.1285 26.4674 34.2002 26.4403C34.487 26.3202 34.7857 26.2234 35.0845 26.1304C35.1602 26.1072 35.2359 26.0878 35.3115 26.0646C35.3872 26.0413 35.4629 26.0258 35.5386 26.0026C35.69 25.96 35.8453 25.9251 35.9967 25.8903C36.0724 25.8709 36.152 25.8554 36.2277 25.8399C36.3034 25.8244 36.3831 25.8089 36.4587 25.7934C36.5384 25.7779 36.6141 25.7663 36.6938 25.7508L36.8093 25.7314L36.9248 25.7159C37.0045 25.7043 37.0801 25.6927 37.1598 25.6811C37.2474 25.6656 37.3351 25.6617 37.4227 25.6462C37.4944 25.6385 37.6139 25.623 37.6856 25.6152C37.7414 25.6114 37.7971 25.6036 37.8529 25.5997L37.9644 25.5881L38.0202 25.5842L38.0839 25.5804C38.1716 25.5765 38.2592 25.5688 38.3508 25.5649L38.4823 25.5571C38.4823 25.5571 38.5301 25.5571 38.4902 25.5571H38.5181L38.5739 25.5533C38.6496 25.5494 38.7253 25.5455 38.8009 25.5416C39.0997 25.5339 39.3984 25.5339 39.6972 25.5416C40.2907 25.5649 40.8723 25.6269 41.4379 25.7314C42.5692 25.9367 43.6327 26.2892 44.5967 26.754C45.5607 27.2111 46.425 27.7766 47.1739 28.3886C47.2217 28.4274 47.2655 28.4661 47.3133 28.5048C47.3571 28.5436 47.4049 28.5823 47.4488 28.621C47.5404 28.6985 47.628 28.7799 47.7156 28.8573C47.8033 28.9348 47.8869 29.0161 47.9706 29.0975C48.0542 29.1788 48.1379 29.2602 48.2135 29.3415C48.5322 29.6708 48.827 30 49.0899 30.3331C49.6236 30.9994 50.0499 31.6733 50.3884 32.3086C50.4084 32.3473 50.4323 32.3861 50.4522 32.4287C50.4721 32.4674 50.492 32.5061 50.5119 32.5487C50.5518 32.6262 50.5916 32.7037 50.6274 32.7811C50.6633 32.8586 50.7031 32.9361 50.735 33.0097C50.7708 33.0872 50.8027 33.1607 50.8346 33.2343C50.962 33.5326 51.0776 33.8154 51.1692 34.0826C51.3245 34.5126 51.44 34.9038 51.5277 35.2447C51.5635 35.3802 51.695 35.4693 51.8384 35.4577C51.9858 35.4461 52.1013 35.326 52.1053 35.1827C52.0814 34.7954 52.0734 34.3693 52.0296 33.8812Z" fill="white"/>
<rect x="3.5" y="3.5" width="65" height="65" stroke="#2B4BEE"/>
<rect x="1" y="1" width="9" height="9" fill="white" stroke="#2B4BEE" stroke-width="2"/>
<rect x="62" y="1" width="9" height="9" fill="white" stroke="#2B4BEE" stroke-width="2"/>
<rect x="1" y="62" width="9" height="9" fill="white" stroke="#2B4BEE" stroke-width="2"/>
<rect x="62" y="62" width="9" height="9" fill="white" stroke="#2B4BEE" stroke-width="2"/>
</svg>
