<svg width="72" height="72" viewBox="0 0 72 72" fill="none" xmlns="http://www.w3.org/2000/svg">
<rect x="5.5" y="5.5" width="61" height="61" stroke="#EE2B6C" stroke-width="3"/>
<rect x="3.5" y="3.5" width="65" height="65" stroke="#2B4BEE"/>
<rect x="1" y="1" width="9" height="9" fill="white" stroke="#2B4BEE" stroke-width="2"/>
<rect x="62" y="1" width="9" height="9" fill="white" stroke="#2B4BEE" stroke-width="2"/>
<rect x="1" y="62" width="9" height="9" fill="white" stroke="#2B4BEE" stroke-width="2"/>
<rect x="62" y="62" width="9" height="9" fill="white" stroke="#2B4BEE" stroke-width="2"/>
<path d="M51.2987 29.786L42.2296 20.7053C41.1556 19.6899 39.8763 18.9167 38.4781 18.4379C35.3797 17.4062 32.2959 18.2115 29.7987 20.7053L20.7074 29.786C19.6921 30.8601 18.9189 32.1395 18.4401 33.5378C17.4048 36.6364 18.2101 39.7203 20.7074 42.2141L29.7875 51.2947C30.8598 52.3105 32.138 53.0837 33.5354 53.5621C34.3819 53.8482 35.269 53.9962 36.1626 54C38.3408 54 40.4262 53.0796 42.2148 51.2947L51.2912 42.2141C52.3078 41.1402 53.0823 39.8609 53.5622 38.4622C54.5938 35.3636 53.7886 32.2835 51.2912 29.786H51.2987ZM36.7006 23.3401C37.3865 23.56 38.0187 23.9216 38.5559 24.4014L41.2388 27.0881L36.0067 32.3169L30.7746 27.0844L33.4723 24.3828C34.1959 23.6629 35.2164 22.8985 36.7081 23.3363L36.7006 23.3401ZM23.3494 35.2968C23.57 34.6103 23.9329 33.978 24.4144 33.4413L27.0973 30.7583L32.3294 35.9907L27.0935 41.2231L24.3958 38.5216C23.6723 37.8017 22.9116 36.7812 23.3457 35.2893L23.3494 35.2968ZM35.3054 48.6488C34.6186 48.4308 33.9861 48.069 33.4501 47.5875L30.7746 44.9341L36.0067 39.698L41.2388 44.9304L38.5411 47.6319C37.8175 48.3519 36.8008 49.1164 35.3054 48.6785V48.6488ZM48.664 36.7181C48.4435 37.4038 48.082 38.0358 47.6027 38.5735L44.9198 41.2231L39.6878 35.9907L44.9198 30.7583L47.6176 33.4562C48.3412 34.176 49.1019 35.1965 48.6678 36.6884" fill="white"/>
</svg>
