<svg width="72" height="72" viewBox="0 0 72 72" fill="none" xmlns="http://www.w3.org/2000/svg">
<rect x="5.5" y="5.5" width="61" height="61" rx="30.5" stroke="#2B4BEE" stroke-width="3"/>
<rect x="3.5" y="3.5" width="65" height="65" stroke="#2B4BEE"/>
<rect x="1" y="1" width="9" height="9" fill="white" stroke="#2B4BEE" stroke-width="2"/>
<rect x="62" y="1" width="9" height="9" fill="white" stroke="#2B4BEE" stroke-width="2"/>
<rect x="1" y="62" width="9" height="9" fill="white" stroke="#2B4BEE" stroke-width="2"/>
<rect x="62" y="62" width="9" height="9" fill="white" stroke="#2B4BEE" stroke-width="2"/>
<path d="M25.137 46.2794C24.9199 46.0735 24.5801 46.0735 24.363 46.2794C23.958 46.6636 21.9375 48.9727 21.9375 50.6253C21.9375 52.1761 23.1992 53.4378 24.75 53.4378C26.3008 53.4378 27.5625 52.1761 27.5625 50.6253C27.5625 48.9727 25.542 46.6636 25.137 46.2794Z" fill="white"/>
<path d="M38.3465 26.1079L26.6021 37.8523C26.5233 37.9311 26.4699 38.0307 26.4485 38.1398L25.3235 43.7648C25.2864 43.9493 25.3443 44.14 25.4771 44.2727C25.5834 44.379 25.7268 44.4375 25.8748 44.4375C25.9113 44.4375 25.9485 44.4342 25.985 44.4263L31.61 43.3013C31.7186 43.2794 31.8187 43.2259 31.8975 43.1477L43.6419 31.4033L38.3465 26.1079Z" fill="white"/>
<path d="M50.4603 30.54L47.483 27.5626L49.3353 25.7103C50.7956 24.2506 50.7956 21.8746 49.3353 20.415C48.6283 19.7079 47.6878 19.3181 46.6876 19.3181C45.6875 19.3181 44.747 19.7073 44.04 20.415L42.1876 22.2673L39.2103 19.29C38.9904 19.07 38.6349 19.07 38.415 19.29L36.165 21.54C35.945 21.7599 35.945 22.1154 36.165 22.3353L47.415 33.5853C47.5246 33.695 47.6686 33.7501 47.8126 33.7501C47.9566 33.7501 48.1006 33.695 48.2103 33.5853L50.4603 31.3353C50.6803 31.1154 50.6803 30.7599 50.4603 30.54Z" fill="white"/>
</svg>
