<svg width="72" height="72" viewBox="0 0 72 72" fill="none" xmlns="http://www.w3.org/2000/svg">
<rect x="5.5" y="5.5" width="61" height="61" rx="30.5" stroke="#EE2B6C" stroke-width="3"/>
<path d="M34.1163 43.885C32.8439 42.6147 31.9109 41.0452 31.4028 39.3205C31.3853 39.2627 31.3542 39.2099 31.312 39.1666C31.2699 39.1233 31.2179 39.0908 31.1605 39.0718C31.1032 39.0528 31.0421 39.0479 30.9824 39.0575C30.9227 39.0671 30.8663 39.091 30.8178 39.127L24.6018 43.789C24.4299 43.918 24.2877 44.0824 24.1849 44.271C24.082 44.4597 24.0209 44.6683 24.0057 44.8826C23.9905 45.097 24.0215 45.3121 24.0967 45.5134C24.1718 45.7147 24.2893 45.8976 24.4413 46.0495L31.9518 53.56C32.1037 53.712 32.2865 53.8295 32.4879 53.9046C32.6892 53.9798 32.9043 54.0108 33.1186 53.9956C33.333 53.9803 33.5416 53.9193 33.7302 53.8164C33.9189 53.7136 34.0833 53.5714 34.2123 53.3995L38.9193 47.1235C38.9509 47.0809 38.9718 47.0313 38.9801 46.9789C38.9883 46.9265 38.9838 46.8729 38.9669 46.8226C38.9499 46.7724 38.921 46.7269 38.8827 46.6903C38.8444 46.6536 38.7977 46.6267 38.7468 46.612C36.9969 46.1106 35.4034 45.1722 34.1163 43.885Z" fill="white"/>
<path d="M50.9994 24.0822C46.2909 25.3497 38.0424 27.8322 35.7099 30.1587C34.1199 31.7719 33.2322 33.9483 33.2403 36.2134C33.2484 38.4785 34.1518 40.6485 35.7533 42.2503C37.3549 43.852 39.5248 44.7556 41.7899 44.764C44.0549 44.7725 46.2315 43.885 47.8449 42.2952C50.1744 39.9612 52.6494 31.7142 53.9169 27.0072C54.0263 26.6028 54.0273 26.1768 53.9196 25.772C53.812 25.3671 53.5996 24.9978 53.3037 24.7013C53.0079 24.4047 52.6392 24.1913 52.2346 24.0826C51.8301 23.9739 51.404 23.9738 50.9994 24.0822ZM41.4324 39.2232C40.9069 39.2235 40.3932 39.0679 39.9561 38.7762C39.5191 38.4845 39.1784 38.0697 38.9771 37.5843C38.7758 37.0989 38.7229 36.5647 38.8253 36.0493C38.9276 35.5339 39.1805 35.0604 39.552 34.6888C39.9234 34.3171 40.3968 34.0639 40.9121 33.9613C41.4275 33.8587 41.9617 33.9112 42.4472 34.1122C42.9327 34.3133 43.3476 34.6537 43.6396 35.0906C43.9316 35.5275 44.0874 36.0412 44.0874 36.5667C44.0874 37.271 43.8077 37.9464 43.3099 38.4446C42.812 38.9427 42.1367 39.2228 41.4324 39.2232Z" fill="white"/>
<path d="M27 30.375V27.375C27 27.2755 27.0395 27.1802 27.1098 27.1098C27.1802 27.0395 27.2755 27 27.375 27H30.375C30.8723 27 31.3492 26.8025 31.7008 26.4508C32.0525 26.0992 32.25 25.6223 32.25 25.125C32.25 24.6277 32.0525 24.1508 31.7008 23.7992C31.3492 23.4475 30.8723 23.25 30.375 23.25H27.375C27.2755 23.25 27.1802 23.2105 27.1098 23.1402C27.0395 23.0698 27 22.9745 27 22.875V19.875C27 19.3777 26.8025 18.9008 26.4508 18.5492C26.0992 18.1975 25.6223 18 25.125 18C24.6277 18 24.1508 18.1975 23.7992 18.5492C23.4475 18.9008 23.25 19.3777 23.25 19.875V22.875C23.25 22.9745 23.2105 23.0698 23.1402 23.1402C23.0698 23.2105 22.9745 23.25 22.875 23.25H19.875C19.3777 23.25 18.9008 23.4475 18.5492 23.7992C18.1975 24.1508 18 24.6277 18 25.125C18 25.6223 18.1975 26.0992 18.5492 26.4508C18.9008 26.8025 19.3777 27 19.875 27H22.875C22.9745 27 23.0698 27.0395 23.1402 27.1098C23.2105 27.1802 23.25 27.2755 23.25 27.375V30.375C23.25 30.8723 23.4475 31.3492 23.7992 31.7008C24.1508 32.0525 24.6277 32.25 25.125 32.25C25.6223 32.25 26.0992 32.0525 26.4508 31.7008C26.8025 31.3492 27 30.8723 27 30.375Z" fill="white"/>
<rect x="3.5" y="3.5" width="65" height="65" stroke="#2B4BEE"/>
<rect x="1" y="1" width="9" height="9" fill="white" stroke="#2B4BEE" stroke-width="2"/>
<rect x="62" y="1" width="9" height="9" fill="white" stroke="#2B4BEE" stroke-width="2"/>
<rect x="1" y="62" width="9" height="9" fill="white" stroke="#2B4BEE" stroke-width="2"/>
<rect x="62" y="62" width="9" height="9" fill="white" stroke="#2B4BEE" stroke-width="2"/>
</svg>
