<svg width="1270" height="134" viewBox="0 0 1270 134" fill="none" xmlns="http://www.w3.org/2000/svg">
<g clip-path="url(#clip0_2284_98178)">
<rect x="164.73" y="58" width="180" height="26" rx="13" transform="rotate(15 164.73 58)" fill="white"/>
<path d="M875.243 28.6585C878.385 23.7029 885.615 23.7029 888.757 28.6585L945.213 117.717C948.59 123.043 944.763 130 938.457 130H825.543C819.237 130 815.41 123.043 818.787 117.717L875.243 28.6585Z" fill="#2B4BEE"/>
<circle cx="370" cy="98" r="26" stroke="#2B4BEE" stroke-width="12"/>
<circle cx="787" cy="100" r="30" fill="#EE2B6C"/>
<circle cx="950" cy="58" r="24" stroke="#EE2B6C" stroke-width="12"/>
<circle cx="210" cy="116" r="14" fill="white"/>
<circle cx="18" cy="112" r="15" stroke="white" stroke-width="6"/>
<circle cx="312.999" cy="61.0006" r="32" transform="rotate(-16.954 312.999 61.0006)" fill="#EE2B6C"/>
<g clip-path="url(#clip1_2284_98178)">
<path d="M325.303 49.6861C324.347 48.701 323.173 47.9538 321.876 47.5046C320.579 47.0554 319.195 46.9166 317.835 47.0995C316.474 47.2824 315.176 47.7818 314.044 48.5577C312.911 49.3335 311.977 50.3641 311.315 51.5667L310.53 52.8948L309.182 52.256C307.959 51.6086 306.599 51.2626 305.215 51.2466C303.831 51.2306 302.463 51.5452 301.226 52.1641C299.99 52.762 298.914 53.6463 298.088 54.7433C297.263 55.8404 296.711 57.1186 296.479 58.4718C296.161 60.2579 296.421 62.0988 297.221 63.7271C298.02 65.3554 299.318 66.6866 300.926 67.5272L316.634 76.1981C316.79 76.2841 316.962 76.338 317.139 76.3564C317.317 76.3749 317.496 76.3577 317.666 76.3057C317.837 76.2537 317.995 76.168 318.132 76.0538C318.269 75.9396 318.382 75.799 318.463 75.6406L326.653 59.7092C327.523 58.112 327.861 56.279 327.618 54.4766C327.376 52.6741 326.564 50.9961 325.303 49.6861V49.6861Z" fill="white"/>
</g>
<circle cx="728" cy="106" r="21" stroke="white" stroke-width="6"/>
<rect x="39" y="70" width="114" height="60" rx="30" fill="#EE2B6C"/>
<circle cx="69" cy="100" r="24" fill="white"/>
<rect x="157" y="94" width="36" height="36" rx="8" fill="#2B4BEE"/>
<rect x="217.248" y="30" width="64" height="36" rx="18" transform="rotate(14.8851 217.248 30)" fill="#2B4BEE"/>
<rect width="48" height="12" rx="6" transform="matrix(-1 0 0 1 275 118)" fill="#2B4BEE"/>
<rect x="661" y="92" width="38" height="38" rx="8" fill="#2B4BEE"/>
<rect x="1234" y="94" width="36" height="36" rx="18" fill="#2B4BEE"/>
<path fill-rule="evenodd" clip-rule="evenodd" d="M125.96 21.1061C123.475 22.3104 122.437 25.3012 123.641 27.7861L133.236 47.5832L113.438 57.1784C110.953 58.3827 109.915 61.3735 111.119 63.8585C112.323 66.3434 115.314 67.3816 117.799 66.1773L137.597 56.5821L147.192 76.3799C148.397 78.8649 151.387 79.903 153.872 78.6987C156.357 77.4944 157.395 74.5036 156.191 72.0186L146.596 52.2208L166.393 42.6264C168.878 41.422 169.916 38.4313 168.712 35.9463C167.507 33.4613 164.517 32.4232 162.032 33.6275L142.235 43.222L132.64 23.4249C131.436 20.9399 128.445 19.9017 125.96 21.1061Z" fill="white"/>
<rect x="547" y="111" width="109" height="19" rx="9.5" fill="#EE2B6C"/>
<path d="M952 130C952 96.8629 979.311 70 1013 70C1046.69 70 1074 96.8629 1074 130L952 130Z" fill="white"/>
<circle cx="1105" cy="97" r="31" stroke="#2B4BEE" stroke-width="4"/>
<rect x="1089" y="85" width="32" height="4" rx="2" fill="white"/>
<rect x="1089" y="95" width="24" height="4" rx="2" fill="white"/>
<rect x="1089" y="105" width="32" height="4" rx="2" fill="white"/>
<rect x="978.883" y="39.0156" width="36" height="100" rx="4" transform="rotate(-62.5958 978.883 39.0156)" fill="#2B4BEE"/>
<rect x="1146" y="45" width="80" height="80" rx="28" stroke="white" stroke-width="10"/>
<circle cx="1186" cy="100" r="15" fill="white"/>
<rect x="408.439" y="80.5949" width="452" height="46" rx="23" transform="rotate(-10 408.439 80.5949)" stroke="white" stroke-width="10"/>
<rect x="483.977" y="88.6016" width="56" height="16" rx="8" transform="rotate(-10 483.977 88.6016)" fill="white"/>
<circle cx="435.084" cy="99.2508" r="14" transform="rotate(-10 435.084 99.2508)" fill="#EE2B6C"/>
<circle cx="466.597" cy="93.6961" r="14" transform="rotate(-10 466.597 93.6961)" fill="#2B4BEE"/>
</g>
<defs>
<clipPath id="clip0_2284_98178">
<rect width="1270" height="134" fill="white"/>
</clipPath>
<clipPath id="clip1_2284_98178">
<rect width="32" height="32" fill="white" transform="translate(293.611 52.2734) rotate(-16.954)"/>
</clipPath>
</defs>
</svg>
