<svg width="1270" height="134" viewBox="0 0 1270 134" fill="none" xmlns="http://www.w3.org/2000/svg">
<g clip-path="url(#clip0_963_91199)">
<rect x="164.73" y="58" width="180" height="26" rx="13" transform="rotate(15 164.73 58)" fill="white"/>
<path d="M875.243 28.6585C878.385 23.7029 885.615 23.7029 888.757 28.6585L945.213 117.717C948.59 123.043 944.763 130 938.457 130H825.543C819.237 130 815.41 123.043 818.787 117.717L875.243 28.6585Z" fill="#2B4BEE"/>
<circle cx="370" cy="98" r="26" stroke="#2B4BEE" stroke-width="12"/>
<circle cx="787" cy="100" r="30" fill="#EE2B6C"/>
<circle cx="950" cy="58" r="24" stroke="#EE2B6C" stroke-width="12"/>
<circle cx="210" cy="116" r="14" fill="white"/>
<circle cx="18" cy="112" r="15" stroke="white" stroke-width="6"/>
<circle cx="313" cy="61" r="32" fill="#EE2B6C"/>
<circle cx="728" cy="106" r="21" stroke="white" stroke-width="6"/>
<rect x="39" y="70" width="114" height="60" rx="30" fill="#EE2B6C"/>
<circle cx="69" cy="100" r="24" fill="white"/>
<rect x="157" y="94" width="36" height="36" rx="8" fill="#2B4BEE"/>
<rect x="217.248" y="30" width="64" height="36" rx="18" transform="rotate(14.8851 217.248 30)" fill="#2B4BEE"/>
<rect width="48" height="12" rx="6" transform="matrix(-1 0 0 1 275 118)" fill="#2B4BEE"/>
<rect x="661" y="92" width="38" height="38" rx="8" fill="#2B4BEE"/>
<rect x="1234" y="94" width="36" height="36" rx="18" fill="#2B4BEE"/>
<path fill-rule="evenodd" clip-rule="evenodd" d="M125.961 21.1202C123.476 22.3246 122.438 25.3153 123.642 27.8003L133.237 47.5974L113.439 57.1926C110.954 58.3969 109.916 61.3877 111.12 63.8726C112.324 66.3576 115.315 67.3957 117.8 66.1914L137.598 56.5963L147.193 76.3941C148.398 78.879 151.388 79.9172 153.873 78.7129C156.358 77.5085 157.396 74.5178 156.192 72.0328L146.597 52.235L166.394 42.6405C168.879 41.4362 169.917 38.4454 168.713 35.9604C167.508 33.4755 164.518 32.4373 162.033 33.6417L142.236 43.2361L132.641 23.439C131.437 20.9541 128.446 19.9159 125.961 21.1202Z" fill="white"/>
<rect x="547" y="111" width="109" height="19" rx="9.5" fill="#EE2B6C"/>
<path d="M952 130C952 96.8629 979.311 70 1013 70C1046.69 70 1074 96.8629 1074 130L952 130Z" fill="white"/>
<circle cx="1105" cy="97" r="31" stroke="#2B4BEE" stroke-width="4"/>
<rect x="1089" y="85" width="32" height="4" rx="2" fill="white"/>
<rect x="1089" y="95" width="24" height="4" rx="2" fill="white"/>
<rect x="1089" y="105" width="32" height="4" rx="2" fill="white"/>
<rect x="978.883" y="39.0142" width="36" height="100" rx="4" transform="rotate(-62.5958 978.883 39.0142)" fill="#2B4BEE"/>
<rect x="1146" y="45" width="80" height="80" rx="28" stroke="white" stroke-width="10"/>
<circle cx="1186" cy="100" r="15" fill="white"/>
<rect x="408.439" y="80.5939" width="452" height="46" rx="23" transform="rotate(-10 408.439 80.5939)" stroke="white" stroke-width="10"/>
<rect x="483.977" y="88.5986" width="56" height="16" rx="8" transform="rotate(-10 483.977 88.5986)" fill="white"/>
<circle cx="435.084" cy="99.2508" r="14" transform="rotate(-10 435.084 99.2508)" fill="#EE2B6C"/>
<circle cx="466.597" cy="93.6936" r="14" transform="rotate(-10 466.597 93.6936)" fill="#2B4BEE"/>
</g>
<defs>
<clipPath id="clip0_963_91199">
<rect width="1270" height="134" fill="white"/>
</clipPath>
</defs>
</svg>
