<svg width="72" height="72" viewBox="0 0 72 72" fill="none" xmlns="http://www.w3.org/2000/svg">
<rect x="5.5" y="5.5" width="61" height="61" rx="30.5" stroke="#2B4BEE" stroke-width="3"/>
<rect x="3.5" y="3.5" width="65" height="65" stroke="#2B4BEE"/>
<rect x="1" y="1" width="9" height="9" fill="white" stroke="#2B4BEE" stroke-width="2"/>
<rect x="62" y="1" width="9" height="9" fill="white" stroke="#2B4BEE" stroke-width="2"/>
<rect x="1" y="62" width="9" height="9" fill="white" stroke="#2B4BEE" stroke-width="2"/>
<rect x="62" y="62" width="9" height="9" fill="white" stroke="#2B4BEE" stroke-width="2"/>
<g clip-path="url(#clip0_1628_91630)">
<path d="M46.7336 19.3037C46.5753 19.2019 46.394 19.1415 46.2063 19.1279C46.0186 19.1144 45.8305 19.1481 45.6593 19.2261L33.5059 24.7498H25.875C23.7864 24.7498 21.7834 25.5795 20.3065 27.0563C18.8297 28.5332 18 30.5362 18 32.6248C18 34.7134 18.8297 36.7164 20.3065 38.1933C21.7834 39.6701 23.7864 40.4998 25.875 40.4998H33.5059L45.6559 46.0236C45.8274 46.1022 46.0159 46.1365 46.2041 46.1233C46.3923 46.11 46.5742 46.0496 46.7329 45.9476C46.8917 45.8457 47.0222 45.7054 47.1126 45.5398C47.203 45.3742 47.2502 45.1885 47.25 44.9998V20.2498C47.25 20.0615 47.2027 19.8762 47.1125 19.7109C47.0223 19.5456 46.892 19.4056 46.7336 19.3037Z" fill="white"/>
<path d="M49.5 28.125V37.125C50.6935 37.125 51.8381 36.6509 52.682 35.807C53.5259 34.9631 54 33.8185 54 32.625C54 31.4315 53.5259 30.2869 52.682 29.443C51.8381 28.5991 50.6935 28.125 49.5 28.125Z" fill="white"/>
<path d="M32.909 42.75H26.4121L30.2214 52.1201C30.5193 52.8554 31.0965 53.4425 31.8266 53.7529C32.5567 54.0632 33.38 54.0714 34.1162 53.7757C34.8523 53.48 35.4412 52.9045 35.7537 52.1754C36.0662 51.4462 36.0769 50.6229 35.7834 49.8859L32.909 42.75Z" fill="white"/>
</g>
<defs>
<clipPath id="clip0_1628_91630">
<rect width="36" height="36" fill="white" transform="translate(18 18)"/>
</clipPath>
</defs>
</svg>
