<svg width="72" height="72" viewBox="0 0 72 72" fill="none" xmlns="http://www.w3.org/2000/svg">
<rect x="5.5" y="5.5" width="61" height="61" rx="30.5" stroke="white" stroke-width="3"/>
<rect x="3.5" y="3.5" width="65" height="65" stroke="#2B4BEE"/>
<rect x="1" y="1" width="9" height="9" fill="white" stroke="#2B4BEE" stroke-width="2"/>
<rect x="62" y="1" width="9" height="9" fill="white" stroke="#2B4BEE" stroke-width="2"/>
<rect x="1" y="62" width="9" height="9" fill="white" stroke="#2B4BEE" stroke-width="2"/>
<rect x="62" y="62" width="9" height="9" fill="white" stroke="#2B4BEE" stroke-width="2"/>
<path fill-rule="evenodd" clip-rule="evenodd" d="M36 18C26.055 18 18 26.2587 18 36.4553C18 44.6218 23.1525 51.5194 30.3075 53.9647C31.2075 54.1262 31.545 53.5726 31.545 53.0881C31.545 52.6498 31.5225 51.1964 31.5225 49.6508C27 50.5044 25.83 48.5204 25.47 47.4823C25.2675 46.9517 24.39 45.3138 23.625 44.8755C22.995 44.5295 22.095 43.6759 23.6025 43.6528C25.02 43.6298 26.0325 44.9909 26.37 45.5445C27.99 48.3359 30.5775 47.5515 31.6125 47.0671C31.77 45.8675 32.2425 45.0601 32.76 44.5987C28.755 44.1373 24.57 42.5455 24.57 35.4864C24.57 33.4794 25.2675 31.8184 26.415 30.5265C26.235 30.0651 25.605 28.1735 26.595 25.6359C26.595 25.6359 28.1025 25.1514 31.545 27.5275C32.985 27.1123 34.515 26.9047 36.045 26.9047C37.575 26.9047 39.105 27.1123 40.545 27.5275C43.9875 25.1284 45.495 25.6359 45.495 25.6359C46.485 28.1735 45.855 30.0651 45.675 30.5265C46.8225 31.8184 47.52 33.4563 47.52 35.4864C47.52 42.5686 43.3125 44.1373 39.3075 44.5987C39.96 45.1754 40.5225 46.2827 40.5225 48.0129C40.5225 50.4813 40.5 52.4653 40.5 53.0881C40.5 53.5726 40.8375 54.1493 41.7375 53.9647C45.3108 52.7279 48.4159 50.3733 50.6156 47.2323C52.8154 44.0913 53.999 40.3221 54 36.4553C54 26.2587 45.945 18 36 18Z" fill="white"/>
</svg>
