<svg width="72" height="72" viewBox="0 0 72 72" fill="none" xmlns="http://www.w3.org/2000/svg">
<rect x="5.5" y="5.5" width="61" height="61" rx="30.5" stroke="#2B4BEE" stroke-width="3"/>
<rect x="3.5" y="3.5" width="65" height="65" stroke="#2B4BEE"/>
<rect x="1" y="1" width="9" height="9" fill="white" stroke="#2B4BEE" stroke-width="2"/>
<rect x="62" y="1" width="9" height="9" fill="white" stroke="#2B4BEE" stroke-width="2"/>
<rect x="1" y="62" width="9" height="9" fill="white" stroke="#2B4BEE" stroke-width="2"/>
<rect x="62" y="62" width="9" height="9" fill="white" stroke="#2B4BEE" stroke-width="2"/>
<g clip-path="url(#clip0_1628_91630)">
<path d="M45.541 21.1588C45.4003 21.0684 45.2391 21.0147 45.0723 21.0026C44.9055 20.9905 44.7383 21.0205 44.586 21.0898L33.783 25.9998H27C25.1435 25.9998 23.363 26.7373 22.0503 28.0501C20.7375 29.3628 20 31.1433 20 32.9998C20 34.8563 20.7375 36.6368 22.0503 37.9496C23.363 39.2623 25.1435 39.9998 27 39.9998H33.783L44.583 44.9098C44.7354 44.9798 44.903 45.0102 45.0703 44.9984C45.2376 44.9867 45.3993 44.933 45.5404 44.8424C45.6815 44.7517 45.7975 44.6271 45.8779 44.4798C45.9582 44.3326 46.0002 44.1675 46 43.9998V21.9998C46 21.8324 45.958 21.6677 45.8778 21.5208C45.7976 21.3738 45.6818 21.2494 45.541 21.1588Z" fill="white"/>
<path d="M48 29V37C49.0609 37 50.0783 36.5786 50.8284 35.8284C51.5786 35.0783 52 34.0609 52 33C52 31.9391 51.5786 30.9217 50.8284 30.1716C50.0783 29.4214 49.0609 29 48 29Z" fill="white"/>
<path d="M33.2516 42H27.4766L30.8626 50.329C31.1274 50.9826 31.6405 51.5045 32.2894 51.7803C32.9384 52.0562 33.6703 52.0635 34.3246 51.8006C34.979 51.5378 35.5024 51.0262 35.7802 50.3781C36.058 49.73 36.0675 48.9981 35.8066 48.343L33.2516 42Z" fill="white"/>
</g>
<defs>
<clipPath id="clip0_1628_91630">
<rect width="32" height="32" fill="white" transform="translate(20 20)"/>
</clipPath>
</defs>
</svg>
