<svg width="72" height="72" viewBox="0 0 72 72" fill="none" xmlns="http://www.w3.org/2000/svg">
<rect x="5.5" y="5.5" width="61" height="61" stroke="#2B4BEE" stroke-width="3"/>
<g clip-path="url(#clip0_1628_91687)">
<path d="M36 18C32.4399 18 28.9598 19.0557 25.9997 21.0335C23.0397 23.0114 20.7326 25.8226 19.3702 29.1117C18.0078 32.4008 17.6513 36.02 18.3459 39.5116C19.0404 43.0033 20.7547 46.2106 23.2721 48.7279C25.7894 51.2453 28.9967 52.9596 32.4884 53.6541C35.98 54.3487 39.5992 53.9922 42.8883 52.6298C46.1774 51.2675 48.9886 48.9604 50.9665 46.0003C52.9443 43.0402 54 39.5601 54 36C53.9861 31.2304 52.0852 26.6601 48.7125 23.2875C45.3399 19.9149 40.7696 18.0139 36 18ZM42.75 40.375H29.25C29.033 40.3771 28.8204 40.3139 28.6398 40.1935C28.4592 40.0731 28.319 39.9011 28.2375 39.7C28.1422 39.5226 28.1021 39.3207 28.1221 39.1203C28.1421 38.9199 28.2215 38.7301 28.35 38.575L35.1 29.575C35.2099 29.443 35.3475 29.3368 35.503 29.2639C35.6586 29.191 35.8282 29.1532 36 29.1532C36.1718 29.1532 36.3414 29.191 36.497 29.2639C36.6525 29.3368 36.7901 29.443 36.9 29.575L43.5375 38.4625C43.6474 38.5615 43.7345 38.6832 43.7928 38.8192C43.8511 38.9551 43.8791 39.1021 43.875 39.25C43.884 39.4001 43.8611 39.5504 43.8078 39.691C43.7544 39.8315 43.6719 39.9592 43.5655 40.0655C43.4592 40.1719 43.3316 40.2544 43.191 40.3078C43.0504 40.3611 42.9001 40.384 42.75 40.375Z" fill="white"/>
</g>
<rect x="3.5" y="3.5" width="65" height="65" stroke="#2B4BEE"/>
<rect x="1" y="1" width="9" height="9" fill="white" stroke="#2B4BEE" stroke-width="2"/>
<rect x="62" y="1" width="9" height="9" fill="white" stroke="#2B4BEE" stroke-width="2"/>
<rect x="1" y="62" width="9" height="9" fill="white" stroke="#2B4BEE" stroke-width="2"/>
<rect x="62" y="62" width="9" height="9" fill="white" stroke="#2B4BEE" stroke-width="2"/>
<defs>
<clipPath id="clip0_1628_91687">
<rect width="36" height="36" fill="white" transform="translate(18 18)"/>
</clipPath>
</defs>
</svg>
