<svg width="72" height="72" viewBox="0 0 72 72" fill="none" xmlns="http://www.w3.org/2000/svg">
<rect x="5.5" y="5.5" width="61" height="61" rx="30.5" stroke="#EE2B6C" stroke-width="3"/>
<path d="M53.0296 33.8812C52.9738 33.277 52.8663 32.5797 52.6591 31.8089C52.452 31.042 52.1453 30.2014 51.7031 29.326C51.253 28.4584 50.6675 27.552 49.9106 26.6766C49.6159 26.3318 49.2932 25.9948 48.9427 25.6617C49.4645 23.6475 48.3093 21.9045 48.3093 21.9045C46.3177 21.7844 45.051 22.5048 44.5809 22.838C44.5013 22.807 44.4256 22.7721 44.3459 22.7411C44.0073 22.6056 43.6568 22.4816 43.2983 22.3731C42.9398 22.2647 42.5733 22.164 42.1989 22.0749C41.8245 21.9897 41.4421 21.9161 41.0557 21.858C40.988 21.8464 40.9203 21.8386 40.8525 21.8309C39.9842 19.1272 37.4866 18 37.4866 18C34.7063 19.7159 34.1765 22.1175 34.1765 22.1175C34.1765 22.1175 34.1645 22.1717 34.1486 22.2608C33.9932 22.3034 33.8419 22.346 33.6865 22.3925C33.4714 22.4545 33.2643 22.532 33.0492 22.6056C32.8381 22.6869 32.627 22.7644 32.4159 22.8535C31.9976 23.0278 31.5794 23.2253 31.1731 23.4461C30.7787 23.663 30.3923 23.8993 30.0139 24.1549C29.9581 24.1317 29.9183 24.1123 29.9183 24.1123C26.0664 22.683 22.6447 24.4028 22.6447 24.4028C22.334 28.3886 24.1823 30.8986 24.5488 31.3518C24.4572 31.5997 24.3735 31.8476 24.2938 32.0994C24.007 33.0019 23.7959 33.9277 23.6645 34.8883C23.6446 35.0239 23.6286 35.1633 23.6127 35.3028C20.0556 37.011 19 40.5165 19 40.5165C21.9716 43.8399 25.4331 44.0452 25.4331 44.0452C25.4371 44.0413 25.441 44.0413 25.441 44.0374C25.8832 44.8005 26.3931 45.5287 26.9627 46.2066C27.2017 46.4893 27.4566 46.7644 27.7155 47.0278C26.6321 50.0374 27.8669 52.5475 27.8669 52.5475C31.1731 52.6675 33.348 51.1414 33.8021 50.7889C34.1327 50.8974 34.4633 50.9942 34.8019 51.0794C35.8176 51.3351 36.8573 51.4822 37.8969 51.5287C38.1558 51.5403 38.4147 51.5442 38.6776 51.5442H38.8051L38.8888 51.5403L39.0521 51.5365L39.2154 51.5287L39.2194 51.5326C40.7769 53.694 43.5174 54 43.5174 54C45.4652 52.0013 45.5768 50.0219 45.5768 49.592C45.5768 49.592 45.5768 49.5765 45.5768 49.5649C45.5768 49.53 45.5768 49.5029 45.5768 49.5029C45.5768 49.4719 45.5728 49.4448 45.5728 49.4099C45.9831 49.1311 46.3734 48.8328 46.7399 48.5113C47.5206 47.8257 48.2018 47.0433 48.7674 46.2027C48.8192 46.1252 48.871 46.0439 48.9228 45.9626C51.1295 46.0865 52.683 44.634 52.683 44.634C52.3166 42.399 51.006 41.3105 50.7352 41.1014C50.7352 41.1014 50.7232 41.0936 50.7073 41.082C50.6914 41.0704 50.6834 41.0626 50.6834 41.0626C50.6675 41.0549 50.6515 41.0433 50.6356 41.0316C50.6475 40.8961 50.6595 40.7644 50.6675 40.6288C50.6834 40.3886 50.6914 40.1485 50.6914 39.9083V39.7301V39.6411V39.5946C50.6914 39.5326 50.6914 39.5558 50.6914 39.5326L50.6834 39.3815L50.6714 39.1801C50.6675 39.1104 50.6635 39.0484 50.6555 38.9864C50.6515 38.9245 50.6436 38.8625 50.6356 38.8005L50.6117 38.6146L50.5838 38.4287C50.548 38.1846 50.4962 37.9406 50.4404 37.6966C50.2094 36.7321 49.823 35.8179 49.3131 34.9968C48.8033 34.1756 48.1659 33.4474 47.4529 32.8354C46.7359 32.2195 45.9353 31.7276 45.0948 31.3596C44.2543 30.9916 43.37 30.7553 42.4897 30.6469C42.0515 30.5926 41.6094 30.5694 41.1752 30.5733L41.0119 30.5771H40.972C40.9601 30.5771 40.9123 30.5771 40.9163 30.5771L40.8486 30.581L40.6892 30.5926C40.6295 30.5965 40.5657 30.6004 40.51 30.6081C40.2869 30.6275 40.0638 30.6585 39.8487 30.7011C38.9764 30.8599 38.1518 31.1659 37.4229 31.5881C36.6979 32.0103 36.0646 32.541 35.5507 33.1375C35.0369 33.7379 34.6385 34.4003 34.3637 35.0859C34.0889 35.7715 33.9375 36.4803 33.8937 37.1698C33.8817 37.3402 33.8777 37.5145 33.8817 37.6811C33.8817 37.7237 33.8817 37.7663 33.8857 37.8089L33.8897 37.9484C33.8977 38.0297 33.9016 38.1149 33.9096 38.1963C33.9454 38.5449 34.0092 38.878 34.1048 39.2034C34.296 39.8464 34.6027 40.4312 34.9851 40.927C35.3635 41.4229 35.8176 41.8334 36.2996 42.1549C36.7816 42.4764 37.2954 42.705 37.8053 42.8483C38.3152 42.9955 38.821 43.0575 39.299 43.0575C39.3588 43.0575 39.4185 43.0575 39.4783 43.0536C39.5102 43.0536 39.542 43.0497 39.5739 43.0497C39.6058 43.0497 39.6376 43.0458 39.6695 43.0458C39.7213 43.042 39.7691 43.0342 39.8209 43.0303C39.8328 43.0303 39.8487 43.0265 39.8647 43.0265L39.9125 43.0187C39.9443 43.0148 39.9722 43.011 40.0041 43.0071C40.0678 42.9994 40.1196 42.9877 40.1794 42.9761C40.2351 42.9645 40.2909 42.9567 40.3467 42.9413C40.4582 42.918 40.5618 42.887 40.6653 42.8522C40.8725 42.7863 41.0676 42.705 41.2509 42.6159C41.4341 42.5229 41.6014 42.4222 41.7568 42.3176C41.8006 42.2866 41.8444 42.2556 41.8882 42.2208C42.0555 42.093 42.0834 41.8567 41.948 41.6979C41.8324 41.5584 41.6293 41.5236 41.47 41.6088C41.4301 41.6281 41.3903 41.6514 41.3505 41.6708C41.211 41.7366 41.0676 41.7947 40.9123 41.8451C40.7569 41.8915 40.5976 41.9303 40.4303 41.9613C40.3467 41.9729 40.263 41.9845 40.1754 41.9923C40.1316 41.9961 40.0877 42 40.0479 42C40.0041 42 39.9603 42.0039 39.9204 42.0039C39.8806 42.0039 39.8368 42.0039 39.797 42C39.7452 41.9961 39.6934 41.9961 39.6416 41.9923C39.6416 41.9923 39.6137 41.9923 39.6376 41.9923H39.6217L39.5858 41.9884C39.5619 41.9845 39.538 41.9845 39.5181 41.9806C39.4703 41.9768 39.4265 41.969 39.3787 41.9651C39.0043 41.9148 38.6259 41.8102 38.2634 41.6475C37.8969 41.4887 37.5464 41.264 37.2317 40.989C36.917 40.714 36.6422 40.3809 36.4271 40.0052C36.212 39.6294 36.0606 39.215 35.9889 38.7773C35.953 38.5604 35.9371 38.3318 35.9451 38.111C35.9491 38.0491 35.9491 37.991 35.953 37.929C35.953 37.9445 35.953 37.9212 35.953 37.9174V37.8941L35.957 37.8476C35.961 37.8167 35.961 37.7895 35.965 37.7586C35.9769 37.6385 35.9969 37.5184 36.0168 37.3983C36.1881 36.4454 36.678 35.5158 37.4388 34.8108C37.63 34.6365 37.8332 34.47 38.0523 34.3267C38.2713 34.1795 38.5024 34.0516 38.7414 33.9432C38.9844 33.8347 39.2353 33.7456 39.4942 33.6798C39.7531 33.6139 40.02 33.5675 40.2869 33.5442C40.4223 33.5326 40.5578 33.5287 40.6932 33.5287C40.7291 33.5287 40.7569 33.5287 40.7848 33.5287L40.8964 33.5326L40.9641 33.5365C40.992 33.5365 40.9641 33.5365 40.976 33.5365H41.0039L41.1154 33.5442C41.4062 33.5675 41.697 33.6062 41.9838 33.672C42.5574 33.796 43.1151 34.0013 43.6369 34.2802C44.6765 34.8418 45.5648 35.7172 46.1066 36.7747C46.3814 37.3015 46.5726 37.867 46.6682 38.4519C46.6921 38.5991 46.708 38.7463 46.72 38.8935L46.728 39.0058L46.7319 39.1181C46.7359 39.1569 46.7359 39.1917 46.7359 39.2305C46.7359 39.2692 46.7399 39.3079 46.7359 39.3351V39.4319L46.7319 39.5403C46.728 39.6139 46.724 39.7301 46.72 39.8037C46.708 39.9664 46.6921 40.1252 46.6722 40.2879C46.6523 40.4467 46.6244 40.6056 46.5965 40.7644C46.5646 40.9232 46.5288 41.0781 46.489 41.2331C46.4093 41.5429 46.3057 41.8528 46.1822 42.1511C45.9393 42.7515 45.6126 43.3209 45.2223 43.8476C44.4375 44.8974 43.366 45.7534 42.1471 46.2957C41.5377 46.5629 40.8924 46.7605 40.2351 46.8651C39.9045 46.9193 39.5699 46.9503 39.2353 46.9619L39.1716 46.9658H39.1198H39.0122H38.8489H38.7653C38.8091 46.9658 38.7573 46.9658 38.7613 46.9658H38.7294C38.5502 46.9619 38.3709 46.9542 38.1917 46.9387C37.4747 46.8883 36.7696 46.7644 36.0845 46.5707C35.3994 46.377 34.7341 46.1175 34.1048 45.7921C32.8461 45.1375 31.7228 44.2427 30.8424 43.162C30.4003 42.6236 30.0139 42.0465 29.6952 41.4383C29.3766 40.8302 29.1256 40.1911 28.9384 39.5403C28.7552 38.8857 28.6397 38.2195 28.5958 37.5455L28.5879 37.4177L28.5839 37.3867V37.3596V37.3054L28.5799 37.193V37.1659V37.1272V37.0497L28.5759 36.8948V36.8638C28.5759 36.8677 28.5759 36.8677 28.5759 36.8522V36.7902C28.5759 36.7088 28.5799 36.6275 28.5799 36.5423C28.5919 36.2092 28.6197 35.8683 28.6675 35.5274C28.7114 35.1866 28.7711 34.8418 28.8428 34.501C28.9145 34.1601 29.0021 33.8231 29.0977 33.4939C29.2929 32.8315 29.5359 32.1885 29.8267 31.5804C30.4043 30.3641 31.1611 29.2912 32.0733 28.4312C32.3003 28.2143 32.5354 28.009 32.7823 27.8192C33.0253 27.6294 33.2802 27.4513 33.5431 27.2847C33.802 27.1181 34.0729 26.9632 34.3518 26.8238C34.4872 26.7502 34.6306 26.6882 34.77 26.6223C34.8417 26.5913 34.9134 26.5604 34.9851 26.5294C35.0568 26.4984 35.1285 26.4674 35.2002 26.4403C35.487 26.3202 35.7857 26.2234 36.0845 26.1304C36.1602 26.1072 36.2359 26.0878 36.3115 26.0646C36.3872 26.0413 36.4629 26.0258 36.5386 26.0026C36.69 25.96 36.8453 25.9251 36.9967 25.8903C37.0724 25.8709 37.152 25.8554 37.2277 25.8399C37.3034 25.8244 37.3831 25.8089 37.4587 25.7934C37.5384 25.7779 37.6141 25.7663 37.6938 25.7508L37.8093 25.7314L37.9248 25.7159C38.0045 25.7043 38.0801 25.6927 38.1598 25.6811C38.2474 25.6656 38.3351 25.6617 38.4227 25.6462C38.4944 25.6385 38.6139 25.623 38.6856 25.6152C38.7414 25.6114 38.7971 25.6036 38.8529 25.5997L38.9644 25.5881L39.0202 25.5842L39.0839 25.5804C39.1716 25.5765 39.2592 25.5688 39.3508 25.5649L39.4823 25.5571C39.4823 25.5571 39.5301 25.5571 39.4902 25.5571H39.5181L39.5739 25.5533C39.6496 25.5494 39.7253 25.5455 39.8009 25.5416C40.0997 25.5339 40.3984 25.5339 40.6972 25.5416C41.2907 25.5649 41.8723 25.6269 42.4379 25.7314C43.5692 25.9367 44.6327 26.2892 45.5967 26.754C46.5607 27.2111 47.425 27.7766 48.1739 28.3886C48.2217 28.4274 48.2655 28.4661 48.3133 28.5048C48.3571 28.5436 48.4049 28.5823 48.4488 28.621C48.5404 28.6985 48.628 28.7799 48.7156 28.8573C48.8033 28.9348 48.8869 29.0161 48.9706 29.0975C49.0542 29.1788 49.1379 29.2602 49.2135 29.3415C49.5322 29.6708 49.827 30 50.0899 30.3331C50.6236 30.9994 51.0499 31.6733 51.3884 32.3086C51.4084 32.3473 51.4323 32.3861 51.4522 32.4287C51.4721 32.4674 51.492 32.5061 51.5119 32.5487C51.5518 32.6262 51.5916 32.7037 51.6274 32.7811C51.6633 32.8586 51.7031 32.9361 51.735 33.0097C51.7708 33.0872 51.8027 33.1607 51.8346 33.2343C51.962 33.5326 52.0776 33.8154 52.1692 34.0826C52.3245 34.5126 52.44 34.9038 52.5277 35.2447C52.5635 35.3802 52.695 35.4693 52.8384 35.4577C52.9858 35.4461 53.1013 35.326 53.1053 35.1827C53.0814 34.7954 53.0734 34.3693 53.0296 33.8812Z" fill="white"/>
<rect x="3.5" y="3.5" width="65" height="65" stroke="#2B4BEE"/>
<rect x="1" y="1" width="9" height="9" fill="white" stroke="#2B4BEE" stroke-width="2"/>
<rect x="62" y="1" width="9" height="9" fill="white" stroke="#2B4BEE" stroke-width="2"/>
<rect x="1" y="62" width="9" height="9" fill="white" stroke="#2B4BEE" stroke-width="2"/>
<rect x="62" y="62" width="9" height="9" fill="white" stroke="#2B4BEE" stroke-width="2"/>
</svg>
