<svg width="72" height="72" viewBox="0 0 72 72" fill="none" xmlns="http://www.w3.org/2000/svg">
<rect x="5.5" y="5.5" width="61" height="61" rx="30.5" stroke="#2B4BEE" stroke-width="3"/>
<rect x="3.5" y="3.5" width="65" height="65" stroke="#2B4BEE"/>
<rect x="1" y="1" width="9" height="9" fill="white" stroke="#2B4BEE" stroke-width="2"/>
<rect x="62" y="1" width="9" height="9" fill="white" stroke="#2B4BEE" stroke-width="2"/>
<rect x="1" y="62" width="9" height="9" fill="white" stroke="#2B4BEE" stroke-width="2"/>
<rect x="62" y="62" width="9" height="9" fill="white" stroke="#2B4BEE" stroke-width="2"/>
<g clip-path="url(#clip0_1628_94056)">
<path d="M27.25 31.5H22.875C22.3918 31.5 22 31.8918 22 32.375V47.25C22 47.7332 22.3918 48.125 22.875 48.125H27.25C27.7332 48.125 28.125 47.7332 28.125 47.25V32.375C28.125 31.8918 27.7332 31.5 27.25 31.5Z" fill="white"/>
<path d="M49.5223 32.3168C49.2211 31.8097 48.7951 31.388 48.285 31.0919C47.7748 30.7959 47.1974 30.6353 46.6076 30.6254H39.5V26.2504C39.4985 25.0667 39.0976 23.918 38.3623 22.9904C37.6269 22.0627 36.6001 21.4103 35.4479 21.1387C35.1947 21.0876 34.9332 21.0938 34.6827 21.1569C34.4323 21.22 34.1991 21.3384 34.0003 21.5034C33.8015 21.6684 33.6422 21.8757 33.534 22.1103C33.4258 22.3448 33.3715 22.6006 33.375 22.8589V28.5517L29.875 32.6379V48.1254H44.7544C45.7078 48.1287 46.6303 47.7873 47.3518 47.164C48.0733 46.5408 48.5452 45.6777 48.6805 44.7339L49.993 34.2339V34.2261C50.0512 33.5551 49.8856 32.8838 49.5223 32.3168Z" fill="white"/>
</g>
<defs>
<clipPath id="clip0_1628_94056">
<rect width="28" height="28" fill="white" transform="translate(22 21)"/>
</clipPath>
</defs>
</svg>
