<svg width="72" height="72" viewBox="0 0 72 72" fill="none" xmlns="http://www.w3.org/2000/svg">
<rect x="5.5" y="5.5" width="61" height="61" rx="30.5" stroke="#EE2B6C" stroke-width="3"/>
<rect x="3.5" y="3.5" width="65" height="65" stroke="#2B4BEE"/>
<rect x="1" y="1" width="9" height="9" fill="white" stroke="#2B4BEE" stroke-width="2"/>
<rect x="62" y="1" width="9" height="9" fill="white" stroke="#2B4BEE" stroke-width="2"/>
<rect x="1" y="62" width="9" height="9" fill="white" stroke="#2B4BEE" stroke-width="2"/>
<rect x="62" y="62" width="9" height="9" fill="white" stroke="#2B4BEE" stroke-width="2"/>
<path d="M19.4604 40.4649C18.9355 40.4649 18.4664 40.0965 18.359 39.5627C17.288 34.251 18.6442 28.797 22.0805 24.6002C22.4742 24.1192 23.183 24.0495 23.6634 24.4421C24.1437 24.8358 24.2146 25.5446 23.8209 26.025C20.8137 29.6975 19.6269 34.4698 20.564 39.1172C20.6866 39.7263 20.2929 40.3198 19.6837 40.4424C19.6089 40.4576 19.534 40.4649 19.4604 40.4649Z" fill="white"/>
<path d="M25.8852 23.625C25.5432 23.625 25.2051 23.4697 24.9841 23.175C24.6111 22.6777 24.7124 21.9723 25.2091 21.5994C27.3572 19.989 29.7901 18.9017 32.4394 18.3678C37.2606 17.3958 42.1482 18.3965 46.2004 21.1871C46.7123 21.5398 46.8417 22.2401 46.489 22.752C46.1369 23.2622 45.4354 23.3921 44.9247 23.0405C41.3792 20.5987 37.1042 19.7218 32.8844 20.574C30.5652 21.0408 28.4372 21.992 26.5591 23.4C26.3566 23.5518 26.1203 23.625 25.8852 23.625Z" fill="white"/>
<path d="M52.5293 33.7966C52.0045 33.7966 51.5353 33.4282 51.4279 32.8944C50.8722 30.1381 49.5913 27.5815 47.725 25.5009C47.3104 25.0385 47.3487 24.3269 47.811 23.9124C48.2734 23.4972 48.985 23.5344 49.4001 23.9979C51.5348 26.3767 52.999 29.2994 53.634 32.4489C53.7567 33.058 53.3629 33.6515 52.7537 33.7741C52.6778 33.7893 52.603 33.7966 52.5293 33.7966Z" fill="white"/>
<path d="M31.6407 53.4277C31.3769 53.4277 31.1126 53.3355 30.8988 53.1482C30.4319 52.7381 30.3858 52.0271 30.7959 51.5602C34.514 47.3285 36.0091 41.7395 34.8976 36.227C34.775 35.6178 35.1687 35.0244 35.7779 34.9018C36.3871 34.7808 36.9806 35.1729 37.1032 35.7821C38.3547 41.9887 36.6717 48.2814 32.4862 53.0452C32.2634 53.2989 31.9529 53.4277 31.6407 53.4277Z" fill="white"/>
<path d="M27.4681 51.6817C27.1677 51.6817 26.8679 51.5619 26.6462 51.3251C26.2216 50.8711 26.2457 50.1596 26.6991 49.7354C30.0505 46.6001 31.4562 42.2615 30.7643 37.1883L30.7424 37.0241C30.4724 35.6347 30.7542 34.2228 31.5383 33.0433C32.3292 31.853 33.5363 31.0413 34.9375 30.7584C37.831 30.1756 40.6576 32.0538 41.2414 34.9462C41.2487 34.9828 41.2544 35.0199 41.2583 35.0559C41.3882 35.7168 41.4923 36.3873 41.5671 37.0505C41.6369 37.6681 41.1925 38.225 40.5754 38.2948C39.9589 38.3662 39.4015 37.9207 39.3317 37.3031C39.2603 36.6674 39.1591 36.0251 39.0314 35.3928C39.0252 35.3619 39.0201 35.3315 39.0167 35.3006C38.6393 33.6761 37.03 32.6309 35.3836 32.9645C34.5713 33.1282 33.8716 33.5984 33.4131 34.2886C32.9547 34.9788 32.7927 35.8057 32.9564 36.6179C32.9626 36.6478 32.9671 36.677 32.9704 36.7074L32.9941 36.8846C33.7889 42.7109 32.1436 47.7228 28.2364 51.3779C28.0193 51.581 27.7437 51.6817 27.4681 51.6817Z" fill="white"/>
<path d="M36.5335 53.9899C36.3147 53.9899 36.0936 53.9263 35.8995 53.793C35.3865 53.442 35.2555 52.7423 35.6065 52.2293C37.8688 48.9235 39.1918 45.0754 39.4315 41.103C39.4692 40.4826 40.0035 40.0033 40.6223 40.0478C41.2427 40.0849 41.7147 40.6182 41.6775 41.238C41.4132 45.6177 39.9557 49.8578 37.4633 53.5005C37.245 53.8189 36.8924 53.9899 36.5335 53.9899Z" fill="white"/>
<path d="M24.0668 49.0554C23.7411 49.0554 23.4182 48.9148 23.196 48.6436C22.8023 48.1633 22.8732 47.4539 23.3535 47.0608C26.0299 44.8687 27.2877 41.4206 26.6565 38.0321C26.6413 37.9876 26.6295 37.9426 26.62 37.8965C26.319 36.4036 26.3719 34.9074 26.7769 33.4494C26.9428 32.8509 27.5633 32.4999 28.1618 32.6664C28.7603 32.8329 29.1107 33.4528 28.9442 34.0513C28.6472 35.1206 28.5983 36.2186 28.7991 37.3154C28.8137 37.3593 28.8261 37.4038 28.8351 37.4493C29.6923 41.7007 28.1382 46.0499 24.7789 48.8011C24.5702 48.9721 24.3177 49.0554 24.0668 49.0554Z" fill="white"/>
<path d="M42.0464 52.8759C41.881 52.8759 41.7134 52.8399 41.5542 52.7623C40.9956 52.4906 40.7633 51.8167 41.0356 51.2581C43.5786 46.0387 44.315 40.2641 43.1652 34.5598C43.1511 34.4923 41.4951 27.4273 34.55 28.8341C33.1128 29.1238 31.8123 29.8263 30.788 30.8653C30.3526 31.308 29.6393 31.3136 29.1972 30.8771C28.7545 30.4411 28.7489 29.729 29.1854 29.2863C30.5253 27.9262 32.2263 27.0065 34.105 26.6274C41.728 25.0935 44.8701 31.6803 45.3696 34.1098C46.619 40.3068 45.8191 46.5753 43.0583 52.2425C42.8637 52.6436 42.4632 52.8759 42.0464 52.8759Z" fill="white"/>
<path d="M21.4787 45.7238C21.1598 45.7238 20.8425 45.5888 20.6198 45.3261C20.2181 44.8519 20.2766 44.1426 20.7508 43.7404C22.1751 42.5338 22.8456 40.663 22.516 38.8343C22.5053 38.7994 22.4963 38.7645 22.4895 38.7285C21.0653 31.6635 25.3864 24.6334 32.3271 22.7232C32.9284 22.5583 33.5455 22.911 33.7103 23.5095C33.8751 24.108 33.523 24.7273 32.9245 24.8927C27.1543 26.4807 23.5493 32.2986 24.6726 38.1717C24.6838 38.2071 24.6934 38.2448 24.7007 38.2819C25.2385 40.9476 24.2816 43.6971 22.2049 45.4572C21.994 45.6366 21.7352 45.7238 21.4787 45.7238Z" fill="white"/>
<path d="M47.9702 49.0127C47.874 49.0127 47.7767 49.0003 47.6794 48.9744C47.0792 48.8141 46.722 48.1976 46.8823 47.5974C48.0911 43.0643 48.2357 38.4214 47.3132 33.7937C47.307 33.7718 47.3019 33.7498 47.2974 33.7273C46.2472 28.5191 41.8125 24.7189 36.5137 24.4854C35.8927 24.4579 35.4118 23.9331 35.4394 23.3121C35.4664 22.6911 35.9923 22.2135 36.6127 22.2377C42.9234 22.5156 48.2081 27.024 49.4889 33.2115C49.4951 33.2351 49.5007 33.2588 49.5052 33.2824C50.5121 38.274 50.3608 43.2853 49.0569 48.1774C48.9219 48.6803 48.4674 49.0127 47.9702 49.0127Z" fill="white"/>
</svg>
