<svg width="72" height="72" viewBox="0 0 72 72" fill="none" xmlns="http://www.w3.org/2000/svg">
<rect x="5.5" y="5.5" width="61" height="61" stroke="white" stroke-width="3"/>
<rect x="3.5" y="3.5" width="65" height="65" stroke="#2B4BEE"/>
<rect x="1" y="1" width="9" height="9" fill="white" stroke="#2B4BEE" stroke-width="2"/>
<rect x="62" y="1" width="9" height="9" fill="white" stroke="#2B4BEE" stroke-width="2"/>
<rect x="1" y="62" width="9" height="9" fill="white" stroke="#2B4BEE" stroke-width="2"/>
<rect x="62" y="62" width="9" height="9" fill="white" stroke="#2B4BEE" stroke-width="2"/>
<path d="M28 20H21.1429C20.5117 20 20 20.5117 20 21.1429V50.8571C20 51.4883 20.5117 52 21.1429 52H28C28.6312 52 29.1429 51.4883 29.1429 50.8571V21.1429C29.1429 20.5117 28.6312 20 28 20Z" fill="white"/>
<path d="M50.8535 30.8545H43.9964C43.3652 30.8545 42.8535 31.3662 42.8535 31.9973V50.8545C42.8535 51.4857 43.3652 51.9973 43.9964 51.9973H50.8535C51.4847 51.9973 51.9964 51.4857 51.9964 50.8545V31.9973C51.9964 31.3662 51.4847 30.8545 50.8535 30.8545Z" fill="white"/>
<path d="M50.8583 20H32.5725C31.9414 20 31.4297 20.5117 31.4297 21.1429V27.4286C31.4297 28.0598 31.9414 28.5714 32.5725 28.5714H50.8583C51.4894 28.5714 52.0011 28.0598 52.0011 27.4286V21.1429C52.0011 20.5117 51.4894 20 50.8583 20Z" fill="white"/>
<path d="M39.4297 42.8545H32.5725C31.9414 42.8545 31.4297 43.3662 31.4297 43.9973V50.8545C31.4297 51.4857 31.9414 51.9973 32.5725 51.9973H39.4297C40.0609 51.9973 40.5725 51.4857 40.5725 50.8545V43.9973C40.5725 43.3662 40.0609 42.8545 39.4297 42.8545Z" fill="white"/>
<path d="M39.4297 30.8545H32.5725C31.9414 30.8545 31.4297 31.3662 31.4297 31.9973V38.8545C31.4297 39.4857 31.9414 39.9973 32.5725 39.9973H39.4297C40.0609 39.9973 40.5725 39.4857 40.5725 38.8545V31.9973C40.5725 31.3662 40.0609 30.8545 39.4297 30.8545Z" fill="white"/>
</svg>
