<svg width="14" height="14" viewBox="0 0 14 14" fill="none" xmlns="http://www.w3.org/2000/svg">
<g clip-path="url(#clip0_126_157)">
<path d="M3.9375 11.8125C3.9375 12.2766 3.75313 12.7217 3.42494 13.0499C3.09675 13.3781 2.65163 13.5625 2.1875 13.5625C1.72337 13.5625 1.27825 13.3781 0.950063 13.0499C0.621875 12.7217 0.4375 12.2766 0.4375 11.8125C0.4375 10.0625 2.1875 8.3125 2.1875 8.3125C2.1875 8.3125 3.9375 10.0625 3.9375 11.8125Z" stroke="#999999" stroke-width="0.8" stroke-linecap="round" stroke-linejoin="round"/>
<path d="M7.67949 4.67013C9.73226 3.39562 10.9831 1.69679 10.4733 0.875677C9.96348 0.0545683 7.8861 0.422122 5.83333 1.69663C3.78056 2.97114 2.52973 4.66997 3.03954 5.49108C3.54934 6.31219 5.62672 5.94464 7.67949 4.67013Z" stroke="#999999" stroke-width="0.8" stroke-linecap="round" stroke-linejoin="round"/>
<path d="M3.03882 5.49063L7.47419 10.976C7.98432 11.7967 9.72819 11.6366 11.3706 10.6164C13.0129 9.59613 13.9308 8.10425 13.4207 7.2835L10.4728 0.875" stroke="#999999" stroke-width="0.8" stroke-linecap="round" stroke-linejoin="round"/>
</g>
<defs>
<clipPath id="clip0_126_157">
<rect width="14" height="14" fill="white"/>
</clipPath>
</defs>
</svg>
