<svg width="80" height="62" viewBox="0 0 80 62" fill="none" xmlns="http://www.w3.org/2000/svg">
<rect width="80" height="62" rx="10" fill="black"/>
<mask id="mask0_654_93157" style="mask-type:alpha" maskUnits="userSpaceOnUse" x="0" y="0" width="80" height="62">
<rect width="80" height="62" rx="10" fill="black"/>
</mask>
<g mask="url(#mask0_654_93157)">
<rect x="56" y="54" width="22" height="8" fill="#2B4BEE"/>
<rect x="4" y="30" width="8" height="32" fill="#2B4BEE"/>
<rect x="14" y="54" width="40" height="8" fill="#EE2B6C"/>
<path fill-rule="evenodd" clip-rule="evenodd" d="M30 36H22V44H14V52H38V44H30V36Z" fill="white"/>
<rect x="22" y="18" width="8" height="16" fill="#2B4BEE"/>
<rect x="70" y="24" width="8" height="10" fill="#EE2B6C"/>
<path fill-rule="evenodd" clip-rule="evenodd" d="M78 36H70V44H40V52H78V44V36Z" fill="white"/>
<rect x="32" y="8" width="8" height="34" fill="#EE2B6C"/>
<rect x="44" y="18" width="22" height="22" rx="11" fill="black" stroke="white" stroke-width="4"/>
<rect x="51" y="25" width="8" height="8" rx="4" fill="#2B4BEE"/>
</g>
</svg>
