<svg width="80" height="62" viewBox="0 0 80 62" fill="none" xmlns="http://www.w3.org/2000/svg">
<rect width="80" height="62" rx="10" fill="black"/>
<mask id="mask0_654_93237" style="mask-type:alpha" maskUnits="userSpaceOnUse" x="0" y="0" width="80" height="62">
<rect width="80" height="62" rx="10" fill="black"/>
</mask>
<g mask="url(#mask0_654_93237)">
<rect x="36" y="27" width="8" height="8" fill="white"/>
<rect x="27" y="27" width="8" height="8" fill="#EE2B6C"/>
<rect x="36" y="36" width="8" height="8" fill="#EE2B6C"/>
<rect x="27" y="36" width="8" height="8" fill="white"/>
<rect x="27" y="45" width="8" height="8" fill="white"/>
<rect x="27" y="54" width="8" height="8" fill="white"/>
<rect x="45" y="27" width="8" height="8" fill="#EE2B6C"/>
<rect x="45" y="36" width="8" height="8" fill="#EE2B6C"/>
<rect x="54" y="36" width="8" height="8" fill="white"/>
<rect x="36" y="45" width="8" height="8" fill="#2B4BEE"/>
<rect x="45" y="45" width="8" height="8" fill="#EE2B6C"/>
<rect x="54" y="45" width="8" height="8" fill="white"/>
<rect x="36" y="54" width="8" height="8" fill="#EE2B6C"/>
<rect x="45" y="54" width="8" height="8" fill="white"/>
<rect x="54" y="54" width="8" height="8" fill="#2B4BEE"/>
<rect x="63" y="36" width="8" height="8" fill="#EE2B6C"/>
<rect x="63" y="45" width="8" height="8" fill="#EE2B6C"/>
<rect x="63" y="54" width="8" height="8" fill="white"/>
<rect x="72" y="36" width="8" height="8" fill="#2B4BEE"/>
<rect x="54" y="27" width="8" height="8" fill="#2B4BEE"/>
<rect x="63" y="27" width="8" height="8" fill="#EE2B6C"/>
<rect x="72" y="27" width="8" height="8" fill="white"/>
<rect x="54" y="18" width="8" height="8" fill="white"/>
<rect x="63" y="18" width="8" height="8" fill="#EE2B6C"/>
<rect x="72" y="18" width="8" height="8" fill="white"/>
<rect opacity="0.3" x="27" y="18" width="8" height="8" fill="#EE2B6C"/>
<rect opacity="0.3" x="18" y="27" width="8" height="8" fill="#EE2B6C"/>
<rect opacity="0.6" x="18" y="36" width="8" height="8" fill="#EE2B6C"/>
<rect x="18" y="45" width="8" height="8" fill="#EE2B6C"/>
<rect x="18" y="54" width="8" height="8" fill="#EE2B6C"/>
<rect opacity="0.6" x="36" y="18" width="8" height="8" fill="#EE2B6C"/>
<rect x="45" y="18" width="8" height="8" fill="#EE2B6C"/>
<rect x="72" y="45" width="8" height="8" fill="white"/>
<rect x="72" y="54" width="8" height="8" fill="#EE2B6C"/>
<rect x="80" y="8" width="1" height="80" transform="rotate(90 80 8)" fill="#4D4D4D"/>
<rect x="80" y="17" width="1" height="80" transform="rotate(90 80 17)" fill="#4D4D4D"/>
<rect x="80" y="26" width="1" height="80" transform="rotate(90 80 26)" fill="#4D4D4D"/>
<rect x="80" y="35" width="1" height="80" transform="rotate(90 80 35)" fill="#4D4D4D"/>
<rect x="80" y="44" width="1" height="80" transform="rotate(90 80 44)" fill="#4D4D4D"/>
<rect x="80" y="53" width="1" height="80" transform="rotate(90 80 53)" fill="#4D4D4D"/>
<rect x="8" width="1" height="62" fill="#4D4D4D"/>
<rect x="17" width="1" height="62" fill="#4D4D4D"/>
<rect x="26" width="1" height="62" fill="#4D4D4D"/>
<rect x="35" width="1" height="62" fill="#4D4D4D"/>
<rect x="44" width="1" height="62" fill="#4D4D4D"/>
<rect x="53" width="1" height="62" fill="#4D4D4D"/>
<rect x="62" width="1" height="62" fill="#4D4D4D"/>
<rect x="71" width="1" height="62" fill="#4D4D4D"/>
<rect x="17.5" y="17.5" width="63" height="45" stroke="white"/>
<rect x="14.5" y="14.5" width="6" height="6" fill="black" stroke="white"/>
<path d="M80.5 18V17.5H80H48C31.1553 17.5 17.5 31.1553 17.5 48V62V62.5H18H80H80.5V62V18Z" stroke="white"/>
</g>
</svg>
