<svg width="80" height="62" viewBox="0 0 80 62" fill="none" xmlns="http://www.w3.org/2000/svg">
<rect width="80" height="62" rx="10" fill="black"/>
<mask id="mask0_654_93202" style="mask-type:alpha" maskUnits="userSpaceOnUse" x="0" y="0" width="80" height="62">
<rect width="80" height="62" rx="10" fill="black"/>
</mask>
<g mask="url(#mask0_654_93202)">
<rect x="80" y="8" width="1" height="80" transform="rotate(90 80 8)" fill="#4D4D4D"/>
<rect x="80" y="17" width="1" height="80" transform="rotate(90 80 17)" fill="#4D4D4D"/>
<rect x="80" y="26" width="1" height="80" transform="rotate(90 80 26)" fill="#4D4D4D"/>
<rect x="80" y="35" width="1" height="80" transform="rotate(90 80 35)" fill="#4D4D4D"/>
<rect x="80" y="44" width="1" height="80" transform="rotate(90 80 44)" fill="#4D4D4D"/>
<rect x="80" y="53" width="1" height="80" transform="rotate(90 80 53)" fill="#4D4D4D"/>
<rect x="8" width="1" height="62" fill="#4D4D4D"/>
<rect x="17" width="1" height="62" fill="#4D4D4D"/>
<rect x="26" width="1" height="62" fill="#4D4D4D"/>
<rect x="35" width="1" height="62" fill="#4D4D4D"/>
<rect x="44" width="1" height="62" fill="#4D4D4D"/>
<rect x="53" width="1" height="62" fill="#4D4D4D"/>
<rect x="62" width="1" height="62" fill="#4D4D4D"/>
<rect x="71" width="1" height="62" fill="#4D4D4D"/>
<circle cx="53.5" cy="26.5" r="17" stroke="white" stroke-width="3"/>
<path d="M41 39L28 52" stroke="white" stroke-width="4" stroke-linecap="round"/>
</g>
<rect x="54" y="18" width="8" height="8" fill="black"/>
<rect x="45" y="18" width="8" height="8" fill="#EE2B6C"/>
<rect x="54" y="27" width="8" height="8" fill="#EE2B6C"/>
<rect x="45" y="27" width="8" height="8" fill="black"/>
<rect x="9" y="9" width="8" height="8" fill="#2B4BEE"/>
<rect x="45" y="54" width="8" height="8" fill="#2B4BEE"/>
<rect x="27" width="8" height="8" fill="#2B4BEE"/>
<rect x="18" y="27" width="8" height="8" fill="#2B4BEE"/>
<rect x="9" y="45" width="8" height="8" fill="#2B4BEE"/>
</svg>
