<svg width="168" height="44" viewBox="0 0 168 44" fill="none" xmlns="http://www.w3.org/2000/svg">
<g clip-path="url(#clip0_7175_794)">
<path d="M10.942 19.1712L10.9626 10.4852L18.3294 14.6456L18.3058 22.8495L18.2926 22.8421L18.2869 24.8314L18.2619 33.5303L10.899 29.4353L10.9187 21.1549L10.9373 21.1654L10.942 19.1712ZM8.55726 30.8034L8.53359 39.0151L1.17083 34.9202L1.1905 26.643L8.55726 30.8034ZM20.6714 13.2775L20.6911 5.00039L28.0578 9.16077L28.0341 17.3724L20.6714 13.2775Z" stroke="white" stroke-width="2.33839"/>
<path fill-rule="evenodd" clip-rule="evenodd" d="M75.0132 11.7686H71.1992V32.4191H75.0132V11.7686ZM45.5793 32.7862C43.9407 32.7862 42.4716 32.4467 41.172 31.7678C39.8913 31.07 38.8365 29.9856 38.0078 28.5146L41.4263 26.3364C41.916 27.3171 42.5375 28.0526 43.2909 28.5429C44.0631 29.0144 44.9013 29.2501 45.8053 29.2501C46.7094 29.2501 47.4251 29.0427 47.9525 28.6278C48.4987 28.2129 48.7718 27.666 48.7718 26.9871C48.7718 26.3647 48.574 25.8555 48.1785 25.4595C47.7829 25.0635 47.2744 24.7523 46.6529 24.526C46.0502 24.2808 45.2497 24.0262 44.2515 23.7622C42.6694 23.3473 41.4357 22.6778 40.5505 21.7537C39.6841 20.8296 39.2509 19.6415 39.2509 18.1894C39.2509 17.0201 39.5428 15.9923 40.1267 15.1059C40.7106 14.2007 41.5299 13.5029 42.5846 13.0126C43.6393 12.5223 44.8542 12.2771 46.2291 12.2771C47.717 12.2771 48.9789 12.5883 50.0148 13.2106C51.0696 13.833 51.983 14.7476 52.7553 15.9546L49.365 18.0479C48.8753 17.2559 48.3762 16.6901 47.8677 16.3506C47.3592 15.9923 46.747 15.8131 46.0313 15.8131C45.2214 15.8131 44.5622 16.0112 44.0537 16.4072C43.5452 16.8032 43.2909 17.3313 43.2909 17.9914C43.2909 18.6514 43.5452 19.1512 44.0537 19.4906C44.5622 19.8112 45.3533 20.1413 46.4269 20.4807C47.7453 20.8956 48.8 21.2822 49.5911 21.6406C50.3821 21.9989 51.1167 22.6024 51.7947 23.451C52.4727 24.2808 52.8118 25.3841 52.8118 26.7608C52.8118 27.9489 52.5198 29.005 51.936 29.9291C51.3521 30.8343 50.5139 31.5415 49.4215 32.0507C48.3291 32.541 47.0484 32.7862 45.5793 32.7862ZM61.6929 32.7868C60.205 32.7868 58.8678 32.4474 57.6812 31.7684C56.4946 31.0707 55.5623 30.1371 54.8843 28.9679C54.2062 27.7798 53.8672 26.4879 53.8672 25.0924C53.8672 23.6968 54.2062 22.405 54.8843 21.2169C55.5623 20.0287 56.4946 19.0952 57.6812 18.4163C58.8678 17.7185 60.205 17.3696 61.6929 17.3696C63.1809 17.3696 64.5181 17.7185 65.7047 18.4163C66.8913 19.0952 67.8236 20.0287 68.5016 21.2169C69.1797 22.405 69.5187 23.6968 69.5187 25.0924C69.5187 26.4879 69.1797 27.7798 68.5016 28.9679C67.8236 30.1371 66.8913 31.0707 65.7047 31.7684C64.5181 32.4474 63.1809 32.7868 61.6929 32.7868ZM57.6812 25.0924C57.6812 25.8656 57.8413 26.5728 58.1615 27.214C58.5005 27.8552 58.9713 28.3644 59.5741 28.7416C60.1956 29.1187 60.9019 29.3073 61.6929 29.3073C62.484 29.3073 63.1809 29.1187 63.7836 28.7416C64.4051 28.3644 64.876 27.8552 65.1962 27.214C65.5352 26.5728 65.7047 25.8656 65.7047 25.0924C65.7047 24.3191 65.5352 23.6119 65.1962 22.9707C64.8571 22.3295 64.3863 21.8203 63.7836 21.4432C63.1809 21.0471 62.484 20.8491 61.6929 20.8491C60.9019 20.8491 60.205 21.0471 59.6023 21.4432C58.9996 21.8203 58.5287 22.3295 58.1897 22.9707C57.8507 23.6119 57.6812 24.3191 57.6812 25.0924ZM83.9599 32.7834C82.6415 32.7834 81.4267 32.444 80.3154 31.7651C79.2042 31.0673 78.319 30.1338 77.6598 28.9645C77.0194 27.7952 76.6992 26.5128 76.6992 25.1173C76.6992 23.7217 77.0194 22.4393 77.6598 21.27C78.319 20.0819 79.2042 19.139 80.3154 18.4412C81.4267 17.7434 82.6415 17.3945 83.9599 17.3945C85.1653 17.3945 86.1353 17.6208 86.8699 18.0735C87.6233 18.5261 88.2071 19.1767 88.6215 20.0254V17.7057H92.4072V32.4157H88.7062V30.0112C88.273 30.8975 87.6798 31.5859 86.9264 32.0762C86.1918 32.5477 85.203 32.7834 83.9599 32.7834ZM80.5132 25.089C80.5132 25.8433 80.6827 26.5506 81.0217 27.2106C81.3796 27.8518 81.8599 28.3704 82.4626 28.7665C83.0841 29.1437 83.7904 29.3322 84.5815 29.3322C85.3914 29.3322 86.1071 29.1437 86.7286 28.7665C87.369 28.3893 87.8587 27.8801 88.1977 27.2389C88.5367 26.5977 88.7062 25.8905 88.7062 25.1173C88.7062 24.3441 88.5367 23.6368 88.1977 22.9956C87.8587 22.3356 87.369 21.817 86.7286 21.4398C86.1071 21.0437 85.3914 20.8457 84.5815 20.8457C83.7904 20.8457 83.0841 21.0437 82.4626 21.4398C81.841 21.817 81.3608 22.3261 81.0217 22.9673C80.6827 23.6086 80.5132 24.3158 80.5132 25.089ZM98.3846 17.7082H94.6836V32.4181H98.4976V24.8934C98.4976 23.6864 98.8649 22.7341 99.5994 22.0363C100.334 21.3196 101.266 20.9613 102.396 20.9613H102.933V17.3687C101.69 17.2933 100.682 17.529 99.9102 18.0759C99.1568 18.6228 98.6483 19.4338 98.3846 20.5087V17.7082ZM104.188 17.7057H107.945V20.0819C108.378 19.2144 108.962 18.5544 109.697 18.1017C110.431 17.6303 111.411 17.3945 112.635 17.3945C113.953 17.3945 115.168 17.7434 116.279 18.4412C117.39 19.139 118.266 20.0819 118.906 21.27C119.566 22.4393 119.895 23.7217 119.895 25.1173C119.895 26.5128 119.566 27.7952 118.906 28.9645C118.266 30.1337 117.39 31.0673 116.279 31.765C115.168 32.444 113.953 32.7834 112.635 32.7834C111.448 32.7834 110.478 32.5666 109.725 32.1328C108.99 31.6802 108.416 31.0484 108.002 30.2375V38.0734H104.188V17.7057ZM107.888 25.1173C107.888 25.8905 108.058 26.5977 108.397 27.2389C108.736 27.8801 109.216 28.3893 109.838 28.7665C110.478 29.1437 111.203 29.3322 112.013 29.3322C112.804 29.3322 113.501 29.1437 114.104 28.7665C114.725 28.3704 115.205 27.8518 115.545 27.2106C115.902 26.5505 116.081 25.8433 116.081 25.089C116.081 24.3158 115.912 23.6086 115.573 22.9673C115.234 22.3261 114.753 21.817 114.132 21.4398C113.51 21.0437 112.804 20.8457 112.013 20.8457C111.203 20.8457 110.478 21.0437 109.838 21.4398C109.216 21.817 108.736 22.3356 108.397 22.9956C108.058 23.6368 107.888 24.3441 107.888 25.1173ZM124.196 32.02C125.043 32.5103 125.994 32.7555 127.049 32.7555C128.179 32.7555 129.092 32.548 129.789 32.1331C130.486 31.7183 131.014 31.077 131.371 30.2095V32.416H135.072V17.7061H131.258V25.7683C131.258 26.9752 130.967 27.8899 130.383 28.5122C129.799 29.1157 129.074 29.4175 128.207 29.4175C126.248 29.4175 125.269 28.2011 125.269 25.7683V17.7061H121.455V26.7018C121.455 27.9087 121.7 28.9743 122.19 29.8984C122.679 30.8036 123.348 31.5108 124.196 32.02ZM137.328 17.7091H141.086V19.859C141.858 18.1994 143.355 17.3696 145.578 17.3696C146.633 17.3696 147.584 17.6242 148.431 18.1334C149.279 18.6238 149.947 19.331 150.437 20.2551C150.927 21.1603 151.172 22.2164 151.172 23.4234V32.4191H147.358V24.3569C147.358 23.131 147.075 22.2164 146.51 21.6129C145.945 21.0094 145.173 20.7077 144.194 20.7077C143.327 20.7077 142.602 21.0188 142.018 21.6412C141.434 22.2447 141.142 23.1499 141.142 24.3569V32.4191H137.328V17.7091ZM157.121 32.4191V25.4319L163.025 32.4191H168.082L161.132 24.5549L168.054 17.7091H162.63L157.121 23.6497V11.7686H153.307V32.4191H157.121Z" fill="white"/>
</g>
<defs>
<clipPath id="clip0_7175_794">
<rect width="168" height="44" fill="white"/>
</clipPath>
</defs>
</svg>
