<svg width="161" height="44" viewBox="0 0 161 44" fill="none" xmlns="http://www.w3.org/2000/svg">
<g clip-path="url(#clip0_7020_40324)">
<path fill-rule="evenodd" clip-rule="evenodd" d="M18.2216 30.9086L14.4377 34.6926C14.1732 34.9572 13.7443 34.9572 13.4797 34.6926L0.212081 21.4245C-0.0524643 21.16 -0.0524648 20.731 0.212081 20.4665L13.4797 7.19841C13.7443 6.93386 14.1732 6.93386 14.4377 7.19841L18.2216 10.9824C18.4861 11.247 18.4861 11.6759 18.2216 11.9404L9.69584 20.4665C9.4313 20.731 9.43129 21.16 9.69584 21.4245L18.2216 29.9506C18.4861 30.2151 18.4861 30.644 18.2216 30.9086ZM26.2922 11.9406C26.0277 11.676 26.0277 11.2471 26.2922 10.9825L30.0761 7.19854C30.3406 6.93398 30.7696 6.93398 31.0341 7.19854L44.3017 20.4666C44.5663 20.7312 44.5663 21.1601 44.3017 21.4247L31.0341 34.6927C30.7696 34.9573 30.3406 34.9573 30.0761 34.6927L26.2922 30.9087C26.0277 30.6442 26.0277 30.2152 26.2922 29.9507L34.818 21.4247C35.0825 21.1601 35.0825 20.7312 34.818 20.4666L26.2922 11.9406ZM53.2194 29.6137H57.4081L58.7796 25.3979H65.4549L66.8238 29.6137H71.0125L64.6391 11.1255H59.6018L53.2194 29.6137ZM64.4642 22.3466L62.1927 15.3504H62.0482L59.7722 22.3466H64.4642ZM75.5623 34.5878C76.453 34.9309 77.5213 35.1024 78.7671 35.1024C80.0911 35.1024 81.2616 34.9008 82.2787 34.4976C83.3018 34.1004 84.1023 33.5045 84.68 32.7101C85.2578 31.9157 85.5467 30.9287 85.5467 29.7491V15.7476H81.7281V18.0767H81.5836C81.4091 17.7035 81.1593 17.3244 80.8343 16.9392C80.5154 16.548 80.0941 16.223 79.5705 15.9642C79.0469 15.6994 78.3969 15.567 77.6206 15.567C76.6035 15.567 75.6676 15.8288 74.813 16.3524C73.9645 16.876 73.2844 17.6644 72.7728 18.7176C72.2613 19.7708 72.0055 21.0828 72.0055 22.6536C72.0055 24.1882 72.2553 25.4581 72.7548 26.4631C73.2603 27.4622 73.9374 28.2054 74.786 28.6929C75.6405 29.1744 76.5884 29.4151 77.6296 29.4151C78.3638 29.4151 78.9958 29.3068 79.5254 29.0901C80.055 28.8735 80.4883 28.5936 80.8253 28.2506C81.1623 27.9075 81.4151 27.5434 81.5836 27.1583H81.7461V29.695C81.7461 30.6459 81.4723 31.3229 80.9246 31.7261C80.383 32.1354 79.6939 32.34 78.8573 32.34C78.2976 32.34 77.8222 32.2648 77.431 32.1143C77.0458 31.9699 76.7359 31.7773 76.5012 31.5366C76.2665 31.2958 76.0949 31.037 75.9866 30.7602L72.4298 31.2387C72.5863 31.9669 72.9263 32.6229 73.4499 33.2066C73.9735 33.7904 74.6776 34.2508 75.5623 34.5878ZM80.4191 26.0659C79.9918 26.3729 79.4682 26.5263 78.8483 26.5263C78.2164 26.5263 77.6838 26.3699 77.2504 26.0569C76.8231 25.7379 76.4951 25.2896 76.2665 24.7118C76.0438 24.128 75.9324 23.4359 75.9324 22.6355C75.9324 21.8471 76.0438 21.152 76.2665 20.5502C76.4891 19.9483 76.8171 19.4789 77.2504 19.1419C77.6838 18.7988 78.2164 18.6273 78.8483 18.6273C79.4682 18.6273 79.9948 18.7928 80.4281 19.1238C80.8614 19.4548 81.1924 19.9213 81.4211 20.5231C81.6498 21.1189 81.7642 21.823 81.7642 22.6355C81.7642 23.448 81.6468 24.1461 81.4121 24.7299C81.1834 25.3076 80.8524 25.753 80.4191 26.0659ZM91.243 29.0179C92.2721 29.5957 93.4998 29.8845 94.9262 29.8845C96.0696 29.8845 97.0777 29.71 97.9504 29.361C98.829 29.0059 99.5452 28.5124 100.099 27.8805C100.659 27.2425 101.029 26.4962 101.209 25.6416L97.6525 25.4069C97.5201 25.756 97.3275 26.0509 97.0747 26.2916C96.8219 26.5324 96.518 26.7129 96.1629 26.8333C95.8079 26.9536 95.4167 27.0138 94.9894 27.0138C94.3454 27.0138 93.7887 26.8784 93.3193 26.6076C92.8499 26.3368 92.4858 25.9516 92.227 25.4521C91.9742 24.9526 91.8478 24.3598 91.8478 23.6737V23.6646H101.291V22.6084C101.291 21.4288 101.125 20.3997 100.794 19.521C100.463 18.6364 99.9996 17.9021 99.4038 17.3183C98.814 16.7346 98.1219 16.2982 97.3275 16.0094C96.5391 15.7145 95.6875 15.567 94.7727 15.567C93.4126 15.567 92.227 15.8679 91.2159 16.4698C90.2108 17.0716 89.4315 17.9111 88.8778 18.9884C88.3241 20.0657 88.0473 21.3175 88.0473 22.7438C88.0473 24.2063 88.3241 25.4731 88.8778 26.5444C89.4315 27.6096 90.2199 28.4341 91.243 29.0179ZM91.8514 21.2814C91.8746 20.7835 92.0028 20.3291 92.236 19.9183C92.4888 19.4669 92.8378 19.1088 93.2832 18.844C93.7346 18.5732 94.2521 18.4378 94.8359 18.4378C95.3956 18.4378 95.8861 18.5611 96.3074 18.8079C96.7347 19.0486 97.0687 19.3826 97.3094 19.8099C97.5501 20.2372 97.6705 20.7277 97.6705 21.2814H91.8514ZM107.646 29.6137V21.5974C107.652 21.0015 107.763 20.493 107.98 20.0717C108.203 19.6444 108.509 19.3194 108.901 19.0968C109.298 18.8741 109.755 18.7627 110.273 18.7627C111.043 18.7627 111.648 19.0035 112.087 19.4849C112.527 19.9604 112.743 20.6224 112.737 21.471V29.6137H116.583V20.7849C116.583 19.7076 116.384 18.7808 115.987 18.0044C115.59 17.2221 115.033 16.6202 114.317 16.1989C113.601 15.7777 112.761 15.567 111.798 15.567C110.769 15.567 109.894 15.8047 109.171 16.2802C108.449 16.7496 107.935 17.3876 107.628 18.194H107.465V15.7476H103.8V29.6137H107.646ZM126.989 18.6364V15.7476H124.38V12.4255H120.535V15.7476H118.639V18.6364H120.535V25.8583C120.529 26.7671 120.718 27.5194 121.103 28.1152C121.489 28.711 122.027 29.1503 122.719 29.4332C123.418 29.716 124.23 29.8394 125.157 29.8033C125.656 29.7852 126.081 29.7341 126.43 29.6498C126.779 29.5716 127.05 29.5024 127.242 29.4422L126.637 26.5805C126.541 26.5986 126.403 26.6256 126.222 26.6617C126.041 26.6918 125.861 26.7069 125.68 26.7069C125.422 26.7069 125.193 26.6678 124.994 26.5895C124.802 26.5113 124.651 26.3759 124.543 26.1833C124.435 25.9847 124.38 25.7078 124.38 25.3528V18.6364H126.989ZM139.867 23.1862H136.545L138.914 26.3106C138.593 26.3762 138.255 26.409 137.899 26.409C136.954 26.409 136.13 26.1773 135.426 25.7139C134.721 25.2505 134.174 24.5704 133.783 23.6737C133.397 22.7769 133.205 21.6756 133.205 20.3696C133.205 19.0637 133.397 17.9623 133.783 17.0656C134.174 16.1689 134.721 15.4888 135.426 15.0254C136.13 14.562 136.954 14.3303 137.899 14.3303C138.844 14.3303 139.668 14.562 140.373 15.0254C141.077 15.4888 141.621 16.1689 142.007 17.0656C142.398 17.9623 142.593 19.0637 142.593 20.3696C142.593 21.6756 142.398 22.7769 142.007 23.6737C141.797 24.1621 141.54 24.5863 141.235 24.9462L139.867 23.1862ZM143.627 27.8086C144.333 27.1793 144.928 26.4149 145.41 25.5153C146.174 24.101 146.556 22.3858 146.556 20.3696C146.556 18.3535 146.174 16.6383 145.41 15.224C144.652 13.8097 143.616 12.7324 142.304 11.9922C140.998 11.2459 139.53 10.8728 137.899 10.8728C136.256 10.8728 134.782 11.2459 133.476 11.9922C132.17 12.7324 131.137 13.8097 130.379 15.224C129.621 16.6383 129.242 18.3535 129.242 20.3696C129.242 22.3797 129.621 24.0919 130.379 25.5062C131.137 26.9205 132.17 28.0008 133.476 28.7471C134.782 29.4934 136.256 29.8665 137.899 29.8665C139.062 29.8665 140.143 29.6782 141.141 29.3015L142.629 31.1303H146.277L143.627 27.8086ZM153.361 11.1255H149.452V29.6137H161.287V26.3909H153.361V11.1255Z" fill="white"/>
</g>
<defs>
<clipPath id="clip0_7020_40324">
<rect width="161" height="44" fill="white"/>
</clipPath>
</defs>
</svg>
