<svg width="164" height="44" viewBox="0 0 164 44" fill="none" xmlns="http://www.w3.org/2000/svg">
<g clip-path="url(#clip0_6175_1571)">
<path d="M73.6621 14.2874V9.60837H95.6939V14.2874H87.4811V36.4506H81.8749V14.2874H73.6621Z" fill="white"/>
<path d="M100.742 36.8307C99.4579 36.8307 98.3139 36.6079 97.3097 36.1623C96.3055 35.7079 95.5108 35.0395 94.9258 34.157C94.3494 33.2657 94.0613 32.156 94.0613 30.8279C94.0613 29.7095 94.2665 28.7702 94.6769 28.01C95.0873 27.2498 95.6462 26.6382 96.3535 26.1751C97.0608 25.712 97.8642 25.3625 98.7637 25.1265C99.6718 24.8906 100.624 24.7246 101.619 24.6285C102.789 24.5062 103.732 24.3926 104.448 24.2877C105.164 24.1741 105.684 24.0081 106.007 23.7897C106.33 23.5712 106.492 23.2479 106.492 22.8198V22.7412C106.492 21.9111 106.23 21.2688 105.706 20.8145C105.191 20.3601 104.457 20.1329 103.505 20.1329C102.501 20.1329 101.702 20.3558 101.108 20.8014C100.514 21.2383 100.122 21.7887 99.9294 22.4528L94.7686 22.0334C95.0306 20.8101 95.5458 19.7529 96.3142 18.8616C97.0827 17.9616 98.0738 17.2713 99.2876 16.7908C100.51 16.3015 101.925 16.0568 103.532 16.0568C104.649 16.0568 105.719 16.1879 106.741 16.45C107.771 16.7121 108.684 17.1184 109.478 17.6689C110.282 18.2194 110.915 18.9271 111.378 19.7922C111.84 20.6485 112.072 21.6752 112.072 22.8722V36.4506H106.78V33.6589H106.623C106.3 34.288 105.867 34.8429 105.326 35.3235C104.785 35.7953 104.134 36.1666 103.374 36.4375C102.615 36.6996 101.737 36.8307 100.742 36.8307ZM102.34 32.9774C103.16 32.9774 103.885 32.8157 104.514 32.4924C105.143 32.1604 105.636 31.7148 105.994 31.1556C106.352 30.5964 106.531 29.9629 106.531 29.2551V27.1187C106.356 27.2323 106.116 27.3372 105.811 27.4333C105.514 27.5207 105.178 27.6037 104.802 27.6823C104.427 27.7522 104.051 27.8178 103.676 27.8789C103.3 27.9314 102.96 27.9794 102.654 28.0231C101.999 28.1192 101.427 28.2721 100.938 28.4818C100.449 28.6915 100.069 28.9755 99.7984 29.3338C99.5277 29.6833 99.3924 30.1201 99.3924 30.6444C99.3924 31.4046 99.6675 31.9856 100.218 32.3876C100.776 32.7808 101.484 32.9774 102.34 32.9774Z" fill="white"/>
<path d="M114.925 36.4506V16.3189H120.505V36.4506H114.925ZM117.729 13.7238C116.899 13.7238 116.187 13.4486 115.593 12.8981C115.008 12.3389 114.716 11.6705 114.716 10.8928C114.716 10.1239 115.008 9.4642 115.593 8.91373C116.187 8.35451 116.899 8.07491 117.729 8.07491C118.558 8.07491 119.265 8.35451 119.851 8.91373C120.444 9.4642 120.741 10.1239 120.741 10.8928C120.741 11.6705 120.444 12.3389 119.851 12.8981C119.265 13.4486 118.558 13.7238 117.729 13.7238Z" fill="white"/>
<path d="M123.5 44V16.3189H129.001V19.7004H129.25C129.495 19.1587 129.848 18.6082 130.311 18.049C130.783 17.4811 131.394 17.0092 132.145 16.6335C132.905 16.249 133.848 16.0568 134.974 16.0568C136.441 16.0568 137.795 16.4413 139.035 17.2102C140.275 17.9704 141.266 19.1194 142.008 20.6572C142.75 22.1863 143.122 24.1042 143.122 26.411C143.122 28.6566 142.759 30.5527 142.034 32.0992C141.318 33.6371 140.34 34.8036 139.1 35.5987C137.869 36.3851 136.489 36.7783 134.961 36.7783C133.878 36.7783 132.957 36.5992 132.197 36.2409C131.446 35.8827 130.831 35.4327 130.35 34.8909C129.87 34.3405 129.503 33.7856 129.25 33.2264H129.08V44H123.5ZM128.962 26.3848C128.962 27.5818 129.128 28.626 129.46 29.5172C129.792 30.4085 130.272 31.1031 130.901 31.6012C131.529 32.0905 132.293 32.3352 133.193 32.3352C134.101 32.3352 134.869 32.0861 135.498 31.5881C136.127 31.0813 136.603 30.3823 136.926 29.491C137.258 28.591 137.424 27.5556 137.424 26.3848C137.424 25.2227 137.262 24.2003 136.939 23.3178C136.616 22.4353 136.14 21.7451 135.511 21.247C134.883 20.749 134.11 20.4999 133.193 20.4999C132.285 20.4999 131.516 20.7402 130.887 21.2208C130.267 21.7014 129.792 22.3829 129.46 23.2654C129.128 24.1479 128.962 25.1877 128.962 26.3848Z" fill="white"/>
<path d="M148.163 44C147.455 44 146.792 43.9432 146.172 43.8296C145.56 43.7248 145.054 43.5893 144.652 43.4233L145.91 39.2554C146.565 39.4564 147.154 39.5656 147.678 39.5831C148.211 39.6006 148.669 39.4782 149.053 39.2161C149.446 38.954 149.765 38.5083 150.01 37.8792L150.337 37.0273L143.12 16.3189H148.988L153.153 31.1031H153.363L157.567 16.3189H163.475L155.655 38.6263C155.28 39.7098 154.769 40.6535 154.122 41.4573C153.485 42.2699 152.677 42.8947 151.699 43.3316C150.721 43.7772 149.542 44 148.163 44Z" fill="white"/>
<path d="M3.18148 1.65577C3.52282 0.664347 4.447 0 5.48484 0H58.7645C59.6038 0 60.1922 0.837582 59.9162 1.63931L56.8035 10.6802C56.4622 11.6716 55.538 12.336 54.5002 12.336H1.22052C0.381249 12.336 -0.207184 11.4984 0.0688379 10.6966L3.18148 1.65577Z" fill="white"/>
<path d="M15.7877 17.0646C16.129 16.079 17.0414 15.4201 18.065 15.4201H39.0612C39.8949 15.4201 40.4778 16.2624 40.1998 17.0651L37.0669 26.1116C36.7255 27.0972 35.8131 27.7561 34.7896 27.7561H13.7934C12.9597 27.7561 12.3767 26.9139 12.6547 26.1111L15.7877 17.0646Z" fill="white"/>
<path d="M22.7949 32.4788C23.133 31.4962 24.0313 30.8401 25.0383 30.8401H33.7994C34.6226 30.8401 35.1975 31.6846 34.9211 32.4879L31.8069 41.5373C31.4687 42.5199 30.5705 43.176 29.5634 43.176H20.8024C19.9791 43.176 19.4042 42.3315 19.6806 41.5282L22.7949 32.4788Z" fill="white"/>
</g>
<defs>
<clipPath id="clip0_6175_1571">
<rect width="164" height="44" fill="white"/>
</clipPath>
</defs>
</svg>
