<svg width="151" height="44" viewBox="0 0 151 44" fill="none" xmlns="http://www.w3.org/2000/svg">
<path fill-rule="evenodd" clip-rule="evenodd" d="M16.1263 2.49983C17.0036 2.49983 17.9275 2.52783 18.1701 2.58382C18.4221 2.63049 19.0567 2.76114 19.598 2.87313C20.1393 2.98512 20.9978 3.21843 21.5111 3.39574C22.0244 3.57306 22.883 3.94635 23.4243 4.21699C23.9655 4.48763 24.7868 4.96358 25.2441 5.27155C25.7014 5.57952 26.4386 6.14879 26.8772 6.52209C27.3159 6.90471 27.9785 7.56731 28.3518 7.9966C28.7251 8.43522 29.2943 9.16315 29.6023 9.62977C29.9103 10.0964 30.3862 10.9083 30.6569 11.4496C30.9275 11.9909 31.3008 12.8494 31.4781 13.3627C31.6554 13.876 31.8887 14.6972 31.9914 15.1825C32.094 15.6678 32.2247 16.4797 32.2807 16.9743C32.3367 17.4783 32.3833 18.2436 32.3833 18.6822C32.3833 19.1208 32.3367 19.886 32.2807 20.3807C32.2247 20.8846 32.094 21.6965 31.9914 22.1818C31.8887 22.6671 31.6554 23.4883 31.4781 24.0016C31.3008 24.5149 30.9275 25.3735 30.6569 25.9148C30.3862 26.456 29.9103 27.2773 29.6023 27.7346C29.2943 28.1919 28.7251 28.9291 28.3518 29.3677C27.9691 29.8064 27.3065 30.469 26.8772 30.8423C26.4386 31.2156 25.7014 31.7848 25.2441 32.0928C24.7868 32.4008 23.9655 32.8767 23.4243 33.1474C22.883 33.418 22.0244 33.7913 21.5111 33.9686C20.9978 34.1459 20.1766 34.3792 19.6913 34.4819C19.206 34.5845 18.3941 34.7152 17.8902 34.7712C17.3956 34.8272 16.6303 34.8738 16.1917 34.8738C15.7531 34.8738 14.9878 34.8272 14.4838 34.7712C13.9892 34.7152 13.1773 34.5845 12.692 34.4819C12.2067 34.3792 11.3855 34.1459 10.8722 33.9686C10.3589 33.7913 9.50036 33.418 8.95908 33.1474C8.4178 32.8767 7.59655 32.4008 7.13927 32.0928C6.67265 31.7848 5.94472 31.2156 5.5061 30.8423C5.07681 30.469 4.41421 29.8064 4.03159 29.3677C3.65829 28.9291 3.08902 28.1919 2.78105 27.7346C2.47308 27.2773 1.99713 26.456 1.72649 25.9148C1.45585 25.3735 1.08256 24.5149 0.905241 24.0016C0.727925 23.4883 0.494616 22.6671 0.39196 22.1818C0.289304 21.6965 0.15865 20.8846 0.102656 20.3807C0.0466619 19.886 0 19.1208 0 18.6822C0 18.2436 0.0466619 17.4783 0.102656 16.9743C0.15865 16.4797 0.289304 15.6678 0.39196 15.1825C0.494616 14.6972 0.727925 13.876 0.905241 13.3627C1.08256 12.8494 1.45585 11.9909 1.72649 11.4496C1.99713 10.9083 2.47308 10.0964 2.78105 9.62977C3.08902 9.16315 3.65829 8.43522 4.03159 7.9966C4.41421 7.55798 5.07681 6.89538 5.5061 6.52209C5.94472 6.14879 6.67265 5.57952 7.13927 5.27155C7.59655 4.96358 8.4178 4.48763 8.95908 4.21699C9.50036 3.94635 10.3589 3.57306 10.8722 3.39574C11.3855 3.21843 12.2254 2.98512 12.7387 2.88246C13.252 2.7798 13.8586 2.64915 14.0919 2.60249C14.3252 2.55583 15.2398 2.50916 16.117 2.49983H16.1263ZM12.4214 6.78339C11.9361 6.93271 11.1802 7.23135 10.7416 7.44599C10.3029 7.6513 9.56569 8.08993 9.1084 8.39789C8.64178 8.7152 7.86719 9.37779 7.38191 9.86308C6.89663 10.3577 6.35535 10.955 6.18737 11.1976L5.88873 11.6362C7.21393 12.6908 7.95118 13.1574 8.64178 13.5027C9.31371 13.8387 10.135 14.1653 10.6949 14.3146C11.5442 14.5386 11.7775 14.5666 13.308 14.5666C14.8385 14.5666 15.0718 14.5386 15.921 14.3146C16.4343 14.1746 17.2369 13.876 17.6942 13.6614C18.1515 13.4374 18.8047 13.0734 19.1407 12.8494C19.4767 12.6161 20.0926 12.1215 20.5219 11.7296L21.2965 11.0296L23.8536 13.5867C22.7617 14.7906 22.2671 15.4065 22.0337 15.7425C21.8098 16.0784 21.4458 16.7317 21.2218 17.189C21.0072 17.6463 20.7085 18.4489 20.5686 18.9621C20.3446 19.8114 20.3166 20.0447 20.3166 21.5752C20.3166 23.1057 20.3446 23.339 20.5686 24.1883C20.7179 24.7482 21.0445 25.5695 21.3805 26.2414C21.7258 26.932 22.1924 27.6692 22.5937 28.1825L23.247 28.9944C23.9282 28.5278 24.5255 27.9866 25.0201 27.5013C25.5054 27.016 26.168 26.2321 26.476 25.7748C26.7933 25.3175 27.2039 24.6176 27.3999 24.2349C27.5958 23.8523 27.8851 23.1151 28.0531 22.6018C28.2304 22.0885 28.4358 21.2672 28.5104 20.782C28.5944 20.2873 28.6597 19.3541 28.6597 18.6822C28.6597 18.0102 28.5944 17.077 28.5104 16.5824C28.4358 16.0971 28.2304 15.2759 28.0531 14.7626C27.8851 14.2493 27.5958 13.512 27.3999 13.1294C27.2039 12.7468 26.8679 12.1588 26.6439 11.8229C26.4293 11.4869 25.9813 10.899 25.6547 10.5163C25.3281 10.1337 24.7681 9.56444 24.4042 9.2658C24.0495 8.96717 23.4616 8.51921 23.107 8.27657C22.743 8.03393 22.1364 7.6793 21.7538 7.48332C21.3711 7.28734 20.6339 6.99804 20.1206 6.83006C19.6073 6.65274 18.7861 6.44743 18.3008 6.37277C17.7595 6.27944 16.9103 6.22345 16.1077 6.23278C15.3891 6.23278 14.4652 6.29811 14.0546 6.37277C13.6439 6.44743 12.9067 6.62474 12.4214 6.78339ZM3.87294 16.629C3.79828 17.0397 3.74228 17.9636 3.74228 18.6822C3.74228 19.4381 3.80761 20.3433 3.8916 20.8286C3.96626 21.2859 4.17157 22.0885 4.33956 22.6018C4.51687 23.1151 4.80617 23.8523 5.00215 24.2349C5.19813 24.6176 5.52477 25.1962 5.73941 25.5228C5.95406 25.8401 6.1407 26.1014 6.1687 26.1014C6.1967 26.1014 7.95119 24.3656 10.0696 22.2565L13.9146 18.4022C12.2161 18.2902 11.3668 18.1969 10.9282 18.1222C10.4896 18.0476 9.771 17.8796 9.31371 17.7489C8.86576 17.6183 8.10984 17.3476 7.63388 17.1423C7.16727 16.937 6.47667 16.5917 6.12204 16.3771C5.75808 16.1624 5.20747 15.7798 4.88083 15.5372C4.56353 15.2945 4.28356 15.0892 4.25556 15.0892C4.2369 15.0892 4.17157 15.2665 4.10625 15.4905C4.05025 15.7051 3.9476 16.2184 3.87294 16.629ZM12.5894 24.8415C10.3683 27.072 8.77243 28.7518 8.82843 28.7891C8.88442 28.8265 9.16439 29.0131 9.46303 29.2091C9.75233 29.3957 10.3029 29.7037 10.6669 29.8904C11.0402 30.077 11.7681 30.3663 12.2814 30.5436C12.7947 30.7116 13.5879 30.9169 14.0546 30.9916C14.5398 31.0756 15.4451 31.1409 16.201 31.1409C16.9196 31.1409 17.8435 31.0849 18.2541 31.0102C18.6648 30.9356 19.178 30.8329 19.3927 30.7769C19.6167 30.7209 19.794 30.6556 19.794 30.6276C19.794 30.5996 19.5887 30.3196 19.346 30.0023C19.1034 29.6757 18.7207 29.1251 18.5061 28.7611C18.2915 28.3972 17.9462 27.7159 17.7408 27.2493C17.5355 26.7733 17.2649 26.0174 17.1342 25.5695C17.0036 25.1122 16.8356 24.3656 16.761 23.9083C16.677 23.451 16.5836 22.5924 16.537 22.0138L16.453 20.9593L12.5894 24.8415ZM133.826 11.0763L134.302 12.3175C134.564 12.9988 135.851 16.3211 137.177 19.6994C138.492 23.0871 139.612 25.8681 139.659 25.8868C139.715 25.8961 141.012 22.5738 145.352 11.0856L150.065 11.0763L149.85 11.6642C149.729 11.9815 147.097 18.7942 143.999 26.8013C140.91 34.8085 138.334 41.3972 138.278 41.4345C138.222 41.4718 137.261 41.4998 136.141 41.4998C134.601 41.4998 134.097 41.4718 134.06 41.3878C134.041 41.3225 134.788 39.1667 137.429 31.9341L136.85 30.5343C136.542 29.769 134.638 25.0935 132.632 20.1567C130.625 15.2105 128.973 11.1509 128.973 11.1229C128.973 11.1043 130.065 11.0763 133.826 11.0763ZM51.4961 3.52639C52.8213 3.51706 53.4465 3.56372 54.2958 3.71304C54.9024 3.8157 55.8356 4.04901 56.3676 4.22632C56.9088 4.41297 57.6834 4.73027 58.094 4.94491C58.5047 5.15956 59.1766 5.58885 59.5872 5.89682C59.9978 6.19545 60.6138 6.7274 60.9497 7.06336C61.2857 7.39933 61.8083 8.00593 62.1163 8.41656C62.4243 8.82718 62.8909 9.58311 63.1522 10.0964C63.4135 10.6097 63.7495 11.3376 63.8988 11.7109C64.0481 12.0749 64.1414 12.4015 64.1134 12.4201C64.0948 12.4388 63.0495 12.7374 61.8083 13.0734C60.5671 13.4094 59.5032 13.6894 59.4472 13.6894C59.4006 13.6894 59.3539 13.6427 59.3539 13.5774C59.3539 13.512 59.2139 13.1201 59.0459 12.7095C58.878 12.2988 58.542 11.6642 58.2994 11.2909C58.0661 10.9176 57.6274 10.367 57.3288 10.0777C57.0302 9.77909 56.5822 9.39646 56.3209 9.21914C56.0689 9.04183 55.6023 8.78052 55.2943 8.64054C54.9864 8.49122 54.3984 8.28591 53.9878 8.17392C53.3625 8.00593 52.9799 7.9686 51.608 7.95927C50.3575 7.95927 49.8256 7.9966 49.3216 8.11792C48.967 8.21125 48.4444 8.3699 48.1551 8.48188C47.8751 8.59387 47.3898 8.83652 47.0818 9.01383C46.7739 9.19115 46.1673 9.69509 45.7286 10.1337C45.206 10.6657 44.7954 11.1883 44.5248 11.6829C44.2915 12.0935 43.9648 12.8308 43.8062 13.3161C43.6382 13.8107 43.4422 14.5293 43.3582 14.9306C43.2836 15.3225 43.1716 16.1904 43.1156 16.8437C43.0316 17.7209 43.0409 18.3742 43.1156 19.3354C43.1716 20.054 43.3022 21.0059 43.3956 21.4352C43.4889 21.8738 43.7035 22.5924 43.8622 23.0217C44.0208 23.4603 44.2821 24.0483 44.4408 24.3283C44.5994 24.6176 44.9074 25.0749 45.1314 25.3548C45.346 25.6441 45.71 26.0361 45.934 26.2507C46.1579 26.456 46.5499 26.764 46.8019 26.9413C47.0632 27.1186 47.5391 27.3799 47.8564 27.5199C48.1737 27.6693 48.8083 27.8746 49.2563 27.9866C49.9189 28.1545 50.3482 28.1919 51.5147 28.1919C52.4946 28.1919 53.1759 28.1452 53.6145 28.0425C53.9785 27.9679 54.5664 27.7812 54.921 27.6413C55.285 27.5013 55.8076 27.2306 56.0876 27.0533C56.3769 26.876 56.8528 26.4934 57.1515 26.2041C57.4501 25.9148 57.8794 25.4295 58.1034 25.1215C58.3274 24.8135 58.6727 24.2069 58.878 23.7683C59.0833 23.339 59.2793 22.8631 59.3073 22.7231C59.3353 22.5831 59.4192 22.4618 59.4939 22.4618C59.5779 22.4618 60.6325 22.7418 61.855 23.0777C63.0775 23.4137 64.0854 23.703 64.0948 23.7123C64.1134 23.7123 64.0108 24.039 63.8708 24.4216C63.7401 24.8135 63.4788 25.4201 63.3015 25.7748C63.1242 26.1387 62.7416 26.792 62.4616 27.2213C62.1723 27.6599 61.5564 28.4158 61.0804 28.9011C60.6045 29.3957 59.8859 30.0303 59.4846 30.3196C59.0833 30.6089 58.374 31.0382 57.9074 31.2715C57.4501 31.5049 56.7595 31.7942 56.3676 31.9248C55.9849 32.0555 55.229 32.2514 54.6877 32.3728C53.8478 32.5501 53.4279 32.5781 51.608 32.5874C49.9655 32.5874 49.3216 32.5501 48.6217 32.4194C48.1364 32.3261 47.2965 32.1115 46.7552 31.9248C46.2233 31.7475 45.4113 31.4022 44.9541 31.1596C44.4968 30.9169 43.7875 30.469 43.3676 30.1517C42.9476 29.8344 42.2757 29.2278 41.8744 28.7985C41.4637 28.3692 40.9131 27.6786 40.6425 27.268C40.3719 26.8573 39.9892 26.1854 39.7839 25.7748C39.5786 25.3642 39.2706 24.6549 39.112 24.1883C38.944 23.731 38.7294 22.9937 38.6267 22.5551C38.5241 22.1258 38.3747 21.3232 38.3094 20.782C38.2347 20.2407 38.1788 19.0088 38.1788 18.0289C38.1788 17.0023 38.2347 15.8638 38.3094 15.3225C38.3841 14.8092 38.5054 14.1 38.5894 13.736C38.6734 13.3814 38.8694 12.6908 39.028 12.1962C39.1867 11.7109 39.5133 10.9176 39.7559 10.423C39.9986 9.93774 40.4185 9.20048 40.6985 8.78985C40.9691 8.37923 41.5197 7.71663 41.9024 7.31534C42.2943 6.90471 42.8543 6.37277 43.1622 6.13013C43.4702 5.88748 44.0582 5.48619 44.4688 5.24355C44.8794 5.00091 45.5513 4.66494 45.962 4.49696C46.3726 4.32898 47.0258 4.105 47.4085 3.99301C47.8004 3.89036 48.491 3.74104 48.9483 3.66638C49.4243 3.59172 50.5348 3.53573 51.4961 3.52639ZM67.4731 3.51706H72.1393V32.0741H67.4731V3.51706ZM122.067 3.51706H126.734V32.0741H122.067V3.51706ZM108.844 10.5257C109.889 10.5163 110.449 10.563 111.177 10.7123C111.699 10.815 112.446 11.0296 112.828 11.1883C113.22 11.3376 113.846 11.6549 114.228 11.8975C114.639 12.1402 115.292 12.6908 115.768 13.1761C116.309 13.7173 116.767 14.296 117.047 14.7719C117.289 15.1732 117.588 15.7705 117.719 16.0971C117.859 16.4144 118.073 17.049 118.204 17.497C118.335 17.9449 118.503 18.7848 118.577 19.3634C118.652 19.942 118.708 20.9406 118.708 21.5752C118.708 22.4151 118.68 22.7604 118.596 22.8164C118.531 22.8537 115.096 22.8724 103.449 22.8257L103.524 23.3857C103.561 23.703 103.711 24.3003 103.851 24.7296C103.991 25.1495 104.261 25.7374 104.457 26.0361C104.653 26.3254 104.989 26.7453 105.213 26.9693C105.447 27.184 105.829 27.4733 106.081 27.6133C106.333 27.7532 106.865 27.9586 107.276 28.0612C107.761 28.1825 108.321 28.2479 108.862 28.2479C109.413 28.2479 109.973 28.1825 110.449 28.0612C110.859 27.9586 111.391 27.7626 111.615 27.6413C111.849 27.5106 112.231 27.2493 112.455 27.0533C112.688 26.8573 113.09 26.3814 113.342 26.0081C113.594 25.6255 113.799 25.2988 113.808 25.2895C113.808 25.2802 114.564 25.5041 115.488 25.7841C116.412 26.0641 117.457 26.3814 118.428 26.6614L118.073 27.3893C117.868 27.7812 117.513 28.3692 117.28 28.6958C117.037 29.0131 116.627 29.4984 116.356 29.769C116.085 30.0397 115.591 30.4503 115.255 30.6929C114.928 30.9263 114.378 31.2715 114.042 31.4489C113.715 31.6355 113.062 31.9155 112.595 32.0741C112.138 32.2328 111.401 32.4288 110.962 32.5034C110.533 32.5781 109.665 32.6341 109.049 32.6341C108.433 32.6341 107.537 32.5687 107.042 32.4941C106.557 32.4101 105.792 32.2235 105.344 32.0741C104.896 31.9248 104.308 31.6822 104.037 31.5515C103.767 31.4115 103.253 31.1036 102.889 30.8609C102.535 30.6183 101.994 30.189 101.695 29.9184C101.387 29.6384 100.892 29.0784 100.584 28.6678C100.276 28.2572 99.8191 27.5013 99.5671 26.988C99.3152 26.4747 99.0258 25.7841 98.9325 25.4481C98.8299 25.1215 98.6805 24.4682 98.6059 24.0016C98.5126 23.4883 98.4566 22.6111 98.4566 21.7152C98.4659 20.9033 98.5219 19.9047 98.5966 19.4288C98.6712 18.9715 98.8392 18.2156 98.9792 17.7489C99.1098 17.2916 99.3805 16.5731 99.5858 16.1624C99.7818 15.7518 100.127 15.1452 100.342 14.8092C100.566 14.4826 101.042 13.8947 101.415 13.5027C101.779 13.1201 102.386 12.5881 102.768 12.3268C103.141 12.0655 103.72 11.7202 104.037 11.5616C104.355 11.3936 104.924 11.1603 105.297 11.039C105.671 10.9083 106.305 10.7497 106.716 10.675C107.136 10.6003 108.078 10.535 108.844 10.5257ZM106.902 14.9026C106.594 15.0145 106.174 15.2012 105.969 15.3132C105.764 15.4345 105.391 15.7425 105.129 15.9944C104.877 16.2558 104.513 16.7504 104.327 17.105C104.14 17.4596 103.897 18.0476 103.785 18.4022C103.683 18.7662 103.589 19.1115 103.589 19.1768C103.589 19.2701 104.681 19.2888 108.722 19.2888C113.556 19.2888 113.855 19.2794 113.855 19.1301C113.855 19.0368 113.771 18.6168 113.668 18.1969C113.566 17.7676 113.36 17.1703 113.202 16.8624C113.052 16.5544 112.744 16.1064 112.53 15.8731C112.315 15.6398 111.961 15.3412 111.755 15.2292C111.55 15.1079 111.195 14.9399 110.962 14.8559C110.738 14.7719 110.206 14.6786 109.795 14.6413C109.385 14.6039 108.694 14.6039 108.256 14.6413C107.826 14.6786 107.21 14.7906 106.902 14.9026ZM76.2362 11.0763H80.921L80.9584 16.8904C80.977 21.6312 81.0144 22.8631 81.1357 23.5817C81.2104 24.0763 81.3597 24.7016 81.4623 24.9815C81.5556 25.2708 81.7423 25.7095 81.8729 25.9614C82.0036 26.2227 82.3116 26.6614 82.5729 26.9413C82.8248 27.2306 83.2448 27.5666 83.4968 27.7066C83.7394 27.8466 84.2247 28.0239 84.5513 28.1079C84.8873 28.1825 85.4566 28.2479 85.8112 28.2479C86.1752 28.2479 86.8004 28.1639 87.2111 28.0612C87.6217 27.9586 88.1536 27.7626 88.3776 27.6226C88.6109 27.4826 88.9935 27.184 89.2175 26.9413C89.4508 26.708 89.7775 26.2601 89.9361 25.9614C90.0948 25.6535 90.3001 25.1775 90.3747 24.8882C90.4587 24.6082 90.5894 23.8336 90.664 23.1617C90.776 22.2191 90.804 20.7633 90.804 11.0763H95.4702V32.0741H91.364L91.3733 31.0289C91.3733 30.4503 91.3546 29.9557 91.3266 29.9277C91.2986 29.909 91.0373 30.105 90.7387 30.385C90.4401 30.6556 89.9081 31.0756 89.5442 31.3089C89.1895 31.5515 88.5363 31.8782 88.0976 32.0461C87.6684 32.2048 86.9311 32.4101 86.4645 32.5034C85.8112 32.6247 85.2979 32.6434 84.0847 32.6061C82.8902 32.5688 82.3956 32.5128 81.8449 32.3634C81.4623 32.2514 80.8184 31.9808 80.4078 31.7662C79.8758 31.4955 79.4372 31.1596 78.9053 30.6276C78.4106 30.1517 77.9907 29.6197 77.7107 29.1344C77.4681 28.7238 77.1508 28.0519 77.0014 27.6413C76.8521 27.2306 76.6375 26.4747 76.5255 25.9614C76.3108 25.0469 76.3108 24.9162 76.2735 18.0569L76.2362 11.0763Z" fill="white" style="fill:white;fill-opacity:1;"/>
</svg>
