<svg width="592" height="480" viewBox="0 0 592 480" fill="none" xmlns="http://www.w3.org/2000/svg">
<rect x="1" y="1" width="590" height="478" rx="19" fill="white" stroke="white" stroke-width="2"/>
<rect x="176" y="364" width="240" height="8" rx="4" fill="#CCCCCC"/>
<rect x="28" y="392" width="164" height="48" rx="24" fill="#CCCCCC"/>
<circle cx="52" cy="416" r="16" fill="white"/>
<rect x="78" y="412" width="90" height="8" rx="4" fill="white"/>
<rect x="214" y="392" width="164" height="48" rx="24" fill="#CCCCCC"/>
<circle cx="238" cy="416" r="16" fill="white"/>
<rect x="264" y="412" width="90" height="8" rx="4" fill="white"/>
<rect x="400" y="392" width="164" height="48" rx="24" fill="#CCCCCC"/>
<circle cx="424" cy="416" r="16" fill="white"/>
<rect x="450" y="412" width="90" height="8" rx="4" fill="white"/>
<rect x="28" y="172" width="248" height="8" rx="4" fill="black"/>
<rect x="28" y="190" width="194" height="8" rx="4" fill="black"/>
<rect x="28" y="208" width="144" height="8" rx="4" fill="black"/>
<rect x="28" y="82" width="220" height="28" rx="14" fill="black"/>
<rect x="28" y="124" width="150" height="28" rx="14" fill="black"/>
<rect x="28" y="248" width="192" height="56" rx="28" fill="#2B4BEE"/>
<rect x="68" y="268" width="112" height="16" rx="8" fill="white"/>
<rect x="304" y="44" width="260" height="260" rx="10" fill="black"/>
<mask id="mask0_1148_94829" style="mask-type:alpha" maskUnits="userSpaceOnUse" x="304" y="44" width="260" height="260">
<rect x="304" y="44" width="260" height="260" rx="10" fill="white"/>
</mask>
<g mask="url(#mask0_1148_94829)">
<path d="M243 105C280.61 238.038 608 -81 434 164C260 408.999 497.214 163.482 595 207.166" stroke="white" stroke-width="6"/>
<path d="M162 213.489C199.61 346.527 474 40.4894 300 285.489C126 530.489 363.214 284.971 461 328.656" stroke="white" stroke-width="6"/>
<path d="M420 -28.511C457.61 104.527 732 -201.511 558 43.489C384 288.489 621.214 42.971 719 86.6556" stroke="white" stroke-width="6"/>
<rect x="444" y="184" width="100" height="100" fill="#2B4BEE"/>
<rect x="472" y="213" width="42" height="42" rx="21" fill="white"/>
<circle cx="374" cy="114" r="50" fill="#EE2B6C"/>
<rect x="356" y="96" width="36" height="36" fill="white"/>
</g>
<circle cx="25" cy="25" r="5" fill="black"/>
<circle cx="43" cy="25" r="5" fill="black"/>
<circle cx="61" cy="25" r="5" fill="black"/>
</svg>
