<svg width="130" height="44" viewBox="0 0 130 44" fill="none" xmlns="http://www.w3.org/2000/svg">
<path d="M41.0667 29.3333C42.6867 29.3333 44 30.6466 44 32.2667V41.0667C44 42.6867 42.6867 44 41.0667 44L32.2667 44C30.6466 44 29.3333 42.6867 29.3333 41.0667V32.2667C29.3333 30.6466 30.6466 29.3333 32.2667 29.3333H41.0667Z" fill="white"/>
<path d="M11.7333 1.2822e-07C13.3534 5.74061e-08 14.6667 1.3133 14.6667 2.93333V11.7333C14.6667 13.3534 13.3534 14.6667 11.7333 14.6667H2.93333C1.3133 14.6667 8.98407e-07 13.3534 8.27593e-07 11.7333L4.42933e-07 2.93333C3.72119e-07 1.3133 1.3133 5.83694e-07 2.93333 5.1288e-07L11.7333 1.2822e-07Z" fill="white"/>
<path d="M43.1408 15.5258C43.691 14.9757 44 14.2296 44 13.4516V2.93333C44 1.3133 42.6867 -7.0814e-08 41.0667 0L32.2667 3.8466e-07C30.6466 4.55474e-07 29.3333 1.3133 29.3333 2.93333V11.7333C29.3333 13.3534 28.02 14.6667 26.4 14.6667H15.8817C15.1037 14.6667 14.3576 14.9757 13.8075 15.5258L0.859154 28.4742C0.309047 29.0243 -5.06995e-08 29.7704 0 30.5484L6.85468e-07 41.0667C7.91045e-07 42.6867 1.3133 44 2.93333 44L11.7333 44C13.3534 44 14.6667 42.6867 14.6667 41.0667L14.6667 32.2667C14.6667 30.6466 15.98 29.3333 17.6 29.3333H28.1183C28.8963 29.3333 29.6424 29.0243 30.1925 28.4742L43.1408 15.5258Z" fill="white"/>
<path d="M57.2367 37.6666V7.96663H63.8733V20.9833C64.3867 20.1033 65.1078 19.4189 66.0367 18.93C66.99 18.4166 68.0778 18.16 69.3 18.16C71.4267 18.16 73.04 18.8444 74.14 20.2133C75.2644 21.5577 75.8267 23.5377 75.8267 26.1533V37.6666H69.19V27.4C69.19 25.1755 68.3467 24.0633 66.66 24.0633C65.7556 24.0633 65.0589 24.3811 64.57 25.0166C64.1056 25.6277 63.8733 26.5077 63.8733 27.6566V37.6666H57.2367ZM87.67 38.2533C84.6633 38.2533 82.3778 37.4955 80.8133 35.98C79.2733 34.4644 78.5033 32.2522 78.5033 29.3433V18.7466H85.1767V29.1233C85.1767 31.2744 86.02 32.35 87.7067 32.35C88.5622 32.35 89.1856 32.0933 89.5767 31.58C89.9678 31.0666 90.1633 30.2477 90.1633 29.1233V18.7466H96.8367V29.3433C96.8367 32.2522 96.0544 34.4644 94.49 35.98C92.95 37.4955 90.6767 38.2533 87.67 38.2533ZM99.6712 37.6666V7.96663H106.308V37.6666H99.6712ZM110.588 46.65L115.318 36.64L107.545 18.7466H114.841L118.691 29.8566L122.248 18.7466H129.361L117.261 46.65H110.588Z" fill="white"/>
</svg>
