<svg width="160" height="44" viewBox="0 0 160 44" fill="none" xmlns="http://www.w3.org/2000/svg">
<g clip-path="url(#clip0_1_10)">
<path d="M29.561 35.4785C27.094 40.8705 21.6629 44.6243 15.3422 44.6243C4.78982 44.4649 1.12313 35.5166 1.10753 35.4785H29.561Z" fill="#FFFEFE" style="fill:#FFFEFE;fill:color(display-p3 1.0000 0.9951 0.9951);fill-opacity:1;"/>
<path d="M15.3422 13.3746C23.9812 13.3747 30.9842 20.3739 30.9839 29.0061C30.9824 30.6723 30.7139 32.3276 30.1879 33.9087H0.56584C0.372121 33.3042 0.242859 32.7566 0.242859 32.7566H21.9436C23.33 32.7566 24.4748 32.0473 25.0069 30.8582C25.585 29.5642 25.3402 28.2133 24.49 27.0384C23.5702 25.7681 22.0273 23.985 20.9588 23.1772C18.9902 21.6879 16.4883 21.4693 14.4528 21.4014L13.8685 21.3798C12.9247 21.3404 12.745 21.3188 7.91366 21.3188V21.3207C7.91366 21.3207 3.82565 21.3233 1.72679 21.3277C4.41244 16.5837 9.49794 13.3746 15.3422 13.3746Z" fill="#FFFEFE" style="fill:#FFFEFE;fill:color(display-p3 1.0000 0.9951 0.9951);fill-opacity:1;"/>
<path d="M23.6577 29.9058C23.4787 30.5985 22.9277 31.157 21.9436 31.157H-0.132893C-0.189817 30.7456 -0.229302 30.3284 -0.254329 29.9058H23.6577Z" fill="#FFFEFE" style="fill:#FFFEFE;fill:color(display-p3 1.0000 0.9951 0.9951);fill-opacity:1;"/>
<path d="M7.90921 22.8879C12.0531 22.8879 12.7594 22.9049 13.8004 22.9477C16.9231 23.0809 19.1064 22.6261 23.1643 27.8687C23.2767 28.0116 23.3879 28.1582 23.4708 28.3201H-0.266409C-0.244152 27.7936 -0.195878 27.2682 -0.121449 26.7465H12.3559V25.1621H0.191995C0.334733 24.5152 0.628116 23.7198 0.932055 22.8994C3.28007 22.8931 5.69129 22.8879 7.90921 22.8879Z" fill="#FFFEFE" style="fill:#FFFEFE;fill:color(display-p3 1.0000 0.9951 0.9951);fill-opacity:1;"/>
<path d="M134.828 31.1125C135.023 31.6877 135.213 32.2628 135.398 32.838C135.584 33.4035 135.764 33.9689 135.939 34.5343C136.29 33.4035 136.661 32.2628 137.051 31.1125L139.873 23.0698H143.734L136.831 41.0562C135.915 43.4349 134.355 44.6243 132.152 44.6243H129.739V41.6265H131.567C132.064 41.6265 132.449 41.4901 132.722 41.2171C133.005 40.9539 133.254 40.5201 133.468 39.9156L134.038 38.4241L128.087 23.0698H131.991L134.828 31.1125Z" fill="#FFFEFE" style="fill:#FFFEFE;fill:color(display-p3 1.0000 0.9951 0.9951);fill-opacity:1;"/>
<path fill-rule="evenodd" clip-rule="evenodd" d="M66.7134 22.7627C68.7216 22.7627 70.2912 23.2306 71.4221 24.1665C72.5529 25.1024 73.1183 26.3746 73.1183 27.9831V38.5118H69.4918V36.333H69.4333C69.0629 37.0154 68.5267 37.5906 67.8248 38.0585C67.1228 38.5264 66.1431 38.7604 64.8855 38.7604C63.3452 38.7604 62.0681 38.3753 61.0542 37.6052C60.0501 36.8253 59.5481 35.6652 59.5481 34.1249C59.5481 32.955 59.8308 32.0533 60.3962 31.4196C60.9714 30.7762 61.7172 30.3082 62.6335 30.0158C63.5597 29.7233 64.554 29.5234 65.6167 29.4162C67.0497 29.2505 68.049 29.1042 68.6144 28.9775C69.1798 28.8508 69.4626 28.5242 69.4626 27.9978V27.8808C69.4626 27.2179 69.2091 26.6768 68.7022 26.2576C68.205 25.8384 67.5177 25.6288 66.6403 25.6288C65.7434 25.6288 65.0122 25.8384 64.4468 26.2576C63.8911 26.6768 63.5889 27.213 63.5402 27.8662H59.9867C60.0745 26.3356 60.713 25.1024 61.9024 24.1665C63.0917 23.2306 64.6954 22.7627 66.7134 22.7627ZM69.4772 31.1271C69.253 31.2733 68.8191 31.4098 68.1757 31.5366C67.5323 31.6536 66.8304 31.7705 66.07 31.8875C65.2803 32.0045 64.593 32.2287 64.0081 32.5602C63.4329 32.8819 63.1453 33.3937 63.1453 34.0956C63.1453 34.7 63.3842 35.1729 63.8619 35.5141C64.3396 35.8553 64.983 36.0259 65.7921 36.0259C67.001 36.0259 67.9174 35.7139 68.5413 35.09C69.1652 34.4563 69.4772 33.691 69.4772 32.7942V31.1271Z" fill="#FFFEFE" style="fill:#FFFEFE;fill:color(display-p3 1.0000 0.9951 0.9951);fill-opacity:1;"/>
<path fill-rule="evenodd" clip-rule="evenodd" d="M120.468 22.7627C122.476 22.7627 124.046 23.2306 125.177 24.1665C126.308 25.1024 126.873 26.3746 126.873 27.9831V38.5118H123.247V36.333H123.188C122.818 37.0154 122.281 37.5906 121.58 38.0585C120.878 38.5264 119.898 38.7604 118.64 38.7604C117.1 38.7604 115.823 38.3753 114.809 37.6052C113.805 36.8253 113.303 35.6652 113.303 34.1249C113.303 32.955 113.586 32.0533 114.151 31.4196C114.726 30.7762 115.472 30.3082 116.388 30.0158C117.314 29.7233 118.309 29.5234 119.371 29.4162C120.804 29.2505 121.804 29.1042 122.369 28.9775C122.935 28.8508 123.217 28.5242 123.217 27.9978V27.8808C123.217 27.2179 122.964 26.6768 122.457 26.2576C121.96 25.8384 121.272 25.6288 120.395 25.6288C119.498 25.6288 118.767 25.8384 118.202 26.2576C117.646 26.6768 117.344 27.213 117.295 27.8662H113.741C113.829 26.3356 114.468 25.1024 115.657 24.1665C116.846 23.2306 118.45 22.7627 120.468 22.7627ZM123.232 31.1271C123.008 31.2733 122.574 31.4098 121.93 31.5366C121.287 31.6536 120.585 31.7705 119.825 31.8875C119.035 32.0045 118.348 32.2287 117.763 32.5602C117.188 32.8819 116.9 33.3937 116.9 34.0956C116.9 34.7 117.139 35.1729 117.617 35.5141C118.094 35.8553 118.738 36.0259 119.547 36.0259C120.756 36.0259 121.672 35.7139 122.296 35.09C122.92 34.4563 123.232 33.691 123.232 32.7942V31.1271Z" fill="#FFFEFE" style="fill:#FFFEFE;fill:color(display-p3 1.0000 0.9951 0.9951);fill-opacity:1;"/>
<path fill-rule="evenodd" clip-rule="evenodd" d="M49.8968 16.7233C51.4956 16.7233 52.875 17.006 54.0351 17.5714C55.205 18.1369 56.1067 18.9411 56.7404 19.9843C57.3741 21.0274 57.6909 22.2606 57.6909 23.6839C57.6909 25.1657 57.3253 26.438 56.5942 27.5006C55.863 28.5632 54.8491 29.3577 53.5526 29.8841L58.1004 38.5118H53.845L49.7505 30.5861H45.2612V38.5118H41.4007V16.7233H49.8968ZM45.2612 27.3982H49.7067C50.9935 27.3982 52.0122 27.0668 52.7629 26.4038C53.5136 25.7312 53.8889 24.8245 53.8889 23.6839C53.8889 22.5531 53.5087 21.6562 52.7483 20.9933C51.9976 20.3303 50.974 19.9989 49.6774 19.9989H45.2612V27.3982Z" fill="#FFFEFE" style="fill:#FFFEFE;fill:color(display-p3 1.0000 0.9951 0.9951);fill-opacity:1;"/>
<path d="M80.0643 38.5118H76.3793V23.0698H80.0643V38.5118Z" fill="#FFFEFE" style="fill:#FFFEFE;fill:color(display-p3 1.0000 0.9951 0.9951);fill-opacity:1;"/>
<path d="M87.025 38.5118H83.3399V16.7233H87.025V38.5118Z" fill="#FFFEFE" style="fill:#FFFEFE;fill:color(display-p3 1.0000 0.9951 0.9951);fill-opacity:1;"/>
<path d="M94.395 28.9336C94.6388 29.85 94.8727 30.7957 95.097 31.7705C95.3212 32.7454 95.5503 33.7105 95.7842 34.6659C96.0182 33.7105 96.2571 32.7454 96.5008 31.7705C96.7445 30.7957 96.9931 29.85 97.2466 28.9336L98.8844 23.0698H102.292L103.915 28.9336C104.158 29.85 104.397 30.7908 104.631 31.7559C104.875 32.721 105.119 33.6813 105.362 34.6367C105.587 33.6813 105.811 32.721 106.035 31.7559C106.259 30.7908 106.493 29.85 106.737 28.9336L108.331 23.0698H112.25L107.468 38.5118H103.637L101.765 32.0776C101.56 31.366 101.361 30.6348 101.166 29.8841L100.581 27.6322C100.395 28.3828 100.205 29.1335 100.01 29.8841C99.8154 30.6348 99.6106 31.366 99.3962 32.0776L97.4952 38.5118H93.6931L88.926 23.0698H92.8011L94.395 28.9336Z" fill="#FFFEFE" style="fill:#FFFEFE;fill:color(display-p3 1.0000 0.9951 0.9951);fill-opacity:1;"/>
<path d="M78.2218 16.5771C78.8458 16.5771 79.3673 16.7769 79.7865 17.1766C80.2057 17.5763 80.4153 18.0735 80.4153 18.6682C80.4153 19.2629 80.2057 19.7649 79.7865 20.1744C79.3673 20.5741 78.8458 20.7739 78.2218 20.7739C77.5882 20.7739 77.0617 20.5741 76.6425 20.1744C76.2233 19.7649 76.0137 19.2629 76.0137 18.6682C76.0137 18.0735 76.2233 17.5763 76.6425 17.1766C77.0617 16.7769 77.5882 16.5771 78.2218 16.5771Z" fill="#FFFEFE" style="fill:#FFFEFE;fill:color(display-p3 1.0000 0.9951 0.9951);fill-opacity:1;"/>
</g>
<defs>
<clipPath id="clip0_1_10">
<rect width="160" height="44" fill="white" style="fill:white;fill-opacity:1;"/>
</clipPath>
</defs>
</svg>
