<svg width="180" height="38" viewBox="0 0 180 38" fill="none" xmlns="http://www.w3.org/2000/svg">
<path d="M0 1.00411C1.73628 0.615451 4.42284 0.388184 6.8463 0.388184C13.3962 0.388184 17.3295 2.52692 17.3295 7.96927C17.3295 11.3058 15.8863 13.5093 13.6282 14.7083L19.0946 23.4553C18.6683 23.7474 17.7513 23.9088 16.4735 23.9088C15.0303 23.9088 14.0823 23.7474 13.394 23.4553L8.84235 15.8742H8.32613C7.21598 15.8742 5.73837 15.7765 4.95238 15.647V23.4872C4.49389 23.7463 3.6746 23.9088 2.49562 23.9088C1.34883 23.9088 0.497348 23.7474 0.00666091 23.4872L0 1.00411ZM4.91353 4.76227V11.5331C5.8448 11.6853 6.78718 11.7613 7.73109 11.7604C10.5808 11.7604 12.3227 10.7591 12.3227 8.23386C12.3227 5.64169 10.4887 4.57342 7.21598 4.57342C6.44435 4.56861 5.67382 4.6318 4.91353 4.76227Z" fill="white"/>
<path d="M25.4217 17.238C25.6182 19.5063 27.2557 20.6075 30.4995 20.6075C32.5966 20.6075 34.4306 20.1541 35.6062 19.6359C35.7039 20.8666 35.1799 22.4542 34.4272 23.2963C33.346 23.9122 31.512 24.4305 29.2517 24.4305C23.5189 24.4305 20.4727 21.1587 20.4727 15.9096C20.4727 10.499 23.7487 7 28.892 7C33.6746 7 35.8693 9.91606 35.8693 14.1924C35.866 15.2266 35.7005 16.254 35.3786 17.238H25.4217ZM31.4165 13.8345C31.6785 12.1503 31.0557 10.4979 28.6978 10.4979C26.6662 10.4979 25.4217 11.7935 25.2907 13.8345H31.4165Z" fill="white"/>
<path d="M46.0252 20.2799C46.253 18.8683 46.5704 17.4723 46.9755 16.1001L49.4644 7.74175C49.8252 7.6122 50.3814 7.44971 51.4305 7.44971C52.7738 7.44971 53.6908 7.70881 54.2803 8.09747L49.1047 23.4551C47.3685 23.9414 44.9439 24.1028 42.6181 24.1028L37.2461 8.09857C37.8356 7.70991 38.7526 7.45081 40.1325 7.45081C41.115 7.45081 41.7977 7.6122 42.0986 7.74285L44.7518 16.1012C45.1825 17.471 45.5218 18.8673 45.7676 20.281L46.0252 20.2799Z" fill="white"/>
<path d="M60.3787 17.238C60.5752 19.5063 62.2127 20.6075 65.4566 20.6075C67.5536 20.6075 69.3876 20.1541 70.5633 19.6359C70.6609 20.8666 70.1369 22.4542 69.3843 23.2963C68.303 23.9122 66.469 24.4305 64.2087 24.4305C58.4759 24.4305 55.4297 21.1587 55.4297 15.9096C55.4297 10.499 58.7057 7 63.8491 7C68.6316 7 70.8264 9.91606 70.8264 14.1924C70.8237 15.2265 70.6589 16.2539 70.3379 17.238H60.3787ZM66.3735 13.8345C66.6355 12.1503 66.0127 10.4979 63.6548 10.4979C61.6232 10.4979 60.3787 11.7935 60.2477 13.8345H66.3735Z" fill="white"/>
<path d="M79.2464 23.52C78.8201 23.7473 78.0342 23.9087 76.8874 23.9087C75.7406 23.9087 74.9546 23.7473 74.4961 23.52V8.06692C75.3842 7.58055 76.7897 7.32144 78.3616 7.32144L78.6237 9.97839H78.8856C79.6716 8.29419 81.3424 6.99756 84.3254 6.99756C86.8155 6.99756 89.7652 7.87589 89.7652 13.2183V23.5211C89.3389 23.7484 88.5529 23.9098 87.4061 23.9098C86.2593 23.9098 85.4733 23.7484 85.0148 23.5211V14.0604C85.0148 12.3762 84.4253 11.3069 82.4925 11.3069C80.7896 11.3069 79.8393 12.149 79.2498 13.1535L79.2464 23.52Z" fill="white"/>
<path d="M104.599 21.8362C103.878 23.2942 102.338 24.4283 99.4554 24.4283C96.902 24.4283 94.0156 23.55 94.0156 18.1702V8.28904C95.1258 7.67311 96.7022 7.31738 98.766 7.31738V17.3611C98.766 19.1101 99.321 20.0828 101.223 20.0828C102.763 20.0828 103.776 19.435 104.368 18.6896V7.90477C104.826 7.6775 105.612 7.5161 106.759 7.5161C107.906 7.5161 108.692 7.6786 109.118 7.90477V23.359C108.267 23.8454 106.923 24.1045 105.417 24.1045L104.862 21.8362H104.599Z" fill="white"/>
<path d="M117.638 17.238C117.835 19.5063 119.472 20.6075 122.716 20.6075C124.813 20.6075 126.647 20.1541 127.823 19.6359C127.921 20.8666 127.397 22.4542 126.644 23.2963C125.563 23.9122 123.729 24.4305 121.468 24.4305C115.736 24.4305 112.689 21.1587 112.689 15.9096C112.689 10.499 115.965 7 121.109 7C125.891 7 128.086 9.91606 128.086 14.1924C128.082 15.2267 127.917 16.2541 127.594 17.238H117.638ZM123.633 13.8345C123.895 12.1503 123.272 10.4979 120.915 10.4979C118.883 10.4979 117.638 11.7935 117.507 13.8345H123.633Z" fill="white"/>
<path d="M143.949 4.30931C139.329 4.30931 136.152 6.64237 136.152 12.2791C136.152 17.9157 139.297 20.1522 143.719 20.1522C145.607 20.1342 147.474 19.7616 149.222 19.0543C149.287 20.2532 148.698 22.3261 147.912 23.3636C146.503 24.0443 144.47 24.5296 142.179 24.5296C135.169 24.5296 131.041 20.0589 131.041 12.6073C131.042 4.56841 135.857 0 142.933 0C144.8 0 146.7 0.329374 147.912 1.03643C148.666 2.1058 148.993 4.01726 148.829 5.44235C147.257 4.69797 145.816 4.30931 143.949 4.30931Z" fill="white"/>
<path d="M160.84 22.0947C160.119 23.522 158.579 24.4278 156.319 24.4278C153.433 24.4278 150.947 23.0005 150.947 19.2445C150.947 15.292 153.834 13.7692 157.63 13.7692C158.64 13.7569 159.645 13.8991 160.611 14.1908V13.7374C160.611 11.7612 159.629 11.0486 157.466 11.0486C155.63 11.0474 153.824 11.5148 152.224 12.4056C151.831 11.1419 151.994 9.13385 152.748 8.06448C153.928 7.41672 155.958 6.99512 158.383 6.99512C163.1 6.99512 165.36 8.64199 165.36 13.4421V19.0469C165.36 20.0515 165.819 20.2777 166.47 20.2777C166.968 20.2864 167.458 20.1513 167.879 19.889C168.01 21.1845 167.617 22.7721 167.028 23.679C166.339 24.1324 165.422 24.4245 164.309 24.4245C162.409 24.4245 161.423 23.6142 161.098 22.0914L160.84 22.0947ZM160.709 17.3001C160.02 17.0348 159.286 16.9028 158.546 16.9115C156.647 16.9115 155.696 17.6888 155.696 18.9206C155.696 20.1843 156.647 20.6378 157.957 20.6378C159.005 20.6378 160.054 20.3084 160.709 19.5036V17.3001Z" fill="white"/>
<path d="M175.33 11.6365H179.703C179.9 11.2457 179.999 10.4288 179.999 9.61526C179.999 8.8017 179.9 7.98595 179.703 7.594H175.33V2.76758C173.488 2.80052 171.746 3.22431 170.562 4.0708V7.59071H168.688C168.26 8.63372 168.03 10.2257 168.03 11.6321H170.563L170.498 23.0833C170.498 24.3448 170.276 25.9577 169.547 26.4638C166.076 28.8935 159.015 27.7176 152.536 27.0512C143.229 26.0938 135.19 24.8356 133.855 29.9288C133.148 32.6198 134.065 34.3391 134.957 35.3086C136.75 37.2552 139.914 37.6988 142.425 37.6988C143.606 37.6975 144.784 37.6061 145.951 37.4254C146.544 37.33 147.076 37.0053 147.427 36.5227C147.779 36.0401 147.923 35.4392 147.827 34.8519C147.627 33.6288 146.456 32.7658 145.226 32.992C142.645 33.4685 139.001 34.5291 137.603 33.0107C137.131 32.4979 137.213 31.2386 137.603 30.8489C138.643 29.3118 145.331 29.8992 152.065 30.7984C159.503 31.5669 167.205 32.644 171.577 30.4811C173.289 29.6346 175.33 27.6638 175.33 23.0833V11.6365Z" fill="white"/>
</svg>
