<svg width="161" height="44" viewBox="0 0 161 44" fill="none" xmlns="http://www.w3.org/2000/svg">
<g clip-path="url(#clip0_7020_36334)">
<mask id="mask0_7020_36334" style="mask-type:alpha" maskUnits="userSpaceOnUse" x="2" y="12" width="30" height="19">
<path fill-rule="evenodd" clip-rule="evenodd" d="M19.4631 12.4107C18.2048 12.4107 17.1847 13.4308 17.1847 14.6892C17.1847 15.9475 18.2048 16.9676 19.4631 16.9676H27.0578C29.5745 16.9676 31.6147 14.9274 31.6147 12.4107H19.4631ZM13.8502 19.4246C11.5271 19.4246 9.64382 21.3078 9.64382 23.6309H25.8847C28.2078 23.6309 30.091 21.7476 30.091 19.4246H13.8502ZM2.75879 30.6373C2.75879 28.1207 4.79897 26.0805 7.31565 26.0805H14.9104C16.1687 26.0805 17.1888 27.1006 17.1888 28.3589C17.1888 29.6173 16.1687 30.6373 14.9104 30.6373H2.75879ZM21.7452 26.0805C20.4868 26.0805 19.4667 27.1006 19.4667 28.3589C19.4667 29.6173 20.4868 30.6373 21.7452 30.6373H23.2641C25.3613 30.6373 27.0615 28.9372 27.0615 26.84V26.0805H21.7452Z" fill="white"/>
</mask>
<g mask="url(#mask0_7020_36334)">
<path d="M17.1963 14.6889C17.1963 13.4306 18.2164 12.4105 19.4747 12.4105H31.6263C31.6263 14.9272 29.5861 16.9674 27.0694 16.9674H19.4747C18.2164 16.9674 17.1963 15.9473 17.1963 14.6889Z" fill="white"/>
<path d="M9.65234 23.6232C9.65234 21.3001 11.5356 19.4168 13.8587 19.4168H30.0996C30.0996 21.7399 28.2163 23.6232 25.8932 23.6232H9.65234Z" fill="white"/>
<path d="M2.75879 30.6296C2.75879 28.1129 4.79897 26.0727 7.31565 26.0727H14.9104C16.1687 26.0727 17.1888 27.0928 17.1888 28.3512C17.1888 29.6095 16.1687 30.6296 14.9104 30.6296H2.75879Z" fill="white"/>
<path d="M19.4629 28.3512C19.4629 27.0928 20.483 26.0727 21.7413 26.0727H27.0576V26.8322C27.0576 28.9295 25.3575 30.6296 23.2603 30.6296H21.7413C20.483 30.6296 19.4629 29.6095 19.4629 28.3512Z" fill="white"/>
</g>
<path fill-rule="evenodd" clip-rule="evenodd" d="M52.886 21.5948H44.2462C44.1368 21.5948 44.0001 21.6768 43.9728 21.8135L43.5353 23.9188C43.508 24.0281 43.59 24.1375 43.6993 24.1375H48.9762C48.1013 28.0199 46.16 29.469 43.1799 29.469C40.0083 29.469 38.3131 27.3364 38.3131 24.1101C38.3131 19.1887 41.266 14.8962 45.5039 14.8962C47.8825 14.8962 49.605 16.2359 49.9058 18.5599C49.9331 18.6966 50.0425 18.7786 50.1519 18.7786H53.1594C53.2687 18.7786 53.3781 18.6693 53.3781 18.5599C53.0774 14.6228 49.9058 12.2441 45.6952 12.2441C39.5162 12.2441 34.8408 17.7397 34.8408 24.1101C34.8408 29.0042 37.9577 32.1484 42.9338 32.1484C48.0739 32.1484 51.7376 29.1956 53.0774 21.8135C53.0774 21.7041 52.9953 21.5948 52.886 21.5948ZM55.7475 31.7692H52.904C52.7947 31.7692 52.7127 31.6599 52.74 31.5505L55.0093 22.1451L57.0599 12.8492C57.0872 12.7124 57.2239 12.6304 57.3333 12.6304H60.1768C60.2862 12.6304 60.3682 12.7398 60.3408 12.8492L58.0989 22.1451L56.0209 31.5505C55.9936 31.6872 55.8569 31.7692 55.7475 31.7692ZM105.173 31.7692H102.192C102.083 31.7692 102.001 31.6599 102.028 31.5505L104.298 22.1998L106.348 12.8492C106.376 12.7124 106.512 12.6304 106.622 12.6304H118.515C118.624 12.6304 118.706 12.7398 118.679 12.8492L118.214 15.0364C118.187 15.1731 118.05 15.2552 117.941 15.2552H109.219L107.715 21.1609H116.109C116.218 21.1609 116.3 21.2702 116.273 21.3796L115.808 23.5669C115.781 23.7036 115.644 23.7856 115.535 23.7856H107.141L105.446 31.5505C105.419 31.6872 105.282 31.7692 105.173 31.7692ZM116.244 31.7692H119.087C119.197 31.7692 119.333 31.6872 119.361 31.5505L121.439 22.1451L123.681 12.8492C123.708 12.7398 123.626 12.6304 123.517 12.6304H120.673C120.564 12.6304 120.427 12.7124 120.4 12.8492L118.349 22.1451L116.08 31.5505C116.052 31.6599 116.135 31.7692 116.244 31.7692ZM122.681 26.1615C122.681 21.0488 126.017 17.3577 130.719 17.3577C134.383 17.3577 136.871 19.627 136.871 23.2634C136.871 28.2395 133.59 32.0946 128.887 32.0946C125.251 32.0946 122.681 29.8253 122.681 26.1615ZM126.017 26.3803C126.017 28.5949 127.083 29.7706 128.997 29.7706C131.731 29.7706 133.535 27.2278 133.535 23.1267C133.535 20.8847 132.414 19.6817 130.555 19.6817C127.821 19.6817 126.017 22.3064 126.017 26.3803ZM151.291 31.7663H147.873C147.764 31.7663 147.654 31.6569 147.654 31.5476V20.3104L142.733 31.5749C142.678 31.6843 142.569 31.7663 142.432 31.7663H139.014C138.905 31.7663 138.796 31.6569 138.796 31.5476L138.604 17.9044C138.604 17.795 138.714 17.6856 138.823 17.6856H141.393C141.503 17.6856 141.612 17.795 141.612 17.9044L141.147 29.1962L146.096 17.877C146.151 17.7677 146.26 17.6856 146.397 17.6856H149.924C150.033 17.6856 150.142 17.795 150.142 17.9044L149.924 28.9228L154.654 17.877C154.708 17.7677 154.818 17.6856 154.954 17.6856H157.88C157.989 17.6856 158.044 17.795 158.017 17.877L151.591 31.5749C151.537 31.6843 151.427 31.7663 151.291 31.7663ZM96.2527 23.4077C94.5923 22.9606 93.1414 22.57 93.1414 21.4589C93.1414 20.3926 94.1257 19.4903 95.8481 19.4903C97.68 19.4903 98.801 20.3926 98.8283 21.7596C98.8283 21.8963 98.9377 21.9784 99.0471 21.9784H101.672C101.781 21.9784 101.891 21.869 101.918 21.7596C102.082 18.8068 99.1291 17.3577 96.0395 17.3577C92.0204 17.3577 89.8331 19.5177 89.8331 21.787C89.8331 24.5868 92.4664 25.3234 94.7032 25.9491C96.3543 26.411 97.7894 26.8124 97.7894 27.9387C97.7894 29.0324 96.8598 29.9073 95.0553 29.9073C92.8133 29.9073 91.4736 28.8957 91.5282 27.1732C91.5282 27.0638 91.4189 26.9544 91.3095 26.9544H88.5481C88.4387 26.9544 88.302 27.0638 88.302 27.1732C87.9739 30.1534 90.8994 32.0946 94.8365 32.0946C98.5823 32.0946 101.07 30.0713 101.07 27.3646C101.07 24.7048 98.474 24.0058 96.2527 23.4077ZM79.0539 21.4589C79.0539 22.57 80.5048 22.9606 82.1652 23.4077C84.3865 24.0058 86.9828 24.7048 86.9828 27.3646C86.9828 30.0713 84.4948 32.0946 80.749 32.0946C76.8119 32.0946 73.8864 30.1534 74.2145 27.1732C74.2145 27.0638 74.3512 26.9544 74.4606 26.9544H77.222C77.3314 26.9544 77.4408 27.0638 77.4408 27.1732C77.3861 28.8957 78.7258 29.9073 80.9678 29.9073C82.7723 29.9073 83.7019 29.0324 83.7019 27.9387C83.7019 26.8124 82.2668 26.411 80.6157 25.9491C78.3789 25.3234 75.7456 24.5868 75.7456 21.787C75.7456 19.5177 77.9329 17.3577 81.952 17.3577C85.0416 17.3577 87.9944 18.8068 87.8304 21.7596C87.803 21.869 87.6937 21.9784 87.5843 21.9784H84.9596C84.8502 21.9784 84.7408 21.8963 84.7408 21.7596C84.7135 20.3926 83.5925 19.4903 81.7606 19.4903C80.0382 19.4903 79.0539 20.3926 79.0539 21.4589ZM65.5696 29.6859C63.1362 29.7132 62.1246 27.5806 62.9448 24.1083C63.5463 21.4562 64.8587 19.8431 66.8546 19.7611H67.2921C69.5067 19.8704 70.5457 21.8116 69.7254 25.366C69.0145 28.2368 67.5655 29.7132 65.5696 29.6859ZM68.3037 31.7638H71.1745C71.2839 31.7638 71.4206 31.6818 71.4479 31.5451L72.9517 24.6825L74.5921 17.9019C74.6195 17.7925 74.5375 17.6831 74.4281 17.6831H71.5299C71.4206 17.6831 71.2839 17.7652 71.2565 17.9019L70.8191 20.0345C70.0809 18.3393 68.5224 17.4371 66.4171 17.4371C62.6167 17.4371 60.4021 20.4446 59.6365 23.7529C58.4882 28.5922 60.5935 32.0099 64.3666 32.0099C66.0344 32.0099 67.4014 31.3537 68.4951 30.2327L68.1396 31.5451C68.1123 31.6545 68.1943 31.7638 68.3037 31.7638Z" fill="white"/>
</g>
<defs>
<clipPath id="clip0_7020_36334">
<rect width="161" height="22.4" fill="white" transform="translate(0 11)"/>
</clipPath>
</defs>
</svg>
