<svg width="187" height="44" viewBox="0 0 187 44" fill="none" xmlns="http://www.w3.org/2000/svg">
<g clip-path="url(#clip0_7255_3309)">
<path fill-rule="evenodd" clip-rule="evenodd" d="M161.11 25.7473C161.245 25.7093 161.384 25.7969 161.42 25.9331C161.523 26.3179 161.696 26.6613 161.941 26.9633C162.239 27.331 162.624 27.6198 163.097 27.8299C163.587 28.0225 164.157 28.1188 164.805 28.1188C165.821 28.1188 166.583 27.8912 167.091 27.436C167.599 26.9633 167.852 26.3943 167.852 25.729C167.852 25.2037 167.695 24.766 167.38 24.4158C167.064 24.0657 166.618 23.768 166.04 23.5229C165.479 23.2778 164.822 23.0415 164.069 22.8138C163.369 22.6037 162.677 22.3761 161.994 22.131C161.31 21.8859 160.689 21.5795 160.128 21.2118C159.568 20.8442 159.121 20.3715 158.788 19.7937C158.473 19.1984 158.315 18.4543 158.315 17.5614C158.315 16.4409 158.587 15.4867 159.13 14.6988C159.69 13.9109 160.452 13.3157 161.416 12.913C162.379 12.5103 163.491 12.309 164.752 12.309C165.821 12.309 166.784 12.4665 167.642 12.7817C168.501 13.0793 169.219 13.5258 169.797 14.121C170.337 14.6448 170.747 15.2835 171.028 16.0374C171.075 16.1655 171 16.3046 170.868 16.3404L168.067 17.1021C167.935 17.1378 167.803 17.0563 167.756 16.9286C167.652 16.643 167.483 16.39 167.248 16.1695C166.95 15.8894 166.591 15.6705 166.171 15.5129C165.751 15.3379 165.295 15.2503 164.805 15.2503C164.279 15.2328 163.798 15.3116 163.36 15.4867C162.922 15.6618 162.572 15.9156 162.309 16.2483C162.046 16.5809 161.915 16.9661 161.915 17.4038C161.915 17.8941 162.064 18.288 162.361 18.5856C162.659 18.8658 163.053 19.1109 163.544 19.321C164.034 19.5136 164.586 19.7061 165.199 19.8987C165.935 20.1088 166.67 20.3539 167.406 20.6341C168.141 20.8967 168.816 21.2381 169.429 21.6583C170.042 22.061 170.532 22.5775 170.9 23.2078C171.286 23.8381 171.478 24.6347 171.478 25.5976C171.478 26.6131 171.233 27.5323 170.743 28.3552C170.27 29.1781 169.551 29.8346 168.588 30.3248C167.625 30.8151 166.416 31.0602 164.962 31.0602C163.771 31.0602 162.685 30.8851 161.705 30.5349C160.741 30.1848 159.944 29.677 159.314 29.0117C158.733 28.3828 158.338 27.65 158.129 26.8131C158.098 26.6913 158.173 26.5693 158.294 26.5355L161.11 25.7473ZM46.4258 12.7317C46.4258 12.5997 46.5327 12.4928 46.6647 12.4928H49.7338C49.8657 12.4928 49.9727 12.5997 49.9727 12.7317V30.6375C49.9727 30.7694 49.8657 30.8764 49.7338 30.8764H46.6647C46.5327 30.8764 46.4258 30.7694 46.4258 30.6375V12.7317ZM68.2692 12.4928C68.4011 12.4928 68.5081 12.5997 68.5081 12.7317V30.6375C68.5081 30.7694 68.4011 30.8764 68.2692 30.8764H65.0142C64.9321 30.8764 64.8558 30.8342 64.8121 30.7648L57.2837 18.813C57.156 18.6103 56.8427 18.7008 56.8427 18.9403V30.6375C56.8427 30.7694 56.7358 30.8764 56.6039 30.8764H53.5347C53.4028 30.8764 53.2958 30.7694 53.2958 30.6375V12.7317C53.2958 12.5997 53.4028 12.4928 53.5347 12.4928H56.7637C56.8456 12.4928 56.9218 12.5348 56.9656 12.604L64.5204 24.5587C64.6483 24.7611 64.9612 24.6705 64.9612 24.4311V12.7317C64.9612 12.5997 65.0681 12.4928 65.2 12.4928H68.2692ZM88.2749 12.814C88.3321 12.6581 88.2167 12.4928 88.0506 12.4928H84.7797C84.6778 12.4928 84.5872 12.5574 84.5539 12.6537L81.1175 22.6045C81.1001 22.6548 81.1001 22.7096 81.1173 22.7599L82.5914 27.0572C82.6644 27.2699 82.964 27.2732 83.0416 27.0621L88.2749 12.814ZM80.6363 30.56C80.6895 30.715 80.5742 30.8764 80.4103 30.8764H77.525C77.4247 30.8764 77.3351 30.8137 77.3007 30.7196L70.7495 12.8137C70.6925 12.6579 70.8079 12.4928 70.9738 12.4928H74.2452C74.3471 12.4928 74.4378 12.5574 74.471 12.6537L77.8986 22.5788L80.6363 30.56ZM103.439 15.2215C103.439 15.3535 103.332 15.4604 103.2 15.4604H94.2983C94.1664 15.4604 94.0595 15.5674 94.0595 15.6993V19.8962C94.0595 20.0282 94.1664 20.1351 94.2983 20.1351H100.836C100.967 20.1351 101.074 20.242 101.074 20.374V22.7588C101.074 22.8907 100.967 22.9977 100.836 22.9977H94.2983C94.1664 22.9977 94.0595 23.1046 94.0595 23.2366V27.6699C94.0595 27.8018 94.1664 27.9087 94.2983 27.9087H103.2C103.332 27.9087 103.439 28.0157 103.439 28.1476V30.6375C103.439 30.7694 103.332 30.8764 103.2 30.8764H90.7514C90.6195 30.8764 90.5126 30.7694 90.5126 30.6375V12.7317C90.5126 12.5997 90.6195 12.4928 90.7514 12.4928H103.2C103.332 12.4928 103.439 12.5997 103.439 12.7317V15.2215ZM116.008 16.1958C116.516 16.686 116.77 17.3425 116.77 18.1654C116.77 18.7257 116.656 19.2159 116.428 19.6361C116.218 20.0388 115.886 20.3539 115.43 20.5816C114.975 20.7917 114.397 20.8967 113.696 20.8967H113.002C112.87 20.8967 112.763 21.0036 112.763 21.1356V23.8629C112.763 23.905 112.774 23.9464 112.795 23.9828L116.727 30.7574C116.77 30.831 116.849 30.8764 116.934 30.8764H120.34C120.526 30.8764 120.64 30.6729 120.544 30.5137L116.479 23.8056C116.398 23.6719 116.465 23.4979 116.612 23.4454C116.683 23.4199 116.754 23.3932 116.823 23.3654C117.663 23.0327 118.346 22.595 118.872 22.0522C119.397 21.492 119.783 20.8792 120.028 20.2139C120.273 19.5311 120.396 18.8482 120.396 18.1654C120.396 17.15 120.151 16.2133 119.66 15.3554C119.187 14.48 118.46 13.7884 117.479 13.2807C116.516 12.7554 115.29 12.4928 113.801 12.4928H106.473C106.341 12.4928 106.234 12.5997 106.234 12.7317V30.6375C106.234 30.7694 106.341 30.8764 106.473 30.8764H109.542C109.674 30.8764 109.781 30.7694 109.781 30.6375V24.6127C109.781 24.6116 109.78 24.6107 109.779 24.6107C109.778 24.6107 109.777 24.6098 109.777 24.6087V20.1936C109.777 20.1925 109.778 20.1916 109.779 20.1916C109.78 20.1916 109.781 20.1907 109.781 20.1896V15.6993C109.781 15.5674 109.888 15.4604 110.02 15.4604H113.696C114.747 15.4604 115.518 15.7055 116.008 16.1958ZM122.32 12.7317C122.32 12.5997 122.427 12.4928 122.559 12.4928H137.005C137.137 12.4928 137.243 12.5997 137.243 12.7317V15.2215C137.243 15.3535 137.137 15.4604 137.005 15.4604H131.807C131.675 15.4604 131.568 15.5674 131.568 15.6993V30.6375C131.568 30.7694 131.462 30.8764 131.33 30.8764H128.26C128.129 30.8764 128.022 30.7694 128.022 30.6375V15.6993C128.022 15.5674 127.915 15.4604 127.783 15.4604H122.559C122.427 15.4604 122.32 15.3535 122.32 15.2215V12.7317ZM147.034 15.6202C147.067 15.5245 147.158 15.4604 147.259 15.4604H147.866C147.968 15.4604 148.058 15.5246 148.092 15.6205L150.797 23.3628C150.851 23.5181 150.736 23.6805 150.571 23.6805H147.533C147.432 23.6805 147.342 23.7439 147.308 23.839L146.418 26.3289C146.362 26.4844 146.477 26.6481 146.643 26.6481H151.775C151.876 26.6481 151.967 26.7123 152 26.8082L153.366 30.7163C153.399 30.8121 153.49 30.8764 153.591 30.8764H156.734C156.9 30.8764 157.015 30.7124 156.959 30.5568L150.536 12.651C150.502 12.5561 150.412 12.4928 150.311 12.4928H144.788C144.687 12.4928 144.597 12.5561 144.563 12.651L138.14 30.5568C138.084 30.7124 138.2 30.8764 138.365 30.8764H141.453C141.554 30.8764 141.644 30.8129 141.678 30.7179L144.769 22.0701L147.034 15.6202ZM177.621 15.6993C177.621 15.5674 177.728 15.4604 177.86 15.4604H186.762C186.893 15.4604 187 15.3535 187 15.2215V12.7317C187 12.5997 186.893 12.4928 186.762 12.4928H174.313C174.181 12.4928 174.074 12.5997 174.074 12.7317V30.6375C174.074 30.7694 174.181 30.8764 174.313 30.8764H186.762C186.893 30.8764 187 30.7694 187 30.6375V28.1476C187 28.0157 186.893 27.9087 186.762 27.9087H177.86C177.728 27.9087 177.621 27.8018 177.621 27.6699V23.2366C177.621 23.1046 177.728 22.9977 177.86 22.9977H184.397C184.529 22.9977 184.636 22.8907 184.636 22.7588V20.374C184.636 20.242 184.529 20.1351 184.397 20.1351H177.86C177.728 20.1351 177.621 20.0282 177.621 19.8962V15.6993Z" fill="white" style="fill:white;fill-opacity:1;"/>
<path d="M23.7721 5.2097C24.2565 4.9301 24.8532 4.9301 25.3377 5.2097L28.7457 7.17677C29.2303 7.45648 29.5288 7.97349 29.5288 8.53302V12.4664C29.5288 13.0259 29.2303 13.5429 28.7457 13.8226L26.3653 15.1966L26.3675 15.1977L25.0772 15.9477C23.7911 16.6952 22.9998 18.0704 22.9998 19.558V19.6858C23.0008 19.7091 23.0013 19.7324 23.0013 19.7558V23.6892C23.0013 24.2487 22.7028 24.7658 22.2182 25.0455L18.8101 27.0125C18.3257 27.2921 17.7289 27.2921 17.2445 27.0125L13.8365 25.0455C13.3519 24.7658 13.0534 24.2487 13.0534 23.6892V19.7558C13.0534 19.1963 13.3519 18.6793 13.8365 18.3996L15.537 17.4181L15.5333 17.4161L17.5003 16.2743C18.7876 15.5271 19.5798 14.1512 19.5798 12.6628L19.5809 8.53302C19.5809 7.97349 19.8794 7.45648 20.364 7.17677L23.7721 5.2097Z" fill="white" style="fill:white;fill-opacity:1;"/>
<path d="M12.2846 5.20995C11.8002 4.93035 11.2034 4.93035 10.719 5.20995L7.31096 7.17702C6.82636 7.45673 6.52782 7.97374 6.52782 8.53327V11.8056L6.52671 12.663C6.52671 14.1514 5.73449 15.5273 4.44726 16.2745L2.48018 17.4164L2.48382 17.4182L0.783138 18.3998C0.29854 18.6795 0 19.1966 0 19.7561V23.6895C0 24.249 0.29854 24.766 0.783138 25.0457L4.19117 27.0128C4.67559 27.2924 5.27237 27.2924 5.75679 27.0128L9.16482 25.0457C9.64942 24.766 9.94796 24.249 9.94796 23.6895V19.7561C9.94796 19.7349 9.94753 19.7137 9.94668 19.6926V19.5582C9.94668 18.0707 10.738 16.6954 12.0241 15.9479L13.3144 15.1979L13.3122 15.1968L15.6926 13.8229C16.1772 13.5432 16.4758 13.0262 16.4758 12.4667V8.53327C16.4758 7.97374 16.1772 7.45673 15.6926 7.17702L12.2846 5.20995Z" fill="white" style="fill:white;fill-opacity:1;"/>
<path d="M12.2847 27.6554C11.8003 27.3758 11.2035 27.3758 10.7191 27.6554L7.31109 29.6225C6.82649 29.9022 6.52795 30.4192 6.52795 30.9787V34.9121C6.52795 35.4716 6.82649 35.9886 7.31109 36.2683L10.7191 38.2354C11.2035 38.515 11.8003 38.515 12.2847 38.2354L15.6928 36.2683C16.1774 35.9886 16.4759 35.4716 16.4759 34.9121V30.9787C16.4759 30.4192 16.1774 29.9022 15.6928 29.6225L12.2847 27.6554Z" fill="white" style="fill:white;fill-opacity:1;"/>
<path d="M31.8631 16.4823C31.3786 16.2027 30.7819 16.2027 30.2974 16.4823L26.8894 18.4494C26.4048 18.7291 26.1063 19.2461 26.1063 19.8057V23.078L26.1052 23.9354C26.1052 25.4238 25.3129 26.7997 24.0257 27.5469L22.0586 28.6888L22.0627 28.6908L20.3619 29.6725C19.8773 29.9522 19.5787 30.4692 19.5787 31.0288V34.9621C19.5787 35.5217 19.8773 36.0387 20.3619 36.3184L23.7699 38.2855C24.2543 38.5651 24.8511 38.5651 25.3355 38.2855L28.7435 36.3184C29.2281 36.0387 29.5267 35.5217 29.5267 34.9621V31.0288C29.5267 31.0053 29.5262 30.982 29.5251 30.9587V30.8306C29.5251 29.3431 30.3165 27.9678 31.6025 27.2203L32.8929 26.4703L32.8907 26.4692L35.2711 25.0953C35.7557 24.8156 36.0542 24.2986 36.0542 23.739V19.8057C36.0542 19.2461 35.7557 18.7291 35.2711 18.4494L31.8631 16.4823Z" fill="white" style="fill:white;fill-opacity:1;"/>
</g>
<defs>
<clipPath id="clip0_7255_3309">
<rect width="187" height="44" fill="white" style="fill:white;fill-opacity:1;"/>
</clipPath>
</defs>
</svg>
