<svg width="68" height="68" viewBox="0 0 68 68" fill="none" xmlns="http://www.w3.org/2000/svg">
<g clip-path="url(#clip0_6298_1386)">
<path d="M46.0415 10.2708V57.0208C46.0415 62.2519 49.6505 65.1667 53.479 65.1667C57.0207 65.1667 60.9165 62.6875 60.9165 57.0208V10.625C60.9165 5.82959 57.3748 2.83334 53.479 2.83334C49.5832 2.83334 46.0415 6.13772 46.0415 10.2708Z" fill="#F9AB00"/>
<path d="M26.5625 34V57.0208C26.5625 62.2519 30.1715 65.1667 34 65.1667C37.5417 65.1667 41.4375 62.6875 41.4375 57.0208V34.3542C41.4375 29.5588 37.8958 26.5625 34 26.5625C30.1042 26.5625 26.5625 29.8669 26.5625 34Z" fill="#E37400"/>
<path d="M14.5208 65.1667C18.6284 65.1667 21.9583 61.8368 21.9583 57.7292C21.9583 53.6216 18.6284 50.2917 14.5208 50.2917C10.4131 50.2917 7.08325 53.6216 7.08325 57.7292C7.08325 61.8368 10.4131 65.1667 14.5208 65.1667Z" fill="#E37400"/>
</g>
<defs>
<clipPath id="clip0_6298_1386">
<rect width="68" height="68" fill="white"/>
</clipPath>
</defs>
</svg>
