<svg width="80" height="48" viewBox="0 0 80 48" fill="none" xmlns="http://www.w3.org/2000/svg">
<g clip-path="url(#clip0_6298_1236)">
<path d="M22.7368 17.5121C22.7368 18.4879 22.842 19.2791 23.0262 19.8593C23.2368 20.4396 23.4999 21.0725 23.8683 21.7582C23.9999 21.9692 24.0526 22.1802 24.0526 22.3648C24.0526 22.6286 23.8947 22.8923 23.5526 23.156L21.8947 24.2637C21.6578 24.422 21.421 24.5011 21.2104 24.5011C20.9473 24.5011 20.6841 24.3692 20.421 24.1319C20.0526 23.7363 19.7368 23.3143 19.4736 22.8923C19.2104 22.4439 18.9473 21.9428 18.6578 21.3363C16.6052 23.7626 14.0262 24.9758 10.921 24.9758C8.71045 24.9758 6.94729 24.3428 5.65782 23.0769C4.36834 21.811 3.71045 20.1231 3.71045 18.0132C3.71045 15.7714 4.49992 13.9516 6.10519 12.5802C7.71045 11.2088 9.84203 10.5231 12.5526 10.5231C13.4473 10.5231 14.3683 10.6022 15.342 10.7341C16.3157 10.8659 17.3157 11.0769 18.3683 11.3143V9.389C18.3683 7.38461 17.9473 5.9868 17.1315 5.16922C16.2894 4.35164 14.8683 3.95603 12.842 3.95603C11.921 3.95603 10.9736 4.06153 9.99992 4.29889C9.02624 4.53625 8.07887 4.82636 7.15782 5.19559C6.73676 5.38021 6.42098 5.4857 6.23676 5.53845C6.05255 5.5912 5.92098 5.61757 5.81571 5.61757C5.44729 5.61757 5.26308 5.35384 5.26308 4.79999V3.50768C5.26308 3.0857 5.31571 2.76922 5.44729 2.58461C5.57887 2.39999 5.81571 2.21537 6.18413 2.03076C7.10519 1.55603 8.21045 1.16043 9.49992 0.843946C10.7894 0.501089 12.1578 0.342847 13.6052 0.342847C16.7368 0.342847 19.0262 1.05493 20.4999 2.47911C21.9473 3.90329 22.6841 6.06592 22.6841 8.96702V17.5121H22.7368ZM12.0526 21.5209C12.921 21.5209 13.8157 21.3626 14.7631 21.0461C15.7104 20.7297 16.5526 20.1494 17.2631 19.3582C17.6841 18.8571 17.9999 18.3033 18.1578 17.6703C18.3157 17.0374 18.421 16.2725 18.421 15.3758V14.2681C17.6578 14.0835 16.842 13.9253 15.9999 13.8198C15.1578 13.7143 14.342 13.6615 13.5262 13.6615C11.7631 13.6615 10.4736 14.0044 9.60519 14.7165C8.73676 15.4286 8.31571 16.4308 8.31571 17.7494C8.31571 18.989 8.6315 19.9121 9.2894 20.545C9.92097 21.2044 10.842 21.5209 12.0526 21.5209ZM33.1841 24.3692C32.7104 24.3692 32.3947 24.2901 32.1841 24.1055C31.9736 23.9472 31.7894 23.578 31.6315 23.0769L25.4473 2.6901C25.2894 2.16263 25.2104 1.81977 25.2104 1.63515C25.2104 1.21318 25.421 0.975814 25.842 0.975814H28.421C28.921 0.975814 29.2631 1.05494 29.4473 1.23955C29.6578 1.39779 29.8157 1.76702 29.9736 2.26812L34.3947 19.7275L38.4999 2.26812C38.6315 1.74065 38.7894 1.39779 38.9999 1.23955C39.2104 1.08131 39.5789 0.975814 40.0525 0.975814H42.1578C42.6578 0.975814 42.9999 1.05494 43.2104 1.23955C43.421 1.39779 43.6052 1.76702 43.7104 2.26812L47.8683 19.9384L52.421 2.26812C52.5789 1.74065 52.7631 1.39779 52.9473 1.23955C53.1578 1.08131 53.4999 0.975814 53.9736 0.975814H56.421C56.842 0.975814 57.0789 1.1868 57.0789 1.63515C57.0789 1.76702 57.0525 1.89889 57.0262 2.05713C56.9999 2.21537 56.9473 2.42636 56.842 2.71647L50.4999 23.1033C50.342 23.6308 50.1578 23.9736 49.9473 24.1319C49.7368 24.2901 49.3947 24.3956 48.9473 24.3956H46.6841C46.1841 24.3956 45.842 24.3165 45.6315 24.1319C45.421 23.9472 45.2368 23.6044 45.1315 23.0769L41.0526 6.06592L36.9999 23.0505C36.8683 23.578 36.7104 23.9209 36.4999 24.1055C36.2894 24.2901 35.921 24.3692 35.4473 24.3692H33.1841ZM66.9999 25.0813C65.6315 25.0813 64.2631 24.9231 62.9473 24.6066C61.6315 24.2901 60.6052 23.9472 59.921 23.5516C59.4999 23.3143 59.2104 23.0505 59.1052 22.8132C58.9999 22.5758 58.9473 22.3121 58.9473 22.0747V20.7297C58.9473 20.1758 59.1578 19.9121 59.5525 19.9121C59.7104 19.9121 59.8683 19.9385 60.0262 19.9912C60.1841 20.0439 60.421 20.1494 60.6841 20.2549C61.5789 20.6505 62.5526 20.967 63.5789 21.178C64.6315 21.389 65.6578 21.4945 66.7104 21.4945C68.3683 21.4945 69.6578 21.2044 70.5526 20.6242C71.4473 20.0439 71.921 19.2 71.921 18.1187C71.921 17.3802 71.6841 16.7736 71.2104 16.2725C70.7368 15.7714 69.842 15.3231 68.5526 14.9011L64.7368 13.7143C62.8157 13.1077 61.3947 12.211 60.5262 11.0242C59.6578 9.86373 59.2104 8.57142 59.2104 7.19999C59.2104 6.0923 59.4473 5.11647 59.921 4.27252C60.3947 3.42856 61.0262 2.6901 61.8157 2.10988C62.6052 1.50329 63.4999 1.05494 64.5525 0.738452C65.6052 0.421968 66.7104 0.2901 67.8683 0.2901C68.4473 0.2901 69.0526 0.316474 69.6315 0.395595C70.2368 0.474715 70.7894 0.58021 71.342 0.685704C71.8683 0.817573 72.3683 0.949441 72.842 1.10768C73.3157 1.26592 73.6841 1.42417 73.9473 1.58241C74.3157 1.7934 74.5789 2.00439 74.7368 2.24175C74.8947 2.45274 74.9736 2.74285 74.9736 3.11208V4.35164C74.9736 4.90548 74.7631 5.19559 74.3683 5.19559C74.1578 5.19559 73.8157 5.0901 73.3683 4.87911C71.8683 4.1934 70.1841 3.85054 68.3157 3.85054C66.8157 3.85054 65.6315 4.0879 64.8157 4.589C63.9999 5.0901 63.5789 5.85493 63.5789 6.93625C63.5789 7.67471 63.842 8.30768 64.3683 8.80878C64.8947 9.30988 65.8683 9.81098 67.2631 10.2593L70.9999 11.4461C72.8947 12.0527 74.2631 12.8967 75.0789 13.978C75.8946 15.0593 76.2894 16.2989 76.2894 17.6703C76.2894 18.8044 76.0525 19.833 75.6052 20.7297C75.1315 21.6264 74.4999 22.4176 73.6841 23.0505C72.8683 23.7099 71.8947 24.1846 70.7631 24.5275C69.5789 24.8967 68.342 25.0813 66.9999 25.0813Z" fill="white"/>
<path fill-rule="evenodd" clip-rule="evenodd" d="M71.9737 37.8989C63.3158 44.3077 50.7369 47.7099 39.9211 47.7099C24.7632 47.7099 11.1053 42.0923 0.789496 32.7561C-0.0262938 32.0176 0.710548 31.0154 1.68423 31.5956C12.8421 38.0835 26.6053 42.0132 40.8421 42.0132C50.4474 42.0132 61 40.0088 70.7105 35.8945C72.1579 35.2352 73.3948 36.844 71.9737 37.8989Z" fill="#FF8C1A"/>
<path fill-rule="evenodd" clip-rule="evenodd" d="M75.579 33.7846C74.4738 32.3604 68.2632 33.0989 65.4474 33.4418C64.6053 33.5473 64.4738 32.8088 65.2369 32.255C70.1843 28.7736 78.3159 29.7758 79.2632 30.9363C80.2106 32.1231 79.0001 40.2725 74.3685 44.1758C73.658 44.7824 72.9738 44.4659 73.2895 43.6747C74.3422 41.0637 76.6843 35.1824 75.579 33.7846Z" fill="#FF8C1A"/>
</g>
<defs>
<clipPath id="clip0_6298_1236">
<rect width="80" height="48" fill="white"/>
</clipPath>
</defs>
</svg>
