<svg width="167" height="56" viewBox="0 0 167 56" fill="none" xmlns="http://www.w3.org/2000/svg">
<g clip-path="url(#clip0_1178_93185)">
<path d="M141.573 35.3564L141.981 33.9534C142.467 32.2844 142.287 30.7415 141.471 29.608C140.72 28.5639 139.469 27.949 137.949 27.8775L109.169 27.5154C109.08 27.5136 108.992 27.491 108.913 27.4494C108.834 27.4077 108.766 27.3482 108.715 27.2756C108.665 27.2006 108.633 27.115 108.621 27.0255C108.61 26.936 108.62 26.8451 108.65 26.7601C108.7 26.6199 108.789 26.4971 108.908 26.407C109.027 26.3169 109.17 26.2633 109.319 26.2529L138.365 25.8868C141.811 25.7296 145.542 22.9514 146.848 19.5635L148.504 15.2625C148.572 15.0806 148.588 14.8836 148.549 14.6934C146.668 6.28659 139.118 0 130.09 0C121.772 0 114.71 5.33476 112.176 12.7498C110.465 11.473 108.33 10.886 106.201 11.1064C102.211 11.5002 99.0023 14.6928 98.6072 18.6587C98.506 19.649 98.5801 20.6493 98.8267 21.6142C92.3078 21.803 87.0801 27.11 87.0801 33.6337C87.0809 34.216 87.1242 34.7975 87.2096 35.3738C87.2285 35.5068 87.2948 35.6287 87.3966 35.7172C87.4984 35.8058 87.6291 35.8549 87.7642 35.8557L140.897 35.8623C140.902 35.8626 140.907 35.8626 140.912 35.8623C141.063 35.8596 141.208 35.8091 141.327 35.7181C141.446 35.6268 141.532 35.5001 141.573 35.3564Z" fill="#F6821F"/>
<path d="M151.16 15.5742C150.893 15.5742 150.627 15.5809 150.363 15.5942C150.32 15.5972 150.278 15.6064 150.238 15.6213C150.169 15.6448 150.106 15.6848 150.056 15.7376C150.005 15.7905 149.968 15.8547 149.948 15.9248L148.817 19.8089C148.33 21.478 148.511 23.0195 149.328 24.1531C150.078 25.1984 151.329 25.8119 152.848 25.8835L158.984 26.2495C159.07 26.2523 159.155 26.2751 159.231 26.3161C159.306 26.357 159.371 26.415 159.421 26.4854C159.472 26.5608 159.504 26.647 159.515 26.7371C159.527 26.8272 159.517 26.9187 159.486 27.0042C159.436 27.1441 159.347 27.2666 159.228 27.3567C159.11 27.4468 158.967 27.5005 158.819 27.5114L152.444 27.8774C148.983 28.036 145.253 30.8128 143.948 34.2007L143.487 35.3968C143.468 35.4467 143.461 35.5005 143.467 35.5538C143.473 35.607 143.491 35.6583 143.521 35.703C143.55 35.7477 143.59 35.785 143.637 35.8114C143.684 35.8376 143.736 35.8528 143.79 35.855C143.796 35.855 143.801 35.855 143.807 35.855H165.742C165.87 35.8561 165.994 35.8158 166.097 35.74C166.199 35.6641 166.273 35.5574 166.309 35.4354C166.697 34.0575 166.894 32.6332 166.892 31.2021C166.89 22.5717 159.847 15.5742 151.16 15.5742Z" fill="#FBAD41"/>
<path d="M18.5742 42.3145H22.3163V52.4728H28.8557V55.7307H18.5742V42.3145Z" fill="black"/>
<path d="M32.7324 49.0613V49.0233C32.7324 45.1709 35.8572 42.0459 40.0236 42.0459C44.19 42.0459 47.2756 45.1322 47.2756 48.9847V49.0233C47.2756 52.8757 44.1503 55.9987 39.9853 55.9987C35.8203 55.9987 32.7324 52.9138 32.7324 49.0613ZM43.4562 49.0613V49.0233C43.4562 47.09 42.0489 45.4001 39.9853 45.4001C37.9405 45.4001 36.5706 47.0487 36.5706 48.9847V49.0233C36.5706 50.9568 37.9788 52.6459 40.0236 52.6459C42.0872 52.6459 43.4562 50.9973 43.4562 49.0613Z" fill="black"/>
<path d="M51.8555 49.8464V42.3135H55.6554V49.7703C55.6554 51.7035 56.6394 52.6258 58.1432 52.6258C59.6473 52.6258 60.631 51.7444 60.631 49.8658V42.3135H64.4315V49.7485C64.4315 54.0804 61.9437 55.9769 58.1049 55.9769C54.2661 55.9769 51.8555 54.0437 51.8555 49.8445" fill="black"/>
<path d="M70.1582 42.3154H75.366C80.1887 42.3154 82.9853 45.0752 82.9853 48.9463V48.9855C82.9853 52.8561 80.1499 55.7317 75.2894 55.7317H70.1582V42.3154ZM75.4245 52.4335C77.6627 52.4335 79.1465 51.209 79.1465 49.0404V49.0023C79.1465 46.8564 77.6627 45.6101 75.4245 45.6101H73.9004V52.4346L75.4245 52.4335Z" fill="black"/>
<path d="M88.4238 42.3145H99.225V45.5735H92.1661V47.8535H98.5504V50.939H92.1661V55.7307H88.4238V42.3145Z" fill="black"/>
<path d="M104.432 42.3145H108.174V52.4728H114.713V55.7307H104.432V42.3145Z" fill="black"/>
<path d="M124.493 42.2188H128.099L133.847 55.731H129.835L128.851 53.3349H123.643L122.679 55.731H118.744L124.493 42.2188ZM127.771 50.4414L126.267 46.6267L124.743 50.4414H127.771Z" fill="black"/>
<path d="M138.666 42.3135H145.05C147.115 42.3135 148.541 42.8509 149.448 43.7706C150.24 44.5375 150.645 45.575 150.645 46.8955V46.9333C150.645 48.9835 149.542 50.3447 147.867 51.0533L151.088 55.7309H146.766L144.047 51.6669H142.408V55.7309H138.666V42.3135ZM144.877 48.754C146.15 48.754 146.884 48.1405 146.884 47.1629V47.1248C146.884 46.0704 146.112 45.5344 144.857 45.5344H142.408V48.7565L144.877 48.754Z" fill="black"/>
<path d="M156.045 42.3145H166.904V45.4775H159.749V47.5081H166.23V50.4411H159.749V52.5688H167V55.7307H156.045V42.3145Z" fill="black"/>
<path d="M10.382 50.6332C9.858 51.8106 8.75543 52.6445 7.29036 52.6445C5.24483 52.6445 3.83748 50.9579 3.83748 49.0222V48.9836C3.83748 47.05 5.20657 45.399 7.25146 45.399C8.79305 45.399 9.96694 46.3413 10.4624 47.623H14.4069C13.7752 44.4299 10.9514 42.0459 7.29036 42.0459C3.12343 42.0459 0 45.1728 0 49.0222V49.0602C0 52.9127 3.08517 55.9996 7.25146 55.9996C10.8153 55.9996 13.6008 53.7066 14.3356 50.6338L10.382 50.6332Z" fill="black"/>
</g>
<defs>
<clipPath id="clip0_1178_93185">
<rect width="167" height="56" fill="white"/>
</clipPath>
</defs>
</svg>
