<svg width="134" height="48" viewBox="0 0 134 48" fill="none" xmlns="http://www.w3.org/2000/svg">
<g clip-path="url(#clip0_6298_1204)">
<path d="M113.719 29.8263L114.045 28.7151C114.432 27.3933 114.288 26.1713 113.637 25.2735C113.038 24.4466 112.041 23.9596 110.828 23.903L87.873 23.6162C87.8017 23.6148 87.7318 23.5969 87.6689 23.5639C87.6059 23.5309 87.5519 23.4838 87.5107 23.4263C87.4707 23.3669 87.445 23.2991 87.436 23.2282C87.4271 23.1573 87.4351 23.0853 87.4592 23.018C87.4986 22.907 87.57 22.8097 87.6647 22.7384C87.7597 22.667 87.8734 22.6245 87.9924 22.6163L111.161 22.3264C113.909 22.2018 116.885 20.0015 117.926 17.3183L119.247 13.9119C119.302 13.7678 119.314 13.6118 119.283 13.4612C117.783 6.80299 111.761 1.82401 104.56 1.82401C97.9255 1.82401 92.2923 6.04913 90.2717 11.9218C88.9063 10.9106 87.2038 10.4457 85.5058 10.6203C82.3229 10.9322 79.7638 13.4607 79.4487 16.6017C79.3679 17.386 79.427 18.1783 79.6237 18.9424C74.4242 19.092 70.2544 23.2951 70.2544 28.4619C70.2551 28.9231 70.2896 29.3836 70.3577 29.84C70.3728 29.9454 70.4257 30.0419 70.5069 30.1121C70.5881 30.1822 70.6923 30.2211 70.8 30.2217L113.18 30.227C113.184 30.2272 113.188 30.2272 113.192 30.227C113.312 30.2248 113.428 30.1848 113.523 30.1127C113.618 30.0404 113.687 29.9401 113.719 29.8263Z" fill="#F6821F"/>
<path d="M121.365 14.1588C121.153 14.1588 120.941 14.1641 120.73 14.1746C120.696 14.177 120.662 14.1842 120.63 14.1961C120.575 14.2147 120.525 14.2463 120.485 14.2882C120.444 14.3301 120.415 14.3809 120.399 14.4365L119.496 17.5126C119.108 18.8346 119.253 20.0555 119.904 20.9533C120.503 21.7811 121.5 22.267 122.712 22.3237L127.606 22.6136C127.675 22.6159 127.742 22.6339 127.803 22.6663C127.863 22.6988 127.915 22.7447 127.955 22.8004C127.995 22.8601 128.021 22.9284 128.03 22.9998C128.039 23.0712 128.031 23.1436 128.006 23.2113C127.967 23.3221 127.896 23.4192 127.801 23.4905C127.707 23.5618 127.593 23.6044 127.474 23.613L122.39 23.9029C119.629 24.0285 116.654 26.2277 115.613 28.9109L115.246 29.8583C115.23 29.8978 115.225 29.9404 115.229 29.9826C115.234 30.0248 115.249 30.0654 115.272 30.1008C115.296 30.1362 115.328 30.1657 115.365 30.1867C115.402 30.2074 115.444 30.2194 115.487 30.2212C115.492 30.2212 115.496 30.2212 115.501 30.2212H132.997C133.099 30.2221 133.198 30.1902 133.279 30.1301C133.361 30.07 133.42 29.9854 133.448 29.8889C133.758 28.7975 133.915 27.6695 133.914 26.536C133.912 19.7008 128.294 14.1588 121.365 14.1588Z" fill="#FBAD41"/>
<path d="M15.6128 35.337H18.5976V43.3824H23.8135V45.9627H15.6128V35.337Z" fill="#362617"/>
<path d="M26.9055 40.6806V40.6504C26.9055 37.5993 29.3979 35.1244 32.7211 35.1244C36.0443 35.1244 38.5054 37.5687 38.5054 40.6199V40.6504C38.5054 43.7016 36.0126 46.175 32.6905 46.175C29.3684 46.175 26.9055 43.7317 26.9055 40.6806ZM35.459 40.6806V40.6504C35.459 39.1193 34.3365 37.7809 32.6905 37.7809C31.0596 37.7809 29.967 39.0865 29.967 40.6199V40.6504C29.967 42.1818 31.0901 43.5196 32.7211 43.5196C34.3671 43.5196 35.459 42.2139 35.459 40.6806Z" fill="#362617"/>
<path d="M42.1584 41.3024V35.3363H45.1894V41.2421C45.1894 42.7732 45.9742 43.5036 47.1737 43.5036C48.3734 43.5036 49.158 42.8055 49.158 41.3177V35.3363H52.1893V41.2248C52.1893 44.6557 50.205 46.1577 47.1431 46.1577C44.0813 46.1577 42.1584 44.6266 42.1584 41.3009" fill="#362617"/>
<path d="M56.7571 35.3378H60.9109C64.7576 35.3378 66.9882 37.5235 66.9882 40.5895V40.6205C66.9882 43.6861 64.7267 45.9635 60.8498 45.9635H56.7571V35.3378ZM60.9576 43.3513C62.7428 43.3513 63.9263 42.3815 63.9263 40.664V40.6339C63.9263 38.9343 62.7428 37.9472 60.9576 37.9472H59.742V43.3522L60.9576 43.3513Z" fill="#362617"/>
<path d="M71.3262 35.337H79.9414V37.9182H74.3111V39.7239H79.4033V42.1677H74.3111V45.9627H71.3262V35.337Z" fill="#362617"/>
<path d="M84.0942 35.337H87.0789V43.3824H92.2948V45.9627H84.0942V35.337Z" fill="#362617"/>
<path d="M100.096 35.2613H102.972L107.557 45.963H104.357L103.572 44.0652H99.4174L98.6487 45.963H95.5103L100.096 35.2613ZM102.71 41.7736L101.51 38.7524L100.295 41.7736H102.71Z" fill="#362617"/>
<path d="M111.4 35.3363H116.492C118.139 35.3363 119.277 35.7619 120 36.4903C120.632 37.0977 120.954 37.9194 120.954 38.9653V38.9952C120.954 40.619 120.075 41.697 118.739 42.2582L121.308 45.9628H117.861L115.692 42.7442H114.385V45.9628H111.4V35.3363ZM116.354 40.4372C117.37 40.4372 117.955 39.9513 117.955 39.177V39.1468C117.955 38.3118 117.339 37.8873 116.338 37.8873H114.385V40.4392L116.354 40.4372Z" fill="#362617"/>
<path d="M125.262 35.337H133.923V37.8422H128.216V39.4504H133.386V41.7733H128.216V43.4585H134V45.9627H125.262V35.337Z" fill="#362617"/>
<path d="M9.0785 41.9255C8.66053 42.858 7.78111 43.5185 6.61253 43.5185C4.98098 43.5185 3.85845 42.1827 3.85845 40.6496V40.619C3.85845 39.0876 4.95047 37.78 6.58151 37.78C7.81111 37.78 8.74742 38.5264 9.14265 39.5414H12.2888C11.785 37.0125 9.53268 35.1244 6.61253 35.1244C3.28891 35.1244 0.797607 37.6009 0.797607 40.6496V40.6797C0.797607 43.7308 3.2584 46.1757 6.58151 46.1757C9.42406 46.1757 11.6458 44.3596 12.2319 41.9259L9.0785 41.9255Z" fill="#362617"/>
</g>
<defs>
<clipPath id="clip0_6298_1204">
<rect width="134" height="48" fill="white"/>
</clipPath>
</defs>
</svg>
