<svg width="168" height="80" viewBox="0 0 168 80" fill="none" xmlns="http://www.w3.org/2000/svg">
<g clip-path="url(#clip0_1178_93185)">
<path d="M142.573 47.3564L142.981 45.9534C143.467 44.2844 143.287 42.7415 142.471 41.608C141.72 40.5639 140.469 39.949 138.949 39.8775L110.169 39.5154C110.08 39.5136 109.992 39.491 109.913 39.4494C109.834 39.4077 109.766 39.3482 109.715 39.2756C109.665 39.2006 109.633 39.115 109.621 39.0255C109.61 38.936 109.62 38.8451 109.65 38.7601C109.7 38.6199 109.789 38.4971 109.908 38.407C110.027 38.3169 110.17 38.2633 110.319 38.2529L139.365 37.8868C142.811 37.7296 146.542 34.9514 147.848 31.5635L149.504 27.2625C149.572 27.0806 149.588 26.8836 149.549 26.6934C147.668 18.2866 140.118 12 131.09 12C122.772 12 115.71 17.3348 113.176 24.7498C111.465 23.473 109.33 22.886 107.201 23.1064C103.211 23.5002 100.002 26.6928 99.6072 30.6587C99.506 31.649 99.5801 32.6493 99.8267 33.6142C93.3078 33.803 88.0801 39.11 88.0801 45.6337C88.0809 46.216 88.1242 46.7975 88.2096 47.3738C88.2285 47.5068 88.2948 47.6287 88.3966 47.7172C88.4984 47.8058 88.6291 47.8549 88.7642 47.8557L141.897 47.8623C141.902 47.8626 141.907 47.8626 141.912 47.8623C142.063 47.8596 142.208 47.8091 142.327 47.7181C142.446 47.6268 142.532 47.5001 142.573 47.3564Z" fill="#F6821F"/>
<path d="M152.16 27.5742C151.893 27.5742 151.627 27.5809 151.363 27.5942C151.32 27.5972 151.278 27.6064 151.238 27.6213C151.169 27.6448 151.106 27.6848 151.056 27.7376C151.005 27.7905 150.968 27.8547 150.948 27.9248L149.817 31.8089C149.33 33.478 149.511 35.0195 150.328 36.1531C151.078 37.1984 152.329 37.8119 153.848 37.8835L159.984 38.2495C160.07 38.2523 160.155 38.2751 160.231 38.3161C160.306 38.357 160.371 38.415 160.421 38.4854C160.472 38.5608 160.504 38.647 160.515 38.7371C160.527 38.8272 160.517 38.9187 160.486 39.0042C160.436 39.1441 160.347 39.2666 160.228 39.3567C160.11 39.4468 159.967 39.5005 159.819 39.5114L153.444 39.8774C149.983 40.036 146.253 42.8128 144.948 46.2007L144.487 47.3968C144.468 47.4467 144.461 47.5005 144.467 47.5538C144.473 47.607 144.491 47.6583 144.521 47.703C144.55 47.7477 144.59 47.785 144.637 47.8114C144.684 47.8376 144.736 47.8528 144.79 47.855C144.796 47.855 144.801 47.855 144.807 47.855H166.742C166.87 47.8561 166.994 47.8158 167.097 47.74C167.199 47.6641 167.273 47.5574 167.309 47.4354C167.697 46.0575 167.894 44.6332 167.892 43.2021C167.89 34.5717 160.847 27.5742 152.16 27.5742Z" fill="#FBAD41"/>
<path d="M19.5742 54.3145H23.3163V64.4728H29.8557V67.7307H19.5742V54.3145Z" fill="black"/>
<path d="M33.7324 61.0613V61.0233C33.7324 57.1709 36.8572 54.0459 41.0236 54.0459C45.19 54.0459 48.2756 57.1322 48.2756 60.9847V61.0233C48.2756 64.8757 45.1503 67.9987 40.9853 67.9987C36.8203 67.9987 33.7324 64.9138 33.7324 61.0613ZM44.4562 61.0613V61.0233C44.4562 59.09 43.0489 57.4001 40.9853 57.4001C38.9405 57.4001 37.5706 59.0487 37.5706 60.9847V61.0233C37.5706 62.9568 38.9788 64.6459 41.0236 64.6459C43.0872 64.6459 44.4562 62.9973 44.4562 61.0613Z" fill="black"/>
<path d="M52.8555 61.8464V54.3135H56.6554V61.7703C56.6554 63.7035 57.6394 64.6258 59.1432 64.6258C60.6473 64.6258 61.631 63.7444 61.631 61.8658V54.3135H65.4315V61.7485C65.4315 66.0804 62.9437 67.9769 59.1049 67.9769C55.2661 67.9769 52.8555 66.0437 52.8555 61.8445" fill="black"/>
<path d="M71.1582 54.3154H76.366C81.1887 54.3154 83.9853 57.0752 83.9853 60.9463V60.9855C83.9853 64.8561 81.1499 67.7317 76.2894 67.7317H71.1582V54.3154ZM76.4245 64.4335C78.6627 64.4335 80.1465 63.209 80.1465 61.0404V61.0023C80.1465 58.8564 78.6627 57.6101 76.4245 57.6101H74.9004V64.4346L76.4245 64.4335Z" fill="black"/>
<path d="M89.4238 54.3145H100.225V57.5735H93.1661V59.8535H99.5504V62.939H93.1661V67.7307H89.4238V54.3145Z" fill="black"/>
<path d="M105.432 54.3145H109.174V64.4728H115.713V67.7307H105.432V54.3145Z" fill="black"/>
<path d="M125.493 54.2188H129.099L134.847 67.731H130.835L129.851 65.3349H124.643L123.679 67.731H119.744L125.493 54.2188ZM128.771 62.4414L127.267 58.6267L125.743 62.4414H128.771Z" fill="black"/>
<path d="M139.666 54.3135H146.05C148.115 54.3135 149.541 54.8509 150.448 55.7706C151.24 56.5375 151.645 57.575 151.645 58.8955V58.9333C151.645 60.9835 150.542 62.3447 148.867 63.0533L152.088 67.7309H147.766L145.047 63.6669H143.408V67.7309H139.666V54.3135ZM145.877 60.754C147.15 60.754 147.884 60.1405 147.884 59.1629V59.1248C147.884 58.0704 147.112 57.5344 145.857 57.5344H143.408V60.7565L145.877 60.754Z" fill="black"/>
<path d="M157.045 54.3145H167.904V57.4775H160.749V59.5081H167.23V62.4411H160.749V64.5688H168V67.7307H157.045V54.3145Z" fill="black"/>
<path d="M11.382 62.6332C10.858 63.8106 9.75543 64.6445 8.29036 64.6445C6.24483 64.6445 4.83748 62.9579 4.83748 61.0222V60.9836C4.83748 59.05 6.20657 57.399 8.25146 57.399C9.79305 57.399 10.9669 58.3413 11.4624 59.623H15.4069C14.7752 56.4299 11.9514 54.0459 8.29036 54.0459C4.12343 54.0459 1 57.1728 1 61.0222V61.0602C1 64.9127 4.08517 67.9996 8.25146 67.9996C11.8153 67.9996 14.6008 65.7066 15.3356 62.6338L11.382 62.6332Z" fill="black"/>
</g>
<defs>
<clipPath id="clip0_1178_93185">
<rect width="168" height="80" fill="white"/>
</clipPath>
</defs>
</svg>
