<svg width="158" height="56" viewBox="0 0 158 56" fill="none" xmlns="http://www.w3.org/2000/svg">
<g clip-path="url(#clip0_1113_92494)">
<path d="M9.72129 34.0988C8.88676 33.2721 8.22658 32.2919 7.77855 31.2144C7.33052 30.1369 7.10345 28.9832 7.11034 27.8194C7.10731 26.6556 7.34067 25.5029 7.79677 24.4287C8.25288 23.3545 8.92258 22.3804 9.76671 21.5632C10.1283 21.2477 10.4205 20.8631 10.6254 20.4329C10.8303 20.0027 10.9436 19.536 10.9583 19.0613C10.9731 18.5866 10.8889 18.114 10.7111 17.6723C10.5333 17.2307 10.2655 16.8293 9.92416 16.4928C9.58281 16.1562 9.17508 15.8916 8.72593 15.7152C8.27677 15.5387 7.79566 15.4541 7.31203 15.4665C6.82841 15.4789 6.35245 15.5881 5.91331 15.7874C5.47417 15.9866 5.08108 16.2718 4.75811 16.6254C1.72453 19.5856 0.0130373 23.6075 7.41753e-05 27.8063C-0.012889 32.0051 1.67374 36.0371 4.68899 39.0153C5.0109 39.3684 5.4027 39.6534 5.84049 39.853C6.27829 40.0526 6.75291 40.1626 7.23542 40.1763C7.71794 40.19 8.19823 40.1071 8.64703 39.9326C9.09583 39.7581 9.50373 39.4957 9.84587 39.1615C10.188 38.8272 10.4572 38.4281 10.6371 37.9883C10.8169 37.5486 10.9037 37.0776 10.892 36.6039C10.8804 36.1301 10.7705 35.6637 10.5693 35.2331C10.368 34.8024 10.0795 34.4164 9.72129 34.0988Z" fill="#FFDA00"/>
<path d="M9.76588 21.5632C11.4671 19.9101 13.7666 18.9864 16.1604 18.9948C18.5543 19.0032 20.847 19.9428 22.5362 21.6078C22.857 21.9646 23.2488 22.2533 23.6874 22.456C24.126 22.6587 24.6022 22.7712 25.0867 22.7866C25.5713 22.802 26.0539 22.72 26.505 22.5455C26.956 22.3711 27.3659 22.1079 27.7095 21.7722C28.0532 21.4365 28.3232 21.0353 28.503 20.5934C28.6829 20.1515 28.7688 19.6781 28.7554 19.2024C28.742 18.7267 28.6296 18.2587 28.4252 17.8272C28.2207 17.3957 27.9285 17.0098 27.5666 16.6933C26.0791 15.2143 24.3086 14.0383 22.3568 13.2329C20.405 12.4276 18.3103 12.0086 16.1931 12.0001C14.0758 11.9917 11.9778 12.3939 10.0193 13.1836C8.0609 13.9734 6.28071 15.1351 4.78098 16.6021C4.41808 16.916 4.12424 17.2993 3.91745 17.7285C3.71067 18.1577 3.59528 18.6238 3.57835 19.0983C3.56142 19.5728 3.64331 20.0457 3.81901 20.488C3.9947 20.9304 4.26051 21.3329 4.60016 21.6709C4.93981 22.009 5.34615 22.2754 5.79433 22.4539C6.2425 22.6325 6.72308 22.7194 7.20665 22.7093C7.69022 22.6992 8.1666 22.5924 8.60665 22.3953C9.0467 22.1983 9.44116 21.9151 9.76588 21.5632Z" fill="#67B3FF"/>
<path d="M22.5157 34.1436C21.6738 34.9645 20.6753 35.6142 19.5772 36.0556C18.4792 36.4971 17.3032 36.7216 16.1167 36.7163C14.9304 36.718 13.7557 36.4874 12.6614 36.038C11.567 35.5886 10.575 34.9294 9.74335 34.099C9.42194 33.7441 9.03011 33.4573 8.59185 33.2562C8.15359 33.055 7.67813 32.9438 7.19456 32.9294C6.71099 32.9149 6.22951 32.9975 5.77958 33.172C5.32966 33.3466 4.92076 33.6094 4.57793 33.9445C4.2351 34.2796 3.96555 34.6798 3.78578 35.1207C3.60602 35.5616 3.51982 36.0339 3.53246 36.5086C3.54511 36.9833 3.65634 37.4505 3.85933 37.8816C4.06233 38.3127 4.35282 38.6985 4.71302 39.0156C6.20308 40.4944 7.97581 41.6701 9.9296 42.4752C11.8834 43.2803 13.9799 43.699 16.0988 43.7073C18.2178 43.7155 20.3175 43.3133 22.2778 42.5235C24.2381 41.7337 26.0203 40.5719 27.5223 39.1047C27.8542 38.782 28.118 38.3983 28.2988 37.9756C28.4796 37.5528 28.5738 37.0992 28.576 36.6406C28.5782 36.1821 28.4883 35.7277 28.3116 35.3032C28.1349 34.8788 27.8747 34.4926 27.546 34.1669C27.2173 33.8411 26.8264 33.5821 26.3957 33.4047C25.965 33.2272 25.5029 33.1348 25.0357 33.1326C24.5686 33.1304 24.1057 33.2186 23.6733 33.3921C23.2409 33.5656 22.8475 33.8209 22.5157 34.1436Z" fill="#EB5A68"/>
<path d="M9.7665 21.5631C9.26823 22.0517 8.63337 22.3839 7.94244 22.5178C7.25152 22.6516 6.53567 22.581 5.88569 22.3148C5.23572 22.0487 4.68091 21.5991 4.29165 21.023C3.90238 20.4469 3.6962 19.7703 3.69925 19.079C3.70231 18.3877 3.91446 17.7129 4.3088 17.1401C4.70315 16.5674 5.26191 16.1225 5.91421 15.8619C6.56651 15.6013 7.28296 15.5368 7.97267 15.6765C8.66239 15.8162 9.29429 16.1539 9.78823 16.6466C10.4463 17.3031 10.8133 18.1883 10.8092 19.1093C10.8051 20.0302 10.4303 20.9123 9.7665 21.5631Z" fill="#47A1FF"/>
<path d="M9.69715 39.0153C9.19868 39.5036 8.56368 39.8356 7.8727 39.9692C7.18173 40.1028 6.4659 40.0319 5.81604 39.7655C5.16617 39.4991 4.61154 39.0493 4.22251 38.473C3.83348 37.8968 3.62757 37.2201 3.6309 36.5288C3.63423 35.8375 3.84666 35.1628 4.24123 34.5901C4.6358 34.0175 5.19474 33.5729 5.84714 33.3125C6.49955 33.0522 7.21602 32.988 7.90568 33.1279C8.59534 33.2679 9.22711 33.6058 9.72085 34.0988C10.3786 34.7555 10.7453 35.6408 10.7408 36.5618C10.7364 37.4828 10.3612 38.3647 9.69715 39.0153Z" fill="#D5465F"/>
<path d="M43.387 31.2393C44.412 30.4794 44.5483 30.9039 45.4133 31.7531C45.8459 32.1777 47.0289 32.9163 46.2547 33.5405C44.6391 34.8356 43.1816 35.4172 41.1197 35.4172C36.4528 35.3959 33.1525 31.976 33.4172 27.4395C33.5298 25.4077 34.3494 23.4846 35.9669 22.1663C37.4462 20.9371 39.2889 20.4021 41.2244 20.4466C42.173 20.4439 43.1128 20.6257 43.9894 20.9817C44.5831 21.1922 45.1426 21.486 45.6503 21.8541C46.6754 22.6296 46.1974 23.0833 45.3995 23.8646C45.2178 24.0429 45.0361 24.2232 44.8761 24.4016C44.4673 24.8029 44.1928 25.0937 43.6477 24.7137C42.6009 23.9983 41.2777 23.6183 40.0275 23.9382C35.9985 24.9425 36.1802 31.9818 41.1217 32.0051C41.9408 31.9945 42.7349 31.7261 43.387 31.2393ZM155.383 35.5044C155.222 35.5052 155.061 35.4746 154.912 35.4143C154.762 35.3539 154.627 35.2652 154.512 35.1531C154.398 35.041 154.307 34.9078 154.246 34.7611C154.184 34.6144 154.152 34.4572 154.153 34.2986L154.222 18.7018C154.221 18.5432 154.252 18.3859 154.314 18.2392C154.375 18.0924 154.466 17.959 154.58 17.8468C154.694 17.7345 154.83 17.6455 154.979 17.585C155.129 17.5244 155.289 17.4935 155.45 17.494H156.772C156.934 17.4935 157.094 17.5245 157.243 17.5851C157.393 17.6458 157.529 17.7349 157.643 17.8474C157.757 17.9599 157.848 18.0935 157.909 18.2405C157.97 18.3875 158.001 18.5449 158 18.7038L157.931 34.3005C157.932 34.4591 157.901 34.6162 157.839 34.7629C157.778 34.9095 157.687 35.0428 157.573 35.1549C157.459 35.267 157.323 35.3558 157.174 35.4162C157.024 35.4765 156.864 35.5072 156.703 35.5064L155.383 35.5044ZM148.471 33.6956C147.037 35.014 145.67 35.7061 143.644 35.7061C139.548 35.6828 137.589 32.3541 137.589 28.6221L137.612 22.2768C137.612 22.1182 137.643 21.9611 137.705 21.8145C137.767 21.668 137.857 21.5349 137.972 21.4229C138.086 21.311 138.222 21.2224 138.372 21.1623C138.521 21.1022 138.681 21.0718 138.843 21.0728H140.164C140.326 21.0721 140.486 21.1027 140.635 21.1631C140.784 21.2234 140.92 21.3122 141.034 21.4243C141.149 21.5364 141.239 21.6697 141.301 21.8163C141.362 21.963 141.393 22.1201 141.392 22.2787L141.371 28.624C141.371 30.7023 142.508 32.3327 144.74 32.3327C146.972 32.3327 148.337 30.5007 148.358 28.4554V26.189C148.34 26.101 148.333 26.0112 148.337 25.9215L148.358 22.3233C148.357 22.1647 148.389 22.0076 148.45 21.8609C148.512 21.7143 148.602 21.581 148.716 21.4689C148.831 21.3568 148.966 21.268 149.116 21.2077C149.265 21.1473 149.425 21.1167 149.587 21.1174H150.89C151.052 21.1167 151.212 21.1473 151.361 21.2077C151.511 21.268 151.646 21.3568 151.761 21.4689C151.875 21.581 151.965 21.7143 152.027 21.8609C152.088 22.0076 152.119 22.1647 152.119 22.3233L152.075 34.3005C152.072 34.6174 151.941 34.9202 151.711 35.1423C151.48 35.3643 151.17 35.4876 150.847 35.4851H149.731C149.414 35.4753 149.113 35.3474 148.889 35.1273C148.664 34.9073 148.534 34.6116 148.524 34.3005L148.471 33.6956ZM132.756 21.1174H135.305C135.467 21.1197 135.627 21.1534 135.775 21.2165C135.923 21.2796 136.058 21.3709 136.17 21.4852C136.282 21.5995 136.37 21.7344 136.429 21.8823C136.487 22.0301 136.516 22.1879 136.512 22.3466V23.1724C136.51 23.4908 136.38 23.7955 136.151 24.021C135.922 24.2465 135.612 24.3748 135.288 24.3783H132.732L132.687 34.2327C132.687 34.3913 132.656 34.5486 132.595 34.6953C132.533 34.8421 132.443 34.9755 132.329 35.0877C132.214 35.2 132.079 35.289 131.929 35.3495C131.78 35.4101 131.62 35.441 131.458 35.4405H130.139C129.977 35.441 129.817 35.4101 129.667 35.3496C129.518 35.2891 129.382 35.2001 129.268 35.0878C129.153 34.9756 129.063 34.8422 129.001 34.6955C128.939 34.5487 128.908 34.3914 128.908 34.2327L128.954 20.6037C128.954 17.6317 130.684 15.2839 133.781 15.0164C133.872 15.0164 133.939 14.9951 134.03 14.9951C134.212 14.9834 134.395 14.9834 134.577 14.9951H135.762C135.923 14.9973 136.083 15.0309 136.231 15.0939C136.379 15.1569 136.513 15.2481 136.625 15.3621C136.737 15.4762 136.825 15.6109 136.884 15.7585C136.943 15.9062 136.972 16.0637 136.968 16.2222V16.9822C136.966 17.3016 136.836 17.6073 136.606 17.8333C136.377 18.0593 136.065 18.1875 135.74 18.19H134.784C133.327 18.19 132.712 19.2834 132.689 20.625L132.756 21.1174ZM123.606 21.0728H126.4C126.723 21.0759 127.031 21.2046 127.258 21.4307C127.484 21.6568 127.61 21.9618 127.607 22.2787V23.1046C127.604 23.4215 127.473 23.7242 127.242 23.9463C127.012 24.1684 126.701 24.2917 126.378 24.2891H123.582L123.56 30.3184C123.56 31.4817 124.129 32.1505 125.312 32.1505H125.881C126.204 32.1541 126.512 32.2832 126.738 32.5096C126.965 32.736 127.09 33.0412 127.087 33.3583V34.1958C127.084 34.5126 126.953 34.815 126.722 35.037C126.492 35.259 126.182 35.3824 125.859 35.3804H124.789C124.591 35.3842 124.393 35.3765 124.196 35.3571C121.168 35.1632 119.825 33.2362 119.825 30.3301C119.849 26.4197 119.849 22.5327 119.871 18.6223C119.872 18.4653 119.905 18.31 119.968 18.1655C120.031 18.0209 120.122 17.8899 120.236 17.7799C120.35 17.6699 120.486 17.5831 120.634 17.5244C120.782 17.4657 120.941 17.4363 121.101 17.4378H122.399C122.722 17.4409 123.03 17.5696 123.256 17.7957C123.483 18.0218 123.608 18.3267 123.606 18.6437V21.0728ZM83.1181 20.9158H85.9127C86.2355 20.9189 86.5439 21.0476 86.7702 21.2737C86.9964 21.4998 87.122 21.8048 87.1194 22.1217V22.9514C87.1158 23.2682 86.9845 23.5706 86.7543 23.7926C86.5241 24.0146 86.2137 24.138 85.891 24.136H83.0865V30.1672C83.0865 31.3304 83.6553 31.9993 84.8383 31.9993H85.4091C85.5688 32.0008 85.7267 32.0332 85.8737 32.0946C86.0208 32.1561 86.154 32.2453 86.2659 32.3573C86.3778 32.4693 86.4661 32.6018 86.5258 32.7472C86.5855 32.8927 86.6154 33.0483 86.6138 33.2052V34.031C86.6107 34.3479 86.4796 34.6507 86.2492 34.8728C86.0189 35.0949 85.7082 35.2182 85.3854 35.2156H84.544C81.2418 35.1943 79.33 33.8081 79.33 30.175C79.3537 26.2646 79.3537 22.3756 79.3754 18.4653C79.3791 18.1482 79.5107 17.8455 79.7413 17.6234C79.9719 17.4014 80.2828 17.2782 80.6059 17.2808H81.9034C82.2263 17.2843 82.5345 17.4135 82.7604 17.64C82.9863 17.8665 83.1114 18.1717 83.1082 18.4886L83.1181 20.9158ZM66.6841 22.6141C68.0271 21.385 69.4846 20.6037 71.3727 20.6037C75.4709 20.625 77.5881 23.8994 77.5644 27.6857L77.5426 34.031C77.5432 34.1898 77.5117 34.3471 77.45 34.4938C77.3884 34.6406 77.2978 34.774 77.1834 34.8862C77.0691 34.9985 76.9332 35.0874 76.7837 35.1479C76.6342 35.2085 76.4739 35.2394 76.3122 35.2388H74.9929C74.8312 35.2394 74.671 35.2085 74.5214 35.1479C74.3719 35.0874 74.2361 34.9985 74.1217 34.8862C74.0074 34.774 73.9167 34.6406 73.8551 34.4938C73.7934 34.3471 73.762 34.1898 73.7625 34.031L73.7862 27.7303C73.7862 25.652 72.6486 24.0216 70.4168 24.0216C68.1851 24.0216 66.8204 25.8323 66.7986 27.8873L66.7749 34.031C66.7718 34.3479 66.6407 34.6507 66.4104 34.8728C66.18 35.0949 65.8693 35.2182 65.5465 35.2156H64.2489C63.9261 35.2125 63.6177 35.0838 63.3914 34.8577C63.1652 34.6316 63.0396 34.3266 63.0422 34.0097C63.0639 30.1886 63.0639 26.3461 63.0876 22.5249V22.0112C63.0887 21.6946 63.2175 21.3913 63.4459 21.1679C63.6743 20.9444 63.9837 20.8189 64.3062 20.8189H65.4221C65.7391 20.8281 66.0406 20.9559 66.2649 21.1761C66.4892 21.3962 66.6194 21.6922 66.6288 22.0034L66.6841 22.6141ZM107.249 22.7692C108.592 21.542 110.047 20.7588 111.937 20.7588C116.035 20.782 118.151 24.0662 118.129 27.8427L118.105 34.1958C118.106 34.3545 118.075 34.5117 118.013 34.6585C117.952 34.8053 117.861 34.9386 117.747 35.0509C117.633 35.1632 117.497 35.2522 117.348 35.3127C117.199 35.3732 117.038 35.4041 116.877 35.4036H115.557C115.396 35.4041 115.235 35.3732 115.086 35.3127C114.936 35.2522 114.801 35.1633 114.686 35.051C114.572 34.9388 114.481 34.8054 114.42 34.6586C114.358 34.5119 114.326 34.3546 114.327 34.1958L114.351 27.8951C114.351 25.8168 113.211 24.1864 110.981 24.1864C108.752 24.1864 107.385 25.9952 107.361 28.0521L107.33 34.1958C107.326 34.5129 107.194 34.8156 106.964 35.0377C106.733 35.2597 106.422 35.3829 106.099 35.3804H104.802C104.479 35.3768 104.171 35.2478 103.945 35.0218C103.72 34.7958 103.594 34.4911 103.597 34.1745L103.642 22.174C103.643 22.0163 103.675 21.8602 103.737 21.7148C103.799 21.5693 103.89 21.4374 104.005 21.3266C104.119 21.2158 104.255 21.1282 104.404 21.069C104.553 21.0099 104.712 20.9802 104.873 20.9817H105.989C106.307 20.992 106.609 21.1215 106.833 21.3436C107.057 21.5657 107.186 21.8635 107.193 22.176L107.249 22.7692ZM54.291 20.4912C49.8512 20.468 46.7109 23.6183 46.6872 27.9532C46.6655 32.3327 49.7603 35.4405 54.2455 35.4618C58.7308 35.4831 61.871 32.4006 61.8927 27.992C61.9164 23.6862 58.7071 20.5126 54.291 20.4912ZM91.1445 29.4519C91.4624 31.4623 93.4216 32.2882 95.3334 32.3114C96.2918 32.3032 97.2378 32.0978 98.1103 31.7085C98.2506 31.6524 98.3871 31.5876 98.5191 31.5146C98.9753 31.2684 99.3842 31.1133 99.795 31.5146C100.022 31.7376 100.227 31.9625 100.455 32.1621C100.669 32.3631 100.867 32.5802 101.047 32.8116C101.661 33.5696 101.229 33.7499 100.524 34.2191C99.0208 35.202 97.0635 35.6925 95.2643 35.6925C90.4394 35.6712 87.2517 32.7845 87.2517 28.0075C87.2754 23.4923 90.4611 20.499 95.0589 20.5203C99.7495 20.5436 102.412 23.248 102.481 27.8505C102.503 29.101 102.548 29.5042 101.229 29.5042L91.1445 29.4519ZM54.291 23.8646C56.5899 23.8646 58.1146 25.8323 58.1146 27.9998C58.1146 30.2564 56.6807 32.071 54.2673 32.071C51.8538 32.071 50.4437 30.239 50.4437 27.9823C50.4437 25.7257 51.9012 23.8646 54.291 23.8646ZM91.2452 26.3461L98.8035 26.3674C98.529 24.5121 96.9589 23.7754 95.1616 23.7754C93.3644 23.7754 91.8041 24.6032 91.2452 26.3461Z" fill="white"/>
</g>
<defs>
<clipPath id="clip0_1113_92494">
<rect width="158" height="56" fill="white"/>
</clipPath>
</defs>
</svg>
