<svg width="120" height="120" viewBox="0 0 120 120" fill="none" xmlns="http://www.w3.org/2000/svg">
<path d="M41.7602 58.2049C49.0124 58.2049 54.8914 52.3259 54.8914 45.0737C54.8914 37.8215 49.0124 31.9424 41.7602 31.9424C34.508 31.9424 28.6289 37.8215 28.6289 45.0737C28.6289 52.3259 34.508 58.2049 41.7602 58.2049Z" fill="#159CF4"/>
<path d="M39.012 76.1911C45.494 76.1911 50.7487 70.9364 50.7487 64.4544C50.7487 57.9724 45.494 52.7178 39.012 52.7178C32.5301 52.7178 27.2754 57.9724 27.2754 64.4544C27.2754 70.9364 32.5301 76.1911 39.012 76.1911Z" fill="white"/>
<path d="M68.7106 76.8322C80.2727 76.8322 89.6457 67.4592 89.6457 55.8971C89.6457 44.3349 80.2727 34.9619 68.7106 34.9619C57.1484 34.9619 47.7754 44.3349 47.7754 55.8971C47.7754 67.4592 57.1484 76.8322 68.7106 76.8322Z" fill="white"/>
<path d="M70.9247 64.5254H39.0117V76.1937H70.9247V64.5254Z" fill="white"/>
<path d="M47.0052 58.5173C49.1364 58.5173 50.864 56.7897 50.864 54.6586C50.864 52.5274 49.1364 50.7998 47.0052 50.7998C44.8741 50.7998 43.1465 52.5274 43.1465 54.6586C43.1465 56.7897 44.8741 58.5173 47.0052 58.5173Z" fill="white"/>
<path fill-rule="evenodd" clip-rule="evenodd" d="M84.9508 45.3052C81.4187 39.9817 75.3708 36.4719 68.5033 36.4719C58.4652 36.4719 50.9205 44.0606 49.9107 50.5302C49.683 51.9881 49.1207 52.9444 48.156 53.9666C47.3642 54.4849 46.7558 54.6068 46.0395 54.4849C45.5528 54.4023 45.1407 54.2289 44.6812 54.0357C43.781 53.6574 42.699 53.2027 40.5205 53.2027C34.4133 53.2027 29.4625 58.1534 29.4625 64.2606C29.4625 70.3677 34.4133 75.3186 40.5205 75.3186H53.7405C53.8082 77.2271 54.0598 79.0889 54.4785 80.8864H40.5212C31.3503 80.8864 23.916 73.4521 23.916 64.2814C23.916 55.1106 31.3503 47.6762 40.5212 47.6762C41.8775 47.6762 43.1958 47.8387 44.4578 48.1456C47.7912 38.2296 57.1622 31.0869 68.2015 31.0869C78.6223 31.0869 87.5567 37.4519 91.3288 46.5062C89.2895 45.8782 87.1543 45.4689 84.9508 45.3052Z" fill="url(#paint0_linear_1178_93169)"/>
<path d="M45.4457 26.6405C47.4814 26.6405 49.1317 24.9902 49.1317 22.9545C49.1317 20.9188 47.4814 19.2686 45.4457 19.2686C43.41 19.2686 41.7598 20.9188 41.7598 22.9545C41.7598 24.9902 43.41 26.6405 45.4457 26.6405Z" fill="#159BF3"/>
<path d="M19.645 48.7567C21.6807 48.7567 23.3309 47.1064 23.3309 45.0707C23.3309 43.035 21.6807 41.3848 19.645 41.3848C17.6092 41.3848 15.959 43.035 15.959 45.0707C15.959 47.1064 17.6092 48.7567 19.645 48.7567Z" fill="#159BF3"/>
<path d="M27.018 30.3338C29.0537 30.3338 30.704 28.6836 30.704 26.6479C30.704 24.6122 29.0537 22.9619 27.018 22.9619C24.9823 22.9619 23.332 24.6122 23.332 26.6479C23.332 28.6836 24.9823 30.3338 27.018 30.3338Z" fill="#159BF3"/>
<path d="M101.376 74.6195H89.709V77.9528H97.709C96.5423 82.9528 92.8757 87.1195 88.0423 88.7861L68.8757 69.6195C70.8757 63.7861 76.5423 59.6195 83.0423 59.6195C88.0423 59.6195 92.5423 62.1195 95.3757 65.9528L97.8757 63.7861C94.5423 59.2861 89.209 56.2861 83.0423 56.2861C74.3757 56.2861 67.0423 62.4528 65.209 70.6195L87.209 92.6195C95.209 90.6195 101.376 83.2861 101.376 74.6195Z" fill="white"/>
<path d="M64.709 74.7861C64.709 79.4528 66.5423 83.9528 70.0423 87.4528C73.5423 90.9528 78.209 92.7861 82.709 92.7861L64.709 74.7861Z" fill="white"/>
<path d="M83.0423 51.2861C70.209 51.2861 59.709 61.7861 59.709 74.6195C59.709 87.4528 70.209 97.9528 83.0423 97.9528C95.8756 97.9528 106.376 87.4528 106.376 74.6195C106.376 61.7861 95.8756 51.2861 83.0423 51.2861ZM70.0423 87.6195C66.5423 84.1195 64.709 79.4528 64.709 74.9528L82.8756 92.9528C78.209 92.7861 73.5423 91.1195 70.0423 87.6195ZM87.0423 92.4528L65.209 70.6195C67.0423 62.4528 74.3756 56.2861 83.0423 56.2861C89.209 56.2861 94.5423 59.2861 97.8756 63.7861L95.3756 65.9528C92.5423 62.1195 88.0423 59.6195 83.0423 59.6195C76.5423 59.6195 71.0423 63.7861 68.8756 69.6195L88.0423 88.7861C92.8756 87.1195 96.5423 82.9528 97.709 77.9528H89.709V74.6195H101.376C101.376 83.2861 95.209 90.6195 87.0423 92.4528Z" fill="#663399"/>
<defs>
<linearGradient id="paint0_linear_1178_93169" x1="90.7628" y1="44.5286" x2="51.4435" y2="44.5286" gradientUnits="userSpaceOnUse">
<stop stop-color="#663399"/>
<stop offset="1" stop-color="#159BF3"/>
</linearGradient>
</defs>
</svg>
