<svg width="120" height="80" viewBox="0 0 120 80" fill="none" xmlns="http://www.w3.org/2000/svg">
<path d="M41.7602 39.9364C49.0124 39.9364 54.8914 34.0573 54.8914 26.8051C54.8914 19.5529 49.0124 13.6738 41.7602 13.6738C34.508 13.6738 28.6289 19.5529 28.6289 26.8051C28.6289 34.0573 34.508 39.9364 41.7602 39.9364Z" fill="#159CF4"/>
<path d="M39.012 57.9225C45.494 57.9225 50.7487 52.6678 50.7487 46.1859C50.7487 39.7039 45.494 34.4492 39.012 34.4492C32.5301 34.4492 27.2754 39.7039 27.2754 46.1859C27.2754 52.6678 32.5301 57.9225 39.012 57.9225Z" fill="white"/>
<path d="M68.7106 58.5637C80.2727 58.5637 89.6457 49.1907 89.6457 37.6285C89.6457 26.0663 80.2727 16.6934 68.7106 16.6934C57.1484 16.6934 47.7754 26.0663 47.7754 37.6285C47.7754 49.1907 57.1484 58.5637 68.7106 58.5637Z" fill="white"/>
<path d="M70.9247 46.2568H39.0117V57.9251H70.9247V46.2568Z" fill="white"/>
<path d="M47.0052 40.2488C49.1364 40.2488 50.864 38.5211 50.864 36.39C50.864 34.2589 49.1364 32.5312 47.0052 32.5312C44.8741 32.5312 43.1465 34.2589 43.1465 36.39C43.1465 38.5211 44.8741 40.2488 47.0052 40.2488Z" fill="white"/>
<path fill-rule="evenodd" clip-rule="evenodd" d="M84.9508 27.0367C81.4187 21.7132 75.3708 18.2034 68.5033 18.2034C58.4652 18.2034 50.9205 25.792 49.9107 32.2617C49.683 33.7195 49.1207 34.6759 48.156 35.698C47.3642 36.2164 46.7558 36.3382 46.0395 36.2164C45.5528 36.1337 45.1407 35.9604 44.6812 35.7672C43.781 35.3889 42.699 34.9342 40.5205 34.9342C34.4133 34.9342 29.4625 39.8849 29.4625 45.992C29.4625 52.0992 34.4133 57.05 40.5205 57.05H53.7405C53.8082 58.9585 54.0598 60.8204 54.4785 62.6179H40.5212C31.3503 62.6179 23.916 55.1835 23.916 46.0129C23.916 36.842 31.3503 29.4077 40.5212 29.4077C41.8775 29.4077 43.1958 29.5702 44.4578 29.877C47.7912 19.961 57.1622 12.8184 68.2015 12.8184C78.6223 12.8184 87.5567 19.1834 91.3288 28.2377C89.2895 27.6097 87.1543 27.2004 84.9508 27.0367Z" fill="url(#paint0_linear_1178_93169)"/>
<path d="M45.4457 8.37194C47.4814 8.37194 49.1317 6.72167 49.1317 4.68597C49.1317 2.65026 47.4814 1 45.4457 1C43.41 1 41.7598 2.65026 41.7598 4.68597C41.7598 6.72167 43.41 8.37194 45.4457 8.37194Z" fill="#159BF3"/>
<path d="M19.645 30.4881C21.6807 30.4881 23.3309 28.8379 23.3309 26.8022C23.3309 24.7665 21.6807 23.1162 19.645 23.1162C17.6092 23.1162 15.959 24.7665 15.959 26.8022C15.959 28.8379 17.6092 30.4881 19.645 30.4881Z" fill="#159BF3"/>
<path d="M27.018 12.0653C29.0537 12.0653 30.704 10.415 30.704 8.37933C30.704 6.34362 29.0537 4.69336 27.018 4.69336C24.9823 4.69336 23.332 6.34362 23.332 8.37933C23.332 10.415 24.9823 12.0653 27.018 12.0653Z" fill="#159BF3"/>
<path d="M101.376 56.3509H89.709V59.6842H97.709C96.5423 64.6842 92.8757 68.8509 88.0423 70.5176L68.8757 51.3509C70.8757 45.5176 76.5423 41.3509 83.0423 41.3509C88.0423 41.3509 92.5423 43.8509 95.3757 47.6842L97.8757 45.5176C94.5423 41.0176 89.209 38.0176 83.0423 38.0176C74.3757 38.0176 67.0423 44.1842 65.209 52.3509L87.209 74.3509C95.209 72.3509 101.376 65.0176 101.376 56.3509Z" fill="white"/>
<path d="M64.709 56.5176C64.709 61.1842 66.5423 65.6842 70.0423 69.1842C73.5423 72.6842 78.209 74.5176 82.709 74.5176L64.709 56.5176Z" fill="white"/>
<path d="M83.0423 33.0176C70.209 33.0176 59.709 43.5176 59.709 56.3509C59.709 69.1842 70.209 79.6842 83.0423 79.6842C95.8756 79.6842 106.376 69.1842 106.376 56.3509C106.376 43.5176 95.8756 33.0176 83.0423 33.0176ZM70.0423 69.3509C66.5423 65.8509 64.709 61.1842 64.709 56.6842L82.8756 74.6842C78.209 74.5176 73.5423 72.8509 70.0423 69.3509ZM87.0423 74.1842L65.209 52.3509C67.0423 44.1842 74.3756 38.0176 83.0423 38.0176C89.209 38.0176 94.5423 41.0176 97.8756 45.5176L95.3756 47.6842C92.5423 43.8509 88.0423 41.3509 83.0423 41.3509C76.5423 41.3509 71.0423 45.5176 68.8756 51.3509L88.0423 70.5176C92.8756 68.8509 96.5423 64.6842 97.709 59.6842H89.709V56.3509H101.376C101.376 65.0176 95.209 72.3509 87.0423 74.1842Z" fill="#663399"/>
<defs>
<linearGradient id="paint0_linear_1178_93169" x1="90.7628" y1="26.26" x2="51.4435" y2="26.26" gradientUnits="userSpaceOnUse">
<stop stop-color="#663399"/>
<stop offset="1" stop-color="#159BF3"/>
</linearGradient>
</defs>
</svg>
