<svg width="142" height="36" viewBox="0 0 142 36" fill="none" xmlns="http://www.w3.org/2000/svg">
<mask id="mask0_6298_1409" style="mask-type:luminance" maskUnits="userSpaceOnUse" x="0" y="0" width="142" height="36">
<path d="M142 0H0V36H142V0Z" fill="white"/>
</mask>
<g mask="url(#mask0_6298_1409)">
<path d="M37.1501 27.2968V0.0358276H41.4638V10.7805C42.8213 8.79309 44.8626 7.80395 47.5783 7.80395C49.8965 7.80395 51.6885 8.47548 52.9538 9.82765C54.219 11.1707 54.8566 13.0492 54.8566 15.4541V27.2968H50.5429V16.044C50.5429 12.9312 49.13 11.3794 46.3035 11.3794C44.8903 11.3794 43.7358 11.7969 42.8305 12.6318C41.9256 13.4666 41.473 14.6464 41.473 16.1619V27.2968H37.1501Z" fill="#020203"/>
<path d="M75.2304 24.9464C73.3092 26.8249 70.8983 27.7687 67.9983 27.7687C65.098 27.7687 62.6783 26.8249 60.7478 24.9464C58.8173 23.0679 57.8474 20.6721 57.8474 17.7682C57.8474 14.8642 58.8173 12.4775 60.7478 10.6081C62.6783 8.73863 65.098 7.80389 67.9983 7.80389C70.8983 7.80389 73.3092 8.73863 75.2304 10.6081C77.1513 12.4775 78.1027 14.8642 78.1027 17.7682C78.112 20.6721 77.1513 23.0588 75.2304 24.9464ZM63.9066 22.5506C64.9318 23.7303 66.2989 24.3111 67.9983 24.3111C69.707 24.3111 71.0648 23.7213 72.0901 22.5506C73.1153 21.3709 73.6233 19.7827 73.6326 17.7682C73.6326 15.7807 73.1153 14.2017 72.0716 13.022C71.0371 11.8422 69.67 11.2523 67.9983 11.2614C66.2894 11.2614 64.9318 11.8422 63.9066 13.0038C62.8813 14.1654 62.3641 15.7535 62.3641 17.7682C62.3733 19.7827 62.8813 21.3799 63.9066 22.5506Z" fill="#020203"/>
<path d="M88.0973 27.7688C84.1255 27.7688 82.1396 25.6815 82.1396 21.498V11.8514H79.147V8.28501H82.2596L83.2572 2.67673H86.4898V8.28501H94.2022V11.8514H86.4898V21.38C86.4898 23.1315 87.1459 24.0118 88.448 24.0118C89.6767 24.0118 90.7758 22.9137 91.7641 20.7176L95.1167 22.4055C93.4819 25.981 91.1357 27.7688 88.0973 27.7688Z" fill="#020203"/>
<path d="M96.5195 36.0087C94.5982 36.0087 93.0188 35.4824 91.7625 34.4388L93.3603 31.1083C94.1363 31.9977 94.9678 32.4423 95.8727 32.4423C97.0736 32.4423 97.6739 31.68 97.6739 30.1645V8.27591H101.987V30.2371C101.987 32.279 101.47 33.7491 100.445 34.6475C99.4287 35.555 98.1173 35.9997 96.5195 36.0087ZM99.8352 5.06338C99.1241 5.09062 98.4404 4.83653 97.9139 4.35554C97.6647 4.12868 97.4705 3.84735 97.3413 3.52974C97.2121 3.2121 97.1475 2.8854 97.1567 2.54963C97.1475 2.21386 97.2121 1.86902 97.3413 1.56048C97.4705 1.24286 97.6647 0.96154 97.9139 0.725596C98.4312 0.262775 99.1149 -0.000396729 99.826 -0.000396729C100.528 -0.000396729 101.212 0.262775 101.738 0.725596C101.987 0.96154 102.19 1.24285 102.329 1.5514C102.468 1.86902 102.532 2.20479 102.523 2.54963C102.532 2.8854 102.468 3.21212 102.329 3.52067C102.19 3.82921 101.996 4.10144 101.747 4.32833C101.498 4.56426 101.202 4.75484 100.87 4.8728C100.528 5.00893 100.186 5.06338 99.8352 5.06338Z" fill="#020203"/>
<path d="M112.702 27.7687C110.494 27.7687 108.702 27.2242 107.326 26.1443C105.95 25.0553 105.266 23.6033 105.266 21.7702C105.266 20.1005 105.978 18.6757 107.4 17.5141C108.822 16.3525 110.614 15.7717 112.775 15.7717C114.983 15.7717 116.849 16.4614 118.373 17.8499V15.5358C118.373 14.1745 118.022 13.1219 117.311 12.3777C116.608 11.6336 115.602 11.2615 114.29 11.2615C111.658 11.2615 110.014 12.5774 109.376 15.2181L105.423 14.3923C105.959 12.3505 107.012 10.7442 108.582 9.56448C110.152 8.38476 112.111 7.80399 114.456 7.80399C117.015 7.80399 119.028 8.46645 120.506 9.78231C121.984 11.1072 122.723 13.0311 122.723 15.563V27.2878H118.53V24.892C117.126 26.8159 115.186 27.7687 112.702 27.7687ZM113.505 24.6288C115.426 24.6288 117.052 23.685 118.382 21.8065V21.2167C117.052 19.6467 115.426 18.8662 113.505 18.8662C112.387 18.8662 111.482 19.1385 110.79 19.6739C110.466 19.9099 110.199 20.2184 110.014 20.5814C109.829 20.9353 109.746 21.3346 109.746 21.7339C109.737 22.1332 109.82 22.5416 109.995 22.9046C110.171 23.2676 110.438 23.5852 110.762 23.8302C111.445 24.3656 112.36 24.6288 113.505 24.6288Z" fill="#020203"/>
<path d="M126.938 27.2968V8.27586H131.131V11.57C132.193 9.16522 134.032 7.95825 136.646 7.95825C138.188 7.95825 139.472 8.45734 140.478 9.44652C141.494 10.4357 141.993 11.7697 141.993 13.4485C141.984 14.4468 141.809 15.445 141.476 16.3888L137.523 15.9986C137.606 15.4813 137.662 14.955 137.68 14.4286C137.68 12.4685 136.858 11.4884 135.205 11.4884C134.087 11.4884 133.145 12.0692 132.388 13.2308C131.63 14.3923 131.252 15.926 131.252 17.8408V27.2968H126.938Z" fill="#020203"/>
<path d="M10.2062 11.1889C13.4205 9.43741 17.8262 7.03259 17.8262 0.0449219H12.4968C12.4968 3.9562 10.5572 5.01796 7.62001 6.61512C4.40575 8.36658 0 10.7714 0 17.7591H5.32939C5.32939 13.8478 7.26902 12.7861 10.2062 11.1889Z" fill="#E73C1F"/>
<path d="M19.4331 9.58267C19.4331 13.4939 17.4934 14.5557 14.5563 16.1529C11.342 17.9043 6.93628 20.3092 6.93628 27.2968H12.2656C12.2656 23.3856 14.2053 22.3238 17.1425 20.7266C20.3567 18.9752 24.7625 16.5703 24.7625 9.58267H19.4331Z" fill="#E73C1F"/>
</g>
</svg>
