<svg width="122" height="34" viewBox="0 0 122 34" fill="none" xmlns="http://www.w3.org/2000/svg">
<g clip-path="url(#clip0_6298_1326)">
<path d="M13.2127 19.2426H4.25418V28.5205H0V5.62799H4.25418V15.2189H13.2127V5.62799H17.466V28.5205H13.2127V19.2426Z" fill="#213343"/>
<path d="M31.0779 21.1212C31.0779 23.0278 29.4981 24.5792 27.5592 24.5792C25.6198 24.5792 24.041 23.0278 24.041 21.1212V11.3161H20.0127V21.1212C20.0127 25.2119 23.3981 28.5394 27.5592 28.5394C31.7195 28.5394 35.1049 25.2119 35.1049 21.1212V11.3161H31.0779V21.1212Z" fill="#213343"/>
<path d="M60.9696 12.3257C60.9696 10.3153 62.323 9.67786 63.8048 9.67786C64.998 9.67786 66.5768 10.5706 67.6069 11.6554L70.2487 8.59383C68.9286 6.84028 66.2543 5.62799 64.063 5.62799C59.6798 5.62799 56.5217 8.14762 56.5217 12.3257C56.5217 20.075 66.1576 17.6186 66.1576 21.9569C66.1576 23.2948 64.8368 24.4758 63.3227 24.4758C60.9373 24.4758 60.1635 23.3277 59.0683 22.1157L56.1353 25.1129C58.0054 27.3773 60.3249 28.5261 63.0965 28.5261C67.2535 28.5261 70.6051 25.9747 70.6051 21.9877C70.6051 13.3774 60.9696 16.0566 60.9696 12.3257Z" fill="#213343"/>
<path d="M120.581 24.8635C118.197 24.8635 117.521 23.8502 117.521 22.2972V15.4227H121.226V11.9381H117.521V7.34369L113.429 9.14932V23.1528C113.429 26.7332 115.942 28.5394 119.389 28.5394C119.904 28.5394 120.614 28.5067 121.001 28.4127L122 24.8013C121.549 24.8319 121.034 24.8635 120.581 24.8635Z" fill="#213343"/>
<path d="M46.433 11.4308C44.4348 11.4308 43.0401 12.0011 41.6931 13.3008V5.76471H37.6519V19.7314C37.6519 24.9591 41.4962 28.5394 45.8158 28.5394C50.6175 28.5394 54.8247 24.8954 54.8247 19.9855C54.8247 15.1378 50.9452 11.4308 46.433 11.4308ZM46.4078 24.5408C43.8762 24.5408 41.8242 22.5233 41.8242 20.0346C41.8242 17.5459 43.8762 15.5283 46.4078 15.5283C48.9392 15.5283 50.9913 17.5459 50.9913 20.0346C50.9913 22.5233 48.9392 24.5408 46.4078 24.5408Z" fill="#213343"/>
<path d="M90.3071 19.7792C90.3071 14.8693 86.1 11.2253 81.2982 11.2253C76.9787 11.2253 73.1343 14.8056 73.1343 20.0333V34H77.1755V26.4639C78.5225 27.7637 79.9172 28.3339 81.9154 28.3339C86.4276 28.3339 90.3071 24.627 90.3071 19.7792ZM86.4737 19.7301C86.4737 22.2188 84.4216 24.2364 81.8903 24.2364C79.3586 24.2364 77.3066 22.2188 77.3066 19.7301C77.3066 17.2414 79.3586 15.2239 81.8903 15.2239C84.4216 15.2239 86.4737 17.2414 86.4737 19.7301Z" fill="#213343"/>
<path d="M103.366 11.0328V7.04194C104.425 6.54982 105.168 5.49598 105.168 4.27289V4.18067C105.168 2.49287 103.763 1.11189 102.046 1.11189H101.952C100.236 1.11189 98.8308 2.49287 98.8308 4.18067V4.27289C98.8308 5.49597 99.5734 6.54998 100.633 7.04202V11.0329C99.0553 11.2725 97.6138 11.9122 96.4244 12.8536L85.2789 4.32969C85.3522 4.0521 85.4037 3.76611 85.404 3.46599C85.4065 1.55423 83.8322 0.00247485 81.8876 2.76554e-06C79.943 -0.00238786 78.3646 1.54543 78.3621 3.45719C78.3597 5.36895 79.934 6.9207 81.8787 6.9231C82.5124 6.92387 83.0989 6.74692 83.6131 6.45945L94.577 14.8446C93.6445 16.2283 93.0985 17.8858 93.0985 19.67C93.0985 21.5381 93.6986 23.2658 94.7131 24.687L91.3788 27.9651C91.1152 27.8874 90.8416 27.833 90.5521 27.833C88.9542 27.833 87.6587 29.1065 87.6587 30.6775C87.6587 32.2485 88.9542 33.522 90.5521 33.522C92.1501 33.522 93.4454 32.2485 93.4454 30.6775C93.4454 30.3931 93.3901 30.124 93.311 29.8648L96.6092 26.6223C98.1063 27.7459 99.9705 28.4208 101.999 28.4208C106.915 28.4208 110.9 24.5029 110.9 19.67C110.9 15.295 107.631 11.6805 103.366 11.0328ZM101.999 24.1564C99.4792 24.1564 97.4358 22.1478 97.4358 19.67C97.4358 17.1922 99.4792 15.1836 101.999 15.1836C104.52 15.1836 106.563 17.1922 106.563 19.67C106.563 22.1478 104.52 24.1564 101.999 24.1564Z" fill="#FF5C35"/>
</g>
<defs>
<clipPath id="clip0_6298_1326">
<rect width="122" height="34" fill="white"/>
</clipPath>
</defs>
</svg>
