<svg width="130" height="48" viewBox="0 0 130 48" fill="none" xmlns="http://www.w3.org/2000/svg">
<path fill-rule="evenodd" clip-rule="evenodd" d="M21.02 10.6022C21.0233 13.1133 20.1412 15.5423 18.5343 17.4473L20.7643 48H0.811429L2.97429 17.9811C1.06767 16.0165 -0.00107974 13.3656 8.18574e-07 10.6036C8.18574e-07 4.74473 4.70429 0 10.51 0C16.3171 0 21.02 4.74473 21.02 10.6022Z" fill="#1CC691"/>
<path d="M10.5101 13.0167C11.9058 13.0167 13.0372 11.8634 13.0372 10.4407C13.0372 9.01803 11.9058 7.86472 10.5101 7.86472C9.11435 7.86472 7.98291 9.01803 7.98291 10.4407C7.98291 11.8634 9.11435 13.0167 10.5101 13.0167Z" fill="white"/>
<path fill-rule="evenodd" clip-rule="evenodd" d="M12.5057 22.2371V39.5927H9.04565V25.76L12.5057 22.2371Z" fill="white"/>
<path fill-rule="evenodd" clip-rule="evenodd" d="M51.1688 33.2756C49.8202 34.7578 48.4973 35.6902 47.7888 36.0727C47.0972 36.4512 46.324 36.6486 45.5388 36.6473C44.6573 36.6473 43.8931 36.3898 43.2459 35.872C42.6055 35.3651 42.1345 34.6691 41.8973 33.8793C41.6459 33.0647 41.5202 31.9156 41.5202 30.4276V23.7047C41.5202 23.536 41.5202 22.7985 41.0688 22.5702C40.9512 22.5242 40.8274 22.4967 40.7016 22.4887C40.6367 22.4816 40.5767 22.4503 40.5329 22.401C40.4892 22.3516 40.4648 22.2876 40.4645 22.2211L40.4602 21.4429C40.4602 21.2931 40.5773 21.1709 40.7245 21.1694H43.6188C44.0359 21.1694 44.3731 21.5142 44.3731 21.9374V25.936H44.3702V30.8814C44.3702 32.368 44.6259 33.344 45.1345 33.808C45.6445 34.2734 46.2602 34.5062 46.9816 34.5062C47.4731 34.5062 48.0316 34.3476 48.6559 34.0349C49.2788 33.7207 50.3145 33.1244 51.1731 32.2429L51.1745 31.4894H51.1759L51.1859 24.3913V23.7033C51.1859 23.536 51.1859 22.7985 50.7388 22.5702C50.625 22.5246 50.505 22.4971 50.3831 22.4887C50.3187 22.4809 50.2593 22.4494 50.2161 22.4001C50.173 22.3508 50.149 22.2871 50.1488 22.2211L50.1431 21.4429C50.1431 21.2931 50.2602 21.1709 50.4073 21.1694H53.2602C53.6716 21.1694 54.0059 21.5098 54.0059 21.9287V24.5047C54.0079 24.5221 54.0089 24.5396 54.0088 24.5571V29.8705C54.0088 31.1025 54.0088 32.2342 54.0059 33.2684H54.0031L54.0059 33.6684C54.0059 33.8371 53.9859 34.6458 54.4345 34.8742C54.5487 34.9198 54.6692 34.9472 54.7916 34.9556C54.9259 34.9702 55.0273 35.0865 55.0288 35.2233L55.0331 36.0044C55.0334 36.04 55.0269 36.0754 55.0138 36.1084C55.0007 36.1415 54.9813 36.1716 54.9568 36.197C54.9322 36.2224 54.9029 36.2427 54.8707 36.2565C54.8384 36.2704 54.8038 36.2776 54.7688 36.2778H51.9073C51.7096 36.2778 51.5199 36.1978 51.38 36.0554C51.2402 35.913 51.1616 35.7199 51.1616 35.5185V35.5156L51.1673 34.0684H51.1645L51.1688 33.2756ZM56.9259 18.6807L56.9245 16.6793C56.9245 16.5178 56.9245 15.808 56.4888 15.5898C56.4335 15.5628 56.3755 15.5419 56.3159 15.5273C56.2585 15.5127 56.2075 15.479 56.171 15.4316C56.1345 15.3842 56.1146 15.3257 56.1145 15.2654L56.1102 14.5149C56.1098 14.4793 56.1164 14.444 56.1295 14.411C56.1426 14.378 56.162 14.348 56.1866 14.3227C56.2112 14.2974 56.2404 14.2774 56.2727 14.2637C56.3049 14.25 56.3395 14.2429 56.3745 14.2429H58.9445C59.3445 14.2429 59.6702 14.5731 59.6702 14.9818L59.6645 18.8291V23.7687C61.1359 21.7105 62.7216 20.6822 64.4259 20.6822C65.9859 20.6822 67.3459 21.3513 68.5088 22.6924C69.6688 24.0334 70.2502 25.8647 70.2502 28.1905C70.2502 30.9033 69.3545 33.0894 67.5616 34.7462C66.0245 36.1702 64.3102 36.8814 62.4188 36.8814C61.5331 36.8814 60.6345 36.7214 59.7231 36.3971C58.8878 36.0944 58.0882 35.6983 57.3388 35.216C57.2127 35.1359 57.1088 35.0244 57.0368 34.8921C56.9648 34.7597 56.9272 34.6109 56.9273 34.4596V19.7367C56.9273 19.4604 56.9273 19.1098 56.9245 18.6822L56.9259 18.6807ZM59.9202 34.2211C60.4045 34.6574 60.9031 34.9978 61.4145 35.2393C62.0173 35.5214 62.6345 35.664 63.2645 35.664C64.2716 35.664 65.2088 35.1069 66.0773 33.9956C66.9459 32.8829 67.3802 31.2654 67.3802 29.1404C67.3802 27.184 66.9459 25.6785 66.0773 24.6284C65.2088 23.5767 64.2216 23.0516 63.1159 23.0516C62.5302 23.0516 61.9431 23.2014 61.3573 23.5025C60.9688 23.6974 60.4859 24.064 59.9102 24.6022C59.8327 24.6747 59.7708 24.7628 59.7285 24.861C59.6862 24.9591 59.6644 25.0652 59.6645 25.1724V33.6407C59.6645 33.8618 59.7573 34.0727 59.9202 34.2211ZM89.7688 31.6247V24.9716C91.0716 23.5491 92.9473 22.8378 94.2602 22.8378C95.1102 22.8378 95.7145 23.1462 96.0731 23.7658C96.4302 24.384 96.6102 25.376 96.6102 26.7447V31.6247H96.6059V35.5127C96.6059 35.92 96.9302 36.2502 97.3302 36.2502H99.3445C99.5116 36.2502 99.7231 36.2487 99.9802 36.2444C100.05 36.2432 100.117 36.2138 100.166 36.1625C100.215 36.1113 100.242 36.0424 100.242 35.9709L100.237 35.2218C100.237 35.1571 100.214 35.0947 100.172 35.0459C100.131 34.997 100.073 34.965 100.01 34.9556C99.9298 34.9458 99.8513 34.9238 99.7774 34.8902C99.3445 34.6705 99.3445 33.9549 99.3445 33.7905V31.7716H99.3416V26.48C99.3416 25.1229 99.2202 24.1164 98.9774 23.4604C98.6245 22.5193 98.1488 21.8429 97.5545 21.4327C96.9588 21.0225 96.2473 20.8174 95.4188 20.8174C93.9045 20.8174 91.7474 21.7556 90.0874 23.632C90.0826 23.6378 90.0778 23.6436 90.0731 23.6494C90.0495 23.6763 90.0184 23.6953 89.984 23.7037C89.9496 23.7122 89.9135 23.7098 89.8804 23.6969C89.8474 23.6839 89.819 23.661 89.7991 23.6312C89.7791 23.6015 89.7686 23.5662 89.7688 23.5302V22.9382V22.9411V21.8574C89.7688 21.7616 89.7502 21.6666 89.7142 21.578C89.6781 21.4894 89.6253 21.4089 89.5587 21.3411C89.4921 21.2733 89.4131 21.2195 89.3261 21.1828C89.2391 21.1461 89.1458 21.1273 89.0516 21.1273H86.5259C86.4909 21.1273 86.4562 21.1343 86.4239 21.148C86.3916 21.1617 86.3622 21.1817 86.3375 21.207C86.3128 21.2323 86.2933 21.2623 86.28 21.2953C86.2668 21.3283 86.26 21.3636 86.2602 21.3993L86.2645 22.1513C86.2654 22.2109 86.2853 22.2686 86.3211 22.3158C86.3568 22.3629 86.4067 22.3971 86.4631 22.4131C86.5191 22.4269 86.5737 22.4464 86.6259 22.4713C87.0545 22.6894 87.0545 23.3978 87.0545 23.5607V23.5956C87.0512 23.7566 87.0512 23.9176 87.0545 24.0785V25.5578H87.0574C87.0488 26.1062 87.0373 26.7127 87.0373 27.3178V32.8989C87.0373 32.9023 87.0373 32.9057 87.0373 32.9091V33.7833C87.0373 33.9462 87.0374 34.6604 86.6045 34.88C86.5018 34.9221 86.3934 34.9481 86.2831 34.9571C86.2189 34.9652 86.1599 34.9969 86.117 35.0461C86.0742 35.0954 86.0504 35.1589 86.0502 35.2247L86.0445 35.9636C86.0445 36.1134 86.1616 36.2356 86.3088 36.2371H89.0459C89.4459 36.2371 89.7688 35.9069 89.7688 35.5011V31.6233V31.6247ZM128.099 32.5454V33.5534C128.101 33.6233 128.103 33.6931 128.106 33.7629C128.137 34.2269 128.28 34.5222 128.532 34.6502C128.595 34.6807 128.663 34.7032 128.732 34.7171C128.791 34.73 128.844 34.7629 128.882 34.8105C128.92 34.8581 128.941 34.9175 128.942 34.9789L128.946 35.7353C128.946 35.7708 128.939 35.806 128.926 35.8389C128.913 35.8718 128.894 35.9017 128.869 35.927C128.845 35.9522 128.815 35.9723 128.783 35.9861C128.751 35.9999 128.717 36.0071 128.682 36.0073H126.09C125.898 36.0073 125.715 35.9297 125.579 35.7917C125.444 35.6537 125.367 35.4665 125.367 35.2713V33.8327C123.807 35.0676 122.829 35.7818 122.43 35.9738C121.833 36.2569 121.181 36.402 120.522 36.3985C119.47 36.3985 118.604 36.0291 117.924 35.2931C117.243 34.5571 116.903 33.5898 116.903 32.3883C116.903 31.6291 117.069 30.9731 117.402 30.4174C117.854 29.6465 118.536 28.768 119.766 28.2429C120.996 27.7193 122.049 27.5985 125.367 26.8305V25.4618C125.354 24.0073 125.126 22.5265 122.762 22.672C121.123 22.7684 119.543 23.3225 118.193 24.2734C118.153 24.3013 118.106 24.3175 118.058 24.3202C118.01 24.323 117.962 24.3123 117.919 24.2893C117.876 24.2662 117.84 24.2317 117.815 24.1894C117.79 24.1471 117.777 24.0987 117.777 24.0494V23.1622C117.777 22.6938 117.866 22.3884 118.042 22.2429C119.019 21.4414 121.433 20.4829 123.787 20.6458C126.399 20.8247 127.339 21.9345 127.809 23.6276C127.952 24.1454 128.107 24.5236 128.107 26.0305V30.672C128.107 31.3251 128.104 31.9491 128.099 32.544V32.5454ZM125.369 27.9956C123.314 28.4262 122.132 28.6938 121.822 28.8C120.676 29.1898 119.767 29.6364 119.693 31.5884C119.662 32.4029 119.932 33.0807 120.407 33.6189C120.883 34.1571 121.43 34.4262 122.05 34.4262C122.82 34.4262 123.81 33.8327 125.026 32.8844C125.132 32.8009 125.219 32.6936 125.278 32.5708C125.338 32.448 125.369 32.3129 125.369 32.176V27.9956ZM114.459 33.7134V33.7207C114.459 33.8793 114.459 34.5716 114.877 34.784C114.924 34.8087 114.98 34.8276 115.046 34.8451C115.163 34.8742 115.246 34.9818 115.246 35.1069L115.252 35.8284C115.252 35.8639 115.245 35.8991 115.232 35.932C115.219 35.9649 115.199 35.9948 115.175 36.0201C115.15 36.0453 115.121 36.0654 115.089 36.0792C115.057 36.093 115.022 36.1002 114.987 36.1003H112.51C112.325 36.1003 112.147 36.0253 112.015 35.8916C111.884 35.7579 111.81 35.5767 111.81 35.3876V34.6865L111.802 34.6894C111.083 35.4705 110.38 36.0305 109.693 36.3709C109.006 36.7113 108.264 36.8814 107.47 36.8814C105.86 36.8814 104.456 36.1818 103.253 34.7811C102.05 33.3818 101.449 31.5811 101.449 29.3847C101.449 27.1869 102.114 25.1753 103.446 23.3513C104.776 21.5273 106.489 20.6167 108.582 20.6167C109.882 20.6167 110.953 21.0458 111.802 21.904V16.5469C111.802 16.384 111.802 15.6742 111.382 15.4545C111.334 15.4305 111.285 15.411 111.234 15.3964C111.179 15.38 111.131 15.346 111.096 15.2993C111.062 15.2526 111.043 15.1959 111.043 15.1374L111.04 14.3753C111.04 14.2254 111.157 14.1033 111.304 14.1018H113.754C114.143 14.1018 114.457 14.4218 114.457 14.8174V33.6684L114.459 33.7134ZM109.94 23.0065C109.41 22.688 108.892 22.5294 108.387 22.5294C107.443 22.5294 106.582 22.9425 105.812 23.7484C104.962 24.6356 104.394 25.8313 104.394 28.0625C104.394 30.3171 104.866 32.0422 105.812 33.2407C106.754 34.4407 107.807 35.0414 108.967 35.0414C109.794 35.0414 110.599 34.6778 111.38 33.9476C111.513 33.8237 111.619 33.6731 111.691 33.5053C111.763 33.3376 111.8 33.1563 111.8 32.9731V26.3185C111.8 25.6496 111.629 24.9922 111.302 24.4115C110.976 23.8309 110.507 23.3456 109.94 23.0065ZM73.3088 34.8727C72.1088 33.4822 71.4831 31.2596 71.4831 29.0545C71.4831 26.7273 72.1931 24.5978 73.4831 23.0604C74.8245 21.4574 76.6602 20.6109 78.7902 20.6109C80.5959 20.6109 81.9716 21.2393 82.8802 22.4771C83.7288 23.6334 84.1588 25.2873 84.1588 27.3934C84.1588 27.648 84.1445 28.0044 84.1131 28.4596C84.104 28.5969 84.0441 28.7255 83.9454 28.8195C83.8468 28.9134 83.7167 28.9657 83.5816 28.9658H74.3331C74.3126 28.9658 74.2924 28.9698 74.2735 28.9778C74.2546 28.9858 74.2375 28.9976 74.2231 29.0124C74.2091 29.027 74.1981 29.0443 74.1908 29.0633C74.1834 29.0822 74.1798 29.1025 74.1802 29.1229C74.2116 30.8538 74.7516 32.3156 75.7402 33.3527C76.7116 34.3724 78.0459 34.9105 79.5973 34.9105C80.7545 34.9105 82.2702 34.6022 83.4402 34.24C83.4933 34.2233 83.5498 34.2214 83.6039 34.2345C83.6579 34.2475 83.7076 34.2751 83.7476 34.3143C83.7877 34.3534 83.8168 34.4028 83.8318 34.4573C83.8468 34.5117 83.8473 34.5693 83.8331 34.624L83.6759 35.2407C83.6476 35.3521 83.5959 35.456 83.5244 35.5451C83.4528 35.6343 83.3632 35.7066 83.2616 35.7571C82.1045 36.3302 80.3745 36.8814 78.5959 36.8814C76.4359 36.8814 74.5802 36.3447 73.3088 34.8727ZM74.0759 26.9614C74.0742 26.982 74.0772 27.0026 74.0846 27.0218C74.0921 27.041 74.1038 27.0582 74.1188 27.072C74.1334 27.0868 74.1508 27.0986 74.1699 27.1066C74.1891 27.1145 74.2095 27.1186 74.2302 27.1185H81.6588C81.7373 27.1185 81.8045 27.0604 81.8116 26.9876C81.8974 26.1934 81.9302 24.7578 80.7716 23.536C80.2002 22.9338 79.5116 22.6284 78.1859 22.6284C75.8716 22.6284 74.3331 24.9571 74.0759 26.9629V26.9614Z" fill="#5A5A5A"/>
<path fill-rule="evenodd" clip-rule="evenodd" d="M96.6158 31.7149V33.7542C96.6158 33.92 96.6158 34.6414 96.1844 34.8654C96.1682 34.8733 96.1515 34.8801 96.1344 34.8858C95.9881 34.9378 95.8612 35.0346 95.7712 35.163C95.6811 35.2915 95.6323 35.4451 95.6315 35.6029C95.6312 35.6862 95.647 35.7688 95.678 35.8459C95.7091 35.923 95.7548 35.9931 95.8125 36.0522C95.8703 36.1112 95.9389 36.1581 96.0145 36.1901C96.0901 36.2221 96.1711 36.2385 96.253 36.2385H98.6158C98.7103 36.2387 98.8039 36.2199 98.8913 36.1832C98.9786 36.1466 99.058 36.0927 99.1249 36.0247C99.1917 35.9568 99.2448 35.8761 99.281 35.7872C99.3172 35.6983 99.3358 35.6031 99.3358 35.5069V31.5651L96.6158 31.7149ZM89.7715 31.7149V33.7542C89.7715 33.92 89.7715 34.6414 90.2015 34.8654C90.2182 34.8734 90.2354 34.8802 90.253 34.8858C90.553 34.9934 90.753 35.2785 90.7544 35.6029C90.7548 35.6861 90.739 35.7686 90.7081 35.8456C90.6771 35.9226 90.6315 35.9926 90.5739 36.0517C90.5163 36.1107 90.4479 36.1576 90.3724 36.1897C90.297 36.2217 90.2161 36.2383 90.1344 36.2385H87.7715C87.5808 36.2385 87.3979 36.1615 87.2629 36.0243C87.1279 35.8872 87.0519 35.7011 87.0515 35.5069V31.5651L89.7715 31.7149ZM37.1473 22.3738V34.1993C37.1473 34.5105 37.3215 34.7942 37.5958 34.9294C37.7299 34.9961 37.8428 35.0998 37.9219 35.2286C38.0009 35.3574 38.0429 35.5063 38.043 35.6582V35.8822C38.043 36.1352 37.843 36.3389 37.5958 36.3389H33.6973C33.5798 36.3389 33.4672 36.2914 33.3841 36.2068C33.3011 36.1223 33.2544 36.0076 33.2544 35.888V35.6552C33.2544 35.3469 33.4258 35.0647 33.6973 34.9294C33.8302 34.8629 33.9421 34.7597 34.0204 34.6317C34.0986 34.5037 34.1401 34.3559 34.1401 34.2051V22.7811C34.1401 22.7038 34.1101 22.6296 34.0565 22.5748C34.003 22.5201 33.9303 22.4891 33.8544 22.4887C33.8166 22.4889 33.7791 22.4815 33.7441 22.4669C33.7091 22.4523 33.6772 22.4308 33.6504 22.4036C33.6236 22.3764 33.6023 22.3441 33.5878 22.3086C33.5733 22.273 33.5658 22.2349 33.5658 22.1963V21.8211C33.5658 21.6436 33.6351 21.4734 33.7583 21.3479C33.8815 21.2225 34.0487 21.152 34.223 21.152H35.9473C36.2655 21.152 36.5707 21.2807 36.7958 21.5098C37.0208 21.739 37.1473 22.0497 37.1473 22.3738Z" fill="#5A5A5A"/>
<path d="M35.6487 18.1702C36.6776 18.1702 37.5116 17.3203 37.5116 16.272C37.5116 15.2237 36.6776 14.3738 35.6487 14.3738C34.6199 14.3738 33.7859 15.2237 33.7859 16.272C33.7859 17.3203 34.6199 18.1702 35.6487 18.1702Z" fill="#5A5A5A"/>
</svg>
