<svg width="76" height="56" viewBox="0 0 76 56" fill="none" xmlns="http://www.w3.org/2000/svg">
<g clip-path="url(#clip0_1113_92513)">
<path fill-rule="evenodd" clip-rule="evenodd" d="M75.8296 35.9856L67.3846 27.5299L76.0005 18.9001L73.1053 16.0002L64.4889 24.6305L55.8693 16L52.9746 18.9004L61.5937 27.5304L53.145 35.9927L56.0402 38.8926L64.4894 30.4297L72.9349 38.886L75.8296 35.9856ZM31.1335 26.4229L36.8496 32.1482V16.5957H40.944V32.1512L46.6632 26.4229L49.5584 29.3227L38.8983 39.9999L28.2383 29.3227L31.1335 26.4229ZM23.0312 39.1512V17.1133L11.4303 28.7328L0 17.2842V39.3221H4.09443V27.1849L11.4303 34.5325L18.9367 27.014V39.1512H23.0312Z" fill="white"/>
</g>
<defs>
<clipPath id="clip0_1113_92513">
<rect width="76" height="56" fill="white"/>
</clipPath>
</defs>
</svg>
