<svg width="138" height="56" viewBox="0 0 138 56" fill="none" xmlns="http://www.w3.org/2000/svg">
<g clip-path="url(#clip0_6298_584)">
<path d="M31.6526 55.4738V41.425L31.9472 41.1319H34.8913L35.1859 41.425V55.4738L34.8913 55.7669H31.9472L31.6526 55.4738Z" fill="#D1FAFA"/>
<path d="M31.6526 14.341V0.292966L31.9472 0H34.8913L35.1859 0.292966V14.341L34.8913 14.6339H31.9472L31.6526 14.341Z" fill="#D1FAFA"/>
<path d="M18.8547 45.3461H18.4384L16.3569 43.2759V42.862L21.2174 38.0312L23.4215 38.0323L23.7173 38.3241V40.5153L18.8547 45.3461Z" fill="#D1FAFA"/>
<path d="M18.8527 10.4207H18.4364L16.355 12.491V12.9048L21.2155 17.7357L23.4196 17.7346L23.7153 17.4427V15.2516L18.8527 10.4207Z" fill="#D1FAFA"/>
<path d="M0.294703 26.1272H20.3149L20.6096 26.4202V29.3467L20.3149 29.6398H0.294703L0 29.3467V26.4202L0.294703 26.1272Z" fill="#D1FAFA"/>
<path d="M118.863 26.1272H137.706L138.001 26.4202V29.3467L137.706 29.6398H117.686L117.391 29.3467L118.568 26.4202L118.863 26.1272Z" fill="#D1FAFA"/>
<path d="M57.1557 29.1326L56.8611 29.4257H47.7283L47.4337 29.7186C47.4337 30.3046 48.0231 32.0612 50.3796 32.0612C51.2637 32.0612 52.1467 31.7683 52.4416 31.1824L52.7361 30.8895H56.2716L56.5662 31.1824C56.2716 32.9393 54.7991 35.5758 50.3796 35.5758C45.3717 35.5758 43.0142 32.0612 43.0142 27.9617C43.0142 23.8623 45.3707 20.3478 50.0848 20.3478C54.7991 20.3478 57.1557 23.8623 57.1557 27.9617V29.1337V29.1326ZM52.7361 26.204C52.7361 25.911 52.4416 23.8613 50.0848 23.8613C47.7283 23.8613 47.4337 25.911 47.4337 26.204L47.7283 26.497H52.4416L52.7361 26.204Z" fill="#1C4746"/>
<path d="M65.4044 30.8895C65.4044 31.4752 65.699 31.7683 66.2884 31.7683H68.9395L69.2344 32.0612V34.9898L68.9395 35.2829H66.2884C63.637 35.2829 61.2805 34.111 61.2805 30.8895V24.4462L60.9857 24.1533H58.924L58.6292 23.8603V20.9317L58.924 20.6387H60.9857L61.2805 20.3457V17.7101L61.5751 17.4171H65.1106L65.4052 17.7101V20.3457L65.7 20.6387H68.9406L69.2355 20.9317V23.8603L68.9406 24.1533H65.7L65.4052 24.4462V30.8895H65.4044Z" fill="#1C4746"/>
<path d="M76.3044 35.2829H72.769L72.4741 34.9898V15.0754L72.769 14.7824H76.3044L76.599 15.0754V34.9898L76.3044 35.2829Z" fill="#1C4746"/>
<path d="M84.258 18.297H80.7226L80.4277 18.004V15.0754L80.7226 14.7824H84.258L84.5526 15.0754V18.004L84.258 18.297ZM84.258 35.2829H80.7226L80.4277 34.9898V20.9327L80.7226 20.6397H84.258L84.5526 20.9327V34.9898L84.258 35.2829Z" fill="#1C4746"/>
<path d="M98.1039 15.0754V18.004L97.809 18.297H95.1579C94.5684 18.297 94.2736 18.59 94.2736 19.1759V20.3478L94.5684 20.6407H97.5144L97.809 20.9337V23.8623L97.5144 24.1553H94.5684L94.2736 24.4483V34.9909L93.979 35.2838H90.4435L90.1489 34.9909V24.4483L89.8541 24.1553H87.7924L87.4976 23.8623V20.9337L87.7924 20.6407H89.8541L90.1489 20.3478V19.1759C90.1489 15.9543 92.5054 14.7824 95.1568 14.7824H97.8079L98.1028 15.0754H98.1039Z" fill="#1C4746"/>
<path d="M109.004 35.5758C107.825 38.5044 106.647 40.2613 102.522 40.2613H101.049L100.754 39.9682V37.0396L101.049 36.7467H102.522C103.995 36.7467 104.29 36.4536 104.584 35.5747V35.2819L99.8711 23.8603V20.9316L100.166 20.6387H102.817L103.112 20.9316L106.647 30.8895H106.942L110.477 20.9316L110.772 20.6387H113.423L113.718 20.9316V23.8603L109.005 35.5747L109.004 35.5758Z" fill="#1C4746"/>
<path d="M36.5091 35.283L36.2145 34.9898L36.2164 26.5041C36.2164 25.0403 35.6375 23.9054 33.8599 23.8685C32.9459 23.8449 31.9001 23.8664 30.7829 23.9136L30.6161 24.0836L30.6182 34.9898L30.3234 35.283H26.7891L26.4944 34.9898V20.776L26.7891 20.483L34.7429 20.4113C38.7276 20.4113 40.3402 23.133 40.3402 26.205V34.9898L40.0456 35.283H36.5091Z" fill="#1C4746"/>
</g>
<defs>
<clipPath id="clip0_6298_584">
<rect width="138" height="56" fill="white"/>
</clipPath>
</defs>
</svg>
