<svg width="145" height="80" viewBox="0 0 145 80" fill="none" xmlns="http://www.w3.org/2000/svg">
<path fill-rule="evenodd" clip-rule="evenodd" d="M52.643 33.1488L52.7643 35.3468C54.1482 33.6468 55.9652 32.7968 58.2141 32.7968C62.1114 32.7968 64.095 35.0648 64.1641 39.6008V52.1688H59.962V39.8468C59.962 38.6398 59.7056 37.7468 59.1926 37.1658C58.6797 36.5858 57.8403 36.2958 56.6754 36.2958C54.9798 36.2958 53.7162 37.0758 52.8876 38.6338V52.1688H48.6836V33.1488H52.645H52.643ZM76.6893 52.5208C74.026 52.5208 71.8658 51.6688 70.2117 49.9638C68.5565 48.2588 67.7289 45.9878 67.7289 43.1518V42.6248C67.7289 40.7268 68.0889 39.0298 68.81 37.5358C69.5301 36.0418 70.5431 34.8788 71.8461 34.0458C73.1491 33.2148 74.6021 32.7988 76.206 32.7988C78.7538 32.7988 80.7237 33.6248 82.1125 35.2768C83.5033 36.9298 84.1977 39.2668 84.1977 42.2908V44.0138H71.9664C72.0947 45.5838 72.6096 46.8258 73.5151 47.7398C74.4206 48.6538 75.5599 49.1108 76.932 49.1108C78.8574 49.1108 80.4258 48.3208 81.6371 46.7378L83.9028 48.9358C83.1531 50.0718 82.1529 50.9538 80.9022 51.5808C79.6505 52.2078 78.2468 52.5208 76.6903 52.5208H76.6893ZM76.1882 36.2268C75.0341 36.2268 74.104 36.6368 73.3947 37.4568C72.6845 38.2768 72.2328 39.4198 72.0365 40.8848H80.046V40.5678C79.9533 39.1378 79.5785 38.0578 78.9215 37.3248C78.2636 36.5928 77.3531 36.2268 76.1882 36.2268ZM92.7251 28.5268V33.1498H96.0295V36.3138H92.7251V46.9308C92.7251 47.6568 92.8672 48.1808 93.1493 48.5038C93.4314 48.8258 93.9364 48.9868 94.6634 48.9868C95.1583 48.9854 95.6515 48.9263 96.1331 48.8108V52.1158C95.1763 52.3858 94.254 52.5198 93.3653 52.5198C90.1368 52.5198 88.5221 50.7098 88.5221 47.0888V36.3128H85.4406V33.1488H88.5201V28.5258H92.7231L92.7251 28.5268ZM103.711 52.1698H99.5066V25.1698H103.711V52.1698ZM112.758 52.1698H108.554V33.1498H112.758V52.1698ZM108.294 28.2098C108.294 27.5548 108.499 27.0098 108.908 26.5758C109.318 26.1428 109.903 25.9258 110.664 25.9258C111.425 25.9258 112.013 26.1428 112.429 26.5758C112.844 27.0098 113.051 27.5548 113.051 28.2108C113.051 28.8548 112.844 29.3908 112.429 29.8188C112.013 30.2468 111.425 30.4608 110.664 30.4608C109.903 30.4608 109.318 30.2468 108.908 29.8188C108.499 29.3918 108.294 28.8548 108.294 28.2108V28.2098ZM118.812 52.1698V36.3128H115.958V33.1488H118.812V31.4088C118.812 29.2988 119.388 27.6708 120.541 26.5218C121.696 25.3738 123.309 24.7998 125.385 24.7998C126.123 24.7998 126.908 24.9048 127.738 25.1158L127.635 28.4558C127.104 28.356 126.565 28.3091 126.026 28.3158C124.018 28.3158 123.015 29.3638 123.015 31.4618V33.1488H126.821V36.3128H123.015V52.1688H118.812V52.1698ZM136.439 46.0528L140.245 33.1498H144.725L137.287 55.0528C136.145 58.2518 134.208 59.8518 131.475 59.8518C130.863 59.8518 130.188 59.7458 129.451 59.5348V56.2298L130.247 56.2828C131.307 56.2828 132.106 56.0868 132.643 55.6938C133.178 55.3018 133.602 54.6428 133.914 53.7168L134.519 52.0818L127.945 33.1498H132.478L136.439 46.0528Z" fill="#0E1E25"/>
<path d="M27.5073 34.3061L27.4935 34.3001C27.4856 34.2971 27.4777 34.2941 27.4708 34.2871C27.4595 34.2747 27.4511 34.2599 27.4463 34.2438C27.4415 34.2277 27.4405 34.2107 27.4432 34.1941L28.2057 29.4681L31.7813 33.0941L28.0626 34.6981C28.0523 34.7023 28.0412 34.7043 28.0301 34.7041H28.0153C28.0104 34.7011 28.0054 34.6971 27.9956 34.6871C27.8572 34.5309 27.6917 34.4017 27.5073 34.3061ZM32.6938 34.0181L36.517 37.8941C37.3111 38.7001 37.7086 39.1021 37.8536 39.5681C37.8753 39.6371 37.893 39.7061 37.9069 39.7771L28.7699 35.8541C28.765 35.852 28.76 35.85 28.7551 35.8481C28.7186 35.8331 28.6762 35.8161 28.6762 35.7781C28.6762 35.7401 28.7196 35.7221 28.7561 35.7071L28.7679 35.7021L32.6938 34.0181ZM37.751 41.0211C37.5537 41.3971 37.169 41.7871 36.518 42.4481L32.2075 46.8171L26.6324 45.6401L26.6028 45.6341C26.5535 45.6261 26.5012 45.6171 26.5012 45.5721C26.48 45.3389 26.4117 45.1127 26.3006 44.9074C26.1894 44.7022 26.0378 44.5223 25.8551 44.3791C25.8324 44.3561 25.8383 44.3201 25.8452 44.2871C25.8452 44.2821 25.8452 44.2771 25.8472 44.2731L26.8957 37.7471L26.8997 37.7251C26.9056 37.6751 26.9145 37.6171 26.9589 37.6171C27.1836 37.5887 27.4005 37.5153 27.5969 37.4012C27.7933 37.287 27.9654 37.1343 28.1031 36.9521C28.112 36.9421 28.1179 36.9311 28.1297 36.9251C28.1613 36.9101 28.1988 36.9251 28.2313 36.9391L37.75 41.0211H37.751ZM31.2161 47.8221L24.1279 55.0081L25.3412 47.4481L25.3431 47.4381C25.3441 47.4281 25.3461 47.4181 25.3491 47.4091C25.3589 47.3851 25.3846 47.3751 25.4092 47.3651L25.4211 47.3601C25.6867 47.2452 25.9217 47.068 26.1066 46.8431C26.1303 46.8151 26.1589 46.7881 26.1954 46.7831C26.2049 46.7815 26.2145 46.7815 26.224 46.7831L31.2152 47.8231L31.2161 47.8221ZM22.6276 56.5291L21.8286 57.3391L12.9955 44.3971C12.9923 44.3923 12.989 44.3877 12.9856 44.3831C12.9718 44.3641 12.957 44.3451 12.9599 44.3231C12.9599 44.3071 12.9708 44.2931 12.9816 44.2811L12.9915 44.2681C13.0181 44.2281 13.0408 44.1881 13.0655 44.1451L13.0852 44.1101L13.0882 44.1071C13.102 44.0831 13.1148 44.0601 13.1385 44.0471C13.1592 44.0371 13.1878 44.0411 13.2105 44.0461L22.9965 46.0921C23.0239 46.0964 23.0497 46.1077 23.0715 46.1251C23.0843 46.1381 23.0873 46.1521 23.0902 46.1681C23.1585 46.4299 23.2855 46.6722 23.4614 46.876C23.6373 47.0798 23.8573 47.2397 24.1042 47.3431C24.1319 47.3571 24.12 47.3881 24.1072 47.4211C24.1008 47.4355 24.0958 47.4506 24.0924 47.4661C23.9691 48.2261 22.9117 54.7641 22.6276 56.5291ZM20.9586 58.2201C20.3697 58.8111 20.0225 59.1241 19.6299 59.2501C19.2429 59.3741 18.8274 59.3741 18.4404 59.2501C17.9807 59.1021 17.5832 58.7001 16.7891 57.8941L7.91848 48.9011L10.2355 45.2581C10.2464 45.2401 10.2572 45.2241 10.275 45.2111C10.2996 45.1931 10.3352 45.2011 10.3647 45.2111C10.8966 45.3737 11.4676 45.3444 11.9805 45.1281C12.0071 45.1181 12.0337 45.1111 12.0544 45.1301C12.0648 45.1397 12.0741 45.1504 12.0821 45.1621L20.9586 58.2211V58.2201ZM7.06328 48.0341L5.02835 45.9711L9.04692 44.2331C9.05719 44.2285 9.06826 44.2261 9.07947 44.2261C9.11301 44.2261 9.13274 44.2601 9.15049 44.2911C9.19088 44.3541 9.23365 44.4154 9.27872 44.4751L9.29154 44.4911C9.30338 44.5081 9.29549 44.5251 9.28365 44.5411L7.06427 48.0341H7.06328ZM4.12777 45.0581L1.55328 42.4481C1.11532 42.0041 0.797701 41.6821 0.576749 41.4051L8.40478 43.0511C8.41461 43.0529 8.42448 43.0546 8.43437 43.0561C8.4827 43.0641 8.53597 43.0731 8.53597 43.1191C8.53597 43.1691 8.47777 43.1921 8.42845 43.2111L8.40576 43.2211L4.12777 45.0581ZM0.126953 40.0631C0.135874 39.8949 0.165702 39.7286 0.215729 39.5681C0.361715 39.1021 0.758246 38.7001 1.55328 37.8941L4.84784 34.5541C6.36475 36.7859 7.88577 39.0149 9.4109 41.2411C9.43753 41.2771 9.46712 41.3171 9.43655 41.3471C9.29253 41.5081 9.14852 41.6841 9.04692 41.8751C9.0359 41.8996 9.01893 41.9209 8.9976 41.9371C8.98478 41.9451 8.97097 41.9421 8.95617 41.9391H8.9542L0.126953 40.0621V40.0631ZM5.72967 33.6601L10.1576 29.1691C10.5748 29.3541 12.0909 30.0031 13.4453 30.5831C14.4711 31.0231 15.4062 31.4231 15.7002 31.5531C15.7297 31.5651 15.7564 31.5771 15.7692 31.6071C15.7771 31.6251 15.7731 31.6481 15.7692 31.6671C15.6991 31.9912 15.7095 32.328 15.7996 32.6471C15.8896 32.9662 16.0564 33.2575 16.2851 33.4951C16.3147 33.5251 16.2851 33.5681 16.2594 33.6051L16.2456 33.6261L11.7477 40.6891C11.7358 40.7091 11.725 40.7261 11.7053 40.7391C11.6816 40.7541 11.648 40.7471 11.6204 40.7401C11.4455 40.6936 11.2656 40.6688 11.0848 40.6661C10.923 40.6661 10.7475 40.6961 10.5699 40.7291H10.5689C10.5492 40.7321 10.5314 40.7361 10.5157 40.7241C10.4982 40.7096 10.4832 40.6924 10.4713 40.6731L5.72869 33.6601H5.72967ZM11.0542 28.2621L16.7891 22.4481C17.5832 21.6431 17.9807 21.2401 18.4404 21.0931C18.8274 20.969 19.2429 20.969 19.6299 21.0931C20.0896 21.2401 20.4871 21.6431 21.2812 22.4481L22.524 23.7081L18.4453 30.1121C18.4352 30.1307 18.4214 30.147 18.4048 30.1601C18.3802 30.1771 18.3457 30.1701 18.3161 30.1601C17.9945 30.0611 17.654 30.0431 17.324 30.1076C16.994 30.1721 16.6845 30.3171 16.4222 30.5301C16.3956 30.5581 16.3561 30.5421 16.3226 30.5271C15.7899 30.2921 11.6471 28.5171 11.0542 28.2621ZM23.3901 24.5861L27.1561 28.4041L26.2487 34.1021V34.1171C26.2478 34.1301 26.2452 34.1429 26.2408 34.1551C26.2309 34.1751 26.2112 34.1791 26.1914 34.1851C25.9974 34.2446 25.8147 34.3369 25.6509 34.4581C25.6439 34.4632 25.6373 34.4688 25.6312 34.4751C25.6203 34.4871 25.6095 34.4981 25.5917 34.5001C25.5773 34.5005 25.5629 34.4981 25.5493 34.4931L19.8105 32.0211L19.7996 32.0161C19.7631 32.0011 19.7197 31.9831 19.7197 31.9451C19.686 31.6209 19.5815 31.3083 19.4139 31.0301C19.3863 30.9841 19.3557 30.9361 19.3794 30.8891L23.3901 24.5861ZM19.5116 33.1921L24.8914 35.5021C24.921 35.5161 24.9535 35.5291 24.9663 35.5601C24.9715 35.5787 24.9715 35.5984 24.9663 35.6171C24.9506 35.6971 24.9368 35.7881 24.9368 35.8801V36.0331C24.9368 36.0711 24.8983 36.0871 24.8628 36.1021L24.8519 36.1061C23.9997 36.4751 12.887 41.2791 12.8702 41.2791C12.8534 41.2791 12.8357 41.2791 12.8189 41.2621C12.7893 41.2321 12.8189 41.1901 12.8455 41.1521C12.8502 41.1455 12.8548 41.1388 12.8593 41.1321L17.2804 34.1921L17.2882 34.1801C17.3139 34.1381 17.3435 34.0911 17.3908 34.0911L17.4352 34.0981C17.5358 34.1121 17.6246 34.1251 17.7144 34.1251C18.3851 34.1251 19.0065 33.7941 19.3814 33.2281C19.3903 33.213 19.4016 33.1994 19.4149 33.1881C19.4415 33.1681 19.481 33.1781 19.5116 33.1921ZM13.3506 42.3771L25.4635 37.1401C25.4635 37.1401 25.4812 37.1401 25.498 37.1571C25.5641 37.2241 25.6203 37.2691 25.6746 37.3111L25.7012 37.3281C25.7259 37.3421 25.7505 37.3581 25.7525 37.3841C25.7525 37.3941 25.7525 37.4001 25.7505 37.4091L24.7128 43.8711L24.7089 43.8971C24.702 43.9471 24.6951 44.0041 24.6487 44.0041C24.3721 44.023 24.1041 44.11 23.8682 44.2576C23.6322 44.4052 23.4352 44.6089 23.2944 44.8511L23.2895 44.8591C23.2757 44.8821 23.2628 44.9041 23.2402 44.9161C23.2194 44.9261 23.1928 44.9221 23.1711 44.9171L13.5113 42.8971C13.5015 42.8951 13.3614 42.3781 13.3506 42.3771Z" fill="url(#paint0_radial_1178_93200)"/>
<defs>
<radialGradient id="paint0_radial_1178_93200" cx="0" cy="0" r="1" gradientUnits="userSpaceOnUse" gradientTransform="translate(-1.14148 39.6306) rotate(90) scale(38.3009 43.6183)">
<stop stop-color="#20C6B7"/>
<stop offset="1" stop-color="#4D9ABF"/>
</radialGradient>
</defs>
</svg>
