<svg width="145" height="40" viewBox="0 0 145 40" fill="none" xmlns="http://www.w3.org/2000/svg">
<path fill-rule="evenodd" clip-rule="evenodd" d="M52.643 12.9779L52.7643 15.1759C54.1482 13.4759 55.9652 12.6259 58.2141 12.6259C62.1114 12.6259 64.095 14.8939 64.1641 19.4299V31.9979H59.962V19.6759C59.962 18.4689 59.7056 17.5759 59.1926 16.9949C58.6797 16.4149 57.8403 16.1249 56.6754 16.1249C54.9798 16.1249 53.7162 16.9049 52.8876 18.4629V31.9979H48.6836V12.9779H52.645H52.643ZM76.6893 32.3499C74.026 32.3499 71.8658 31.4979 70.2117 29.7929C68.5565 28.0879 67.7289 25.8169 67.7289 22.9809V22.4539C67.7289 20.5559 68.0889 18.8589 68.81 17.3649C69.5301 15.8709 70.5431 14.7079 71.8461 13.8749C73.1491 13.0439 74.6021 12.6279 76.206 12.6279C78.7538 12.6279 80.7237 13.4539 82.1125 15.1059C83.5033 16.7589 84.1977 19.0959 84.1977 22.1199V23.8429H71.9664C72.0947 25.4129 72.6096 26.6549 73.5151 27.5689C74.4206 28.4829 75.5599 28.9399 76.932 28.9399C78.8574 28.9399 80.4258 28.1499 81.6371 26.5669L83.9028 28.7649C83.1531 29.9009 82.1529 30.7829 80.9022 31.4099C79.6505 32.0369 78.2468 32.3499 76.6903 32.3499H76.6893ZM76.1882 16.0559C75.0341 16.0559 74.104 16.4659 73.3947 17.2859C72.6845 18.1059 72.2328 19.2489 72.0365 20.7139H80.046V20.3969C79.9533 18.9669 79.5785 17.8869 78.9215 17.1539C78.2636 16.4219 77.3531 16.0559 76.1882 16.0559ZM92.7251 8.35591V12.9789H96.0295V16.1429H92.7251V26.7599C92.7251 27.4859 92.8672 28.0099 93.1493 28.3329C93.4314 28.6549 93.9364 28.8159 94.6634 28.8159C95.1583 28.8145 95.6515 28.7554 96.1331 28.6399V31.9449C95.1763 32.2149 94.254 32.3489 93.3653 32.3489C90.1368 32.3489 88.5221 30.5389 88.5221 26.9179V16.1419H85.4406V12.9779H88.5201V8.35491H92.7231L92.7251 8.35591ZM103.711 31.9989H99.5066V4.99891H103.711V31.9989ZM112.758 31.9989H108.554V12.9789H112.758V31.9989ZM108.294 8.03891C108.294 7.38391 108.499 6.83891 108.908 6.40491C109.318 5.97191 109.903 5.75491 110.664 5.75491C111.425 5.75491 112.013 5.97191 112.429 6.40491C112.844 6.83891 113.051 7.38391 113.051 8.03991C113.051 8.68391 112.844 9.21991 112.429 9.64791C112.013 10.0759 111.425 10.2899 110.664 10.2899C109.903 10.2899 109.318 10.0759 108.908 9.64791C108.499 9.22091 108.294 8.68391 108.294 8.03991V8.03891ZM118.812 31.9989V16.1419H115.958V12.9779H118.812V11.2379C118.812 9.12791 119.388 7.49991 120.541 6.35091C121.696 5.20291 123.309 4.62891 125.385 4.62891C126.123 4.62891 126.908 4.73391 127.738 4.94491L127.635 8.28491C127.104 8.18509 126.565 8.1382 126.026 8.14491C124.018 8.14491 123.015 9.19291 123.015 11.2909V12.9779H126.821V16.1419H123.015V31.9979H118.812V31.9989ZM136.439 25.8819L140.245 12.9789H144.725L137.287 34.8819C136.145 38.0809 134.208 39.6809 131.475 39.6809C130.863 39.6809 130.188 39.5749 129.451 39.3639V36.0589L130.247 36.1119C131.307 36.1119 132.106 35.9159 132.643 35.5229C133.178 35.1309 133.602 34.4719 133.914 33.5459L134.519 31.9109L127.945 12.9789H132.478L136.439 25.8819Z" fill="#0E1E25"/>
<path d="M27.5073 14.1352L27.4935 14.1292C27.4856 14.1262 27.4777 14.1232 27.4708 14.1162C27.4595 14.1038 27.4511 14.089 27.4463 14.0729C27.4415 14.0568 27.4405 14.0398 27.4432 14.0232L28.2057 9.29717L31.7813 12.9232L28.0626 14.5272C28.0523 14.5314 28.0412 14.5334 28.0301 14.5332H28.0153C28.0104 14.5302 28.0054 14.5262 27.9956 14.5162C27.8572 14.36 27.6917 14.2308 27.5073 14.1352ZM32.6938 13.8472L36.517 17.7232C37.3111 18.5292 37.7086 18.9312 37.8536 19.3972C37.8753 19.4662 37.893 19.5352 37.9069 19.6062L28.7699 15.6832C28.765 15.6811 28.76 15.6791 28.7551 15.6772C28.7186 15.6622 28.6762 15.6452 28.6762 15.6072C28.6762 15.5692 28.7196 15.5512 28.7561 15.5362L28.7679 15.5312L32.6938 13.8472ZM37.751 20.8502C37.5537 21.2262 37.169 21.6162 36.518 22.2772L32.2075 26.6462L26.6324 25.4692L26.6028 25.4632C26.5535 25.4552 26.5012 25.4462 26.5012 25.4012C26.48 25.168 26.4117 24.9418 26.3006 24.7365C26.1894 24.5313 26.0378 24.3514 25.8551 24.2082C25.8324 24.1852 25.8383 24.1492 25.8452 24.1162C25.8452 24.1112 25.8452 24.1062 25.8472 24.1022L26.8957 17.5762L26.8997 17.5542C26.9056 17.5042 26.9145 17.4462 26.9589 17.4462C27.1836 17.4178 27.4005 17.3444 27.5969 17.2303C27.7933 17.1161 27.9654 16.9634 28.1031 16.7812C28.112 16.7712 28.1179 16.7602 28.1297 16.7542C28.1613 16.7392 28.1988 16.7542 28.2313 16.7682L37.75 20.8502H37.751ZM31.2161 27.6512L24.1279 34.8372L25.3412 27.2772L25.3431 27.2672C25.3441 27.2572 25.3461 27.2472 25.3491 27.2382C25.3589 27.2142 25.3846 27.2042 25.4092 27.1942L25.4211 27.1892C25.6867 27.0743 25.9217 26.8971 26.1066 26.6722C26.1303 26.6442 26.1589 26.6172 26.1954 26.6122C26.2049 26.6106 26.2145 26.6106 26.224 26.6122L31.2152 27.6522L31.2161 27.6512ZM22.6276 36.3582L21.8286 37.1682L12.9955 24.2262C12.9923 24.2214 12.989 24.2168 12.9856 24.2122C12.9718 24.1932 12.957 24.1742 12.9599 24.1522C12.9599 24.1362 12.9708 24.1222 12.9816 24.1102L12.9915 24.0972C13.0181 24.0572 13.0408 24.0172 13.0655 23.9742L13.0852 23.9392L13.0882 23.9362C13.102 23.9122 13.1148 23.8892 13.1385 23.8762C13.1592 23.8662 13.1878 23.8702 13.2105 23.8752L22.9965 25.9212C23.0239 25.9255 23.0497 25.9368 23.0715 25.9542C23.0843 25.9672 23.0873 25.9812 23.0902 25.9972C23.1585 26.259 23.2855 26.5013 23.4614 26.7051C23.6373 26.9089 23.8573 27.0688 24.1042 27.1722C24.1319 27.1862 24.12 27.2172 24.1072 27.2502C24.1008 27.2646 24.0958 27.2797 24.0924 27.2952C23.9691 28.0552 22.9117 34.5932 22.6276 36.3582ZM20.9586 38.0492C20.3697 38.6402 20.0225 38.9532 19.6299 39.0792C19.2429 39.2033 18.8274 39.2033 18.4404 39.0792C17.9807 38.9312 17.5832 38.5292 16.7891 37.7232L7.91848 28.7302L10.2355 25.0872C10.2464 25.0692 10.2572 25.0532 10.275 25.0402C10.2996 25.0222 10.3352 25.0302 10.3647 25.0402C10.8966 25.2028 11.4676 25.1735 11.9805 24.9572C12.0071 24.9472 12.0337 24.9402 12.0544 24.9592C12.0648 24.9688 12.0741 24.9795 12.0821 24.9912L20.9586 38.0502V38.0492ZM7.06328 27.8632L5.02835 25.8002L9.04692 24.0622C9.05719 24.0576 9.06826 24.0552 9.07947 24.0552C9.11301 24.0552 9.13274 24.0892 9.15049 24.1202C9.19088 24.1832 9.23365 24.2445 9.27872 24.3042L9.29154 24.3202C9.30338 24.3372 9.29549 24.3542 9.28365 24.3702L7.06427 27.8632H7.06328ZM4.12777 24.8872L1.55328 22.2772C1.11532 21.8332 0.797701 21.5112 0.576749 21.2342L8.40478 22.8802C8.41461 22.882 8.42448 22.8837 8.43437 22.8852C8.4827 22.8932 8.53597 22.9022 8.53597 22.9482C8.53597 22.9982 8.47777 23.0212 8.42845 23.0402L8.40576 23.0502L4.12777 24.8872ZM0.126953 19.8922C0.135874 19.724 0.165702 19.5577 0.215729 19.3972C0.361715 18.9312 0.758246 18.5292 1.55328 17.7232L4.84784 14.3832C6.36475 16.615 7.88577 18.8441 9.4109 21.0702C9.43753 21.1062 9.46712 21.1462 9.43655 21.1762C9.29253 21.3372 9.14852 21.5132 9.04692 21.7042C9.0359 21.7287 9.01893 21.75 8.9976 21.7662C8.98478 21.7742 8.97097 21.7712 8.95617 21.7682H8.9542L0.126953 19.8912V19.8922ZM5.72967 13.4892L10.1576 8.99817C10.5748 9.18317 12.0909 9.83217 13.4453 10.4122C14.4711 10.8522 15.4062 11.2522 15.7002 11.3822C15.7297 11.3942 15.7564 11.4062 15.7692 11.4362C15.7771 11.4542 15.7731 11.4772 15.7692 11.4962C15.6991 11.8203 15.7095 12.1571 15.7996 12.4762C15.8896 12.7953 16.0564 13.0866 16.2851 13.3242C16.3147 13.3542 16.2851 13.3972 16.2594 13.4342L16.2456 13.4552L11.7477 20.5182C11.7358 20.5382 11.725 20.5552 11.7053 20.5682C11.6816 20.5832 11.648 20.5762 11.6204 20.5692C11.4455 20.5227 11.2656 20.4979 11.0848 20.4952C10.923 20.4952 10.7475 20.5252 10.5699 20.5582H10.5689C10.5492 20.5612 10.5314 20.5652 10.5157 20.5532C10.4982 20.5387 10.4832 20.5215 10.4713 20.5022L5.72869 13.4892H5.72967ZM11.0542 8.09117L16.7891 2.27717C17.5832 1.47217 17.9807 1.06917 18.4404 0.922169C18.8274 0.798079 19.2429 0.798079 19.6299 0.922169C20.0896 1.06917 20.4871 1.47217 21.2812 2.27717L22.524 3.53717L18.4453 9.94117C18.4352 9.95981 18.4214 9.97615 18.4048 9.98917C18.3802 10.0062 18.3457 9.99917 18.3161 9.98917C17.9945 9.89023 17.654 9.87222 17.324 9.93669C16.994 10.0012 16.6845 10.1462 16.4222 10.3592C16.3956 10.3872 16.3561 10.3712 16.3226 10.3562C15.7899 10.1212 11.6471 8.34617 11.0542 8.09117ZM23.3901 4.41517L27.1561 8.23317L26.2487 13.9312V13.9462C26.2478 13.9592 26.2452 13.972 26.2408 13.9842C26.2309 14.0042 26.2112 14.0082 26.1914 14.0142C25.9974 14.0737 25.8147 14.166 25.6509 14.2872C25.6439 14.2923 25.6373 14.2979 25.6312 14.3042C25.6203 14.3162 25.6095 14.3272 25.5917 14.3292C25.5773 14.3296 25.5629 14.3272 25.5493 14.3222L19.8105 11.8502L19.7996 11.8452C19.7631 11.8302 19.7197 11.8122 19.7197 11.7742C19.686 11.45 19.5815 11.1374 19.4139 10.8592C19.3863 10.8132 19.3557 10.7652 19.3794 10.7182L23.3901 4.41517ZM19.5116 13.0212L24.8914 15.3312C24.921 15.3452 24.9535 15.3582 24.9663 15.3892C24.9715 15.4078 24.9715 15.4275 24.9663 15.4462C24.9506 15.5262 24.9368 15.6172 24.9368 15.7092V15.8622C24.9368 15.9002 24.8983 15.9162 24.8628 15.9312L24.8519 15.9352C23.9997 16.3042 12.887 21.1082 12.8702 21.1082C12.8534 21.1082 12.8357 21.1082 12.8189 21.0912C12.7893 21.0612 12.8189 21.0192 12.8455 20.9812C12.8502 20.9746 12.8548 20.9679 12.8593 20.9612L17.2804 14.0212L17.2882 14.0092C17.3139 13.9672 17.3435 13.9202 17.3908 13.9202L17.4352 13.9272C17.5358 13.9412 17.6246 13.9542 17.7144 13.9542C18.3851 13.9542 19.0065 13.6232 19.3814 13.0572C19.3903 13.0421 19.4016 13.0285 19.4149 13.0172C19.4415 12.9972 19.481 13.0072 19.5116 13.0212ZM13.3506 22.2062L25.4635 16.9692C25.4635 16.9692 25.4812 16.9692 25.498 16.9862C25.5641 17.0532 25.6203 17.0982 25.6746 17.1402L25.7012 17.1572C25.7259 17.1712 25.7505 17.1872 25.7525 17.2132C25.7525 17.2232 25.7525 17.2292 25.7505 17.2382L24.7128 23.7002L24.7089 23.7262C24.702 23.7762 24.6951 23.8332 24.6487 23.8332C24.3721 23.8521 24.1041 23.9391 23.8682 24.0867C23.6322 24.2343 23.4352 24.438 23.2944 24.6802L23.2895 24.6882C23.2757 24.7112 23.2628 24.7332 23.2402 24.7452C23.2194 24.7552 23.1928 24.7512 23.1711 24.7462L13.5113 22.7262C13.5015 22.7242 13.3614 22.2072 13.3506 22.2062Z" fill="url(#paint0_radial_1178_93200)"/>
<defs>
<radialGradient id="paint0_radial_1178_93200" cx="0" cy="0" r="1" gradientUnits="userSpaceOnUse" gradientTransform="translate(-1.14148 19.4597) rotate(90) scale(38.3009 43.6183)">
<stop stop-color="#20C6B7"/>
<stop offset="1" stop-color="#4D9ABF"/>
</radialGradient>
</defs>
</svg>
