<svg width="136" height="24" viewBox="0 0 136 24" fill="none" xmlns="http://www.w3.org/2000/svg">
<g clip-path="url(#clip0_6298_1359)">
<path d="M4.29551 14.294C4.29551 18.7183 6.33089 21.4254 9.43157 21.4254C12.5507 21.4254 14.4741 18.7183 14.4741 14.294C14.4741 9.55232 12.5507 7.12509 9.43157 7.12509C6.33089 7.12509 4.29551 9.55148 4.29551 14.294ZM18.7688 14.294C18.7688 20.0063 14.6412 24.0013 9.39398 24.0013C4.20193 24.0013 0 20.0063 0 14.294C0 8.58093 4.20193 4.58594 9.39398 4.58594C14.6044 4.58594 18.7688 8.58093 18.7688 14.294Z" fill="#55A05E"/>
<path d="M111.337 9.85163C111.337 8.47431 112.643 7.57642 114.582 7.57642C116.862 7.57642 118.118 8.58373 118.27 10.1882H122.086C122.011 6.86896 119.213 4.59375 114.582 4.59375C110.516 4.59375 107.679 6.56995 107.679 10.0412C107.679 17.0206 118.763 13.9619 118.763 18.509C118.763 20.0417 117.309 21.0114 115.105 21.0114C112.628 21.0114 111.165 19.9414 110.895 18.2985H107.057C107.285 21.7322 110.415 23.9991 115.106 23.9991C119.286 23.9991 122.421 22.0178 122.421 18.3235C122.421 11.3442 111.337 14.3687 111.337 9.85163Z" fill="#55A05E"/>
<path d="M21.1191 23.6429V4.95929H24.6444V10.7476C25.6971 6.71498 27.9614 4.58594 31.6637 4.58594C35.0016 4.58594 37.6111 6.65819 37.6111 10.8211V23.6421H33.7425V12.2401C33.7425 9.75695 32.4315 7.79663 29.8414 7.79663C26.4073 7.79663 24.9878 10.8027 24.9878 12.9309V23.6429H21.1191Z" fill="#55A05E"/>
<path d="M104.332 4.96094V23.6438H100.653V17.8413C99.7948 21.8739 97.5906 24.0029 93.9865 24.0029C90.7371 24.0029 88.197 21.9307 88.197 17.7678V4.96094H92.0439V16.3487C92.0439 18.8319 93.2387 20.7922 95.7604 20.7922C99.1031 20.7922 100.485 17.7862 100.485 15.658V4.96094H104.332Z" fill="#55A05E"/>
<path d="M49.3688 21.2566C46.101 21.2566 44.3823 18.7183 44.3823 14.5179V14.1813H58.0901C57.9782 8.28191 54.971 4.58594 49.2192 4.58594C43.8593 4.58594 40.0684 8.50575 40.0684 14.4427C40.0684 19.8384 43.2435 24.0013 49.3312 24.0013C55.1023 24.0013 57.8094 20.2602 57.9773 16.9184H54.0186C53.7387 19.6062 52.6366 21.2566 49.3688 21.2566ZM49.2568 7.32973C52.3383 7.32973 53.7035 9.67343 53.823 12.1416H44.5628C45.044 8.9785 46.6642 7.32973 49.2568 7.32973Z" fill="#55A05E"/>
<path d="M85.6989 4.9573V8.35091L85.6964 8.79276C84.398 8.71842 83.8941 8.68083 83.4454 8.68083C80.7107 8.68083 78.9586 9.85686 78.3896 13.2446C78.281 13.8869 78.2358 14.5376 78.2358 15.1882V23.6384H74.3882V4.95312H77.9017V10.8191C77.9017 10.8191 77.9017 10.8182 77.9024 10.8174C77.9275 10.7347 78.6244 8.462 79.2068 7.45887L79.2075 7.4572C79.9512 5.95459 81.3549 4.9573 83.0319 4.9573H85.6989Z" fill="#55A05E"/>
<path d="M131.165 19.4788C131.165 20.7133 131.612 21.1593 132.842 21.1593L135.999 21.1785V23.6408H131.501C128.889 23.6408 127.393 22.1499 127.393 19.5381V10.6377H127.389V7.61579H123.643V5.4408C123.891 5.4408 123.812 5.43663 124.153 5.42827C124.759 5.41992 125.218 5.40322 125.534 5.37732C126.318 5.33556 126.841 5.18355 127.102 4.92211C127.359 4.66486 127.531 4.1303 127.623 3.32094C127.691 2.87409 127.742 2.31865 127.776 1.65295C127.809 0.991439 127.827 0.109417 127.827 0H131.164V4.95803H135.999V7.61495H131.164L131.165 19.4788Z" fill="#55A05E"/>
<path d="M66.3569 19.4788C66.3569 20.7133 66.8039 21.1593 68.0338 21.1593L71.1913 21.1785V23.6408H66.6936C64.0809 23.6408 62.5853 22.1499 62.5853 19.5381V10.6377H62.5811V7.61579H58.8345V5.4408C59.0835 5.4408 59.0033 5.43663 59.3442 5.42827C59.9508 5.41992 60.4103 5.40322 60.7261 5.37732C61.5099 5.33556 62.0321 5.18355 62.2936 4.92211C62.551 4.66486 62.7231 4.1303 62.8159 3.32094C62.8836 2.87409 62.9337 2.31865 62.9679 1.65295C63.0013 0.991439 63.0189 0.109417 63.0189 0H66.3561V4.95803H71.1913V7.61495H66.3561L66.3569 19.4788Z" fill="#55A05E"/>
</g>
<defs>
<clipPath id="clip0_6298_1359">
<rect width="136" height="24" fill="white"/>
</clipPath>
</defs>
</svg>
