<svg width="119" height="56" viewBox="0 0 119 56" fill="none" xmlns="http://www.w3.org/2000/svg">
<path fill-rule="evenodd" clip-rule="evenodd" d="M25.98 17.7271H8.75195V26.3651H17.229C17.531 26.3651 17.776 26.6101 17.776 26.9121V35.2721H26.527V18.2751C26.5271 18.2031 26.513 18.1319 26.4856 18.0654C26.4582 17.9989 26.4179 17.9385 26.3671 17.8876C26.3163 17.8367 26.2559 17.7963 26.1895 17.7688C26.1231 17.7412 26.0519 17.7271 25.98 17.7271Z" fill="#8E75FF"/>
<path opacity="0.405" fill-rule="evenodd" clip-rule="evenodd" d="M8.75005 17.7271V26.3651H0.668045C0.613743 26.365 0.560695 26.3487 0.515633 26.3184C0.470572 26.2881 0.43553 26.2451 0.414957 26.1949C0.394384 26.1446 0.389207 26.0894 0.400084 26.0362C0.41096 25.983 0.4374 25.9342 0.476045 25.8961L8.75005 17.7271ZM18.241 43.4501C18.2026 43.4878 18.1538 43.5134 18.1008 43.5236C18.0478 43.5338 17.993 43.5282 17.9433 43.5073C17.8935 43.4865 17.851 43.4515 17.8211 43.4066C17.7912 43.3617 17.7751 43.309 17.775 43.2551V35.272H26.526L18.241 43.4491V43.4501Z" fill="#8E75FF"/>
<path opacity="0.405" d="M8.75 26.3652H17.502C17.652 26.3652 17.775 26.4872 17.775 26.6382V35.2722H9.298C9.15293 35.2722 9.0138 35.2146 8.91121 35.112C8.80863 35.0094 8.751 34.8703 8.751 34.7252V26.3652H8.75Z" fill="#8E75FF"/>
<path fill-rule="evenodd" clip-rule="evenodd" d="M114.77 17.1822C115.259 17.6662 115.836 17.9072 116.502 17.9072C117.189 17.9072 117.777 17.6662 118.266 17.1822C118.755 16.6982 118.999 16.1282 118.999 15.4692C118.999 14.8112 118.755 14.2352 118.266 13.7412C118.039 13.503 117.765 13.3143 117.462 13.1868C117.158 13.0592 116.831 12.9957 116.502 13.0002C115.836 13.0002 115.259 13.2472 114.77 13.7402C114.281 14.2352 114.037 14.8102 114.037 15.4702C114.037 16.1282 114.281 16.6982 114.77 17.1822ZM61.7102 23.4942C61.7102 23.5442 61.6682 23.5862 61.6172 23.5862H58.1822V30.0062C58.1822 30.5412 58.3182 30.9322 58.5882 31.1792C58.8582 31.4262 59.2542 31.5642 59.7742 31.5952C60.2502 31.6242 60.8302 31.6222 61.5152 31.5902L61.6122 31.5852C61.6247 31.5845 61.6372 31.5864 61.649 31.5907C61.6607 31.5951 61.6715 31.6017 61.6805 31.6103C61.6896 31.6189 61.6968 31.6293 61.7018 31.6408C61.7067 31.6523 61.7092 31.6647 61.7092 31.6772V35.1082C61.7094 35.131 61.701 35.153 61.6859 35.17C61.6708 35.187 61.6498 35.1977 61.6272 35.2002L61.5642 35.2072C58.8742 35.4902 56.9712 35.2272 55.8572 34.4192C54.7232 33.5962 54.1572 32.1252 54.1572 30.0062V23.5862H51.5332C51.5088 23.5862 51.4854 23.5765 51.4682 23.5593C51.4509 23.542 51.4412 23.5186 51.4412 23.4942V19.8512C51.4412 19.8012 51.4822 19.7592 51.5332 19.7592H54.1562V17.2122C54.1562 17.1382 54.2002 17.0722 54.2672 17.0422L58.0532 15.3952C58.0673 15.3889 58.0827 15.3861 58.098 15.3873C58.1134 15.3884 58.1282 15.3934 58.1411 15.4017C58.1541 15.4101 58.1647 15.4216 58.1721 15.4351C58.1794 15.4486 58.1833 15.4638 58.1832 15.4792V19.7592H61.6172C61.6672 19.7592 61.7092 19.8002 61.7092 19.8512V23.4942H61.7102ZM69.0102 22.4142C69.3842 21.4262 70.0032 20.6852 70.8662 20.1912C71.7176 19.7065 72.6805 19.4515 73.6602 19.4512C73.7112 19.4512 73.7532 19.4922 73.7532 19.5442V23.7292C73.7532 23.7502 73.7488 23.7709 73.7402 23.79C73.7317 23.8091 73.7193 23.8263 73.7037 23.8403C73.6882 23.8543 73.6699 23.865 73.65 23.8715C73.6301 23.878 73.6091 23.8803 73.5882 23.8782C72.4272 23.7742 71.3842 24.0272 70.4602 24.6362C69.4932 25.2732 69.0102 26.3332 69.0102 27.8152V35.0992C69.0102 35.1114 69.0078 35.1234 69.0031 35.1347C68.9984 35.1459 68.9916 35.1561 68.9829 35.1646C68.9743 35.1732 68.964 35.1799 68.9527 35.1845C68.9415 35.1891 68.9294 35.1914 68.9172 35.1912H65.0752C65.0508 35.1912 65.0274 35.1815 65.0102 35.1643C64.9929 35.147 64.9832 35.1236 64.9832 35.0992V19.8502C64.9832 19.8002 65.0242 19.7582 65.0752 19.7582H68.9172C68.9672 19.7582 69.0092 19.7992 69.0092 19.8502V22.4122L69.0102 22.4142ZM88.0462 19.7592C88.034 19.7591 88.022 19.7614 88.0107 19.7659C87.9994 19.7705 87.9892 19.7773 87.9805 19.7858C87.9719 19.7944 87.965 19.8046 87.9603 19.8158C87.9556 19.827 87.9532 19.8391 87.9532 19.8512V21.5812C86.7472 20.0782 85.0512 19.3272 82.8662 19.3272C80.7862 19.3272 79.0012 20.1142 77.5142 21.6882C76.0262 23.2622 75.2822 25.1912 75.2822 27.4752C75.2822 29.7592 76.0262 31.6882 77.5142 33.2622C79.0012 34.8362 80.7862 35.6232 82.8662 35.6232C85.0512 35.6232 86.7462 34.8722 87.9532 33.3702V35.0992C87.9532 35.1492 87.9952 35.1912 88.0462 35.1912H91.8872C91.9382 35.1912 91.9802 35.1502 91.9802 35.0992V19.8502C91.9802 19.8381 91.9778 19.826 91.9731 19.8148C91.9684 19.8036 91.9616 19.7934 91.9529 19.7848C91.9443 19.7763 91.934 19.7695 91.9227 19.7649C91.9115 19.7604 91.8994 19.7581 91.8872 19.7582H88.0462V19.7592ZM80.5262 30.6232C81.3372 31.4262 82.3662 31.8272 83.6162 31.8272C84.8642 31.8272 85.8992 31.4202 86.7212 30.6072C87.5432 29.7952 87.9532 28.7512 87.9532 27.4752C87.9532 26.1992 87.5432 25.1552 86.7212 24.3422C85.8992 23.5302 84.8642 23.1232 83.6152 23.1232C82.3672 23.1232 81.3372 23.5302 80.5252 24.3432C79.7152 25.1552 79.3082 26.1992 79.3082 27.4752C79.3082 28.7512 79.7142 29.8002 80.5262 30.6232ZM109.876 21.6882C108.388 20.1142 106.593 19.3272 104.492 19.3272C102.307 19.3272 100.622 20.0782 99.4362 21.5802V19.8512C99.4362 19.8268 99.4265 19.8034 99.4093 19.7862C99.392 19.7689 99.3686 19.7592 99.3442 19.7592H95.5022C95.4778 19.7592 95.4544 19.7689 95.4372 19.7862C95.4199 19.8034 95.4102 19.8268 95.4102 19.8512V41.2712C95.4102 41.3222 95.4512 41.3642 95.5022 41.3642H99.3442C99.3942 41.3642 99.4362 41.3222 99.4362 41.2712V33.3702C100.622 34.8722 102.307 35.6232 104.492 35.6232C106.593 35.6232 108.388 34.8362 109.876 33.2622C111.363 31.6882 112.107 29.7592 112.107 27.4752C112.107 25.1912 111.363 23.2622 109.876 21.6882ZM100.653 30.6232C101.465 31.4262 102.494 31.8272 103.743 31.8272C104.991 31.8272 106.026 31.4202 106.848 30.6072C107.67 29.7952 108.081 28.7512 108.081 27.4752C108.081 26.1992 107.67 25.1552 106.848 24.3422C106.026 23.5302 104.991 23.1232 103.743 23.1232C102.494 23.1232 101.465 23.5302 100.653 24.3432C99.8422 25.1552 99.4362 26.1992 99.4362 27.4752C99.4362 28.7512 99.8422 29.8002 100.653 30.6232ZM114.597 35.1912C114.573 35.1912 114.549 35.1815 114.532 35.1643C114.515 35.147 114.505 35.1236 114.505 35.0992V19.8502C114.505 19.8002 114.546 19.7582 114.597 19.7582H118.439C118.49 19.7582 118.531 19.7992 118.531 19.8502V35.1002C118.531 35.1246 118.522 35.148 118.504 35.1653C118.487 35.1825 118.464 35.1922 118.439 35.1922H114.597V35.1912ZM42.8122 25.1452C42.2602 24.8882 41.9852 24.5532 41.9852 24.1422C41.9852 23.7512 42.1562 23.4422 42.5002 23.2162C42.8432 22.9902 43.2752 22.8762 43.7952 22.8762C44.7922 22.8762 45.5452 23.2612 46.0552 24.0302C46.0722 24.0563 46.0979 24.0756 46.1277 24.0848C46.1574 24.0939 46.1895 24.0923 46.2182 24.0802L49.6162 22.5932C49.628 22.588 49.6385 22.5803 49.6471 22.5707C49.6557 22.5611 49.6622 22.5498 49.6661 22.5376C49.6701 22.5253 49.6714 22.5124 49.6701 22.4996C49.6687 22.4867 49.6647 22.4744 49.6582 22.4632C49.6191 22.398 49.5791 22.3334 49.5382 22.2692C48.9572 21.3642 48.2042 20.6892 47.2592 20.1762C46.2192 19.6102 45.0642 19.3272 43.7952 19.3272C42.1092 19.3272 40.7002 19.7642 39.5652 20.6392C38.4322 21.5132 37.8652 22.7122 37.8652 24.2342C37.8652 25.2432 38.1412 26.0812 38.6922 26.7502C39.2247 27.4052 39.9184 27.9104 40.7052 28.2162C41.4952 28.5242 42.2862 28.7822 43.0772 28.9872C43.8672 29.1932 44.5392 29.4252 45.0902 29.6822C45.6412 29.9392 45.9172 30.2732 45.9172 30.6852C45.9172 31.5702 45.1992 32.0122 43.7642 32.0122C42.3972 32.0122 41.4502 31.5122 40.9232 30.5142C40.9021 30.4722 40.8657 30.4397 40.8215 30.4236C40.7772 30.4074 40.7285 30.4087 40.6852 30.4272L37.2972 31.9122C37.2859 31.9172 37.2757 31.9244 37.2673 31.9333C37.2588 31.9423 37.2522 31.9529 37.2479 31.9645C37.2436 31.976 37.2417 31.9884 37.2423 32.0007C37.2428 32.013 37.2459 32.0251 37.2512 32.0362L37.2892 32.1132C38.4732 34.4532 40.6312 35.6232 43.7642 35.6232C45.5532 35.6232 47.0462 35.1962 48.2422 34.3432C49.4392 33.4882 50.0372 32.2692 50.0372 30.6852C50.0372 29.6352 49.7612 28.7612 49.2102 28.0612C48.6907 27.3857 47.9938 26.8678 47.1972 26.5652C46.4219 26.2716 45.6298 26.0242 44.8252 25.8242C44.0342 25.6282 43.3632 25.4022 42.8122 25.1442V25.1452Z" fill="white"/>
</svg>
