<svg width="76" height="76" viewBox="0 0 76 76" fill="none" xmlns="http://www.w3.org/2000/svg">
<g clip-path="url(#clip0_6298_1290)">
<path d="M44.0602 69.9794L31.9675 58.1875L57.9382 31.6667L70.4584 43.9375L44.0602 69.9794Z" fill="#8AB4F8"/>
<path d="M44.1117 17.8442L32.0626 5.54167L5.71589 31.639C2.31964 35.0352 2.31964 40.5413 5.71589 43.9415L31.6667 70.0625L43.9376 58.5833L24.1657 37.7902L44.1117 17.8442Z" fill="#4285F4"/>
<path d="M70.2842 31.8408L44.1592 5.71584C40.759 2.31563 35.245 2.31563 31.8448 5.71584C28.4446 9.11604 28.4446 14.63 31.8448 18.0302L57.9698 44.1552C61.37 47.5554 66.884 47.5554 70.2842 44.1552C73.6844 40.755 73.6844 35.2411 70.2842 31.8408Z" fill="#8AB4F8"/>
<path d="M37.8022 72.8333C42.5023 72.8333 46.3126 69.0231 46.3126 64.3229C46.3126 59.6227 42.5023 55.8125 37.8022 55.8125C33.102 55.8125 29.2917 59.6227 29.2917 64.3229C29.2917 69.0231 33.102 72.8333 37.8022 72.8333Z" fill="#246FDB"/>
</g>
<defs>
<clipPath id="clip0_6298_1290">
<rect width="76" height="76" fill="white"/>
</clipPath>
</defs>
</svg>
