<svg width="148" height="40" viewBox="0 0 148 40" fill="none" xmlns="http://www.w3.org/2000/svg">
<path d="M33.857 17.4364H17.762C17.1492 17.4364 16.6462 16.9329 16.6462 16.3387V14.4406C16.6462 13.8368 17.1588 13.343 17.762 13.343H33.9592C34.572 13.343 35.0749 13.8465 35.0749 14.4406V16.3387C34.9728 16.9425 34.4602 17.4364 33.857 17.4364Z" fill="#6ADDB2"/>
<path d="M5.47109 25.6404C4.85635 25.6404 4.34375 25.1273 4.34375 24.5139V22.5637C4.34375 22.0506 4.85635 21.5394 5.47109 21.5394H21.7183C22.3331 21.5394 22.8438 22.0506 22.8438 22.6659V24.6161C22.7416 25.1273 22.2309 25.6404 21.6143 25.6404H5.47109Z" fill="#6ADDB2"/>
<path d="M10.4391 32.8202C11.5664 32.8202 12.4876 31.8962 12.4876 30.7697C12.4876 29.6412 11.5664 28.7172 10.4391 28.7172C9.31174 28.7172 8.38867 29.6412 8.38867 30.7697C8.38867 31.8962 9.31174 32.8202 10.4391 32.8202Z" fill="#6ADDB2"/>
<path d="M28.8773 10.2566C30.0047 10.2566 30.9258 9.33258 30.9258 8.20603C30.9258 7.07756 30.0047 6.15356 28.8773 6.15356C27.75 6.15356 26.8269 7.07756 26.8269 8.20603C26.8269 9.33258 27.75 10.2566 28.8773 10.2566Z" fill="#6ADDB2"/>
<path d="M19.6582 31.794C18.5308 31.794 17.4054 31.5914 16.3802 31.2828C15.8676 31.1806 15.355 31.385 15.1526 31.8962L14.4338 33.8465C14.2296 34.3596 14.536 34.9749 15.1526 35.1794C16.5845 35.6925 18.1203 35.897 19.6582 35.897C26.3162 35.897 32.0532 31.8962 34.6143 26.1536C34.8185 25.6404 34.6143 24.9248 33.9976 24.7184L32.0532 24.0008C31.5406 23.7944 31.0299 24.0008 30.8237 24.5139C28.8773 28.8194 24.6763 31.794 19.6582 31.794Z" fill="#6ADDB2"/>
<path d="M19.6582 7.17979C20.7855 7.17979 21.9128 7.38427 22.9361 7.69291C23.4487 7.79515 23.9613 7.59067 24.1656 7.07755L24.8825 5.12732C25.0867 4.61613 24.7784 4.00078 24.1656 3.79437C22.7299 3.28126 21.194 3.07678 19.6582 3.07678C12.9982 3.07678 7.26315 7.07755 4.70206 12.8202C4.49779 13.3333 4.70206 14.0509 5.3168 14.2573L7.26315 14.9749C7.77576 15.1794 8.28836 14.9749 8.49263 14.4618C10.439 10.1543 14.64 7.17979 19.6582 7.17979Z" fill="#6ADDB2"/>
<path d="M47.8901 32.8299V30.6462C49.5705 32.3071 51.5053 33.179 53.575 33.179C55.3247 33.179 56.3307 32.338 56.3307 31.0166C56.3307 29.3538 54.7312 29.1686 52.8986 28.9641C50.5321 28.6883 47.6858 28.3276 47.6858 25.2296C47.6858 22.637 49.8056 21.1285 52.5999 21.1285C55.398 21.1285 57.036 22.0621 58.1518 22.9225V25.0887C56.72 23.5803 54.8333 22.8299 52.6731 22.8106C50.7152 22.8106 49.7632 23.7249 49.7632 25.0463C49.7632 26.5741 51.4243 26.8017 53.2666 27.0043C55.6543 27.282 58.4601 27.6929 58.4601 30.8507C58.4601 33.2928 56.5966 34.9016 53.6771 34.9016C50.7576 34.9016 49.2409 33.9911 47.8997 32.8299H47.8901Z" fill="#121C2D"/>
<path d="M60.2021 27.8665C60.2021 23.6921 62.7941 21.1169 66.39 21.1169C69.7798 21.1169 72.2175 23.1886 72.2175 27.5173V28.5436H62.3412C62.5281 31.8248 64.7289 33.1288 67.7428 33.1288C69.7489 33.1288 71.0381 32.3997 71.9516 31.6512V33.5706C71.2231 34.1435 69.8819 34.9112 67.3709 34.9112C62.9155 34.9112 60.2021 32.4518 60.2021 28.1944V27.8665ZM62.3643 26.9541H70.0765C69.9436 24.1744 68.5695 22.8106 66.3688 22.8106C64.1662 22.8106 62.6611 24.1551 62.3643 26.9541Z" fill="#121C2D"/>
<path d="M73.4971 37.1181C73.4971 35.6404 74.634 34.564 77.2992 34.3789C77.3185 34.3789 77.3397 34.3596 77.3397 34.3384C77.3397 34.3191 77.3185 34.2959 77.2992 34.2959C74.952 34.2959 74.0925 33.7249 74.0925 32.5849C74.0925 31.5394 75.189 30.5536 77.8523 30.5324C77.8715 30.5324 77.8927 30.5131 77.8927 30.4919C77.8927 30.4726 77.8715 30.4514 77.8523 30.4514C75.5263 30.1119 74.1638 28.4722 74.1638 25.9896C74.1638 23.0768 76.3973 21.1381 79.6734 21.1381C81.1996 21.1381 81.9281 21.3638 82.9012 21.3638H86.4259V23.0961H83.7222C84.5817 23.7114 85.1347 24.892 85.1347 26.1941C85.1347 28.7481 83.1575 30.7986 79.7871 30.7986H78.9681C77.145 30.7986 76.1931 31.1902 76.1931 31.8673C76.1931 32.5945 76.8271 32.7083 79.2436 32.7083H81.6833C84.7956 32.7083 86.3738 33.5069 86.3738 35.7851C86.3738 38.0613 84.4179 39.865 79.4999 39.865H79.1839C74.8402 39.865 73.5183 38.7693 73.5183 37.1277L73.4971 37.1181ZM84.283 36.0918C84.283 34.8611 83.2809 34.5428 81.2324 34.5428H79.0702C76.4783 34.5428 75.588 35.4765 75.588 36.5548C75.588 37.5386 76.5708 38.2157 79.367 38.2157H79.6136C83.0246 38.2157 84.2733 37.3958 84.2733 36.0918H84.283ZM83.0747 26.0417C83.0747 24.1223 81.8664 22.6254 79.6637 22.6254C77.463 22.6254 76.2335 23.9487 76.2335 26.0417C76.2335 27.8665 77.4418 29.2515 79.6637 29.2515C81.8876 29.2515 83.0747 27.8665 83.0747 26.0417Z" fill="#121C2D"/>
<path d="M88.2065 21.3542H90.2974V25.8681C90.6867 22.5849 92.1628 21.1285 94.7336 21.1285C97.6223 21.1285 99.1273 22.8106 99.372 25.7041C99.7632 22.6466 101.257 21.1285 103.827 21.1285C106.972 21.1285 108.541 23.2215 108.541 26.7284V34.6779H106.421V27.1393C106.421 24.5853 105.417 22.8723 103.01 22.8723C100.941 22.8723 99.4144 24.4715 99.4356 27.3129V34.6779H97.3139V26.9753C97.3139 24.5332 96.2906 22.8723 93.903 22.8723C91.8738 22.8723 90.307 24.4715 90.307 27.5695V34.6779H88.1873V21.3445L88.2065 21.3542Z" fill="#121C2D"/>
<path d="M110.713 27.8665C110.713 23.6921 113.303 21.1169 116.901 21.1169C120.29 21.1169 122.728 23.1886 122.728 27.5173V28.5436H112.854C113.037 31.8248 115.24 33.1288 118.252 33.1288C120.26 33.1288 121.551 32.3997 122.462 31.6512V33.5706C121.734 34.1435 120.393 34.9112 117.884 34.9112C113.428 34.9112 110.713 32.4518 110.713 28.1944V27.8665ZM112.873 26.9541H120.587C120.454 24.1744 119.082 22.8106 116.88 22.8106C114.679 22.8106 113.172 24.1551 112.873 26.9541Z" fill="#121C2D"/>
<path d="M127.062 21.3542V25.8449C127.513 22.4711 129.222 21.1285 131.755 21.1285C135.166 21.1285 136.804 23.2504 136.804 26.8711V34.6875H134.682V27.3013C134.682 24.5949 133.616 22.882 130.974 22.882C128.762 22.882 127.081 24.5641 127.081 27.8048V34.6875H124.962V21.3542H127.062Z" fill="#121C2D"/>
<path d="M140.378 30.6462V23.0768H137.969V21.549L138.698 21.5278C140.082 21.4564 140.521 20.9337 140.635 19.2516L140.704 18.2678H142.498V21.3445H147.025V23.0768H142.498V30.5749C142.498 32.3071 143.298 33.0768 144.865 33.0768C145.686 33.0768 146.503 32.8935 147.025 32.554V34.2149C146.503 34.5525 145.57 34.8515 144.271 34.8515C141.587 34.8515 140.378 33.5494 140.378 30.6347V30.6462Z" fill="#121C2D"/>
<path d="M58.9437 15.1177L56.0742 4.93441V7.62924C56.0742 7.77391 55.9817 7.86651 55.8372 7.86651H53.9525V10.7079C53.9525 11.7226 54.2088 12.0216 55.0201 12.0216C55.3246 12.0216 55.6233 11.9985 55.8892 11.8769C56.0935 11.7747 56.2477 11.8576 56.2477 12.0216V14.8823C56.2477 15.0463 56.186 15.1485 56.0338 15.2199C55.5096 15.4668 54.5172 15.6211 53.3089 15.6211C50.1831 15.6211 49.1599 14.1435 49.1599 11.5393V7.85686H47.6124C47.4698 7.85686 47.3677 7.75462 47.3677 7.60995V4.58526C47.3677 4.44058 47.4698 4.33834 47.6124 4.33834H48.6473C49.0674 4.33834 49.2928 4.15509 49.2928 3.73456V2.03124C49.2928 1.88657 49.3757 1.76504 49.5183 1.7226L53.5228 0.430164C53.729 0.368436 53.8504 0.451383 53.8504 0.63464V4.23611H60.2232C60.3659 4.23611 60.4468 4.29591 60.4892 4.4618L61.4219 9.35378L62.3546 4.4618C62.3739 4.31905 62.476 4.23611 62.6205 4.23611H66.891C67.0336 4.23611 67.1376 4.31905 67.1569 4.4618L68.1204 9.35378L69.0724 4.4618C69.1148 4.29591 69.1957 4.23611 69.3384 4.23611H77.7501C77.8927 4.23611 77.9948 4.33834 77.9948 4.48109V15.0656C77.9948 15.2103 77.8927 15.3125 77.7501 15.3125H73.4257C73.2831 15.3125 73.179 15.2103 73.179 15.0656V4.93441L70.4349 15.1177C70.3944 15.2623 70.2923 15.3221 70.1285 15.3221H66.2049C66.0604 15.3221 65.9987 15.2623 65.9582 15.1177L64.6979 10.3086L63.3991 15.1177C63.3567 15.2623 63.2969 15.3221 63.1524 15.3221H59.2289C59.0651 15.3221 58.9629 15.2623 58.9205 15.1177H58.9437ZM73.179 3.04591C73.179 3.18865 73.2831 3.29282 73.4257 3.29282H77.7501C77.8927 3.29282 77.9948 3.18865 77.9948 3.04591V0.657788C77.9948 0.513112 77.8927 0.410874 77.7501 0.410874H73.4257C73.2831 0.410874 73.179 0.513112 73.179 0.657788V3.05748V3.04591ZM78.9468 15.0752C78.9468 15.2199 79.0489 15.3221 79.1935 15.3221H83.5159C83.6585 15.3221 83.7606 15.2199 83.7606 15.0752V0.657788C83.7606 0.513112 83.6585 0.410874 83.5159 0.410874H79.1935C79.0489 0.410874 78.9468 0.513112 78.9468 0.657788V15.0887V15.0752ZM84.7165 15.0752C84.7165 15.2199 84.8186 15.3221 84.9593 15.3221H89.274C89.4166 15.3221 89.5188 15.2199 89.5188 15.0752V4.50231C89.5188 4.35956 89.4166 4.25732 89.274 4.25732H84.9593C84.8186 4.25732 84.7165 4.35956 84.7165 4.50231V15.0887V15.0752ZM84.7165 3.04591C84.7165 3.18865 84.8186 3.29282 84.9593 3.29282H89.274C89.4166 3.29282 89.5188 3.18865 89.5188 3.04591V0.657788C89.5188 0.513112 89.4166 0.410874 89.274 0.410874H84.9593C84.8186 0.410874 84.7165 0.513112 84.7165 0.657788V3.05748V3.04591ZM102.683 9.62191V9.88811C102.683 13.179 100.183 15.6616 96.4832 15.6616C92.7871 15.6616 90.2684 13.179 90.2684 9.88811V9.62191C90.2684 6.32908 92.7967 3.91782 96.4832 3.91782C100.174 3.91782 102.683 6.32908 102.683 9.62191ZM98.0731 9.69135C98.0731 8.17515 97.3755 7.58101 96.4832 7.58101C95.5929 7.58101 94.8973 8.17515 94.8973 9.69135V9.88811C94.8973 11.385 95.5929 12.012 96.4832 12.012C97.3755 12.012 98.0731 11.385 98.0731 9.88811V9.69135Z" fill="#121C2D"/>
</svg>
