<svg width="144" height="80" viewBox="0 0 144 80" fill="none" xmlns="http://www.w3.org/2000/svg">
<path d="M72.1541 32C66.557 32 62.5212 35.6 62.5212 41C62.5212 46.4 67.059 50 72.6613 50C76.0426 50 79.0238 48.68 80.8691 46.455L76.9907 44.245C75.9666 45.35 74.4102 45.995 72.6613 45.995C70.2326 45.995 68.1693 44.745 67.4035 42.745H81.6095C81.7208 42.185 81.787 41.605 81.787 40.995C81.787 35.6 77.7564 32 72.1541 32ZM67.363 39.25C67.9967 37.255 69.7306 36 72.1541 36C74.5825 36 76.3164 37.255 76.9452 39.25H67.363ZM66.2173 26.5L52.1687 50.5L38.1152 26.5H43.3827L52.1638 41.5L60.9446 26.5H66.2173ZM18.7331 24L37.4663 56H0L18.7331 24ZM102.168 41C102.168 44 104.155 46 107.237 46C109.326 46 110.893 45.065 111.699 43.54L115.593 45.755C113.98 48.405 110.959 50 107.237 50C101.635 50 97.6049 46.4 97.6049 41C97.6049 35.6 101.64 32 107.237 32C110.959 32 113.975 33.595 115.593 36.245L111.699 38.46C110.893 36.935 109.326 36 107.237 36C104.16 36 102.168 38 102.168 41ZM143.984 26.5V49.5H139.421V26.5H143.984ZM126.746 32C121.149 32 117.114 35.6 117.114 41C117.114 46.4 121.656 50 127.253 50C130.635 50 133.616 48.68 135.461 46.455L131.583 44.245C130.559 45.35 129.002 45.995 127.253 45.995C124.825 45.995 122.761 44.745 121.996 42.745H136.202C136.313 42.185 136.379 41.605 136.379 40.995C136.379 35.6 132.349 32 126.746 32ZM121.955 39.25C122.589 37.255 124.318 36 126.746 36C129.175 36 130.909 37.255 131.537 39.25H121.955ZM96.0838 32.5V37.345C95.577 37.2 95.0393 37.1 94.4615 37.1C91.5159 37.1 89.3916 39.1 89.3916 42.1V49.5H84.8289V32.5H89.3916V37.1C89.3916 34.56 92.3878 32.5 96.0838 32.5Z" fill="black"/>
</svg>
