 <svg width="162" height="36" viewBox="0 0 162 36" fill="none" xmlns="http://www.w3.org/2000/svg">
  <g clip-path="url(#clip0_6298_1191)">
    <path d="M81.1734 9C74.8766 9 70.3364 13.05 70.3364 19.125C70.3364 25.2 75.4413 29.25 81.7439 29.25C85.5479 29.25 88.9018 27.765 90.9777 25.2619L86.6145 22.7756C85.4625 24.0188 83.7114 24.7444 81.7439 24.7444C79.0117 24.7444 76.6905 23.3381 75.829 21.0881H91.8107C91.9359 20.4581 92.0104 19.8056 92.0104 19.1194C92.0104 13.05 87.476 9 81.1734 9ZM75.7834 17.1562C76.4963 14.9119 78.447 13.5 81.1734 13.5C83.9053 13.5 85.856 14.9119 86.5634 17.1562H75.7834ZM74.4944 2.8125L58.6898 29.8125L42.8796 2.8125H48.8055L58.6843 19.6875L68.5627 2.8125H74.4944ZM21.0747 0L42.1496 36H0L21.0747 0ZM114.939 19.125C114.939 22.5 117.174 24.75 120.642 24.75C122.992 24.75 124.755 23.6981 125.661 21.9825L130.042 24.4744C128.228 27.4556 124.829 29.25 120.642 29.25C114.34 29.25 109.806 25.2 109.806 19.125C109.806 13.05 114.345 9 120.642 9C124.829 9 128.222 10.7944 130.042 13.7756L125.661 16.2675C124.755 14.5519 122.992 13.5 120.642 13.5C117.18 13.5 114.939 15.75 114.939 19.125ZM161.982 2.8125V28.6875H156.849V2.8125H161.982ZM142.59 9C136.293 9 131.753 13.05 131.753 19.125C131.753 25.2 136.863 29.25 143.16 29.25C146.964 29.25 150.318 27.765 152.394 25.2619L148.031 22.7756C146.879 24.0188 145.128 24.7444 143.16 24.7444C140.428 24.7444 138.107 23.3381 137.245 21.0881H153.227C153.352 20.4581 153.426 19.8056 153.426 19.1194C153.426 13.05 148.892 9 142.59 9ZM137.2 17.1562C137.913 14.9119 139.858 13.5 142.59 13.5C145.321 13.5 147.272 14.9119 147.98 17.1562H137.2ZM108.094 9.5625V15.0131C107.524 14.85 106.919 14.7375 106.269 14.7375C102.955 14.7375 100.566 16.9875 100.566 20.3625V28.6875H95.4325V9.5625H100.566V14.7375C100.566 11.88 103.936 9.5625 108.094 9.5625Z" fill="white"/>
  </g>
  <defs>
    <clipPath id="clip0_6298_1191">
      <rect width="162" height="36" fill="white"/>
    </clipPath>
  </defs>
</svg>
