<svg width="144" height="32" viewBox="0 0 144 32" fill="none" xmlns="http://www.w3.org/2000/svg">
<path d="M72.1541 8C66.557 8 62.5212 11.6 62.5212 17C62.5212 22.4 67.059 26 72.6613 26C76.0426 26 79.0238 24.68 80.8691 22.455L76.9907 20.245C75.9666 21.35 74.4102 21.995 72.6613 21.995C70.2326 21.995 68.1693 20.745 67.4035 18.745H81.6095C81.7208 18.185 81.787 17.605 81.787 16.995C81.787 11.6 77.7564 8 72.1541 8ZM67.363 15.25C67.9967 13.255 69.7306 12 72.1541 12C74.5825 12 76.3164 13.255 76.9452 15.25H67.363ZM66.2173 2.5L52.1687 26.5L38.1152 2.5H43.3827L52.1638 17.5L60.9446 2.5H66.2173ZM18.7331 0L37.4663 32H0L18.7331 0ZM102.168 17C102.168 20 104.155 22 107.237 22C109.326 22 110.893 21.065 111.699 19.54L115.593 21.755C113.98 24.405 110.959 26 107.237 26C101.635 26 97.6049 22.4 97.6049 17C97.6049 11.6 101.64 8 107.237 8C110.959 8 113.975 9.59501 115.593 12.245L111.699 14.46C110.893 12.935 109.326 12 107.237 12C104.16 12 102.168 14 102.168 17ZM143.984 2.5V25.5H139.421V2.5H143.984ZM126.746 8C121.149 8 117.114 11.6 117.114 17C117.114 22.4 121.656 26 127.253 26C130.635 26 133.616 24.68 135.461 22.455L131.583 20.245C130.559 21.35 129.002 21.995 127.253 21.995C124.825 21.995 122.761 20.745 121.996 18.745H136.202C136.313 18.185 136.379 17.605 136.379 16.995C136.379 11.6 132.349 8 126.746 8ZM121.955 15.25C122.589 13.255 124.318 12 126.746 12C129.175 12 130.909 13.255 131.537 15.25H121.955ZM96.0838 8.5V13.345C95.577 13.2 95.0393 13.1 94.4615 13.1C91.5159 13.1 89.3916 15.1 89.3916 18.1V25.5H84.8289V8.5H89.3916V13.1C89.3916 10.56 92.3878 8.5 96.0838 8.5Z" fill="black"/>
</svg>
