<svg width="276" height="56" viewBox="0 0 276 56" fill="none" xmlns="http://www.w3.org/2000/svg">
<g clip-path="url(#clip0_1113_92550)">
<path d="M156.907 20.7837H145.713V21.9649C149.215 21.9649 149.777 22.7116 149.777 27.1291V35.0935C149.777 39.5109 149.215 40.3204 145.713 40.3204C143.025 39.9471 141.21 38.5164 138.709 35.7774L135.833 32.6666C139.709 31.9827 141.773 29.5559 141.773 26.8185C141.773 23.3955 138.834 20.7837 133.331 20.7837H122.324V21.9649C125.826 21.9649 126.389 22.7116 126.389 27.1291V35.0935C126.389 39.5109 125.826 40.3204 122.324 40.3204V41.5016H134.769V40.3204C131.267 40.3204 130.704 39.5109 130.704 35.0935V32.8533H131.767L138.709 41.5016H156.907C165.85 41.5016 169.727 36.7735 169.727 31.1104C169.727 25.4473 165.85 20.7837 156.907 20.7837ZM130.704 30.9238V22.6488H133.268C136.082 22.6488 137.333 24.5784 137.333 26.8185C137.333 28.9959 136.082 30.9238 133.268 30.9238H130.704ZM157.095 39.5671H156.662C154.41 39.5671 154.098 39.0071 154.098 36.1441V22.6488H157.1C163.604 22.6488 164.793 27.3785 164.793 31.0493C164.788 34.8456 163.599 39.5671 157.095 39.5671Z" fill="white"/>
<path d="M87.4914 33.2268L91.8085 20.5328C93.0588 16.862 92.4959 15.8047 88.4877 15.8047V14.5607H100.243V15.8047C96.3049 15.8047 95.3668 16.7381 93.8027 21.2811L86.6779 42.5607H85.8659L79.4866 23.0851L72.9761 42.5607H72.1625L65.222 21.2811C63.7277 16.7381 62.7198 15.8047 59.0918 15.8047V14.5607H72.9761V15.8047C69.2851 15.8047 68.2855 16.6753 69.5989 20.5328L73.7881 33.2268L80.0976 14.5591H81.2865L87.4914 33.2268Z" fill="white"/>
<path d="M108.754 42.3112C101.875 42.3112 96.2461 37.2709 96.2461 31.1105C96.2461 25.0146 101.875 19.9727 108.754 19.9727C115.633 19.9727 121.262 25.0146 121.262 31.1105C121.262 37.2709 115.633 42.3112 108.754 42.3112ZM108.754 21.9039C103.001 21.9039 101 27.0664 101 31.1105C101 35.2191 103.001 40.3205 108.754 40.3205C114.565 40.3205 116.571 35.2191 116.571 31.1105C116.571 27.0664 114.57 21.9039 108.754 21.9039Z" fill="white"/>
<path d="M185.171 40.2576V41.5016H170.852V40.2576C175.041 40.2576 175.791 39.2003 175.791 32.9772V23.0222C175.791 16.8007 175.041 15.8045 170.852 15.8045V14.5605H183.803C190.243 14.5605 193.808 17.8646 193.808 22.2755C193.808 26.5707 190.243 29.9292 183.803 29.9292H180.238V32.9772C180.238 39.2003 180.982 40.2576 185.171 40.2576ZM183.796 16.799H180.238V27.6247H183.803C187.305 27.6247 188.93 25.1995 188.93 22.2738C188.923 19.2903 187.298 16.8007 183.796 16.8007V16.799Z" fill="white"/>
<path d="M236.766 35.6535L236.454 36.7736C235.891 38.827 235.202 39.582 230.762 39.582H229.885C226.632 39.582 226.066 38.8353 226.066 34.4178V31.5483C230.944 31.5483 231.32 31.9827 231.32 35.219H232.508V25.9463H231.32C231.32 29.1826 230.944 29.6171 226.066 29.6171V22.6489H229.506C233.946 22.6489 234.634 23.3956 235.197 25.4573L235.51 26.6401H236.507L236.07 20.792H217.691V21.9732C221.193 21.9732 221.756 22.7199 221.756 27.1374V35.1017C221.756 39.1442 221.277 40.1619 218.516 40.3072C215.893 39.9075 214.091 38.49 211.625 35.7857L208.75 32.6749C212.627 31.991 214.691 29.5642 214.691 26.8268C214.691 23.4038 211.752 20.792 206.247 20.792H195.242V21.9732C198.742 21.9732 199.305 22.7199 199.305 27.1374V35.1017C199.305 39.5192 198.742 40.3287 195.242 40.3287V41.5099H207.695V40.3287C204.193 40.3287 203.631 39.5192 203.631 35.1017V32.8533H204.693L211.634 41.5016H237.337L237.712 35.6535H236.766ZM203.622 30.9238V22.6489H206.186C208.999 22.6489 210.251 24.5784 210.251 26.8185C210.251 28.9959 208.999 30.9238 206.186 30.9238H203.622Z" fill="white"/>
<path d="M249.46 42.3113C246.958 42.3113 244.768 41.0045 243.832 40.195C243.316 40.7998 242.973 41.5303 242.835 42.3113H241.646V33.7208H242.898C243.397 37.826 246.274 40.2529 249.965 40.2529C251.958 40.2529 253.591 39.1328 253.591 37.266C253.591 35.6487 252.154 34.4047 249.59 33.2219L246.025 31.5434C243.523 30.3589 241.646 28.3071 241.646 25.5681C241.646 22.5829 244.469 20.0322 248.34 20.0322C250.404 20.0322 252.159 20.7789 253.216 21.6495C253.53 21.4001 253.842 20.7145 254.03 19.9678H255.217V27.311H253.905C253.467 24.3869 251.841 21.9601 248.527 21.9601C246.776 21.9601 245.148 22.9513 245.148 24.5108C245.148 26.1281 246.462 27.0004 249.465 28.3683L252.904 30.0484C255.906 31.479 257.093 33.7819 257.093 35.6487C257.088 39.5673 253.65 42.3113 249.46 42.3113Z" fill="white"/>
<path d="M268.371 42.3113C265.87 42.3113 263.68 41.0045 262.742 40.195C262.227 40.8003 261.883 41.5306 261.745 42.3113H260.557V33.7208H261.807C262.305 37.826 265.184 40.2529 268.874 40.2529C270.866 40.2529 272.502 39.1328 272.502 37.266C272.502 35.6487 271.062 34.4047 268.498 33.2219L264.935 31.5434C262.433 30.3589 260.557 28.3071 260.557 25.5681C260.557 22.5829 263.379 20.0322 267.248 20.0322C269.312 20.0322 271.067 20.7789 272.126 21.6495C272.438 21.4001 272.751 20.7145 272.938 19.9678H274.127V27.311H272.814C272.375 24.3869 270.75 21.9601 267.436 21.9601C265.686 21.9601 264.058 22.9513 264.058 24.5108C264.058 26.1281 265.372 27.0004 268.375 28.3683L271.814 30.0484C274.818 31.479 276.005 33.7819 276.005 35.6487C276 39.5673 272.558 42.3113 268.371 42.3113Z" fill="white"/>
<path d="M28.1456 1.6801C33.4163 1.67145 38.5683 3.2368 42.9349 6.17358C45.751 8.06633 48.1773 10.4775 50.083 13.2772C53.036 17.622 54.6142 22.7468 54.6142 27.9917C54.6142 33.2367 53.036 38.3615 50.083 42.7062C48.1794 45.5099 45.7528 47.9242 42.9349 49.8181C38.5674 52.7546 33.4168 54.3237 28.1456 54.3237C22.8744 54.3237 17.7238 52.7546 13.3563 49.8181C9.10254 46.9644 5.77174 42.9447 3.76748 38.2458C2.05252 34.2124 1.37722 29.8168 1.80289 25.4579C2.22855 21.099 3.7417 16.9149 6.20497 13.2855C9.07716 9.05174 13.1229 5.73864 17.8511 3.74842C21.1077 2.37674 24.6092 1.67325 28.1456 1.6801ZM28.1456 1.95007e-07C22.5796 -0.000653242 17.1384 1.64088 12.51 4.71701C7.88171 7.79315 4.27412 12.1657 2.14349 17.2818C0.0128578 22.3979 -0.545121 28.0277 0.540111 33.4593C1.62534 38.8909 4.30505 43.8803 8.24035 47.7966C12.1757 51.713 17.1898 54.3803 22.6488 55.4613C28.1077 56.5423 33.7662 55.9885 38.9088 53.8699C44.0514 51.7512 48.4471 48.1629 51.5399 43.5587C54.6328 38.9545 56.2839 33.5412 56.2846 28.0033C56.285 20.5774 53.3208 13.4554 48.0438 8.20382C42.7668 2.95228 35.6093 0.00131451 28.1456 1.95007e-07Z" fill="white"/>
<path d="M4.69141 28.0032C4.69081 32.3852 5.93032 36.6787 8.26804 40.3924C10.6058 44.1061 13.9472 47.0898 17.9099 49.002L6.72707 18.5042C5.38338 21.4924 4.68967 24.7295 4.69141 28.0032ZM43.975 26.8253C43.975 23.9409 42.934 21.9453 42.0423 20.3825C40.8535 18.4595 39.7393 16.834 39.7393 14.911C39.7393 12.7634 41.3732 10.7694 43.6762 10.7694C43.7808 10.7694 43.8787 10.781 43.98 10.7876C41.4759 8.50688 38.5039 6.7944 35.2695 5.76852C32.035 4.74264 28.6152 4.42783 25.2464 4.84585C21.8777 5.26387 18.6403 6.40476 15.7582 8.18964C12.8761 9.97452 10.4179 12.3608 8.55352 15.1836C9.10478 15.2001 9.62282 15.2117 10.0628 15.2117C12.5153 15.2117 16.3143 14.916 16.3143 14.916C17.5778 14.8416 17.7256 16.6902 16.4637 16.8389C16.4637 16.8389 15.1918 16.986 13.7788 17.0603L22.32 42.3361L27.4523 27.0219L23.7994 17.0619C22.5358 16.9876 21.3387 16.8406 21.3387 16.8406C20.0751 16.7662 20.2229 14.8433 21.4881 14.9176C21.4881 14.9176 25.3602 15.2133 27.6648 15.2133C30.1173 15.2133 33.9146 14.9176 33.9146 14.9176C35.1798 14.8433 35.3276 16.6919 34.0641 16.8406C34.0641 16.8406 32.7922 16.9876 31.3808 17.0619L39.8489 42.1428L42.2681 34.5155C43.3457 31.1817 43.975 28.8193 43.975 26.822V26.8253ZM28.5548 30.0435L21.518 50.3831C26.2427 51.7684 31.2858 51.6384 35.932 50.0114C35.8668 49.9065 35.8112 49.7959 35.766 49.681L28.5548 30.0435ZM48.7238 16.8092C48.8298 17.6044 48.8825 18.4057 48.8815 19.2079C48.8815 21.5752 48.4349 24.2366 47.0966 27.5655L39.9353 48.1677C45.2183 45.11 49.0931 40.1212 50.7346 34.2636C52.3761 28.406 51.6546 22.1422 48.7238 16.8059V16.8092Z" fill="white"/>
</g>
<defs>
<clipPath id="clip0_1113_92550">
<rect width="276" height="56" fill="white"/>
</clipPath>
</defs>
</svg>
