<svg width="132" height="36" viewBox="0 0 132 36" fill="none" xmlns="http://www.w3.org/2000/svg">
<g clip-path="url(#clip0_6298_1377)">
<path d="M31.4334 24.6683L31.4151 24.6091L42.9648 13.7953V8.58496H24.4354V13.7953H35.503L35.5213 13.8452L24.0845 24.6683V29.8786H43.1509V24.6683H31.4334Z" fill="#201515"/>
<path d="M54.5264 8.08893C52.3892 8.08893 50.6473 8.41855 49.3009 9.07795C48.0467 9.65253 46.9903 10.5993 46.2686 11.7954C45.5782 12.9993 45.1446 14.3391 44.9965 15.7265L50.6188 16.5346C50.8221 15.3095 51.2289 14.4411 51.839 13.9294C52.5326 13.3943 53.3873 13.1239 54.2551 13.1651C55.3963 13.1651 56.224 13.477 56.7381 14.101C57.248 14.725 57.5072 15.5893 57.5072 16.7281V17.2959H52.1014C49.3497 17.2959 47.3729 17.9199 46.171 19.1679C44.969 20.4158 44.3691 22.0632 44.3711 24.1099C44.3711 26.2065 44.971 27.7665 46.171 28.7898C47.3709 29.8131 48.88 30.3217 50.6981 30.3154C52.9536 30.3154 54.6885 29.5219 55.9024 27.9349C56.6197 26.9596 57.1317 25.8433 57.4064 24.6559H57.6107L58.3856 29.8661H63.48V16.6719C63.48 13.945 62.7776 11.8329 61.3723 10.3353C59.9669 8.83767 57.6848 8.08893 54.5264 8.08893ZM56.3083 24.3532C55.4997 25.0427 54.4411 25.3859 53.1233 25.3859C52.0373 25.3859 51.2828 25.1914 50.8598 24.8025C50.6537 24.6184 50.4897 24.3903 50.3795 24.1342C50.2693 23.878 50.2156 23.6002 50.2222 23.3205C50.2102 23.0567 50.2508 22.7931 50.3415 22.5459C50.4322 22.2986 50.5712 22.0728 50.75 21.8822C50.9433 21.6968 51.1714 21.5534 51.4204 21.4606C51.6695 21.3678 51.9344 21.3276 52.199 21.3424H57.5163V21.7012C57.5269 22.2084 57.4235 22.7113 57.2144 23.1711C57.0048 23.6309 56.6949 24.0354 56.3083 24.3532Z" fill="#201515"/>
<path d="M94.2853 8.58496H88.2666V29.8818H94.2853V8.58496Z" fill="#201515"/>
<path d="M129.822 8.58496C128.122 8.58496 126.781 9.19854 125.801 10.4258C125.098 11.3077 124.563 12.6107 124.197 14.335H124.02L123.233 8.58496H118.092V29.8786H124.111V18.9588C124.111 17.5819 124.427 16.5263 125.057 15.7921C125.687 15.0578 126.851 14.6907 128.547 14.6907H130.831V8.58496H129.822Z" fill="#201515"/>
<path d="M112.119 9.28073C110.714 8.42584 108.941 7.99946 106.802 8.00153C103.434 8.00153 100.798 8.98226 98.8949 10.9437C96.9909 12.9051 96.0395 15.609 96.0395 19.0556C95.9909 21.1392 96.4357 23.204 97.336 25.0739C98.16 26.7402 99.4432 28.1232 101.027 29.0519C102.621 29.9941 104.518 30.4662 106.717 30.4683C108.618 30.4683 110.206 30.1688 111.482 29.5698C112.681 29.0318 113.724 28.1886 114.514 27.1206C115.266 26.0722 115.824 24.8923 116.161 23.6387L110.975 22.1536C110.757 22.9688 110.337 23.7124 109.755 24.3126C109.169 24.9117 108.188 25.2112 106.811 25.2112C105.174 25.2112 103.954 24.7318 103.15 23.7729C102.567 23.0803 102.202 22.0912 102.04 20.809H116.241C116.299 20.2099 116.329 19.7076 116.329 19.302V17.976C116.363 16.1947 116.004 14.4285 115.277 12.8094C114.596 11.3345 113.495 10.1044 112.119 9.28073ZM106.628 13.0777C109.069 13.0777 110.452 14.3059 110.78 16.7624H102.147C102.284 15.9428 102.616 15.1702 103.114 14.5129C103.905 13.554 105.076 13.0756 106.628 13.0777Z" fill="#201515"/>
<path d="M91.3414 0.00199775C90.8886 -0.0137516 90.4374 0.0637495 90.0145 0.2299C89.5915 0.396051 89.2059 0.647455 88.8795 0.969175C88.5585 1.29398 88.3062 1.68359 88.1398 2.11326C87.9734 2.54293 87.8961 3.00328 87.9126 3.46514C87.8966 3.92998 87.9739 4.39327 88.1409 4.82608C88.3073 5.25889 88.5595 5.65195 88.8811 5.98069C89.2027 6.30944 89.5873 6.56684 90.0107 6.73686C90.4342 6.90687 90.887 6.98586 91.3414 6.96884C91.7931 6.98629 92.2433 6.90736 92.6635 6.73713C93.0838 6.56684 93.4646 6.30895 93.7819 5.97982C94.0971 5.64731 94.3425 5.25315 94.5046 4.82099C94.6667 4.38884 94.7414 3.92764 94.7249 3.46514C94.7457 3.00537 94.6726 2.54621 94.5099 2.11699C94.3473 1.68777 94.0993 1.29791 93.7814 0.972317C93.463 0.646718 93.0822 0.392533 92.6625 0.225997C92.2433 0.0594606 91.7942 -0.0157607 91.3446 0.00512075L91.3414 0.00199775Z" fill="#201515"/>
<path d="M78.9073 8.00156C76.8571 8.00156 75.2097 8.65986 73.9654 9.97648C73.0438 10.952 72.3675 12.408 71.9366 14.3444H71.7446L70.9574 8.59436H65.8171V36H71.8358V24.712H72.0555C72.239 25.4647 72.4966 26.1964 72.8241 26.896C73.3334 28.0356 74.1686 28.9907 75.2193 29.6353C76.3083 30.2433 77.5355 30.5457 78.7761 30.512C81.2961 30.512 83.2145 29.5084 84.5323 27.5013C85.8502 25.4941 86.5094 22.6934 86.5094 19.0993C86.5094 15.6278 85.8715 12.9103 84.5969 10.9468C83.3217 8.98332 81.4251 8.00156 78.9073 8.00156ZM79.5174 23.4328C78.8155 24.4728 77.7174 24.9928 76.2225 24.9928C75.6065 25.0219 74.9921 24.9004 74.431 24.6384C73.8694 24.3763 73.3771 23.9812 72.9953 23.4859C72.2161 22.4854 71.8278 21.1158 71.8299 19.3769V18.9713C71.8299 17.2054 72.2182 15.8534 72.9953 14.9154C73.7718 13.9773 74.8481 13.5135 76.2225 13.5238C77.7441 13.5238 78.8491 14.0179 79.5387 15.0058C80.2283 15.9938 80.5729 17.3718 80.5729 19.1398C80.5771 20.968 80.2273 22.3991 79.5233 23.4328H79.5174Z" fill="#201515"/>
<path d="M21.7569 24.6683H0.93335V29.8849H21.7569V24.6683Z" fill="#FF4F00"/>
</g>
<defs>
<clipPath id="clip0_6298_1377">
<rect width="132" height="36" fill="white"/>
</clipPath>
</defs>
</svg>
