<svg width="142" height="44" viewBox="0 0 142 44" fill="none" xmlns="http://www.w3.org/2000/svg">
<g clip-path="url(#clip0_5411_376801)">
<g filter="url(#filter0_d_5411_376801)">
<path fill-rule="evenodd" clip-rule="evenodd" d="M20.237 9.04631C18.805 11.1108 18.1239 12.1612 18.1239 12.3053C18.1239 12.4533 19.8689 15.0262 23.8561 20.7574C27.0088 25.2891 29.8128 29.313 30.0872 29.6995L30.5861 30.4021L31.3809 28.786C32.4562 26.5997 32.7175 25.9594 32.9208 25.0126C33.3356 23.0809 32.9846 20.7571 32.0286 19.107C31.7597 18.643 22.9903 6.47495 22.6826 6.13901C22.6125 6.0626 22.5091 6 22.4527 6C22.3962 6 21.3991 7.37084 20.237 9.04631ZM16.4356 19.3414C14.4673 19.7336 12.5538 20.812 11.3614 22.2008C10.4335 23.2817 0.0111014 37.5752 0.00555072 37.7746L0 37.9732L4.5558 37.9938C8.36536 38.011 9.13085 37.9961 9.22908 37.9033C9.29376 37.8423 10.5551 36.1622 12.0322 34.1698C13.5093 32.1775 14.7424 30.547 14.7724 30.5466C14.8025 30.5462 15.3275 31.3412 15.9391 32.3134C17.1765 34.2798 17.7387 35.0262 18.4503 35.6471C19.9935 36.9935 21.8809 37.7697 23.999 37.9291C24.4913 37.9662 29.5108 37.9735 35.1535 37.9452C44.6276 37.8978 45.4148 37.8837 45.4396 37.7617C45.469 37.6177 40.8469 30.8323 40.5651 30.6055C40.4022 30.4744 39.6621 30.4665 27.6181 30.4665C20.5923 30.4665 14.8462 30.4397 14.8491 30.4069C14.8519 30.3741 16.6635 27.9166 18.875 24.9456C21.0864 21.9747 22.8863 19.5333 22.8746 19.5202C22.8225 19.4616 18.7519 19.1883 17.9978 19.1927C17.5292 19.1954 16.8374 19.2613 16.4356 19.3414Z" fill="white"/>
</g>
<path fill-rule="evenodd" clip-rule="evenodd" d="M130.151 11.3334C123.187 11.3334 118.267 16.217 118.267 23.3333C118.267 30.4497 122.98 35.3334 130.151 35.3334C137.322 35.3334 142 30.6238 142 23.3333C142 16.0429 137.115 11.3334 130.151 11.3334ZM130.151 14.927C134.898 14.927 138.085 18.2406 138.085 23.3333C138.085 28.4262 134.898 31.7397 130.151 31.7397C125.405 31.7397 122.217 28.4262 122.217 23.3333C122.217 18.2406 125.405 14.927 130.151 14.927ZM55.556 15.5194H48.5429C48.4897 15.5194 48.4463 15.4756 48.4463 15.4221V11.9539C48.4463 11.9004 48.4897 11.8566 48.5429 11.8566H66.6777C66.7309 11.8566 66.7743 11.9004 66.7743 11.9539V15.4221C66.7743 15.4756 66.7309 15.5194 66.6777 15.5194H59.6298C59.5766 15.5194 59.5332 15.5631 59.5332 15.6166V34.7125C59.5332 34.766 59.4897 34.8098 59.4365 34.8098H55.7493C55.6961 34.8098 55.6527 34.766 55.6527 34.7125V15.6166C55.6527 15.5631 55.6092 15.5194 55.556 15.5194ZM68.6045 11.8568H81.6809C81.734 11.8568 81.7772 11.9006 81.7772 11.9541V15.4222C81.7772 15.4757 81.734 15.5195 81.6809 15.5195H72.485C72.4318 15.5195 72.3883 15.5633 72.3883 15.6169V21.2477C72.3883 21.3012 72.4318 21.3449 72.485 21.3449H81.335C81.3881 21.3449 81.4316 21.3887 81.4316 21.4422V24.9454C81.4316 24.9989 81.3881 25.0427 81.335 25.0427H72.485C72.4318 25.0427 72.3883 25.0864 72.3883 25.14V31.0499C72.3883 31.1035 72.4318 31.1472 72.485 31.1472H81.9933C82.0461 31.1472 82.0893 31.191 82.0893 31.2445V34.7127C82.0893 34.7662 82.0461 34.81 81.9933 34.81H68.6045C68.5513 34.81 68.5078 34.7662 68.5078 34.7127V11.9541C68.5078 11.9006 68.5513 11.8568 68.6045 11.8568ZM89.8629 25.3559C91.4911 25.3559 92.6004 26.2276 93.2584 28.0419L95.5915 34.7448C95.6046 34.7837 95.6413 34.81 95.6823 34.81H99.7014C99.7695 34.81 99.8157 34.7419 99.7922 34.6787L97.035 27.2053C96.4165 25.5009 95.3687 24.4123 93.9223 23.9113C93.8365 23.8811 93.8343 23.7585 93.9215 23.7283C96.544 22.7993 97.9018 20.66 97.9018 18.0314C97.9018 14.3337 95.1643 11.8568 90.5905 11.8568H84.001C83.9475 11.8568 83.9043 11.9006 83.9043 11.9541V34.7117C83.9043 34.7652 83.9475 34.809 84.001 34.809H87.6882C87.7416 34.809 87.7849 34.7652 87.7849 34.7117V25.4532C87.7849 25.3997 87.8281 25.3559 87.8816 25.3559H89.8629ZM93.9523 18.6589C93.9523 20.6824 92.6356 22.0425 90.5224 22.0425H87.8816C87.8281 22.0425 87.7849 21.9987 87.7849 21.9452V15.4768C87.7849 15.4233 87.8281 15.3795 87.8816 15.3795H90.4872C92.5667 15.3795 93.9523 16.6704 93.9523 18.6589ZM101.018 32.6766C101.018 32.6571 101.023 32.6376 101.034 32.6221L111.307 17.368L112.452 15.6713C112.496 15.6071 112.45 15.5195 112.372 15.5195H101.426C101.373 15.5195 101.33 15.4757 101.33 15.4222V11.9541C101.33 11.9006 101.373 11.8568 101.426 11.8568H118.14C118.194 11.8568 118.237 11.9006 118.237 11.9541V13.9893C118.237 14.0087 118.231 14.0282 118.221 14.0438L107.913 29.3329L106.802 30.9955C106.758 31.0597 106.804 31.1472 106.882 31.1472H118.14C118.194 31.1472 118.237 31.191 118.237 31.2445V34.7127C118.237 34.7662 118.194 34.81 118.14 34.81H101.114C101.061 34.81 101.018 34.7662 101.018 34.7127V32.6766Z" fill="white"/>
</g>
<defs>
<filter id="filter0_d_5411_376801" x="-29.7143" y="-20.7429" width="104.868" height="91.4286" filterUnits="userSpaceOnUse" color-interpolation-filters="sRGB">
<feFlood flood-opacity="0" result="BackgroundImageFix"/>
<feColorMatrix in="SourceAlpha" type="matrix" values="0 0 0 0 0 0 0 0 0 0 0 0 0 0 0 0 0 0 127 0" result="hardAlpha"/>
<feOffset dy="2.97143"/>
<feGaussianBlur stdDeviation="14.8571"/>
<feComposite in2="hardAlpha" operator="out"/>
<feColorMatrix type="matrix" values="0 0 0 0 0.631729 0 0 0 0 0.276415 0 0 0 0 0.999964 0 0 0 0.2 0"/>
<feBlend mode="normal" in2="BackgroundImageFix" result="effect1_dropShadow_5411_376801"/>
<feBlend mode="normal" in="SourceGraphic" in2="effect1_dropShadow_5411_376801" result="shape"/>
</filter>
<clipPath id="clip0_5411_376801">
<rect width="142" height="44" fill="white"/>
</clipPath>
</defs>
</svg>
