<svg width="661" height="518" viewBox="0 0 661 518" fill="none" xmlns="http://www.w3.org/2000/svg">
<circle opacity="0.25" cx="331" cy="259" r="255" stroke="#2B4BEE" stroke-width="8"/>
<path fill-rule="evenodd" clip-rule="evenodd" d="M146.434 87C147.558 87 148.632 86.5346 149.408 85.7214C195.116 37.8344 259.574 8 331 8C402.426 8 466.884 37.8344 512.592 85.7214C513.368 86.5346 514.442 87 515.566 87C519.084 87 520.923 82.8666 518.496 80.3201C471.324 30.8358 404.763 0 331 0C257.237 0 190.676 30.8358 143.504 80.3201C141.077 82.8666 142.916 87 146.434 87ZM84.4274 211.819C84.9007 209.331 83.0112 207 80.4783 207C78.5831 207 76.9464 208.333 76.5914 210.195C73.5775 226.001 72 242.316 72 259C72 275.684 73.5775 291.999 76.5914 307.805C76.9464 309.667 78.5831 311 80.4783 311C83.0112 311 84.9007 308.669 84.4274 306.181C81.521 290.9 80 275.127 80 259C80 242.873 81.521 227.1 84.4274 211.819ZM146.434 431C147.558 431 148.632 431.465 149.408 432.279C195.116 480.166 259.574 510 331 510C402.426 510 466.884 480.166 512.592 432.279C513.368 431.465 514.442 431 515.566 431C519.084 431 520.923 435.133 518.496 437.68C471.324 487.164 404.763 518 331 518C257.237 518 190.676 487.164 143.504 437.68C141.077 435.133 142.916 431 146.434 431ZM585.409 307.805C585.054 309.667 583.417 311 581.522 311C578.989 311 577.099 308.669 577.573 306.181C580.479 290.9 582 275.127 582 259C582 242.873 580.479 227.1 577.573 211.819C577.099 209.331 578.989 207 581.522 207C583.417 207 585.054 208.333 585.409 210.195C588.423 226.001 590 242.316 590 259C590 275.684 588.423 291.999 585.409 307.805Z" fill="#2B4BEE"/>
<circle opacity="0.1" cx="331" cy="259" r="235" fill="#2B4BEE"/>
<circle opacity="0.1" cx="331" cy="259" r="205" fill="#2B4BEE"/>
<circle opacity="0.1" cx="331" cy="259" r="175" fill="#2B4BEE"/>
<circle opacity="0.1" cx="331" cy="259" r="145" fill="#2B4BEE"/>
<circle opacity="0.1" cx="331" cy="259" r="115" fill="#2B4BEE"/>
<circle opacity="0.1" cx="331" cy="259" r="85" fill="#2B4BEE"/>
<circle opacity="0.1" cx="331" cy="259" r="55" fill="#2B4BEE"/>
<g filter="url(#filter0_d_3586_94398)">
<rect x="20" y="331" width="198" height="80" rx="40" fill="white"/>
</g>
<path fill-rule="evenodd" clip-rule="evenodd" d="M56 359.207C56 355.779 58.7445 353 62.1299 353H85.4237C88.8091 353 91.5536 355.779 91.5536 359.207V379.267C91.5536 382.813 87.1215 384.352 84.9719 381.553L78.2516 372.799V383.414C78.2516 386.499 75.7816 389 72.7347 389H62.1299C58.7445 389 56 386.221 56 382.793V359.207ZM62.1299 357.966C61.4528 357.966 60.9039 358.521 60.9039 359.207V382.793C60.9039 383.479 61.4528 384.034 62.1299 384.034H72.9186C73.2572 384.034 73.3477 383.757 73.3477 383.414V369.18C73.3477 365.633 77.7798 364.094 79.9294 366.894L86.6497 375.647V359.207C86.6497 358.521 86.7138 357.966 86.0367 357.966H62.1299Z" fill="#333333"/>
<path d="M85.4233 353C88.8088 353 91.5533 355.779 91.5533 359.207V379.267C91.5533 382.813 87.1211 384.352 84.9715 381.553L78.2513 372.799V383.414C78.2513 386.499 75.7813 389 72.7344 389C73.0729 389 73.3474 388.722 73.3474 388.379V369.18C73.3474 365.633 77.7795 364.094 79.9291 366.894L86.6493 375.647V354.241C86.6493 353.556 86.1004 353 85.4233 353Z" fill="#333333"/>
<path d="M115.933 363.599V373.015L106.916 363.599H102.223V378.999H106.503V368.879L116.324 378.999H120.213V363.599H115.933Z" fill="#333333"/>
<path d="M128.147 375.567V372.839H137.729V369.561H128.147V367.031H139.771V363.599H123.78V378.999H140.01V375.567H128.147Z" fill="#333333"/>
<path d="M151.384 379.505C157.403 379.505 161.314 376.513 161.314 371.299C161.314 366.085 157.403 363.093 151.384 363.093C145.366 363.093 141.477 366.085 141.477 371.299C141.477 376.513 145.366 379.505 151.384 379.505ZM151.384 375.853C148.038 375.853 145.974 374.203 145.974 371.299C145.974 368.395 148.06 366.745 151.384 366.745C154.73 366.745 156.794 368.395 156.794 371.299C156.794 374.203 154.73 375.853 151.384 375.853Z" fill="#333333"/>
<path d="M177.719 363.599V373.015L168.702 363.599H164.009V378.999H168.29V368.879L178.11 378.999H182V363.599H177.719Z" fill="#333333"/>
<g filter="url(#filter1_d_3586_94398)">
<rect x="453" y="331" width="188" height="80" rx="40" fill="white"/>
</g>
<path d="M547.708 378.403V370.086C547.708 368.65 547.361 367.559 546.665 366.812C545.969 366.065 544.875 365.691 543.384 365.691C542.37 365.691 541.565 365.789 540.969 365.986C540.372 366.163 539.994 366.291 539.835 366.369V378.403H536.764V364.423C536.843 364.383 537.062 364.295 537.42 364.157C537.778 364.02 538.255 363.872 538.851 363.715C539.448 363.558 540.144 363.42 540.939 363.302C541.734 363.184 542.609 363.125 543.563 363.125C544.657 363.125 545.651 363.273 546.545 363.567C547.44 363.843 548.196 364.246 548.812 364.777C549.448 365.308 549.935 365.947 550.273 366.694C550.611 367.441 550.78 368.287 550.78 369.23V378.403H547.708Z" fill="#333333"/>
<path d="M570.756 371C570.756 372.121 570.557 373.163 570.159 374.126C569.781 375.09 569.245 375.926 568.549 376.633C567.853 377.322 567.018 377.872 566.044 378.285C565.069 378.678 563.996 378.875 562.823 378.875C561.65 378.875 560.566 378.678 559.572 378.285C558.598 377.872 557.763 377.322 557.067 376.633C556.371 375.926 555.824 375.09 555.427 374.126C555.049 373.163 554.86 372.121 554.86 371C554.86 369.879 555.049 368.837 555.427 367.874C555.824 366.91 556.371 366.084 557.067 365.396C557.763 364.688 558.598 364.138 559.572 363.744C560.566 363.332 561.65 363.125 562.823 363.125C563.996 363.125 565.069 363.332 566.044 363.744C567.018 364.138 567.853 364.688 568.549 365.396C569.245 366.084 569.781 366.91 570.159 367.874C570.557 368.837 570.756 369.879 570.756 371ZM567.565 371C567.565 370.214 567.455 369.496 567.236 368.847C567.018 368.178 566.7 367.608 566.282 367.136C565.885 366.645 565.388 366.271 564.791 366.016C564.214 365.74 563.558 365.603 562.823 365.603C562.067 365.603 561.391 365.74 560.795 366.016C560.218 366.271 559.721 366.645 559.304 367.136C558.906 367.608 558.598 368.178 558.379 368.847C558.161 369.496 558.051 370.214 558.051 371C558.051 371.787 558.161 372.514 558.379 373.183C558.598 373.832 558.906 374.402 559.304 374.893C559.721 375.365 560.218 375.739 560.795 376.014C561.391 376.27 562.067 376.398 562.823 376.398C563.558 376.398 564.214 376.27 564.791 376.014C565.388 375.739 565.885 375.365 566.282 374.893C566.7 374.402 567.018 373.832 567.236 373.183C567.455 372.514 567.565 371.787 567.565 371Z" fill="#333333"/>
<path d="M588.605 364.246C588.486 364.678 588.277 365.258 587.979 365.986C587.701 366.694 587.372 367.49 586.995 368.375C586.617 369.26 586.199 370.194 585.742 371.177C585.305 372.141 584.857 373.084 584.4 374.008C583.963 374.913 583.535 375.768 583.118 376.575C582.72 377.361 582.372 378.02 582.074 378.551H578.883C578.525 377.921 578.147 377.233 577.75 376.486C577.372 375.719 576.984 374.952 576.587 374.185C576.209 373.399 575.841 372.622 575.483 371.855C575.125 371.089 574.787 370.381 574.469 369.732C574.171 369.063 573.903 368.473 573.664 367.962C573.445 367.451 573.276 367.058 573.157 366.782C573.038 366.507 572.919 366.212 572.799 365.898C572.68 365.583 572.62 365.288 572.62 365.013C572.62 364.659 572.74 364.334 572.978 364.039C573.217 363.744 573.624 363.597 574.201 363.597C574.599 363.597 574.907 363.636 575.125 363.715C575.344 363.794 575.463 363.843 575.483 363.862C575.821 364.787 576.209 365.799 576.646 366.9C577.104 368.001 577.561 369.093 578.018 370.174C578.495 371.236 578.953 372.258 579.39 373.242C579.827 374.205 580.215 375.021 580.553 375.69C580.792 375.237 581.1 374.598 581.478 373.773C581.875 372.927 582.283 372.003 582.7 371C583.138 369.997 583.575 368.965 584.012 367.903C584.45 366.841 584.838 365.868 585.176 364.983C585.335 364.551 585.533 364.216 585.772 363.98C586.011 363.725 586.408 363.597 586.965 363.597C587.442 363.597 587.82 363.685 588.098 363.862C588.396 364.039 588.565 364.167 588.605 364.246Z" fill="#333333"/>
<path d="M601.929 364.983C601.929 364.511 602.068 364.167 602.347 363.951C602.625 363.715 603.023 363.597 603.54 363.597C603.878 363.597 604.176 363.636 604.434 363.715C604.713 363.794 604.901 363.853 605.001 363.892V378.403C604.862 378.442 604.613 378.482 604.255 378.521C603.917 378.56 603.5 378.6 603.003 378.639C602.506 378.698 601.959 378.737 601.363 378.757C600.766 378.796 600.16 378.816 599.543 378.816C597.734 378.816 596.263 378.6 595.13 378.167C594.016 377.735 593.132 377.105 592.475 376.28C591.66 375.237 591.253 373.851 591.253 372.121V364.983C591.253 364.511 591.392 364.167 591.67 363.951C591.949 363.715 592.346 363.597 592.863 363.597C593.201 363.597 593.499 363.636 593.758 363.715C594.036 363.794 594.225 363.853 594.324 363.892V371.796C594.324 373.291 594.702 374.412 595.458 375.159C596.233 375.906 597.535 376.28 599.364 376.28C600.06 376.28 600.617 376.26 601.034 376.221C601.472 376.162 601.77 376.112 601.929 376.073V364.983Z" fill="#333333"/>
<path fill-rule="evenodd" clip-rule="evenodd" d="M517.023 367.429C517.023 368.397 515.835 368.876 515.151 368.184L501.141 354.021C503.036 353.36 505.074 353 507.197 353C510.816 353 514.189 354.045 517.023 355.847V367.429ZM522.118 360.695V367.429C522.118 372.914 515.386 375.629 511.509 371.709L496.443 356.478C491.93 359.753 489 365.038 489 371C489 374.833 490.211 378.386 492.275 381.305V374.607C492.275 369.122 499.007 366.407 502.884 370.327L517.929 385.537C522.454 382.263 525.393 376.971 525.393 371C525.393 367.167 524.182 363.614 522.118 360.695ZM499.243 373.852L513.225 387.989C511.339 388.644 509.31 389 507.197 389C503.577 389 500.205 387.955 497.37 386.153V374.607C497.37 373.639 498.558 373.16 499.243 373.852Z" fill="#333333"/>
<g filter="url(#filter2_d_3586_94398)">
<rect x="238" y="331" width="195" height="80" rx="40" fill="white"/>
</g>
<g clip-path="url(#clip0_3586_94398)">
<path d="M330.332 363.336C331.011 363.34 331.688 363.42 332.35 363.574C332.978 363.712 333.51 363.964 334.025 364.229V366.282C333.451 366.065 332.867 365.879 332.274 365.725C331.685 365.586 331.153 365.486 330.562 365.486C329.971 365.486 329.402 365.586 328.811 365.766C328.22 365.944 327.727 366.282 327.231 366.757C326.775 367.234 326.413 367.83 326.109 368.585C325.844 369.34 325.711 370.274 325.711 371.405C325.711 372.186 325.805 372.966 326.035 373.668C326.24 374.321 326.563 374.929 326.986 375.455C327.405 375.972 327.937 376.349 328.509 376.627C329.137 376.904 329.86 377.043 330.678 377.043C331.267 377.043 331.837 377.003 332.485 376.864C333.079 376.715 333.664 376.529 334.236 376.308V378.374C334.065 378.472 333.838 378.611 333.571 378.711C333.304 378.811 332.981 378.889 332.619 378.99C332.295 379.088 331.954 379.128 331.536 379.169L330.413 379.267C329.46 379.28 328.513 379.118 327.615 378.79C326.771 378.465 325.99 377.988 325.312 377.381C324.64 376.686 324.121 375.853 323.789 374.938C323.415 373.945 323.199 372.831 323.199 371.463C323.199 370.469 323.294 369.576 323.523 368.783C323.681 368.039 323.957 367.327 324.342 366.676C324.705 366.077 325.09 365.543 325.56 365.115C326.009 364.707 326.507 364.36 327.043 364.082C327.575 363.804 328.128 363.606 328.661 363.468L330.335 363.308L330.332 363.336ZM337.888 360.237V357.457H340.256V360.237H337.888ZM337.926 378.886V363.752H340.293V378.898L337.926 378.887V378.886ZM345.177 378.898V355.828H347.545V378.898L345.177 378.9V378.898ZM352.377 360.238V357.458H354.745V360.238H352.377ZM352.414 378.886V363.752H354.783V378.898L352.414 378.887V378.886ZM365.312 379.276C364.632 379.277 363.955 379.197 363.294 379.038C362.741 378.874 362.211 378.641 361.714 378.343C361.259 378.005 360.858 377.688 360.555 377.211C360.224 376.792 359.97 376.314 359.807 375.802C359.67 375.387 359.562 374.962 359.484 374.531L359.389 373.022V363.768H361.757V373.022C361.757 373.877 361.852 374.583 362.081 375.13C362.31 375.785 362.709 376.261 363.241 376.637C363.771 377.016 364.496 377.196 365.314 377.196C366.209 377.196 366.932 377.017 367.482 376.579C368.016 376.164 368.435 375.646 368.642 374.931C368.813 374.415 368.908 373.761 368.908 373.006V363.746H371.276V373.04C371.276 373.512 371.245 373.983 371.182 374.45C371.145 374.864 371.055 375.271 370.916 375.661C370.745 376.177 370.459 376.654 370.167 377.112C369.843 377.528 369.444 377.892 369.008 378.243C368.553 378.581 368.018 378.8 367.39 378.998C366.714 379.185 366.016 379.279 365.316 379.276H365.312ZM387.541 378.885H385.172V369.142C385.174 368.571 385.098 368.003 384.945 367.454C384.811 366.977 384.621 366.599 384.355 366.322C384.088 366.035 383.764 365.812 383.404 365.666C383.029 365.528 382.656 365.488 382.187 365.488C381.368 365.48 380.566 365.723 379.882 366.183C379.151 366.712 378.525 367.379 378.038 368.149V378.914H375.679V363.752H377.523L377.979 365.861H378.016L378.874 364.867C379.198 364.59 379.539 364.311 379.901 364.087C380.288 363.844 380.713 363.669 381.158 363.57C381.614 363.432 382.109 363.392 382.654 363.392C383.737 363.392 384.633 363.671 385.355 364.173C386.078 364.729 386.611 365.444 387.031 366.378H387.068C387.696 365.444 388.458 364.689 389.274 364.173C390.091 363.656 391.082 363.392 392.148 363.392C392.643 363.392 393.176 363.492 393.766 363.631C394.355 363.77 394.851 364.047 395.346 364.411C395.84 364.775 396.201 365.345 396.504 366.059C396.828 366.754 396.999 367.648 396.999 368.781V378.93H394.716V369.178C394.718 368.607 394.64 368.039 394.487 367.49C394.354 367.014 394.163 366.636 393.898 366.359C393.631 366.073 393.306 365.849 392.948 365.703C392.573 365.564 392.199 365.524 391.729 365.524C390.873 365.524 390.112 365.762 389.427 366.219C388.691 366.757 388.052 367.423 387.542 368.185L387.541 378.887V378.885Z" fill="#333333"/>
<path d="M287.666 371.076L290.731 376.517H296.882L299.966 371.076L296.882 365.483H290.731L287.666 371.076Z" fill="#333333" stroke="#333333" stroke-width="2"/>
<path d="M287.666 384.793L290.731 390.31H296.882L299.966 384.793L296.882 379.276H290.731L287.666 384.793Z" fill="#333333" stroke="#333333" stroke-width="2"/>
<path d="M287.666 357.283L290.731 362.724H296.882L299.966 357.283L296.882 351.69H290.731L287.666 357.283Z" fill="#333333" stroke="#333333" stroke-width="2"/>
<path d="M299.967 377.963L303.055 383.414H309.148L312.267 377.963L309.148 372.379H303.055L299.967 377.963Z" fill="#333333" stroke="#333333" stroke-width="2"/>
<path d="M299.967 364.097L303.006 369.621H309.148L312.267 364.17L309.148 358.586H303.006L299.967 364.097Z" fill="#333333" stroke="#333333" stroke-width="2"/>
<path d="M275.367 377.963L278.437 383.414H284.523L287.667 377.963L284.523 372.379H278.437L275.367 377.963Z" fill="#333333" stroke="#333333" stroke-width="2"/>
<path d="M275.367 364.17L278.437 369.621H284.523L287.667 364.17L284.523 358.586H278.437L275.367 364.17Z" fill="#333333" stroke="#333333" stroke-width="2"/>
</g>
<g filter="url(#filter3_d_3586_94398)">
<rect x="345" y="219" width="193" height="80" rx="40" fill="white"/>
</g>
<path fill-rule="evenodd" clip-rule="evenodd" d="M392.656 265.429C388.776 265.429 385.339 263.686 383.22 261.006V271.857H499.78V261.006C497.661 263.686 494.224 265.429 490.344 265.429C483.907 265.429 478.688 260.632 478.688 254.714C478.688 248.797 483.907 244 490.344 244C496.781 244 502 248.797 502 254.714V274H381V254.714C381 248.797 386.219 244 392.656 244C399.093 244 404.312 248.797 404.312 254.714C404.312 260.632 399.093 265.429 392.656 265.429ZM392.656 263.286C397.971 263.286 402.092 259.351 402.092 254.714C402.092 250.078 397.971 246.143 392.656 246.143C387.341 246.143 383.22 250.078 383.22 254.714C383.22 259.351 387.341 263.286 392.656 263.286ZM490.344 246.143C495.659 246.143 499.78 250.078 499.78 254.714C499.78 259.351 495.659 263.286 490.344 263.286C485.029 263.286 480.908 259.351 480.908 254.714C480.908 250.078 485.029 246.143 490.344 246.143Z" fill="#333333"/>
<path fill-rule="evenodd" clip-rule="evenodd" d="M429.55 254.796C429.55 254.92 429.547 255.044 429.543 255.168V264.925H427.322V261.087C425.23 263.72 421.858 265.429 418.055 265.429C411.707 265.429 406.56 260.668 406.56 254.796C406.56 248.924 411.707 244.163 418.055 244.163C424.403 244.163 429.55 248.924 429.55 254.796ZM418.055 263.286C423.143 263.286 427.135 259.583 427.322 255.124V254.467C427.135 250.009 423.143 246.306 418.055 246.306C412.843 246.306 408.78 250.192 408.78 254.796C408.78 259.4 412.843 263.286 418.055 263.286Z" fill="#333333"/>
<path d="M436.396 251.276C436.396 249.73 437.138 248.513 438.303 247.662C439.491 246.795 441.118 246.317 442.775 246.351C444.428 246.384 446.028 246.924 447.204 247.991C448.362 249.041 449.202 250.686 449.202 253.118H451.422C451.422 250.171 450.384 247.935 448.724 246.43C447.083 244.941 444.927 244.251 442.822 244.208C440.724 244.165 438.594 244.763 436.964 245.953C435.313 247.158 434.176 248.979 434.176 251.276V264.932H436.396V251.276Z" fill="#333333"/>
<path d="M475.116 260.041C474.155 261.566 472.637 263.193 470.794 264.086L470.751 264.109C468.46 265.294 465.803 265.698 463.232 265.251L463.211 265.248C460.636 264.796 458.308 263.519 456.623 261.635L456.586 261.593C454.898 259.686 453.974 257.286 453.971 254.807C453.969 252.327 454.889 249.925 456.573 248.016L456.61 247.973C458.291 246.087 460.617 244.806 463.191 244.35L463.212 244.346C465.783 243.895 468.44 244.294 470.733 245.476L470.776 245.498C472.588 246.442 474.152 247.886 475.163 249.538C475.431 249.975 475.659 250.426 475.844 250.886C475.95 251.148 476.041 251.414 476.116 251.681H473.789C473.021 249.834 471.596 248.294 469.756 247.324L469.713 247.301C467.852 246.332 465.689 246.005 463.598 246.375L463.577 246.379C461.495 246.753 459.615 247.796 458.263 249.33L458.225 249.373C456.892 250.905 456.164 252.824 456.166 254.805C456.168 256.785 456.899 258.703 458.236 260.233L458.273 260.275C459.629 261.807 461.51 262.847 463.593 263.218L463.614 263.221C465.705 263.588 467.868 263.257 469.727 262.285L469.77 262.262L469.828 262.231C471.638 261.256 473.039 259.727 473.795 257.898H476.121C476.054 258.141 475.959 258.406 475.839 258.685C475.655 259.111 475.412 259.571 475.116 260.041Z" fill="#333333"/>
<g filter="url(#filter4_d_3586_94398)">
<rect x="123" y="219" width="202" height="80" rx="40" fill="white"/>
</g>
<path d="M202.627 248.66H209.155C211.108 248.513 213.04 249.136 214.528 250.393C215.182 251.154 215.677 252.036 215.984 252.987C216.29 253.938 216.403 254.94 216.314 255.934C216.395 256.903 216.279 257.877 215.973 258.801C215.666 259.725 215.175 260.578 214.528 261.311C213.062 262.555 211.159 263.178 209.23 263.045H202.627V248.66ZM208.63 259.83C209.257 259.848 209.88 259.737 210.461 259.504C210.712 259.393 210.936 259.232 211.119 259.03C211.303 258.829 211.442 258.591 211.527 258.334C211.801 257.564 211.923 256.749 211.887 255.934C211.921 255.094 211.798 254.256 211.527 253.46C211.344 252.932 210.977 252.485 210.491 252.201C209.908 251.939 209.27 251.817 208.63 251.845H206.889V259.83H208.63ZM220.366 248.66H227.975C228.686 248.614 229.4 248.712 230.071 248.949C230.742 249.186 231.357 249.557 231.877 250.038C232.792 251.081 233.25 252.439 233.153 253.815C233.166 254.72 232.916 255.61 232.432 256.378C231.949 257.112 231.275 257.706 230.481 258.097C230.661 258.225 230.814 258.386 230.932 258.571C231.082 258.822 231.213 259.085 231.322 259.356L233.003 263.134H228.5L227 259.667C226.905 259.442 226.755 259.244 226.564 259.089C226.345 258.968 226.095 258.912 225.844 258.926H224.643V263.134H220.411V248.66H220.366ZM226.849 255.623C227.119 255.65 227.392 255.622 227.65 255.541C227.908 255.459 228.147 255.326 228.35 255.149C228.532 254.97 228.672 254.754 228.76 254.516C228.848 254.278 228.883 254.023 228.86 253.771C228.86 252.512 228.275 251.89 227.03 251.89H224.553V255.667H226.819L226.849 255.623ZM243.928 263.282C241.912 263.424 239.917 262.792 238.36 261.519C237.684 260.76 237.17 259.874 236.848 258.914C236.526 257.955 236.402 256.941 236.484 255.934C236.391 254.91 236.509 253.877 236.831 252.9C237.154 251.922 237.674 251.019 238.36 250.245C239.908 248.954 241.908 248.315 243.928 248.467C245.953 248.316 247.958 248.954 249.511 250.245C250.195 251.02 250.712 251.924 251.032 252.901C251.352 253.879 251.468 254.911 251.372 255.934C251.457 256.94 251.335 257.953 251.016 258.913C250.696 259.872 250.184 260.758 249.511 261.519C247.942 262.802 245.93 263.434 243.898 263.282H243.928ZM243.928 259.712C244.365 259.749 244.804 259.687 245.213 259.53C245.621 259.373 245.988 259.126 246.284 258.808C246.844 257.924 247.092 256.882 246.99 255.845C247.085 254.808 246.838 253.768 246.284 252.882C245.627 252.3 244.774 251.978 243.891 251.978C243.007 251.978 242.155 252.3 241.497 252.882C240.956 253.774 240.71 254.809 240.792 255.845C240.704 256.881 240.95 257.919 241.497 258.808C241.802 259.13 242.175 259.381 242.591 259.542C243.006 259.704 243.453 259.772 243.898 259.741L243.928 259.712ZM255.469 248.66H259.101L264.594 256.289V248.66H268.856V263.045H265.164L259.701 255.46V263.045H255.439L255.469 248.66ZM273.479 248.66H284.464V251.89H277.651V254.245H283.654V257.504H277.651V259.86H284.464V263.089H273.404L273.479 248.66Z" fill="#333333"/>
<path d="M165.65 242.66L165.485 242.808L171.263 248.438C170.412 249.794 169.97 251.361 169.987 252.956C169.953 254.029 170.144 255.097 170.547 256.094C170.95 257.091 171.557 257.996 172.331 258.751C173.104 259.506 174.027 260.095 175.041 260.482C176.055 260.869 177.14 261.045 178.226 261C179.857 261.024 181.461 260.587 182.849 259.741L188.657 265.444C187.114 267.434 185.122 269.042 182.84 270.14C180.558 271.238 178.049 271.796 175.51 271.77C173.35 271.802 171.205 271.408 169.2 270.612C167.196 269.817 165.372 268.635 163.835 267.136C162.298 265.637 161.079 263.85 160.249 261.881C159.419 259.912 158.995 257.8 159.001 255.667C158.967 253.131 159.553 250.624 160.71 248.359C161.868 246.094 163.562 244.139 165.65 242.66ZM168.877 240.482C171.086 239.491 173.488 238.986 175.915 239.001C178.068 238.979 180.203 239.38 182.198 240.181C184.192 240.981 186.005 242.165 187.531 243.664C189.058 245.162 190.267 246.945 191.089 248.909C191.911 250.873 192.329 252.979 192.319 255.104C192.344 257.506 191.832 259.883 190.818 262.067L185.64 256.956C186.475 255.62 186.917 254.081 186.916 252.512C186.96 251.43 186.777 250.352 186.378 249.344C185.979 248.337 185.372 247.422 184.596 246.657C183.821 245.893 182.893 245.296 181.871 244.904C180.85 244.511 179.757 244.332 178.662 244.378C177.07 244.37 175.509 244.806 174.159 245.638L168.877 240.482ZM178.752 257.148C178.102 257.171 177.455 257.062 176.85 256.829C176.244 256.595 175.694 256.243 175.231 255.792C174.769 255.341 174.405 254.802 174.161 254.207C173.918 253.612 173.799 252.975 173.814 252.334C173.789 251.686 173.899 251.041 174.138 250.437C174.377 249.834 174.74 249.286 175.203 248.827C175.667 248.368 176.221 248.009 176.832 247.771C177.442 247.533 178.096 247.422 178.752 247.445C179.405 247.431 180.054 247.548 180.659 247.789C181.265 248.03 181.815 248.39 182.275 248.847C182.736 249.304 183.097 249.849 183.338 250.448C183.578 251.048 183.693 251.689 183.674 252.334C183.7 252.979 183.59 253.622 183.351 254.222C183.113 254.823 182.751 255.369 182.289 255.825C181.826 256.282 181.274 256.639 180.665 256.874C180.056 257.109 179.405 257.218 178.752 257.193V257.148Z" fill="#333333"/>
<path d="M225.518 275.459C224.978 275.92 224.28 276.159 223.567 276.126C223.061 276.129 222.565 275.992 222.135 275.73C221.705 275.468 221.359 275.092 221.136 274.644V275.948H220.49V265.444H221.256V269.889C221.489 269.443 221.842 269.069 222.276 268.808C222.71 268.547 223.209 268.408 223.717 268.407C224.084 268.394 224.45 268.454 224.793 268.584C225.136 268.714 225.449 268.911 225.713 269.163C226.104 269.569 226.407 270.048 226.606 270.572C226.804 271.097 226.894 271.655 226.869 272.215C226.857 273.427 226.373 274.589 225.518 275.459ZM225.113 269.844C224.908 269.638 224.663 269.476 224.391 269.369C224.12 269.262 223.829 269.212 223.537 269.222C222.986 269.221 222.454 269.416 222.036 269.77C221.706 270.104 221.453 270.505 221.295 270.945C221.137 271.385 221.078 271.853 221.121 272.318C221.09 272.781 221.16 273.246 221.325 273.68C221.491 274.114 221.749 274.509 222.081 274.837C222.275 275.034 222.509 275.189 222.767 275.291C223.026 275.393 223.304 275.44 223.582 275.429C224.13 275.448 224.666 275.263 225.083 274.911C225.419 274.57 225.679 274.163 225.845 273.716C226.01 273.269 226.078 272.793 226.043 272.318C226.074 271.405 225.74 270.516 225.113 269.844Z" fill="#333333"/>
<path d="M229.929 277.518C229.81 277.946 229.551 278.323 229.193 278.591C228.835 278.859 228.397 279.003 227.948 279C227.639 279 227.331 278.96 227.032 278.881V278.259C227.336 278.301 227.642 278.326 227.948 278.333C228.257 278.315 228.553 278.202 228.795 278.011C229.036 277.82 229.213 277.56 229.299 277.267L229.779 276.096L226.777 268.689H227.573L230.139 275.148L232.54 268.704H233.336L229.929 277.518ZM240.96 275.933V271.267C240.96 270.393 240.675 269.785 239.684 269.785C238.693 269.785 238.093 270.971 238.093 271.874V275.874H236.262V265.445H238.093V269.178C238.345 268.864 238.667 268.612 239.034 268.442C239.402 268.273 239.804 268.19 240.209 268.2C240.566 268.188 240.921 268.251 241.251 268.385C241.581 268.52 241.878 268.722 242.122 268.978C242.367 269.235 242.553 269.54 242.668 269.874C242.783 270.207 242.825 270.561 242.791 270.911V275.933H240.96ZM249.829 276.037C249.515 276.058 249.204 275.959 248.961 275.761C248.718 275.562 248.561 275.279 248.524 274.97C248.271 275.341 247.925 275.641 247.52 275.841C247.115 276.041 246.665 276.134 246.212 276.111C245.87 276.152 245.522 276.123 245.191 276.024C244.861 275.926 244.554 275.761 244.292 275.539C244.029 275.318 243.816 275.045 243.667 274.738C243.517 274.431 243.433 274.096 243.421 273.756C243.428 273.429 243.503 273.106 243.641 272.809C243.778 272.512 243.976 272.245 244.222 272.026C244.468 271.807 244.757 271.639 245.071 271.534C245.385 271.429 245.717 271.389 246.047 271.415L248.313 271.267V270.793C248.313 270.082 248.073 269.608 246.993 269.608C246.167 269.608 245.642 270.008 245.612 270.674H243.811C243.931 268.985 245.312 268.2 246.993 268.2C247.568 268.111 248.158 268.207 248.674 268.474C249.19 268.74 249.606 269.164 249.859 269.682C250.037 270.155 250.118 270.659 250.099 271.163V273.948C250.099 274.304 250.219 274.422 250.55 274.422C250.624 274.435 250.7 274.435 250.775 274.422V275.756C250.501 275.952 250.168 276.051 249.829 276.037ZM248.328 272.585L246.377 272.733C246.099 272.729 245.83 272.829 245.623 273.013C245.417 273.197 245.29 273.452 245.267 273.726C245.273 273.857 245.305 273.986 245.362 274.104C245.419 274.223 245.5 274.329 245.599 274.416C245.699 274.503 245.815 274.569 245.941 274.611C246.067 274.653 246.2 274.669 246.332 274.659C246.579 274.691 246.829 274.671 247.066 274.598C247.303 274.526 247.522 274.405 247.707 274.241C247.892 274.078 248.039 273.878 248.139 273.653C248.238 273.429 248.288 273.186 248.283 272.941V272.585H248.328ZM255.292 270.008C255.013 269.995 254.735 270.042 254.477 270.146C254.219 270.25 253.987 270.409 253.797 270.61C253.607 270.812 253.464 271.052 253.377 271.314C253.291 271.575 253.263 271.853 253.296 272.126V275.933H251.435V268.393H252.936L253.101 269.534C253.29 269.139 253.597 268.81 253.98 268.593C254.364 268.376 254.806 268.28 255.247 268.319C255.432 268.303 255.618 268.303 255.802 268.319V270.111C255.637 270.057 255.466 270.022 255.292 270.008ZM261.055 275.933V271.296C261.055 270.393 260.77 269.889 259.779 269.889C259.489 269.891 259.206 269.982 258.969 270.149C258.733 270.316 258.555 270.551 258.459 270.822C258.243 271.471 258.162 272.156 258.219 272.837V275.933H256.358V268.393H257.858L257.978 269.371C258.293 268.899 258.755 268.54 259.293 268.349C259.832 268.159 260.419 268.146 260.966 268.313C261.513 268.48 261.99 268.818 262.326 269.276C262.661 269.734 262.837 270.287 262.826 270.852V275.874L261.055 275.933ZM270.57 272.719H265.437C265.417 273.265 265.617 273.798 265.993 274.2C266.297 274.488 266.697 274.657 267.118 274.674C267.318 274.691 267.519 274.668 267.71 274.607C267.901 274.546 268.077 274.448 268.229 274.319C268.399 274.143 268.522 273.93 268.589 273.696H270.33C270.24 274.209 270.024 274.693 269.7 275.104C269.045 275.766 268.154 276.149 267.218 276.171C266.281 276.193 265.373 275.853 264.687 275.222C264.296 274.833 263.988 274.37 263.782 273.861C263.575 273.352 263.475 272.807 263.486 272.259C263.448 271.166 263.847 270.102 264.597 269.297C264.907 268.956 265.286 268.685 265.711 268.501C266.135 268.317 266.595 268.225 267.058 268.23C267.614 268.214 268.164 268.343 268.654 268.603C269.144 268.863 269.556 269.245 269.85 269.711C270.345 270.495 270.581 271.411 270.525 272.333C270.615 272.2 270.57 272.556 270.57 272.719ZM268.304 270.111C268.153 269.963 267.972 269.848 267.773 269.774C267.574 269.7 267.361 269.668 267.148 269.682C266.903 269.67 266.658 269.718 266.435 269.821C266.213 269.924 266.02 270.08 265.873 270.274C265.6 270.603 265.461 271.02 265.482 271.445H268.784C268.781 270.959 268.612 270.489 268.304 270.111ZM276.738 275.267C276.011 275.883 275.068 276.191 274.112 276.126C273.21 276.162 272.329 275.855 271.651 275.267C271.164 274.803 270.879 274.171 270.855 273.504H272.566C272.567 273.672 272.602 273.839 272.669 273.994C272.736 274.149 272.834 274.29 272.956 274.407C273.284 274.662 273.695 274.789 274.112 274.763C274.757 274.763 275.613 274.644 275.613 273.815C275.613 273.612 275.533 273.416 275.39 273.27C275.248 273.123 275.053 273.037 274.847 273.03C274.172 272.911 273.346 272.867 272.746 272.748C272.267 272.661 271.832 272.416 271.513 272.052C271.194 271.689 271.009 271.229 270.99 270.748C270.979 270.425 271.045 270.103 271.183 269.81C271.322 269.517 271.528 269.26 271.786 269.059C272.441 268.547 273.261 268.284 274.097 268.319C274.537 268.294 274.977 268.361 275.388 268.517C275.8 268.673 276.173 268.913 276.483 269.222C276.894 269.647 277.134 270.206 277.158 270.793H275.477C275.477 270.658 275.447 270.525 275.39 270.402C275.333 270.279 275.25 270.17 275.147 270.082C274.872 269.849 274.52 269.723 274.157 269.726C273.886 269.707 273.614 269.748 273.361 269.845C273.192 269.899 273.044 270.004 272.936 270.144C272.829 270.284 272.768 270.454 272.761 270.63C272.761 271.178 273.241 271.341 273.647 271.371L275.267 271.608C275.825 271.64 276.351 271.877 276.742 272.271C277.134 272.665 277.362 273.189 277.383 273.741C277.384 274.025 277.327 274.306 277.217 274.568C277.106 274.83 276.943 275.068 276.738 275.267ZM283.567 275.267C282.84 275.883 281.896 276.191 280.94 276.126C280.039 276.162 279.157 275.855 278.479 275.267C277.993 274.803 277.708 274.171 277.684 273.504H279.395C279.392 273.673 279.426 273.841 279.493 273.996C279.56 274.152 279.66 274.292 279.785 274.407C280.112 274.662 280.524 274.789 280.94 274.763C281.586 274.763 282.441 274.644 282.441 273.815C282.441 273.612 282.362 273.416 282.219 273.27C282.076 273.123 281.881 273.037 281.676 273.03C281 272.911 280.25 272.867 279.575 272.748C279.095 272.661 278.66 272.416 278.341 272.052C278.022 271.689 277.838 271.229 277.819 270.748C277.808 270.425 277.874 270.103 278.012 269.81C278.15 269.517 278.356 269.26 278.614 269.059C279.269 268.547 280.09 268.284 280.925 268.319C281.365 268.294 281.806 268.361 282.217 268.517C282.628 268.673 283.001 268.913 283.312 269.222C283.717 269.651 283.956 270.207 283.987 270.793H282.351C282.348 270.538 282.246 270.294 282.066 270.111C281.79 269.878 281.438 269.752 281.075 269.756C280.805 269.736 280.533 269.776 280.28 269.874C280.111 269.929 279.962 270.033 279.855 270.174C279.747 270.314 279.686 270.484 279.68 270.659C279.68 271.208 280.16 271.371 280.55 271.4L282.186 271.637C282.744 271.67 283.27 271.906 283.661 272.301C284.052 272.695 284.281 273.219 284.302 273.77C284.293 274.057 284.223 274.338 284.097 274.596C283.97 274.854 283.789 275.083 283.567 275.267ZM286.853 248.897V250.275H286.658V248.897H286.178V248.705H287.334V248.897H286.853ZM288.804 250.275V248.942L288.324 250.245H288.174L287.694 248.942V250.275H287.484V248.705H287.769L288.249 250.008L288.729 248.705H288.999V250.275H288.804Z" fill="#333333"/>
<g filter="url(#filter5_d_3586_94398)">
<rect x="69" y="107" width="251" height="80" rx="40" fill="white"/>
</g>
<path d="M118.448 132.935V142.947L125.894 147.319L125.918 156.787L109.317 165L105 162.114L105.049 125L109.523 127.621V159.819L121.419 153.925L121.407 149.058L113.949 152.536V130.29L118.448 132.935Z" fill="#333333"/>
<path fill-rule="evenodd" clip-rule="evenodd" d="M145.793 143.272C146.467 143.51 147.063 143.928 147.515 144.48C148.016 145.148 148.36 145.92 148.521 146.739C148.789 147.842 148.931 148.973 148.946 150.108C148.97 151.25 148.847 152.391 148.582 153.502C148.386 154.334 147.967 155.098 147.369 155.712C146.784 156.297 146.051 156.714 145.247 156.92C144.199 157.171 143.123 157.289 142.046 157.27H136.674V137.753L140.312 139.673V143.647C141.245 143.214 142.254 142.964 143.283 142.91C144.134 142.891 144.982 143.014 145.793 143.272ZM144.52 153.043C144.775 152.683 144.945 152.27 145.017 151.835C145.104 151.195 145.14 150.549 145.126 149.903C145.126 147.403 144.362 146.195 142.81 146.195C142.105 146.189 141.402 146.282 140.724 146.473L140.336 146.557V153.9L141.379 153.985L142.046 153.937C142.555 153.947 143.062 153.878 143.549 153.731C143.936 153.607 144.275 153.367 144.52 153.043Z" fill="#333333"/>
<path d="M155.676 143.237H152.038V156.945H155.676V147.754L156.234 147.573C156.767 147.403 157.349 147.234 157.98 147.077C158.611 146.92 159.302 146.751 160.054 146.606V142.911C158.497 143.255 157.01 143.855 155.652 144.686L155.676 143.237Z" fill="#333333"/>
<path fill-rule="evenodd" clip-rule="evenodd" d="M165.319 143.417C166.265 143.054 167.275 142.881 168.29 142.91C169.199 142.814 170.118 142.933 170.971 143.258C171.825 143.584 172.589 144.106 173.201 144.782C174.26 146.332 174.772 148.189 174.656 150.06C174.656 154.891 172.546 157.306 168.326 157.306C164.106 157.306 161.996 154.891 161.996 150.06C161.973 149.066 162.07 148.072 162.287 147.101C162.478 146.285 162.842 145.519 163.354 144.855C163.873 144.215 164.55 143.719 165.319 143.417ZM169.449 153.953C169.809 153.782 170.114 153.513 170.327 153.176C170.755 152.195 170.942 151.127 170.873 150.06C170.946 149.004 170.758 147.947 170.327 146.98C170.079 146.682 169.768 146.441 169.415 146.276C169.063 146.111 168.679 146.025 168.29 146.025C167.9 146.025 167.516 146.111 167.164 146.276C166.812 146.441 166.5 146.682 166.252 146.98C165.816 147.946 165.624 149.003 165.695 150.06C165.695 150.54 165.719 151.02 165.767 151.497C165.806 151.951 165.916 152.395 166.095 152.814C166.265 153.197 166.532 153.53 166.871 153.78C167.295 154.043 167.79 154.17 168.29 154.142C168.686 154.19 169.088 154.124 169.449 153.953Z" fill="#333333"/>
<path d="M191.304 153.816H190.649L188.551 143.502H184.756L182.658 153.816H182.003L180.317 143.236H176.68L179.299 156.944H185.083L186.648 148.55L188.224 156.944H193.996L196.616 143.236H192.99L191.304 153.816Z" fill="#333333"/>
<path d="M207.578 149.095C208.033 149.28 208.446 149.555 208.791 149.904C209.127 150.241 209.373 150.656 209.507 151.112C209.663 151.678 209.737 152.264 209.725 152.851C209.725 155.806 207.882 157.283 204.195 157.283C202.711 157.256 201.234 157.091 199.781 156.788L198.908 156.631L199.017 153.563C200.169 153.708 201.139 153.817 201.915 153.889C202.7 153.962 203.318 153.998 203.771 153.998C204.391 154.048 205.013 153.953 205.59 153.72C205.735 153.654 205.857 153.546 205.941 153.411C206.026 153.276 206.068 153.119 206.063 152.959C206.066 152.796 206.021 152.635 205.933 152.497C205.844 152.36 205.716 152.251 205.565 152.186C204.703 151.91 203.819 151.708 202.922 151.583C202.287 151.489 201.662 151.339 201.054 151.136C200.564 150.973 200.114 150.71 199.733 150.363C199.371 150.033 199.1 149.618 198.944 149.155C198.736 148.565 198.629 147.945 198.629 147.319C198.616 146.657 198.752 146.001 199.029 145.399C199.289 144.867 199.666 144.401 200.133 144.034C200.633 143.649 201.206 143.37 201.818 143.213C202.512 143.017 203.231 142.924 203.953 142.935C204.589 142.94 205.225 142.98 205.857 143.056C206.608 143.141 207.445 143.273 208.379 143.455L209.288 143.624V146.667C208.124 146.522 207.154 146.401 206.378 146.329C205.602 146.257 204.983 146.22 204.523 146.22C203.921 146.165 203.314 146.252 202.752 146.474C202.62 146.551 202.512 146.663 202.439 146.797C202.366 146.931 202.332 147.083 202.34 147.235C202.338 147.403 202.392 147.567 202.493 147.702C202.593 147.838 202.735 147.936 202.898 147.984C203.206 148.091 203.522 148.176 203.843 148.237C204.292 148.346 204.899 148.455 205.65 148.587C206.311 148.678 206.959 148.849 207.578 149.095Z" fill="#333333"/>
<path fill-rule="evenodd" clip-rule="evenodd" d="M218.201 142.911C214.151 142.911 212.138 145.326 212.138 150.278C211.974 152.169 212.471 154.059 213.545 155.628C214.13 156.218 214.839 156.671 215.621 156.956C216.403 157.24 217.239 157.347 218.068 157.271C219.999 157.245 221.921 156.989 223.792 156.51V153.792L223.028 153.877C221.682 153.986 220.166 154.034 218.456 154.034C217.782 154.084 217.114 153.886 216.576 153.478C216.347 153.236 216.17 152.949 216.057 152.635C215.945 152.321 215.898 151.987 215.921 151.655H224.01L224.204 149.155C224.204 144.992 222.203 142.911 218.201 142.911ZM215.776 148.853C215.721 148.06 215.916 147.271 216.334 146.594C216.572 146.349 216.862 146.161 217.184 146.044C217.505 145.927 217.849 145.884 218.189 145.918C218.524 145.879 218.864 145.918 219.181 146.031C219.499 146.144 219.786 146.329 220.02 146.57C220.428 147.258 220.606 148.057 220.53 148.853H215.776Z" fill="#333333"/>
<path d="M227.284 143.237H230.922L230.898 144.686C232.256 143.855 233.744 143.255 235.3 142.911V146.606C234.548 146.751 233.857 146.92 233.226 147.077C232.596 147.234 232.014 147.403 231.48 147.573L230.922 147.754V156.945H227.284V143.237Z" fill="#333333"/>
<path d="M241.764 137.753H238.077V156.944H241.764V137.753Z" fill="#333333"/>
<path fill-rule="evenodd" clip-rule="evenodd" d="M245.098 150.278C245.098 145.366 247.119 142.911 251.161 142.911C255.163 142.911 257.172 144.976 257.188 149.106L256.909 151.655H248.82C248.797 151.987 248.844 152.321 248.956 152.635C249.069 152.949 249.246 153.236 249.475 153.478C250.012 153.888 250.681 154.086 251.355 154.034C253.053 154.034 254.581 153.986 255.915 153.877L256.691 153.792L256.751 156.51C254.877 156.99 252.951 157.246 251.015 157.271C250.188 157.347 249.354 157.239 248.574 156.955C247.794 156.671 247.087 156.218 246.504 155.628C245.43 154.059 244.933 152.169 245.098 150.278ZM249.306 146.594C248.882 147.269 248.683 148.059 248.736 148.853H253.501C253.578 148.057 253.4 147.258 252.992 146.57C252.758 146.329 252.471 146.144 252.153 146.031C251.835 145.918 251.496 145.879 251.161 145.918C250.82 145.882 250.476 145.925 250.154 146.042C249.833 146.159 249.542 146.348 249.306 146.594Z" fill="#333333"/>
<path d="M269.607 149.904C269.261 149.555 268.849 149.28 268.394 149.095C267.789 148.853 267.159 148.683 266.514 148.587C265.762 148.454 265.168 148.346 264.72 148.237C264.394 148.177 264.074 148.092 263.762 147.983C263.601 147.936 263.46 147.836 263.361 147.701C263.263 147.566 263.212 147.402 263.216 147.235C263.207 147.082 263.241 146.93 263.313 146.796C263.386 146.661 263.495 146.55 263.628 146.474C264.186 146.251 264.788 146.164 265.387 146.22C265.847 146.22 266.466 146.256 267.242 146.329C268.03 146.401 269 146.522 270.152 146.667V143.624L269.243 143.454C268.297 143.273 267.46 143.14 266.72 143.056C266.085 142.98 265.445 142.939 264.804 142.935C264.083 142.924 263.364 143.018 262.67 143.213C262.061 143.368 261.491 143.647 260.997 144.034C260.527 144.397 260.149 144.864 259.893 145.399C259.616 146.001 259.48 146.657 259.493 147.319C259.476 147.937 259.562 148.553 259.748 149.143C259.908 149.603 260.178 150.018 260.536 150.351C260.919 150.695 261.369 150.958 261.858 151.124C262.466 151.327 263.091 151.477 263.725 151.57C264.622 151.695 265.507 151.897 266.369 152.174C266.512 152.245 266.632 152.355 266.716 152.49C266.8 152.626 266.845 152.782 266.845 152.941C266.845 153.1 266.8 153.256 266.716 153.392C266.632 153.527 266.512 153.637 266.369 153.708C265.792 153.938 265.169 154.033 264.55 153.986C264.089 153.986 263.471 153.95 262.694 153.877C261.918 153.805 260.948 153.696 259.784 153.551L259.675 156.619L260.56 156.776C262.009 157.078 263.482 157.244 264.962 157.271C268.649 157.271 270.492 155.793 270.492 152.839C270.504 152.251 270.43 151.666 270.274 151.099C270.152 150.653 269.923 150.242 269.607 149.904Z" fill="#333333"/>
<path d="M283.018 149.891C283.354 150.228 283.599 150.643 283.733 151.099C283.906 151.662 283.996 152.248 284 152.838C284 155.793 282.157 157.27 278.47 157.27C276.987 157.244 275.509 157.078 274.056 156.775L273.183 156.618L273.292 153.55C273.861 153.622 274.382 153.676 274.859 153.725C275.349 153.776 275.791 153.821 276.19 153.876C276.979 153.985 277.597 153.985 278.058 153.985C278.674 154.034 279.292 153.939 279.865 153.707C280.01 153.641 280.132 153.533 280.217 153.398C280.301 153.263 280.343 153.106 280.338 152.946C280.342 152.783 280.296 152.622 280.208 152.484C280.119 152.347 279.991 152.238 279.841 152.173C278.978 151.898 278.094 151.695 277.197 151.57C276.529 151.478 275.872 151.324 275.232 151.111C274.744 150.945 274.294 150.682 273.911 150.338C273.549 150.008 273.278 149.593 273.122 149.13C272.937 148.54 272.85 147.924 272.868 147.306C272.85 146.645 272.983 145.989 273.256 145.386C273.516 144.854 273.893 144.388 274.359 144.021C274.859 143.636 275.433 143.357 276.045 143.2C276.739 143.004 277.458 142.911 278.179 142.922C278.82 142.927 279.459 142.967 280.095 143.043C280.831 143.132 281.668 143.264 282.605 143.442L283.515 143.611V146.654C282.351 146.509 281.381 146.388 280.605 146.316C279.828 146.244 279.21 146.207 278.749 146.207C278.151 146.151 277.548 146.238 276.991 146.461C276.858 146.537 276.749 146.649 276.676 146.783C276.603 146.917 276.569 147.069 276.579 147.222C276.574 147.389 276.625 147.553 276.724 147.688C276.823 147.824 276.963 147.923 277.124 147.971C277.433 148.078 277.749 148.163 278.07 148.224C278.519 148.333 279.125 148.442 279.877 148.574C280.517 148.67 281.144 148.84 281.744 149.082C282.222 149.257 282.657 149.533 283.018 149.891Z" fill="#333333"/>
<g filter="url(#filter6_d_3586_94398)">
<rect x="340" y="107" width="252" height="80" rx="40" fill="white"/>
</g>
<path fill-rule="evenodd" clip-rule="evenodd" d="M394.776 139.923L398.428 130.81L406.569 151.125L394.776 139.923ZM392.304 137.574L387.845 133.338C387.023 132.557 385.67 132.853 385.248 133.907L376.117 156.719C375.695 157.773 376.47 158.918 377.605 158.918L386.093 158.915V158.918H410.733C411.396 158.918 411.937 158.526 412.188 157.99C412.404 157.533 412.412 156.98 412.139 156.508L399.917 126.008C399.379 124.664 397.477 124.664 396.939 126.008L392.304 137.574ZM379.918 155.748L406.821 155.739L387.333 137.225L379.918 155.748Z" fill="#333333"/>
<path d="M432.15 159C437.648 159 441.341 155.735 441.341 148.84H432.573V151.317H438.155C438.155 154.159 435.392 156.326 432.122 156.326C428.175 156.326 425.158 152.977 425.158 149.009C425.158 145.013 428.175 141.607 432.094 141.607C433.898 141.607 435.561 142.339 436.774 143.465L438.804 141.607C437.112 139.975 434.744 138.934 432.094 138.934C426.568 138.934 422.254 143.493 422.254 149.009C422.254 154.497 426.539 159 432.15 159Z" fill="#333333"/>
<path d="M449.708 145.182C448.017 145.182 446.692 146.167 446.015 148.474V145.519H443.224V158.662H446.015V153.934C446.015 150.388 447.143 147.827 449.539 147.827C450.075 147.827 450.751 147.94 451.485 148.277L451.964 145.66C451.541 145.407 450.61 145.182 449.708 145.182Z" fill="#333333"/>
<path d="M463.012 147.489C462.166 145.998 460.362 145.182 458.445 145.182C454.723 145.182 451.932 148.165 451.932 152.077C451.932 156.129 454.892 159 458.332 159C460.362 159 462.166 157.959 463.012 156.439V158.662H465.775V145.519H463.012V147.489ZM458.811 156.411C456.499 156.411 454.723 154.441 454.723 152.077C454.723 149.741 456.499 147.771 458.755 147.771C460.869 147.771 462.984 149.544 462.984 152.077C462.984 154.553 461.01 156.411 458.811 156.411Z" fill="#333333"/>
<path d="M476.583 140.96V138.371H475.117C471.536 138.371 469.985 140.707 469.985 144.281V145.519H467.448V147.827H469.985V158.662H472.748V147.827H475.765V145.519H472.748V143.971C472.72 142.311 473.34 140.96 475.624 140.96H476.583Z" fill="#333333"/>
<path d="M487.214 147.489C486.368 145.998 484.563 145.182 482.646 145.182C478.925 145.182 476.133 148.165 476.133 152.077C476.133 156.129 479.094 159 482.533 159C484.563 159 486.368 157.959 487.214 156.439V158.662H489.977V145.519H487.214V147.489ZM483.013 156.411C480.701 156.411 478.925 154.441 478.925 152.077C478.925 149.741 480.701 147.771 482.956 147.771C485.071 147.771 487.185 149.544 487.185 152.077C487.185 154.553 485.212 156.411 483.013 156.411Z" fill="#333333"/>
<path d="M500.079 145.182C498.67 145.182 496.555 145.913 495.794 147.546V145.519H493.031V158.662H495.794V151.598C495.794 148.868 497.88 147.883 499.6 147.883C501.292 147.883 502.589 149.178 502.589 151.317V158.662H505.352V151.148C505.38 147.405 503.406 145.182 500.079 145.182Z" fill="#333333"/>
<path d="M518.436 147.489C517.59 145.998 515.786 145.182 513.869 145.182C510.147 145.182 507.356 148.165 507.356 152.077C507.356 156.129 510.316 159 513.756 159C515.786 159 517.59 157.959 518.436 156.439V158.662H521.199V145.519H518.436V147.489ZM514.235 156.411C511.923 156.411 510.147 154.441 510.147 152.077C510.147 149.741 511.923 147.771 514.179 147.771C516.293 147.771 518.408 149.544 518.408 152.077C518.408 154.553 516.434 156.411 514.235 156.411Z" fill="#333333"/>
<path d="M535.445 151.204L540.999 145.519H537.25L532.936 149.994V138.371H530.173V158.662H532.936V152.414L538.688 158.662H542.296L535.445 151.204Z" fill="#333333"/>
<path d="M549.714 146.786C547.796 146.786 546.302 147.743 545.428 148.953C545.315 145.491 547.373 142.649 550.052 142.649C551.377 142.649 552.674 143.24 553.379 144.844L555.832 143.774C554.591 140.847 552.251 140.031 550.08 140.031C544.413 140.031 542.468 145.407 542.468 149.994C542.468 155.792 544.892 159 549.403 159C553.435 159 556.001 156.073 556.001 152.865C556.001 149.656 553.463 146.786 549.714 146.786ZM549.262 156.383C547.12 156.326 545.513 154.722 545.513 152.696C545.625 150.754 547.317 149.319 549.544 149.319C551.603 149.403 553.153 150.867 553.153 152.808C553.153 154.835 551.518 156.383 549.262 156.383Z" fill="#333333"/>
<defs>
<filter id="filter0_d_3586_94398" x="0" y="321" width="238" height="120" filterUnits="userSpaceOnUse" color-interpolation-filters="sRGB">
<feFlood flood-opacity="0" result="BackgroundImageFix"/>
<feColorMatrix in="SourceAlpha" type="matrix" values="0 0 0 0 0 0 0 0 0 0 0 0 0 0 0 0 0 0 127 0" result="hardAlpha"/>
<feOffset dy="10"/>
<feGaussianBlur stdDeviation="10"/>
<feComposite in2="hardAlpha" operator="out"/>
<feColorMatrix type="matrix" values="0 0 0 0 0 0 0 0 0 0 0 0 0 0 0 0 0 0 0.1 0"/>
<feBlend mode="normal" in2="BackgroundImageFix" result="effect1_dropShadow_3586_94398"/>
<feBlend mode="normal" in="SourceGraphic" in2="effect1_dropShadow_3586_94398" result="shape"/>
</filter>
<filter id="filter1_d_3586_94398" x="433" y="321" width="228" height="120" filterUnits="userSpaceOnUse" color-interpolation-filters="sRGB">
<feFlood flood-opacity="0" result="BackgroundImageFix"/>
<feColorMatrix in="SourceAlpha" type="matrix" values="0 0 0 0 0 0 0 0 0 0 0 0 0 0 0 0 0 0 127 0" result="hardAlpha"/>
<feOffset dy="10"/>
<feGaussianBlur stdDeviation="10"/>
<feComposite in2="hardAlpha" operator="out"/>
<feColorMatrix type="matrix" values="0 0 0 0 0 0 0 0 0 0 0 0 0 0 0 0 0 0 0.1 0"/>
<feBlend mode="normal" in2="BackgroundImageFix" result="effect1_dropShadow_3586_94398"/>
<feBlend mode="normal" in="SourceGraphic" in2="effect1_dropShadow_3586_94398" result="shape"/>
</filter>
<filter id="filter2_d_3586_94398" x="218" y="321" width="235" height="120" filterUnits="userSpaceOnUse" color-interpolation-filters="sRGB">
<feFlood flood-opacity="0" result="BackgroundImageFix"/>
<feColorMatrix in="SourceAlpha" type="matrix" values="0 0 0 0 0 0 0 0 0 0 0 0 0 0 0 0 0 0 127 0" result="hardAlpha"/>
<feOffset dy="10"/>
<feGaussianBlur stdDeviation="10"/>
<feComposite in2="hardAlpha" operator="out"/>
<feColorMatrix type="matrix" values="0 0 0 0 0 0 0 0 0 0 0 0 0 0 0 0 0 0 0.1 0"/>
<feBlend mode="normal" in2="BackgroundImageFix" result="effect1_dropShadow_3586_94398"/>
<feBlend mode="normal" in="SourceGraphic" in2="effect1_dropShadow_3586_94398" result="shape"/>
</filter>
<filter id="filter3_d_3586_94398" x="325" y="209" width="233" height="120" filterUnits="userSpaceOnUse" color-interpolation-filters="sRGB">
<feFlood flood-opacity="0" result="BackgroundImageFix"/>
<feColorMatrix in="SourceAlpha" type="matrix" values="0 0 0 0 0 0 0 0 0 0 0 0 0 0 0 0 0 0 127 0" result="hardAlpha"/>
<feOffset dy="10"/>
<feGaussianBlur stdDeviation="10"/>
<feComposite in2="hardAlpha" operator="out"/>
<feColorMatrix type="matrix" values="0 0 0 0 0 0 0 0 0 0 0 0 0 0 0 0 0 0 0.1 0"/>
<feBlend mode="normal" in2="BackgroundImageFix" result="effect1_dropShadow_3586_94398"/>
<feBlend mode="normal" in="SourceGraphic" in2="effect1_dropShadow_3586_94398" result="shape"/>
</filter>
<filter id="filter4_d_3586_94398" x="103" y="209" width="242" height="120" filterUnits="userSpaceOnUse" color-interpolation-filters="sRGB">
<feFlood flood-opacity="0" result="BackgroundImageFix"/>
<feColorMatrix in="SourceAlpha" type="matrix" values="0 0 0 0 0 0 0 0 0 0 0 0 0 0 0 0 0 0 127 0" result="hardAlpha"/>
<feOffset dy="10"/>
<feGaussianBlur stdDeviation="10"/>
<feComposite in2="hardAlpha" operator="out"/>
<feColorMatrix type="matrix" values="0 0 0 0 0 0 0 0 0 0 0 0 0 0 0 0 0 0 0.1 0"/>
<feBlend mode="normal" in2="BackgroundImageFix" result="effect1_dropShadow_3586_94398"/>
<feBlend mode="normal" in="SourceGraphic" in2="effect1_dropShadow_3586_94398" result="shape"/>
</filter>
<filter id="filter5_d_3586_94398" x="49" y="97" width="291" height="120" filterUnits="userSpaceOnUse" color-interpolation-filters="sRGB">
<feFlood flood-opacity="0" result="BackgroundImageFix"/>
<feColorMatrix in="SourceAlpha" type="matrix" values="0 0 0 0 0 0 0 0 0 0 0 0 0 0 0 0 0 0 127 0" result="hardAlpha"/>
<feOffset dy="10"/>
<feGaussianBlur stdDeviation="10"/>
<feComposite in2="hardAlpha" operator="out"/>
<feColorMatrix type="matrix" values="0 0 0 0 0 0 0 0 0 0 0 0 0 0 0 0 0 0 0.1 0"/>
<feBlend mode="normal" in2="BackgroundImageFix" result="effect1_dropShadow_3586_94398"/>
<feBlend mode="normal" in="SourceGraphic" in2="effect1_dropShadow_3586_94398" result="shape"/>
</filter>
<filter id="filter6_d_3586_94398" x="320" y="97" width="292" height="120" filterUnits="userSpaceOnUse" color-interpolation-filters="sRGB">
<feFlood flood-opacity="0" result="BackgroundImageFix"/>
<feColorMatrix in="SourceAlpha" type="matrix" values="0 0 0 0 0 0 0 0 0 0 0 0 0 0 0 0 0 0 127 0" result="hardAlpha"/>
<feOffset dy="10"/>
<feGaussianBlur stdDeviation="10"/>
<feComposite in2="hardAlpha" operator="out"/>
<feColorMatrix type="matrix" values="0 0 0 0 0 0 0 0 0 0 0 0 0 0 0 0 0 0 0.1 0"/>
<feBlend mode="normal" in2="BackgroundImageFix" result="effect1_dropShadow_3586_94398"/>
<feBlend mode="normal" in="SourceGraphic" in2="effect1_dropShadow_3586_94398" result="shape"/>
</filter>
<clipPath id="clip0_3586_94398">
<rect width="123" height="40" fill="white" transform="translate(274 351)"/>
</clipPath>
</defs>
</svg>
