<svg width="141" height="44" viewBox="0 0 141 44" fill="none" xmlns="http://www.w3.org/2000/svg">
<path d="M71.3618 31.0482V20.8825C71.3618 19.1281 70.9389 17.7943 70.0931 16.8811C69.2473 15.9678 67.9182 15.5112 66.1058 15.5112C64.8733 15.5112 63.8946 15.6314 63.1696 15.8717C62.4447 16.088 61.9855 16.2442 61.7922 16.3403V31.0482H58.0586V13.9611C58.1553 13.9131 58.4211 13.8049 58.8561 13.6367C59.291 13.4685 59.871 13.2882 60.596 13.096C61.321 12.9037 62.1668 12.7355 63.1334 12.5913C64.1 12.4471 65.1633 12.375 66.3233 12.375C67.6524 12.375 68.8607 12.5552 69.9481 12.9157C71.0356 13.2522 71.9539 13.7448 72.703 14.3937C73.4763 15.0426 74.0684 15.8237 74.4792 16.7369C74.89 17.6501 75.0954 18.6835 75.0954 19.8371V31.0482H71.3618Z" fill="white"/>
<path d="M99.3752 22C99.3752 23.3698 99.1335 24.6436 98.6502 25.8211C98.1911 26.9987 97.5386 28.0201 96.6928 28.8853C95.847 29.7264 94.832 30.3993 93.6479 30.904C92.4638 31.3846 91.1588 31.625 89.7331 31.625C88.3073 31.625 86.9902 31.3846 85.782 30.904C84.5978 30.3993 83.5829 29.7264 82.7371 28.8853C81.8913 28.0201 81.2267 26.9987 80.7434 25.8211C80.2843 24.6436 80.0547 23.3698 80.0547 22C80.0547 20.6301 80.2843 19.3564 80.7434 18.1788C81.2267 17.0012 81.8913 15.9919 82.7371 15.1507C83.5829 14.2856 84.5978 13.6127 85.782 13.132C86.9902 12.6273 88.3073 12.375 89.7331 12.375C91.1588 12.375 92.4638 12.6273 93.6479 13.132C94.832 13.6127 95.847 14.2856 96.6928 15.1507C97.5386 15.9919 98.1911 17.0012 98.6502 18.1788C99.1335 19.3564 99.3752 20.6301 99.3752 22ZM95.4966 22C95.4966 21.0387 95.3637 20.1615 95.0978 19.3684C94.832 18.5513 94.4454 17.8544 93.9379 17.2776C93.4546 16.6768 92.8504 16.2202 92.1255 15.9078C91.4247 15.5713 90.6272 15.4031 89.7331 15.4031C88.8148 15.4031 87.9931 15.5713 87.2681 15.9078C86.5673 16.2202 85.9632 16.6768 85.4557 17.2776C84.9724 17.8544 84.5978 18.5513 84.332 19.3684C84.0662 20.1615 83.9333 21.0387 83.9333 22C83.9333 22.9613 84.0662 23.8505 84.332 24.6676C84.5978 25.4607 84.9724 26.1576 85.4557 26.7584C85.9632 27.3352 86.5673 27.7918 87.2681 28.1283C87.9931 28.4407 88.8148 28.5969 89.7331 28.5969C90.6272 28.5969 91.4247 28.4407 92.1255 28.1283C92.8504 27.7918 93.4546 27.3352 93.9379 26.7584C94.4454 26.1576 94.832 25.4607 95.0978 24.6676C95.3637 23.8505 95.4966 22.9613 95.4966 22Z" fill="white"/>
<path d="M121.071 13.7448C120.926 14.2736 120.672 14.9825 120.31 15.8717C119.972 16.7369 119.573 17.7102 119.114 18.7917C118.655 19.8731 118.147 21.0147 117.591 22.2163C117.06 23.3939 116.516 24.5474 115.96 25.6769C115.428 26.7824 114.909 27.8278 114.401 28.8132C113.918 29.7745 113.495 30.5796 113.133 31.2284H109.254C108.819 30.4594 108.36 29.6183 107.877 28.705C107.417 27.7678 106.946 26.8305 106.463 25.8932C106.004 24.9319 105.557 23.9827 105.122 23.0454C104.687 22.1081 104.276 21.243 103.889 20.4499C103.527 19.6328 103.201 18.9118 102.911 18.287C102.645 17.6621 102.439 17.1815 102.294 16.845C102.149 16.5086 102.004 16.1481 101.859 15.7636C101.714 15.3791 101.642 15.0186 101.642 14.6821C101.642 14.2495 101.787 13.853 102.077 13.4925C102.367 13.132 102.862 12.9518 103.563 12.9518C104.046 12.9518 104.421 12.9998 104.687 13.096C104.953 13.1921 105.098 13.2522 105.122 13.2762C105.533 14.4057 106.004 15.6434 106.535 16.9892C107.091 18.335 107.647 19.6688 108.203 20.9906C108.783 22.2884 109.339 23.5381 109.87 24.7397C110.402 25.9173 110.873 26.9146 111.284 27.7317C111.574 27.179 111.949 26.3979 112.408 25.3886C112.891 24.3552 113.386 23.2256 113.894 22C114.426 20.7743 114.957 19.5126 115.489 18.2149C116.02 16.9171 116.492 15.7275 116.902 14.6461C117.096 14.1174 117.337 13.7088 117.627 13.4204C117.917 13.108 118.401 12.9518 119.077 12.9518C119.657 12.9518 120.117 13.0599 120.455 13.2762C120.817 13.4925 121.023 13.6487 121.071 13.7448Z" fill="white"/>
<path d="M137.266 14.6461C137.266 14.0693 137.435 13.6487 137.774 13.3844C138.112 13.096 138.595 12.9518 139.224 12.9518C139.634 12.9518 139.997 12.9998 140.311 13.096C140.649 13.1921 140.879 13.2642 141 13.3123V31.0482C140.831 31.0963 140.529 31.1443 140.094 31.1924C139.683 31.2405 139.175 31.2885 138.571 31.3366C137.967 31.4087 137.303 31.4567 136.578 31.4808C135.853 31.5288 135.116 31.5529 134.366 31.5529C132.167 31.5529 130.379 31.2885 129.002 30.7598C127.648 30.2311 126.573 29.4621 125.775 28.4527C124.785 27.179 124.289 25.4847 124.289 23.3698V14.6461C124.289 14.0693 124.458 13.6487 124.797 13.3844C125.135 13.096 125.618 12.9518 126.247 12.9518C126.658 12.9518 127.02 12.9998 127.334 13.096C127.672 13.1921 127.902 13.2642 128.023 13.3123V22.9733C128.023 24.7998 128.482 26.1696 129.4 27.0828C130.343 27.9961 131.926 28.4527 134.149 28.4527C134.995 28.4527 135.671 28.4287 136.179 28.3806C136.71 28.3085 137.073 28.2484 137.266 28.2003V14.6461Z" fill="white"/>
<path fill-rule="evenodd" clip-rule="evenodd" d="M34.0612 17.6354C34.0612 18.8183 32.6173 19.4041 31.7856 18.5585L14.7576 1.24747C17.06 0.439545 19.5372 0 22.1177 0C26.517 0 30.6164 1.27761 34.0612 3.48017V17.6354ZM40.2542 9.40466V17.6354C40.2542 24.3387 32.0721 27.6579 27.359 22.8665L9.04734 4.2505C3.56144 8.25408 0 14.7133 0 22C0 26.6846 1.47206 31.0273 3.98118 34.5953V26.4086C3.98118 19.7052 12.1632 16.386 16.8763 21.1774L35.1628 39.7678C40.663 35.7656 44.2353 29.2978 44.2353 22C44.2353 17.3153 42.7633 12.9726 40.2542 9.40466ZM12.4497 25.4854L29.4456 42.7637C27.1522 43.5645 24.6861 43.9999 22.1177 43.9999C17.7183 43.9999 13.6189 42.7223 10.1741 40.5198V26.4086C10.1741 25.2256 11.618 24.6399 12.4497 25.4854Z" fill="white"/>
</svg>
