<svg width="145" height="44" viewBox="0 0 145 44" fill="none" xmlns="http://www.w3.org/2000/svg">
<ellipse cx="4.1038" cy="11.0909" rx="4.1038" ry="4.09087" fill="white"/>
<ellipse cx="4.1038" cy="21.9999" rx="4.1038" ry="4.09087" fill="white"/>
<ellipse cx="4.1038" cy="32.9089" rx="4.1038" ry="4.09087" fill="white"/>
<ellipse cx="15.0464" cy="32.9088" rx="2.73587" ry="2.72725" fill="white"/>
<ellipse cx="25.9917" cy="32.9088" rx="2.73587" ry="2.72725" fill="white"/>
<ellipse cx="25.9917" cy="21.9998" rx="2.73587" ry="2.72725" fill="white"/>
<ellipse cx="15.0481" cy="11.0909" rx="4.1038" ry="4.09087" fill="white"/>
<ellipse cx="15.0481" cy="21.9999" rx="4.1038" ry="4.09087" fill="white"/>
<ellipse cx="25.9915" cy="11.0909" rx="4.1038" ry="4.09087" fill="white"/>
<path fill-rule="evenodd" clip-rule="evenodd" d="M47.4312 13.6778C47.4312 12.8459 47.8475 12.0131 48.6179 11.5679C49.3492 11.1452 50.8396 10.832 53.4184 11.9985L55.1274 8.18118C51.7569 6.65666 48.7854 6.64243 46.542 7.93904C44.3377 9.21303 43.2667 11.5198 43.2667 13.6778V17.2698H39.6699V21.4557H43.2667V36.9997H47.4312V21.4557H54.2457V17.2698H47.4312V13.6778ZM80.1515 17.2645H84.9122V36.9985H80.1515V17.2645ZM145 17.2645H141.078V19.8413C139.465 18.1489 137.44 16.8597 135.161 16.8597C129.341 16.8597 125.326 21.2293 125.326 26.8438C125.326 32.4583 129.734 36.9713 135.161 36.9713C137.435 36.9713 139.462 35.6868 141.078 33.986V36.9985H145V17.2645ZM98.0017 37L93.8372 37V24.4421C93.8372 22.0501 91.16 20.8541 89.6726 20.8541C86.698 20.8541 84.9132 22.9903 84.9132 24.5999V19.0601C86.579 17.3857 89.1769 16.9671 90.2676 16.9671C95.9789 16.4887 97.8034 21.3524 98.0017 23.8441V37ZM72.1918 26.8338C72.1918 30.0666 69.5171 32.8138 66.061 32.8138C62.6048 32.8138 59.9301 30.0666 59.9301 26.8338C59.9301 23.6011 62.6048 20.8539 66.061 20.8539C69.5171 20.8539 72.1918 23.6011 72.1918 26.8338ZM76.3563 26.8338C76.3563 32.4483 71.7469 36.9998 66.061 36.9998C60.375 36.9998 55.7656 32.4483 55.7656 26.8338C55.7656 21.2193 60.375 16.6679 66.061 16.6679C71.7469 16.6679 76.3563 21.2193 76.3563 26.8338ZM112.43 32.8136C115.886 32.8136 118.561 30.0664 118.561 26.8337C118.561 23.6009 115.886 20.8537 112.43 20.8537C108.974 20.8537 106.299 23.6009 106.299 26.8337C106.299 30.0664 108.974 32.8136 112.43 32.8136ZM112.43 36.9996C118.116 36.9996 122.725 32.4482 122.725 26.8337C122.725 21.2192 118.116 16.6677 112.43 16.6677C106.744 16.6677 102.135 21.2192 102.135 26.8337C102.135 32.4482 106.744 36.9996 112.43 36.9996ZM135.577 32.9202C136.814 32.9202 140.654 32.2036 141.066 26.826C141.066 25.2623 140.471 23.7365 139.812 22.8927C138.349 21.0189 136.349 20.7515 135.577 20.7515C131.973 20.7515 129.563 23.4092 129.563 26.8265C129.291 30.5677 132.323 33.034 135.577 32.9202Z" fill="white"/>
</svg>
