<svg width="172" height="36" viewBox="0 0 172 36" fill="none" xmlns="http://www.w3.org/2000/svg">
<path d="M132.873 27.9721V9.39604H127.003V27.9721H132.873Z" fill="white"/>
<path d="M127.602 5.56203C128.241 6.19833 129.02 6.51612 129.938 6.51612C130.88 6.51612 131.671 6.19833 132.312 5.56203C132.951 4.92622 133.271 4.16409 133.271 3.27612C133.271 2.3884 132.939 1.61987 132.275 0.97202C131.61 0.323927 130.831 0 129.938 0C129.044 0 128.272 0.323927 127.62 0.97202C126.967 1.61987 126.641 2.3884 126.641 3.27612C126.641 4.16409 126.961 4.92622 127.602 5.56203Z" fill="white"/>
<path d="M73.8918 26.0642L76.4641 22.176C77.7921 22.8725 78.9036 23.3585 79.7973 23.6341C80.6906 23.9103 81.5845 24.048 82.4784 24.048C83.2989 24.048 83.9515 23.9103 84.4346 23.6341C84.9177 23.3585 85.1597 22.9923 85.1597 22.5361C85.1597 22.176 85.0198 21.8881 84.7424 21.6721C84.4651 21.4561 84.024 21.3004 83.4199 21.2041L79.8336 20.556C78.0221 20.2203 76.6511 19.5964 75.7216 18.6841C74.7914 17.7723 74.3266 16.596 74.3266 15.1561C74.3266 13.2604 75.0207 11.772 76.4099 10.692C77.7985 9.61209 79.7124 9.07192 82.1521 9.07192C83.4569 9.07192 84.7482 9.25208 86.0287 9.61209C87.3084 9.97193 88.5528 10.5003 89.7609 11.1961L87.0797 14.9041C86.1373 14.3764 85.2255 13.9805 84.3441 13.7161C83.4619 13.4522 82.5871 13.3201 81.7176 13.3201C81.0166 13.3201 80.4675 13.4343 80.0691 13.662C79.6706 13.8904 79.4713 14.2082 79.4713 14.6161C79.4713 15.0001 79.61 15.2882 79.888 15.4801C80.1653 15.6724 80.6667 15.8282 81.3916 15.948L84.9054 16.596C86.7406 16.9324 88.1421 17.5625 89.1083 18.4861C90.0744 19.4102 90.5452 20.5684 90.5213 21.9601C90.5213 22.8725 90.3222 23.7184 89.9238 24.4981C89.5247 25.2783 88.9634 25.9505 88.2392 26.5141C87.5142 27.0782 86.6566 27.5222 85.6666 27.8461C84.6758 28.1703 83.6133 28.3323 82.4784 28.3323C80.7873 28.3323 79.2051 28.1398 77.7322 27.7562C76.2588 27.3725 74.9786 26.8085 73.8918 26.0642Z" fill="white"/>
<path fill-rule="evenodd" clip-rule="evenodd" d="M33.0885 26.694C34.2958 27.738 35.8419 28.26 37.7259 28.26C38.7159 28.26 39.6217 28.1096 40.4428 27.81C41.2638 27.5102 42.0852 27.0241 42.9066 26.3519V27.972H48.7032V16.0919C48.7032 13.8841 47.9845 12.1679 46.5477 10.9438C45.1104 9.71988 43.0998 9.10795 40.5154 9.10795C39.1389 9.10795 37.7439 9.27601 36.3309 9.61196C34.9181 9.94824 33.4506 10.4522 31.929 11.124L33.9579 15.1919C35.0447 14.7363 36.0167 14.4062 36.8745 14.2019C37.7316 13.9982 38.5104 13.8959 39.2114 13.8959C40.4428 13.8959 41.367 14.1244 41.9828 14.5799C42.5987 15.0362 42.9066 15.7083 42.9066 16.5959V18.108C42.0852 17.7963 41.3244 17.5742 40.6241 17.4419C39.9232 17.3102 39.2349 17.244 38.5592 17.244C36.2641 17.244 34.4771 17.7182 33.1971 18.6659C31.9166 19.6144 31.2768 20.9402 31.2768 22.6439C31.2768 24.3 31.8803 25.65 33.0885 26.694ZM37.436 23.922C36.9287 23.598 36.6752 23.1362 36.6752 22.536C36.6752 21.9363 36.9344 21.4801 37.4541 21.1679C37.9732 20.8563 38.7159 20.6999 39.6823 20.6999C40.2131 20.6999 40.7511 20.7359 41.2945 20.8079C41.8379 20.8799 42.3751 20.9762 42.9066 21.0959V23.4719C42.3995 23.784 41.8616 24.018 41.2945 24.174C40.7265 24.3303 40.1407 24.408 39.5373 24.408C38.6435 24.408 37.9432 24.246 37.436 23.922Z" fill="white"/>
<path fill-rule="evenodd" clip-rule="evenodd" d="M56.6795 27.198C57.6941 27.6903 58.7685 27.9361 59.904 27.9361C60.9908 27.9361 62.0173 27.7146 62.9834 27.27C63.9493 26.8261 64.7343 26.2323 65.3383 25.4881V28.1521C65.3383 29.2799 64.9762 30.1319 64.2515 30.7081C63.5271 31.2842 62.4764 31.5719 61.0997 31.5719C60.2058 31.5719 59.2882 31.4518 58.3461 31.2122C57.4042 30.9718 56.4136 30.612 55.3753 30.1319L53.5638 34.3441C54.6746 34.8716 55.8944 35.2802 57.223 35.5682C58.5511 35.8562 59.916 36 61.3171 36C64.4808 36 66.9144 35.3281 68.6172 33.9842C70.32 32.6398 71.1715 30.7199 71.1715 28.2241V9.39607H65.411V11.628C64.7825 10.8844 64.0279 10.3084 63.1466 9.90016C62.2646 9.49245 61.3288 9.28798 60.3389 9.28798C59.1308 9.28798 57.9959 9.52829 56.9333 10.0081C55.8702 10.4885 54.9462 11.1482 54.1616 11.988C53.3765 12.8285 52.7605 13.8122 52.314 14.9401C51.8668 16.0685 51.6437 17.2801 51.6437 18.5761C51.6437 19.872 51.8611 21.0905 52.2957 22.2301C52.7305 23.3703 53.316 24.3601 54.0528 25.2001C54.7893 26.0406 55.6651 26.7064 56.6795 27.198ZM58.6904 21.8701C57.8329 20.9942 57.4043 19.908 57.4043 18.6121C57.4043 17.3161 57.8264 16.236 58.6723 15.3721C59.5175 14.5081 60.58 14.076 61.8605 14.076C62.5365 14.076 63.1704 14.202 63.7625 14.454C64.3542 14.706 64.8795 15.0605 65.3383 15.5161V21.7081C64.8795 22.1885 64.3603 22.5541 63.7806 22.8062C63.2011 23.0581 62.5607 23.184 61.8605 23.184C60.6043 23.184 59.5474 22.7463 58.6904 21.8701Z" fill="white"/>
<path d="M139.901 22.248V13.8959H136.279V9.39602H139.901V4.98542L146.023 3.78237L145.771 9.39602H150.77V13.8959H145.771V21.0959C145.771 21.9122 145.958 22.4882 146.332 22.8239C146.707 23.1603 147.34 23.328 148.235 23.328C148.572 23.328 148.91 23.3043 149.249 23.256C149.587 23.2083 150.046 23.1003 150.626 22.932V27.6482C150.094 27.8162 149.442 27.9539 148.669 28.062C147.896 28.1702 147.208 28.2239 146.604 28.2239C144.406 28.2239 142.739 27.7199 141.604 26.712C140.468 25.7039 139.901 24.2161 139.901 22.248Z" fill="white"/>
<path d="M154.03 1.98628V27.9721H159.9V16.5121C159.82 15.4532 160.143 14.8112 161.112 14.1691C161.593 13.8507 162.387 13.68 163.016 13.68C163.957 13.68 164.712 13.9982 165.28 14.6339C165.847 15.2701 166.131 16.1044 166.131 17.136V27.9721H172V15.444C172 13.5961 171.421 12.078 170.261 10.89C169.102 9.702 167.616 9.10799 165.805 9.10799C164.597 9.10799 163.492 9.39035 162.49 9.95392C161.487 10.5182 160.624 11.3398 159.9 12.42V0.594726L154.03 1.98628Z" fill="white"/>
<path d="M93.5241 28.098H99.7244C99.8594 23.4389 100.077 15.9914 100.272 15.2181C100.615 13.8623 101.597 13.3139 102.942 13.4305C104.15 13.5351 104.861 14.236 105.073 15.615C105.172 16.2623 105.193 16.9238 105.213 17.5802L105.214 17.6046C105.227 18.0518 105.11 23.2504 105.014 27.5025L105.014 27.5066L105 28.098H111.085C111.165 23.5829 111.275 18.3311 111.332 17.6139C111.407 16.6849 111.569 15.7173 111.933 14.8686C112.392 13.7953 113.494 13.3788 114.656 13.578C115.646 13.7478 116.219 14.328 116.423 15.5515C116.557 16.3599 116.588 17.1918 116.596 18.0137C116.608 19.1486 116.526 23.6414 116.444 28.098H122.455C122.554 22.1707 122.649 15.8225 122.58 13.5371C122.522 11.6421 121.426 10.213 119.612 9.43076C116.43 8.05862 112.908 8.94287 110.77 11.6481C110.736 11.6917 110.682 11.7195 110.619 11.7517C110.587 11.768 110.553 11.7854 110.519 11.8065C109.388 9.91791 107.668 9.03214 105.53 8.87234C103.393 8.71239 101.568 9.46046 99.9663 10.999C99.9293 10.2816 99.9022 9.75395 99.8717 9.15405C99.3417 9.15405 98.8184 9.15511 98.2999 9.15617C96.992 9.15884 95.715 9.16145 94.4384 9.14668C93.816 9.1396 93.8169 9.51436 93.8179 9.94127L93.8179 9.96283C93.8212 11.8335 93.6772 23.5991 93.5241 28.098Z" fill="white"/>
<path d="M22.4685 28.0926V10.7259C26.0608 9.70867 27.486 6.7464 28.3378 4.37373V28.0926H22.4685Z" fill="white"/>
<path d="M0.642758 12.3912C-0.643302 8.12669 -0.000899867 4.04764 5.46044 2.50395C6.84544 2.11244 8.95662 1.82956 10.3897 1.80743C15.6211 1.72658 26.454 1.79048 26.7015 1.8099C26.8376 1.8207 26.314 3.86847 25.3966 5.22267C23.8961 7.43755 21.7585 8.47693 19.0579 8.61209C15.7324 8.77868 12.3976 8.80969 9.06674 8.81116C5.76902 8.81288 2.93953 9.79299 0.765944 12.3493C0.749336 12.3689 0.71676 12.3753 0.684336 12.3816C0.669992 12.3844 0.655645 12.3872 0.642758 12.3912Z" fill="white"/>
<path d="M8.27087 11.3733L17.0928 11.3893V17.2564H8.27087V27.955C3.69624 27.9154 0 24.219 0 19.6641C0 15.1092 3.69624 11.4129 8.27087 11.3733Z" fill="white"/>
</svg>
