<svg width="220" height="44" viewBox="0 0 220 44" fill="none" xmlns="http://www.w3.org/2000/svg">
<g clip-path="url(#clip0_4_62)">
<path d="M43.8828 38.221V15.2512C43.8828 14.857 44.1998 14.54 44.5939 14.54H47.7211C48.1152 14.54 48.4322 14.857 48.4322 15.2512V38.221C48.4322 38.6151 48.1152 38.9321 47.7211 38.9321H44.5939C44.1998 38.9321 43.8828 38.6151 43.8828 38.221Z" fill="white" style="fill:white;fill-opacity:1;"/>
<path d="M55.8977 21.6773V38.23C55.8977 38.6241 55.5807 38.9411 55.1866 38.9411H52.2736C51.8795 38.9411 51.5625 38.6241 51.5625 38.23V21.6773C51.5625 21.2832 51.8795 20.9662 52.2736 20.9662H55.1866C55.5807 20.9662 55.8977 21.2832 55.8977 21.6773ZM67.4298 26.9635V38.23C67.4298 38.6241 67.1128 38.9411 66.7187 38.9411H63.8057C63.4116 38.9411 63.0946 38.6241 63.0946 38.23V27.3491C63.0946 25.8154 61.7409 24.3589 59.4961 24.3589C57.4228 24.3589 55.8977 25.824 55.8977 27.3491C55.8977 23.6221 57.1315 20.9319 59.9245 20.572C63.0003 20.1694 67.4298 22.4398 67.4298 26.9635Z" fill="white" style="fill:white;fill-opacity:1;"/>
<path d="M97.7568 31.1359H84.4341C84.8625 34.0832 86.8588 35.4883 88.9064 35.514C90.2687 35.4968 91.6138 34.8628 92.4792 33.5691H97.2171C95.8976 37.2618 92.5648 39.3094 88.9064 39.3351C84.1771 39.2923 79.9961 35.9081 79.9961 29.9107C79.9961 23.9134 84.2799 20.4863 88.9064 20.4863C93.533 20.4863 97.8168 23.9391 97.8168 29.9107C97.8168 30.3306 97.7997 30.7332 97.7568 31.1273V31.1359ZM93.2331 27.8288C92.3421 25.5241 90.7656 24.3503 88.9064 24.3161C87.0473 24.3418 85.4622 25.5155 84.5712 27.8288H93.2331Z" fill="white" style="fill:white;fill-opacity:1;"/>
<path d="M110.495 21.4803V24.0249C110.495 24.479 110.084 24.8131 109.638 24.7189C109.253 24.6418 108.739 24.5732 108.105 24.5732C105.603 24.5732 104.292 25.9526 104.292 27.8289V38.2386C104.292 38.6327 103.975 38.9497 103.581 38.9497H100.668C100.274 38.9497 99.957 38.6327 99.957 38.2386V21.6688C99.957 21.2747 100.274 20.9577 100.668 20.9577H103.581C103.975 20.9577 104.292 21.2747 104.292 21.6688V27.6062C104.292 23.1082 106.229 20.5293 108.105 20.5293C108.756 20.5293 109.381 20.6235 109.981 20.7863C110.29 20.872 110.495 21.1547 110.495 21.4717V21.4803Z" fill="white" style="fill:white;fill-opacity:1;"/>
<path d="M116.394 15.2599V38.2298C116.394 38.6239 116.077 38.9409 115.683 38.9409H112.77C112.376 38.9409 112.059 38.6239 112.059 38.2298V15.2599C112.059 14.8658 112.376 14.5488 112.77 14.5488H115.683C116.077 14.5488 116.394 14.8658 116.394 15.2599ZM116.394 28.4541C116.394 28.4541 116.394 28.377 116.394 28.3342C116.394 28.377 116.394 28.4113 116.394 28.4541ZM127.926 26.9976V38.2298C127.926 38.6239 127.609 38.9409 127.215 38.9409H124.302C123.908 38.9409 123.591 38.6239 123.591 38.2298V28.4541C123.591 26.2351 122.7 24.2131 119.992 24.2131C117.499 24.2131 116.428 25.9438 116.394 28.3342C116.428 23.502 118.699 20.7689 121.337 20.5547C124.465 20.2977 127.926 22.8252 127.926 26.9891V26.9976Z" fill="white" style="fill:white;fill-opacity:1;"/>
<path d="M141.802 32.0788C141.802 35.4887 141.194 38.9244 137.904 39.3013C132.943 39.8754 130.484 36.097 130.484 32.9356V21.6691C130.484 21.275 130.801 20.958 131.195 20.958H134.108C134.503 20.958 134.82 21.275 134.82 21.6691V32.9356C134.82 34.4692 136.173 35.5401 138.418 35.5401C140.663 35.5401 141.802 33.9466 141.802 32.0702V32.0788ZM146.137 21.6691V38.2218C146.137 38.6159 145.82 38.9329 145.426 38.9329H142.513C142.119 38.9329 141.802 38.6159 141.802 38.2218V21.6691C141.802 21.275 142.119 20.958 142.513 20.958H145.426C145.82 20.958 146.137 21.275 146.137 21.6691Z" fill="white" style="fill:white;fill-opacity:1;"/>
<path d="M153.476 21.6688V38.2301C153.476 38.6242 153.159 38.9412 152.765 38.9412H149.852C149.458 38.9412 149.141 38.6242 149.141 38.2301V21.6688C149.141 21.2747 149.458 20.9577 149.852 20.9577H152.765C153.159 20.9577 153.476 21.2747 153.476 21.6688ZM174.818 26.7494V38.2301C174.818 38.6242 174.501 38.9412 174.107 38.9412H171.194C170.8 38.9412 170.483 38.6242 170.483 38.2301V26.9636C170.483 25.43 168.846 24.359 167.313 24.359C165.779 24.359 164.143 25.2072 164.143 26.9636V38.2301C164.143 38.6242 163.826 38.9412 163.431 38.9412H160.518C160.124 38.9412 159.807 38.6242 159.807 38.2301V26.9636C159.807 25.1987 158.171 24.359 156.637 24.359C155.104 24.359 153.467 25.4386 153.467 26.9636C153.467 22.517 155.498 20.8292 157.537 20.555C159.696 20.3494 161.855 21.6174 162.875 23.6394C163.62 21.8316 166.156 20.5293 168.212 20.5293C172.188 20.5293 174.818 23.1596 174.818 26.7408V26.7494Z" fill="white" style="fill:white;fill-opacity:1;"/>
<path d="M192.388 25.5843V38.1959C192.388 38.59 192.071 38.907 191.677 38.907H188.764C188.37 38.907 188.053 38.59 188.053 38.1959V26.0212C188.053 29.7396 186.854 30.6221 185.209 30.6221H184.223C183.084 30.6221 181.319 30.9562 181.113 32.824C180.951 34.3404 182.201 35.7113 184.223 35.7113C186.245 35.7113 188.053 34.3404 188.053 32.8068C188.053 36.9878 186.357 39.2497 183.461 39.3354C179.057 39.4725 176.77 36.2767 176.77 33.3894C176.77 29.7225 179.82 27.4435 183.504 27.4435H186.211C187.308 27.4435 188.087 26.8095 188.045 26.0212C187.959 24.6761 186.845 23.9736 185.012 23.9736C183.958 23.9736 182.938 24.539 182.45 25.293C182.321 25.4901 182.116 25.61 181.884 25.61H178.877C178.389 25.61 178.038 25.1216 178.2 24.659C179.306 21.6346 182.219 20.4951 185.012 20.4951C188.216 20.4951 192.388 22.0716 192.388 25.5757V25.5843Z" fill="white" style="fill:white;fill-opacity:1;"/>
<path d="M199.574 21.6773V38.23C199.574 38.6241 199.257 38.9411 198.862 38.9411H195.949C195.555 38.9411 195.238 38.6241 195.238 38.23V21.6773C195.238 21.2832 195.555 20.9662 195.949 20.9662H198.862C199.257 20.9662 199.574 21.2832 199.574 21.6773ZM211.106 26.9635V37.7159C211.106 38.3927 210.557 38.9411 209.88 38.9411H207.481C207.087 38.9411 206.77 38.6241 206.77 38.23V27.3491C206.77 25.8154 205.417 24.3589 203.172 24.3589C201.099 24.3589 199.574 25.824 199.574 27.3491C199.574 23.6221 200.807 20.9319 203.6 20.572C206.676 20.1694 211.106 22.4398 211.106 26.9635Z" fill="white" style="fill:white;fill-opacity:1;"/>
<path d="M217.997 26.466H217.526C217.397 26.466 217.286 26.3804 217.243 26.2604L216.857 25.1038C216.815 24.9838 216.703 24.8982 216.575 24.8982H214.484C214.356 24.8982 214.244 24.9838 214.201 25.1038L213.825 26.2518C213.782 26.3718 213.67 26.4575 213.542 26.4575H213.062C212.865 26.4575 212.719 26.2604 212.779 26.0719L214.416 20.9742C214.459 20.8542 214.57 20.7686 214.698 20.7686H216.318C216.446 20.7686 216.558 20.8542 216.6 20.9742L218.28 26.0719C218.34 26.2604 218.203 26.466 217.997 26.466ZM216.361 23.6044L215.795 21.9166C215.701 21.6425 215.315 21.6425 215.23 21.9166L214.681 23.6044C214.621 23.7929 214.758 23.99 214.964 23.99H216.069C216.275 23.99 216.412 23.7929 216.352 23.5959L216.361 23.6044Z" fill="white" style="fill:white;fill-opacity:1;"/>
<path d="M218.727 26.1662V21.0684C218.727 20.9056 218.864 20.7686 219.026 20.7686H219.498C219.66 20.7686 219.798 20.9056 219.798 21.0684V26.1662C219.798 26.329 219.66 26.466 219.498 26.466H219.026C218.864 26.466 218.727 26.329 218.727 26.1662Z" fill="white" style="fill:white;fill-opacity:1;"/>
<path d="M78.9609 21.3514V23.8789C78.9609 24.1188 78.7638 24.3072 78.5325 24.3072H69.5108C70.4361 24.3072 75.9108 24.4615 75.9108 27.0318V33.7231C75.9108 34.4685 76.5362 35.0939 77.2474 35.0939H78.5325C78.7724 35.0939 78.9609 35.291 78.9609 35.5223V38.4867C78.9609 38.7266 78.7638 38.9151 78.5325 38.9151H75.9965C73.5804 38.9151 71.567 36.9531 71.567 34.4856V26.7148C71.567 24.2987 69.3737 24.2987 69.3737 24.2987C69.1338 24.2987 68.9453 24.1016 68.9453 23.8703V21.3428C68.9453 21.1029 69.1424 20.9145 69.3737 20.9145H71.1301C71.37 20.9145 71.5584 20.7174 71.5584 20.4861V14.9342C71.5584 14.6943 71.7555 14.5059 71.9868 14.5059H75.4739C75.7137 14.5059 75.9022 14.7029 75.9022 14.9342V20.4861C75.9022 20.726 76.0993 20.9145 76.3306 20.9145H78.5239C78.7638 20.9145 78.9523 21.1115 78.9523 21.3428L78.9609 21.3514Z" fill="white" style="fill:white;fill-opacity:1;"/>
<path d="M26.8887 10.0859H6.99461C3.18201 10.0859 0.0976562 13.1789 0.0976562 16.9829V36.877C0.0976562 40.6896 3.19058 43.7739 6.99461 43.7739H26.8887C30.7013 43.7739 33.7856 40.681 33.7856 36.877V16.9829C33.7942 13.1789 30.7013 10.0859 26.8887 10.0859ZM6.13785 15.475L6.69474 14.9781C7.19167 14.5325 7.95419 14.5754 8.3997 15.0809C8.68244 15.4064 8.94803 15.7063 9.01658 15.7834C9.1965 15.9805 9.36785 16.1861 9.54777 16.3832L10.1218 17.0343C10.3189 17.2656 10.5245 17.4884 10.7215 17.7197C10.9272 17.951 11.1328 18.1824 11.3384 18.4137C11.544 18.645 11.7497 18.8763 11.9467 19.1077C12.1438 19.3304 12.3408 19.5532 12.5379 19.7759C12.7264 19.9816 12.9063 20.1958 13.0948 20.4014C13.2661 20.5899 13.4289 20.7784 13.6003 20.9754C13.7459 21.1382 13.883 21.301 14.0286 21.4723C14.1486 21.6094 14.2685 21.7465 14.4228 21.8493C14.5598 21.9436 14.7398 21.9864 14.9025 21.9864C15.2195 21.9864 15.468 21.7379 15.588 21.4638C15.6308 21.361 15.6565 21.2581 15.6651 21.1553C15.7422 20.4357 15.6651 17.8225 15.6822 15.7234V15.1923C15.6822 14.524 16.222 13.9842 16.8817 13.9842H17.5842C18.2525 13.9842 18.7837 14.524 18.7837 15.1837V15.5864C18.7837 16.0747 18.7666 17.5826 18.7837 19.1162C18.8008 20.2472 18.7751 21.7893 18.5781 22.4748C18.124 24.0426 17.0616 24.848 15.6565 25.1821C14.9197 25.362 13.4546 25.4477 12.0924 23.9912L6.02647 17.1885C5.58095 16.6916 5.62379 15.9291 6.12071 15.4921L6.13785 15.475ZM13.506 31.9848L6.70331 38.0507C6.20639 38.4963 5.44387 38.4534 5.00692 37.9565L4.50999 37.3996C4.06448 36.9027 4.10731 36.1401 4.61281 35.6946C4.93838 35.4119 5.23824 35.1377 5.31535 35.0778C5.51241 34.8978 5.71803 34.7265 5.91509 34.5466C6.12928 34.3581 6.35204 34.161 6.56623 33.9725C6.79755 33.7755 7.02031 33.5699 7.25164 33.3728C7.48297 33.1672 7.71429 32.9615 7.94562 32.7559C8.17695 32.5503 8.40827 32.3447 8.6396 32.1476C8.86236 31.9506 9.08512 31.7535 9.30787 31.5565C9.5135 31.368 9.72769 31.188 9.93331 30.9996C10.1218 30.8282 10.3103 30.6654 10.5073 30.4941C10.6701 30.3484 10.8329 30.2113 11.0043 30.0657C11.1414 29.9457 11.2784 29.8258 11.3812 29.6716C11.4755 29.5345 11.5183 29.3546 11.5183 29.1918C11.5183 28.8748 11.2699 28.6263 10.9957 28.5064C10.8929 28.4635 10.7901 28.4378 10.6873 28.4293C9.96758 28.3522 7.35445 28.4293 5.25538 28.4121H4.72418C4.05591 28.4121 3.51615 27.8724 3.51615 27.2127V26.5101C3.51615 25.8418 4.05591 25.3106 4.71562 25.3106H5.1183C5.60665 25.3106 7.11456 25.3278 8.64817 25.3106C9.7791 25.2935 11.3213 25.3192 12.0067 25.5163C13.5746 25.9704 14.3799 27.0327 14.7141 28.4378C14.894 29.1747 14.9797 30.6397 13.5232 32.002L13.506 31.9848ZM27.6426 38.3934L27.0857 38.8904C26.5888 39.3359 25.8263 39.293 25.3808 38.7875C25.098 38.462 24.8239 38.1621 24.7639 38.085C24.584 37.8879 24.4126 37.6823 24.2327 37.4853C24.0442 37.2711 23.8472 37.0483 23.6587 36.8341C23.4616 36.6028 23.256 36.38 23.0589 36.1487C22.8533 35.9174 22.6477 35.6861 22.4421 35.4547C22.2365 35.2234 22.0308 34.9921 21.8338 34.7608C21.6367 34.538 21.4397 34.3152 21.2426 34.0925C21.0541 33.8869 20.8742 33.6727 20.6857 33.467C20.5144 33.2786 20.3516 33.0901 20.1802 32.893C20.0346 32.7302 19.8975 32.5674 19.7518 32.3961C19.6319 32.259 19.5119 32.1219 19.3577 32.0191C19.2206 31.9249 19.0407 31.882 18.8779 31.882C18.5609 31.882 18.3125 32.1305 18.1925 32.4047C18.1497 32.5075 18.124 32.6103 18.1154 32.7131C18.0383 33.4328 18.1154 36.0459 18.0983 38.145V38.6762C18.0983 39.3444 17.5585 39.8842 16.8988 39.8842H16.1963C15.528 39.8842 14.9968 39.3444 14.9968 38.6847V38.2821C14.9968 37.7937 15.0139 36.2858 14.9968 34.7522C14.9797 33.6213 15.0054 32.0791 15.2024 31.3937C15.6565 29.8258 16.7189 29.0204 18.124 28.6863C18.8608 28.5064 20.3259 28.4207 21.6881 29.8772L27.754 36.6799C28.1995 37.1768 28.1567 37.9394 27.6598 38.3763L27.6426 38.3934ZM30.3928 27.3669C30.3928 28.0352 29.8531 28.5663 29.1934 28.5663H28.7907C28.3023 28.5663 26.7944 28.5492 25.2608 28.5663C24.1299 28.5835 22.5877 28.5578 21.9023 28.3607C20.3344 27.9066 19.5291 26.8443 19.1949 25.4392C19.015 24.7023 18.9293 23.2373 20.3858 21.875L27.1885 15.8091C27.6855 15.3636 28.448 15.4064 28.8849 15.9034L29.3819 16.4603C29.8274 16.9572 29.7845 17.7197 29.2791 18.1652C28.9535 18.448 28.6536 18.7221 28.5765 18.7821C28.3795 18.962 28.1738 19.1334 27.9768 19.3133L27.3256 19.8873C27.0943 20.0844 26.8715 20.29 26.6402 20.4871C26.4089 20.6927 26.1776 20.8983 25.9462 21.1039C25.7149 21.3096 25.4836 21.5152 25.2523 21.7122C25.0295 21.9093 24.8067 22.1063 24.584 22.3034C24.3784 22.4919 24.1642 22.6718 23.9585 22.8603C23.7701 23.0316 23.5816 23.1944 23.3845 23.3658C23.2217 23.5114 23.0589 23.6485 22.8876 23.7942C22.7505 23.9141 22.6134 24.0341 22.5106 24.1883C22.4164 24.3254 22.3735 24.5053 22.3735 24.6681C22.3735 24.9851 22.622 25.2335 22.8962 25.3535C22.999 25.3963 23.1018 25.422 23.2046 25.4306C23.9243 25.5077 26.5374 25.4306 28.6365 25.4477H29.1677C29.836 25.4477 30.3757 25.9875 30.3757 26.6472V27.3497L30.3928 27.3669Z" fill="white" style="fill:white;fill-opacity:1;"/>
</g>
<defs>
<clipPath id="clip0_4_62">
<rect width="220" height="33.9107" fill="white" style="fill:white;fill-opacity:1;" transform="translate(0 10)"/>
</clipPath>
</defs>
</svg>
