<svg width="518" height="518" viewBox="0 0 518 518" fill="none" xmlns="http://www.w3.org/2000/svg">
<circle opacity="0.25" cx="259" cy="259" r="255" stroke="#00CC76" stroke-width="8"/>
<path fill-rule="evenodd" clip-rule="evenodd" d="M74.4342 87C75.5584 87 76.6316 86.5346 77.4078 85.7214C123.116 37.8344 187.574 8 259 8C330.426 8 394.884 37.8344 440.592 85.7214C441.368 86.5346 442.442 87 443.566 87C447.084 87 448.923 82.8666 446.496 80.3201C399.324 30.8358 332.763 0 259 0C185.237 0 118.676 30.8358 71.504 80.3201C69.0766 82.8666 70.9162 87 74.4342 87ZM12.4274 211.819C12.9007 209.331 11.0112 207 8.47829 207C6.58307 207 4.94641 208.333 4.59142 210.195C1.57748 226.001 0 242.316 0 259C0 275.684 1.57748 291.999 4.59142 307.805C4.94641 309.667 6.58307 311 8.47829 311C11.0112 311 12.9007 308.669 12.4274 306.181C9.52102 290.9 8 275.127 8 259C8 242.873 9.52102 227.1 12.4274 211.819ZM74.4342 431C75.5584 431 76.6316 431.465 77.4078 432.279C123.116 480.166 187.574 510 259 510C330.426 510 394.884 480.166 440.592 432.279C441.368 431.465 442.442 431 443.566 431C447.084 431 448.923 435.133 446.496 437.68C399.324 487.164 332.763 518 259 518C185.237 518 118.676 487.164 71.504 437.68C69.0766 435.133 70.9162 431 74.4342 431ZM513.409 307.805C513.054 309.667 511.417 311 509.522 311C506.989 311 505.099 308.669 505.573 306.181C508.479 290.9 510 275.127 510 259C510 242.873 508.479 227.1 505.573 211.819C505.099 209.331 506.989 207 509.522 207C511.417 207 513.054 208.333 513.409 210.195C516.423 226.001 518 242.316 518 259C518 275.684 516.423 291.999 513.409 307.805Z" fill="#00CC76"/>
<circle opacity="0.1" cx="259" cy="259" r="235" fill="#00CC76"/>
<circle opacity="0.1" cx="259" cy="259" r="205" fill="#00CC76"/>
<circle opacity="0.1" cx="259" cy="259" r="175" fill="#00CC76"/>
<circle opacity="0.1" cx="259" cy="259" r="145" fill="#00CC76"/>
<circle opacity="0.1" cx="259" cy="259" r="115" fill="#00CC76"/>
<circle opacity="0.1" cx="259" cy="259" r="85" fill="#00CC76"/>
<circle opacity="0.1" cx="259" cy="259" r="55" fill="#00CC76"/>
</svg>
