<svg width="209" height="44" viewBox="0 0 209 44" fill="none" xmlns="http://www.w3.org/2000/svg">
<path d="M65.2613 36.9105C63.8247 36.9105 62.5136 36.614 61.3278 36.0211C60.1648 35.4283 59.2641 34.5731 58.6256 33.4558L59.0703 32.7375V36.5H55.3762V10.607H59.2413V21.8262L58.6256 20.9368C59.3097 19.8879 60.2218 19.067 61.362 18.4741C62.5022 17.8812 63.8019 17.5848 65.2613 17.5848C67.0172 17.5848 68.5906 18.0066 69.9816 18.8503C71.3954 19.6941 72.5014 20.8456 73.2995 22.305C74.1204 23.7644 74.5308 25.4063 74.5308 27.2305C74.5308 29.0548 74.1204 30.6966 73.2995 32.156C72.5014 33.6154 71.4068 34.7784 70.0158 35.6449C68.6248 36.4886 67.04 36.9105 65.2613 36.9105ZM64.8851 33.319C65.9796 33.319 66.9488 33.0567 67.7925 32.5322C68.6362 32.0078 69.2975 31.2895 69.7764 30.3773C70.278 29.4424 70.5289 28.3935 70.5289 27.2305C70.5289 26.0675 70.278 25.03 69.7764 24.1179C69.2975 23.2057 68.6362 22.4874 67.7925 21.963C66.9488 21.4385 65.9796 21.1763 64.8851 21.1763C63.8133 21.1763 62.8442 21.4385 61.9777 21.963C61.134 22.4874 60.4613 23.2057 59.9596 24.1179C59.4807 25.03 59.2413 26.0675 59.2413 27.2305C59.2413 28.3935 59.4807 29.4424 59.9596 30.3773C60.4613 31.2895 61.134 32.0078 61.9777 32.5322C62.8442 33.0567 63.8133 33.319 64.8851 33.319ZM76.9225 36.5V17.9952H80.7876V36.5H76.9225ZM76.9225 15.4641V11.0174H80.7876V15.4641H76.9225ZM83.9385 36.5V17.9952H87.6326V21.6209L87.1879 21.1421C87.644 19.9791 88.3737 19.1012 89.377 18.5083C90.3804 17.8926 91.5433 17.5848 92.8659 17.5848C94.2341 17.5848 95.4427 17.8812 96.4916 18.4741C97.5406 19.067 98.3615 19.8879 98.9544 20.9368C99.5473 21.9858 99.8437 23.1943 99.8437 24.5625V36.5H96.0128V25.5887C96.0128 24.6537 95.8417 23.867 95.4997 23.2285C95.1576 22.5673 94.6674 22.0656 94.0289 21.7235C93.4132 21.3587 92.7063 21.1763 91.9082 21.1763C91.1101 21.1763 90.3918 21.3587 89.7533 21.7235C89.1376 22.0656 88.6587 22.5673 88.3167 23.2285C87.9746 23.8898 87.8036 24.6766 87.8036 25.5887V36.5H83.9385ZM111.163 36.9105C109.385 36.9105 107.788 36.4886 106.375 35.6449C104.984 34.7784 103.878 33.6154 103.057 32.156C102.259 30.6966 101.86 29.0548 101.86 27.2305C101.86 25.4063 102.27 23.7644 103.091 22.305C103.912 20.8456 105.018 19.6941 106.409 18.8503C107.8 18.0066 109.373 17.5848 111.129 17.5848C112.611 17.5848 113.923 17.8812 115.063 18.4741C116.203 19.067 117.104 19.8879 117.765 20.9368L117.183 21.8262V10.607H121.014V36.5H117.354V32.7375L117.799 33.4558C117.161 34.5731 116.248 35.4283 115.063 36.0211C113.877 36.614 112.577 36.9105 111.163 36.9105ZM111.54 33.319C112.611 33.319 113.569 33.0567 114.413 32.5322C115.279 32.0078 115.952 31.2895 116.431 30.3773C116.933 29.4424 117.183 28.3935 117.183 27.2305C117.183 26.0675 116.933 25.03 116.431 24.1179C115.952 23.2057 115.279 22.4874 114.413 21.963C113.569 21.4385 112.611 21.1763 111.54 21.1763C110.468 21.1763 109.499 21.4385 108.632 21.963C107.766 22.4874 107.093 23.2057 106.614 24.1179C106.135 25.03 105.896 26.0675 105.896 27.2305C105.896 28.3935 106.135 29.4424 106.614 30.3773C107.093 31.2895 107.754 32.0078 108.598 32.5322C109.465 33.0567 110.445 33.319 111.54 33.319ZM124.158 43.341V17.9952H127.853V21.8262L127.408 20.9368C128.092 19.8879 129.004 19.067 130.144 18.4741C131.284 17.8812 132.584 17.5848 134.044 17.5848C135.8 17.5848 137.373 18.0066 138.764 18.8503C140.178 19.6941 141.284 20.8456 142.082 22.305C142.903 23.7644 143.313 25.4063 143.313 27.2305C143.313 29.0548 142.903 30.6966 142.082 32.156C141.284 33.6154 140.189 34.7784 138.798 35.6449C137.407 36.4886 135.822 36.9105 134.044 36.9105C132.607 36.9105 131.296 36.614 130.11 36.0211C128.947 35.4283 128.046 34.5731 127.408 33.4558L128.024 32.7375V43.341H124.158ZM133.667 33.319C134.762 33.319 135.731 33.0567 136.575 32.5322C137.419 32.0078 138.08 31.2895 138.559 30.3773C139.06 29.4424 139.311 28.3935 139.311 27.2305C139.311 26.0675 139.06 25.03 138.559 24.1179C138.08 23.2057 137.419 22.4874 136.575 21.963C135.731 21.4385 134.762 21.1763 133.667 21.1763C132.596 21.1763 131.627 21.4385 130.76 21.963C129.916 22.4874 129.244 23.2057 128.742 24.1179C128.263 25.03 128.024 26.0675 128.024 27.2305C128.024 28.3935 128.263 29.4424 128.742 30.3773C129.244 31.2895 129.916 32.0078 130.76 32.5322C131.627 33.0567 132.596 33.319 133.667 33.319ZM145.705 36.5V10.607H149.57V36.5H145.705ZM158.262 36.9105C157.008 36.9105 155.902 36.6938 154.944 36.2606C154.009 35.8045 153.279 35.1888 152.755 34.4135C152.231 33.6154 151.968 32.6805 151.968 31.6087C151.968 30.6054 152.185 29.7047 152.618 28.9065C153.074 28.1084 153.77 27.4357 154.705 26.8885C155.64 26.3412 156.814 25.9535 158.228 25.7255L164.658 24.6651V27.7094L158.98 28.7013C157.954 28.8837 157.202 29.2144 156.723 29.6933C156.244 30.1493 156.004 30.7422 156.004 31.4719C156.004 32.1788 156.267 32.7603 156.791 33.2163C157.338 33.6496 158.034 33.8662 158.878 33.8662C159.927 33.8662 160.839 33.6382 161.614 33.1821C162.412 32.7261 163.028 32.1218 163.461 31.3693C163.894 30.594 164.111 29.7389 164.111 28.8039V24.0495C164.111 23.1373 163.769 22.3962 163.085 21.8262C162.424 21.2333 161.534 20.9368 160.417 20.9368C159.391 20.9368 158.49 21.2105 157.715 21.7577C156.962 22.2822 156.404 22.9663 156.039 23.81L152.823 22.2024C153.165 21.2903 153.724 20.4922 154.499 19.8081C155.275 19.1012 156.175 18.5539 157.202 18.1662C158.251 17.7786 159.357 17.5848 160.519 17.5848C161.979 17.5848 163.267 17.8584 164.385 18.4057C165.525 18.953 166.403 19.7169 167.018 20.6974C167.657 21.6551 167.976 22.7725 167.976 24.0495V36.5H164.282V33.1479L165.069 33.2505C164.635 34.0031 164.077 34.6529 163.393 35.2002C162.731 35.7475 161.967 36.1694 161.101 36.4658C160.257 36.7622 159.311 36.9105 158.262 36.9105ZM171.127 36.5V17.9952H174.821V21.6209L174.377 21.1421C174.833 19.9791 175.562 19.1012 176.566 18.5083C177.569 17.8926 178.732 17.5848 180.055 17.5848C181.423 17.5848 182.631 17.8812 183.68 18.4741C184.729 19.067 185.55 19.8879 186.143 20.9368C186.736 21.9858 187.032 23.1943 187.032 24.5625V36.5H183.202V25.5887C183.202 24.6537 183.031 23.867 182.688 23.2285C182.346 22.5673 181.856 22.0656 181.218 21.7235C180.602 21.3587 179.895 21.1763 179.097 21.1763C178.299 21.1763 177.581 21.3587 176.942 21.7235C176.326 22.0656 175.848 22.5673 175.505 23.2285C175.163 23.8898 174.992 24.6766 174.992 25.5887V36.5H171.127ZM198.489 36.9105C196.642 36.9105 195 36.4886 193.563 35.6449C192.15 34.7784 191.044 33.6154 190.246 32.156C189.447 30.6738 189.048 29.0206 189.048 27.1963C189.048 25.3264 189.447 23.6732 190.246 22.2366C191.066 20.8 192.161 19.6713 193.529 18.8503C194.897 18.0066 196.448 17.5848 198.181 17.5848C199.572 17.5848 200.815 17.8242 201.909 18.3031C203.004 18.7819 203.927 19.4432 204.68 20.2869C205.432 21.1079 206.003 22.0542 206.39 23.1259C206.801 24.1977 207.006 25.3378 207.006 26.5464C207.006 26.8429 206.995 27.1507 206.972 27.4699C206.949 27.7892 206.903 28.0856 206.835 28.3593H192.093V25.2808H204.646L202.799 26.6832C203.027 25.5659 202.947 24.5739 202.559 23.7074C202.194 22.8181 201.624 22.1226 200.849 21.6209C200.097 21.0965 199.207 20.8342 198.181 20.8342C197.155 20.8342 196.243 21.0965 195.445 21.6209C194.647 22.1226 194.031 22.8523 193.598 23.81C193.164 24.745 192.993 25.8851 193.085 27.2305C192.971 28.4847 193.142 29.5792 193.598 30.5142C194.077 31.4491 194.738 32.1788 195.582 32.7033C196.448 33.2277 197.429 33.49 198.523 33.49C199.64 33.49 200.587 33.2391 201.362 32.7375C202.16 32.2358 202.787 31.5859 203.243 30.7878L206.39 32.327C206.025 33.1935 205.455 33.9802 204.68 34.6871C203.927 35.3712 203.015 35.9185 201.944 36.329C200.895 36.7166 199.743 36.9105 198.489 36.9105Z" fill="white" style="fill:white;fill-opacity:1;"/>
<path d="M47.6495 36.4649H21.4659L9.43555 7.21472L18.0241 7.49982C20.7331 7.58975 23.2861 8.79743 25.0844 10.8395L47.6495 36.4649Z" fill="white" style="fill:white;fill-opacity:1;"/>
<path d="M11.0907 17.1169L17.9314 33.3932L4.72168 17.1169H11.0907Z" fill="white" style="fill:white;fill-opacity:1;"/>
<path d="M6.1331 23.0181L13.6815 31.9818L0 23.0181H6.1331Z" fill="white" style="fill:white;fill-opacity:1;"/>
</svg>
