<svg width="202" height="44" viewBox="0 0 202 44" fill="none" xmlns="http://www.w3.org/2000/svg">
<g clip-path="url(#clip0_7920_5431)">
<mask id="mask0_7920_5431" style="mask-type:luminance" maskUnits="userSpaceOnUse" x="0" y="6" width="202" height="33">
<path d="M201.855 6.00045H0V38.0005H201.855V6.00045Z" fill="white" style="fill:white;fill-opacity:1;"/>
</mask>
<g mask="url(#mask0_7920_5431)">
<path d="M28.0071 19.1951L14.8106 26.6429L0.679646 18.6854L0 19.0535V24.8305L14.8106 33.1562L28.0071 25.7367V28.7951L14.8106 36.243L0.679646 28.2854L0 28.6535V29.6447L14.8106 37.9704L29.5929 29.6447V23.8677L28.9133 23.4995L14.8106 31.4287L1.58584 24.0093V20.9509L14.8106 28.3703L29.5929 20.0447V14.3526L28.8566 13.9278L14.8106 21.8287L2.26549 14.8057L14.8106 7.7544L25.1186 13.5597L26.0248 13.05V12.342L14.8106 6.02697L0 14.3526V15.2588L14.8106 23.5845L28.0071 16.1367V19.1951Z" fill="white" style="fill:white;fill-opacity:1;"/>
<path d="M57.2586 33.2427V7.81266H53.3506V17.3277C53.3506 17.4693 53.2657 17.5826 53.1241 17.6392C52.9825 17.6958 52.8409 17.6392 52.756 17.5542C51.425 15.9967 49.3577 15.1189 47.0922 15.1189C42.2498 15.1189 38.4551 19.1967 38.4551 24.4073C38.4551 26.956 39.333 29.3065 40.9471 31.0339C42.5613 32.7613 44.7418 33.6958 47.0922 33.6958C49.3294 33.6958 51.3967 32.7613 52.756 31.1472C52.8409 31.0339 53.0108 31.0056 53.1241 31.0339C53.2657 31.0905 53.3506 31.2038 53.3506 31.3454V33.2427H57.2586ZM47.9418 30.156C44.8268 30.156 42.3914 27.6357 42.3914 24.4073C42.3914 21.179 44.8268 18.6587 47.9418 18.6587C51.0568 18.6587 53.4922 21.179 53.4922 24.4073C53.4922 27.6357 51.0568 30.156 47.9418 30.156Z" fill="white" style="fill:white;fill-opacity:1;"/>
<path d="M78.1639 33.2136V15.5428H74.2842V17.3269C74.2842 17.4685 74.1993 17.5817 74.0577 17.6384C73.9161 17.695 73.7745 17.6384 73.6896 17.5251C72.3869 15.9676 70.348 15.0897 68.0258 15.0897C63.1834 15.0897 59.3887 19.1676 59.3887 24.3782C59.3887 29.5888 63.1834 33.6667 68.0258 33.6667C70.263 33.6667 72.3303 32.7322 73.6896 31.0897C73.7745 30.9764 73.9444 30.9481 74.0577 30.9764C74.1993 31.0331 74.2842 31.1463 74.2842 31.2879V33.2136H78.1639ZM68.9037 30.1552C65.7887 30.1552 63.3533 27.6348 63.3533 24.4065C63.3533 21.1782 65.7887 18.6578 68.9037 18.6578C72.0188 18.6578 74.4542 21.1782 74.4542 24.4065C74.4542 27.6348 72.0188 30.1552 68.9037 30.1552Z" fill="white" style="fill:white;fill-opacity:1;"/>
<path d="M111.379 33.2419V15.5428H107.499V17.3269C107.499 17.4685 107.414 17.5817 107.273 17.6384C107.131 17.695 106.989 17.6384 106.904 17.5251C105.602 15.9676 103.563 15.0897 101.241 15.0897C96.3699 15.0897 92.6035 19.1676 92.6035 24.4065C92.6035 29.6455 96.3982 33.695 101.241 33.695C103.478 33.695 105.545 32.7605 106.904 31.118C106.989 31.0048 107.159 30.9764 107.273 31.0047C107.414 31.0614 107.499 31.1747 107.499 31.3163V33.2419H111.379ZM102.119 30.1552C99.0035 30.1552 96.5681 27.6348 96.5681 24.4065C96.5681 21.1782 99.0035 18.6578 102.119 18.6578C105.234 18.6578 107.669 21.1782 107.669 24.4065C107.669 27.6348 105.234 30.1552 102.119 30.1552Z" fill="white" style="fill:white;fill-opacity:1;"/>
<path d="M118.492 31.1475C118.52 31.1475 118.577 31.1192 118.605 31.1192C118.69 31.1192 118.803 31.1758 118.86 31.2324C120.191 32.79 122.258 33.6678 124.524 33.6678C129.366 33.6678 133.161 29.59 133.161 24.3793C133.161 21.8307 132.283 19.4802 130.669 17.7528C129.055 16.0254 126.874 15.0909 124.524 15.0909C122.287 15.0909 120.219 16.0254 118.86 17.6395C118.775 17.7528 118.634 17.7811 118.492 17.7528C118.35 17.6962 118.265 17.5829 118.265 17.4413V7.81298H114.357V33.2431H118.265V31.459C118.265 31.3174 118.35 31.2041 118.492 31.1475ZM118.095 24.4077C118.095 21.1793 120.531 18.659 123.646 18.659C126.761 18.659 129.196 21.1793 129.196 24.4077C129.196 27.636 126.761 30.1563 123.646 30.1563C120.531 30.1563 118.095 27.6077 118.095 24.4077Z" fill="white" style="fill:white;fill-opacity:1;"/>
<path d="M144.458 19.1676C144.827 19.1676 145.166 19.1959 145.393 19.2526V15.2313C145.251 15.203 144.996 15.1747 144.742 15.1747C142.703 15.1747 140.834 16.2225 139.842 17.8933C139.758 18.0349 139.616 18.0915 139.474 18.0349C139.333 18.0066 139.219 17.865 139.219 17.7234V15.5428H135.34V33.2703H139.248V25.4543C139.248 21.5747 141.23 19.1676 144.458 19.1676Z" fill="white" style="fill:white;fill-opacity:1;"/>
<path d="M151.816 15.545H147.852V33.2725H151.816V15.545Z" fill="white" style="fill:white;fill-opacity:1;"/>
<path d="M149.774 7.83978C148.443 7.83978 147.367 8.91588 147.367 10.2469C147.367 11.5778 148.443 12.6539 149.774 12.6539C151.105 12.6539 152.181 11.5778 152.181 10.2469C152.181 8.91588 151.105 7.83978 149.774 7.83978Z" fill="white" style="fill:white;fill-opacity:1;"/>
<path d="M163.424 15.0897C157.987 15.0897 154.051 18.9977 154.051 24.4065C154.051 27.0402 154.985 29.3906 156.656 31.0897C158.355 32.7888 160.734 33.7233 163.396 33.7233C165.605 33.7233 167.304 33.2986 170.532 30.9198L168.295 28.5694C166.709 29.6171 165.237 30.1269 163.792 30.1269C160.507 30.1269 158.044 27.6632 158.044 24.4065C158.044 21.1499 160.507 18.6862 163.792 18.6862C165.35 18.6862 166.794 19.1959 168.238 20.2437L170.73 17.8932C167.814 15.4012 165.18 15.0897 163.424 15.0897Z" fill="white" style="fill:white;fill-opacity:1;"/>
<path d="M177.416 25.4539C177.472 25.3973 177.557 25.369 177.642 25.369H177.671C177.756 25.369 177.84 25.4256 177.925 25.4823L184.184 33.2415H188.998L180.899 23.4433C180.786 23.3017 180.786 23.1035 180.927 22.9902L188.375 15.5424H183.589L177.161 21.9991C177.076 22.084 176.934 22.1123 176.793 22.084C176.679 22.0274 176.594 21.9141 176.594 21.7725V7.83978H172.658V33.2699H176.566V26.3601C176.566 26.2752 176.594 26.1619 176.679 26.1053L177.416 25.4539Z" fill="white" style="fill:white;fill-opacity:1;"/>
<path d="M195.37 33.6965C198.57 33.6965 201.826 31.7426 201.826 28.0328C201.826 25.5974 200.297 23.9266 197.182 22.9072L195.058 22.1992C193.614 21.7178 192.934 21.0381 192.934 20.1036C192.934 19.0275 193.897 18.2912 195.256 18.2912C196.559 18.2912 197.72 19.1408 198.456 20.6133L201.6 18.9142C200.439 16.5355 198.032 15.0629 195.256 15.0629C191.745 15.0629 189.196 17.3284 189.196 20.4151C189.196 22.8788 190.669 24.5213 193.699 25.4841L195.879 26.1921C197.409 26.6735 198.06 27.2965 198.06 28.2877C198.06 29.7886 196.672 30.3266 195.483 30.3266C193.897 30.3266 192.481 29.3072 191.802 27.6364L188.602 29.3355C189.649 32.0257 192.226 33.6965 195.37 33.6965Z" fill="white" style="fill:white;fill-opacity:1;"/>
<path d="M89.0317 33.5286C90.2777 33.5286 91.3821 33.4153 92.0051 33.3303V29.9321C91.4954 29.9887 90.5892 30.0454 90.0512 30.0454C88.4653 30.0454 87.2476 29.7622 87.2476 26.3357V19.0578C87.2476 18.8595 87.3892 18.718 87.5874 18.718H91.4104V15.518H87.5874C87.3892 15.518 87.2476 15.3764 87.2476 15.1781V10.0808H83.3397V15.2065C83.3397 15.4047 83.1981 15.5463 82.9998 15.5463H80.2812V18.7463H82.9998C83.1981 18.7463 83.3397 18.8879 83.3397 19.0861V27.3268C83.3397 33.5286 87.4742 33.5286 89.0317 33.5286Z" fill="white" style="fill:white;fill-opacity:1;"/>
</g>
</g>
<defs>
<clipPath id="clip0_7920_5431">
<rect width="201.911" height="32" fill="white" style="fill:white;fill-opacity:1;" transform="translate(0 6)"/>
</clipPath>
</defs>
</svg>
