<svg width="143" height="44" viewBox="0 0 143 44" fill="none" xmlns="http://www.w3.org/2000/svg">
<g clip-path="url(#clip0_5012_117097)">
<path d="M51.2527 11.6398L51.049 11.8434V30.5753L51.2527 30.7789H55.5691L55.7727 30.5753V17.6259C56.8722 16.3635 58.7454 15.5898 60.6186 15.5898C63.6727 15.5898 65.3015 17.2594 65.3015 20.5171V30.5753L65.5051 30.7789H69.8216L70.0252 30.5753V19.9877C70.0252 14.4903 66.9711 11.029 60.8629 11.029C59.0304 11.029 57.198 11.6398 55.7727 12.4543V11.8434L55.5691 11.6398H51.2527Z" fill="white"/>
<path d="M73.5521 11.6398L73.3485 11.8027V16.2006L73.5521 16.4042H76.6062V30.5753L76.8098 30.7789H81.167L81.3706 30.5753V16.4042H88.4968L88.7004 16.2006V11.8434L88.4968 11.6398H81.3706V10.9476C81.3706 7.85274 82.6329 6.22388 85.1169 6.22388C86.2571 6.22388 87.2752 6.46821 88.4968 7.44553L88.7004 7.24192V2.47751C87.4788 1.90741 86.4608 1.66309 84.9133 1.66309C79.6196 1.66309 76.6062 5.28729 76.6062 10.744V11.6398H73.5521Z" fill="white"/>
<path d="M92.6501 11.6398L92.4465 11.8434V30.5753L92.6501 30.7789H96.9666L97.1702 30.5753V11.8434L96.9666 11.6398H92.6501ZM94.6047 3.49555L91.632 6.42749V6.83471L94.6047 9.80737H95.0119L97.9846 6.83471V6.42749L95.0119 3.49555H94.6047Z" fill="white"/>
<path fill-rule="evenodd" clip-rule="evenodd" d="M113.327 11.6398C112.39 11.2733 111.332 11.029 110.273 11.029C105.997 11.029 102.536 14.4089 102.536 18.5625C102.536 20.7207 103.269 22.3496 104.735 23.7748C103.595 24.6707 102.984 25.8109 102.984 26.9918C102.984 28.417 103.717 29.3129 104.531 29.9237C102.088 31.3897 100.418 33.3036 100.418 35.5433C100.418 40.0226 104.979 41.5701 110.68 41.5701C116.381 41.5701 120.127 39.0861 120.127 35.2582C120.127 27.3583 107.626 28.7021 107.626 26.4624C107.626 26.0552 107.83 25.8516 108.033 25.648C108.644 25.933 109.458 26.0959 110.273 26.0959C114.793 26.0959 118.01 22.7975 118.01 18.5625C118.01 17.6666 117.806 16.8522 117.521 16.0377H122.978V22.431C122.978 27.9284 126.032 31.3897 132.14 31.3897C133.973 31.3897 135.805 30.7789 137.23 29.9645V30.5753L137.434 30.7789H141.751L141.954 30.5753V11.8434L141.751 11.6398H137.434L137.23 11.8434V24.7928C136.131 26.0552 134.258 26.8289 132.385 26.8289C129.331 26.8289 127.702 25.1593 127.702 21.9016V11.8434L127.498 11.6398H113.327ZM115.241 35.0954C115.241 33.207 112.046 32.4004 109.69 31.8055C109.048 31.6435 108.469 31.4972 108.033 31.349C106.73 32.1634 105.305 33.5479 105.305 35.2175C105.305 36.5613 106.852 37.3758 110.68 37.3758C113.816 37.3758 115.241 36.3577 115.241 35.0954ZM113.531 18.5625C113.531 16.73 112.105 15.2233 110.273 15.2233C108.44 15.2233 107.015 16.73 107.015 18.5625C107.015 20.3949 108.44 21.9016 110.273 21.9016C112.105 21.9016 113.531 20.3949 113.531 18.5625Z" fill="white"/>
<path d="M24.8401 9.92953V4.5543C22.1932 2.6404 18.9355 1.66309 15.0669 1.66309C6.71903 1.66309 0 8.38212 0 16.5264C0 24.6707 6.71903 31.3897 15.0669 31.3897C18.9355 31.3897 22.2051 30.4288 24.8401 28.4985C26.2314 27.4793 27.3641 26.392 28.336 25.2686C30.5017 22.7655 31.8692 20.0828 33.5219 17.5725C34.4682 16.3378 35.9361 15.5898 37.7007 15.5898C40.7955 15.5898 42.9945 17.9516 42.9945 21.2094C42.9945 24.4671 40.7955 26.8289 37.7007 26.8289C35.9241 26.8289 34.2726 25.7871 33.3587 24.8492L33.1228 24.8168C32.9154 25.1473 32.3573 26.0256 31.9256 26.6049C31.5026 27.1725 30.83 27.951 30.5571 28.2631L30.6394 28.6003C32.458 30.336 34.9357 31.3897 37.7007 31.3897C43.4017 31.3897 47.881 26.9104 47.881 21.2094C47.881 15.5084 43.4017 11.029 37.7007 11.029C34.0732 11.029 30.9402 12.8426 29.1412 15.6305C29.0813 15.7273 29.0221 15.8243 28.9639 15.9217C28.8395 16.1366 28.7236 16.3561 28.6026 16.5737C27.8903 17.855 26.1527 20.8505 24.5428 22.6142C22.4538 24.9028 18.6911 26.4217 15.0669 26.4217C9.69169 26.4217 5.37523 22.0238 5.37523 16.5264C5.37523 11.029 9.69169 6.6311 15.0669 6.6311C18.6911 6.6311 21.9896 7.89346 24.6365 10.1331L24.8401 9.92953Z" fill="white"/>
</g>
<defs>
<clipPath id="clip0_5012_117097">
<rect width="143" height="44" fill="white"/>
</clipPath>
</defs>
</svg>
