<svg width="150" height="44" viewBox="0 0 150 44" fill="none" xmlns="http://www.w3.org/2000/svg">
<path fill-rule="evenodd" clip-rule="evenodd" d="M8.76884 5.44546C12.0135 3.25772 15.8282 2.09002 19.7305 2.09002C22.3218 2.0893 24.8878 2.6038 27.2819 3.60411C29.6761 4.60443 31.8515 6.07096 33.6838 7.91992C35.5161 9.76887 36.9694 11.964 37.9606 14.38C38.952 16.7959 39.4618 19.3852 39.4611 22C39.4611 25.9378 38.3039 29.7872 36.1358 33.0615C33.9678 36.3357 30.8863 38.8876 27.281 40.3945C23.6758 41.9014 19.7086 42.2957 15.8813 41.5275C12.0539 40.7593 8.53832 38.8629 5.77895 36.0785C3.01958 33.294 1.14043 29.7465 0.379126 25.8843C-0.382181 22.0222 0.00854742 18.0189 1.50191 14.3808C2.99526 10.7427 5.52417 7.6332 8.76884 5.44546ZM5.54497 19.2982L11.4647 25.2772C11.5234 25.3387 11.5939 25.3877 11.6718 25.421C11.7497 25.4545 11.8335 25.4718 11.9181 25.4718C12.0028 25.4718 12.0866 25.4545 12.1645 25.421C12.2424 25.3877 12.3129 25.3387 12.3716 25.2772L18.2805 19.2982C18.3985 19.179 18.4648 19.0174 18.4648 18.8488C18.4648 18.6804 18.3985 18.5187 18.2805 18.3994L12.3553 12.4259C12.2372 12.3068 12.077 12.2399 11.91 12.2399C11.743 12.2399 11.5828 12.3068 11.4647 12.4259L5.54497 18.3994C5.4269 18.5187 5.3606 18.6804 5.3606 18.8488C5.3606 19.0174 5.4269 19.179 5.54497 19.2982ZM20.1759 33.1634L26.0955 27.1899C26.2137 27.0707 26.2799 26.9091 26.2799 26.7405C26.2799 26.572 26.2137 26.4103 26.0955 26.2912L20.1759 20.3121C20.0578 20.1929 19.8975 20.126 19.7305 20.126C19.5634 20.126 19.4033 20.1929 19.2851 20.3121L13.3601 26.2912C13.242 26.4103 13.1757 26.572 13.1757 26.7405C13.1757 26.9091 13.242 27.0707 13.3601 27.1899L19.2851 33.1634C19.4033 33.2825 19.5634 33.3495 19.7305 33.3495C19.8975 33.3495 20.0578 33.2825 20.1759 33.1634ZM27.991 25.2772L33.9106 19.2982C33.9697 19.2396 34.0168 19.1696 34.0488 19.0924C34.0808 19.0153 34.0973 18.9326 34.0973 18.8488C34.0973 18.7652 34.0808 18.6823 34.0488 18.6052C34.0168 18.528 33.9697 18.4581 33.9106 18.3994L27.991 12.4259C27.8728 12.3068 27.7127 12.2399 27.5456 12.2399C27.3786 12.2399 27.2185 12.3068 27.1003 12.4259L21.1751 18.3994C21.0571 18.5187 20.9908 18.6804 20.9908 18.8488C20.9908 19.0174 21.0571 19.179 21.1751 19.2982L27.1003 25.2772C27.2185 25.3964 27.3786 25.4633 27.5456 25.4633C27.7127 25.4633 27.8728 25.3964 27.991 25.2772Z" fill="white" style="fill:white;fill-opacity:1;"/>
<path d="M46.0657 10.813L52.2499 31.3871C52.2818 31.5141 52.3579 31.6254 52.4642 31.7007C52.5705 31.7759 52.7002 31.8101 52.8293 31.7969H56.528C56.6531 31.8113 56.7789 31.7769 56.8796 31.7007C56.9803 31.6244 57.0483 31.5122 57.0696 31.3871L63.1835 10.813C63.2701 10.5508 63.1564 10.3431 62.891 10.3431H60.1022C59.9826 10.3376 59.8648 10.3721 59.7668 10.4413C59.6688 10.5105 59.5963 10.6105 59.5606 10.7256L56.4306 21.6001C55.8295 23.6492 55.1525 26.1137 54.7464 27.9553H54.6598C54.2806 26.1411 53.6146 23.6766 53.0352 21.6547L49.8401 10.7256C49.8228 10.6101 49.7617 10.5058 49.6698 10.4345C49.5781 10.3632 49.4625 10.3305 49.3473 10.3431H46.3256C46.2703 10.3404 46.2153 10.3534 46.1669 10.3806C46.1184 10.4077 46.0784 10.448 46.0515 10.4968C46.0244 10.5457 46.0115 10.6011 46.014 10.657C46.0165 10.7129 46.0344 10.7669 46.0657 10.813Z" fill="white" style="fill:white;fill-opacity:1;"/>
<path fill-rule="evenodd" clip-rule="evenodd" d="M75.9934 20.6425V31.3968C75.9993 31.4521 75.993 31.508 75.9748 31.5605C75.9564 31.613 75.9267 31.6606 75.8877 31.7C75.8487 31.7393 75.8015 31.7693 75.7495 31.7878C75.6974 31.8062 75.642 31.8127 75.5873 31.8067H73.0313C72.9764 31.8127 72.921 31.8062 72.8689 31.7878C72.817 31.7693 72.7696 31.7393 72.7307 31.7C72.6917 31.6606 72.662 31.613 72.6438 31.5605C72.6254 31.508 72.6191 31.4521 72.6251 31.3968V29.4787C72.1552 30.2843 71.4848 30.9518 70.6801 31.4149C69.8754 31.878 68.9647 32.1203 68.0384 32.1181C65.0166 32.1181 63.0996 30.1236 63.0996 27.2C63.0996 24.2765 65.0166 22.5715 69.1972 22.2819C70.2892 22.1993 71.3855 22.1902 72.4789 22.2546V20.7846C72.4789 18.9703 71.4933 18.2381 69.8361 18.2381C68.1791 18.2381 67.5726 18.8502 67.1556 19.9977C67.0365 20.3202 66.9228 20.3747 66.6141 20.2874L64.0852 19.6425C63.8252 19.555 63.7386 19.4075 63.8252 19.1725C64.2909 16.8884 66.3541 15.3037 69.9825 15.3037C73.7298 15.3037 75.9934 17.0961 75.9934 20.6425ZM72.4789 26.588V24.5989C71.4823 24.5567 70.4841 24.575 69.4897 24.6535C67.5997 24.8612 66.5275 25.506 66.5275 27.0305C66.5275 28.3476 67.4263 29.2164 68.9644 29.2164C70.5944 29.2001 71.8398 28.2329 72.4789 26.588Z" fill="white" style="fill:white;fill-opacity:1;"/>
<path d="M83.0172 31.3953V21.4279C83.5968 19.7613 84.8747 18.6136 86.4235 18.6136C88.0481 18.6136 88.8658 19.6738 88.8658 21.4279V31.3953C88.8658 31.6576 89.0066 31.8051 89.2991 31.8051H92.0608C92.1162 31.8147 92.1732 31.8107 92.2268 31.7935C92.2804 31.7761 92.3292 31.7463 92.3689 31.7061C92.4086 31.666 92.4383 31.6169 92.4554 31.5628C92.4724 31.5086 92.4764 31.4513 92.467 31.3953V20.8432C92.467 17.5591 90.8099 15.3295 87.7611 15.3295C86.801 15.3397 85.8582 15.589 85.0166 16.0551C84.1749 16.5213 83.4602 17.1898 82.9361 18.0017V16.0071C82.9389 15.9538 82.93 15.9004 82.9102 15.8509C82.8903 15.8014 82.86 15.7568 82.8213 15.7204C82.7825 15.6839 82.7365 15.6565 82.6861 15.6399C82.6358 15.6234 82.5825 15.6181 82.5299 15.6246H79.8223C79.7693 15.6173 79.7154 15.6218 79.6643 15.638C79.6134 15.6541 79.5665 15.6815 79.5273 15.718C79.4879 15.7546 79.457 15.7994 79.437 15.8494C79.4168 15.8994 79.4079 15.9532 79.4107 16.0071V31.3953C79.4107 31.6576 79.557 31.8051 79.8493 31.8051H82.6112C82.6659 31.8111 82.7213 31.8047 82.7734 31.7863C82.8255 31.7677 82.8727 31.7377 82.9116 31.6985C82.9506 31.6591 82.9803 31.6114 82.9987 31.5589C83.0169 31.5066 83.0233 31.4505 83.0172 31.3953Z" fill="white" style="fill:white;fill-opacity:1;"/>
<path d="M100.352 12.0445V15.7385H103.547C103.78 15.7385 103.927 15.886 103.927 16.1757V18.2905C103.927 18.5801 103.78 18.7002 103.547 18.7002H100.352V26.8479C100.352 28.0173 100.991 28.602 102.297 28.602H103.52C103.576 28.5935 103.633 28.5985 103.687 28.6164C103.74 28.6344 103.789 28.6648 103.828 28.7053C103.868 28.7458 103.897 28.7953 103.915 28.8494C103.932 28.9036 103.936 28.9613 103.927 29.0173V31.389C103.936 31.4449 103.932 31.5024 103.915 31.5564C103.898 31.6105 103.868 31.6596 103.828 31.6998C103.789 31.7399 103.74 31.7699 103.686 31.7871C103.633 31.8043 103.576 31.8083 103.52 31.7987H101.717C98.4679 31.7987 96.8433 30.0392 96.8433 27.3453V18.7002H94.8398C94.7845 18.7086 94.728 18.7038 94.6751 18.6861C94.622 18.6685 94.5739 18.6385 94.5343 18.5986C94.4948 18.5588 94.4652 18.5101 94.4477 18.4565C94.4302 18.4032 94.4254 18.3463 94.4336 18.2905V16.1757C94.4336 15.886 94.5798 15.7385 94.8398 15.7385H96.8705V12.0445C96.8664 11.9896 96.8741 11.9345 96.8931 11.8829C96.9121 11.8314 96.9418 11.7845 96.9805 11.7456C97.019 11.7067 97.0653 11.6767 97.1165 11.6575C97.1675 11.6383 97.2222 11.6306 97.2765 11.6346H99.9518C100.006 11.6295 100.061 11.6365 100.112 11.6554C100.164 11.6742 100.21 11.7044 100.249 11.7436C100.287 11.7828 100.316 11.8302 100.334 11.8822C100.352 11.9343 100.358 11.9897 100.352 12.0445Z" fill="white" style="fill:white;fill-opacity:1;"/>
<path fill-rule="evenodd" clip-rule="evenodd" d="M118.491 31.3968V20.6425C118.491 17.0961 116.228 15.3037 112.481 15.3037C108.852 15.3037 106.784 16.9102 106.323 19.1725C106.237 19.4075 106.323 19.555 106.583 19.6425L109.118 20.2874C109.426 20.3747 109.545 20.3202 109.659 19.9977C110.071 18.8502 110.677 18.2381 112.334 18.2381C113.991 18.2381 114.977 18.9703 114.977 20.7846V22.2546C113.884 22.1902 112.787 22.1993 111.695 22.2819C107.509 22.5715 105.598 24.2765 105.598 27.2C105.598 30.1236 107.509 32.1181 110.531 32.1181C111.458 32.1208 112.37 31.8786 113.175 31.4155C113.981 30.9526 114.652 30.2848 115.123 29.4787V31.3968C115.117 31.4521 115.123 31.508 115.142 31.5605C115.16 31.613 115.19 31.6606 115.229 31.7C115.268 31.7393 115.315 31.7693 115.367 31.7878C115.419 31.8062 115.474 31.8127 115.529 31.8067H118.085C118.14 31.8127 118.195 31.8062 118.248 31.7878C118.3 31.7693 118.347 31.7393 118.386 31.7C118.425 31.6606 118.454 31.613 118.473 31.5605C118.491 31.508 118.497 31.4521 118.491 31.3968ZM114.977 24.599V26.588C114.338 28.2329 113.087 29.2001 111.462 29.2164C109.924 29.2164 109.02 28.3476 109.02 27.0305C109.02 25.506 110.098 24.8612 111.982 24.6535C112.978 24.575 113.978 24.5567 114.977 24.599Z" fill="white" style="fill:white;fill-opacity:1;"/>
<path fill-rule="evenodd" clip-rule="evenodd" d="M135.225 32.9092C135.225 35.6414 133.189 37.9475 127.703 37.9475C122.732 37.9475 120.848 36.1933 120.848 33.6141C120.848 32.237 121.66 30.9473 123.317 30.2425C122.981 29.9938 122.704 29.6723 122.507 29.3016C122.311 28.931 122.199 28.5204 122.18 28.1003C122.182 27.5893 122.339 27.091 122.629 26.6722C122.92 26.2534 123.33 25.9338 123.805 25.7561C123.015 25.3034 122.365 24.6402 121.925 23.8392C121.484 23.0381 121.271 22.1302 121.308 21.2151C121.308 17.991 123.279 15.6139 127.552 15.6139H134.754C134.801 15.6165 134.846 15.6287 134.887 15.6497C134.929 15.6706 134.966 15.6999 134.996 15.7357C135.025 15.7715 135.048 15.8131 135.061 15.8579C135.075 15.9027 135.079 15.9498 135.074 15.9964V18.051C135.077 18.1057 135.069 18.1604 135.049 18.2116C135.03 18.2628 135 18.3092 134.962 18.3479C134.923 18.3866 134.877 18.4167 134.827 18.4361C134.776 18.4557 134.722 18.4641 134.667 18.4608H132.139C132.606 18.8636 132.976 19.3677 133.223 19.9355C133.47 20.5033 133.586 21.1201 133.563 21.7396C133.563 24.5265 131.619 26.6577 127.606 26.6577H126.588C125.629 26.6577 125.223 27.073 125.223 27.625C125.223 28.1769 125.662 28.5375 126.588 28.5375H129.902C133.655 28.5703 135.225 30.4173 135.225 32.9092ZM131.797 33.2316C131.797 32.2917 131.256 31.4119 129.388 31.4119H126.453C124.736 31.4119 124.129 32.3245 124.129 33.2589C124.129 34.6086 125.212 35.4884 127.92 35.4884C130.628 35.4884 131.797 34.5212 131.797 33.2316ZM124.557 21.2151C124.557 22.9746 125.575 24.144 127.552 24.144C129.409 24.144 130.454 23.0893 130.454 21.2423C130.454 19.4827 129.496 18.3407 127.519 18.3407C125.543 18.3407 124.557 19.3954 124.557 21.2151Z" fill="white" style="fill:white;fill-opacity:1;"/>
<path fill-rule="evenodd" clip-rule="evenodd" d="M140.215 25.7683V24.8338H149.269C149.821 24.8338 150 24.599 150 24.129V21.6644C150 18.0359 147.796 15.3037 143.502 15.3037C139.029 15.3037 136.76 18.0633 136.76 21.7246V25.7082C136.76 29.4623 139.115 32.129 143.556 32.129C146.605 32.129 148.841 30.8395 149.8 28.7027C149.978 28.3476 149.946 28.1126 149.54 27.9104L147.709 26.9705C147.331 26.7957 147.19 26.8557 146.957 27.2327C146.405 28.3202 145.755 29.1673 143.589 29.1673C141.298 29.1399 140.215 27.8502 140.215 25.7683ZM140.215 22.4294V21.5769C140.215 19.5878 141.249 18.2655 143.415 18.2655C145.581 18.2655 146.664 19.5878 146.664 21.5769V22.4294H140.215Z" fill="white" style="fill:white;fill-opacity:1;"/>
</svg>
