<svg width="208" height="44" viewBox="0 0 208 44" fill="none" xmlns="http://www.w3.org/2000/svg">
<path d="M5.26917 22.3949C5.18209 22.3947 5.09661 22.3725 5.02135 22.3305C4.94609 22.2885 4.88371 22.2282 4.84051 22.1557C4.79731 22.0833 4.7748 22.0012 4.77527 21.9177C4.77573 21.8342 4.79915 21.7523 4.84316 21.6803L12.9172 8.23756C12.9498 8.18347 12.9933 8.13606 13.0451 8.09806C13.0968 8.06006 13.1559 8.03221 13.2189 8.01609C13.2819 7.99998 13.3476 7.99591 13.4122 8.00413C13.4769 8.01235 13.5392 8.0327 13.5956 8.064C13.652 8.09531 13.7015 8.13696 13.7411 8.18659C13.7808 8.23621 13.8098 8.29284 13.8266 8.35323C13.8435 8.41362 13.8477 8.47659 13.8391 8.53855C13.8305 8.60051 13.8093 8.66025 13.7767 8.71434L5.69838 22.152C5.65581 22.2254 5.5936 22.2866 5.51816 22.3293C5.44273 22.372 5.35678 22.3946 5.26917 22.3949ZM7.65378 22.3949C7.56683 22.3944 7.48155 22.372 7.40648 22.3299C7.33141 22.2879 7.26919 22.2276 7.22605 22.1552C7.1829 22.0829 7.16035 22.0009 7.16066 21.9175C7.16096 21.8342 7.1841 21.7524 7.22777 21.6803L14.0759 10.2386C14.1415 10.1294 14.2496 10.0495 14.3765 10.0167C14.5035 9.98385 14.6388 10.0007 14.7528 10.0635C14.8667 10.1263 14.95 10.23 14.9843 10.3517C15.0185 10.4733 15.001 10.6031 14.9354 10.7123L8.08406 22.152C8.04122 22.2254 7.97881 22.2866 7.90321 22.3292C7.82761 22.3719 7.74153 22.3946 7.65378 22.3949ZM10.1311 22.3949C10.0438 22.3951 9.95815 22.3729 9.8829 22.3306C9.82654 22.2993 9.77717 22.2575 9.73762 22.2079C9.69807 22.1582 9.66911 22.1016 9.65239 22.0412C9.63568 21.9808 9.63154 21.9178 9.64021 21.8559C9.64887 21.794 9.67018 21.7343 9.70291 21.6803L15.371 12.3346C15.4022 12.2778 15.445 12.2276 15.4969 12.1871C15.5488 12.1465 15.6088 12.1165 15.6731 12.0988C15.7375 12.081 15.8049 12.0759 15.8713 12.0838C15.9378 12.0917 16.0019 12.1124 16.0598 12.1447C16.1176 12.1769 16.1681 12.2201 16.2082 12.2715C16.2482 12.323 16.2769 12.3817 16.2927 12.4441C16.3084 12.5064 16.3109 12.5712 16.2998 12.6345C16.2888 12.6978 16.2645 12.7583 16.2284 12.8124L10.5603 22.154C10.5172 22.2269 10.4549 22.2876 10.3795 22.3299C10.3041 22.3722 10.2184 22.3946 10.1311 22.3949ZM12.652 22.3949C12.566 22.3952 12.4815 22.3738 12.407 22.3327C12.3503 22.3014 12.3006 22.2596 12.2607 22.2099C12.2209 22.1601 12.1917 22.1032 12.1749 22.0426C12.1581 21.982 12.1539 21.9187 12.1627 21.8565C12.1714 21.7944 12.193 21.7345 12.226 21.6803L16.55 14.4122C16.5806 14.3551 16.623 14.3045 16.6745 14.2635C16.7261 14.2225 16.7858 14.192 16.85 14.1737C16.9142 14.1554 16.9816 14.1497 17.0481 14.157C17.1147 14.1644 17.179 14.1845 17.2372 14.2163C17.2954 14.2481 17.3462 14.2909 17.3867 14.342C17.4272 14.3931 17.4565 14.4516 17.4728 14.5139C17.4891 14.5762 17.4921 14.641 17.4816 14.7044C17.4711 14.7678 17.4473 14.8285 17.4116 14.8829L13.0876 22.1509C13.0445 22.2253 12.9813 22.2872 12.9046 22.3301C12.828 22.373 12.7407 22.3954 12.652 22.3949ZM0.473321 30.3583C0.345809 30.3526 0.225477 30.3001 0.13733 30.2116C0.0491835 30.1231 0 30.0054 0 29.883C0 29.7607 0.0491835 29.643 0.13733 29.5545C0.225477 29.466 0.345809 29.4135 0.473321 29.4078L16.3487 29.3904C16.4762 29.3961 16.5966 29.4486 16.6847 29.5371C16.7729 29.6257 16.822 29.7433 16.822 29.8657C16.822 29.988 16.7729 30.1057 16.6847 30.1942C16.5966 30.2827 16.4762 30.3353 16.3487 30.3409L0.473321 30.3583ZM1.70131 28.4011C1.57379 28.3955 1.45346 28.3429 1.36531 28.2544C1.27717 28.1659 1.22798 28.0483 1.22798 27.9259C1.22798 27.8035 1.27717 27.6859 1.36531 27.5974C1.45346 27.5089 1.57379 27.4563 1.70131 27.4506L15.1559 27.4108C15.2834 27.4165 15.4037 27.469 15.4919 27.5575C15.58 27.6461 15.6292 27.7637 15.6292 27.8861C15.6292 28.0084 15.58 28.1261 15.4919 28.2146C15.4037 28.3031 15.2834 28.3557 15.1559 28.3613L1.70131 28.4011ZM13.9173 26.3051L2.9474 26.2766C2.88036 26.2795 2.81338 26.2695 2.75053 26.2469C2.68767 26.2244 2.63023 26.1899 2.58169 26.1454C2.53315 26.101 2.49451 26.0476 2.46812 25.9885C2.44172 25.9293 2.42811 25.8656 2.42811 25.8013C2.42811 25.737 2.44172 25.6733 2.46812 25.6142C2.49451 25.555 2.53315 25.5016 2.58169 25.4572C2.63023 25.4128 2.68767 25.3783 2.75053 25.3557C2.81338 25.3332 2.88036 25.3231 2.9474 25.3261L13.9173 25.3547C14.0448 25.3603 14.1651 25.4129 14.2532 25.5014C14.3414 25.5899 14.3906 25.7075 14.3906 25.8299C14.3906 25.9523 14.3414 26.0699 14.2532 26.1584C14.1651 26.2469 14.0448 26.2995 13.9173 26.3051ZM4.23822 24.2582C4.11071 24.2525 3.99037 24.1999 3.90223 24.1114C3.81408 24.0229 3.7649 23.9053 3.7649 23.7829C3.7649 23.6606 3.81408 23.5429 3.90223 23.4544C3.99037 23.3659 4.11071 23.3133 4.23822 23.3077L12.6616 23.2597C12.7891 23.2653 12.9094 23.3179 12.9976 23.4064C13.0857 23.4949 13.1349 23.6126 13.1349 23.7349C13.1349 23.8573 13.0857 23.975 12.9976 24.0635C12.9094 24.152 12.7891 24.2045 12.6616 24.2102L4.23822 24.2582ZM26.0182 30.3511C25.9305 30.3511 25.8444 30.3288 25.7686 30.2864C25.6928 30.2441 25.6301 30.1833 25.5868 30.1102L17.6779 16.7879C17.6194 16.6789 17.6071 16.5524 17.6436 16.4349C17.6801 16.3173 17.7625 16.2178 17.8736 16.1571C17.9847 16.0964 18.116 16.0792 18.2401 16.109C18.3642 16.1389 18.4714 16.2135 18.5395 16.3173L26.4484 29.6436C26.5134 29.753 26.5303 29.8827 26.4956 30.004C26.4608 30.1254 26.3772 30.2286 26.2631 30.2909C26.1884 30.3312 26.1039 30.352 26.0182 30.3511ZM23.6346 30.3103C23.547 30.3105 23.4609 30.2883 23.3852 30.2462C23.3094 30.204 23.2466 30.1434 23.2033 30.0704L16.4861 18.7675C16.4505 18.7132 16.4267 18.6525 16.4162 18.5891C16.4056 18.5256 16.4086 18.4608 16.4249 18.3986C16.4412 18.3363 16.4705 18.2778 16.511 18.2267C16.5515 18.1755 16.6024 18.1328 16.6606 18.101C16.7188 18.0692 16.7831 18.049 16.8496 18.0417C16.9162 18.0344 16.9836 18.04 17.0478 18.0583C17.112 18.0766 17.1717 18.1072 17.2232 18.1482C17.2748 18.1892 17.3171 18.2398 17.3477 18.2969L24.066 29.5997C24.1309 29.7093 24.1479 29.8391 24.1132 29.9606C24.0784 30.0822 23.9948 30.1855 23.8806 30.248C23.8058 30.2893 23.7209 30.3108 23.6346 30.3103ZM21.0924 30.3399C21.0042 30.3402 20.9176 30.3177 20.8416 30.275C20.7655 30.2323 20.7028 30.1708 20.66 30.0969L15.2443 20.8217C15.1842 20.7119 15.1712 20.584 15.208 20.4652C15.2448 20.3463 15.3285 20.246 15.4414 20.1854C15.5542 20.1249 15.6872 20.109 15.8122 20.141C15.9371 20.1731 16.044 20.2506 16.1102 20.3571L21.5248 29.6324C21.5672 29.7047 21.5891 29.7864 21.5884 29.8693C21.5876 29.9523 21.5642 30.0336 21.5205 30.1051C21.4767 30.1767 21.4142 30.2361 21.3391 30.2772C21.264 30.3184 21.1789 30.34 21.0924 30.3399ZM18.6258 30.2807C18.538 30.2809 18.4518 30.2586 18.376 30.2163C18.3002 30.1739 18.2375 30.113 18.1944 30.0397L13.9843 22.9187C13.9266 22.8095 13.9149 22.6833 13.9518 22.5661C13.9886 22.4489 14.0712 22.3499 14.1823 22.2895C14.2934 22.2292 14.4244 22.2122 14.5482 22.2421C14.672 22.272 14.779 22.3465 14.847 22.4501L19.0571 29.5711C19.0893 29.6254 19.11 29.6852 19.118 29.7472C19.126 29.8091 19.1212 29.872 19.1038 29.9321C19.0863 29.9923 19.0567 30.0485 19.0165 30.0977C18.9763 30.1468 18.9264 30.1878 18.8697 30.2184C18.7956 30.2596 18.7114 30.2811 18.6258 30.2807ZM44.6733 8.53364H34.8143V30.103H37.6324V21.7895H44.6733C48.3679 21.7895 51.3745 18.8166 51.3745 15.1616C51.3745 11.5066 48.3679 8.53364 44.6733 8.53364ZM44.6733 19.0013H37.6324V11.3218H44.6733C46.814 11.3218 48.5554 13.0442 48.5554 15.1616C48.5554 17.279 46.814 19.0013 44.6733 19.0013ZM59.407 14.0559C54.8369 14.0559 51.1189 17.7313 51.1189 22.253C51.1189 26.7748 54.8369 30.4491 59.407 30.4491C63.9771 30.4491 67.693 26.7738 67.693 22.2541C67.693 17.7344 63.9728 14.0559 59.407 14.0559ZM64.8738 22.2541C64.8738 25.2362 62.4242 27.665 59.407 27.665C56.3898 27.665 53.938 25.2393 53.938 22.2541C53.938 19.2688 56.3876 16.8431 59.407 16.8431C62.4264 16.8431 64.8706 19.2719 64.8706 22.2541H64.8738ZM69.7123 8.53364H72.5303V30.1041H69.7123V8.53364ZM88.3876 14.401V16.108C86.8975 14.7922 84.9468 14.06 82.9208 14.0559C78.3518 14.0559 74.6338 17.7313 74.6338 22.253C74.6338 26.7748 78.3518 30.4491 82.9208 30.4491C84.9468 30.4451 86.8975 29.7128 88.3876 28.3971V30.1041H91.2068V14.401H88.3876ZM88.3876 22.253C88.3876 25.2352 85.9381 27.664 82.9208 27.664C79.9036 27.664 77.4519 25.2383 77.4519 22.253C77.4519 19.2678 79.9015 16.8421 82.9208 16.8421C85.9402 16.8421 88.3876 19.2709 88.3876 22.253ZM102.578 14.0937C101.437 14.1993 100.331 14.5332 99.3331 15.0738C98.3348 15.6144 97.4658 16.3496 96.7822 17.232V14.401H93.9631V30.1051H96.7822V22.8207C96.7822 19.6558 99.3895 17.0228 102.593 16.9431H102.719V14.0845L102.578 14.0937ZM121.42 18.2407L114.816 16.4551C113.515 16.0039 113.219 14.8716 113.374 13.963C113.64 12.4244 115.253 10.8706 118.26 10.8706C120.034 10.8706 121.361 11.3167 122.2 12.1978C123.128 13.1667 123.291 14.4837 123.319 15.0054L123.326 15.1524L126.111 14.6133L126.101 14.498C125.987 13.3464 125.577 11.6843 124.274 10.3121C122.877 8.83073 120.852 8.08238 118.258 8.08238C113.606 8.08238 111.056 10.8011 110.589 13.4934C110.157 16.0059 111.513 18.2622 113.972 19.1085L120.699 20.9309C122.829 21.4618 124.065 22.8615 123.86 24.5042C123.647 26.1928 121.915 27.8968 118.52 27.8968C116.452 27.8968 114.898 27.37 113.907 26.3317C113.268 25.665 112.853 24.787 112.673 23.7232L112.651 23.5935L109.89 24.1305L109.911 24.2541C110.191 25.8345 110.84 27.1699 111.837 28.2235C113.382 29.857 115.631 30.687 118.523 30.687C123.61 30.687 126.307 27.661 126.66 24.8493C126.983 22.2929 125.487 19.2535 121.42 18.2407ZM130.989 8.53772C129.984 8.53772 129.167 9.34631 129.167 10.3407C129.167 11.3351 129.984 12.1437 130.989 12.1437C131.994 12.1437 132.812 11.3351 132.812 10.3407C132.812 9.34631 131.994 8.53772 130.989 8.53772ZM129.58 14.401H132.399V30.1041H129.58V14.401ZM148.679 14.401V16.108C147.189 14.7922 145.238 14.06 143.212 14.0559C138.643 14.0559 134.925 17.7313 134.925 22.252C134.925 26.7727 138.643 30.4491 143.212 30.4491C145.239 30.4448 147.189 29.7122 148.679 28.396V32.5145C148.681 32.6047 148.664 32.6944 148.629 32.7782C148.594 32.8621 148.542 32.9386 148.477 33.0034C148.411 33.0681 148.333 33.1199 148.247 33.1556C148.16 33.1914 148.067 33.2105 147.973 33.2118H138.02V36H147.973C149.917 36 151.498 34.4369 151.498 32.5145V14.401H148.679ZM148.679 22.252C148.679 25.2352 146.23 27.663 143.212 27.663C140.195 27.663 137.745 25.2372 137.745 22.252C137.745 19.2668 140.194 16.841 143.212 16.841C146.231 16.841 148.679 19.2709 148.679 22.252ZM161.988 14.0559C160.946 14.0609 159.92 14.2999 158.992 14.7538C158.064 15.2077 157.26 15.8638 156.645 16.6695V14.401H153.826V30.103H156.645V21.4669C156.645 18.9636 158.703 16.9268 161.235 16.9268C163.767 16.9268 165.825 18.9687 165.825 21.4669V30.103H168.727V20.7206C168.725 17.0452 165.703 14.0559 161.988 14.0559ZM184.381 14.401V16.108C182.891 14.792 180.94 14.0597 178.913 14.0559C174.344 14.0559 170.626 17.7313 170.626 22.253C170.626 26.7748 174.344 30.4491 178.913 30.4491C180.94 30.4453 182.891 29.7131 184.381 28.3971V30.1041H187.199V14.401H184.381ZM184.381 22.253C184.381 25.2352 181.932 27.664 178.913 27.664C175.895 27.664 173.444 25.2383 173.444 22.253C173.444 19.2678 175.894 16.8421 178.913 16.8421C181.933 16.8421 184.381 19.2709 184.381 22.253ZM189.877 8.53364H192.696V30.1041H189.877V8.53364ZM203.739 20.7247L199.098 19.4996C198.303 19.23 198.291 18.5919 198.352 18.2367C198.509 17.3433 199.511 16.4429 201.396 16.4429C202.532 16.4429 203.369 16.7083 203.884 17.232C204.31 17.669 204.471 18.2305 204.523 18.6246L204.559 18.8727L207.348 18.5103L207.315 18.2581C207.157 17.1095 206.701 16.1366 205.956 15.3688C204.891 14.2683 203.355 13.7098 201.401 13.7098C197.869 13.7098 195.928 15.7517 195.571 17.7783C195.23 19.718 196.309 21.4536 198.264 22.1162L203.029 23.372C204.315 23.6864 205.07 24.4766 204.952 25.3863C204.825 26.3725 203.736 27.3679 201.59 27.3679C200.244 27.3679 199.247 27.0474 198.628 26.4144C198.235 26.0142 197.979 25.4812 197.867 24.8289L197.781 24.3296L195.003 24.8544L195.091 25.3342C195.304 26.5032 195.796 27.4945 196.56 28.2807C197.732 29.4915 199.436 30.1051 201.59 30.1051C205.44 30.1051 207.485 27.8345 207.757 25.7253C208.005 23.7824 206.86 21.4832 203.739 20.7247Z" fill="white" style="fill:white;fill-opacity:1;"/>
</svg>
