<svg width="137" height="44" viewBox="0 0 137 44" fill="none" xmlns="http://www.w3.org/2000/svg">
<path fill-rule="evenodd" clip-rule="evenodd" d="M40.4243 39.7101V25.1726V24.0212L40.3921 22.07L40.4729 0C37.2212 1.00754 33.4198 1.80719 29.3269 2.12704V2.52687C30.9447 3.29452 32.0123 4.07816 32.4977 4.8618C32.9678 5.6208 32.9674 7.2949 32.9668 9.78245V10.0275V36.6715C32.9668 36.6715 32.9668 36.7514 32.983 36.7833V37.5032H32.9668C32.9668 37.5032 32.9668 37.631 32.983 37.679C32.983 39.1343 32.983 40.6056 32.9993 42.061C32.9993 42.7008 33.5168 43.1964 34.1476 43.1964H40.4082C40.7845 43.1964 41.1644 43.1913 41.5453 43.186C42.3108 43.1752 43.0819 43.1645 43.8379 43.1964L43.8863 42.8606C43.8467 42.8509 43.8071 42.8395 43.7671 42.8282C43.6764 42.8023 43.5829 42.7757 43.4819 42.7647C41.2658 42.4769 40.5539 41.821 40.3921 39.7261L40.4243 39.7101ZM17.0506 11.788C16.808 11.82 16.4682 12.0119 16.4036 12.2198C16.3549 12.3957 16.5006 12.8116 16.7432 12.8915C17.2124 13.0515 18.6522 13.1794 18.6522 13.1794C18.9917 13.2274 19.3155 13.2434 19.5743 13.2434C20.0126 13.2434 20.4005 13.2593 20.7635 13.2741C21.7131 13.3131 22.4933 13.3451 23.5699 13.0674C27.2582 12.1239 28.0188 7.34203 26.7084 4.54329C25.5112 1.98445 23.0846 1.32874 20.5934 1.21678C16.9698 1.05686 13.3137 1.07285 9.69006 1.21678C8.3959 1.26476 7.00468 1.71257 5.85609 2.32029C3.25159 3.67967 2.57215 6.12657 2.62069 8.84534C2.65304 11.1803 3.26776 11.6921 5.6296 11.3562C5.84524 11.3262 6.06133 11.2952 6.27781 11.2641C7.32812 11.1135 8.38787 10.9614 9.4474 10.9084C10.2077 10.8764 10.8225 11.2283 10.8063 12.1718C10.7739 13.0674 10.2563 13.4513 9.43121 13.4193C8.91349 13.398 8.39577 13.334 7.87805 13.27C7.6193 13.238 7.36049 13.206 7.10172 13.1794C6.80345 13.1494 6.50516 13.1116 6.20688 13.0738C5.55072 12.9907 4.89454 12.9075 4.23838 12.9075C3.00893 12.9075 2.55598 13.6112 2.83099 14.8106C3.28394 16.6978 4.64281 17.7214 6.32523 18.3771C8.33115 19.1494 10.089 19.7787 11.9316 20.4383C12.9124 20.7895 13.9172 21.1492 14.9961 21.5437C15.4006 21.6876 16.3873 22.1992 16.8565 22.4553C16.8565 22.4553 17.8271 23.0949 18.3934 23.4788C18.9756 23.8786 19.0728 24.8381 19.0889 25.5257C19.0889 26.3621 19.092 27.199 19.0949 28.0362C19.1074 31.5538 19.1201 35.0783 18.9111 38.5919C18.6682 42.5581 16.1771 42.8619 13.3461 42.3983C12.3107 42.2382 11.7446 41.5666 11.421 40.703C11.2592 40.2551 11.1783 39.7913 11.1622 39.3116L10.9357 30.2596C10.8804 29.9368 10.8423 29.6107 10.8044 29.2864C10.7203 28.5667 10.6371 27.8556 10.3695 27.205C9.98125 26.2615 9.39888 25.2859 8.6062 24.6782C7.81352 24.0705 6.71348 23.6867 5.69433 23.5587C3.67219 23.3187 1.73094 23.6867 0 24.9182C1.9736 25.19 2.36185 26.5814 2.55598 28.0846C2.62655 28.5849 2.6287 29.1018 2.63084 29.6173C2.63165 29.8107 2.63244 30.0037 2.63686 30.1958V36.321C2.66921 40.7351 5.53256 43.0219 9.39888 43.2619C13.0549 43.4698 16.7432 43.4698 20.4154 43.2619C23.845 43.07 26.7893 41.2947 27.129 37.5204C27.4059 34.407 27.3282 31.2545 27.2509 28.1216V28.119C27.2424 27.7772 27.234 27.4344 27.2261 27.093C27.1937 25.3658 26.1099 24.1345 24.492 23.5107C22.8744 22.887 21.2082 22.3433 19.5419 21.8474L16.7108 20.9679C16.2861 20.7789 15.8543 20.602 15.423 20.4253C14.5404 20.0636 13.6596 19.7026 12.8446 19.2407C11.5666 18.521 10.9519 17.2896 10.7901 15.8342C10.693 15.0505 10.8548 14.6348 11.7769 14.4908C13.3784 14.2348 13.9446 13.4992 13.8799 12.0759C13.8314 10.8125 13.3299 10.2047 11.9549 9.94884C11.0489 9.78894 10.596 9.42108 10.7578 8.47751C10.8344 7.99757 10.8901 7.51125 10.9457 7.02561C11.066 5.97387 11.1861 4.92528 11.5181 3.95156C12.0843 2.27231 13.7182 1.71257 15.9992 2.01642C17.6007 2.24033 18.6522 3.15192 18.8139 4.86314C18.9756 6.49442 18.9595 8.15766 18.8625 9.78892C18.7978 10.8285 18.2801 11.6601 17.0506 11.804V11.788ZM128.721 39.7244C128.867 41.8194 129.546 42.4753 131.633 42.7631L131.617 42.795C131.7 42.8052 131.776 42.8285 131.853 42.8522C131.897 42.8656 131.942 42.8793 131.989 42.8909L131.941 43.2269C131.229 43.195 130.511 43.2056 129.79 43.2162C129.429 43.2216 129.067 43.2269 128.705 43.2269H122.784C122.186 43.2269 121.7 42.731 121.7 42.0914C121.7 40.6359 121.7 39.1646 121.668 37.7092V33.503V33.3753C121.693 27.9319 121.708 26.423 121.714 25.8633C121.716 25.6989 121.717 25.6151 121.717 25.5389C121.717 20.949 120.147 18.662 116.977 18.662C114.534 18.662 112.318 20.0533 110.344 22.852V25.2029V39.7404C110.506 41.8353 111.218 42.4912 113.434 42.779C113.535 42.7902 113.629 42.8168 113.72 42.8428C113.76 42.854 113.799 42.8652 113.838 42.8751L113.79 43.2107C113.034 43.1788 112.263 43.1895 111.497 43.2001C111.116 43.2054 110.737 43.2107 110.36 43.2107H104.1C103.469 43.2107 102.951 42.715 102.951 42.0755C102.935 40.6207 102.935 39.1499 102.935 37.6953V37.6933C102.919 37.6453 102.919 37.5173 102.919 37.5173H102.935V36.7978C102.919 36.7657 102.919 36.6858 102.919 36.6858V10.0418C102.919 7.80282 102.919 6.20353 102.628 5.29193C102.579 5.13203 102.498 4.98807 102.434 4.87614C101.948 4.09248 100.881 3.30884 99.2628 2.54118V2.14137C99.3357 2.14137 99.4045 2.13336 99.4732 2.12537C99.542 2.11738 99.6107 2.10938 99.6835 2.10938C103.615 1.77353 107.287 0.989878 110.425 0.0143216L110.344 20.949C113.094 16.9347 116.492 14.9356 120.536 14.9356C122.72 14.9356 124.645 15.6072 126.262 16.9667C127.896 18.326 128.721 20.4051 128.721 23.2518V33.4072V39.7244ZM98.043 18.6533C98.0375 18.5619 98.0338 18.4687 98.0303 18.3747C98.0232 18.1896 98.0159 18.0022 97.9944 17.8218C97.6547 14.7193 96.0531 12.6882 93.4971 12.2884C88.9837 11.5847 84.4541 11.6007 79.9409 12.3363C77.8216 12.6882 76.0421 13.8716 75.6538 16.0466C75.2656 18.1897 75.1686 20.4286 75.3142 22.5877C75.4759 24.9066 77.1583 26.1222 79.3746 26.5379C80.3139 26.7128 81.2609 26.828 82.2618 26.9495C82.726 27.006 83.2019 27.0639 83.6939 27.1297C90.5853 27.8492 90.3265 31.4318 90.3265 31.4318C90.4882 34.6143 90.4235 37.7969 90.3265 40.9794C90.2779 42.4987 89.2911 43.2824 87.7381 43.3942C87.5987 43.4025 87.4552 43.4065 87.3096 43.4106C87.1681 43.4144 87.0244 43.4184 86.8809 43.4263C83.6939 43.4584 82.8527 42.7066 82.7233 39.5241C82.6749 38.2671 82.6787 37.0044 82.6826 35.7426C82.6851 34.9016 82.6877 34.0607 82.6747 33.2228C82.6585 31.5438 82.0923 30.7601 80.7172 30.3122C79.9409 30.0563 79.0996 30.1843 78.4201 30.616L74.3759 33.271C73.9408 33.5613 73.5276 33.8878 73.1118 34.2165C72.9092 34.3765 72.7061 34.5371 72.4993 34.6942L72.5963 34.982C72.7512 34.9927 72.9076 35.0103 73.0649 35.0277C73.384 35.0634 73.7056 35.0995 74.02 35.0781C74.7965 35.0462 75.0878 35.3659 75.12 36.1177C75.1461 36.8495 75.2553 37.5712 75.3644 38.2907C75.3913 38.4673 75.4179 38.6438 75.4436 38.8203C75.7994 41.2993 77.1097 42.9466 79.5849 43.4102C84.1144 44.2419 88.6926 44.1139 93.2544 43.5222C95.7295 43.2023 97.3798 41.7151 97.687 39.2363C97.9783 36.8852 98.0591 34.5023 98.0105 32.1355C97.962 30.0243 96.8457 28.4092 94.7266 27.8492C93.5144 27.5246 92.2627 27.3488 91.0154 27.1737C90.4817 27.0989 89.949 27.0239 89.4205 26.9378C88.5632 26.7939 87.6897 26.65 86.5896 26.474C84.2439 26.0102 83.5645 24.7468 83.5645 24.7468C83.1924 24.219 82.8365 23.5312 82.8365 22.9237C82.8365 20.1089 82.9174 17.2782 83.0629 14.4634C83.1115 13.3599 83.8556 12.6402 84.9718 12.5282C86.0558 12.4163 87.1558 12.3363 88.2235 12.4963C89.6632 12.7042 90.2779 13.4718 90.3912 14.9272C90.4882 16.2546 90.5531 17.5819 90.5367 18.9094C90.5206 20.2849 90.828 21.4522 91.8471 22.2678C92.4619 22.7477 93.2544 22.9396 94.0311 22.7955L99.4826 21.852V21.5483C98.1143 21.1935 98.0989 20.235 98.0833 19.2746C98.0798 19.0656 98.0765 18.8565 98.0591 18.6533H98.043ZM69.0591 36.3734C69.0591 37.3811 69.0591 38.4046 69.1075 39.4282L69.1399 39.4601C69.2532 41.795 69.9325 42.5147 72.2458 42.8025C72.347 42.8137 72.4405 42.8403 72.5314 42.8663C72.5714 42.8777 72.6108 42.8888 72.6502 42.8985L72.6018 43.2344C71.9107 43.2041 71.2103 43.212 70.5102 43.2199C67.4911 43.2538 64.4778 43.2875 62.2322 40.2757L62.1742 40.3721C61.8978 40.8326 61.7 41.1618 61.4881 41.491C60.6144 42.8025 59.4498 43.682 57.8159 43.682C57.5048 43.682 57.1935 43.6831 56.8821 43.6842C55.1195 43.6905 53.3523 43.6965 51.62 43.5062C48.1258 43.1224 46.2978 41.1393 46.1361 37.4929C46.0067 34.2623 46.0389 31.016 46.1036 27.7854C46.1522 25.3864 47.867 23.3713 50.2935 22.9875C51.5536 22.7856 52.8493 22.7866 54.141 22.7873C54.5905 22.7875 55.0396 22.7878 55.4863 22.7796L61.4395 22.8595V18.1256C61.4395 17.3901 61.4395 16.6543 61.3911 15.9186C61.1809 12.6402 59.7248 11.5207 56.4084 12.0644C54.5967 12.3523 53.8524 13.1199 53.7555 14.9432C53.7069 15.4549 53.7069 15.9507 53.7069 16.4465C53.7232 16.5104 53.7232 16.5585 53.7232 16.6223C53.7448 16.7932 53.752 16.9641 53.7591 17.135C53.7626 17.22 53.7663 17.305 53.7716 17.3901C53.7857 17.5721 53.7881 17.7591 53.7903 17.9458C53.8009 18.8251 53.8114 19.699 55.0658 20.0288V20.3167L51.4097 20.9563C48.3209 21.6562 47.9198 21.5968 47.2791 21.5017L47.2684 21.5002C46.4596 21.3721 46.0553 21.0364 45.9904 20.1886C45.9315 19.42 45.9412 18.6341 45.9509 17.8561C45.9544 17.566 45.9581 17.2769 45.9581 16.9901C45.9742 13.5518 48.0935 12.4163 50.6009 12.0164C55.0497 11.3128 59.5306 11.2648 64.0116 11.9205C66.6001 12.2883 68.3148 13.9516 68.6706 16.5585C68.8809 18.1577 69.0427 19.773 69.0427 21.3882C69.0776 24.9539 69.0708 28.5277 69.0642 32.0981C69.0616 33.5239 69.0591 34.9494 69.0591 36.3734ZM55.8907 43.1545C56.6836 43.2503 57.5407 43.2663 58.3336 43.1545C60.5013 42.8346 62.1191 40.5635 61.8116 38.5485C61.6014 37.237 61.4557 35.9096 61.4234 34.5822C61.3781 32.6893 61.3882 30.7885 61.3984 28.8906C61.4028 28.0789 61.4073 27.2677 61.4073 26.4578C61.5204 23.931 60.7277 23.8031 59.9189 23.7552C53.7877 23.3393 53.6746 23.9631 53.6746 25.8501C53.6544 28.7696 53.6658 31.689 53.6772 34.6084C53.684 36.3589 53.6907 38.1094 53.6907 39.8599C53.6907 40.1477 53.7069 40.4355 53.7393 40.7076C53.9496 42.1629 54.6291 42.9944 55.8907 43.1545Z" fill="white" style="fill:white;fill-opacity:1;"/>
</svg>
